<svg width="895" height="154" viewBox="0 0 895 154" fill="none" xmlns="http://www.w3.org/2000/svg">
<path d="M838.606 140.425C834.197 140.425 830.338 139.599 827.031 137.945C823.769 136.245 821.22 133.949 819.383 131.055C817.591 128.115 816.695 124.784 816.695 121.064C816.695 117.343 817.568 114.036 819.314 111.142C821.105 108.202 823.563 105.928 826.686 104.32C829.81 102.667 833.324 101.84 837.228 101.84C840.903 101.84 844.256 102.598 847.288 104.114C850.32 105.584 852.732 107.765 854.523 110.659C856.314 113.553 857.21 117.067 857.21 121.202C857.21 121.661 857.187 122.189 857.141 122.786C857.095 123.383 857.049 123.935 857.003 124.44H827.444V117.55H850.044L845.083 119.479C845.129 117.779 844.808 116.309 844.119 115.069C843.476 113.829 842.557 112.864 841.363 112.175C840.214 111.486 838.859 111.142 837.297 111.142C835.735 111.142 834.357 111.486 833.163 112.175C832.015 112.864 831.119 113.852 830.476 115.138C829.833 116.378 829.511 117.848 829.511 119.548V121.546C829.511 123.383 829.879 124.968 830.614 126.3C831.395 127.632 832.497 128.666 833.921 129.401C835.345 130.09 837.045 130.435 839.02 130.435C840.857 130.435 842.419 130.182 843.705 129.677C845.037 129.125 846.347 128.299 847.633 127.196L854.523 134.362C852.732 136.337 850.527 137.853 847.908 138.91C845.29 139.92 842.189 140.425 838.606 140.425Z" fill="black"/>
<path d="M797.015 140.425C792.881 140.425 789.183 139.599 785.921 137.945C782.706 136.291 780.179 134.017 778.342 131.124C776.505 128.184 775.586 124.83 775.586 121.064C775.586 117.297 776.505 113.967 778.342 111.073C780.179 108.179 782.706 105.928 785.921 104.32C789.183 102.667 792.881 101.84 797.015 101.84C801.241 101.84 804.893 102.736 807.97 104.527C811.048 106.319 813.23 108.845 814.516 112.106L804.387 117.274C803.515 115.529 802.435 114.265 801.149 113.484C799.863 112.658 798.462 112.244 796.946 112.244C795.43 112.244 794.052 112.589 792.812 113.278C791.571 113.967 790.584 114.977 789.849 116.309C789.16 117.596 788.815 119.18 788.815 121.064C788.815 122.993 789.16 124.624 789.849 125.956C790.584 127.288 791.571 128.299 792.812 128.988C794.052 129.677 795.43 130.021 796.946 130.021C798.462 130.021 799.863 129.631 801.149 128.85C802.435 128.023 803.515 126.737 804.387 124.991L814.516 130.159C813.23 133.42 811.048 135.947 807.97 137.738C804.893 139.53 801.241 140.425 797.015 140.425Z" fill="black"/>
<path d="M756.997 139.805V132.846L756.102 131.124V118.308C756.102 116.241 755.459 114.656 754.172 113.553C752.932 112.405 750.934 111.831 748.178 111.831C746.386 111.831 744.572 112.129 742.735 112.726C740.897 113.278 739.335 114.059 738.049 115.069L733.639 106.181C735.752 104.803 738.279 103.746 741.219 103.011C744.205 102.23 747.167 101.84 750.107 101.84C756.171 101.84 760.856 103.241 764.163 106.043C767.517 108.799 769.193 113.14 769.193 119.066V139.805H756.997ZM745.973 140.425C742.987 140.425 740.461 139.92 738.394 138.91C736.327 137.899 734.742 136.521 733.639 134.775C732.583 133.03 732.055 131.078 732.055 128.919C732.055 126.622 732.629 124.647 733.777 122.993C734.972 121.293 736.786 120.007 739.221 119.134C741.655 118.216 744.802 117.756 748.66 117.756H757.48V124.578H750.452C748.339 124.578 746.846 124.922 745.973 125.611C745.146 126.3 744.733 127.219 744.733 128.367C744.733 129.516 745.169 130.435 746.042 131.124C746.915 131.813 748.109 132.157 749.625 132.157C751.049 132.157 752.335 131.813 753.483 131.124C754.678 130.389 755.551 129.286 756.102 127.816L757.893 132.639C757.204 135.212 755.849 137.164 753.828 138.496C751.853 139.782 749.234 140.425 745.973 140.425Z" fill="black"/>
<path d="M712.586 139.806V88.6797H725.677V139.806H712.586Z" fill="black"/>
<path d="M688.176 140.425C685.006 140.425 682.296 139.736 680.045 138.358C677.794 136.934 676.072 134.821 674.877 132.019C673.729 129.171 673.155 125.542 673.155 121.133C673.155 116.677 673.706 113.048 674.808 110.246C675.911 107.398 677.565 105.285 679.769 103.907C682.02 102.529 684.822 101.84 688.176 101.84C691.575 101.84 694.652 102.644 697.409 104.251C700.211 105.813 702.415 108.041 704.023 110.935C705.677 113.783 706.504 117.182 706.504 121.133C706.504 125.083 705.677 128.505 704.023 131.399C702.415 134.293 700.211 136.521 697.409 138.083C694.652 139.645 691.575 140.425 688.176 140.425ZM664.68 153.172V102.46H677.151V108.799L677.082 121.133L677.771 133.535V153.172H664.68ZM685.419 130.021C686.889 130.021 688.199 129.677 689.347 128.988C690.541 128.299 691.483 127.288 692.172 125.956C692.907 124.624 693.274 123.016 693.274 121.133C693.274 119.249 692.907 117.642 692.172 116.309C691.483 114.977 690.541 113.967 689.347 113.278C688.199 112.589 686.889 112.244 685.419 112.244C683.95 112.244 682.617 112.589 681.423 113.278C680.275 113.967 679.333 114.977 678.598 116.309C677.909 117.642 677.565 119.249 677.565 121.133C677.565 123.016 677.909 124.624 678.598 125.956C679.333 127.288 680.275 128.299 681.423 128.988C682.617 129.677 683.95 130.021 685.419 130.021Z" fill="black"/>
<path d="M630.485 140.424C625.707 140.424 621.987 139.252 619.323 136.91C616.658 134.521 615.326 130.938 615.326 126.161V94.1211H628.418V126.023C628.418 127.355 628.785 128.412 629.52 129.193C630.255 129.928 631.197 130.295 632.345 130.295C633.907 130.295 635.239 129.905 636.341 129.124L639.58 138.288C638.477 139.023 637.122 139.551 635.515 139.873C633.907 140.24 632.23 140.424 630.485 140.424ZM609.883 113.621V103.836H636.962V113.621H609.883Z" fill="black"/>
<path d="M589.709 140.425C586.539 140.425 583.438 140.058 580.407 139.323C577.421 138.588 575.009 137.669 573.172 136.567L577.099 127.609C578.845 128.666 580.889 129.516 583.232 130.159C585.574 130.756 587.871 131.055 590.122 131.055C592.327 131.055 593.843 130.825 594.67 130.366C595.542 129.906 595.979 129.286 595.979 128.505C595.979 127.77 595.565 127.242 594.738 126.92C593.958 126.553 592.901 126.277 591.569 126.094C590.283 125.91 588.859 125.703 587.297 125.474C585.735 125.244 584.15 124.945 582.543 124.578C580.981 124.164 579.534 123.567 578.202 122.786C576.916 121.959 575.882 120.857 575.101 119.479C574.32 118.101 573.93 116.355 573.93 114.242C573.93 111.854 574.619 109.741 575.997 107.903C577.421 106.02 579.488 104.55 582.198 103.494C584.908 102.391 588.216 101.84 592.12 101.84C594.738 101.84 597.38 102.115 600.044 102.667C602.754 103.172 605.028 103.953 606.865 105.009L602.938 113.898C601.1 112.841 599.263 112.129 597.426 111.762C595.588 111.348 593.843 111.142 592.189 111.142C589.984 111.142 588.422 111.394 587.504 111.9C586.631 112.405 586.194 113.025 586.194 113.76C586.194 114.495 586.585 115.069 587.366 115.483C588.147 115.85 589.18 116.149 590.466 116.378C591.799 116.562 593.246 116.769 594.807 116.998C596.369 117.182 597.931 117.481 599.493 117.894C601.1 118.308 602.547 118.928 603.834 119.755C605.166 120.535 606.222 121.615 607.003 122.993C607.784 124.325 608.175 126.048 608.175 128.161C608.175 130.457 607.462 132.525 606.038 134.362C604.66 136.199 602.593 137.669 599.837 138.772C597.127 139.874 593.751 140.425 589.709 140.425Z" fill="black"/>
<path d="M551.489 140.425C547.079 140.425 543.221 139.599 539.914 137.945C536.652 136.245 534.103 133.949 532.265 131.055C530.474 128.115 529.578 124.784 529.578 121.064C529.578 117.343 530.451 114.036 532.196 111.142C533.988 108.202 536.445 105.928 539.569 104.32C542.693 102.667 546.207 101.84 550.111 101.84C553.786 101.84 557.139 102.598 560.171 104.114C563.203 105.584 565.614 107.765 567.406 110.659C569.197 113.553 570.093 117.067 570.093 121.202C570.093 121.661 570.07 122.189 570.024 122.786C569.978 123.383 569.932 123.935 569.886 124.44H540.327V117.55H562.927L557.966 119.479C558.012 117.779 557.69 116.309 557.001 115.069C556.358 113.829 555.44 112.864 554.245 112.175C553.097 111.486 551.742 111.142 550.18 111.142C548.618 111.142 547.24 111.486 546.046 112.175C544.898 112.864 544.002 113.852 543.359 115.138C542.716 116.378 542.394 117.848 542.394 119.548V121.546C542.394 123.383 542.762 124.968 543.497 126.3C544.277 127.632 545.38 128.666 546.804 129.401C548.228 130.09 549.927 130.435 551.903 130.435C553.74 130.435 555.302 130.182 556.588 129.677C557.92 129.125 559.229 128.299 560.516 127.196L567.406 134.362C565.614 136.337 563.409 137.853 560.791 138.91C558.173 139.92 555.072 140.425 551.489 140.425Z" fill="black"/>
<path d="M507.511 140.426C504.158 140.426 501.356 139.737 499.105 138.359C496.9 136.981 495.247 134.868 494.144 132.02C493.042 129.172 492.491 125.52 492.491 121.064C492.491 116.7 493.065 113.094 494.213 110.246C495.408 107.398 497.13 105.285 499.381 103.907C501.632 102.529 504.342 101.84 507.511 101.84C510.911 101.84 513.988 102.621 516.744 104.183C519.547 105.745 521.751 107.972 523.359 110.866C525.013 113.714 525.84 117.114 525.84 121.064C525.84 125.06 525.013 128.506 523.359 131.399C521.751 134.247 519.547 136.475 516.744 138.083C513.988 139.645 510.911 140.426 507.511 140.426ZM484.016 139.806V88.6797H497.107V108.73L496.418 121.064L496.487 133.398V139.806H484.016ZM504.755 130.021C506.225 130.021 507.534 129.677 508.683 128.988C509.877 128.299 510.819 127.288 511.508 125.956C512.243 124.578 512.61 122.947 512.61 121.064C512.61 119.181 512.243 117.596 511.508 116.31C510.819 114.978 509.877 113.967 508.683 113.278C507.534 112.589 506.225 112.244 504.755 112.244C503.285 112.244 501.953 112.589 500.759 113.278C499.611 113.967 498.669 114.978 497.934 116.31C497.245 117.596 496.9 119.181 496.9 121.064C496.9 122.947 497.245 124.578 497.934 125.956C498.669 127.288 499.611 128.299 500.759 128.988C501.953 129.677 503.285 130.021 504.755 130.021Z" fill="black"/>
<path d="M433.414 139.805V102.46H445.885V113.347L444.025 110.246C445.128 107.444 446.919 105.354 449.4 103.976C451.88 102.552 454.889 101.84 458.426 101.84V113.622C457.829 113.53 457.3 113.484 456.841 113.484C456.428 113.438 455.968 113.416 455.463 113.416C452.799 113.416 450.64 114.15 448.986 115.62C447.332 117.044 446.506 119.387 446.506 122.648V139.805H433.414Z" fill="black"/>
<path d="M406.264 140.425C402.176 140.425 398.547 139.599 395.377 137.945C392.208 136.291 389.704 134.017 387.867 131.124C386.075 128.184 385.18 124.83 385.18 121.064C385.18 117.297 386.075 113.967 387.867 111.073C389.704 108.179 392.208 105.928 395.377 104.32C398.547 102.667 402.176 101.84 406.264 101.84C410.352 101.84 413.981 102.667 417.151 104.32C420.366 105.928 422.87 108.179 424.661 111.073C426.452 113.967 427.348 117.297 427.348 121.064C427.348 124.83 426.452 128.184 424.661 131.124C422.87 134.017 420.366 136.291 417.151 137.945C413.981 139.599 410.352 140.425 406.264 140.425ZM406.264 130.021C407.78 130.021 409.112 129.677 410.26 128.988C411.455 128.299 412.396 127.288 413.085 125.956C413.774 124.578 414.119 122.947 414.119 121.064C414.119 119.18 413.774 117.596 413.085 116.309C412.396 114.977 411.455 113.967 410.26 113.278C409.112 112.589 407.78 112.244 406.264 112.244C404.794 112.244 403.462 112.589 402.268 113.278C401.119 113.967 400.178 114.977 399.443 116.309C398.754 117.596 398.409 119.18 398.409 121.064C398.409 122.947 398.754 124.578 399.443 125.956C400.178 127.288 401.119 128.299 402.268 128.988C403.462 129.677 404.794 130.021 406.264 130.021Z" fill="black"/>
<path d="M361.451 139.805V102.873C361.451 98.371 362.783 94.7881 365.447 92.1239C368.158 89.4137 372.016 88.0586 377.023 88.0586C378.631 88.0586 380.216 88.2194 381.777 88.5409C383.339 88.8625 384.648 89.3448 385.705 89.9879L382.466 99.2208C381.915 98.8993 381.295 98.6467 380.606 98.4629C379.917 98.2332 379.228 98.1184 378.539 98.1184C377.161 98.1184 376.081 98.5318 375.301 99.3586C374.566 100.14 374.198 101.357 374.198 103.011V105.698L374.543 111.141V139.805H361.451ZM356.008 113.622V103.837H383.087V113.622H356.008Z" fill="black"/>
<path d="M302.563 139.802L281.961 91.5703H296.706L314.07 133.325H305.388L323.165 91.5703H336.67L315.999 139.802H302.563Z" fill="black"/>
<path d="M255.423 139.802V102.388H240.609V91.5703H283.811V102.388H269.066V139.802H255.423Z" fill="black"/>
<path d="M193.938 139.805V102.46H206.409V113.347L204.549 110.246C205.651 107.444 207.442 105.354 209.923 103.976C212.403 102.552 215.412 101.84 218.949 101.84V113.622C218.352 113.53 217.824 113.484 217.364 113.484C216.951 113.438 216.492 113.416 215.986 113.416C213.322 113.416 211.163 114.15 209.51 115.62C207.856 117.044 207.029 119.387 207.029 122.648V139.805H193.938Z" fill="black"/>
<path d="M161.934 140.422C158.902 140.422 156.169 139.825 153.734 138.631C151.346 137.437 149.462 135.576 148.084 133.05C146.752 130.478 146.086 127.239 146.086 123.335V102.457H159.177V121.199C159.177 124.093 159.706 126.16 160.762 127.4C161.865 128.64 163.403 129.26 165.379 129.26C166.665 129.26 167.836 128.962 168.893 128.364C169.949 127.767 170.799 126.826 171.442 125.539C172.085 124.207 172.407 122.508 172.407 120.441V102.457H185.498V139.802H173.027V129.26L175.439 132.223C174.152 134.979 172.292 137.046 169.857 138.424C167.423 139.756 164.782 140.422 161.934 140.422Z" fill="black"/>
<path d="M119.076 140.425C114.988 140.425 111.359 139.599 108.19 137.945C105.02 136.291 102.517 134.017 100.679 131.124C98.8879 128.184 97.9922 124.83 97.9922 121.064C97.9922 117.297 98.8879 113.967 100.679 111.073C102.517 108.179 105.02 105.928 108.19 104.32C111.359 102.667 114.988 101.84 119.076 101.84C123.165 101.84 126.794 102.667 129.963 104.32C133.179 105.928 135.682 108.179 137.473 111.073C139.265 113.967 140.161 117.297 140.161 121.064C140.161 124.83 139.265 128.184 137.473 131.124C135.682 134.017 133.179 136.291 129.963 137.945C126.794 139.599 123.165 140.425 119.076 140.425ZM119.076 130.021C120.592 130.021 121.924 129.677 123.073 128.988C124.267 128.299 125.209 127.288 125.898 125.956C126.587 124.578 126.931 122.947 126.931 121.064C126.931 119.18 126.587 117.596 125.898 116.309C125.209 114.977 124.267 113.967 123.073 113.278C121.924 112.589 120.592 112.244 119.076 112.244C117.607 112.244 116.274 112.589 115.08 113.278C113.932 113.967 112.99 114.977 112.255 116.309C111.566 117.596 111.222 119.18 111.222 121.064C111.222 122.947 111.566 124.578 112.255 125.956C112.99 127.288 113.932 128.299 115.08 128.988C116.274 129.677 117.607 130.021 119.076 130.021Z" fill="black"/>
<path d="M65.0252 153.79C63.05 153.79 61.0518 153.468 59.0307 152.825C57.0555 152.228 55.4477 151.424 54.2075 150.413L58.7551 141.249C59.536 141.938 60.4317 142.467 61.4423 142.834C62.4988 143.247 63.5323 143.454 64.5429 143.454C65.9669 143.454 67.0923 143.133 67.9191 142.49C68.746 141.846 69.458 140.836 70.0551 139.458L71.7777 135.117L72.8112 133.808L85.4893 102.457H97.9608L81.8375 141.318C80.5513 144.534 79.0584 147.037 77.3588 148.829C75.7051 150.666 73.8448 151.952 71.7777 152.687C69.7565 153.422 67.5057 153.79 65.0252 153.79ZM70.124 141.387L53.6562 102.457H67.0923L79.2192 132.636L70.124 141.387Z" fill="black"/>
<path d="M869.406 55.399V18.0537H881.878V28.9404L880.017 25.8397C881.12 23.0377 882.911 20.9476 885.392 19.5696C887.872 18.1456 890.881 17.4336 894.418 17.4336V29.216C893.821 29.1241 893.293 29.0782 892.833 29.0782C892.42 29.0322 891.96 29.0093 891.455 29.0093C888.791 29.0093 886.632 29.7442 884.978 31.2142C883.325 32.6381 882.498 34.9808 882.498 38.2422V55.399H869.406Z" fill="black"/>
<path d="M844.763 56.0192C840.353 56.0192 836.494 55.1923 833.187 53.5387C829.926 51.8391 827.376 49.5423 825.539 46.6484C823.747 43.7085 822.852 40.3782 822.852 36.6575C822.852 32.9367 823.724 29.6294 825.47 26.7355C827.261 23.7956 829.719 21.5218 832.842 19.9141C835.966 18.2604 839.48 17.4336 843.385 17.4336C847.059 17.4336 850.413 18.1915 853.444 19.7074C856.476 21.1773 858.888 23.3592 860.679 26.2532C862.471 29.1471 863.366 32.6611 863.366 36.7953C863.366 37.2546 863.343 37.7829 863.298 38.38C863.252 38.9772 863.206 39.5284 863.16 40.0337H833.6V33.1434H856.201L851.24 35.0727C851.285 33.3731 850.964 31.9032 850.275 30.6629C849.632 29.4227 848.713 28.458 847.519 27.769C846.37 27.08 845.015 26.7355 843.454 26.7355C841.892 26.7355 840.514 27.08 839.319 27.769C838.171 28.458 837.275 29.4457 836.632 30.7318C835.989 31.9721 835.667 33.442 835.667 35.1416V37.1398C835.667 38.9772 836.035 40.562 836.77 41.8941C837.551 43.2262 838.653 44.2598 840.077 44.9947C841.501 45.6837 843.201 46.0283 845.176 46.0283C847.014 46.0283 848.575 45.7756 849.861 45.2703C851.194 44.7191 852.503 43.8923 853.789 42.7898L860.679 49.9557C858.888 51.9309 856.683 53.4468 854.065 54.5033C851.446 55.5139 848.346 56.0192 844.763 56.0192Z" fill="black"/>
<path d="M793.342 56.0194C789.943 56.0194 786.843 55.2385 784.04 53.6767C781.284 52.069 779.079 49.8412 777.426 46.9932C775.772 44.0993 774.945 40.6541 774.945 36.6578C774.945 32.7073 775.772 29.3081 777.426 26.4601C779.079 23.5662 781.284 21.3384 784.04 19.7766C786.843 18.2148 789.943 17.4339 793.342 17.4339C796.558 17.4339 799.268 18.1229 801.473 19.501C803.724 20.879 805.423 22.992 806.572 25.84C807.72 28.688 808.294 32.2939 808.294 36.6578C808.294 41.1135 807.743 44.7653 806.641 47.6133C805.538 50.4613 803.884 52.5743 801.68 53.9524C799.475 55.3304 796.696 56.0194 793.342 56.0194ZM796.098 45.6151C797.568 45.6151 798.878 45.2706 800.026 44.5816C801.22 43.8926 802.162 42.882 802.851 41.5499C803.54 40.1718 803.884 38.5411 803.884 36.6578C803.884 34.7744 803.54 33.1896 802.851 31.9035C802.162 30.5713 801.22 29.5608 800.026 28.8717C798.878 28.1827 797.568 27.8382 796.098 27.8382C794.583 27.8382 793.227 28.1827 792.033 28.8717C790.885 29.5608 789.966 30.5713 789.277 31.9035C788.588 33.1896 788.244 34.7744 788.244 36.6578C788.244 38.5411 788.588 40.1718 789.277 41.5499C789.966 42.882 790.885 43.8926 792.033 44.5816C793.227 45.2706 794.583 45.6151 796.098 45.6151ZM804.298 55.3993V48.9914L804.367 36.6578L803.678 24.3242V4.27344H816.769V55.3993H804.298Z" fill="black"/>
<path d="M752.963 17.4336C755.857 17.4336 758.476 18.0308 760.818 19.2251C763.161 20.3734 764.998 22.1649 766.33 24.5995C767.709 27.034 768.398 30.1806 768.398 34.0392V55.399H755.306V36.1752C755.306 33.5109 754.755 31.5816 753.652 30.3873C752.596 29.1471 751.103 28.5269 749.174 28.5269C747.796 28.5269 746.532 28.8485 745.384 29.4916C744.236 30.0887 743.34 31.0304 742.697 32.3166C742.054 33.6028 741.732 35.2794 741.732 37.3465V55.399H728.641V18.0537H741.112V28.6648L738.7 25.5641C740.124 22.8539 742.077 20.8328 744.557 19.5007C747.038 18.1226 749.84 17.4336 752.963 17.4336Z" fill="black"/>
<path d="M696.637 56.0162C693.605 56.0162 690.872 55.4191 688.437 54.2248C686.049 53.0304 684.165 51.1701 682.787 48.6436C681.455 46.0713 680.789 42.8328 680.789 38.9283V18.0508H693.881V36.7923C693.881 39.6863 694.409 41.7533 695.465 42.9936C696.568 44.2338 698.107 44.854 700.082 44.854C701.368 44.854 702.539 44.5554 703.596 43.9582C704.652 43.3611 705.502 42.4194 706.145 41.1332C706.788 39.8011 707.11 38.1015 707.11 36.0344V18.0508H720.201V55.3961H707.73V44.854L710.142 47.8168C708.855 50.5729 706.995 52.64 704.561 54.018C702.126 55.3502 699.485 56.0162 696.637 56.0162Z" fill="black"/>
<path d="M624.556 69.3834C622.581 69.3834 620.583 69.0618 618.562 68.4187C616.587 67.8216 614.979 67.0177 613.739 66.0071L618.286 56.8431C619.067 57.5321 619.963 58.0603 620.973 58.4278C622.03 58.8412 623.064 59.048 624.074 59.048C625.498 59.048 626.624 58.7264 627.45 58.0833C628.277 57.4402 628.989 56.4296 629.586 55.0516L631.309 50.7107L632.342 49.4016L645.021 18.0508H657.492L641.369 56.912C640.083 60.1274 638.59 62.6309 636.89 64.4224C635.236 66.2598 633.376 67.546 631.309 68.2809C629.288 69.0159 627.037 69.3834 624.556 69.3834ZM629.655 56.9809L613.188 18.0508H626.624L638.75 48.2302L629.655 56.9809Z" fill="black"/>
<path d="M596.547 55.3993V4.27344H609.638V55.3993H596.547Z" fill="black"/>
<path d="M582.407 56.0175C577.629 56.0175 573.909 54.8462 571.244 52.5035C568.58 50.1149 567.248 46.5319 567.248 41.7547V9.71484H580.34V41.6168C580.34 42.949 580.707 44.0055 581.442 44.7864C582.177 45.5213 583.119 45.8888 584.267 45.8888C585.829 45.8888 587.161 45.4984 588.263 44.7175L591.502 53.8815C590.399 54.6165 589.044 55.1448 587.437 55.4663C585.829 55.8338 584.152 56.0175 582.407 56.0175ZM561.805 29.2143V19.4301H588.883V29.2143H561.805Z" fill="black"/>
<path d="M542.694 56.0192C538.56 56.0192 534.862 55.1923 531.601 53.5387C528.386 51.885 525.859 49.6112 524.022 46.7173C522.184 43.7774 521.266 40.4242 521.266 36.6575C521.266 32.8908 522.184 29.5605 524.022 26.6666C525.859 23.7727 528.386 21.5218 531.601 19.9141C534.862 18.2604 538.56 17.4336 542.694 17.4336C546.92 17.4336 550.572 18.3293 553.65 20.1208C556.728 21.9123 558.91 24.4387 560.196 27.7001L550.067 32.8678C549.194 31.1223 548.115 29.8591 546.829 29.0782C545.542 28.2513 544.141 27.8379 542.626 27.8379C541.11 27.8379 539.732 28.1824 538.491 28.8715C537.251 29.5605 536.263 30.5711 535.529 31.9032C534.839 33.1894 534.495 34.7741 534.495 36.6575C534.495 38.5868 534.839 40.2175 535.529 41.5496C536.263 42.8817 537.251 43.8923 538.491 44.5813C539.732 45.2703 541.11 45.6148 542.626 45.6148C544.141 45.6148 545.542 45.2244 546.829 44.4435C548.115 43.6167 549.194 42.3305 550.067 40.5849L560.196 45.7526C558.91 49.014 556.728 51.5405 553.65 53.332C550.572 55.1234 546.92 56.0192 542.694 56.0192Z" fill="black"/>
<path d="M498.974 56.0192C494.564 56.0192 490.705 55.1923 487.398 53.5387C484.137 51.8391 481.587 49.5423 479.75 46.6484C477.958 43.7085 477.062 40.3782 477.062 36.6575C477.062 32.9367 477.935 29.6294 479.681 26.7355C481.472 23.7956 483.93 21.5218 487.053 19.9141C490.177 18.2604 493.691 17.4336 497.596 17.4336C501.27 17.4336 504.624 18.1915 507.655 19.7074C510.687 21.1773 513.099 23.3592 514.89 26.2532C516.682 29.1471 517.577 32.6611 517.577 36.7953C517.577 37.2546 517.554 37.7829 517.508 38.38C517.463 38.9772 517.417 39.5284 517.371 40.0337H487.811V33.1434H510.411L505.45 35.0727C505.496 33.3731 505.175 31.9032 504.486 30.6629C503.843 29.4227 502.924 28.458 501.73 27.769C500.581 27.08 499.226 26.7355 497.664 26.7355C496.103 26.7355 494.725 27.08 493.53 27.769C492.382 28.458 491.486 29.4457 490.843 30.7318C490.2 31.9721 489.878 33.442 489.878 35.1416V37.1398C489.878 38.9772 490.246 40.562 490.981 41.8941C491.762 43.2262 492.864 44.2598 494.288 44.9947C495.712 45.6837 497.412 46.0283 499.387 46.0283C501.224 46.0283 502.786 45.7756 504.072 45.2703C505.405 44.7191 506.714 43.8923 508 42.7898L514.89 49.9557C513.099 51.9309 510.894 53.4468 508.276 54.5033C505.657 55.5139 502.557 56.0192 498.974 56.0192Z" fill="black"/>
<path d="M449.328 55.399V18.0537H461.8V28.9404L459.939 25.8397C461.042 23.0377 462.833 20.9476 465.314 19.5696C467.794 18.1456 470.803 17.4336 474.34 17.4336V29.216C473.743 29.1241 473.214 29.0782 472.755 29.0782C472.342 29.0322 471.882 29.0093 471.377 29.0093C468.713 29.0093 466.554 29.7442 464.9 31.2142C463.247 32.6381 462.42 34.9808 462.42 38.2422V55.399H449.328Z" fill="black"/>
<path d="M427.728 55.3979V18.0525H440.82V55.3979H427.728ZM434.274 13.9184C431.885 13.9184 429.956 13.2523 428.486 11.9202C427.016 10.5881 426.281 8.93439 426.281 6.95918C426.281 4.98397 427.016 3.3303 428.486 1.99818C429.956 0.66606 431.885 0 434.274 0C436.663 0 438.592 0.643093 440.062 1.92928C441.532 3.16953 442.267 4.77726 442.267 6.75247C442.267 8.81956 441.532 10.5421 440.062 11.9202C438.638 13.2523 436.709 13.9184 434.274 13.9184Z" fill="black"/>
<path d="M395.874 56.0194C392.474 56.0194 389.374 55.2385 386.572 53.6767C383.816 52.069 381.611 49.8412 379.957 46.9932C378.303 44.0993 377.477 40.6541 377.477 36.6578C377.477 32.7073 378.303 29.3081 379.957 26.4601C381.611 23.5662 383.816 21.3384 386.572 19.7766C389.374 18.2148 392.474 17.4339 395.874 17.4339C399.089 17.4339 401.799 18.1229 404.004 19.501C406.255 20.879 407.955 22.992 409.103 25.84C410.251 28.688 410.826 32.2939 410.826 36.6578C410.826 41.1135 410.274 44.7653 409.172 47.6133C408.069 50.4613 406.416 52.5743 404.211 53.9524C402.006 55.3304 399.227 56.0194 395.874 56.0194ZM398.63 45.6151C400.1 45.6151 401.409 45.2706 402.557 44.5816C403.751 43.8926 404.693 42.882 405.382 41.5499C406.071 40.1718 406.416 38.5411 406.416 36.6578C406.416 34.7744 406.071 33.1896 405.382 31.9035C404.693 30.5713 403.751 29.5608 402.557 28.8717C401.409 28.1827 400.1 27.8382 398.63 27.8382C397.114 27.8382 395.759 28.1827 394.564 28.8717C393.416 29.5608 392.497 30.5713 391.808 31.9035C391.119 33.1896 390.775 34.7744 390.775 36.6578C390.775 38.5411 391.119 40.1718 391.808 41.5499C392.497 42.882 393.416 43.8926 394.564 44.5816C395.759 45.2706 397.114 45.6151 398.63 45.6151ZM406.829 55.3993V48.9914L406.898 36.6578L406.209 24.3242V4.27344H419.301V55.3993H406.829Z" fill="black"/>
<path d="M338.6 66.2164L343.768 48.3016L345.628 55.7431C343.332 55.7431 341.448 55.0771 339.978 53.745C338.508 52.3669 337.773 50.5295 337.773 48.2327C337.773 45.8441 338.508 43.9608 339.978 42.5827C341.494 41.2047 343.378 40.5156 345.628 40.5156C347.879 40.5156 349.74 41.2276 351.209 42.6516C352.679 44.0297 353.414 45.89 353.414 48.2327C353.414 48.8758 353.368 49.5189 353.277 50.162C353.185 50.8051 352.978 51.586 352.656 52.5047C352.335 53.4234 351.83 54.6407 351.141 56.1566L346.8 66.2164H338.6Z" fill="black"/>
<path d="M308.202 56.0194C304.803 56.0194 301.702 55.2385 298.9 53.6767C296.144 52.069 293.939 49.8412 292.285 46.9932C290.632 44.0993 289.805 40.6541 289.805 36.6578C289.805 32.7073 290.632 29.3081 292.285 26.4601C293.939 23.5662 296.144 21.3384 298.9 19.7766C301.702 18.2148 304.803 17.4339 308.202 17.4339C311.417 17.4339 314.127 18.1229 316.332 19.501C318.583 20.879 320.283 22.992 321.431 25.84C322.579 28.688 323.154 32.2939 323.154 36.6578C323.154 41.1135 322.602 44.7653 321.5 47.6133C320.398 50.4613 318.744 52.5743 316.539 53.9524C314.334 55.3304 311.555 56.0194 308.202 56.0194ZM310.958 45.6151C312.428 45.6151 313.737 45.2706 314.885 44.5816C316.08 43.8926 317.021 42.882 317.71 41.5499C318.399 40.1718 318.744 38.5411 318.744 36.6578C318.744 34.7744 318.399 33.1896 317.71 31.9035C317.021 30.5713 316.08 29.5608 314.885 28.8717C313.737 28.1827 312.428 27.8382 310.958 27.8382C309.442 27.8382 308.087 28.1827 306.893 28.8717C305.744 29.5608 304.826 30.5713 304.136 31.9035C303.447 33.1896 303.103 34.7744 303.103 36.6578C303.103 38.5411 303.447 40.1718 304.136 41.5499C304.826 42.882 305.744 43.8926 306.893 44.5816C308.087 45.2706 309.442 45.6151 310.958 45.6151ZM319.157 55.3993V48.9914L319.226 36.6578L318.537 24.3242V4.27344H331.629V55.3993H319.157Z" fill="black"/>
<path d="M267.302 56.0192C262.892 56.0192 259.033 55.1923 255.726 53.5387C252.465 51.8391 249.915 49.5423 248.078 46.6484C246.286 43.7085 245.391 40.3782 245.391 36.6575C245.391 32.9367 246.263 29.6294 248.009 26.7355C249.8 23.7956 252.258 21.5218 255.382 19.9141C258.505 18.2604 262.019 17.4336 265.924 17.4336C269.598 17.4336 272.952 18.1915 275.983 19.7074C279.015 21.1773 281.427 23.3592 283.218 26.2532C285.01 29.1471 285.905 32.6611 285.905 36.7953C285.905 37.2546 285.882 37.7829 285.837 38.38C285.791 38.9772 285.745 39.5284 285.699 40.0337H256.139V33.1434H278.74L273.779 35.0727C273.825 33.3731 273.503 31.9032 272.814 30.6629C272.171 29.4227 271.252 28.458 270.058 27.769C268.909 27.08 267.554 26.7355 265.993 26.7355C264.431 26.7355 263.053 27.08 261.858 27.769C260.71 28.458 259.814 29.4457 259.171 30.7318C258.528 31.9721 258.207 33.442 258.207 35.1416V37.1398C258.207 38.9772 258.574 40.562 259.309 41.8941C260.09 43.2262 261.192 44.2598 262.616 44.9947C264.04 45.6837 265.74 46.0283 267.715 46.0283C269.553 46.0283 271.114 45.7756 272.401 45.2703C273.733 44.7191 275.042 43.8923 276.328 42.7898L283.218 49.9557C281.427 51.9309 279.222 53.4468 276.604 54.5033C273.985 55.5139 270.885 56.0192 267.302 56.0192Z" fill="black"/>
<path d="M217.656 55.399V18.0537H230.128V28.9404L228.267 25.8397C229.37 23.0377 231.161 20.9476 233.642 19.5696C236.122 18.1456 239.131 17.4336 242.668 17.4336V29.216C242.071 29.1241 241.543 29.0782 241.083 29.0782C240.67 29.0322 240.21 29.0093 239.705 29.0093C237.041 29.0093 234.882 29.7442 233.228 31.2142C231.575 32.6381 230.748 34.9808 230.748 38.2422V55.399H217.656Z" fill="black"/>
<path d="M193.013 56.0192C188.603 56.0192 184.744 55.1923 181.437 53.5387C178.176 51.8391 175.626 49.5423 173.789 46.6484C171.997 43.7085 171.102 40.3782 171.102 36.6575C171.102 32.9367 171.974 29.6294 173.72 26.7355C175.511 23.7956 177.969 21.5218 181.092 19.9141C184.216 18.2604 187.73 17.4336 191.635 17.4336C195.309 17.4336 198.663 18.1915 201.694 19.7074C204.726 21.1773 207.138 23.3592 208.929 26.2532C210.721 29.1471 211.616 32.6611 211.616 36.7953C211.616 37.2546 211.593 37.7829 211.547 38.38C211.502 38.9772 211.456 39.5284 211.41 40.0337H181.85V33.1434H204.451L199.49 35.0727C199.535 33.3731 199.214 31.9032 198.525 30.6629C197.882 29.4227 196.963 28.458 195.769 27.769C194.62 27.08 193.265 26.7355 191.703 26.7355C190.142 26.7355 188.764 27.08 187.569 27.769C186.421 28.458 185.525 29.4457 184.882 30.7318C184.239 31.9721 183.917 33.442 183.917 35.1416V37.1398C183.917 38.9772 184.285 40.562 185.02 41.8941C185.801 43.2262 186.903 44.2598 188.327 44.9947C189.751 45.6837 191.451 46.0283 193.426 46.0283C195.263 46.0283 196.825 45.7756 198.111 45.2703C199.444 44.7191 200.753 43.8923 202.039 42.7898L208.929 49.9557C207.138 51.9309 204.933 53.4468 202.315 54.5033C199.696 55.5139 196.596 56.0192 193.013 56.0192Z" fill="black"/>
<path d="M160.375 56.0175C155.598 56.0175 151.877 54.8462 149.213 52.5035C146.549 50.1149 145.217 46.5319 145.217 41.7547V9.71484H158.308V41.6168C158.308 42.949 158.676 44.0055 159.411 44.7864C160.146 45.5213 161.087 45.8888 162.236 45.8888C163.798 45.8888 165.13 45.4984 166.232 44.7175L169.471 53.8815C168.368 54.6165 167.013 55.1448 165.405 55.4663C163.798 55.8338 162.121 56.0175 160.375 56.0175ZM139.773 29.2143V19.4301H166.852V29.2143H139.773Z" fill="black"/>
<path d="M120.049 17.4336C122.943 17.4336 125.561 18.0308 127.904 19.2251C130.247 20.3734 132.084 22.1649 133.416 24.5995C134.794 27.034 135.483 30.1806 135.483 34.0392V55.399H122.392V36.1752C122.392 33.5109 121.841 31.5816 120.738 30.3873C119.682 29.1471 118.189 28.5269 116.26 28.5269C114.882 28.5269 113.618 28.8485 112.47 29.4916C111.322 30.0887 110.426 31.0304 109.783 32.3166C109.14 33.6028 108.818 35.2794 108.818 37.3465V55.399H95.7266V18.0537H108.198V28.6648L105.786 25.5641C107.21 22.8539 109.163 20.8328 111.643 19.5007C114.124 18.1226 116.926 17.4336 120.049 17.4336Z" fill="black"/>
<path d="M71.0908 56.0192C66.681 56.0192 62.8224 55.1923 59.5151 53.5387C56.2537 51.8391 53.7043 49.5423 51.8669 46.6484C50.0754 43.7085 49.1797 40.3782 49.1797 36.6575C49.1797 32.9367 50.0525 29.6294 51.798 26.7355C53.5895 23.7956 56.047 21.5218 59.1706 19.9141C62.2942 18.2604 65.8082 17.4336 69.7127 17.4336C73.3875 17.4336 76.7408 18.1915 79.7725 19.7074C82.8043 21.1773 85.2159 23.3592 87.0073 26.2532C88.7988 29.1471 89.6945 32.6611 89.6945 36.7953C89.6945 37.2546 89.6716 37.7829 89.6256 38.38C89.5797 38.9772 89.5338 39.5284 89.4878 40.0337H59.9285V33.1434H82.5286L77.5676 35.0727C77.6136 33.3731 77.292 31.9032 76.603 30.6629C75.9599 29.4227 75.0412 28.458 73.8469 27.769C72.6985 27.08 71.3434 26.7355 69.7816 26.7355C68.2198 26.7355 66.8418 27.08 65.6475 27.769C64.4991 28.458 63.6033 29.4457 62.9602 30.7318C62.3172 31.9721 61.9956 33.442 61.9956 35.1416V37.1398C61.9956 38.9772 62.3631 40.562 63.0981 41.8941C63.879 43.2262 64.9814 44.2598 66.4054 44.9947C67.8294 45.6837 69.529 46.0283 71.5042 46.0283C73.3416 46.0283 74.9034 45.7756 76.1896 45.2703C77.5217 44.7191 78.8309 43.8923 80.117 42.7898L87.0073 49.9557C85.2159 51.9309 83.011 53.4468 80.3927 54.5033C77.7743 55.5139 74.6737 56.0192 71.0908 56.0192Z" fill="black"/>
<path d="M26.5276 56.3605C22.715 56.3605 19.1779 55.7633 15.9165 54.569C12.7011 53.3287 9.89904 51.5832 7.51041 49.3324C5.16771 47.0816 3.3303 44.4403 1.99818 41.4086C0.66606 38.3309 0 34.9547 0 31.2798C0 27.605 0.66606 24.2518 1.99818 21.22C3.3303 18.1424 5.16771 15.4781 7.51041 13.2273C9.89904 10.9765 12.7011 9.25391 15.9165 8.05959C19.1779 6.81934 22.715 6.19922 26.5276 6.19922C30.9833 6.19922 34.9567 6.98012 38.4478 8.54192C41.9848 10.1037 44.9246 12.3545 47.2673 15.2944L38.5856 23.1493C37.0238 21.3119 35.3012 19.9109 33.4179 18.9462C31.5805 17.9816 29.5134 17.4993 27.2166 17.4993C25.2414 17.4993 23.427 17.8208 21.7733 18.4639C20.1196 19.107 18.6956 20.0487 17.5013 21.2889C16.3529 22.4832 15.4342 23.9302 14.7452 25.6298C14.1021 27.3294 13.7806 29.2128 13.7806 31.2798C13.7806 33.3469 14.1021 35.2303 14.7452 36.9299C15.4342 38.6295 16.3529 40.0994 17.5013 41.3396C18.6956 42.534 20.1196 43.4527 21.7733 44.0958C23.427 44.7389 25.2414 45.0604 27.2166 45.0604C29.5134 45.0604 31.5805 44.5781 33.4179 43.6134C35.3012 42.6488 37.0238 41.2478 38.5856 39.4104L47.2673 47.2653C44.9246 50.1592 41.9848 52.41 38.4478 54.0178C34.9567 55.5796 30.9833 56.3605 26.5276 56.3605Z" fill="black"/>
</svg>
