<svg width="563" height="247" viewBox="0 0 563 247" fill="none" xmlns="http://www.w3.org/2000/svg">
<path d="M476.188 224.753C476.188 236.155 485.431 245.398 496.835 245.398C508.239 245.398 517.48 236.155 517.48 224.753C517.48 213.351 508.237 204.105 496.835 204.105C485.433 204.105 476.188 213.351 476.188 224.753Z" fill="white" stroke="#252D3B" stroke-width="1.3" stroke-miterlimit="10" stroke-linecap="round"/>
<path d="M497.781 204.395V-37" stroke="#252D3B" stroke-width="1.3" stroke-miterlimit="10" stroke-linecap="round"/>
<path d="M507.014 126.133H487.848C482.606 126.133 478.359 130.382 478.359 135.621V180.535C478.359 185.777 482.608 190.023 487.848 190.023H507.014C512.256 190.023 516.502 185.775 516.502 180.535V135.621C516.502 130.382 512.254 126.133 507.014 126.133Z" fill="white" stroke="#252D3B" stroke-width="1.3" stroke-miterlimit="10" stroke-linecap="round"/>
<path d="M562.275 224.828H428.812C433.187 203.89 461.39 176.211 495.535 176.211C529.682 176.211 557.899 203.89 562.275 224.828Z" fill="#252D3B"/>
<path d="M446.348 -32.5117C446.348 -32.5117 284.155 243.765 0.648438 -26.0218" stroke="#252D3B" stroke-width="1.3" stroke-miterlimit="10" stroke-linecap="round"/>
</svg>
