<svg width="155" height="324" viewBox="0 0 155 324" fill="none" xmlns="http://www.w3.org/2000/svg">
<path d="M85.9958 114.236C85.9958 114.236 45.409 56.8015 7.88333 85.1361C-29.6404 113.471 79.1024 154.825 76.8047 207.664C74.5069 260.505 112.798 205.366 112.798 205.366L85.9958 114.236Z" fill="#F4E3FF"/>
<path d="M94.2975 250.509C94.2975 250.509 99.4976 156.918 49.2358 71.9949C-1.02611 -12.9285 76.9658 -23.3286 111.629 47.7317C146.293 118.79 128.961 240.11 128.961 240.11L94.2975 250.509Z" fill="white" stroke="#252D3B" stroke-width="1.3" stroke-miterlimit="10" stroke-linecap="round"/>
<path d="M75.8281 50.4961C75.8281 50.4961 119.135 117.835 112.791 205.366L75.8281 50.4961Z" fill="white"/>
<path d="M75.8281 50.4961C75.8281 50.4961 119.135 117.835 112.791 205.366" stroke="#252D3B" stroke-width="1.3" stroke-miterlimit="10" stroke-linecap="round"/>
<path d="M48.9922 323.47H154.873V221.531C154.873 205.649 141.997 192.773 126.116 192.773H77.7496C61.8681 192.773 48.9922 205.649 48.9922 221.531V323.47Z" fill="#252D3B"/>
</svg>
