<svg width="648" height="35" viewBox="0 0 648 35" fill="none" xmlns="http://www.w3.org/2000/svg">
<path d="M636.9 27.3482C635.043 27.3482 633.367 26.9382 631.872 26.1183C630.401 25.2742 629.243 24.1167 628.399 22.6456C627.555 21.1745 627.133 19.4382 627.133 17.4365C627.133 15.4349 627.555 13.6986 628.399 12.2275C629.243 10.7564 630.401 9.61091 631.872 8.79096C633.367 7.97102 635.043 7.56105 636.9 7.56105C638.516 7.56105 639.963 7.92279 641.241 8.64627C642.519 9.34563 643.532 10.4188 644.279 11.8658C645.027 13.3127 645.401 15.1696 645.401 17.4365C645.401 19.6793 645.039 21.5363 644.315 23.0073C643.592 24.4543 642.591 25.5395 641.313 26.263C640.035 26.9865 638.564 27.3482 636.9 27.3482ZM637.442 23.4776C638.528 23.4776 639.492 23.2364 640.336 22.7541C641.205 22.2718 641.892 21.5724 642.398 20.656C642.929 19.7396 643.194 18.6665 643.194 17.4365C643.194 16.1825 642.929 15.1094 642.398 14.2171C641.892 13.3007 641.205 12.6013 640.336 12.119C639.492 11.6367 638.528 11.3955 637.442 11.3955C636.357 11.3955 635.38 11.6367 634.512 12.119C633.668 12.6013 632.981 13.3007 632.45 14.2171C631.944 15.1094 631.691 16.1825 631.691 17.4365C631.691 18.6665 631.944 19.7396 632.45 20.656C632.981 21.5724 633.668 22.2718 634.512 22.7541C635.38 23.2364 636.357 23.4776 637.442 23.4776ZM643.303 27.095V22.5371L643.483 17.4004L643.122 12.2637V0.253906H647.607V27.095H643.303Z" fill="#252D3B"/>
<path d="M614.883 7.55859C616.426 7.55859 617.801 7.86004 619.006 8.46294C620.236 9.06584 621.201 9.99431 621.9 11.2483C622.6 12.4783 622.949 14.0699 622.949 16.0233V27.0925H618.428V16.6021C618.428 14.8899 618.018 13.6117 617.198 12.7676C616.402 11.9236 615.281 11.5016 613.834 11.5016C612.772 11.5016 611.832 11.7186 611.012 12.1527C610.192 12.5868 609.553 13.2379 609.095 14.1061C608.661 14.9501 608.444 16.0233 608.444 17.3256V27.0925H603.922V7.77564H608.227V12.9847L607.467 11.393C608.142 10.1631 609.119 9.2226 610.397 8.57146C611.699 7.89622 613.194 7.55859 614.883 7.55859Z" fill="#252D3B"/>
<path d="M587.476 27.3475C585.836 27.3475 584.389 27.046 583.135 26.4431C581.881 25.8161 580.905 24.8756 580.205 23.6215C579.506 22.3434 579.156 20.7397 579.156 18.8104V7.77734H583.678V18.1954C583.678 19.9318 584.064 21.2341 584.836 22.1022C585.631 22.9463 586.753 23.3683 588.2 23.3683C589.261 23.3683 590.177 23.1513 590.949 22.7172C591.745 22.2831 592.36 21.632 592.794 20.7638C593.252 19.8956 593.481 18.8225 593.481 17.5443V7.77734H598.003V27.0942H593.698V21.8852L594.458 23.4768C593.807 24.7309 592.854 25.6955 591.6 26.3708C590.346 27.0219 588.971 27.3475 587.476 27.3475Z" fill="#252D3B"/>
<path d="M564.672 27.3458C562.694 27.3458 560.934 26.9237 559.39 26.0797C557.847 25.2115 556.629 24.0298 555.737 22.5346C554.845 21.0394 554.398 19.3393 554.398 17.4341C554.398 15.5048 554.845 13.8046 555.737 12.3336C556.629 10.8384 557.847 9.66874 559.39 8.82468C560.934 7.98062 562.694 7.55859 564.672 7.55859C566.673 7.55859 568.446 7.98062 569.989 8.82468C571.557 9.66874 572.775 10.8263 573.643 12.2974C574.535 13.7685 574.981 15.4807 574.981 17.4341C574.981 19.3393 574.535 21.0394 573.643 22.5346C572.775 24.0298 571.557 25.2115 569.989 26.0797C568.446 26.9237 566.673 27.3458 564.672 27.3458ZM564.672 23.4751C565.781 23.4751 566.77 23.234 567.638 22.7517C568.506 22.2693 569.182 21.57 569.664 20.6536C570.17 19.7372 570.424 18.664 570.424 17.4341C570.424 16.1801 570.17 15.1069 569.664 14.2146C569.182 13.2982 568.506 12.5988 567.638 12.1165C566.77 11.6342 565.793 11.393 564.708 11.393C563.599 11.393 562.61 11.6342 561.742 12.1165C560.898 12.5988 560.222 13.2982 559.716 14.2146C559.21 15.1069 558.956 16.1801 558.956 17.4341C558.956 18.664 559.21 19.7372 559.716 20.6536C560.222 21.57 560.898 22.2693 561.742 22.7517C562.61 23.234 563.587 23.4751 564.672 23.4751Z" fill="#252D3B"/>
<path d="M541.148 27.0925V7.77564H545.453V13.0932L544.947 11.5377C545.526 10.2355 546.43 9.24671 547.66 8.57146C548.914 7.89622 550.469 7.55859 552.326 7.55859V11.8633C552.133 11.8151 551.952 11.7909 551.784 11.7909C551.615 11.7668 551.446 11.7548 551.277 11.7548C549.565 11.7548 548.202 12.2612 547.19 13.2741C546.177 14.2628 545.67 15.746 545.67 17.7235V27.0925H541.148Z" fill="#252D3B"/>
<path d="M524.791 34.3635C523.006 34.3635 521.258 34.1223 519.546 33.64C517.858 33.1818 516.471 32.5066 515.386 31.6143L517.412 28.2139C518.256 28.9133 519.317 29.468 520.595 29.8779C521.897 30.312 523.211 30.5291 524.538 30.5291C526.66 30.5291 528.216 30.0347 529.204 29.0459C530.193 28.0813 530.687 26.6223 530.687 24.6689V21.2324L531.049 16.8553L530.904 12.4783V7.77564H535.209V24.1624C535.209 27.6593 534.317 30.2276 532.532 31.8675C530.748 33.5315 528.167 34.3635 524.791 34.3635ZM524.212 26.2244C522.379 26.2244 520.715 25.8385 519.22 25.0668C517.749 24.271 516.58 23.1737 515.711 21.775C514.867 20.3762 514.445 18.7363 514.445 16.8553C514.445 14.9984 514.867 13.3705 515.711 11.9718C516.58 10.5731 517.749 9.48787 519.22 8.71616C520.715 7.94445 522.379 7.55859 524.212 7.55859C525.852 7.55859 527.323 7.88416 528.625 8.53529C529.928 9.18642 530.965 10.1993 531.736 11.5739C532.532 12.9485 532.93 14.709 532.93 16.8553C532.93 19.0016 532.532 20.7741 531.736 22.1729C530.965 23.5475 529.928 24.5724 528.625 25.2477C527.323 25.8988 525.852 26.2244 524.212 26.2244ZM524.9 22.3899C526.033 22.3899 527.046 22.1608 527.938 21.7026C528.831 21.2203 529.518 20.5692 530 19.7492C530.507 18.9052 530.76 17.9405 530.76 16.8553C530.76 15.7701 530.507 14.8175 530 13.9976C529.518 13.1535 528.831 12.5144 527.938 12.0803C527.046 11.6221 526.033 11.393 524.9 11.393C523.766 11.393 522.741 11.6221 521.825 12.0803C520.933 12.5144 520.233 13.1535 519.727 13.9976C519.244 14.8175 519.003 15.7701 519.003 16.8553C519.003 17.9405 519.244 18.9052 519.727 19.7492C520.233 20.5692 520.933 21.2203 521.825 21.7026C522.741 22.1608 523.766 22.3899 524.9 22.3899Z" fill="#252D3B"/>
<path d="M492.617 27.3458C490.47 27.3458 488.589 26.9237 486.974 26.0797C485.382 25.2115 484.14 24.0298 483.248 22.5346C482.379 21.0394 481.945 19.3393 481.945 17.4341C481.945 15.5048 482.367 13.8046 483.211 12.3336C484.08 10.8384 485.261 9.66874 486.756 8.82468C488.276 7.98062 490 7.55859 491.929 7.55859C493.81 7.55859 495.486 7.96856 496.958 8.78851C498.429 9.60845 499.586 10.766 500.43 12.2612C501.274 13.7564 501.696 15.5169 501.696 17.5426C501.696 17.7355 501.684 17.9526 501.66 18.1937C501.66 18.4349 501.648 18.664 501.624 18.881H485.527V15.8786H499.236L497.464 16.8191C497.488 15.7098 497.259 14.7331 496.777 13.889C496.294 13.045 495.631 12.3818 494.787 11.8995C493.967 11.4171 493.015 11.176 491.929 11.176C490.82 11.176 489.843 11.4171 488.999 11.8995C488.179 12.3818 487.528 13.057 487.046 13.9252C486.588 14.7693 486.359 15.7701 486.359 16.9277V17.6511C486.359 18.8087 486.624 19.8336 487.154 20.7259C487.685 21.6182 488.432 22.3055 489.397 22.7878C490.362 23.2702 491.471 23.5113 492.725 23.5113C493.81 23.5113 494.787 23.3425 495.655 23.0049C496.523 22.6673 497.295 22.1367 497.97 21.4132L500.394 24.1986C499.526 25.2115 498.429 25.9953 497.102 26.5499C495.8 27.0805 494.305 27.3458 492.617 27.3458Z" fill="#252D3B"/>
<path d="M469.695 7.56105C471.239 7.56105 472.613 7.8625 473.819 8.4654C475.049 9.0683 476.013 9.99676 476.713 11.2508C477.412 12.4807 477.762 14.0724 477.762 16.0258V27.095H473.24V16.6045C473.24 14.8923 472.83 13.6142 472.01 12.7701C471.214 11.926 470.093 11.504 468.646 11.504C467.585 11.504 466.644 11.7211 465.825 12.1551C465.005 12.5892 464.365 13.2404 463.907 14.1085C463.473 14.9526 463.256 16.0258 463.256 17.328V27.095H458.734V0.253906H463.256V12.9871L462.279 11.3955C462.955 10.1656 463.931 9.22505 465.21 8.57392C466.512 7.89867 468.007 7.56105 469.695 7.56105Z" fill="#252D3B"/>
<path d="M450.675 27.3465C448.553 27.3465 446.913 26.8039 445.756 25.7186C444.598 24.6093 444.019 22.9815 444.019 20.8351V3.50781H448.541V20.7266C448.541 21.643 448.77 22.3545 449.228 22.8609C449.711 23.3673 450.374 23.6205 451.218 23.6205C452.231 23.6205 453.075 23.3553 453.75 22.8247L455.016 26.0442C454.486 26.4783 453.834 26.8039 453.063 27.0209C452.291 27.2379 451.495 27.3465 450.675 27.3465ZM440.836 11.5384V7.92104H453.714V11.5384H440.836Z" fill="#252D3B"/>
<path d="M419.709 7.55859C421.253 7.55859 422.615 7.86004 423.797 8.46294C425.003 9.06584 425.943 9.99431 426.619 11.2483C427.294 12.4783 427.631 14.0699 427.631 16.0233V27.0925H423.11V16.6021C423.11 14.8899 422.736 13.6117 421.988 12.7676C421.241 11.9236 420.168 11.5016 418.769 11.5016C417.78 11.5016 416.9 11.7186 416.128 12.1527C415.381 12.5868 414.79 13.2258 414.356 14.0699C413.946 14.914 413.741 15.9871 413.741 17.2894V27.0925H409.219V16.6021C409.219 14.8899 408.845 13.6117 408.098 12.7676C407.35 11.9236 406.277 11.5016 404.878 11.5016C403.889 11.5016 403.009 11.7186 402.237 12.1527C401.49 12.5868 400.899 13.2258 400.465 14.0699C400.055 14.914 399.85 15.9871 399.85 17.2894V27.0925H395.328V7.77564H399.633V12.9123L398.873 11.393C399.524 10.139 400.465 9.18642 401.695 8.53529C402.949 7.88416 404.372 7.55859 405.963 7.55859C407.772 7.55859 409.34 8.00474 410.666 8.89703C412.016 9.78932 412.909 11.1398 413.343 12.9485L411.57 12.3336C412.197 10.8866 413.234 9.72903 414.681 8.86086C416.128 7.99268 417.804 7.55859 419.709 7.55859Z" fill="#252D3B"/>
<path d="M380.695 27.3458C378.718 27.3458 376.957 26.9237 375.414 26.0797C373.87 25.2115 372.653 24.0298 371.76 22.5346C370.868 21.0394 370.422 19.3393 370.422 17.4341C370.422 15.5048 370.868 13.8046 371.76 12.3336C372.653 10.8384 373.87 9.66874 375.414 8.82468C376.957 7.98062 378.718 7.55859 380.695 7.55859C382.697 7.55859 384.469 7.98062 386.013 8.82468C387.58 9.66874 388.798 10.8263 389.666 12.2974C390.559 13.7685 391.005 15.4807 391.005 17.4341C391.005 19.3393 390.559 21.0394 389.666 22.5346C388.798 24.0298 387.58 25.2115 386.013 26.0797C384.469 26.9237 382.697 27.3458 380.695 27.3458ZM380.695 23.4751C381.805 23.4751 382.793 23.234 383.662 22.7517C384.53 22.2693 385.205 21.57 385.687 20.6536C386.194 19.7372 386.447 18.664 386.447 17.4341C386.447 16.1801 386.194 15.1069 385.687 14.2146C385.205 13.2982 384.53 12.5988 383.662 12.1165C382.793 11.6342 381.817 11.393 380.731 11.393C379.622 11.393 378.633 11.6342 377.765 12.1165C376.921 12.5988 376.246 13.2982 375.739 14.2146C375.233 15.1069 374.98 16.1801 374.98 17.4341C374.98 18.664 375.233 19.7372 375.739 20.6536C376.246 21.57 376.921 22.2693 377.765 22.7517C378.633 23.234 379.61 23.4751 380.695 23.4751Z" fill="#252D3B"/>
<path d="M357.172 27.0925V7.77564H361.477V13.0932L360.97 11.5377C361.549 10.2355 362.453 9.24671 363.683 8.57146C364.937 7.89622 366.493 7.55859 368.35 7.55859V11.8633C368.157 11.8151 367.976 11.7909 367.807 11.7909C367.638 11.7668 367.469 11.7548 367.301 11.7548C365.588 11.7548 364.226 12.2612 363.213 13.2741C362.2 14.2628 361.694 15.746 361.694 17.7235V27.0925H357.172Z" fill="#252D3B"/>
<path d="M344.402 27.0943V6.69218C344.402 4.66644 344.993 3.05067 346.175 1.84487C347.38 0.614957 349.093 0 351.311 0C352.107 0 352.855 0.0844056 353.554 0.253217C354.278 0.422029 354.88 0.687304 355.363 1.04904L354.133 4.4494C353.795 4.18412 353.409 3.99119 352.975 3.87061C352.541 3.72592 352.095 3.65357 351.637 3.65357C350.696 3.65357 349.985 3.91885 349.503 4.4494C349.02 4.95583 348.779 5.72754 348.779 6.76453V8.93497L348.924 10.9607V27.0943H344.402ZM341.219 11.5395V7.9221H354.097V11.5395H341.219Z" fill="#252D3B"/>
<path d="M323.344 34.1127H319.039C320.534 31.46 321.619 28.759 322.295 26.0098C322.994 23.2364 323.344 20.2943 323.344 17.1833C323.344 14.0724 322.994 11.1423 322.295 8.39305C321.619 5.61971 320.534 2.90666 319.039 0.253906H323.344C324.791 2.40023 325.888 4.93241 326.636 7.85044C327.383 10.7444 327.757 13.8553 327.757 17.1833C327.757 20.5113 327.383 23.6223 326.636 26.5162C325.888 29.386 324.791 31.9182 323.344 34.1127Z" fill="#252D3B"/>
<path d="M307.514 7.55859C309.058 7.55859 310.42 7.86004 311.602 8.46294C312.808 9.06584 313.748 9.99431 314.423 11.2483C315.099 12.4783 315.436 14.0699 315.436 16.0233V27.0925H310.914V16.6021C310.914 14.8899 310.541 13.6117 309.793 12.7676C309.045 11.9236 307.972 11.5016 306.574 11.5016C305.585 11.5016 304.705 11.7186 303.933 12.1527C303.185 12.5868 302.594 13.2258 302.16 14.0699C301.75 14.914 301.545 15.9871 301.545 17.2894V27.0925H297.024V16.6021C297.024 14.8899 296.65 13.6117 295.902 12.7676C295.155 11.9236 294.081 11.5016 292.683 11.5016C291.694 11.5016 290.814 11.7186 290.042 12.1527C289.294 12.5868 288.704 13.2258 288.27 14.0699C287.86 14.914 287.655 15.9871 287.655 17.2894V27.0925H283.133V7.77564H287.438V12.9123L286.678 11.393C287.329 10.139 288.27 9.18642 289.499 8.53529C290.753 7.88416 292.176 7.55859 293.768 7.55859C295.577 7.55859 297.144 8.00474 298.471 8.89703C299.821 9.78932 300.713 11.1398 301.147 12.9485L299.375 12.3336C300.002 10.8866 301.039 9.72903 302.486 8.86086C303.933 7.99268 305.609 7.55859 307.514 7.55859Z" fill="#252D3B"/>
<path d="M270.97 27.3458C268.944 27.3458 267.135 26.9237 265.544 26.0797C263.976 25.2115 262.746 24.0298 261.854 22.5346C260.962 21.0394 260.516 19.3393 260.516 17.4341C260.516 15.5048 260.962 13.8046 261.854 12.3336C262.746 10.8384 263.976 9.66874 265.544 8.82468C267.135 7.98062 268.944 7.55859 270.97 7.55859C272.851 7.55859 274.503 7.94445 275.926 8.71616C277.373 9.46376 278.47 10.5731 279.218 12.0442L275.745 14.0699C275.166 13.1535 274.455 12.4783 273.611 12.0442C272.791 11.6101 271.898 11.393 270.934 11.393C269.824 11.393 268.824 11.6342 267.931 12.1165C267.039 12.5988 266.34 13.2982 265.833 14.2146C265.327 15.1069 265.074 16.1801 265.074 17.4341C265.074 18.6881 265.327 19.7733 265.833 20.6897C266.34 21.582 267.039 22.2693 267.931 22.7517C268.824 23.234 269.824 23.4751 270.934 23.4751C271.898 23.4751 272.791 23.2581 273.611 22.824C274.455 22.3899 275.166 21.7147 275.745 20.7983L279.218 22.824C278.47 24.271 277.373 25.3924 275.926 26.1882C274.503 26.9599 272.851 27.3458 270.97 27.3458Z" fill="#252D3B"/>
<path d="M246.961 27.4554C244.96 27.4554 243.151 26.949 241.535 25.9361C239.944 24.9232 238.689 23.4522 237.773 21.5229C236.857 19.5695 236.398 17.2061 236.398 14.4328C236.398 11.6594 236.857 9.30814 237.773 7.37886C238.689 5.42547 239.944 3.94233 241.535 2.92946C243.151 1.91659 244.96 1.41016 246.961 1.41016C248.987 1.41016 250.796 1.91659 252.387 2.92946C253.979 3.94233 255.233 5.42547 256.149 7.37886C257.09 9.30814 257.56 11.6594 257.56 14.4328C257.56 17.2061 257.09 19.5695 256.149 21.5229C255.233 23.4522 253.979 24.9232 252.387 25.9361C250.796 26.949 248.987 27.4554 246.961 27.4554ZM246.961 23.3678C248.143 23.3678 249.168 23.0542 250.036 22.4272C250.904 21.7761 251.579 20.7873 252.062 19.461C252.568 18.1346 252.821 16.4585 252.821 14.4328C252.821 12.3829 252.568 10.7069 252.062 9.4046C251.579 8.07823 250.904 7.10153 250.036 6.47451C249.168 5.82338 248.143 5.49782 246.961 5.49782C245.828 5.49782 244.815 5.82338 243.923 6.47451C243.054 7.10153 242.367 8.07823 241.861 9.4046C241.378 10.7069 241.137 12.3829 241.137 14.4328C241.137 16.4585 241.378 18.1346 241.861 19.461C242.367 20.7873 243.054 21.7761 243.923 22.4272C244.815 23.0542 245.828 23.3678 246.961 23.3678Z" fill="#252D3B"/>
<path d="M223.662 27.457C221.878 27.457 220.129 27.2037 218.417 26.6973C216.729 26.1667 215.306 25.4433 214.148 24.5269L216.138 20.8733C217.054 21.6209 218.164 22.2238 219.466 22.682C220.792 23.1402 222.167 23.3693 223.59 23.3693C225.254 23.3693 226.556 23.0196 227.497 22.3203C228.461 21.6209 228.944 20.6804 228.944 19.4987C228.944 18.7029 228.739 18.0035 228.329 17.4006C227.943 16.7977 227.243 16.3395 226.231 16.026C225.242 15.7125 223.879 15.5557 222.143 15.5557H216.029L217.332 1.77344H232.199V5.7164H219.068L221.528 3.47361L220.551 13.7832L218.091 11.5766H223.192C225.7 11.5766 227.714 11.9142 229.233 12.5895C230.776 13.2406 231.898 14.157 232.597 15.3387C233.321 16.4962 233.682 17.8226 233.682 19.3178C233.682 20.7889 233.321 22.1394 232.597 23.3693C231.874 24.5992 230.764 25.588 229.269 26.3356C227.798 27.0832 225.929 27.457 223.662 27.457Z" fill="#252D3B"/>
<path d="M205.541 27.0952V3.58214L207.603 5.7164H200.188V1.77344H210.244V27.0952H205.541Z" fill="#252D3B"/>
<path d="M188.68 18.9183V15.1562H198.628V18.9183H188.68Z" fill="#252D3B"/>
<path d="M174.328 27.4554C172.327 27.4554 170.518 26.949 168.902 25.9361C167.311 24.9232 166.057 23.4522 165.14 21.5229C164.224 19.5695 163.766 17.2061 163.766 14.4328C163.766 11.6594 164.224 9.30814 165.14 7.37886C166.057 5.42547 167.311 3.94233 168.902 2.92946C170.518 1.91659 172.327 1.41016 174.328 1.41016C176.354 1.41016 178.163 1.91659 179.755 2.92946C181.346 3.94233 182.6 5.42547 183.517 7.37886C184.457 9.30814 184.927 11.6594 184.927 14.4328C184.927 17.2061 184.457 19.5695 183.517 21.5229C182.6 23.4522 181.346 24.9232 179.755 25.9361C178.163 26.949 176.354 27.4554 174.328 27.4554ZM174.328 23.3678C175.51 23.3678 176.535 23.0542 177.403 22.4272C178.271 21.7761 178.947 20.7873 179.429 19.461C179.935 18.1346 180.189 16.4585 180.189 14.4328C180.189 12.3829 179.935 10.7069 179.429 9.4046C178.947 8.07823 178.271 7.10153 177.403 6.47451C176.535 5.82338 175.51 5.49782 174.328 5.49782C173.195 5.49782 172.182 5.82338 171.29 6.47451C170.422 7.10153 169.734 8.07823 169.228 9.4046C168.746 10.7069 168.504 12.3829 168.504 14.4328C168.504 16.4585 168.746 18.1346 169.228 19.461C169.734 20.7873 170.422 21.7761 171.29 22.4272C172.182 23.0542 173.195 23.3678 174.328 23.3678Z" fill="#252D3B"/>
<path d="M138.852 21.3436V18.0879L151.332 1.77344H156.36L144.061 18.0879L141.709 17.3644H161.786V21.3436H138.852ZM152.742 27.0952V21.3436L152.887 17.3644V12.2639H157.3V27.0952H152.742Z" fill="#252D3B"/>
<path d="M133.241 34.1127C131.819 31.9182 130.721 29.386 129.95 26.5162C129.202 23.6223 128.828 20.5113 128.828 17.1833C128.828 13.8553 129.202 10.7444 129.95 7.85044C130.721 4.93241 131.819 2.40023 133.241 0.253906H137.546C136.075 2.90666 134.99 5.61971 134.29 8.39305C133.615 11.1423 133.278 14.0724 133.278 17.1833C133.278 20.2943 133.615 23.2364 134.29 26.0098C134.99 28.759 136.075 31.46 137.546 34.1127H133.241Z" fill="#252D3B"/>
<path d="M113.157 11.7936L112.867 1.77344H116.774L116.448 11.7936H113.157ZM120.138 11.7936L119.849 1.77344H123.756L123.43 11.7936H120.138Z" fill="#252D3B"/>
<path d="M98.4847 27.4554C96.483 27.4554 94.6743 26.949 93.0586 25.9361C91.4669 24.9232 90.2129 23.4522 89.2965 21.5229C88.3801 19.5695 87.9219 17.2061 87.9219 14.4328C87.9219 11.6594 88.3801 9.30814 89.2965 7.37886C90.2129 5.42547 91.4669 3.94233 93.0586 2.92946C94.6743 1.91659 96.483 1.41016 98.4847 1.41016C100.51 1.41016 102.319 1.91659 103.911 2.92946C105.502 3.94233 106.756 5.42547 107.673 7.37886C108.613 9.30814 109.084 11.6594 109.084 14.4328C109.084 17.2061 108.613 19.5695 107.673 21.5229C106.756 23.4522 105.502 24.9232 103.911 25.9361C102.319 26.949 100.51 27.4554 98.4847 27.4554ZM98.4847 23.3678C99.6664 23.3678 100.691 23.0542 101.559 22.4272C102.428 21.7761 103.103 20.7873 103.585 19.461C104.092 18.1346 104.345 16.4585 104.345 14.4328C104.345 12.3829 104.092 10.7069 103.585 9.4046C103.103 8.07823 102.428 7.10153 101.559 6.47451C100.691 5.82338 99.6664 5.49782 98.4847 5.49782C97.3512 5.49782 96.3384 5.82338 95.4461 6.47451C94.5779 7.10153 93.8906 8.07823 93.3841 9.4046C92.9018 10.7069 92.6607 12.3829 92.6607 14.4328C92.6607 16.4585 92.9018 18.1346 93.3841 19.461C93.8906 20.7873 94.5779 21.7761 95.4461 22.4272C96.3384 23.0542 97.3512 23.3678 98.4847 23.3678Z" fill="#252D3B"/>
<path d="M76.2029 27.4554C73.9119 27.4554 71.9464 26.9731 70.3065 26.0085C68.6667 25.0197 67.4126 23.5969 66.5445 21.7399C65.6763 19.883 65.2422 17.592 65.2422 14.8669C65.2422 11.973 65.7607 9.52518 66.7977 7.52356C67.8588 5.52193 69.3178 4.00262 71.1747 2.96564C73.0558 1.92865 75.2141 1.41016 77.6499 1.41016C78.928 1.41016 80.1459 1.54279 81.3034 1.80807C82.4851 2.07335 83.4859 2.48332 84.3059 3.03799L82.5695 6.58303C81.8702 6.12483 81.1105 5.81132 80.2906 5.64251C79.4947 5.44958 78.6507 5.35312 77.7584 5.35312C75.3709 5.35312 73.4778 6.08866 72.0791 7.55973C70.6803 9.03081 69.981 11.2012 69.981 14.071C69.981 14.5292 69.993 15.0719 70.0172 15.6989C70.0413 16.3018 70.1257 16.9167 70.2704 17.5437L68.8234 15.9521C69.2575 14.9633 69.8483 14.1434 70.5959 13.4923C71.3676 12.817 72.272 12.3106 73.309 11.973C74.3701 11.6353 75.5156 11.4665 76.7455 11.4665C78.4095 11.4665 79.8926 11.7921 81.1949 12.4432C82.4972 13.0702 83.5342 13.9746 84.3059 15.1563C85.0776 16.3138 85.4634 17.6764 85.4634 19.2439C85.4634 20.9079 85.0535 22.3549 84.2335 23.5848C83.4136 24.8147 82.3042 25.7673 80.9055 26.4425C79.5068 27.1178 77.9392 27.4554 76.2029 27.4554ZM75.9497 23.7657C76.9143 23.7657 77.7704 23.5969 78.518 23.2592C79.2656 22.8975 79.8444 22.3911 80.2544 21.7399C80.6885 21.0888 80.9055 20.3291 80.9055 19.461C80.9055 18.1346 80.4473 17.0855 79.5309 16.3138C78.6145 15.5421 77.3846 15.1563 75.8412 15.1563C74.8283 15.1563 73.936 15.3492 73.1643 15.735C72.4167 16.0968 71.8138 16.6032 71.3556 17.2544C70.9215 17.9055 70.7045 18.6531 70.7045 19.4971C70.7045 20.2689 70.9094 20.9803 71.3194 21.6314C71.7294 22.2825 72.3202 22.801 73.0919 23.1869C73.8878 23.5727 74.8403 23.7657 75.9497 23.7657Z" fill="#252D3B"/>
<path d="M51.5469 18.9183V15.1562H61.4947V18.9183H51.5469Z" fill="#252D3B"/>
<path d="M36.93 11.7936L36.6406 1.77344H40.5474L40.2218 11.7936H36.93ZM43.9116 11.7936L43.6222 1.77344H47.529L47.2034 11.7936H43.9116Z" fill="#252D3B"/>
<path d="M23.4747 27.457C21.6901 27.457 19.9417 27.2037 18.2295 26.6973C16.5413 26.1667 15.1185 25.4433 13.9609 24.5269L15.9505 20.8733C16.8669 21.6209 17.9762 22.2238 19.2785 22.682C20.6049 23.1402 21.9795 23.3693 23.4023 23.3693C25.0663 23.3693 26.3686 23.0196 27.3091 22.3203C28.2738 21.6209 28.7561 20.6804 28.7561 19.4987C28.7561 18.7029 28.5511 18.0035 28.1411 17.4006C27.7553 16.7977 27.0559 16.3395 26.043 16.026C25.0543 15.7125 23.6917 15.5557 21.9554 15.5557H15.842L17.1442 1.77344H32.0117V5.7164H18.8806L21.3404 3.47361L20.3637 13.7832L17.9039 11.5766H23.0044C25.5125 11.5766 27.5262 11.9142 29.0455 12.5895C30.5889 13.2406 31.7103 14.157 32.4097 15.3387C33.1331 16.4962 33.4949 17.8226 33.4949 19.3178C33.4949 20.7889 33.1331 22.1394 32.4097 23.3693C31.6862 24.5992 30.5768 25.588 29.0817 26.3356C27.6106 27.0832 25.7416 27.457 23.4747 27.457Z" fill="#252D3B"/>
<path d="M5.35375 27.0952V3.58214L7.41566 5.7164H0V1.77344H10.0564V27.0952H5.35375Z" fill="#252D3B"/>
</svg>
