<svg width="1642" height="914" viewBox="0 0 1642 914" fill="none" xmlns="http://www.w3.org/2000/svg">
<path d="M1636.05 848.528C1636.05 881.294 1609.39 907.953 1576.62 907.953H65.0399C32.27 907.953 5.61096 881.294 5.61096 848.528V637.208C5.61096 604.438 32.27 577.779 65.0399 577.779H1576.62C1609.39 577.779 1636.05 604.438 1636.05 637.208V848.528ZM1617.97 587.039C1606.72 577.752 1592.31 572.168 1576.62 572.168H65.0399C49.347 572.168 34.9403 577.752 23.6897 587.039C9.23101 598.977 0 617.034 0 637.208V848.528C0 877.667 19.2609 902.388 45.7179 910.635C51.8253 912.539 58.3141 913.564 65.039 913.564H1576.62C1583.35 913.564 1589.83 912.539 1595.94 910.635C1622.4 902.389 1641.66 877.667 1641.66 848.528V637.208C1641.66 617.034 1632.43 598.977 1617.97 587.039Z" fill="#13171E" fill-opacity="0.5"/>
<path d="M1608.53 842.722C1608.53 861.879 1592.94 877.463 1573.79 877.463H1569.61V876.312H1573.79C1592.31 876.312 1607.37 861.243 1607.37 842.722V635.666C1607.37 617.146 1592.31 602.08 1573.79 602.08H1569.61V600.924H1573.79C1592.94 600.924 1608.53 616.509 1608.53 635.665V842.722ZM1565.87 879.472H1555.54V876.312H1565.87V879.472ZM1551.8 877.463H1248.63V600.925H1551.8V602.081H1251.18C1250.41 602.081 1249.78 602.709 1249.78 603.483V874.909C1249.78 875.683 1250.41 876.311 1251.18 876.311H1551.8V877.463ZM1573.79 604.885C1590.76 604.885 1604.57 618.693 1604.57 635.666V842.722C1604.57 859.694 1590.76 873.507 1573.79 873.507H1252.59V604.886L1573.79 604.885ZM1555.54 598.916H1565.88V602.08H1555.54V598.916ZM1243.02 877.463H1221.97V600.925H1243.02V877.463ZM1216.36 600.925V749.719H423.899V600.925H1216.36ZM830.651 877.463H809.602V755.328H830.651V877.463ZM418.289 877.463H397.236V600.925H418.289V877.463ZM391.626 877.463H88.4553V876.312H389.068C389.843 876.312 390.47 875.683 390.47 874.91V603.484C390.47 602.71 389.842 602.082 389.068 602.082H88.4553V600.926H391.626V877.463ZM84.7149 879.472H74.3736V876.312H84.7149V879.472ZM70.6341 877.463H66.4719C47.3151 877.463 31.7272 861.879 31.7272 842.722V635.666C31.7272 616.509 47.316 600.925 66.4719 600.925H70.6341V602.081H66.4719C47.9515 602.081 32.8825 617.146 32.8825 635.667V842.723C32.8825 861.243 47.9506 876.312 66.4719 876.312H70.6341V877.463ZM387.666 604.885V873.506H66.4719C49.4999 873.506 35.6875 859.693 35.6875 842.721V635.665C35.6875 618.693 49.4999 604.884 66.4719 604.884L387.666 604.885ZM74.3745 598.916H84.7158V602.08H74.3745V598.916ZM1573.79 595.314H1569.62V595.176H1551.8V595.314H88.4553V595.176H70.6341V595.314H66.4719C44.222 595.314 26.1172 613.416 26.1172 635.665V842.721C26.1172 864.975 44.2229 883.072 66.4719 883.072H70.6341V883.211H88.4553V883.072H423.899V755.327H803.992V877.466H423.906V883.076H804.006V883.072H836.246V883.076H1216.35V877.466H836.26V755.327H1216.36V883.072H1551.8V883.211H1569.61V883.072H1573.78C1596.03 883.072 1614.14 864.975 1614.14 842.721V635.665C1614.14 613.416 1596.03 595.314 1573.78 595.314H1573.79Z" fill="#13171E" fill-opacity="0.5"/>
<path d="M1216.33 723.078H423.891V728.688H1216.33V723.078Z" fill="#13171E" fill-opacity="0.5"/>
<path d="M1305.12 710.204V768.193C1305.12 774.704 1300.48 780.337 1294.11 781.578C1293.19 781.751 1292.29 781.784 1291.4 781.777C1286.23 779.357 1282.72 774.14 1282.72 768.193V710.204C1282.72 704.216 1286.27 698.965 1291.5 696.572C1292.35 696.572 1293.23 696.654 1294.08 696.815C1296.77 697.338 1299.2 698.633 1301.11 700.547C1303.7 703.132 1305.12 706.561 1305.12 710.204ZM1276.45 710.204C1276.45 703.386 1281 697.615 1287.24 695.775C1282.76 699.051 1279.92 704.347 1279.92 710.204V768.193C1279.92 774.046 1282.76 779.346 1287.24 782.618C1281 780.782 1276.45 775.008 1276.45 768.193V710.204ZM1291.48 787.436C1292.69 787.436 1293.92 787.32 1295.16 787.089C1304.19 785.331 1310.73 777.383 1310.73 768.194V710.205C1310.73 705.066 1308.73 700.23 1305.08 696.58C1302.37 693.876 1298.95 692.051 1295.14 691.303C1283.11 689.078 1272.24 698.398 1272.24 710.205V768.194C1272.24 778.805 1280.87 787.436 1291.48 787.436Z" fill="#13171E" fill-opacity="0.5"/>
<path d="M362.383 710.202V768.191C362.383 774.703 357.741 780.335 351.372 781.577C350.448 781.745 349.547 781.779 348.653 781.768C343.488 779.348 339.988 774.134 339.988 768.191V710.202C339.988 704.214 343.537 698.963 348.765 696.57C349.618 696.57 350.493 696.653 351.346 696.813C354.032 697.337 356.459 698.628 358.377 700.546C360.958 703.13 362.383 706.56 362.383 710.202ZM333.708 710.202C333.708 703.384 338.271 697.613 344.498 695.773C340.025 699.049 337.183 704.345 337.183 710.202V768.191C337.183 774.045 340.025 779.341 344.498 782.617C338.271 780.777 333.708 775.006 333.708 768.191V710.202ZM348.75 787.434C349.95 787.434 351.177 787.318 352.423 787.087C361.444 785.329 367.993 777.381 367.993 768.192V710.203C367.993 705.064 365.989 700.229 362.345 696.578C359.637 693.875 356.208 692.049 352.401 691.301C340.354 689.083 329.5 698.392 329.5 710.203V768.192C329.5 778.803 338.136 787.434 348.75 787.434Z" fill="#13171E" fill-opacity="0.5"/>
<path d="M592.071 702.992V725.56H1048.13V702.992H1048.75V726.17H591.461V702.992H592.071Z" fill="#13171E" fill-opacity="0.5" stroke="black" stroke-width="5"/>
<path d="M588.658 631.062H1051.61C1058.3 631.062 1063.76 636.515 1063.76 643.213V685.849C1063.76 692.542 1058.3 697.995 1051.61 697.995H588.658C581.96 697.995 576.508 692.542 576.508 685.849V643.213C576.508 636.515 581.96 631.062 588.658 631.062Z" fill="#F4E3FF" stroke="black" stroke-width="5"/>
<path d="M611.668 705.715H631.045C634.219 705.715 636.806 708.302 636.806 711.477C636.806 714.655 634.219 717.241 631.045 717.241H611.668C608.494 717.241 605.906 714.655 605.906 711.477C605.906 708.302 608.493 705.715 611.668 705.715Z" fill="#F4E3FF" stroke="black" stroke-width="5"/>
<path d="M1009.19 705.715H1028.57C1031.74 705.715 1034.33 708.302 1034.33 711.477C1034.33 714.655 1031.74 717.241 1028.57 717.241H1009.19C1006.02 717.241 1003.43 714.655 1003.43 711.477C1003.43 708.302 1006.02 705.715 1009.19 705.715Z" fill="#F4E3FF" stroke="black" stroke-width="5"/>
<mask id="path-10-inside-1_40001529_16034" fill="white">
<path d="M1048.5 654.59C1048.5 661.24 1043.08 666.651 1036.43 666.651C1029.78 666.651 1024.36 661.24 1024.36 654.59C1024.36 647.941 1029.78 642.525 1036.43 642.525C1043.08 642.525 1048.5 647.94 1048.5 654.59ZM1036.43 670.392C1045.14 670.392 1052.24 663.304 1052.24 654.59C1052.24 645.876 1045.14 638.785 1036.43 638.785C1027.72 638.785 1020.62 645.876 1020.62 654.59C1020.62 663.304 1027.72 670.392 1036.43 670.392Z"/>
</mask>
<path d="M1048.5 654.59C1048.5 661.24 1043.08 666.651 1036.43 666.651C1029.78 666.651 1024.36 661.24 1024.36 654.59C1024.36 647.941 1029.78 642.525 1036.43 642.525C1043.08 642.525 1048.5 647.94 1048.5 654.59ZM1036.43 670.392C1045.14 670.392 1052.24 663.304 1052.24 654.59C1052.24 645.876 1045.14 638.785 1036.43 638.785C1027.72 638.785 1020.62 645.876 1020.62 654.59C1020.62 663.304 1027.72 670.392 1036.43 670.392Z" fill="#13171E" fill-opacity="0.5"/>
<path d="M1048.5 654.59H1043.5C1043.5 658.476 1040.32 661.651 1036.43 661.651V666.651V671.651C1045.84 671.651 1053.5 664.003 1053.5 654.59H1048.5ZM1036.43 666.651V661.651C1032.54 661.651 1029.36 658.476 1029.36 654.59H1024.36H1019.36C1019.36 664.004 1027.02 671.651 1036.43 671.651V666.651ZM1024.36 654.59H1029.36C1029.36 650.702 1032.54 647.525 1036.43 647.525V642.525V637.525C1027.02 637.525 1019.36 645.179 1019.36 654.59H1024.36ZM1036.43 642.525V647.525C1040.32 647.525 1043.5 650.702 1043.5 654.59H1048.5H1053.5C1053.5 645.178 1045.84 637.525 1036.43 637.525V642.525ZM1036.43 670.392V675.392C1047.9 675.392 1057.24 666.067 1057.24 654.59H1052.24H1047.24C1047.24 660.541 1042.38 665.392 1036.43 665.392V670.392ZM1052.24 654.59H1057.24C1057.24 643.115 1047.91 633.785 1036.43 633.785V638.785V643.785C1042.38 643.785 1047.24 648.638 1047.24 654.59H1052.24ZM1036.43 638.785V633.785C1024.95 633.785 1015.62 643.115 1015.62 654.59H1020.62H1025.62C1025.62 648.638 1030.48 643.785 1036.43 643.785V638.785ZM1020.62 654.59H1015.62C1015.62 666.067 1024.96 675.392 1036.43 675.392V670.392V665.392C1030.48 665.392 1025.62 660.541 1025.62 654.59H1020.62Z" fill="black" mask="url(#path-10-inside-1_40001529_16034)"/>
<mask id="path-12-inside-2_40001529_16034" fill="white">
<path d="M598.81 683.035H794.923C796.359 683.035 797.526 684.206 797.526 685.642C797.526 687.078 796.359 688.249 794.923 688.249H598.81C597.37 688.249 596.203 687.078 596.203 685.642C596.203 684.206 597.37 683.035 598.81 683.035ZM598.81 691.054H794.923C797.907 691.054 800.331 688.623 800.331 685.642C800.331 682.658 797.907 680.23 794.923 680.23H598.81C595.826 680.23 593.398 682.658 593.398 685.642C593.398 688.623 595.826 691.054 598.81 691.054Z"/>
</mask>
<path d="M598.81 683.035H794.923C796.359 683.035 797.526 684.206 797.526 685.642C797.526 687.078 796.359 688.249 794.923 688.249H598.81C597.37 688.249 596.203 687.078 596.203 685.642C596.203 684.206 597.37 683.035 598.81 683.035ZM598.81 691.054H794.923C797.907 691.054 800.331 688.623 800.331 685.642C800.331 682.658 797.907 680.23 794.923 680.23H598.81C595.826 680.23 593.398 682.658 593.398 685.642C593.398 688.623 595.826 691.054 598.81 691.054Z" fill="#13171E" fill-opacity="0.5"/>
<path d="M598.81 683.035V688.035H794.923V683.035V678.035H598.81V683.035ZM794.923 683.035V688.035C793.588 688.035 792.526 686.958 792.526 685.642H797.526H802.526C802.526 681.454 799.129 678.035 794.923 678.035V683.035ZM797.526 685.642H792.526C792.526 684.326 793.588 683.249 794.923 683.249V688.249V693.249C799.129 693.249 802.526 689.831 802.526 685.642H797.526ZM794.923 688.249V683.249H598.81V688.249V693.249H794.923V688.249ZM598.81 688.249V683.249C600.136 683.249 601.203 684.322 601.203 685.642H596.203H591.203C591.203 689.835 594.604 693.249 598.81 693.249V688.249ZM596.203 685.642H601.203C601.203 686.963 600.136 688.035 598.81 688.035V683.035V678.035C594.604 678.035 591.203 681.449 591.203 685.642H596.203ZM598.81 691.054V696.054H794.923V691.054V686.054H598.81V691.054ZM794.923 691.054V696.054C800.675 696.054 805.331 691.378 805.331 685.642H800.331H795.331C795.331 685.868 795.139 686.054 794.923 686.054V691.054ZM800.331 685.642H805.331C805.331 679.901 800.673 675.23 794.923 675.23V680.23V685.23C795.141 685.23 795.331 685.415 795.331 685.642H800.331ZM794.923 680.23V675.23H598.81V680.23V685.23H794.923V680.23ZM598.81 680.23V675.23C593.064 675.23 588.398 679.896 588.398 685.642H593.398H598.398C598.398 685.419 598.587 685.23 598.81 685.23V680.23ZM593.398 685.642H588.398C588.398 691.382 593.062 696.054 598.81 696.054V691.054V686.054C598.589 686.054 598.398 685.864 598.398 685.642H593.398Z" fill="black" mask="url(#path-12-inside-2_40001529_16034)"/>
<path d="M895.24 845.364L1140.64 846.052C1141.83 846.056 1142.94 846.524 1143.78 847.369C1144.61 848.207 1145.07 849.329 1145.07 850.514L1144.97 873.553C1144.96 875.996 1142.97 877.981 1140.53 877.981V880.786V880.783L1140.51 877.981L895.114 877.293C892.657 877.286 890.674 875.28 890.682 872.831L890.776 849.792C890.783 847.353 892.779 845.364 895.24 845.364ZM1149.78 877.465C1150.29 876.272 1150.58 874.955 1150.58 873.576L1150.68 850.537C1150.69 847.848 1149.65 845.324 1147.76 843.416C1147.64 843.297 1147.5 843.214 1147.38 843.102C1145.58 844.789 1143.18 845.84 1140.53 845.84H1140.49L895.09 845.155C892.57 845.144 890.214 844.183 888.369 842.496C886.417 844.325 885.175 846.898 885.164 849.77L885.07 872.809C885.063 874.496 885.516 876.067 886.249 877.465C887.92 880.667 891.231 882.889 895.09 882.903L956.438 883.075L1140.49 883.591H1140.53C1141.59 883.591 1142.59 883.382 1143.55 883.075C1146.34 882.185 1148.64 880.143 1149.78 877.465Z" fill="#13171E" fill-opacity="0.5"/>
<path d="M922.083 874.277L922.068 872.879L898.884 872.785C898.211 872.782 897.575 872.516 897.096 872.037C896.617 871.555 896.355 870.915 896.359 870.239L896.426 852.428C896.433 851.033 897.571 849.9 898.973 849.9L922.157 849.993C922.834 849.997 923.469 850.262 923.949 850.741C924.427 851.224 924.689 851.863 924.686 852.536L924.611 870.353C924.608 871.745 923.474 872.878 922.083 872.878V874.28V874.276L922.083 874.277ZM898.877 875.589L922.083 875.683C925.016 875.683 927.405 873.297 927.417 870.364L927.492 852.547C927.495 851.118 926.941 849.779 925.94 848.765C924.933 847.752 923.595 847.191 922.17 847.187L898.959 847.094C896.035 847.094 893.637 849.48 893.622 852.416L893.555 870.23C893.544 873.177 895.93 875.578 898.877 875.589Z" fill="#13171E" fill-opacity="0.5"/>
<path d="M1132.03 866.818L1132.02 865.42L940.1 864.945C939.24 864.941 938.545 864.239 938.548 863.378L938.563 859.623C938.567 858.767 939.263 858.075 940.131 858.075L1132.05 858.549C1132.92 858.553 1133.61 859.256 1133.61 860.113L1133.59 863.872C1133.59 864.725 1132.89 865.421 1132.04 865.421V866.823V866.819L1132.03 866.818ZM940.088 867.75L1132.02 868.225H1132.03C1134.44 868.225 1136.39 866.273 1136.4 863.882L1136.41 860.124C1136.42 857.719 1134.47 855.755 1132.06 855.744L940.118 855.27C937.717 855.27 935.761 857.218 935.757 859.616L935.742 863.367C935.739 864.534 936.184 865.63 937.006 866.46C937.829 867.287 938.921 867.746 940.088 867.75Z" fill="#13171E" fill-opacity="0.5"/>
<path d="M895.239 807.615L1140.63 808.299C1143.08 808.311 1145.07 810.312 1145.07 812.765L1144.97 835.8C1144.96 838.243 1142.97 840.228 1140.53 840.228V843.033L1140.51 840.228L895.108 839.543C893.919 839.54 892.809 839.072 891.97 838.227C891.133 837.389 890.676 836.267 890.68 835.078L890.773 812.039C890.78 809.6 892.777 807.614 895.239 807.614L895.239 807.615ZM1150.58 835.826L1150.68 812.784C1150.69 809.837 1149.4 807.203 1147.37 805.353C1145.58 807.036 1143.18 808.09 1140.53 808.09H1140.49L895.09 807.402C892.57 807.39 890.214 806.43 888.369 804.742C886.417 806.572 885.175 809.144 885.164 812.016L885.07 835.059C885.06 837.745 886.099 840.272 887.988 842.18C888.107 842.295 888.246 842.382 888.369 842.494C890.213 844.18 892.569 845.142 895.09 845.153L1140.49 845.837H1140.53C1143.18 845.837 1145.58 844.786 1147.38 843.1C1149.33 841.271 1150.57 838.698 1150.58 835.826L1150.58 835.826Z" fill="#13171E" fill-opacity="0.5"/>
<path d="M922.076 836.53L922.069 835.131L898.888 835.042C897.49 835.035 896.356 833.89 896.36 832.487L896.427 814.68C896.434 813.285 897.575 812.152 898.974 812.152L922.158 812.242C922.835 812.245 923.47 812.511 923.95 812.989C924.428 813.471 924.69 814.111 924.686 814.788L924.612 832.602C924.608 833.993 923.471 835.131 922.076 835.131V836.533V836.53ZM898.877 837.847L922.076 837.936C925.012 837.936 927.405 835.547 927.417 832.615L927.492 814.801C927.502 811.849 925.113 809.449 922.17 809.437L898.966 809.348C896.034 809.348 893.636 811.733 893.622 814.67L893.555 832.48C893.544 835.423 895.93 837.831 898.877 837.847Z" fill="#13171E" fill-opacity="0.5"/>
<path d="M1132.02 829.073L1132.02 827.671L940.099 827.196C939.685 827.193 939.291 827.032 939 826.736C938.704 826.441 938.544 826.044 938.547 825.629L938.562 821.874C938.566 821.022 939.262 820.322 940.13 820.322L1132.05 820.797C1132.92 820.801 1133.61 821.505 1133.61 822.361L1133.59 826.119C1133.59 826.972 1132.89 827.671 1132.03 827.671L1132.02 829.07V829.073ZM940.088 830L1132.02 830.475H1132.03C1134.43 830.475 1136.39 828.523 1136.4 826.129L1136.41 822.37C1136.42 819.965 1134.47 818.001 1132.06 817.99L940.118 817.516C937.717 817.516 935.761 819.468 935.757 821.865L935.742 825.617C935.739 826.783 936.184 827.883 937.006 828.706C937.829 829.536 938.921 829.997 940.087 830H940.088Z" fill="#13171E" fill-opacity="0.5"/>
<path d="M890.775 774.291C890.782 771.852 892.775 769.867 895.24 769.867L1140.64 770.551C1141.83 770.555 1142.94 771.022 1143.78 771.868C1144.61 772.709 1145.07 773.824 1145.07 775.013L1144.97 798.048C1144.96 800.491 1142.97 802.48 1140.54 802.48V805.285V805.281L1140.51 802.48L895.11 801.791C893.921 801.788 892.81 801.32 891.972 800.478C891.135 799.637 890.678 798.519 890.681 797.333L890.775 774.291ZM895.09 807.402L1140.49 808.091H1140.53C1143.18 808.091 1145.58 807.036 1147.37 805.353C1149.33 803.528 1150.57 800.951 1150.58 798.075L1150.68 775.036C1150.69 772.351 1149.65 769.819 1147.76 767.911C1145.87 766.011 1143.34 764.953 1140.65 764.942L895.213 764.258C889.693 764.258 885.183 768.75 885.164 774.273L885.07 797.312C885.06 799.998 886.099 802.526 887.988 804.429C888.107 804.549 888.246 804.631 888.369 804.744C890.213 806.43 892.569 807.391 895.09 807.402Z" fill="#13171E" fill-opacity="0.5"/>
<path d="M922.076 798.781L922.069 797.379L898.885 797.289C898.212 797.285 897.576 797.02 897.097 796.541C896.618 796.058 896.356 795.419 896.36 794.739L896.427 776.933C896.434 775.534 897.575 774.401 898.974 774.401L922.154 774.49C923.553 774.498 924.69 775.642 924.686 777.041L924.612 794.855C924.608 796.247 923.471 797.379 922.076 797.379V798.781ZM898.877 800.093L922.076 800.183C925.012 800.183 927.405 797.797 927.417 794.861L927.492 777.05C927.502 774.107 925.113 771.699 922.17 771.684L898.966 771.594C896.034 771.594 893.636 773.98 893.622 776.919L893.555 794.73C893.544 797.677 895.93 800.081 898.877 800.093Z" fill="#13171E" fill-opacity="0.5"/>
<path d="M1132.03 791.318L1132.02 789.919L940.1 789.445C939.24 789.441 938.545 788.742 938.548 787.877L938.563 784.123C938.567 783.27 939.266 782.571 940.131 782.571L1132.06 783.049C1132.48 783.049 1132.87 783.213 1133.16 783.51C1133.45 783.805 1133.61 784.202 1133.61 784.613L1133.59 788.367C1133.59 789.224 1132.89 789.919 1132.04 789.919V791.321L1132.03 791.318ZM940.088 792.25L1132.02 792.724H1132.03C1134.44 792.724 1136.39 790.776 1136.4 788.378L1136.41 784.623C1136.42 782.215 1134.47 780.248 1132.06 780.244L940.126 779.766C937.721 779.766 935.762 781.718 935.757 784.115L935.742 787.867C935.739 789.037 936.184 790.133 937.006 790.963C937.829 791.786 938.921 792.246 940.088 792.25Z" fill="#13171E" fill-opacity="0.5"/>
<path d="M747.7 871.661H747.415C745.897 873.901 743.338 875.375 740.44 875.401H747.699C748.709 875.401 749.536 876.224 749.536 877.238C749.536 878.247 748.709 879.074 747.699 879.074H489.629C484.674 879.074 480.638 875.042 480.638 870.087V837.399C480.638 832.44 484.674 828.408 489.629 828.408H747.699C748.709 828.408 749.536 829.234 749.536 830.244C749.536 831.258 748.709 832.084 747.699 832.084H740.368C743.293 832.084 745.878 833.569 747.411 835.825H747.699C750.773 835.825 753.275 833.323 753.275 830.244C753.275 828.718 752.654 827.33 751.656 826.324C750.642 827.341 749.243 827.978 747.699 827.978H489.629C487.385 827.978 485.305 827.346 483.477 826.324C479.576 828.501 476.898 832.619 476.898 837.399V870.087C476.898 872.844 477.803 875.383 479.3 877.466C481.611 880.694 485.366 882.814 489.629 882.814H747.699C750.694 882.814 753.13 880.436 753.254 877.466C753.254 877.388 753.276 877.317 753.276 877.238C753.276 874.164 750.774 871.661 747.7 871.661Z" fill="#13171E" fill-opacity="0.5"/>
<path d="M484.312 837.4V870.088C484.312 873.017 486.698 875.403 489.631 875.403H492.762C488.101 875.362 484.321 871.566 484.321 866.894V840.598C484.321 835.904 488.139 832.086 492.833 832.086H489.631C486.698 832.086 484.312 834.467 484.312 837.4Z" fill="#13171E" fill-opacity="0.5"/>
<path d="M745.143 840.596V866.892C745.143 869.525 743.004 871.668 740.371 871.668H492.832C490.2 871.668 488.06 869.526 488.06 866.892V840.596C488.06 837.963 490.199 835.823 492.832 835.823H740.371C743.003 835.823 745.143 837.962 745.143 840.596ZM740.371 832.084H492.832C488.139 832.084 484.32 835.902 484.32 840.596V866.892C484.32 871.563 488.102 875.359 492.761 875.401C492.784 875.401 492.81 875.408 492.832 875.408H740.371C740.393 875.408 740.415 875.401 740.441 875.401C743.34 875.375 745.898 873.901 747.417 871.66C748.344 870.299 748.883 868.657 748.883 866.891V840.595C748.883 838.826 748.34 837.184 747.413 835.822C745.88 833.567 743.296 832.082 740.371 832.082V832.084Z" fill="#13171E" fill-opacity="0.5"/>
<path d="M489.629 827.978H747.699C749.244 827.978 750.642 827.342 751.656 826.324C752.654 825.314 753.275 823.93 753.275 822.404C753.275 819.326 750.773 816.829 747.699 816.829H747.415C745.896 819.065 743.338 820.543 740.439 820.569H747.698C748.708 820.569 749.535 821.392 749.535 822.405C749.535 823.415 748.708 824.238 747.698 824.238H489.628C484.673 824.238 480.637 820.206 480.637 815.251V782.563C480.637 777.607 484.673 773.576 489.628 773.576H747.698C748.708 773.576 749.535 774.403 749.535 775.413C749.535 776.426 748.708 777.249 747.698 777.249H489.628C486.696 777.249 484.31 779.632 484.31 782.564V815.252C484.31 818.185 486.696 820.571 489.628 820.571H492.759C488.099 820.529 484.318 816.73 484.318 812.062V785.766C484.318 781.072 488.137 777.249 492.83 777.249H740.368C743.289 777.249 745.873 778.734 747.407 780.99H747.699C750.773 780.99 753.275 778.487 753.275 775.413C753.275 772.338 750.773 769.836 747.699 769.836H489.629C482.609 769.836 476.898 775.543 476.898 782.563V815.251C476.898 820.028 479.576 824.148 483.477 826.325C485.305 827.347 487.385 827.978 489.629 827.978Z" fill="#13171E" fill-opacity="0.5"/>
<path d="M745.143 785.764V812.06C745.143 814.693 743.004 816.833 740.371 816.833H492.832C490.2 816.833 488.06 814.693 488.06 812.06V785.764C488.06 783.131 490.199 780.987 492.832 780.987H740.371C743.003 780.987 745.143 783.13 745.143 785.764ZM740.371 777.247H492.832C488.139 777.247 484.32 781.069 484.32 785.764V812.06C484.32 816.727 488.102 820.527 492.761 820.568C492.784 820.568 492.81 820.572 492.832 820.572H740.371C740.393 820.572 740.415 820.568 740.441 820.568C743.34 820.542 745.898 819.065 747.417 816.828C748.344 815.466 748.883 813.825 748.883 812.059V785.763C748.883 783.993 748.337 782.348 747.409 780.986C745.876 778.731 743.291 777.246 740.37 777.246L740.371 777.247Z" fill="#13171E" fill-opacity="0.5"/>
<path d="M490.382 787.951H739.805C740.067 787.951 740.273 787.742 740.273 787.483C740.273 787.221 740.067 787.016 739.805 787.016H490.382C490.123 787.016 489.914 787.221 489.914 787.483C489.914 787.742 490.123 787.951 490.382 787.951Z" fill="#13171E" fill-opacity="0.5"/>
<path d="M490.382 795.564H739.805C740.067 795.564 740.273 795.355 740.273 795.097C740.273 794.838 740.067 794.629 739.805 794.629H490.382C490.123 794.629 489.914 794.838 489.914 795.097C489.914 795.355 490.123 795.564 490.382 795.564Z" fill="#13171E" fill-opacity="0.5"/>
<path d="M490.382 803.181H739.805C740.067 803.181 740.273 802.972 740.273 802.714C740.273 802.455 740.067 802.246 739.805 802.246H490.382C490.123 802.246 489.914 802.455 489.914 802.714C489.914 802.972 490.123 803.181 490.382 803.181Z" fill="#13171E" fill-opacity="0.5"/>
<path d="M740.257 810.331C740.257 810.072 740.051 809.863 739.789 809.863H490.366C490.108 809.863 489.898 810.072 489.898 810.331C489.898 810.593 490.108 810.799 490.366 810.799H739.789C740.051 810.799 740.257 810.593 740.257 810.331Z" fill="#13171E" fill-opacity="0.5"/>
<path d="M489.914 842.315C489.914 842.574 490.123 842.783 490.382 842.783H739.805C740.067 842.783 740.273 842.574 740.273 842.315C740.273 842.057 740.067 841.848 739.805 841.848H490.382C490.123 841.848 489.914 842.057 489.914 842.315Z" fill="#13171E" fill-opacity="0.5"/>
<path d="M490.382 850.404H739.805C740.067 850.404 740.273 850.195 740.273 849.936C740.273 849.678 740.067 849.469 739.805 849.469H490.382C490.123 849.469 489.914 849.678 489.914 849.936C489.914 850.195 490.123 850.404 490.382 850.404Z" fill="#13171E" fill-opacity="0.5"/>
<path d="M490.382 858.017H739.805C740.067 858.017 740.273 857.812 740.273 857.55C740.273 857.291 740.067 857.082 739.805 857.082H490.382C490.123 857.082 489.914 857.291 489.914 857.55C489.914 857.812 490.123 858.017 490.382 858.017Z" fill="#13171E" fill-opacity="0.5"/>
<path d="M740.257 865.163C740.257 864.904 740.051 864.695 739.789 864.695H490.366C490.108 864.695 489.898 864.904 489.898 865.163C489.898 865.425 490.108 865.631 490.366 865.631H739.789C740.051 865.631 740.257 865.425 740.257 865.163Z" fill="#13171E" fill-opacity="0.5"/>
<path d="M760.485 522.996H754.875V555.011H760.485V522.996Z" fill="#13171E" fill-opacity="0.5"/>
<path d="M890.149 522.996H884.539V555.011H890.149V522.996Z" fill="#13171E" fill-opacity="0.5"/>
<path d="M1066.3 560.622C1072.03 560.622 1076.75 565.072 1077.17 570.697H567.839C568.262 565.072 572.978 560.622 578.716 560.622H1066.3ZM562.195 576.307H1082.82V571.528C1082.82 571.319 1082.76 571.124 1082.75 570.918C1082.42 562.099 1075.19 555.012 1066.3 555.012H578.715C569.818 555.012 562.588 562.099 562.259 570.918C562.252 571.124 562.195 571.319 562.195 571.528V576.307Z" fill="#13171E" fill-opacity="0.5"/>
<path d="M302.934 522.996H1342.11C1349.41 522.996 1355.35 517.053 1355.35 509.749V13.2469C1355.35 5.94217 1349.41 0 1342.11 0H302.934C295.631 0 289.688 5.94307 289.688 13.2469V509.749C289.688 517.053 295.631 522.996 302.934 522.996Z" fill="#13171E" fill-opacity="0.5"/>
<rect x="306.523" y="16.75" width="1031.81" height="474.03" rx="6" fill="white"/>
<path d="M308.68 28.048C308.68 23.0627 312.735 19.0082 317.72 19.0082H1327.29C1332.28 19.0082 1336.33 23.0627 1336.33 28.048V479.837C1336.33 484.826 1332.28 488.877 1327.29 488.877H317.72C312.735 488.877 308.68 484.826 308.68 479.837V28.048ZM317.72 491.682H1327.29C1333.82 491.682 1339.14 486.371 1339.14 479.837V28.048C1339.14 21.5179 1333.82 16.2031 1327.29 16.2031H317.72C311.19 16.2031 305.875 21.5179 305.875 28.048V479.837C305.875 486.371 311.19 491.682 317.72 491.682Z" fill="#13171E" fill-opacity="0.5"/>
<path d="M905.604 505.221H739.412C737.972 505.221 736.805 504.051 736.805 502.611C736.805 501.179 737.972 500.008 739.412 500.008H905.604C907.04 500.008 908.211 501.179 908.211 502.611C908.211 504.051 907.04 505.221 905.604 505.221ZM905.604 497.203H739.412C736.427 497.203 734 499.627 734 502.611C734 505.596 736.427 508.026 739.412 508.026H905.604C908.589 508.026 911.016 505.596 911.016 502.611C911.016 499.627 908.589 497.203 905.604 497.203Z" fill="white"/>
</svg>
