<svg width="75" height="69" viewBox="0 0 75 69" fill="none" xmlns="http://www.w3.org/2000/svg">
<path d="M60.5569 13.7209C50.024 6.47487 35.7085 15.1027 37.2175 27.7985C37.246 28.0385 37.2771 28.2811 37.312 28.5275C39.5098 44.2682 20.9653 47.4311 33.1683 61.6601C45.3713 75.8891 72.971 66.7014 74.6673 42.6883C75.5756 29.8212 68.7236 19.3393 60.5569 13.7209Z" fill="#F4E3FF"/>
<path d="M29.1198 64.0053C13.3953 64.0053 0.648438 51.258 0.648438 35.5339C0.648438 19.8093 13.3958 7.0625 29.1198 7.0625C44.8444 7.0625 57.5913 19.8099 57.5913 35.5339C57.5913 51.258 44.8444 64.0053 29.1198 64.0053Z" fill="#252D3B"/>
<path d="M29.1198 57.5913C13.3953 57.5913 0.648438 44.8439 0.648438 29.1198C0.648438 13.3953 13.3958 0.648438 29.1198 0.648438C44.8444 0.648438 57.5913 13.3958 57.5913 29.1198C57.5913 44.8444 44.8444 57.5913 29.1198 57.5913Z" fill="white" stroke="#252D3B" stroke-width="1.3" stroke-miterlimit="10" stroke-linecap="round"/>
<path d="M29.2422 11.75V32.3108L36.8173 39.8859" fill="white"/>
<path d="M29.2422 11.75V32.3108L36.8173 39.8859" stroke="#252D3B" stroke-width="1.3" stroke-miterlimit="10" stroke-linecap="round"/>
</svg>
