<svg width="1920" height="970" viewBox="0 0 1920 970" fill="none" xmlns="http://www.w3.org/2000/svg">
<path d="M2174.53 1253.84C2174.53 1302.26 2135.13 1341.65 2086.71 1341.65H-146.893C-195.316 1341.65 -234.709 1302.26 -234.709 1253.84V941.579C-234.709 893.157 -195.316 853.764 -146.893 853.764H2086.71C2135.13 853.764 2174.53 893.157 2174.53 941.579V1253.84ZM2147.81 867.447C2131.19 853.724 2109.89 845.473 2086.71 845.473H-146.893C-170.082 845.473 -191.37 853.724 -207.995 867.447C-229.36 885.087 -243 911.769 -243 941.579V1253.84C-243 1296.9 -214.539 1333.43 -175.444 1345.61C-166.42 1348.43 -156.832 1349.94 -146.894 1349.94H2086.71C2096.65 1349.94 2106.24 1348.43 2115.25 1345.61C2154.35 1333.43 2182.82 1296.9 2182.82 1253.84V941.579C2182.82 911.769 2169.17 885.087 2147.81 867.447Z" fill="#13171E"/>
<path d="M2133.87 1245.26C2133.87 1273.57 2110.84 1296.6 2082.54 1296.6H2076.38V1294.9H2082.54C2109.9 1294.9 2132.17 1272.63 2132.17 1245.26V939.304C2132.17 911.937 2109.91 889.675 2082.54 889.675H2076.38V887.967H2082.54C2110.84 887.967 2133.87 910.996 2133.87 939.302V1245.26ZM2070.85 1299.57H2055.57V1294.9H2070.85V1299.57ZM2050.05 1296.6H1602.06V887.968H2050.05V889.676H1605.84C1604.7 889.676 1603.77 890.605 1603.77 891.748V1292.82C1603.77 1293.97 1604.7 1294.89 1605.84 1294.89H2050.05V1296.6ZM2082.54 893.82C2107.62 893.82 2128.02 914.223 2128.02 939.304V1245.26C2128.02 1270.34 2107.62 1290.75 2082.54 1290.75H1607.92V893.821L2082.54 893.82ZM2055.57 885H2070.85V889.675H2055.57V885ZM1593.77 1296.6H1562.67V887.968H1593.77V1296.6ZM1554.38 887.968V1107.84H383.396V887.968H1554.38ZM984.437 1296.6H953.334V1116.12H984.437V1296.6ZM375.106 1296.6H343.998V887.968H375.106V1296.6ZM335.708 1296.6H-112.276V1294.9H331.928C333.072 1294.9 334 1293.97 334 1292.82V891.75C334 890.605 333.071 889.678 331.928 889.678H-112.276V887.969H335.708V1296.6ZM-117.803 1299.57H-133.084V1294.9H-117.803V1299.57ZM-138.61 1296.6H-144.76C-173.067 1296.6 -196.101 1273.57 -196.101 1245.26V939.304C-196.101 910.996 -173.066 887.968 -144.76 887.968H-138.61V889.676H-144.76C-172.127 889.676 -194.394 911.937 -194.394 939.305V1245.26C-194.394 1272.63 -172.128 1294.9 -144.76 1294.9H-138.61V1296.6ZM329.856 893.82V1290.75H-144.76C-169.839 1290.75 -190.249 1270.34 -190.249 1245.26V939.302C-190.249 914.223 -169.839 893.819 -144.76 893.819L329.856 893.82ZM-133.083 885H-117.802V889.675H-133.083V885ZM2082.54 879.677H2076.38V879.473H2050.05V879.677H-112.276V879.473H-138.61V879.677H-144.76C-177.638 879.677 -204.391 906.426 -204.391 939.302V1245.26C-204.391 1278.14 -177.637 1304.89 -144.76 1304.89H-138.61V1305.09H-112.276V1304.89H383.396V1116.12H945.044V1296.6H383.406V1304.89H945.065V1304.89H992.704V1304.89H1554.36V1296.6H992.725V1116.12H1554.38V1304.89H2050.05V1305.09H2076.37V1304.89H2082.54C2115.41 1304.89 2142.16 1278.14 2142.16 1245.26V939.302C2142.16 906.426 2115.41 879.677 2082.54 879.677H2082.54Z" fill="#13171E"/>
<path d="M613.485 950.452C613.485 943.086 619.476 937.094 626.843 937.094H1310.92C1318.29 937.094 1324.28 943.086 1324.28 950.452V1013.45C1324.28 1020.82 1318.29 1026.81 1310.92 1026.81H626.843C619.476 1026.81 613.485 1020.82 613.485 1013.45V950.452ZM626.843 1035.1H1310.92C1322.86 1035.1 1332.57 1025.39 1332.57 1013.45V950.452C1332.57 938.515 1322.86 928.805 1310.92 928.805H626.843C614.906 928.805 605.195 938.515 605.195 950.452V1013.45C605.195 1025.39 614.906 1035.1 626.843 1035.1Z" fill="#13171E"/>
<path d="M1306.32 967.269C1306.32 977.094 1298.31 985.091 1288.49 985.091C1278.66 985.091 1270.66 977.094 1270.66 967.269C1270.66 957.443 1278.66 949.44 1288.49 949.44C1298.31 949.44 1306.32 957.442 1306.32 967.269ZM1288.49 990.618C1301.36 990.618 1311.84 980.145 1311.84 967.269C1311.84 954.392 1301.36 943.914 1288.49 943.914C1275.61 943.914 1265.13 954.392 1265.13 967.269C1265.13 980.145 1275.61 990.618 1288.49 990.618Z" fill="#13171E"/>
<path d="M880.751 772.812H872.461V820.12H880.751V772.812Z" fill="#13171E"/>
<path d="M1072.34 772.812H1064.05V820.12H1072.34V772.812Z" fill="#13171E"/>
<path d="M1332.63 828.407C1341.11 828.407 1348.07 834.983 1348.7 843.295H596.082C596.707 834.983 603.676 828.407 612.154 828.407H1332.63ZM587.742 851.585H1357.04V844.522C1357.04 844.213 1356.96 843.925 1356.95 843.622C1356.46 830.59 1345.78 820.117 1332.63 820.117H612.153C599.006 820.117 588.322 830.59 587.836 843.622C587.826 843.925 587.742 844.213 587.742 844.522V851.585Z" fill="#13171E"/>
<path d="M204.637 772.81H1740.18C1750.97 772.81 1759.75 764.028 1759.75 753.235V19.5744C1759.75 8.78051 1750.97 0 1740.18 0H204.637C193.844 0 185.062 8.78184 185.062 19.5744V753.235C185.062 764.029 193.844 772.81 204.637 772.81Z" fill="#13171E"/>
<rect width="1526.81" height="702.596" transform="translate(208.992 23.9414)" fill="#13171E"/>
<rect x="209.992" y="24.9414" width="1524" height="701" rx="16" fill="white"/>
<path d="M1095.18 746.548H849.606C847.479 746.548 845.754 744.818 845.754 742.691C845.754 740.574 847.479 738.844 849.606 738.844H1095.18C1097.3 738.844 1099.03 740.574 1099.03 742.691C1099.03 744.818 1097.3 746.548 1095.18 746.548ZM1095.18 734.699H849.606C845.196 734.699 841.609 738.28 841.609 742.691C841.609 747.101 845.196 750.692 849.606 750.692H1095.18C1099.59 750.692 1103.18 747.101 1103.18 742.691C1103.18 738.28 1099.59 734.699 1095.18 734.699Z" fill="white"/>
<rect x="729" y="84" width="463" height="49" fill="#F4E3FF"/>
<path d="M750.69 105.413H765.654V110.014H750.69V105.413ZM751.12 118.313H768.105V123H745.53V92.9H767.503V97.587H751.12V118.313ZM786.85 99.78C788.685 99.78 790.319 100.138 791.752 100.855C793.214 101.572 794.361 102.675 795.192 104.166C796.023 105.628 796.439 107.52 796.439 109.842V123H791.064V110.53C791.064 108.495 790.577 106.975 789.602 105.972C788.656 104.969 787.323 104.467 785.603 104.467C784.342 104.467 783.224 104.725 782.249 105.241C781.274 105.757 780.515 106.531 779.97 107.563C779.454 108.566 779.196 109.842 779.196 111.39V123H773.821V100.038H778.938V106.23L778.035 104.338C778.838 102.876 779.999 101.758 781.518 100.984C783.066 100.181 784.843 99.78 786.85 99.78ZM811.9 123.301C809.378 123.301 807.428 122.656 806.052 121.366C804.676 120.047 803.988 118.112 803.988 115.561V94.964H809.363V115.432C809.363 116.521 809.636 117.367 810.18 117.969C810.754 118.571 811.542 118.872 812.545 118.872C813.749 118.872 814.753 118.557 815.555 117.926L817.06 121.753C816.43 122.269 815.656 122.656 814.738 122.914C813.821 123.172 812.875 123.301 811.9 123.301ZM800.204 104.51V100.21H815.512V104.51H800.204ZM831.519 123.301C828.968 123.301 826.732 122.799 824.811 121.796C822.919 120.764 821.443 119.359 820.382 117.582C819.35 115.805 818.834 113.784 818.834 111.519C818.834 109.226 819.336 107.205 820.339 105.456C821.371 103.679 822.776 102.288 824.553 101.285C826.359 100.282 828.409 99.78 830.702 99.78C832.938 99.78 834.931 100.267 836.679 101.242C838.428 102.217 839.804 103.593 840.807 105.37C841.811 107.147 842.312 109.24 842.312 111.648C842.312 111.877 842.298 112.135 842.269 112.422C842.269 112.709 842.255 112.981 842.226 113.239H823.091V109.67H839.388L837.281 110.788C837.31 109.469 837.038 108.308 836.464 107.305C835.891 106.302 835.103 105.513 834.099 104.94C833.125 104.367 831.992 104.08 830.702 104.08C829.384 104.08 828.223 104.367 827.219 104.94C826.245 105.513 825.471 106.316 824.897 107.348C824.353 108.351 824.08 109.541 824.08 110.917V111.777C824.08 113.153 824.396 114.371 825.026 115.432C825.657 116.493 826.546 117.31 827.692 117.883C828.839 118.456 830.158 118.743 831.648 118.743C832.938 118.743 834.099 118.542 835.131 118.141C836.163 117.74 837.081 117.109 837.883 116.249L840.764 119.56C839.732 120.764 838.428 121.696 836.851 122.355C835.303 122.986 833.526 123.301 831.519 123.301ZM847.475 123V100.038H852.592V106.359L851.99 104.51C852.678 102.962 853.753 101.787 855.215 100.984C856.706 100.181 858.555 99.78 860.762 99.78V104.897C860.533 104.84 860.318 104.811 860.117 104.811C859.917 104.782 859.716 104.768 859.515 104.768C857.48 104.768 855.86 105.37 854.656 106.574C853.452 107.749 852.85 109.512 852.85 111.863V123H847.475ZM886.059 123.301C883.536 123.301 881.587 122.656 880.211 121.366C878.835 120.047 878.147 118.112 878.147 115.561V94.964H883.522V115.432C883.522 116.521 883.794 117.367 884.339 117.969C884.912 118.571 885.7 118.872 886.704 118.872C887.908 118.872 888.911 118.557 889.714 117.926L891.219 121.753C890.588 122.269 889.814 122.656 888.897 122.914C887.979 123.172 887.033 123.301 886.059 123.301ZM874.363 104.51V100.21H889.671V104.51H874.363ZM908.669 99.78C910.504 99.78 912.138 100.138 913.571 100.855C915.033 101.572 916.18 102.675 917.011 104.166C917.843 105.628 918.258 107.52 918.258 109.842V123H912.883V110.53C912.883 108.495 912.396 106.975 911.421 105.972C910.475 104.969 909.142 104.467 907.422 104.467C906.161 104.467 905.043 104.725 904.068 105.241C903.094 105.757 902.334 106.531 901.789 107.563C901.273 108.566 901.015 109.842 901.015 111.39V123H895.64V91.094H901.015V106.23L899.854 104.338C900.657 102.876 901.818 101.758 903.337 100.984C904.885 100.181 906.663 99.78 908.669 99.78ZM935.912 123.301C933.36 123.301 931.124 122.799 929.204 121.796C927.312 120.764 925.835 119.359 924.775 117.582C923.743 115.805 923.227 113.784 923.227 111.519C923.227 109.226 923.728 107.205 924.732 105.456C925.764 103.679 927.168 102.288 928.946 101.285C930.752 100.282 932.801 99.78 935.095 99.78C937.331 99.78 939.323 100.267 941.072 101.242C942.82 102.217 944.196 103.593 945.2 105.37C946.203 107.147 946.705 109.24 946.705 111.648C946.705 111.877 946.69 112.135 946.662 112.422C946.662 112.709 946.647 112.981 946.619 113.239H927.484V109.67H943.781L941.674 110.788C941.702 109.469 941.43 108.308 940.857 107.305C940.283 106.302 939.495 105.513 938.492 104.94C937.517 104.367 936.385 104.08 935.095 104.08C933.776 104.08 932.615 104.367 931.612 104.94C930.637 105.513 929.863 106.316 929.29 107.348C928.745 108.351 928.473 109.541 928.473 110.917V111.777C928.473 113.153 928.788 114.371 929.419 115.432C930.049 116.493 930.938 117.31 932.085 117.883C933.231 118.456 934.55 118.743 936.041 118.743C937.331 118.743 938.492 118.542 939.524 118.141C940.556 117.74 941.473 117.109 942.276 116.249L945.157 119.56C944.125 120.764 942.82 121.696 941.244 122.355C939.696 122.986 937.918 123.301 935.912 123.301ZM964.268 123V92.9H976.652C979.318 92.9 981.597 93.33 983.489 94.19C985.409 95.05 986.886 96.2827 987.918 97.888C988.95 99.4933 989.466 101.4 989.466 103.607C989.466 105.814 988.95 107.721 987.918 109.326C986.886 110.931 985.409 112.164 983.489 113.024C981.597 113.884 979.318 114.314 976.652 114.314H967.364L969.858 111.691V123H964.268ZM969.858 112.293L967.364 109.584H976.394C978.859 109.584 980.708 109.068 981.941 108.036C983.202 106.975 983.833 105.499 983.833 103.607C983.833 101.686 983.202 100.21 981.941 99.178C980.708 98.146 978.859 97.63 976.394 97.63H967.364L969.858 94.878V112.293ZM1008.47 123V118.356L1008.17 117.367V109.24C1008.17 107.663 1007.69 106.445 1006.75 105.585C1005.8 104.696 1004.37 104.252 1002.45 104.252C1001.16 104.252 999.883 104.453 998.622 104.854C997.389 105.255 996.343 105.814 995.483 106.531L993.376 102.618C994.609 101.672 996.071 100.97 997.762 100.511C999.482 100.024 1001.26 99.78 1003.09 99.78C1006.42 99.78 1008.98 100.583 1010.79 102.188C1012.63 103.765 1013.54 106.216 1013.54 109.541V123H1008.47ZM1001.24 123.301C999.525 123.301 998.02 123.014 996.73 122.441C995.44 121.839 994.437 121.022 993.72 119.99C993.032 118.929 992.688 117.74 992.688 116.421C992.688 115.131 992.989 113.97 993.591 112.938C994.222 111.906 995.239 111.089 996.644 110.487C998.049 109.885 999.912 109.584 1002.23 109.584H1008.9V113.153H1002.62C1000.79 113.153 999.554 113.454 998.923 114.056C998.292 114.629 997.977 115.346 997.977 116.206C997.977 117.181 998.364 117.955 999.138 118.528C999.912 119.101 1000.99 119.388 1002.36 119.388C1003.68 119.388 1004.86 119.087 1005.89 118.485C1006.95 117.883 1007.71 116.994 1008.17 115.819L1009.07 119.044C1008.55 120.391 1007.62 121.438 1006.28 122.183C1004.96 122.928 1003.28 123.301 1001.24 123.301ZM1027.54 123.301C1025.62 123.301 1023.77 123.057 1021.99 122.57C1020.24 122.054 1018.85 121.438 1017.82 120.721L1019.88 116.636C1020.91 117.295 1022.15 117.84 1023.58 118.27C1025.01 118.7 1026.45 118.915 1027.88 118.915C1029.57 118.915 1030.79 118.686 1031.54 118.227C1032.31 117.768 1032.7 117.152 1032.7 116.378C1032.7 115.747 1032.44 115.274 1031.92 114.959C1031.41 114.615 1030.73 114.357 1029.9 114.185C1029.07 114.013 1028.14 113.855 1027.11 113.712C1026.1 113.569 1025.09 113.382 1024.05 113.153C1023.05 112.895 1022.13 112.537 1021.3 112.078C1020.47 111.591 1019.8 110.946 1019.28 110.143C1018.76 109.34 1018.51 108.28 1018.51 106.961C1018.51 105.499 1018.92 104.238 1019.75 103.177C1020.58 102.088 1021.75 101.256 1023.24 100.683C1024.76 100.081 1026.55 99.78 1028.61 99.78C1030.16 99.78 1031.72 99.952 1033.3 100.296C1034.87 100.64 1036.18 101.127 1037.21 101.758L1035.15 105.843C1034.06 105.184 1032.95 104.739 1031.84 104.51C1030.75 104.252 1029.66 104.123 1028.57 104.123C1026.93 104.123 1025.72 104.367 1024.91 104.854C1024.14 105.341 1023.75 105.958 1023.75 106.703C1023.75 107.391 1024.01 107.907 1024.53 108.251C1025.04 108.595 1025.72 108.867 1026.55 109.068C1027.38 109.269 1028.3 109.441 1029.3 109.584C1030.33 109.699 1031.35 109.885 1032.35 110.143C1033.36 110.401 1034.27 110.759 1035.1 111.218C1035.96 111.648 1036.65 112.264 1037.17 113.067C1037.68 113.87 1037.94 114.916 1037.94 116.206C1037.94 117.639 1037.51 118.886 1036.65 119.947C1035.82 121.008 1034.63 121.839 1033.08 122.441C1031.54 123.014 1029.69 123.301 1027.54 123.301ZM1049.67 123.301C1047.75 123.301 1045.9 123.057 1044.12 122.57C1042.37 122.054 1040.98 121.438 1039.95 120.721L1042.01 116.636C1043.04 117.295 1044.28 117.84 1045.71 118.27C1047.14 118.7 1048.58 118.915 1050.01 118.915C1051.7 118.915 1052.92 118.686 1053.66 118.227C1054.44 117.768 1054.83 117.152 1054.83 116.378C1054.83 115.747 1054.57 115.274 1054.05 114.959C1053.54 114.615 1052.86 114.357 1052.03 114.185C1051.2 114.013 1050.27 113.855 1049.24 113.712C1048.23 113.569 1047.21 113.382 1046.18 113.153C1045.18 112.895 1044.26 112.537 1043.43 112.078C1042.6 111.591 1041.93 110.946 1041.41 110.143C1040.89 109.34 1040.64 108.28 1040.64 106.961C1040.64 105.499 1041.05 104.238 1041.88 103.177C1042.71 102.088 1043.88 101.256 1045.37 100.683C1046.89 100.081 1048.68 99.78 1050.74 99.78C1052.29 99.78 1053.85 99.952 1055.43 100.296C1057 100.64 1058.31 101.127 1059.34 101.758L1057.28 105.843C1056.19 105.184 1055.08 104.739 1053.97 104.51C1052.88 104.252 1051.79 104.123 1050.7 104.123C1049.06 104.123 1047.85 104.367 1047.04 104.854C1046.27 105.341 1045.88 105.958 1045.88 106.703C1045.88 107.391 1046.14 107.907 1046.66 108.251C1047.17 108.595 1047.85 108.867 1048.68 109.068C1049.51 109.269 1050.43 109.441 1051.43 109.584C1052.46 109.699 1053.48 109.885 1054.48 110.143C1055.49 110.401 1056.4 110.759 1057.23 111.218C1058.09 111.648 1058.78 112.264 1059.3 113.067C1059.81 113.87 1060.07 114.916 1060.07 116.206C1060.07 117.639 1059.64 118.886 1058.78 119.947C1057.95 121.008 1056.76 121.839 1055.21 122.441C1053.66 123.014 1051.82 123.301 1049.67 123.301ZM1069.35 123L1060.93 100.038H1066L1073.22 120.291H1070.82L1078.38 100.038H1082.9L1090.25 120.291H1087.89L1095.33 100.038H1100.1L1091.63 123H1086.47L1079.76 105.069H1081.35L1074.51 123H1069.35ZM1113.49 123.301C1111.13 123.301 1109.04 122.799 1107.21 121.796C1105.37 120.764 1103.93 119.359 1102.86 117.582C1101.8 115.805 1101.27 113.784 1101.27 111.519C1101.27 109.226 1101.8 107.205 1102.86 105.456C1103.93 103.679 1105.37 102.288 1107.21 101.285C1109.04 100.282 1111.13 99.78 1113.49 99.78C1115.86 99.78 1117.97 100.282 1119.81 101.285C1121.67 102.288 1123.12 103.664 1124.15 105.413C1125.21 107.162 1125.74 109.197 1125.74 111.519C1125.74 113.784 1125.21 115.805 1124.15 117.582C1123.12 119.359 1121.67 120.764 1119.81 121.796C1117.97 122.799 1115.86 123.301 1113.49 123.301ZM1113.49 118.7C1114.8 118.7 1115.98 118.413 1117.01 117.84C1118.04 117.267 1118.85 116.435 1119.42 115.346C1120.02 114.257 1120.32 112.981 1120.32 111.519C1120.32 110.028 1120.02 108.753 1119.42 107.692C1118.85 106.603 1118.04 105.771 1117.01 105.198C1115.98 104.625 1114.82 104.338 1113.53 104.338C1112.21 104.338 1111.03 104.625 1110 105.198C1109 105.771 1108.2 106.603 1107.59 107.692C1106.99 108.753 1106.69 110.028 1106.69 111.519C1106.69 112.981 1106.99 114.257 1107.59 115.346C1108.2 116.435 1109 117.267 1110 117.84C1111.03 118.413 1112.2 118.7 1113.49 118.7ZM1130.88 123V100.038H1136V106.359L1135.4 104.51C1136.08 102.962 1137.16 101.787 1138.62 100.984C1140.11 100.181 1141.96 99.78 1144.17 99.78V104.897C1143.94 104.84 1143.72 104.811 1143.52 104.811C1143.32 104.782 1143.12 104.768 1142.92 104.768C1140.89 104.768 1139.27 105.37 1138.06 106.574C1136.86 107.749 1136.26 109.512 1136.26 111.863V123H1130.88ZM1158.24 123.301C1156.03 123.301 1154.04 122.814 1152.26 121.839C1150.51 120.836 1149.13 119.46 1148.13 117.711C1147.13 115.962 1146.63 113.898 1146.63 111.519C1146.63 109.14 1147.13 107.076 1148.13 105.327C1149.13 103.578 1150.51 102.217 1152.26 101.242C1154.04 100.267 1156.03 99.78 1158.24 99.78C1160.16 99.78 1161.88 100.21 1163.4 101.07C1164.91 101.901 1166.12 103.177 1167.01 104.897C1167.9 106.617 1168.34 108.824 1168.34 111.519C1168.34 114.185 1167.91 116.392 1167.05 118.141C1166.19 119.861 1165 121.151 1163.48 122.011C1161.96 122.871 1160.21 123.301 1158.24 123.301ZM1158.88 118.7C1160.17 118.7 1161.32 118.413 1162.32 117.84C1163.35 117.267 1164.17 116.435 1164.77 115.346C1165.4 114.257 1165.72 112.981 1165.72 111.519C1165.72 110.028 1165.4 108.753 1164.77 107.692C1164.17 106.603 1163.35 105.771 1162.32 105.198C1161.32 104.625 1160.17 104.338 1158.88 104.338C1157.59 104.338 1156.43 104.625 1155.4 105.198C1154.39 105.771 1153.58 106.603 1152.95 107.692C1152.34 108.753 1152.04 110.028 1152.04 111.519C1152.04 112.981 1152.34 114.257 1152.95 115.346C1153.58 116.435 1154.39 117.267 1155.4 117.84C1156.43 118.413 1157.59 118.7 1158.88 118.7ZM1165.85 123V117.582L1166.06 111.476L1165.63 105.37V91.094H1170.96V123H1165.85Z" fill="#252D3B"/>
<path d="M461.371 495V462.5L464.221 465.45H453.971V460H467.871V495H461.371Z" fill="black"/>
<path d="M514.196 495V490.65L528.096 477.45C529.262 476.35 530.129 475.383 530.696 474.55C531.262 473.717 531.629 472.95 531.796 472.25C531.996 471.517 532.096 470.833 532.096 470.2C532.096 468.6 531.546 467.367 530.446 466.5C529.346 465.6 527.729 465.15 525.596 465.15C523.896 465.15 522.346 465.45 520.946 466.05C519.579 466.65 518.396 467.567 517.396 468.8L512.846 465.3C514.212 463.467 516.046 462.05 518.346 461.05C520.679 460.017 523.279 459.5 526.146 459.5C528.679 459.5 530.879 459.917 532.746 460.75C534.646 461.55 536.096 462.7 537.096 464.2C538.129 465.7 538.646 467.483 538.646 469.55C538.646 470.683 538.496 471.817 538.196 472.95C537.896 474.05 537.329 475.217 536.496 476.45C535.662 477.683 534.446 479.067 532.846 480.6L520.896 491.95L519.546 489.5H539.996V495H514.196Z" fill="black"/>
<path d="M590.044 495.5C587.577 495.5 585.161 495.15 582.794 494.45C580.461 493.717 578.494 492.717 576.894 491.45L579.694 486.4C580.961 487.433 582.494 488.267 584.294 488.9C586.094 489.533 587.977 489.85 589.944 489.85C592.277 489.85 594.094 489.383 595.394 488.45C596.694 487.483 597.344 486.183 597.344 484.55C597.344 482.95 596.744 481.683 595.544 480.75C594.344 479.817 592.411 479.35 589.744 479.35H586.544V474.9L596.544 463L597.394 465.45H578.594V460H602.444V464.35L592.444 476.25L589.044 474.25H590.994C595.294 474.25 598.511 475.217 600.644 477.15C602.811 479.05 603.894 481.5 603.894 484.5C603.894 486.467 603.394 488.283 602.394 489.95C601.394 491.617 599.861 492.967 597.794 494C595.761 495 593.177 495.5 590.044 495.5Z" fill="black"/>
<path d="M639.546 487.05V482.55L656.796 460H663.746L646.746 482.55L643.496 481.55H671.246V487.05H639.546ZM658.746 495V487.05L658.946 481.55V474.5H665.046V495H658.746Z" fill="black"/>
<path d="M259.437 495L271.187 479.7L271.087 483.05L259.887 468.3H266.837L274.687 478.8H272.037L279.937 468.3H286.687L275.387 483.05L275.437 479.7L287.137 495H280.087L271.837 483.85L274.437 484.2L266.337 495H259.437Z" fill="black"/>
<path d="M717.92 495.5C715.453 495.5 713.037 495.15 710.67 494.45C708.337 493.717 706.37 492.717 704.77 491.45L707.52 486.4C708.787 487.433 710.32 488.267 712.12 488.9C713.953 489.533 715.853 489.85 717.82 489.85C720.12 489.85 721.92 489.367 723.22 488.4C724.553 487.433 725.22 486.133 725.22 484.5C725.22 483.4 724.937 482.433 724.37 481.6C723.837 480.767 722.87 480.133 721.47 479.7C720.103 479.267 718.22 479.05 715.82 479.05H707.37L709.17 460H729.72V465.45H711.57L714.97 462.35L713.62 476.6L710.22 473.55H717.27C720.737 473.55 723.52 474.017 725.62 474.95C727.753 475.85 729.303 477.117 730.27 478.75C731.27 480.35 731.77 482.183 731.77 484.25C731.77 486.283 731.27 488.15 730.27 489.85C729.27 491.55 727.737 492.917 725.67 493.95C723.637 494.983 721.053 495.5 717.92 495.5Z" fill="black"/>
<path d="M329.563 505.05C328.263 505.05 326.963 504.833 325.663 504.4C324.363 503.967 323.28 503.367 322.413 502.6L324.913 498C325.546 498.567 326.263 499.017 327.063 499.35C327.863 499.683 328.68 499.85 329.513 499.85C330.646 499.85 331.563 499.567 332.263 499C332.963 498.433 333.613 497.483 334.213 496.15L335.763 492.65L336.263 491.9L346.363 468.3H352.363L339.863 497.15C339.03 499.15 338.096 500.733 337.063 501.9C336.063 503.067 334.93 503.883 333.663 504.35C332.43 504.817 331.063 505.05 329.563 505.05ZM335.063 495.95L323.013 468.3H329.513L339.313 491.35L335.063 495.95Z" fill="black"/>
<path d="M783.816 495.5C780.649 495.5 777.933 494.833 775.666 493.5C773.399 492.133 771.666 490.167 770.466 487.6C769.266 485.033 768.666 481.867 768.666 478.1C768.666 474.1 769.383 470.717 770.816 467.95C772.283 465.183 774.299 463.083 776.866 461.65C779.466 460.217 782.449 459.5 785.816 459.5C787.583 459.5 789.266 459.683 790.866 460.05C792.499 460.417 793.883 460.983 795.016 461.75L792.616 466.65C791.649 466.017 790.599 465.583 789.466 465.35C788.366 465.083 787.199 464.95 785.966 464.95C782.666 464.95 780.049 465.967 778.116 468C776.183 470.033 775.216 473.033 775.216 477C775.216 477.633 775.233 478.383 775.266 479.25C775.299 480.083 775.416 480.933 775.616 481.8L773.616 479.6C774.216 478.233 775.033 477.1 776.066 476.2C777.133 475.267 778.383 474.567 779.816 474.1C781.283 473.633 782.866 473.4 784.566 473.4C786.866 473.4 788.916 473.85 790.716 474.75C792.516 475.617 793.949 476.867 795.016 478.5C796.083 480.1 796.616 481.983 796.616 484.15C796.616 486.45 796.049 488.45 794.916 490.15C793.783 491.85 792.249 493.167 790.316 494.1C788.383 495.033 786.216 495.5 783.816 495.5ZM783.466 490.4C784.799 490.4 785.983 490.167 787.016 489.7C788.049 489.2 788.849 488.5 789.416 487.6C790.016 486.7 790.316 485.65 790.316 484.45C790.316 482.617 789.683 481.167 788.416 480.1C787.149 479.033 785.449 478.5 783.316 478.5C781.916 478.5 780.683 478.767 779.616 479.3C778.583 479.8 777.749 480.5 777.116 481.4C776.516 482.3 776.216 483.333 776.216 484.5C776.216 485.567 776.499 486.55 777.066 487.45C777.633 488.35 778.449 489.067 779.516 489.6C780.616 490.133 781.933 490.4 783.466 490.4Z" fill="black"/>
<path d="M390.214 495V491.05L406.664 471.15L407.814 473.3H390.514V468.3H412.814V472.25L396.364 492.15L395.114 490H413.264V495H390.214Z" fill="black"/>
<path d="M839.379 495L853.829 462.6L855.529 465.5H835.679L838.779 462.35V471.45H832.729V460H859.929V464.35L846.329 495H839.379Z" fill="black"/>
<path d="M903.561 495.5C900.661 495.5 898.144 495.067 896.011 494.2C893.878 493.333 892.228 492.117 891.061 490.55C889.894 488.95 889.311 487.083 889.311 484.95C889.311 482.817 889.878 481.017 891.011 479.55C892.144 478.083 893.778 476.967 895.911 476.2C898.044 475.433 900.594 475.05 903.561 475.05C906.528 475.05 909.078 475.433 911.211 476.2C913.378 476.967 915.028 478.1 916.161 479.6C917.328 481.067 917.911 482.85 917.911 484.95C917.911 487.083 917.311 488.95 916.111 490.55C914.944 492.117 913.278 493.333 911.111 494.2C908.978 495.067 906.461 495.5 903.561 495.5ZM903.561 490.4C905.961 490.4 907.861 489.9 909.261 488.9C910.661 487.9 911.361 486.517 911.361 484.75C911.361 483.017 910.661 481.65 909.261 480.65C907.861 479.65 905.961 479.15 903.561 479.15C901.161 479.15 899.278 479.65 897.911 480.65C896.544 481.65 895.861 483.017 895.861 484.75C895.861 486.517 896.544 487.9 897.911 488.9C899.278 489.9 901.161 490.4 903.561 490.4ZM903.561 478.45C900.861 478.45 898.544 478.1 896.611 477.4C894.678 476.667 893.178 475.617 892.111 474.25C891.078 472.85 890.561 471.183 890.561 469.25C890.561 467.25 891.094 465.533 892.161 464.1C893.261 462.633 894.794 461.5 896.761 460.7C898.728 459.9 900.994 459.5 903.561 459.5C906.161 459.5 908.444 459.9 910.411 460.7C912.378 461.5 913.911 462.633 915.011 464.1C916.111 465.533 916.661 467.25 916.661 469.25C916.661 471.183 916.128 472.85 915.061 474.25C914.028 475.617 912.528 476.667 910.561 477.4C908.594 478.1 906.261 478.45 903.561 478.45ZM903.561 474.45C905.628 474.45 907.261 474.017 908.461 473.15C909.661 472.25 910.261 471.05 910.261 469.55C910.261 467.983 909.644 466.767 908.411 465.9C907.178 465.033 905.561 464.6 903.561 464.6C901.561 464.6 899.961 465.033 898.761 465.9C897.561 466.767 896.961 467.983 896.961 469.55C896.961 471.05 897.544 472.25 898.711 473.15C899.911 474.017 901.528 474.45 903.561 474.45Z" fill="black"/>
<path d="M965.849 459.5C969.049 459.5 971.765 460.183 973.999 461.55C976.265 462.883 977.999 464.833 979.199 467.4C980.399 469.967 980.999 473.133 980.999 476.9C980.999 480.9 980.265 484.283 978.799 487.05C977.365 489.817 975.365 491.917 972.799 493.35C970.232 494.783 967.249 495.5 963.849 495.5C962.082 495.5 960.399 495.317 958.799 494.95C957.199 494.583 955.815 494.017 954.649 493.25L957.049 488.35C958.015 488.983 959.065 489.433 960.199 489.7C961.332 489.933 962.499 490.05 963.699 490.05C966.999 490.05 969.615 489.033 971.549 487C973.482 484.967 974.449 481.967 974.449 478C974.449 477.367 974.432 476.633 974.399 475.8C974.365 474.933 974.249 474.067 974.049 473.2L976.049 475.4C975.482 476.767 974.665 477.917 973.599 478.85C972.532 479.75 971.282 480.433 969.849 480.9C968.415 481.367 966.832 481.6 965.099 481.6C962.832 481.6 960.782 481.167 958.949 480.3C957.149 479.4 955.715 478.15 954.649 476.55C953.582 474.917 953.049 473.017 953.049 470.85C953.049 468.517 953.615 466.517 954.749 464.85C955.882 463.15 957.415 461.833 959.349 460.9C961.315 459.967 963.482 459.5 965.849 459.5ZM966.199 464.6C964.865 464.6 963.682 464.85 962.649 465.35C961.615 465.817 960.799 466.5 960.199 467.4C959.632 468.267 959.349 469.317 959.349 470.55C959.349 472.383 959.982 473.833 961.249 474.9C962.515 475.967 964.215 476.5 966.349 476.5C967.749 476.5 968.982 476.25 970.049 475.75C971.115 475.217 971.949 474.5 972.549 473.6C973.149 472.667 973.449 471.633 973.449 470.5C973.449 469.4 973.165 468.417 972.599 467.55C972.032 466.65 971.215 465.933 970.149 465.4C969.082 464.867 967.765 464.6 966.199 464.6Z" fill="black"/>
<path d="M1147.26 480V475H1170.31V480H1147.26ZM1158.76 491.2C1157.8 491.2 1156.98 490.867 1156.31 490.2C1155.65 489.5 1155.31 488.633 1155.31 487.6C1155.31 486.533 1155.65 485.683 1156.31 485.05C1156.98 484.383 1157.8 484.05 1158.76 484.05C1159.76 484.05 1160.6 484.383 1161.26 485.05C1161.93 485.683 1162.26 486.533 1162.26 487.6C1162.26 488.633 1161.93 489.5 1161.26 490.2C1160.6 490.867 1159.76 491.2 1158.76 491.2ZM1158.76 470.95C1157.8 470.95 1156.98 470.617 1156.31 469.95C1155.65 469.25 1155.31 468.383 1155.31 467.35C1155.31 466.317 1155.65 465.467 1156.31 464.8C1156.98 464.133 1157.8 463.8 1158.76 463.8C1159.76 463.8 1160.6 464.133 1161.26 464.8C1161.93 465.467 1162.26 466.317 1162.26 467.35C1162.26 468.383 1161.93 469.25 1161.26 469.95C1160.6 470.617 1159.76 470.95 1158.76 470.95Z" fill="black"/>
<path d="M1021.47 488.75V466.25H1026.82V488.75H1021.47ZM1012.62 480V475H1035.67V480H1012.62Z" fill="black"/>
<path d="M1085.06 483.9L1101.31 467.45L1104.76 471.1L1088.41 487.55L1085.06 483.9ZM1085.06 471.1L1088.41 467.45L1104.76 483.9L1101.31 487.55L1085.06 471.1Z" fill="black"/>
<path d="M1211.17 473.95V468.95H1234.22V473.95H1211.17ZM1211.17 486.05V481.05H1234.22V486.05H1211.17Z" fill="black"/>
<path d="M1276.77 500L1293.27 452.9H1298.87L1282.37 500H1276.77Z" fill="black"/>
<path d="M1328.67 498.8V495H1353.67V498.8H1328.67Z" fill="black"/>
<path d="M1427.41 489.15L1404.36 480.2V474.8L1427.41 465.85V471.05L1406.31 478.95V476.05L1427.41 483.95V489.15Z" fill="black"/>
<path d="M1466.34 487.9L1475.29 467.1H1480.39L1489.29 487.9H1484.39L1476.49 468.85H1479.14L1471.24 487.9H1466.34Z" fill="black"/>
<path d="M1528.76 489.15V483.95L1549.86 476.05V478.95L1528.76 471.05V465.85L1551.81 474.8V480.2L1528.76 489.15Z" fill="black"/>
<path d="M1597.2 504.7V457.9H1609.15V462.9H1603.45V499.7H1609.15V504.7H1597.2Z" fill="black"/>
<path d="M1666.72 504.7H1654.82V499.7H1660.47V462.9H1654.82V457.9H1666.72V504.7Z" fill="black"/>
<path d="M273.318 394V388.6L272.968 387.45V378C272.968 376.167 272.418 374.75 271.318 373.75C270.218 372.717 268.551 372.2 266.318 372.2C264.818 372.2 263.334 372.433 261.868 372.9C260.434 373.367 259.218 374.017 258.218 374.85L255.768 370.3C257.201 369.2 258.901 368.383 260.868 367.85C262.868 367.283 264.934 367 267.068 367C270.934 367 273.918 367.933 276.018 369.8C278.151 371.633 279.218 374.483 279.218 378.35V394H273.318ZM264.918 394.35C262.918 394.35 261.168 394.017 259.668 393.35C258.168 392.65 257.001 391.7 256.168 390.5C255.368 389.267 254.968 387.883 254.968 386.35C254.968 384.85 255.318 383.5 256.018 382.3C256.751 381.1 257.934 380.15 259.568 379.45C261.201 378.75 263.368 378.4 266.068 378.4H273.818V382.55H266.518C264.384 382.55 262.951 382.9 262.218 383.6C261.484 384.267 261.118 385.1 261.118 386.1C261.118 387.233 261.568 388.133 262.468 388.8C263.368 389.467 264.618 389.8 266.218 389.8C267.751 389.8 269.118 389.45 270.318 388.75C271.551 388.05 272.434 387.017 272.968 385.65L274.018 389.4C273.418 390.967 272.334 392.183 270.768 393.05C269.234 393.917 267.284 394.35 264.918 394.35Z" fill="black"/>
<path d="M890.579 388.05L890.729 380.2L904.679 367.3H912.179L900.329 379.2L897.029 381.95L890.579 388.05ZM885.479 394V356.9H891.729V394H885.479ZM905.629 394L895.879 381.95L899.829 376.95L913.229 394H905.629Z" fill="black"/>
<path d="M1529.37 394.35C1527.1 394.35 1525.1 393.933 1523.37 393.1C1521.64 392.233 1520.29 390.933 1519.32 389.2C1518.35 387.433 1517.87 385.217 1517.87 382.55V367.3H1524.12V381.7C1524.12 384.1 1524.65 385.9 1525.72 387.1C1526.82 388.267 1528.37 388.85 1530.37 388.85C1531.84 388.85 1533.1 388.55 1534.17 387.95C1535.27 387.35 1536.12 386.45 1536.72 385.25C1537.35 384.05 1537.67 382.567 1537.67 380.8V367.3H1543.92V394H1537.97V386.8L1539.02 389C1538.12 390.733 1536.8 392.067 1535.07 393C1533.34 393.9 1531.44 394.35 1529.37 394.35Z" fill="black"/>
<path d="M333.134 394.35C330.867 394.35 328.85 393.85 327.084 392.85C325.317 391.85 323.917 390.35 322.884 388.35C321.884 386.317 321.384 383.75 321.384 380.65C321.384 377.517 321.9 374.95 322.934 372.95C324 370.95 325.417 369.467 327.184 368.5C328.984 367.5 330.967 367 333.134 367C335.767 367 338.084 367.567 340.084 368.7C342.117 369.833 343.717 371.417 344.884 373.45C346.084 375.483 346.684 377.883 346.684 380.65C346.684 383.417 346.084 385.817 344.884 387.85C343.717 389.883 342.117 391.483 340.084 392.65C338.084 393.783 335.767 394.35 333.134 394.35ZM318.334 394V356.9H324.584V373.5L324.084 380.6L324.284 387.7V394H318.334ZM332.434 389C333.934 389 335.267 388.667 336.434 388C337.634 387.333 338.584 386.367 339.284 385.1C339.984 383.833 340.334 382.35 340.334 380.65C340.334 378.917 339.984 377.433 339.284 376.2C338.584 374.933 337.634 373.967 336.434 373.3C335.267 372.633 333.934 372.3 332.434 372.3C330.934 372.3 329.584 372.633 328.384 373.3C327.184 373.967 326.234 374.933 325.534 376.2C324.834 377.433 324.484 378.917 324.484 380.65C324.484 382.35 324.834 383.833 325.534 385.1C326.234 386.367 327.184 387.333 328.384 388C329.584 388.667 330.934 389 332.434 389Z" fill="black"/>
<path d="M959.028 394V356.9H965.278V394H959.028Z" fill="black"/>
<path d="M1592.13 394L1580.68 367.3H1587.18L1597.03 390.85H1593.83L1604.03 367.3H1610.03L1598.58 394H1592.13Z" fill="black"/>
<path d="M396.614 394.35C393.814 394.35 391.314 393.767 389.114 392.6C386.947 391.4 385.247 389.767 384.014 387.7C382.78 385.633 382.164 383.283 382.164 380.65C382.164 377.983 382.78 375.633 384.014 373.6C385.247 371.533 386.947 369.917 389.114 368.75C391.314 367.583 393.814 367 396.614 367C399.214 367 401.497 367.533 403.464 368.6C405.464 369.633 406.98 371.167 408.014 373.2L403.214 376C402.414 374.733 401.43 373.8 400.264 373.2C399.13 372.6 397.897 372.3 396.564 372.3C395.03 372.3 393.647 372.633 392.414 373.3C391.18 373.967 390.214 374.933 389.514 376.2C388.814 377.433 388.464 378.917 388.464 380.65C388.464 382.383 388.814 383.883 389.514 385.15C390.214 386.383 391.18 387.333 392.414 388C393.647 388.667 395.03 389 396.564 389C397.897 389 399.13 388.7 400.264 388.1C401.43 387.5 402.414 386.567 403.214 385.3L408.014 388.1C406.98 390.1 405.464 391.65 403.464 392.75C401.497 393.817 399.214 394.35 396.614 394.35Z" fill="black"/>
<path d="M1037.55 367C1039.68 367 1041.56 367.417 1043.2 368.25C1044.86 369.083 1046.16 370.367 1047.1 372.1C1048.03 373.8 1048.5 376 1048.5 378.7V394H1042.25V379.5C1042.25 377.133 1041.73 375.367 1040.7 374.2C1039.66 373.033 1038.18 372.45 1036.25 372.45C1034.88 372.45 1033.66 372.75 1032.6 373.35C1031.56 373.95 1030.75 374.833 1030.15 376C1029.58 377.167 1029.3 378.65 1029.3 380.45V394H1023.05V379.5C1023.05 377.133 1022.53 375.367 1021.5 374.2C1020.46 373.033 1018.98 372.45 1017.05 372.45C1015.68 372.45 1014.46 372.75 1013.4 373.35C1012.36 373.95 1011.55 374.833 1010.95 376C1010.38 377.167 1010.1 378.65 1010.1 380.45V394H1003.85V367.3H1009.8V374.4L1008.75 372.3C1009.65 370.567 1010.95 369.25 1012.65 368.35C1014.38 367.45 1016.35 367 1018.55 367C1021.05 367 1023.21 367.617 1025.05 368.85C1026.91 370.083 1028.15 371.95 1028.75 374.45L1026.3 373.6C1027.16 371.6 1028.6 370 1030.6 368.8C1032.6 367.6 1034.91 367 1037.55 367Z" fill="black"/>
<path d="M1645.34 394L1635.54 367.3H1641.44L1649.84 390.85H1647.04L1655.84 367.3H1661.09L1669.64 390.85H1666.89L1675.54 367.3H1681.09L1671.24 394H1665.24L1657.44 373.15H1659.29L1651.34 394H1645.34Z" fill="black"/>
<path d="M457.91 394.35C455.343 394.35 453.026 393.783 450.96 392.65C448.926 391.483 447.326 389.883 446.16 387.85C444.993 385.817 444.41 383.417 444.41 380.65C444.41 377.883 444.993 375.483 446.16 373.45C447.326 371.417 448.926 369.833 450.96 368.7C453.026 367.567 455.343 367 457.91 367C460.143 367 462.143 367.5 463.91 368.5C465.676 369.467 467.076 370.95 468.11 372.95C469.143 374.95 469.66 377.517 469.66 380.65C469.66 383.75 469.16 386.317 468.16 388.35C467.16 390.35 465.776 391.85 464.01 392.85C462.243 393.85 460.21 394.35 457.91 394.35ZM458.66 389C460.16 389 461.493 388.667 462.66 388C463.86 387.333 464.81 386.367 465.51 385.1C466.243 383.833 466.61 382.35 466.61 380.65C466.61 378.917 466.243 377.433 465.51 376.2C464.81 374.933 463.86 373.967 462.66 373.3C461.493 372.633 460.16 372.3 458.66 372.3C457.16 372.3 455.81 372.633 454.61 373.3C453.443 373.967 452.493 374.933 451.76 376.2C451.06 377.433 450.71 378.917 450.71 380.65C450.71 382.35 451.06 383.833 451.76 385.1C452.493 386.367 453.443 387.333 454.61 388C455.81 388.667 457.16 389 458.66 389ZM466.76 394V387.7L467.01 380.6L466.51 373.5V356.9H472.71V394H466.76Z" fill="black"/>
<path d="M1091.63 367C1093.76 367 1095.66 367.417 1097.33 368.25C1099.03 369.083 1100.36 370.367 1101.33 372.1C1102.29 373.8 1102.78 376 1102.78 378.7V394H1096.53V379.5C1096.53 377.133 1095.96 375.367 1094.83 374.2C1093.73 373.033 1092.18 372.45 1090.18 372.45C1088.71 372.45 1087.41 372.75 1086.28 373.35C1085.14 373.95 1084.26 374.85 1083.63 376.05C1083.03 377.217 1082.73 378.7 1082.73 380.5V394H1076.48V367.3H1082.43V374.5L1081.38 372.3C1082.31 370.6 1083.66 369.3 1085.43 368.4C1087.23 367.467 1089.29 367 1091.63 367Z" fill="black"/>
<path d="M523.707 394.35C520.74 394.35 518.14 393.767 515.907 392.6C513.707 391.4 511.99 389.767 510.757 387.7C509.557 385.633 508.957 383.283 508.957 380.65C508.957 377.983 509.54 375.633 510.707 373.6C511.907 371.533 513.54 369.917 515.607 368.75C517.707 367.583 520.09 367 522.757 367C525.357 367 527.673 367.567 529.707 368.7C531.74 369.833 533.34 371.433 534.507 373.5C535.673 375.567 536.257 378 536.257 380.8C536.257 381.067 536.24 381.367 536.207 381.7C536.207 382.033 536.19 382.35 536.157 382.65H513.907V378.5H532.857L530.407 379.8C530.44 378.267 530.123 376.917 529.457 375.75C528.79 374.583 527.873 373.667 526.707 373C525.573 372.333 524.257 372 522.757 372C521.223 372 519.873 372.333 518.707 373C517.573 373.667 516.673 374.6 516.007 375.8C515.373 376.967 515.057 378.35 515.057 379.95V380.95C515.057 382.55 515.423 383.967 516.157 385.2C516.89 386.433 517.923 387.383 519.257 388.05C520.59 388.717 522.123 389.05 523.857 389.05C525.357 389.05 526.707 388.817 527.907 388.35C529.107 387.883 530.173 387.15 531.107 386.15L534.457 390C533.257 391.4 531.74 392.483 529.907 393.25C528.107 393.983 526.04 394.35 523.707 394.35Z" fill="black"/>
<path d="M1153.87 394.35C1151.13 394.35 1148.7 393.767 1146.57 392.6C1144.43 391.4 1142.75 389.767 1141.52 387.7C1140.28 385.633 1139.67 383.283 1139.67 380.65C1139.67 377.983 1140.28 375.633 1141.52 373.6C1142.75 371.533 1144.43 369.917 1146.57 368.75C1148.7 367.583 1151.13 367 1153.87 367C1156.63 367 1159.08 367.583 1161.22 368.75C1163.38 369.917 1165.07 371.517 1166.27 373.55C1167.5 375.583 1168.12 377.95 1168.12 380.65C1168.12 383.283 1167.5 385.633 1166.27 387.7C1165.07 389.767 1163.38 391.4 1161.22 392.6C1159.08 393.767 1156.63 394.35 1153.87 394.35ZM1153.87 389C1155.4 389 1156.77 388.667 1157.97 388C1159.17 387.333 1160.1 386.367 1160.77 385.1C1161.47 383.833 1161.82 382.35 1161.82 380.65C1161.82 378.917 1161.47 377.433 1160.77 376.2C1160.1 374.933 1159.17 373.967 1157.97 373.3C1156.77 372.633 1155.42 372.3 1153.92 372.3C1152.38 372.3 1151.02 372.633 1149.82 373.3C1148.65 373.967 1147.72 374.933 1147.02 376.2C1146.32 377.433 1145.97 378.917 1145.97 380.65C1145.97 382.35 1146.32 383.833 1147.02 385.1C1147.72 386.367 1148.65 387.333 1149.82 388C1151.02 388.667 1152.37 389 1153.87 389Z" fill="black"/>
<path d="M583.217 394V365.8C583.217 363 584.034 360.767 585.667 359.1C587.334 357.4 589.7 356.55 592.767 356.55C593.867 356.55 594.9 356.667 595.867 356.9C596.867 357.133 597.7 357.5 598.367 358L596.667 362.7C596.2 362.333 595.667 362.067 595.067 361.9C594.467 361.7 593.85 361.6 593.217 361.6C591.917 361.6 590.934 361.967 590.267 362.7C589.6 363.4 589.267 364.467 589.267 365.9V368.9L589.467 371.7V394H583.217ZM578.817 372.5V367.5H596.617V372.5H578.817Z" fill="black"/>
<path d="M1219.55 394.35C1217.38 394.35 1215.4 393.85 1213.6 392.85C1211.83 391.85 1210.42 390.35 1209.35 388.35C1208.32 386.317 1207.8 383.75 1207.8 380.65C1207.8 377.517 1208.3 374.95 1209.3 372.95C1210.33 370.95 1211.73 369.467 1213.5 368.5C1215.27 367.5 1217.28 367 1219.55 367C1222.18 367 1224.5 367.567 1226.5 368.7C1228.53 369.833 1230.13 371.417 1231.3 373.45C1232.5 375.483 1233.1 377.883 1233.1 380.65C1233.1 383.417 1232.5 385.833 1231.3 387.9C1230.13 389.933 1228.53 391.517 1226.5 392.65C1224.5 393.783 1222.18 394.35 1219.55 394.35ZM1204.75 403.7V367.3H1210.7V373.6L1210.5 380.7L1211 387.8V403.7H1204.75ZM1218.85 389C1220.35 389 1221.68 388.667 1222.85 388C1224.05 387.333 1225 386.367 1225.7 385.1C1226.4 383.833 1226.75 382.35 1226.75 380.65C1226.75 378.917 1226.4 377.433 1225.7 376.2C1225 374.933 1224.05 373.967 1222.85 373.3C1221.68 372.633 1220.35 372.3 1218.85 372.3C1217.35 372.3 1216 372.633 1214.8 373.3C1213.6 373.967 1212.65 374.933 1211.95 376.2C1211.25 377.433 1210.9 378.917 1210.9 380.65C1210.9 382.35 1211.25 383.833 1211.95 385.1C1212.65 386.367 1213.6 387.333 1214.8 388C1216 388.667 1217.35 389 1218.85 389Z" fill="black"/>
<path d="M649.757 404.05C647.291 404.05 644.874 403.717 642.507 403.05C640.174 402.417 638.257 401.483 636.757 400.25L639.557 395.55C640.724 396.517 642.191 397.283 643.957 397.85C645.757 398.45 647.574 398.75 649.407 398.75C652.341 398.75 654.491 398.067 655.857 396.7C657.224 395.367 657.907 393.35 657.907 390.65V385.9L658.407 379.85L658.207 373.8V367.3H664.157V389.95C664.157 394.783 662.924 398.333 660.457 400.6C657.991 402.9 654.424 404.05 649.757 404.05ZM648.957 392.8C646.424 392.8 644.124 392.267 642.057 391.2C640.024 390.1 638.407 388.583 637.207 386.65C636.041 384.717 635.457 382.45 635.457 379.85C635.457 377.283 636.041 375.033 637.207 373.1C638.407 371.167 640.024 369.667 642.057 368.6C644.124 367.533 646.424 367 648.957 367C651.224 367 653.257 367.45 655.057 368.35C656.857 369.25 658.291 370.65 659.357 372.55C660.457 374.45 661.007 376.883 661.007 379.85C661.007 382.817 660.457 385.267 659.357 387.2C658.291 389.1 656.857 390.517 655.057 391.45C653.257 392.35 651.224 392.8 648.957 392.8ZM649.907 387.5C651.474 387.5 652.874 387.183 654.107 386.55C655.341 385.883 656.291 384.983 656.957 383.85C657.657 382.683 658.007 381.35 658.007 379.85C658.007 378.35 657.657 377.033 656.957 375.9C656.291 374.733 655.341 373.85 654.107 373.25C652.874 372.617 651.474 372.3 649.907 372.3C648.341 372.3 646.924 372.617 645.657 373.25C644.424 373.85 643.457 374.733 642.757 375.9C642.091 377.033 641.757 378.35 641.757 379.85C641.757 381.35 642.091 382.683 642.757 383.85C643.457 384.983 644.424 385.883 645.657 386.55C646.924 387.183 648.341 387.5 649.907 387.5Z" fill="black"/>
<path d="M1279.96 394.35C1277.4 394.35 1275.08 393.783 1273.01 392.65C1270.98 391.517 1269.38 389.933 1268.21 387.9C1267.05 385.833 1266.46 383.417 1266.46 380.65C1266.46 377.883 1267.05 375.483 1268.21 373.45C1269.38 371.417 1270.98 369.833 1273.01 368.7C1275.08 367.567 1277.4 367 1279.96 367C1282.26 367 1284.28 367.5 1286.01 368.5C1287.78 369.467 1289.16 370.95 1290.16 372.95C1291.2 374.95 1291.71 377.517 1291.71 380.65C1291.71 383.75 1291.18 386.317 1290.11 388.35C1289.08 390.35 1287.68 391.85 1285.91 392.85C1284.15 393.85 1282.16 394.35 1279.96 394.35ZM1280.66 389C1282.16 389 1283.51 388.667 1284.71 388C1285.91 387.333 1286.86 386.367 1287.56 385.1C1288.26 383.833 1288.61 382.35 1288.61 380.65C1288.61 378.917 1288.26 377.433 1287.56 376.2C1286.86 374.933 1285.91 373.967 1284.71 373.3C1283.51 372.633 1282.16 372.3 1280.66 372.3C1279.16 372.3 1277.81 372.633 1276.61 373.3C1275.45 373.967 1274.51 374.933 1273.81 376.2C1273.11 377.433 1272.76 378.917 1272.76 380.65C1272.76 382.35 1273.11 383.833 1273.81 385.1C1274.51 386.367 1275.45 387.333 1276.61 388C1277.81 388.667 1279.16 389 1280.66 389ZM1288.51 403.7V387.8L1289.01 380.7L1288.81 373.6V367.3H1294.76V403.7H1288.51Z" fill="black"/>
<path d="M717.442 367C719.575 367 721.475 367.417 723.142 368.25C724.842 369.083 726.175 370.367 727.142 372.1C728.109 373.8 728.592 376 728.592 378.7V394H722.342V379.5C722.342 377.133 721.775 375.367 720.642 374.2C719.542 373.033 717.992 372.45 715.992 372.45C714.525 372.45 713.225 372.75 712.092 373.35C710.959 373.95 710.075 374.85 709.442 376.05C708.842 377.217 708.542 378.7 708.542 380.5V394H702.292V356.9H708.542V374.5L707.192 372.3C708.125 370.6 709.475 369.3 711.242 368.4C713.042 367.467 715.109 367 717.442 367Z" fill="black"/>
<path d="M1338.72 394V367.3H1344.67V374.65L1343.97 372.5C1344.77 370.7 1346.02 369.333 1347.72 368.4C1349.45 367.467 1351.6 367 1354.17 367V372.95C1353.9 372.883 1353.65 372.85 1353.42 372.85C1353.18 372.817 1352.95 372.8 1352.72 372.8C1350.35 372.8 1348.47 373.5 1347.07 374.9C1345.67 376.267 1344.97 378.317 1344.97 381.05V394H1338.72Z" fill="black"/>
<path d="M776.087 394V367.3H782.337V394H776.087ZM779.237 362.9C778.07 362.9 777.104 362.533 776.337 361.8C775.604 361.067 775.237 360.183 775.237 359.15C775.237 358.083 775.604 357.2 776.337 356.5C777.104 355.767 778.07 355.4 779.237 355.4C780.404 355.4 781.354 355.75 782.087 356.45C782.854 357.117 783.237 357.967 783.237 359C783.237 360.1 782.87 361.033 782.137 361.8C781.404 362.533 780.437 362.9 779.237 362.9Z" fill="black"/>
<path d="M1408.02 394.35C1405.79 394.35 1403.64 394.067 1401.57 393.5C1399.54 392.9 1397.92 392.183 1396.72 391.35L1399.12 386.6C1400.32 387.367 1401.75 388 1403.42 388.5C1405.09 389 1406.75 389.25 1408.42 389.25C1410.39 389.25 1411.8 388.983 1412.67 388.45C1413.57 387.917 1414.02 387.2 1414.02 386.3C1414.02 385.567 1413.72 385.017 1413.12 384.65C1412.52 384.25 1411.74 383.95 1410.77 383.75C1409.8 383.55 1408.72 383.367 1407.52 383.2C1406.35 383.033 1405.17 382.817 1403.97 382.55C1402.8 382.25 1401.74 381.833 1400.77 381.3C1399.8 380.733 1399.02 379.983 1398.42 379.05C1397.82 378.117 1397.52 376.883 1397.52 375.35C1397.52 373.65 1398 372.183 1398.97 370.95C1399.94 369.683 1401.29 368.717 1403.02 368.05C1404.79 367.35 1406.87 367 1409.27 367C1411.07 367 1412.89 367.2 1414.72 367.6C1416.55 368 1418.07 368.567 1419.27 369.3L1416.87 374.05C1415.6 373.283 1414.32 372.767 1413.02 372.5C1411.75 372.2 1410.49 372.05 1409.22 372.05C1407.32 372.05 1405.9 372.333 1404.97 372.9C1404.07 373.467 1403.62 374.183 1403.62 375.05C1403.62 375.85 1403.92 376.45 1404.52 376.85C1405.12 377.25 1405.9 377.567 1406.87 377.8C1407.84 378.033 1408.9 378.233 1410.07 378.4C1411.27 378.533 1412.45 378.75 1413.62 379.05C1414.79 379.35 1415.85 379.767 1416.82 380.3C1417.82 380.8 1418.62 381.517 1419.22 382.45C1419.82 383.383 1420.12 384.6 1420.12 386.1C1420.12 387.767 1419.62 389.217 1418.62 390.45C1417.65 391.683 1416.27 392.65 1414.47 393.35C1412.67 394.017 1410.52 394.35 1408.02 394.35Z" fill="black"/>
<path d="M836.611 404.05C835.445 404.05 834.345 403.917 833.311 403.65C832.245 403.417 831.345 403.033 830.611 402.5L832.411 397.85C833.378 398.55 834.595 398.9 836.061 398.9C837.195 398.9 838.078 398.533 838.711 397.8C839.345 397.1 839.661 396.05 839.661 394.65V367.3H845.911V394.5C845.911 397.433 845.095 399.75 843.461 401.45C841.861 403.183 839.578 404.05 836.611 404.05ZM842.761 362.9C841.595 362.9 840.628 362.533 839.861 361.8C839.128 361.067 838.761 360.183 838.761 359.15C838.761 358.083 839.128 357.2 839.861 356.5C840.628 355.767 841.595 355.4 842.761 355.4C843.928 355.4 844.878 355.75 845.611 356.45C846.378 357.117 846.761 357.967 846.761 359C846.761 360.1 846.395 361.033 845.661 361.8C844.928 362.533 843.961 362.9 842.761 362.9Z" fill="black"/>
<path d="M1476 394.35C1473.07 394.35 1470.8 393.6 1469.2 392.1C1467.6 390.567 1466.8 388.317 1466.8 385.35V361.4H1473.05V385.2C1473.05 386.467 1473.37 387.45 1474 388.15C1474.67 388.85 1475.58 389.2 1476.75 389.2C1478.15 389.2 1479.32 388.833 1480.25 388.1L1482 392.55C1481.27 393.15 1480.37 393.6 1479.3 393.9C1478.23 394.2 1477.13 394.35 1476 394.35ZM1462.4 372.5V367.5H1480.2V372.5H1462.4Z" fill="black"/>
<path d="M852.719 562.35L846.019 566.05V564.95L852.719 568.65L850.769 572.05L844.319 568.3L844.969 567.95L845.019 575.1H841.219L841.269 567.95L841.919 568.3L835.519 572.05L833.519 568.65L840.269 564.95V566.05L833.519 562.35L835.519 558.9L841.919 562.7L841.269 563.1L841.219 555.9H845.019L844.969 563.1L844.319 562.7L850.769 558.9L852.719 562.35Z" fill="black"/>
<path d="M1097.92 571.85L1097.52 558H1102.92L1102.47 571.85H1097.92Z" fill="black"/>
<path d="M1150.66 571.85L1150.26 558H1155.66L1155.21 571.85H1150.66ZM1160.31 571.85L1159.91 558H1165.31L1164.86 571.85H1160.31Z" fill="black"/>
<path d="M1466.84 600.55L1469.74 589.5L1470.59 593.2C1469.42 593.2 1468.44 592.85 1467.64 592.15C1466.87 591.417 1466.49 590.433 1466.49 589.2C1466.49 587.933 1466.87 586.933 1467.64 586.2C1468.44 585.433 1469.41 585.05 1470.54 585.05C1471.71 585.05 1472.67 585.433 1473.44 586.2C1474.21 586.967 1474.59 587.967 1474.59 589.2C1474.59 589.533 1474.56 589.9 1474.49 590.3C1474.42 590.667 1474.31 591.1 1474.14 591.6C1474.01 592.1 1473.77 592.733 1473.44 593.5L1470.89 600.55H1466.84Z" fill="black"/>
<path d="M646.353 581.3V575.85H655.353C658.453 575.85 660.67 575.2 662.003 573.9C663.37 572.6 664.053 571.017 664.053 569.15C664.053 566.783 663.303 564.917 661.803 563.55C660.337 562.15 658.037 561.467 654.903 561.5H643.403V558H675.253V561.5H662.653L664.453 559.65C666.687 560.617 668.27 561.983 669.203 563.75C670.137 565.483 670.603 567.383 670.603 569.45C670.603 571.917 670.003 574.05 668.803 575.85C667.603 577.617 665.903 578.967 663.703 579.9C661.503 580.833 658.853 581.3 655.753 581.3H646.353ZM664.253 593L655.103 579H662.053L671.253 593H664.253ZM643.403 568.45V564.95H675.253V568.45H643.403Z" fill="black"/>
<path d="M704.317 593L728.217 558H733.117L709.217 593H704.317ZM707.217 576.85C705.583 576.85 704.133 576.45 702.867 575.65C701.6 574.85 700.617 573.733 699.917 572.3C699.217 570.867 698.867 569.183 698.867 567.25C698.867 565.317 699.217 563.633 699.917 562.2C700.617 560.767 701.6 559.65 702.867 558.85C704.133 558.05 705.583 557.65 707.217 557.65C708.917 557.65 710.383 558.05 711.617 558.85C712.883 559.65 713.867 560.767 714.567 562.2C715.267 563.633 715.617 565.317 715.617 567.25C715.617 569.183 715.267 570.867 714.567 572.3C713.867 573.733 712.883 574.85 711.617 575.65C710.383 576.45 708.917 576.85 707.217 576.85ZM707.267 573.35C708.6 573.35 709.633 572.833 710.367 571.8C711.133 570.733 711.517 569.217 711.517 567.25C711.517 565.283 711.133 563.783 710.367 562.75C709.633 561.683 708.6 561.15 707.267 561.15C705.933 561.15 704.867 561.683 704.067 562.75C703.3 563.817 702.917 565.317 702.917 567.25C702.917 569.183 703.3 570.683 704.067 571.75C704.867 572.817 705.933 573.35 707.267 573.35ZM730.167 593.35C728.533 593.35 727.083 592.95 725.817 592.15C724.55 591.35 723.567 590.233 722.867 588.8C722.167 587.367 721.817 585.683 721.817 583.75C721.817 581.817 722.167 580.133 722.867 578.7C723.567 577.267 724.55 576.15 725.817 575.35C727.083 574.55 728.533 574.15 730.167 574.15C731.867 574.15 733.333 574.55 734.567 575.35C735.833 576.15 736.817 577.267 737.517 578.7C738.217 580.133 738.567 581.817 738.567 583.75C738.567 585.683 738.217 587.367 737.517 588.8C736.817 590.233 735.833 591.35 734.567 592.15C733.333 592.95 731.867 593.35 730.167 593.35ZM730.167 589.85C731.5 589.85 732.55 589.317 733.317 588.25C734.083 587.183 734.467 585.683 734.467 583.75C734.467 581.817 734.083 580.317 733.317 579.25C732.55 578.183 731.5 577.65 730.167 577.65C728.867 577.65 727.817 578.183 727.017 579.25C726.25 580.283 725.867 581.783 725.867 583.75C725.867 585.717 726.25 587.233 727.017 588.3C727.817 589.333 728.867 589.85 730.167 589.85Z" fill="black"/>
<path d="M785.634 593.5C783.2 593.5 781.017 593.1 779.084 592.3C777.15 591.5 775.634 590.4 774.534 589C773.434 587.6 772.884 585.983 772.884 584.15C772.884 582.483 773.25 580.983 773.984 579.65C774.717 578.317 775.884 577.05 777.484 575.85C779.084 574.617 781.134 573.383 783.634 572.15C785.6 571.183 787.134 570.333 788.234 569.6C789.367 568.867 790.15 568.167 790.584 567.5C791.05 566.833 791.284 566.133 791.284 565.4C791.284 564.4 790.934 563.6 790.234 563C789.534 562.367 788.534 562.05 787.234 562.05C785.834 562.05 784.734 562.4 783.934 563.1C783.167 563.767 782.784 564.65 782.784 565.75C782.784 566.317 782.884 566.867 783.084 567.4C783.317 567.933 783.717 568.533 784.284 569.2C784.85 569.867 785.667 570.717 786.734 571.75L805.234 589.5L801.784 593.55L781.784 574.35C780.65 573.25 779.734 572.233 779.034 571.3C778.334 570.367 777.834 569.467 777.534 568.6C777.234 567.7 777.084 566.783 777.084 565.85C777.084 564.217 777.5 562.783 778.334 561.55C779.167 560.283 780.35 559.317 781.884 558.65C783.417 557.95 785.2 557.6 787.234 557.6C789.134 557.6 790.767 557.917 792.134 558.55C793.534 559.15 794.617 560.033 795.384 561.2C796.184 562.333 796.584 563.7 796.584 565.3C796.584 566.7 796.234 568 795.534 569.2C794.834 570.367 793.734 571.483 792.234 572.55C790.767 573.617 788.8 574.733 786.334 575.9C784.5 576.8 783.05 577.65 781.984 578.45C780.917 579.25 780.15 580.05 779.684 580.85C779.217 581.65 778.984 582.533 778.984 583.5C778.984 584.467 779.267 585.317 779.834 586.05C780.434 586.783 781.267 587.367 782.334 587.8C783.4 588.2 784.65 588.4 786.084 588.4C788.217 588.4 790.15 587.933 791.884 587C793.65 586.033 795.134 584.6 796.334 582.7C797.534 580.8 798.4 578.45 798.934 575.65L803.984 577.3C803.284 580.667 802.067 583.567 800.334 586C798.634 588.4 796.534 590.25 794.034 591.55C791.534 592.85 788.734 593.5 785.634 593.5Z" fill="black"/>
<path d="M460.631 581.4L459.431 558H466.831L465.581 581.4H460.631ZM463.131 593.35C461.964 593.35 460.997 592.967 460.231 592.2C459.464 591.433 459.081 590.517 459.081 589.45C459.081 588.383 459.464 587.483 460.231 586.75C460.997 585.983 461.964 585.6 463.131 585.6C464.297 585.6 465.247 585.983 465.981 586.75C466.714 587.483 467.081 588.383 467.081 589.45C467.081 590.517 466.714 591.433 465.981 592.2C465.247 592.967 464.297 593.35 463.131 593.35Z" fill="black"/>
<path d="M900.86 602.7C898.893 599.667 897.376 596.167 896.31 592.2C895.276 588.2 894.76 583.9 894.76 579.3C894.76 574.7 895.276 570.4 896.31 566.4C897.376 562.367 898.893 558.867 900.86 555.9H906.81C904.776 559.567 903.276 563.317 902.31 567.15C901.376 570.95 900.91 575 900.91 579.3C900.91 583.6 901.376 587.667 902.31 591.5C903.276 595.3 904.776 599.033 906.81 602.7H900.86Z" fill="black"/>
<path d="M527.532 603.2C523.999 603.2 520.782 602.633 517.882 601.5C514.982 600.367 512.482 598.767 510.382 596.7C508.282 594.633 506.666 592.217 505.532 589.45C504.399 586.65 503.832 583.6 503.832 580.3C503.832 577 504.399 573.967 505.532 571.2C506.666 568.433 508.282 566.033 510.382 564C512.516 561.967 515.049 560.383 517.982 559.25C520.916 558.117 524.166 557.55 527.732 557.55C531.166 557.55 534.316 558.1 537.182 559.2C540.049 560.267 542.516 561.783 544.582 563.75C546.682 565.683 548.299 567.983 549.432 570.65C550.599 573.317 551.182 576.25 551.182 579.45C551.182 582.317 550.799 584.8 550.032 586.9C549.266 588.967 548.166 590.55 546.732 591.65C545.332 592.75 543.616 593.3 541.582 593.3C539.516 593.3 537.866 592.683 536.632 591.45C535.432 590.217 534.832 588.433 534.832 586.1V583.25L535.032 580.4L534.582 573.9V568.2H540.132V585.2C540.132 586.467 540.382 587.367 540.882 587.9C541.416 588.4 542.032 588.65 542.732 588.65C543.632 588.65 544.399 588.3 545.032 587.6C545.666 586.9 546.132 585.867 546.432 584.5C546.766 583.133 546.932 581.483 546.932 579.55C546.932 576.883 546.466 574.45 545.532 572.25C544.632 570.05 543.316 568.167 541.582 566.6C539.882 565 537.849 563.783 535.482 562.95C533.149 562.083 530.566 561.65 527.732 561.65C524.832 561.65 522.199 562.117 519.832 563.05C517.466 563.95 515.432 565.233 513.732 566.9C512.032 568.567 510.716 570.55 509.782 572.85C508.882 575.117 508.432 577.6 508.432 580.3C508.432 583.067 508.882 585.6 509.782 587.9C510.682 590.2 511.966 592.167 513.632 593.8C515.332 595.467 517.349 596.75 519.682 597.65C522.016 598.583 524.632 599.05 527.532 599.05C529.066 599.05 530.682 598.867 532.382 598.5C534.082 598.167 535.699 597.617 537.232 596.85L538.582 600.85C537.049 601.617 535.282 602.2 533.282 602.6C531.282 603 529.366 603.2 527.532 603.2ZM526.232 593.3C523.932 593.3 521.882 592.767 520.082 591.7C518.282 590.6 516.849 589.1 515.782 587.2C514.749 585.267 514.232 583.05 514.232 580.55C514.232 578.083 514.749 575.9 515.782 574C516.816 572.067 518.232 570.567 520.032 569.5C521.866 568.433 523.932 567.9 526.232 567.9C528.466 567.9 530.416 568.4 532.082 569.4C533.749 570.367 535.049 571.783 535.982 573.65C536.916 575.517 537.382 577.817 537.382 580.55C537.382 583.283 536.932 585.6 536.032 587.5C535.132 589.4 533.849 590.85 532.182 591.85C530.516 592.817 528.532 593.3 526.232 593.3ZM527.282 588.45C528.716 588.45 529.982 588.15 531.082 587.55C532.182 586.917 533.049 586 533.682 584.8C534.349 583.6 534.682 582.183 534.682 580.55C534.682 578.883 534.349 577.483 533.682 576.35C533.049 575.183 532.182 574.3 531.082 573.7C529.982 573.067 528.716 572.75 527.282 572.75C525.816 572.75 524.516 573.067 523.382 573.7C522.282 574.333 521.416 575.233 520.782 576.4C520.182 577.567 519.882 578.95 519.882 580.55C519.882 582.183 520.182 583.583 520.782 584.75C521.416 585.917 522.282 586.833 523.382 587.5C524.516 588.133 525.816 588.45 527.282 588.45Z" fill="black"/>
<path d="M965.394 602.7H959.444C961.511 599.033 963.011 595.3 963.944 591.5C964.911 587.667 965.394 583.6 965.394 579.3C965.394 575 964.911 570.95 963.944 567.15C963.011 563.317 961.511 559.567 959.444 555.9H965.394C967.394 558.867 968.911 562.367 969.944 566.4C970.977 570.4 971.494 574.7 971.494 579.3C971.494 583.9 970.977 588.2 969.944 592.2C968.911 596.167 967.394 599.667 965.394 602.7Z" fill="black"/>
<path d="M596.398 593L600.698 558H605.248L600.948 593H596.398ZM577.698 584.5V579.95H609.298V584.5H577.698ZM583.398 593L587.748 558H592.298L587.948 593H583.398ZM579.398 571.05V566.5H610.898L610.948 571.05H579.398Z" fill="black"/>
<path d="M1018.22 581.7V576.5H1031.97V581.7H1018.22Z" fill="black"/>
<path d="M1223.15 574.3C1222.02 574.3 1221.05 573.917 1220.25 573.15C1219.45 572.35 1219.05 571.35 1219.05 570.15C1219.05 568.883 1219.45 567.883 1220.25 567.15C1221.05 566.383 1222.02 566 1223.15 566C1224.28 566 1225.25 566.383 1226.05 567.15C1226.85 567.883 1227.25 568.883 1227.25 570.15C1227.25 571.35 1226.85 572.35 1226.05 573.15C1225.25 573.917 1224.28 574.3 1223.15 574.3ZM1223.15 593.35C1222.02 593.35 1221.05 592.967 1220.25 592.2C1219.45 591.4 1219.05 590.4 1219.05 589.2C1219.05 587.933 1219.45 586.933 1220.25 586.2C1221.05 585.433 1222.02 585.05 1223.15 585.05C1224.28 585.05 1225.25 585.433 1226.05 586.2C1226.85 586.933 1227.25 587.933 1227.25 589.2C1227.25 590.4 1226.85 591.4 1226.05 592.2C1225.25 592.967 1224.28 593.35 1223.15 593.35Z" fill="black"/>
<path d="M1285.59 574.3C1284.46 574.3 1283.49 573.917 1282.69 573.15C1281.89 572.35 1281.49 571.35 1281.49 570.15C1281.49 568.883 1281.89 567.883 1282.69 567.15C1283.49 566.383 1284.46 566 1285.59 566C1286.73 566 1287.69 566.383 1288.49 567.15C1289.29 567.883 1289.69 568.883 1289.69 570.15C1289.69 571.35 1289.29 572.35 1288.49 573.15C1287.69 573.917 1286.73 574.3 1285.59 574.3ZM1281.94 600.55L1284.84 589.5L1285.69 593.2C1284.53 593.2 1283.54 592.85 1282.74 592.15C1281.98 591.417 1281.59 590.433 1281.59 589.2C1281.59 587.933 1281.98 586.933 1282.74 586.2C1283.54 585.433 1284.51 585.05 1285.64 585.05C1286.81 585.05 1287.78 585.433 1288.54 586.2C1289.31 586.967 1289.69 587.967 1289.69 589.2C1289.69 589.533 1289.66 589.9 1289.59 590.3C1289.53 590.667 1289.41 591.1 1289.24 591.6C1289.11 592.1 1288.88 592.733 1288.54 593.5L1285.99 600.55H1281.94Z" fill="black"/>
<path d="M1346.08 581.4C1346.08 580.167 1346.28 579.083 1346.68 578.15C1347.08 577.217 1347.59 576.383 1348.23 575.65C1348.86 574.917 1349.53 574.233 1350.23 573.6C1350.96 572.967 1351.64 572.35 1352.28 571.75C1352.91 571.15 1353.43 570.517 1353.83 569.85C1354.23 569.183 1354.43 568.433 1354.43 567.6C1354.43 566.2 1353.86 565.067 1352.73 564.2C1351.59 563.333 1350.08 562.9 1348.18 562.9C1346.34 562.9 1344.74 563.233 1343.38 563.9C1342.04 564.567 1340.93 565.517 1340.03 566.75L1335.18 563.6C1336.58 561.7 1338.41 560.217 1340.68 559.15C1342.94 558.05 1345.63 557.5 1348.73 557.5C1351.16 557.5 1353.29 557.867 1355.13 558.6C1356.96 559.3 1358.39 560.333 1359.43 561.7C1360.46 563.033 1360.98 564.667 1360.98 566.6C1360.98 567.933 1360.76 569.1 1360.33 570.1C1359.93 571.1 1359.39 571.983 1358.73 572.75C1358.09 573.483 1357.41 574.183 1356.68 574.85C1355.94 575.483 1355.24 576.117 1354.58 576.75C1353.94 577.383 1353.43 578.067 1353.03 578.8C1352.63 579.533 1352.43 580.4 1352.43 581.4H1346.08ZM1349.28 593.35C1348.11 593.35 1347.14 592.967 1346.38 592.2C1345.64 591.433 1345.28 590.517 1345.28 589.45C1345.28 588.383 1345.64 587.483 1346.38 586.75C1347.14 585.983 1348.11 585.6 1349.28 585.6C1350.44 585.6 1351.39 585.983 1352.13 586.75C1352.86 587.483 1353.23 588.383 1353.23 589.45C1353.23 590.517 1352.86 591.433 1352.13 592.2C1351.39 592.967 1350.44 593.35 1349.28 593.35Z" fill="black"/>
<path d="M1413.41 593.35C1412.28 593.35 1411.31 592.967 1410.51 592.2C1409.71 591.4 1409.31 590.4 1409.31 589.2C1409.31 587.933 1409.71 586.933 1410.51 586.2C1411.31 585.433 1412.28 585.05 1413.41 585.05C1414.55 585.05 1415.51 585.433 1416.31 586.2C1417.11 586.933 1417.51 587.933 1417.51 589.2C1417.51 590.4 1417.11 591.4 1416.31 592.2C1415.51 592.967 1414.55 593.35 1413.41 593.35Z" fill="black"/>
<path d="M899.268 685.6C896.468 685.6 893.785 685.233 891.218 684.5C888.651 683.733 886.585 682.75 885.018 681.55L887.768 675.45C889.268 676.517 891.035 677.4 893.068 678.1C895.135 678.767 897.218 679.1 899.318 679.1C900.918 679.1 902.201 678.95 903.168 678.65C904.168 678.317 904.901 677.867 905.368 677.3C905.835 676.733 906.068 676.083 906.068 675.35C906.068 674.417 905.701 673.683 904.968 673.15C904.235 672.583 903.268 672.133 902.068 671.8C900.868 671.433 899.535 671.1 898.068 670.8C896.635 670.467 895.185 670.067 893.718 669.6C892.285 669.133 890.968 668.533 889.768 667.8C888.568 667.067 887.585 666.1 886.818 664.9C886.085 663.7 885.718 662.167 885.718 660.3C885.718 658.3 886.251 656.483 887.318 654.85C888.418 653.183 890.051 651.867 892.218 650.9C894.418 649.9 897.168 649.4 900.468 649.4C902.668 649.4 904.835 649.667 906.968 650.2C909.101 650.7 910.985 651.467 912.618 652.5L910.118 658.65C908.485 657.717 906.851 657.033 905.218 656.6C903.585 656.133 901.985 655.9 900.418 655.9C898.851 655.9 897.568 656.083 896.568 656.45C895.568 656.817 894.851 657.3 894.418 657.9C893.985 658.467 893.768 659.133 893.768 659.9C893.768 660.8 894.135 661.533 894.868 662.1C895.601 662.633 896.568 663.067 897.768 663.4C898.968 663.733 900.285 664.067 901.718 664.4C903.185 664.733 904.635 665.117 906.068 665.55C907.535 665.983 908.868 666.567 910.068 667.3C911.268 668.033 912.235 669 912.968 670.2C913.735 671.4 914.118 672.917 914.118 674.75C914.118 676.717 913.568 678.517 912.468 680.15C911.368 681.783 909.718 683.1 907.518 684.1C905.351 685.1 902.601 685.6 899.268 685.6ZM935.003 685.4C932.736 685.4 930.753 684.9 929.053 683.9C927.353 682.9 926.02 681.383 925.053 679.35C924.12 677.283 923.653 674.683 923.653 671.55C923.653 668.383 924.103 665.783 925.003 663.75C925.903 661.717 927.203 660.2 928.903 659.2C930.603 658.2 932.636 657.7 935.003 657.7C937.536 657.7 939.803 658.283 941.803 659.45C943.836 660.583 945.436 662.183 946.603 664.25C947.803 666.317 948.403 668.75 948.403 671.55C948.403 674.383 947.803 676.833 946.603 678.9C945.436 680.967 943.836 682.567 941.803 683.7C939.803 684.833 937.536 685.4 935.003 685.4ZM919.103 694.7V658.1H926.553V663.6L926.403 671.6L926.903 679.55V694.7H919.103ZM933.653 679C934.953 679 936.103 678.7 937.103 678.1C938.136 677.5 938.953 676.65 939.553 675.55C940.186 674.417 940.503 673.083 940.503 671.55C940.503 669.983 940.186 668.65 939.553 667.55C938.953 666.45 938.136 665.6 937.103 665C936.103 664.4 934.953 664.1 933.653 664.1C932.353 664.1 931.186 664.4 930.153 665C929.12 665.6 928.303 666.45 927.703 667.55C927.103 668.65 926.803 669.983 926.803 671.55C926.803 673.083 927.103 674.417 927.703 675.55C928.303 676.65 929.12 677.5 930.153 678.1C931.186 678.7 932.353 679 933.653 679ZM969.685 685V679.75L969.185 678.6V669.2C969.185 667.533 968.668 666.233 967.635 665.3C966.635 664.367 965.085 663.9 962.985 663.9C961.552 663.9 960.135 664.133 958.735 664.6C957.368 665.033 956.202 665.633 955.235 666.4L952.435 660.95C953.902 659.917 955.668 659.117 957.735 658.55C959.802 657.983 961.902 657.7 964.035 657.7C968.135 657.7 971.318 658.667 973.585 660.6C975.852 662.533 976.985 665.55 976.985 669.65V685H969.685ZM961.485 685.4C959.385 685.4 957.585 685.05 956.085 684.35C954.585 683.617 953.435 682.633 952.635 681.4C951.835 680.167 951.435 678.783 951.435 677.25C951.435 675.65 951.818 674.25 952.585 673.05C953.385 671.85 954.635 670.917 956.335 670.25C958.035 669.55 960.252 669.2 962.985 669.2H970.135V673.75H963.835C962.002 673.75 960.735 674.05 960.035 674.65C959.368 675.25 959.035 676 959.035 676.9C959.035 677.9 959.418 678.7 960.185 679.3C960.985 679.867 962.068 680.15 963.435 680.15C964.735 680.15 965.902 679.85 966.935 679.25C967.968 678.617 968.718 677.7 969.185 676.5L970.385 680.1C969.818 681.833 968.785 683.15 967.285 684.05C965.785 684.95 963.852 685.4 961.485 685.4ZM997.24 685.4C994.34 685.4 991.756 684.817 989.49 683.65C987.223 682.45 985.44 680.8 984.14 678.7C982.873 676.6 982.24 674.217 982.24 671.55C982.24 668.85 982.873 666.467 984.14 664.4C985.44 662.3 987.223 660.667 989.49 659.5C991.756 658.3 994.34 657.7 997.24 657.7C1000.07 657.7 1002.54 658.3 1004.64 659.5C1006.74 660.667 1008.29 662.35 1009.29 664.55L1003.24 667.8C1002.54 666.533 1001.66 665.6 1000.59 665C999.556 664.4 998.423 664.1 997.19 664.1C995.856 664.1 994.656 664.4 993.59 665C992.523 665.6 991.673 666.45 991.04 667.55C990.44 668.65 990.14 669.983 990.14 671.55C990.14 673.117 990.44 674.45 991.04 675.55C991.673 676.65 992.523 677.5 993.59 678.1C994.656 678.7 995.856 679 997.19 679C998.423 679 999.556 678.717 1000.59 678.15C1001.66 677.55 1002.54 676.6 1003.24 675.3L1009.29 678.6C1008.29 680.767 1006.74 682.45 1004.64 683.65C1002.54 684.817 1000.07 685.4 997.24 685.4ZM1026.79 685.4C1023.72 685.4 1021.02 684.8 1018.69 683.6C1016.39 682.4 1014.61 680.767 1013.34 678.7C1012.07 676.6 1011.44 674.217 1011.44 671.55C1011.44 668.85 1012.06 666.467 1013.29 664.4C1014.56 662.3 1016.27 660.667 1018.44 659.5C1020.61 658.3 1023.06 657.7 1025.79 657.7C1028.42 657.7 1030.79 658.267 1032.89 659.4C1035.02 660.5 1036.71 662.1 1037.94 664.2C1039.17 666.267 1039.79 668.75 1039.79 671.65C1039.79 671.95 1039.77 672.3 1039.74 672.7C1039.71 673.067 1039.67 673.417 1039.64 673.75H1017.79V669.2H1035.54L1032.54 670.55C1032.54 669.15 1032.26 667.933 1031.69 666.9C1031.12 665.867 1030.34 665.067 1029.34 664.5C1028.34 663.9 1027.17 663.6 1025.84 663.6C1024.51 663.6 1023.32 663.9 1022.29 664.5C1021.29 665.067 1020.51 665.883 1019.94 666.95C1019.37 667.983 1019.09 669.217 1019.09 670.65V671.85C1019.09 673.317 1019.41 674.617 1020.04 675.75C1020.71 676.85 1021.62 677.7 1022.79 678.3C1023.99 678.867 1025.39 679.15 1026.99 679.15C1028.42 679.15 1029.67 678.933 1030.74 678.5C1031.84 678.067 1032.84 677.417 1033.74 676.55L1037.89 681.05C1036.66 682.45 1035.11 683.533 1033.24 684.3C1031.37 685.033 1029.22 685.4 1026.79 685.4Z" fill="black"/>
<path d="M825.467 646.536C825.755 646.227 826.104 645.981 826.492 645.813C826.879 645.645 827.297 645.559 827.72 645.559C828.142 645.559 828.56 645.645 828.948 645.813C829.336 645.981 829.684 646.227 829.973 646.536L849.559 667.433C851.411 669.403 850.01 672.628 847.306 672.628H838.524V675.715C838.524 676.534 838.198 677.319 837.62 677.898C837.041 678.477 836.256 678.802 835.437 678.802H820.003C819.184 678.802 818.399 678.477 817.82 677.898C817.241 677.319 816.916 676.534 816.916 675.715V672.628H808.131C805.433 672.628 804.032 669.403 805.878 667.43L825.467 646.536ZM816.916 684.975C816.916 684.157 817.241 683.372 817.82 682.793C818.399 682.214 819.184 681.889 820.003 681.889H835.437C836.256 681.889 837.041 682.214 837.62 682.793C838.198 683.372 838.524 684.157 838.524 684.975V688.062C838.524 688.881 838.198 689.666 837.62 690.245C837.041 690.824 836.256 691.149 835.437 691.149H820.003C819.184 691.149 818.399 690.824 817.82 690.245C817.241 689.666 816.916 688.881 816.916 688.062V684.975Z" fill="black"/>
<path fill-rule="evenodd" clip-rule="evenodd" d="M1079.44 656.535H1102.25C1103.88 656.535 1105.45 657.186 1106.61 658.343C1107.77 659.501 1108.42 661.071 1108.42 662.709V683.287C1108.42 684.925 1107.77 686.495 1106.61 687.653C1105.45 688.81 1103.88 689.461 1102.25 689.461H1079.44C1078.55 689.461 1077.67 689.268 1076.86 688.896C1076.06 688.524 1075.34 687.981 1074.76 687.304L1065.94 677.015C1064.98 675.896 1064.45 674.471 1064.45 672.998C1064.45 671.525 1064.98 670.1 1065.94 668.981L1074.76 658.692C1075.34 658.015 1076.06 657.472 1076.86 657.1C1077.67 656.728 1078.55 656.535 1079.44 656.535ZM1084.33 667.427C1084.71 667.042 1085.24 666.825 1085.78 666.825C1086.33 666.825 1086.85 667.042 1087.24 667.427L1089.9 670.088L1092.56 667.427C1092.75 667.231 1092.98 667.074 1093.23 666.966C1093.48 666.858 1093.75 666.802 1094.02 666.799C1094.29 666.797 1094.57 666.849 1094.82 666.952C1095.07 667.056 1095.3 667.209 1095.49 667.402C1095.69 667.595 1095.84 667.825 1095.94 668.078C1096.05 668.331 1096.1 668.602 1096.1 668.875C1096.09 669.148 1096.04 669.418 1095.93 669.669C1095.82 669.92 1095.67 670.147 1095.47 670.337L1092.81 672.998L1095.47 675.659C1095.84 676.047 1096.05 676.567 1096.05 677.106C1096.04 677.646 1095.83 678.162 1095.44 678.544C1095.06 678.925 1094.55 679.142 1094.01 679.146C1093.47 679.151 1092.95 678.943 1092.56 678.569L1089.9 675.908L1087.24 678.569C1087.05 678.765 1086.82 678.922 1086.57 679.03C1086.32 679.138 1086.05 679.194 1085.78 679.197C1085.5 679.199 1085.23 679.147 1084.98 679.044C1084.73 678.94 1084.5 678.787 1084.3 678.594C1084.11 678.401 1083.96 678.171 1083.85 677.918C1083.75 677.665 1083.7 677.394 1083.7 677.121C1083.7 676.848 1083.76 676.578 1083.87 676.327C1083.97 676.076 1084.13 675.849 1084.33 675.659L1086.99 672.998L1084.33 670.337C1083.94 669.951 1083.73 669.428 1083.73 668.882C1083.73 668.337 1083.94 667.813 1084.33 667.427Z" fill="black"/>
</svg>
