<svg width="862" height="99" viewBox="0 0 862 99" fill="none" xmlns="http://www.w3.org/2000/svg">
<path d="M430.547 98.4986C668.332 98.4986 861.094 81.9089 861.094 61.4446C861.094 40.9802 668.332 24.3906 430.547 24.3906C192.762 24.3906 0 40.9802 0 61.4446C0 81.9089 192.762 98.4986 430.547 98.4986Z" fill="#F4E3FF"/>
<path d="M430.529 74.9943C571.373 74.9943 685.55 68.1277 685.55 59.6573C685.55 51.1869 571.373 44.3203 430.529 44.3203C289.685 44.3203 175.508 51.1869 175.508 59.6573C175.508 68.1277 289.685 74.9943 430.529 74.9943Z" stroke="#F4E3FF" stroke-width="1.3" stroke-miterlimit="10" stroke-linecap="round"/>
<path d="M218.992 13.764C218.992 13.764 224.421 11.218 242.59 9.17499C271.263 5.95199 298.501 30.009 291.425 51.783C284.24 73.893 263.566 69.809 252.095 61.288C252.095 61.288 231.774 54.733 216.37 59.977C200.966 65.221 187.23 71.885 186.5 64.731C186.136 61.162 197.361 57.028 197.361 57.028C197.361 57.028 181.957 63.583 168.519 58.011C168.519 58.011 147.543 67.188 144.593 62.6C141.643 58.011 156.392 52.112 156.392 52.112C156.392 52.112 149.837 35.397 158.359 25.236C158.359 25.236 154.426 8.521 157.703 8.193C160.98 7.865 169.174 14.748 169.174 14.748C169.174 14.748 185.889 8.52098 202.933 12.454C202.933 12.454 207.522 0.326973 211.454 0.654973C215.387 0.980973 218.992 13.764 218.992 13.764Z" fill="white" stroke="#252D3B" stroke-width="1.3" stroke-miterlimit="10" stroke-linecap="round"/>
<path d="M165.852 38.543C165.852 38.543 167.046 44.003 170.117 43.832C173.188 43.661 173.018 38.543 173.018 38.543" fill="white"/>
<path d="M165.852 38.543C165.852 38.543 167.046 44.003 170.117 43.832C173.188 43.661 173.018 38.543 173.018 38.543" stroke="#252D3B" stroke-width="1.3" stroke-miterlimit="10" stroke-linecap="round"/>
<path d="M190.247 37.1793C190.247 37.1793 188.37 42.4683 192.636 42.2983C196.902 42.1283 198.266 36.1562 198.266 36.1562" fill="white"/>
<path d="M190.247 37.1793C190.247 37.1793 188.37 42.4683 192.636 42.2983C196.902 42.1283 198.266 36.1562 198.266 36.1562" stroke="#252D3B" stroke-width="1.3" stroke-miterlimit="10" stroke-linecap="round"/>
<path d="M156.297 50.9961C156.297 50.9961 159.416 55.8071 168.52 58.0081L156.297 50.9961Z" fill="white"/>
<path d="M156.297 50.9961C156.297 50.9961 159.416 55.8071 168.52 58.0081" stroke="#252D3B" stroke-width="1.3" stroke-miterlimit="10" stroke-linecap="round"/>
<path d="M197.359 57.0256C197.359 57.0256 207.48 54.0677 211.745 49.9727L197.359 57.0256Z" fill="white"/>
<path d="M197.359 57.0256C197.359 57.0256 207.48 54.0677 211.745 49.9727" stroke="#252D3B" stroke-width="1.3" stroke-miterlimit="10" stroke-linecap="round"/>
<path d="M208.336 15.8495C208.336 15.8495 209.018 8.68359 210.725 8.68359C212.432 8.68359 213.284 16.8735 213.284 16.8735" fill="white"/>
<path d="M208.336 15.8495C208.336 15.8495 209.018 8.68359 210.725 8.68359C212.432 8.68359 213.284 16.8735 213.284 16.8735" stroke="#252D3B" stroke-width="1.3" stroke-miterlimit="10" stroke-linecap="round"/>
<path d="M165.677 19.2615C165.677 19.2615 160.729 11.7545 160.047 14.6545C159.365 17.5555 162.606 23.1855 162.606 23.1855" fill="white"/>
<path d="M165.677 19.2615C165.677 19.2615 160.729 11.7545 160.047 14.6545C159.365 17.5555 162.606 23.1855 162.606 23.1855" stroke="#252D3B" stroke-width="1.3" stroke-miterlimit="10" stroke-linecap="round"/>
<path d="M218.992 13.7656C218.992 13.7656 221.643 18.2406 220.278 24.3826L218.992 13.7656Z" fill="white"/>
<path d="M218.992 13.7656C218.992 13.7656 221.643 18.2406 220.278 24.3826" stroke="#252D3B" stroke-width="1.3" stroke-miterlimit="10" stroke-linecap="round"/>
<path d="M252.096 61.2891C252.096 61.2891 247.821 55.8461 254.124 53.5771C260.427 51.3081 275.05 61.8972 279.083 48.5352" fill="white"/>
<path d="M252.096 61.2891C252.096 61.2891 247.821 55.8461 254.124 53.5771C260.427 51.3081 275.05 61.8972 279.083 48.5352" stroke="#252D3B" stroke-width="1.3" stroke-miterlimit="10" stroke-linecap="round"/>
<path d="M190.594 49.3093C190.594 49.3093 210.374 43.1762 215.434 37.6562L190.594 49.3093Z" fill="white"/>
<path d="M190.594 49.3093C190.594 49.3093 210.374 43.1762 215.434 37.6562" stroke="#252D3B" stroke-width="1.3" stroke-miterlimit="10" stroke-linecap="round"/>
<path d="M190.594 52.5306L219.267 44.0977" stroke="#252D3B" stroke-width="1.3" stroke-miterlimit="10" stroke-linecap="round"/>
<path d="M169.128 49.0027C169.128 49.0027 143.827 41.0297 144.287 40.7227L169.128 49.0027Z" fill="white"/>
<path d="M169.128 49.0027C169.128 49.0027 143.827 41.0297 144.287 40.7227" stroke="#252D3B" stroke-width="1.3" stroke-miterlimit="10" stroke-linecap="round"/>
<path d="M166.983 51.6116L144.289 48.8516" stroke="#252D3B" stroke-width="1.3" stroke-miterlimit="10" stroke-linecap="round"/>
<path d="M179.868 50.3818L176.188 47.0089C176.188 47.0089 180.328 46.2419 184.008 47.0089L179.868 50.3818Z" fill="#252D3B"/>
<path d="M233.898 10.7095C233.898 10.7095 234.377 25.3215 243.719 26.9985C253.061 28.6755 256.415 15.5005 263.122 18.3755C269.829 21.2505 275.818 24.6035 279.65 20.5315C279.65 20.5315 261.979 4.32146 233.898 10.7095Z" fill="#252D3B"/>
<path d="M274.208 39.3128C277.222 39.3128 279.666 37.5752 279.666 35.4318C279.666 33.2883 277.222 31.5508 274.208 31.5508C271.194 31.5508 268.75 33.2883 268.75 35.4318C268.75 37.5752 271.194 39.3128 274.208 39.3128Z" fill="#252D3B"/>
<path d="M173.602 13.3435C173.602 13.3435 177.987 11.8466 178.843 18.7976C179.699 25.7496 180.146 26.2025 185.172 25.2395C190.199 24.2765 188.896 12.0595 197.666 11.5245C197.666 11.5245 183.228 10.0275 173.602 13.3435Z" fill="#252D3B"/>
</svg>
