<svg width="139" height="127" viewBox="0 0 139 127" fill="none" xmlns="http://www.w3.org/2000/svg">
<path d="M112.25 25.0011C92.6293 11.5031 65.9623 27.5751 68.7733 51.2251C68.8263 51.6721 68.8843 52.1241 68.9493 52.5831C73.0433 81.9051 38.4983 87.7971 61.2303 114.303C83.9623 140.809 135.375 123.694 138.535 78.9621C140.227 54.9931 127.463 35.4671 112.25 25.0011Z" fill="#F4E3FF"/>
<path d="M53.6854 118.672C24.3934 118.672 0.648438 94.9257 0.648438 65.6347C0.648438 36.3427 24.3944 12.5977 53.6854 12.5977C82.9774 12.5977 106.722 36.3437 106.722 65.6347C106.722 94.9257 82.9774 118.672 53.6854 118.672Z" fill="#252D3B"/>
<path d="M53.6854 106.722C24.3934 106.722 0.648438 82.9764 0.648438 53.6854C0.648438 24.3934 24.3944 0.648438 53.6854 0.648438C82.9774 0.648438 106.722 24.3944 106.722 53.6854C106.722 82.9774 82.9774 106.722 53.6854 106.722Z" fill="white" stroke="#252D3B" stroke-width="1.3" stroke-miterlimit="10" stroke-linecap="round"/>
<path d="M53.9062 21.332V59.633L68.0172 73.744" fill="white"/>
<path d="M53.9062 21.332V59.633L68.0172 73.744" stroke="#252D3B" stroke-width="1.3" stroke-miterlimit="10" stroke-linecap="round"/>
</svg>
