<svg width="122" height="395" viewBox="0 0 122 395" fill="none" xmlns="http://www.w3.org/2000/svg">
<path d="M43.3047 374.91C43.3047 385.332 51.7536 393.781 62.1776 393.781C72.5997 393.781 81.0487 385.332 81.0487 374.91C81.0487 364.488 72.5997 356.039 62.1776 356.039C51.7536 356.037 43.3047 364.488 43.3047 374.91Z" fill="white" stroke="#252D3B" stroke-width="1.3" stroke-miterlimit="10" stroke-linecap="round"/>
<path d="M62.7813 355.851L62.7812 -385" stroke="#252D3B" stroke-width="1.3" stroke-miterlimit="10" stroke-linecap="round"/>
<path d="M71.4807 284.766H53.9623C49.1709 284.766 45.2891 288.649 45.2891 293.439V334.492C45.2891 339.284 49.1727 343.167 53.9623 343.167H71.4807C76.272 343.167 80.154 339.284 80.154 334.492V293.439C80.154 288.649 76.272 284.766 71.4807 284.766Z" fill="white" stroke="#252D3B" stroke-width="1.3" stroke-miterlimit="10" stroke-linecap="round"/>
<path d="M121.993 374.978H0C3.99845 355.839 29.7775 330.539 60.9883 330.539C92.201 330.539 117.993 355.839 121.993 374.978Z" fill="#252D3B"/>
</svg>
