<svg width="1107" height="157" viewBox="0 0 1107 157" fill="none" xmlns="http://www.w3.org/2000/svg">
<path d="M7.84216 125V29.6085H32.2686V125H7.84216ZM84.6537 126.157C76.4259 126.157 69.2265 124.614 63.0557 121.529C56.9705 118.358 52.2138 114.072 48.7855 108.673C45.4429 103.188 43.7717 96.9739 43.7717 90.0317C43.7717 83.0894 45.4001 76.9186 48.6569 71.519C51.9995 66.0338 56.5848 61.7913 62.4129 58.7916C68.2409 55.7062 74.7975 54.1634 82.0825 54.1634C88.9391 54.1634 95.1957 55.5776 100.852 58.4059C106.509 61.1485 111.009 65.2196 114.351 70.6191C117.694 76.0186 119.365 82.5752 119.365 90.2888C119.365 91.1459 119.322 92.1315 119.236 93.2457C119.151 94.3599 119.065 95.3883 118.979 96.3311H63.827V83.4751H105.995L96.7384 87.0748C96.8241 83.9037 96.2241 81.161 94.9385 78.847C93.7387 76.5329 92.0245 74.733 89.7961 73.4474C87.6535 72.1618 85.1251 71.519 82.2111 71.519C79.2971 71.519 76.7259 72.1618 74.4975 73.4474C72.3548 74.733 70.6836 76.5757 69.4837 78.9755C68.2838 81.2896 67.6838 84.0322 67.6838 87.2034V90.9316C67.6838 94.3599 68.3695 97.3167 69.7408 99.8022C71.1978 102.288 73.2548 104.216 75.9117 105.587C78.5686 106.873 81.7397 107.516 85.4251 107.516C88.8534 107.516 91.7674 107.044 94.1672 106.102C96.6527 105.073 99.0953 103.53 101.495 101.474L114.351 114.844C111.009 118.529 106.895 121.357 102.009 123.329C97.1241 125.214 91.3389 126.157 84.6537 126.157ZM161.739 126.157C152.825 126.157 145.883 123.972 140.912 119.6C135.941 115.144 133.455 108.459 133.455 99.5451V39.7647H157.882V99.288C157.882 101.773 158.567 103.745 159.939 105.202C161.31 106.573 163.067 107.259 165.21 107.259C168.124 107.259 170.609 106.53 172.666 105.073L178.708 122.172C176.651 123.543 174.123 124.529 171.123 125.129C168.124 125.814 164.995 126.157 161.739 126.157ZM123.299 76.1472V57.8917H173.823V76.1472H123.299ZM185.428 76.4043L195.07 42.9787L198.541 56.8632C194.255 56.8632 190.742 55.6205 187.999 53.135C185.256 50.5638 183.885 47.1355 183.885 42.8502C183.885 38.4791 185.256 35.008 187.999 32.4368C190.827 29.7799 194.341 28.4514 198.541 28.4514C202.74 28.4514 206.212 29.7799 208.954 32.4368C211.697 35.008 213.068 38.4791 213.068 42.8502C213.068 44.0501 212.982 45.2928 212.811 46.5784C212.64 47.7783 212.254 49.2353 211.654 50.9494C211.14 52.5779 210.24 54.8062 208.954 57.6346L200.726 76.4043H185.428ZM247.477 126.157C241.563 126.157 235.778 125.471 230.121 124.1C224.55 122.729 220.051 121.015 216.623 118.958L223.951 102.245C227.207 104.216 231.021 105.802 235.392 107.002C239.763 108.116 244.049 108.673 248.248 108.673C252.362 108.673 255.191 108.244 256.733 107.387C258.362 106.53 259.176 105.373 259.176 103.916C259.176 102.545 258.405 101.559 256.862 100.959C255.405 100.274 253.434 99.7594 250.948 99.4166C248.548 99.0737 245.891 98.6881 242.977 98.2595C240.063 97.831 237.106 97.2739 234.107 96.5882C231.193 95.8169 228.493 94.7027 226.007 93.2457C223.608 91.703 221.679 89.646 220.222 87.0748C218.765 84.5036 218.037 81.2467 218.037 77.3042C218.037 72.8475 219.322 68.905 221.894 65.4767C224.55 61.9627 228.407 59.2201 233.464 57.2489C238.521 55.1919 244.692 54.1634 251.977 54.1634C256.862 54.1634 261.79 54.6777 266.761 55.7062C271.818 56.6489 276.06 58.1059 279.488 60.0772L272.161 76.6614C268.732 74.6902 265.304 73.3617 261.876 72.6761C258.447 71.9047 255.191 71.519 252.105 71.519C247.991 71.519 245.077 71.9904 243.363 72.9332C241.735 73.876 240.92 75.033 240.92 76.4043C240.92 77.7756 241.649 78.847 243.106 79.6183C244.563 80.304 246.491 80.8611 248.891 81.2896C251.377 81.6324 254.076 82.0181 256.99 82.4466C259.904 82.7895 262.818 83.3466 265.733 84.1179C268.732 84.8893 271.432 86.0463 273.832 87.589C276.317 89.0461 278.289 91.0602 279.746 93.6314C281.203 96.1169 281.931 99.3309 281.931 103.273C281.931 107.559 280.603 111.415 277.946 114.844C275.375 118.272 271.518 121.015 266.375 123.072C261.319 125.129 255.019 126.157 247.477 126.157ZM376.023 126.8C368.909 126.8 362.31 125.686 356.225 123.457C350.14 121.143 344.869 117.886 340.412 113.687C336.041 109.487 332.613 104.559 330.127 98.9023C327.642 93.16 326.399 86.8605 326.399 80.004C326.399 73.1475 327.642 66.8909 330.127 61.2342C332.613 55.4919 336.084 50.5209 340.54 46.3213C344.997 42.1217 350.268 38.9077 356.353 36.6793C362.524 34.3652 369.252 33.2082 376.537 33.2082C385.022 33.2082 392.607 34.6223 399.292 37.4506C405.977 40.279 411.506 44.35 415.877 49.6638L399.678 64.3197C396.593 60.9771 393.25 58.4916 389.65 56.8632C386.136 55.1491 382.194 54.292 377.823 54.292C373.966 54.292 370.452 54.8919 367.281 56.0918C364.11 57.2917 361.41 59.0487 359.182 61.3628C356.953 63.5912 355.196 66.2909 353.911 69.4621C352.711 72.5475 352.111 76.0615 352.111 80.004C352.111 83.7751 352.711 87.2462 353.911 90.4174C355.196 93.5885 356.953 96.3311 359.182 98.6452C361.41 100.874 364.067 102.631 367.152 103.916C370.323 105.116 373.795 105.716 377.566 105.716C381.337 105.716 385.022 105.116 388.622 103.916C392.221 102.631 395.864 100.488 399.549 97.4882L413.82 115.358C408.677 119.043 402.721 121.872 395.95 123.843C389.179 125.814 382.537 126.8 376.023 126.8ZM391.322 112.015V78.0756H413.82V115.358L391.322 112.015ZM465.312 126.157C457.084 126.157 449.885 124.614 443.714 121.529C437.629 118.358 432.872 114.072 429.444 108.673C426.101 103.188 424.43 96.9739 424.43 90.0317C424.43 83.0894 426.058 76.9186 429.315 71.519C432.658 66.0338 437.243 61.7913 443.071 58.7916C448.899 55.7062 455.456 54.1634 462.741 54.1634C469.597 54.1634 475.854 55.5776 481.51 58.4059C487.167 61.1485 491.667 65.2196 495.009 70.6191C498.352 76.0186 500.023 82.5752 500.023 90.2888C500.023 91.1459 499.98 92.1315 499.895 93.2457C499.809 94.3599 499.723 95.3883 499.637 96.3311H444.485V83.4751H486.653L477.397 87.0748C477.482 83.9037 476.882 81.161 475.597 78.847C474.397 76.5329 472.683 74.733 470.454 73.4474C468.312 72.1618 465.783 71.519 462.869 71.519C459.955 71.519 457.384 72.1618 455.156 73.4474C453.013 74.733 451.342 76.5757 450.142 78.9755C448.942 81.2896 448.342 84.0322 448.342 87.2034V90.9316C448.342 94.3599 449.028 97.3167 450.399 99.8022C451.856 102.288 453.913 104.216 456.57 105.587C459.227 106.873 462.398 107.516 466.083 107.516C469.512 107.516 472.426 107.044 474.825 106.102C477.311 105.073 479.753 103.53 482.153 101.474L495.009 114.844C491.667 118.529 487.553 121.357 482.667 123.329C477.782 125.214 471.997 126.157 465.312 126.157ZM542.397 126.157C533.483 126.157 526.541 123.972 521.57 119.6C516.599 115.144 514.113 108.459 514.113 99.5451V39.7647H538.54V99.288C538.54 101.773 539.225 103.745 540.597 105.202C541.968 106.573 543.725 107.259 545.868 107.259C548.782 107.259 551.267 106.53 553.324 105.073L559.367 122.172C557.31 123.543 554.781 124.529 551.782 125.129C548.782 125.814 545.653 126.157 542.397 126.157ZM503.957 76.1472V57.8917H554.481V76.1472H503.957ZM638.981 126.8C631.611 126.8 624.497 125.9 617.64 124.1C610.87 122.215 605.341 119.815 601.056 116.901L609.413 98.131C613.441 100.702 618.069 102.845 623.297 104.559C628.611 106.187 633.882 107.002 639.11 107.002C642.624 107.002 645.452 106.702 647.595 106.102C649.738 105.416 651.28 104.559 652.223 103.53C653.252 102.416 653.766 101.131 653.766 99.6737C653.766 97.6167 652.823 95.9883 650.937 94.7884C649.052 93.5885 646.609 92.6029 643.61 91.8315C640.61 91.0602 637.267 90.2888 633.582 89.5174C629.982 88.7461 626.34 87.7605 622.654 86.5606C619.055 85.3607 615.755 83.8179 612.755 81.9324C609.755 79.9611 607.313 77.4328 605.427 74.3474C603.542 71.1762 602.599 67.1909 602.599 62.3913C602.599 56.9918 604.056 52.1065 606.97 47.7354C609.97 43.3644 614.426 39.8504 620.34 37.1935C626.254 34.5366 633.625 33.2082 642.452 33.2082C648.366 33.2082 654.151 33.8938 659.808 35.2651C665.55 36.5507 670.65 38.4791 675.107 41.0503L667.265 59.9486C662.979 57.6346 658.737 55.9204 654.537 54.8062C650.337 53.6063 646.266 53.0064 642.324 53.0064C638.81 53.0064 635.982 53.3921 633.839 54.1634C631.696 54.8491 630.154 55.7919 629.211 56.9918C628.268 58.1916 627.797 59.563 627.797 61.1057C627.797 63.0769 628.697 64.6625 630.496 65.8624C632.382 66.9766 634.825 67.9194 637.824 68.6907C640.91 69.3764 644.252 70.1049 647.852 70.8762C651.537 71.6476 655.18 72.6332 658.78 73.8331C662.465 74.9473 665.808 76.49 668.807 78.4613C671.807 80.3468 674.207 82.8752 676.007 86.0463C677.892 89.1318 678.835 93.0314 678.835 97.7453C678.835 102.973 677.335 107.816 674.335 112.273C671.421 116.644 667.007 120.158 661.094 122.814C655.266 125.471 647.895 126.8 638.981 126.8ZM720.548 126.157C711.634 126.157 704.692 123.972 699.721 119.6C694.75 115.144 692.264 108.459 692.264 99.5451V39.7647H716.691V99.288C716.691 101.773 717.377 103.745 718.748 105.202C720.119 106.573 721.876 107.259 724.019 107.259C726.933 107.259 729.418 106.53 731.475 105.073L737.518 122.172C735.461 123.543 732.932 124.529 729.933 125.129C726.933 125.814 723.805 126.157 720.548 126.157ZM682.108 76.1472V57.8917H732.632V76.1472H682.108ZM789.49 125V112.015L787.819 108.801V84.8893C787.819 81.0325 786.619 78.0756 784.219 76.0186C781.905 73.876 778.177 72.8046 773.034 72.8046C769.692 72.8046 766.306 73.3617 762.878 74.4759C759.45 75.5044 756.536 76.9614 754.136 78.847L745.908 62.2627C749.851 59.6915 754.565 57.7203 760.05 56.349C765.621 54.8919 771.149 54.1634 776.634 54.1634C787.947 54.1634 796.689 56.7775 802.86 62.0056C809.117 67.148 812.245 75.2473 812.245 86.3034V125H789.49ZM768.92 126.157C763.349 126.157 758.636 125.214 754.779 123.329C750.922 121.443 747.965 118.872 745.908 115.615C743.937 112.358 742.951 108.716 742.951 104.688C742.951 100.402 744.023 96.7168 746.165 93.6314C748.394 90.4602 751.779 88.0604 756.322 86.432C760.864 84.7179 766.735 83.8608 773.934 83.8608H790.39V96.5882H777.277C773.334 96.5882 770.549 97.231 768.92 98.5166C767.378 99.8022 766.606 101.516 766.606 103.659C766.606 105.802 767.421 107.516 769.049 108.801C770.677 110.087 772.906 110.73 775.734 110.73C778.391 110.73 780.791 110.087 782.933 108.801C785.162 107.43 786.79 105.373 787.819 102.631L791.161 111.63C789.876 116.429 787.347 120.072 783.576 122.557C779.891 124.957 775.006 126.157 768.92 126.157ZM827.663 125V55.3205H850.933V75.633L847.462 69.8478C849.518 64.6197 852.861 60.72 857.489 58.1488C862.117 55.4919 867.731 54.1634 874.331 54.1634V76.1472C873.216 75.9758 872.231 75.8901 871.374 75.8901C870.602 75.8044 869.745 75.7615 868.802 75.7615C863.831 75.7615 859.803 77.1328 856.718 79.8754C853.632 82.5323 852.09 86.9034 852.09 92.9886V125H827.663ZM917.656 126.157C908.743 126.157 901.801 123.972 896.83 119.6C891.859 115.144 889.373 108.459 889.373 99.5451V39.7647H913.799V99.288C913.799 101.773 914.485 103.745 915.856 105.202C917.228 106.573 918.985 107.259 921.127 107.259C924.041 107.259 926.527 106.53 928.584 105.073L934.626 122.172C932.569 123.543 930.041 124.529 927.041 125.129C924.041 125.814 920.913 126.157 917.656 126.157ZM879.217 76.1472V57.8917H929.741V76.1472H879.217ZM978.547 126.157C970.32 126.157 963.12 124.614 956.949 121.529C950.864 118.358 946.108 114.072 942.679 108.673C939.337 103.188 937.665 96.9739 937.665 90.0317C937.665 83.0894 939.294 76.9186 942.551 71.519C945.893 66.0338 950.479 61.7913 956.307 58.7916C962.135 55.7062 968.691 54.1634 975.976 54.1634C982.833 54.1634 989.089 55.5776 994.746 58.4059C1000.4 61.1485 1004.9 65.2196 1008.24 70.6191C1011.59 76.0186 1013.26 82.5752 1013.26 90.2888C1013.26 91.1459 1013.22 92.1315 1013.13 93.2457C1013.04 94.3599 1012.96 95.3883 1012.87 96.3311H957.721V83.4751H999.888L990.632 87.0748C990.718 83.9037 990.118 81.161 988.832 78.847C987.632 76.5329 985.918 74.733 983.69 73.4474C981.547 72.1618 979.019 71.519 976.105 71.519C973.191 71.519 970.62 72.1618 968.391 73.4474C966.249 74.733 964.577 76.5757 963.377 78.9755C962.178 81.2896 961.578 84.0322 961.578 87.2034V90.9316C961.578 94.3599 962.263 97.3167 963.635 99.8022C965.092 102.288 967.148 104.216 969.805 105.587C972.462 106.873 975.633 107.516 979.319 107.516C982.747 107.516 985.661 107.044 988.061 106.102C990.546 105.073 992.989 103.53 995.389 101.474L1008.24 114.844C1004.9 118.529 1000.79 121.357 995.903 123.329C991.018 125.214 985.233 126.157 978.547 126.157ZM1054.86 126.157C1048.52 126.157 1042.73 124.7 1037.51 121.786C1032.36 118.786 1028.25 114.629 1025.16 109.316C1022.08 103.916 1020.54 97.4882 1020.54 90.0317C1020.54 82.6609 1022.08 76.3186 1025.16 71.0048C1028.25 65.6053 1032.36 61.4485 1037.51 58.5345C1042.73 55.6205 1048.52 54.1634 1054.86 54.1634C1060.86 54.1634 1065.92 55.449 1070.03 58.0202C1074.23 60.5914 1077.4 64.5339 1079.54 69.8478C1081.69 75.1616 1082.76 81.8895 1082.76 90.0317C1082.76 98.3452 1081.73 105.159 1079.67 110.473C1077.62 115.787 1074.53 119.729 1070.42 122.3C1066.3 124.871 1061.12 126.157 1054.86 126.157ZM1060 106.744C1062.75 106.744 1065.19 106.102 1067.33 104.816C1069.56 103.53 1071.32 101.645 1072.6 99.1594C1073.89 96.5882 1074.53 93.5457 1074.53 90.0317C1074.53 86.5177 1073.89 83.5608 1072.6 81.161C1071.32 78.6755 1069.56 76.79 1067.33 75.5044C1065.19 74.2188 1062.75 73.576 1060 73.576C1057.17 73.576 1054.65 74.2188 1052.42 75.5044C1050.28 76.79 1048.56 78.6755 1047.28 81.161C1045.99 83.5608 1045.35 86.5177 1045.35 90.0317C1045.35 93.5457 1045.99 96.5882 1047.28 99.1594C1048.56 101.645 1050.28 103.53 1052.42 104.816C1054.65 106.102 1057.17 106.744 1060 106.744ZM1075.3 125V113.044L1075.43 90.0317L1074.14 67.0194V29.6085H1098.57V125H1075.3Z" fill="black"/>
</svg>
