<svg width="88" height="184" viewBox="0 0 88 184" fill="none" xmlns="http://www.w3.org/2000/svg">
<path d="M48.726 65.0096C48.726 65.0096 25.729 32.4666 4.46696 48.5206C-16.795 64.5756 44.821 88.0066 43.519 117.946C42.217 147.886 63.9129 116.644 63.9129 116.644L48.726 65.0096Z" fill="#F4E3FF"/>
<path d="M53.4344 142.222C53.4344 142.222 56.3804 89.1932 27.9024 41.0742C-0.575619 -7.04483 43.6144 -12.9368 63.2544 27.3262C82.8944 67.5892 73.0744 136.33 73.0744 136.33L53.4344 142.222Z" fill="white" stroke="#252D3B" stroke-width="1.3" stroke-miterlimit="10" stroke-linecap="round"/>
<path d="M42.9688 28.8945C42.9688 28.8945 67.5077 67.0495 63.9127 116.646L42.9688 28.8945Z" fill="white"/>
<path d="M42.9688 28.8945C42.9688 28.8945 67.5077 67.0495 63.9127 116.646" stroke="#252D3B" stroke-width="1.3" stroke-miterlimit="10" stroke-linecap="round"/>
<path d="M87.7508 109.508H27.7578V183.562H87.7508V109.508Z" fill="#252D3B"/>
</svg>
