<svg width="1032" height="29" viewBox="0 0 1032 29" fill="none" xmlns="http://www.w3.org/2000/svg">
<path d="M4.944 27.656C4 26.2 3.272 24.52 2.76 22.616C2.264 20.696 2.016 18.632 2.016 16.424C2.016 14.216 2.264 12.152 2.76 10.232C3.272 8.296 4 6.616 4.944 5.192H7.8C6.824 6.952 6.104 8.752 5.64 10.592C5.192 12.416 4.968 14.36 4.968 16.424C4.968 18.488 5.192 20.44 5.64 22.28C6.104 24.104 6.824 25.896 7.8 27.656H4.944ZM10.5763 23V6.2H17.4883C18.9763 6.2 20.2483 6.44 21.3043 6.92C22.3763 7.4 23.2003 8.088 23.7763 8.984C24.3523 9.88 24.6403 10.944 24.6403 12.176C24.6403 13.408 24.3523 14.472 23.7763 15.368C23.2003 16.264 22.3763 16.952 21.3043 17.432C20.2483 17.912 18.9763 18.152 17.4883 18.152H12.3043L13.6963 16.688V23H10.5763ZM13.6963 17.024L12.3043 15.512H17.3443C18.7203 15.512 19.7523 15.224 20.4403 14.648C21.1443 14.056 21.4963 13.232 21.4963 12.176C21.4963 11.104 21.1443 10.28 20.4403 9.704C19.7523 9.128 18.7203 8.84 17.3443 8.84H12.3043L13.6963 7.304V17.024ZM27.3508 23V10.184H30.2068V13.712L29.8708 12.68C30.2548 11.816 30.8548 11.16 31.6708 10.712C32.5028 10.264 33.5348 10.04 34.7668 10.04V12.896C34.6388 12.864 34.5188 12.848 34.4068 12.848C34.2948 12.832 34.1828 12.824 34.0708 12.824C32.9348 12.824 32.0308 13.16 31.3588 13.832C30.6868 14.488 30.3508 15.472 30.3508 16.784V23H27.3508ZM43.2186 23.168C41.7946 23.168 40.5466 22.888 39.4746 22.328C38.4186 21.752 37.5946 20.968 37.0026 19.976C36.4266 18.984 36.1386 17.856 36.1386 16.592C36.1386 15.312 36.4186 14.184 36.9786 13.208C37.5546 12.216 38.3386 11.44 39.3306 10.88C40.3386 10.32 41.4826 10.04 42.7626 10.04C44.0106 10.04 45.1226 10.312 46.0986 10.856C47.0746 11.4 47.8426 12.168 48.4026 13.16C48.9626 14.152 49.2426 15.32 49.2426 16.664C49.2426 16.792 49.2346 16.936 49.2186 17.096C49.2186 17.256 49.2106 17.408 49.1946 17.552H38.5146V15.56H47.6106L46.4346 16.184C46.4506 15.448 46.2986 14.8 45.9786 14.24C45.6586 13.68 45.2186 13.24 44.6586 12.92C44.1146 12.6 43.4826 12.44 42.7626 12.44C42.0266 12.44 41.3786 12.6 40.8186 12.92C40.2746 13.24 39.8426 13.688 39.5226 14.264C39.2186 14.824 39.0666 15.488 39.0666 16.256V16.736C39.0666 17.504 39.2426 18.184 39.5946 18.776C39.9466 19.368 40.4426 19.824 41.0826 20.144C41.7226 20.464 42.4586 20.624 43.2906 20.624C44.0106 20.624 44.6586 20.512 45.2346 20.288C45.8106 20.064 46.3226 19.712 46.7706 19.232L48.3786 21.08C47.8026 21.752 47.0746 22.272 46.1946 22.64C45.3306 22.992 44.3386 23.168 43.2186 23.168ZM56.0843 23.168C55.0123 23.168 53.9803 23.032 52.9883 22.76C52.0123 22.472 51.2363 22.128 50.6603 21.728L51.8123 19.448C52.3883 19.816 53.0763 20.12 53.8763 20.36C54.6763 20.6 55.4763 20.72 56.2763 20.72C57.2203 20.72 57.9003 20.592 58.3163 20.336C58.7483 20.08 58.9643 19.736 58.9643 19.304C58.9643 18.952 58.8203 18.688 58.5323 18.512C58.2443 18.32 57.8683 18.176 57.4043 18.08C56.9403 17.984 56.4203 17.896 55.8443 17.816C55.2843 17.736 54.7163 17.632 54.1403 17.504C53.5803 17.36 53.0683 17.16 52.6043 16.904C52.1403 16.632 51.7643 16.272 51.4763 15.824C51.1883 15.376 51.0443 14.784 51.0443 14.048C51.0443 13.232 51.2763 12.528 51.7402 11.936C52.2043 11.328 52.8523 10.864 53.6842 10.544C54.5323 10.208 55.5323 10.04 56.6843 10.04C57.5483 10.04 58.4203 10.136 59.3003 10.328C60.1803 10.52 60.9083 10.792 61.4843 11.144L60.3323 13.424C59.7243 13.056 59.1083 12.808 58.4843 12.68C57.8763 12.536 57.2683 12.464 56.6603 12.464C55.7483 12.464 55.0683 12.6 54.6203 12.872C54.1883 13.144 53.9723 13.488 53.9723 13.904C53.9723 14.288 54.1163 14.576 54.4043 14.768C54.6923 14.96 55.0683 15.112 55.5323 15.224C55.9963 15.336 56.5083 15.432 57.0683 15.512C57.6443 15.576 58.2123 15.68 58.7723 15.824C59.3323 15.968 59.8443 16.168 60.3083 16.424C60.7883 16.664 61.1723 17.008 61.4603 17.456C61.7483 17.904 61.8923 18.488 61.8923 19.208C61.8923 20.008 61.6523 20.704 61.1723 21.296C60.7083 21.888 60.0443 22.352 59.1803 22.688C58.3163 23.008 57.2843 23.168 56.0843 23.168ZM68.4358 23.168C67.3638 23.168 66.3318 23.032 65.3398 22.76C64.3638 22.472 63.5878 22.128 63.0118 21.728L64.1638 19.448C64.7398 19.816 65.4278 20.12 66.2278 20.36C67.0278 20.6 67.8278 20.72 68.6278 20.72C69.5718 20.72 70.2518 20.592 70.6678 20.336C71.0998 20.08 71.3158 19.736 71.3158 19.304C71.3158 18.952 71.1718 18.688 70.8838 18.512C70.5958 18.32 70.2198 18.176 69.7558 18.08C69.2918 17.984 68.7718 17.896 68.1958 17.816C67.6358 17.736 67.0678 17.632 66.4918 17.504C65.9318 17.36 65.4198 17.16 64.9558 16.904C64.4918 16.632 64.1158 16.272 63.8278 15.824C63.5398 15.376 63.3958 14.784 63.3958 14.048C63.3958 13.232 63.6278 12.528 64.0918 11.936C64.5558 11.328 65.2038 10.864 66.0358 10.544C66.8838 10.208 67.8838 10.04 69.0358 10.04C69.8998 10.04 70.7718 10.136 71.6518 10.328C72.5318 10.52 73.2598 10.792 73.8358 11.144L72.6838 13.424C72.0758 13.056 71.4598 12.808 70.8358 12.68C70.2278 12.536 69.6198 12.464 69.0118 12.464C68.0998 12.464 67.4198 12.6 66.9718 12.872C66.5398 13.144 66.3238 13.488 66.3238 13.904C66.3238 14.288 66.4678 14.576 66.7558 14.768C67.0438 14.96 67.4198 15.112 67.8838 15.224C68.3478 15.336 68.8598 15.432 69.4198 15.512C69.9958 15.576 70.5638 15.68 71.1238 15.824C71.6838 15.968 72.1958 16.168 72.6598 16.424C73.1398 16.664 73.5238 17.008 73.8118 17.456C74.0998 17.904 74.2438 18.488 74.2438 19.208C74.2438 20.008 74.0038 20.704 73.5238 21.296C73.0598 21.888 72.3958 22.352 71.5318 22.688C70.6678 23.008 69.6358 23.168 68.4358 23.168ZM91.3562 23V20.408L91.1882 19.856V15.32C91.1882 14.44 90.9242 13.76 90.3962 13.28C89.8682 12.784 89.0682 12.536 87.9962 12.536C87.2762 12.536 86.5642 12.648 85.8602 12.872C85.1722 13.096 84.5882 13.408 84.1082 13.808L82.9322 11.624C83.6202 11.096 84.4362 10.704 85.3802 10.448C86.3402 10.176 87.3322 10.04 88.3562 10.04C90.2122 10.04 91.6442 10.488 92.6522 11.384C93.6762 12.264 94.1882 13.632 94.1882 15.488V23H91.3562ZM87.3242 23.168C86.3642 23.168 85.5242 23.008 84.8042 22.688C84.0842 22.352 83.5242 21.896 83.1242 21.32C82.7402 20.728 82.5482 20.064 82.5482 19.328C82.5482 18.608 82.7162 17.96 83.0522 17.384C83.4042 16.808 83.9722 16.352 84.7562 16.016C85.5402 15.68 86.5802 15.512 87.8762 15.512H91.5962V17.504H88.0922C87.0682 17.504 86.3802 17.672 86.0282 18.008C85.6762 18.328 85.5002 18.728 85.5002 19.208C85.5002 19.752 85.7162 20.184 86.1482 20.504C86.5802 20.824 87.1802 20.984 87.9482 20.984C88.6842 20.984 89.3402 20.816 89.9162 20.48C90.5082 20.144 90.9322 19.648 91.1882 18.992L91.6922 20.792C91.4042 21.544 90.8842 22.128 90.1322 22.544C89.3962 22.96 88.4602 23.168 87.3242 23.168ZM105.31 10.04C106.334 10.04 107.246 10.24 108.046 10.64C108.862 11.04 109.502 11.656 109.966 12.488C110.43 13.304 110.662 14.36 110.662 15.656V23H107.662V16.04C107.662 14.904 107.39 14.056 106.846 13.496C106.318 12.936 105.574 12.656 104.614 12.656C103.91 12.656 103.286 12.8 102.742 13.088C102.198 13.376 101.774 13.808 101.47 14.384C101.182 14.944 101.038 15.656 101.038 16.52V23H98.0383V10.184H100.894V13.64L100.39 12.584C100.838 11.768 101.486 11.144 102.334 10.712C103.198 10.264 104.19 10.04 105.31 10.04ZM119.915 23.168C118.683 23.168 117.571 22.896 116.579 22.352C115.603 21.792 114.835 21.024 114.275 20.048C113.715 19.072 113.435 17.92 113.435 16.592C113.435 15.264 113.715 14.112 114.275 13.136C114.835 12.16 115.603 11.4 116.579 10.856C117.571 10.312 118.683 10.04 119.915 10.04C120.987 10.04 121.947 10.28 122.795 10.76C123.643 11.224 124.315 11.936 124.811 12.896C125.307 13.856 125.555 15.088 125.555 16.592C125.555 18.08 125.315 19.312 124.835 20.288C124.355 21.248 123.691 21.968 122.843 22.448C121.995 22.928 121.019 23.168 119.915 23.168ZM120.275 20.6C120.995 20.6 121.635 20.44 122.195 20.12C122.771 19.8 123.227 19.336 123.563 18.728C123.915 18.12 124.091 17.408 124.091 16.592C124.091 15.76 123.915 15.048 123.563 14.456C123.227 13.848 122.771 13.384 122.195 13.064C121.635 12.744 120.995 12.584 120.275 12.584C119.555 12.584 118.907 12.744 118.331 13.064C117.771 13.384 117.315 13.848 116.963 14.456C116.627 15.048 116.459 15.76 116.459 16.592C116.459 17.408 116.627 18.12 116.963 18.728C117.315 19.336 117.771 19.8 118.331 20.12C118.907 20.44 119.555 20.6 120.275 20.6ZM124.163 23V19.976L124.283 16.568L124.043 13.16V5.192H127.019V23H124.163ZM144.873 10.04C145.897 10.04 146.809 10.24 147.609 10.64C148.425 11.04 149.065 11.656 149.529 12.488C149.993 13.304 150.225 14.36 150.225 15.656V23H147.225V16.04C147.225 14.904 146.953 14.056 146.409 13.496C145.881 12.936 145.137 12.656 144.177 12.656C143.473 12.656 142.849 12.8 142.305 13.088C141.761 13.376 141.337 13.808 141.033 14.384C140.745 14.944 140.601 15.656 140.601 16.52V23H137.601V5.192H140.601V13.64L139.953 12.584C140.401 11.768 141.049 11.144 141.897 10.712C142.761 10.264 143.753 10.04 144.873 10.04ZM159.814 23.168C158.502 23.168 157.334 22.888 156.31 22.328C155.286 21.752 154.478 20.968 153.886 19.976C153.294 18.984 152.998 17.856 152.998 16.592C152.998 15.312 153.294 14.184 153.886 13.208C154.478 12.216 155.286 11.44 156.31 10.88C157.334 10.32 158.502 10.04 159.814 10.04C161.142 10.04 162.318 10.32 163.342 10.88C164.382 11.44 165.19 12.208 165.766 13.184C166.358 14.16 166.654 15.296 166.654 16.592C166.654 17.856 166.358 18.984 165.766 19.976C165.19 20.968 164.382 21.752 163.342 22.328C162.318 22.888 161.142 23.168 159.814 23.168ZM159.814 20.6C160.55 20.6 161.206 20.44 161.782 20.12C162.358 19.8 162.806 19.336 163.126 18.728C163.462 18.12 163.63 17.408 163.63 16.592C163.63 15.76 163.462 15.048 163.126 14.456C162.806 13.848 162.358 13.384 161.782 13.064C161.206 12.744 160.558 12.584 159.838 12.584C159.102 12.584 158.446 12.744 157.87 13.064C157.31 13.384 156.862 13.848 156.526 14.456C156.19 15.048 156.022 15.76 156.022 16.592C156.022 17.408 156.19 18.12 156.526 18.728C156.862 19.336 157.31 19.8 157.87 20.12C158.446 20.44 159.094 20.6 159.814 20.6ZM169.523 23V5.192H172.523V23H169.523ZM181.884 23.168C180.652 23.168 179.54 22.896 178.548 22.352C177.572 21.792 176.804 21.024 176.244 20.048C175.684 19.072 175.404 17.92 175.404 16.592C175.404 15.264 175.684 14.112 176.244 13.136C176.804 12.16 177.572 11.4 178.548 10.856C179.54 10.312 180.652 10.04 181.884 10.04C182.956 10.04 183.916 10.28 184.764 10.76C185.612 11.224 186.284 11.936 186.78 12.896C187.276 13.856 187.524 15.088 187.524 16.592C187.524 18.08 187.284 19.312 186.804 20.288C186.324 21.248 185.66 21.968 184.812 22.448C183.964 22.928 182.988 23.168 181.884 23.168ZM182.244 20.6C182.964 20.6 183.604 20.44 184.164 20.12C184.74 19.8 185.196 19.336 185.532 18.728C185.884 18.12 186.06 17.408 186.06 16.592C186.06 15.76 185.884 15.048 185.532 14.456C185.196 13.848 184.74 13.384 184.164 13.064C183.604 12.744 182.964 12.584 182.244 12.584C181.524 12.584 180.876 12.744 180.3 13.064C179.74 13.384 179.284 13.848 178.932 14.456C178.596 15.048 178.428 15.76 178.428 16.592C178.428 17.408 178.596 18.12 178.932 18.728C179.284 19.336 179.74 19.8 180.3 20.12C180.876 20.44 181.524 20.6 182.244 20.6ZM186.132 23V19.976L186.252 16.568L186.012 13.16V5.192H188.988V23H186.132ZM204.394 23.168C202.986 23.168 201.898 22.808 201.13 22.088C200.362 21.352 199.978 20.272 199.978 18.848V7.352H202.978V18.776C202.978 19.384 203.13 19.856 203.434 20.192C203.754 20.528 204.194 20.696 204.754 20.696C205.426 20.696 205.986 20.52 206.434 20.168L207.274 22.304C206.922 22.592 206.49 22.808 205.978 22.952C205.466 23.096 204.938 23.168 204.394 23.168ZM197.866 12.68V10.28H206.41V12.68H197.866ZM217.013 10.04C218.037 10.04 218.949 10.24 219.749 10.64C220.565 11.04 221.205 11.656 221.669 12.488C222.133 13.304 222.365 14.36 222.365 15.656V23H219.365V16.04C219.365 14.904 219.093 14.056 218.549 13.496C218.021 12.936 217.277 12.656 216.317 12.656C215.613 12.656 214.989 12.8 214.445 13.088C213.901 13.376 213.477 13.808 213.173 14.384C212.885 14.944 212.741 15.656 212.741 16.52V23H209.741V5.192H212.741V13.64L212.093 12.584C212.541 11.768 213.189 11.144 214.037 10.712C214.901 10.264 215.893 10.04 217.013 10.04ZM232.219 23.168C230.795 23.168 229.547 22.888 228.475 22.328C227.419 21.752 226.595 20.968 226.003 19.976C225.427 18.984 225.139 17.856 225.139 16.592C225.139 15.312 225.419 14.184 225.979 13.208C226.555 12.216 227.339 11.44 228.331 10.88C229.339 10.32 230.483 10.04 231.763 10.04C233.011 10.04 234.123 10.312 235.099 10.856C236.075 11.4 236.843 12.168 237.403 13.16C237.963 14.152 238.243 15.32 238.243 16.664C238.243 16.792 238.235 16.936 238.219 17.096C238.219 17.256 238.211 17.408 238.195 17.552H227.515V15.56H236.611L235.435 16.184C235.451 15.448 235.299 14.8 234.979 14.24C234.659 13.68 234.219 13.24 233.659 12.92C233.115 12.6 232.483 12.44 231.763 12.44C231.027 12.44 230.379 12.6 229.819 12.92C229.275 13.24 228.843 13.688 228.523 14.264C228.219 14.824 228.067 15.488 228.067 16.256V16.736C228.067 17.504 228.243 18.184 228.595 18.776C228.947 19.368 229.443 19.824 230.083 20.144C230.723 20.464 231.459 20.624 232.291 20.624C233.011 20.624 233.659 20.512 234.235 20.288C234.811 20.064 235.323 19.712 235.771 19.232L237.379 21.08C236.803 21.752 236.075 22.272 235.195 22.64C234.331 22.992 233.339 23.168 232.219 23.168ZM254.861 23.168C253.821 23.168 252.869 22.928 252.005 22.448C251.157 21.968 250.477 21.248 249.965 20.288C249.469 19.312 249.221 18.08 249.221 16.592C249.221 15.088 249.461 13.856 249.941 12.896C250.437 11.936 251.109 11.224 251.957 10.76C252.805 10.28 253.773 10.04 254.861 10.04C256.125 10.04 257.237 10.312 258.197 10.856C259.173 11.4 259.941 12.16 260.501 13.136C261.077 14.112 261.365 15.264 261.365 16.592C261.365 17.92 261.077 19.08 260.501 20.072C259.941 21.048 259.173 21.808 258.197 22.352C257.237 22.896 256.125 23.168 254.861 23.168ZM247.757 27.656V10.184H250.613V13.208L250.517 16.616L250.757 20.024V27.656H247.757ZM254.525 20.6C255.245 20.6 255.885 20.44 256.445 20.12C257.021 19.8 257.477 19.336 257.813 18.728C258.149 18.12 258.317 17.408 258.317 16.592C258.317 15.76 258.149 15.048 257.813 14.456C257.477 13.848 257.021 13.384 256.445 13.064C255.885 12.744 255.245 12.584 254.525 12.584C253.805 12.584 253.157 12.744 252.581 13.064C252.005 13.384 251.549 13.848 251.213 14.456C250.877 15.048 250.709 15.76 250.709 16.592C250.709 17.408 250.877 18.12 251.213 18.728C251.549 19.336 252.005 19.8 252.581 20.12C253.157 20.44 253.805 20.6 254.525 20.6ZM269.97 23.168C268.658 23.168 267.49 22.888 266.466 22.328C265.442 21.752 264.634 20.968 264.042 19.976C263.45 18.984 263.154 17.856 263.154 16.592C263.154 15.312 263.45 14.184 264.042 13.208C264.634 12.216 265.442 11.44 266.466 10.88C267.49 10.32 268.658 10.04 269.97 10.04C271.298 10.04 272.474 10.32 273.498 10.88C274.538 11.44 275.346 12.208 275.922 13.184C276.514 14.16 276.81 15.296 276.81 16.592C276.81 17.856 276.514 18.984 275.922 19.976C275.346 20.968 274.538 21.752 273.498 22.328C272.474 22.888 271.298 23.168 269.97 23.168ZM269.97 20.6C270.706 20.6 271.362 20.44 271.938 20.12C272.514 19.8 272.962 19.336 273.282 18.728C273.618 18.12 273.786 17.408 273.786 16.592C273.786 15.76 273.618 15.048 273.282 14.456C272.962 13.848 272.514 13.384 271.938 13.064C271.362 12.744 270.714 12.584 269.994 12.584C269.258 12.584 268.602 12.744 268.026 13.064C267.466 13.384 267.018 13.848 266.682 14.456C266.346 15.048 266.178 15.76 266.178 16.592C266.178 17.408 266.346 18.12 266.682 18.728C267.018 19.336 267.466 19.8 268.026 20.12C268.602 20.44 269.25 20.6 269.97 20.6ZM282.159 23L277.455 10.184H280.287L284.319 21.488H282.975L287.199 10.184H289.719L293.823 21.488H292.503L296.655 10.184H299.319L294.591 23H291.711L287.967 12.992H288.855L285.039 23H282.159ZM307.055 23.168C305.631 23.168 304.383 22.888 303.311 22.328C302.255 21.752 301.431 20.968 300.839 19.976C300.263 18.984 299.975 17.856 299.975 16.592C299.975 15.312 300.255 14.184 300.815 13.208C301.391 12.216 302.175 11.44 303.167 10.88C304.175 10.32 305.319 10.04 306.599 10.04C307.847 10.04 308.959 10.312 309.935 10.856C310.911 11.4 311.679 12.168 312.239 13.16C312.799 14.152 313.079 15.32 313.079 16.664C313.079 16.792 313.071 16.936 313.055 17.096C313.055 17.256 313.047 17.408 313.031 17.552H302.351V15.56H311.447L310.271 16.184C310.287 15.448 310.135 14.8 309.815 14.24C309.495 13.68 309.055 13.24 308.495 12.92C307.951 12.6 307.319 12.44 306.599 12.44C305.863 12.44 305.215 12.6 304.655 12.92C304.111 13.24 303.679 13.688 303.359 14.264C303.055 14.824 302.903 15.488 302.903 16.256V16.736C302.903 17.504 303.079 18.184 303.431 18.776C303.783 19.368 304.279 19.824 304.919 20.144C305.559 20.464 306.295 20.624 307.127 20.624C307.847 20.624 308.495 20.512 309.071 20.288C309.647 20.064 310.159 19.712 310.607 19.232L312.215 21.08C311.639 21.752 310.911 22.272 310.031 22.64C309.167 22.992 308.175 23.168 307.055 23.168ZM315.96 23V10.184H318.816V13.712L318.48 12.68C318.864 11.816 319.464 11.16 320.28 10.712C321.112 10.264 322.144 10.04 323.376 10.04V12.896C323.248 12.864 323.128 12.848 323.016 12.848C322.904 12.832 322.792 12.824 322.68 12.824C321.544 12.824 320.64 13.16 319.968 13.832C319.296 14.488 318.96 15.472 318.96 16.784V23H315.96ZM339.775 23.168C338.687 23.168 337.719 22.928 336.871 22.448C336.023 21.968 335.351 21.248 334.855 20.288C334.375 19.312 334.135 18.08 334.135 16.592C334.135 15.088 334.383 13.856 334.879 12.896C335.391 11.936 336.071 11.224 336.919 10.76C337.783 10.28 338.735 10.04 339.775 10.04C341.039 10.04 342.151 10.312 343.111 10.856C344.087 11.4 344.855 12.16 345.415 13.136C345.991 14.112 346.279 15.264 346.279 16.592C346.279 17.92 345.991 19.072 345.415 20.048C344.855 21.024 344.087 21.792 343.111 22.352C342.151 22.896 341.039 23.168 339.775 23.168ZM332.671 23V5.192H335.671V13.16L335.431 16.568L335.527 19.976V23H332.671ZM339.439 20.6C340.159 20.6 340.799 20.44 341.359 20.12C341.935 19.8 342.391 19.336 342.727 18.728C343.063 18.12 343.231 17.408 343.231 16.592C343.231 15.76 343.063 15.048 342.727 14.456C342.391 13.848 341.935 13.384 341.359 13.064C340.799 12.744 340.159 12.584 339.439 12.584C338.719 12.584 338.071 12.744 337.495 13.064C336.919 13.384 336.463 13.848 336.127 14.456C335.791 15.048 335.623 15.76 335.623 16.592C335.623 17.408 335.791 18.12 336.127 18.728C336.463 19.336 336.919 19.8 337.495 20.12C338.071 20.44 338.719 20.6 339.439 20.6ZM354.548 23.168C353.46 23.168 352.5 22.968 351.668 22.568C350.836 22.152 350.188 21.528 349.724 20.696C349.26 19.848 349.028 18.784 349.028 17.504V10.184H352.028V17.096C352.028 18.248 352.284 19.112 352.796 19.688C353.324 20.248 354.068 20.528 355.028 20.528C355.732 20.528 356.34 20.384 356.852 20.096C357.38 19.808 357.788 19.376 358.076 18.8C358.38 18.224 358.532 17.512 358.532 16.664V10.184H361.532V23H358.676V19.544L359.18 20.6C358.748 21.432 358.116 22.072 357.284 22.52C356.452 22.952 355.54 23.168 354.548 23.168ZM370.284 23.168C368.876 23.168 367.788 22.808 367.02 22.088C366.252 21.352 365.868 20.272 365.868 18.848V7.352H368.868V18.776C368.868 19.384 369.02 19.856 369.324 20.192C369.644 20.528 370.084 20.696 370.644 20.696C371.316 20.696 371.876 20.52 372.324 20.168L373.164 22.304C372.812 22.592 372.38 22.808 371.868 22.952C371.356 23.096 370.828 23.168 370.284 23.168ZM363.756 12.68V10.28H372.3V12.68H363.756ZM380.151 23.168C378.743 23.168 377.655 22.808 376.887 22.088C376.119 21.352 375.735 20.272 375.735 18.848V7.352H378.735V18.776C378.735 19.384 378.887 19.856 379.191 20.192C379.511 20.528 379.951 20.696 380.511 20.696C381.183 20.696 381.743 20.52 382.191 20.168L383.031 22.304C382.679 22.592 382.247 22.808 381.735 22.952C381.223 23.096 380.695 23.168 380.151 23.168ZM373.623 12.68V10.28H382.167V12.68H373.623ZM390.837 23.168C389.525 23.168 388.357 22.888 387.333 22.328C386.309 21.752 385.501 20.968 384.909 19.976C384.317 18.984 384.021 17.856 384.021 16.592C384.021 15.312 384.317 14.184 384.909 13.208C385.501 12.216 386.309 11.44 387.333 10.88C388.357 10.32 389.525 10.04 390.837 10.04C392.165 10.04 393.341 10.32 394.365 10.88C395.405 11.44 396.213 12.208 396.789 13.184C397.381 14.16 397.677 15.296 397.677 16.592C397.677 17.856 397.381 18.984 396.789 19.976C396.213 20.968 395.405 21.752 394.365 22.328C393.341 22.888 392.165 23.168 390.837 23.168ZM390.837 20.6C391.573 20.6 392.229 20.44 392.805 20.12C393.381 19.8 393.829 19.336 394.149 18.728C394.485 18.12 394.653 17.408 394.653 16.592C394.653 15.76 394.485 15.048 394.149 14.456C393.829 13.848 393.381 13.384 392.805 13.064C392.229 12.744 391.581 12.584 390.861 12.584C390.125 12.584 389.469 12.744 388.893 13.064C388.333 13.384 387.885 13.848 387.549 14.456C387.213 15.048 387.045 15.76 387.045 16.592C387.045 17.408 387.213 18.12 387.549 18.728C387.885 19.336 388.333 19.8 388.893 20.12C389.469 20.44 390.117 20.6 390.837 20.6ZM407.818 10.04C408.842 10.04 409.754 10.24 410.554 10.64C411.37 11.04 412.01 11.656 412.474 12.488C412.938 13.304 413.17 14.36 413.17 15.656V23H410.17V16.04C410.17 14.904 409.898 14.056 409.354 13.496C408.826 12.936 408.082 12.656 407.122 12.656C406.418 12.656 405.794 12.8 405.25 13.088C404.706 13.376 404.282 13.808 403.978 14.384C403.69 14.944 403.546 15.656 403.546 16.52V23H400.546V10.184H403.402V13.64L402.898 12.584C403.346 11.768 403.994 11.144 404.842 10.712C405.706 10.264 406.698 10.04 407.818 10.04ZM428.433 23.168C427.025 23.168 425.937 22.808 425.169 22.088C424.401 21.352 424.017 20.272 424.017 18.848V7.352H427.017V18.776C427.017 19.384 427.169 19.856 427.473 20.192C427.793 20.528 428.233 20.696 428.793 20.696C429.465 20.696 430.025 20.52 430.473 20.168L431.313 22.304C430.961 22.592 430.529 22.808 430.017 22.952C429.505 23.096 428.977 23.168 428.433 23.168ZM421.905 12.68V10.28H430.449V12.68H421.905ZM439.119 23.168C437.807 23.168 436.639 22.888 435.615 22.328C434.591 21.752 433.783 20.968 433.191 19.976C432.599 18.984 432.303 17.856 432.303 16.592C432.303 15.312 432.599 14.184 433.191 13.208C433.783 12.216 434.591 11.44 435.615 10.88C436.639 10.32 437.807 10.04 439.119 10.04C440.447 10.04 441.623 10.32 442.647 10.88C443.687 11.44 444.495 12.208 445.071 13.184C445.663 14.16 445.959 15.296 445.959 16.592C445.959 17.856 445.663 18.984 445.071 19.976C444.495 20.968 443.687 21.752 442.647 22.328C441.623 22.888 440.447 23.168 439.119 23.168ZM439.119 20.6C439.855 20.6 440.511 20.44 441.087 20.12C441.663 19.8 442.111 19.336 442.431 18.728C442.767 18.12 442.935 17.408 442.935 16.592C442.935 15.76 442.767 15.048 442.431 14.456C442.111 13.848 441.663 13.384 441.087 13.064C440.511 12.744 439.863 12.584 439.143 12.584C438.407 12.584 437.751 12.744 437.175 13.064C436.615 13.384 436.167 13.848 435.831 14.456C435.495 15.048 435.327 15.76 435.327 16.592C435.327 17.408 435.495 18.12 435.831 18.728C436.167 19.336 436.615 19.8 437.175 20.12C437.751 20.44 438.399 20.6 439.119 20.6ZM461.22 23.168C459.908 23.168 458.74 22.888 457.716 22.328C456.692 21.752 455.884 20.968 455.292 19.976C454.7 18.984 454.404 17.856 454.404 16.592C454.404 15.312 454.7 14.184 455.292 13.208C455.884 12.216 456.692 11.44 457.716 10.88C458.74 10.32 459.908 10.04 461.22 10.04C462.548 10.04 463.724 10.32 464.748 10.88C465.788 11.44 466.596 12.208 467.172 13.184C467.764 14.16 468.06 15.296 468.06 16.592C468.06 17.856 467.764 18.984 467.172 19.976C466.596 20.968 465.788 21.752 464.748 22.328C463.724 22.888 462.548 23.168 461.22 23.168ZM461.22 20.6C461.956 20.6 462.612 20.44 463.188 20.12C463.764 19.8 464.212 19.336 464.532 18.728C464.868 18.12 465.036 17.408 465.036 16.592C465.036 15.76 464.868 15.048 464.532 14.456C464.212 13.848 463.764 13.384 463.188 13.064C462.612 12.744 461.964 12.584 461.244 12.584C460.508 12.584 459.852 12.744 459.276 13.064C458.716 13.384 458.268 13.848 457.932 14.456C457.596 15.048 457.428 15.76 457.428 16.592C457.428 17.408 457.596 18.12 457.932 18.728C458.268 19.336 458.716 19.8 459.276 20.12C459.852 20.44 460.5 20.6 461.22 20.6ZM478.201 10.04C479.225 10.04 480.137 10.24 480.937 10.64C481.753 11.04 482.393 11.656 482.857 12.488C483.321 13.304 483.553 14.36 483.553 15.656V23H480.553V16.04C480.553 14.904 480.281 14.056 479.737 13.496C479.209 12.936 478.465 12.656 477.505 12.656C476.801 12.656 476.177 12.8 475.633 13.088C475.089 13.376 474.665 13.808 474.361 14.384C474.073 14.944 473.929 15.656 473.929 16.52V23H470.929V10.184H473.785V13.64L473.281 12.584C473.729 11.768 474.377 11.144 475.225 10.712C476.089 10.264 477.081 10.04 478.201 10.04ZM498.815 23.168C497.407 23.168 496.319 22.808 495.551 22.088C494.783 21.352 494.399 20.272 494.399 18.848V7.352H497.399V18.776C497.399 19.384 497.551 19.856 497.855 20.192C498.175 20.528 498.615 20.696 499.175 20.696C499.847 20.696 500.407 20.52 500.855 20.168L501.695 22.304C501.343 22.592 500.911 22.808 500.399 22.952C499.887 23.096 499.359 23.168 498.815 23.168ZM492.287 12.68V10.28H500.831V12.68H492.287ZM511.435 10.04C512.459 10.04 513.371 10.24 514.171 10.64C514.987 11.04 515.627 11.656 516.091 12.488C516.555 13.304 516.787 14.36 516.787 15.656V23H513.787V16.04C513.787 14.904 513.515 14.056 512.971 13.496C512.443 12.936 511.699 12.656 510.739 12.656C510.035 12.656 509.411 12.8 508.867 13.088C508.323 13.376 507.899 13.808 507.595 14.384C507.307 14.944 507.163 15.656 507.163 16.52V23H504.163V5.192H507.163V13.64L506.515 12.584C506.963 11.768 507.611 11.144 508.459 10.712C509.323 10.264 510.315 10.04 511.435 10.04ZM526.64 23.168C525.216 23.168 523.968 22.888 522.896 22.328C521.84 21.752 521.016 20.968 520.424 19.976C519.848 18.984 519.56 17.856 519.56 16.592C519.56 15.312 519.84 14.184 520.4 13.208C520.976 12.216 521.76 11.44 522.752 10.88C523.76 10.32 524.904 10.04 526.184 10.04C527.432 10.04 528.544 10.312 529.52 10.856C530.496 11.4 531.264 12.168 531.824 13.16C532.384 14.152 532.664 15.32 532.664 16.664C532.664 16.792 532.656 16.936 532.64 17.096C532.64 17.256 532.632 17.408 532.616 17.552H521.936V15.56H531.032L529.856 16.184C529.872 15.448 529.72 14.8 529.4 14.24C529.08 13.68 528.64 13.24 528.08 12.92C527.536 12.6 526.904 12.44 526.184 12.44C525.448 12.44 524.8 12.6 524.24 12.92C523.696 13.24 523.264 13.688 522.944 14.264C522.64 14.824 522.488 15.488 522.488 16.256V16.736C522.488 17.504 522.664 18.184 523.016 18.776C523.368 19.368 523.864 19.824 524.504 20.144C525.144 20.464 525.88 20.624 526.712 20.624C527.432 20.624 528.08 20.512 528.656 20.288C529.232 20.064 529.744 19.712 530.192 19.232L531.8 21.08C531.224 21.752 530.496 22.272 529.616 22.64C528.752 22.992 527.76 23.168 526.64 23.168ZM548.059 23.168C546.715 23.168 545.515 22.888 544.459 22.328C543.419 21.752 542.603 20.968 542.011 19.976C541.419 18.984 541.123 17.856 541.123 16.592C541.123 15.312 541.419 14.184 542.011 13.208C542.603 12.216 543.419 11.44 544.459 10.88C545.515 10.32 546.715 10.04 548.059 10.04C549.307 10.04 550.403 10.296 551.347 10.808C552.307 11.304 553.035 12.04 553.531 13.016L551.227 14.36C550.843 13.752 550.371 13.304 549.811 13.016C549.267 12.728 548.675 12.584 548.035 12.584C547.299 12.584 546.635 12.744 546.043 13.064C545.451 13.384 544.987 13.848 544.651 14.456C544.315 15.048 544.147 15.76 544.147 16.592C544.147 17.424 544.315 18.144 544.651 18.752C544.987 19.344 545.451 19.8 546.043 20.12C546.635 20.44 547.299 20.6 548.035 20.6C548.675 20.6 549.267 20.456 549.811 20.168C550.371 19.88 550.843 19.432 551.227 18.824L553.531 20.168C553.035 21.128 552.307 21.872 551.347 22.4C550.403 22.912 549.307 23.168 548.059 23.168ZM561.697 23.168C560.385 23.168 559.217 22.888 558.193 22.328C557.169 21.752 556.361 20.968 555.769 19.976C555.177 18.984 554.881 17.856 554.881 16.592C554.881 15.312 555.177 14.184 555.769 13.208C556.361 12.216 557.169 11.44 558.193 10.88C559.217 10.32 560.385 10.04 561.697 10.04C563.025 10.04 564.201 10.32 565.225 10.88C566.265 11.44 567.073 12.208 567.649 13.184C568.241 14.16 568.537 15.296 568.537 16.592C568.537 17.856 568.241 18.984 567.649 19.976C567.073 20.968 566.265 21.752 565.225 22.328C564.201 22.888 563.025 23.168 561.697 23.168ZM561.697 20.6C562.433 20.6 563.089 20.44 563.665 20.12C564.241 19.8 564.689 19.336 565.009 18.728C565.345 18.12 565.513 17.408 565.513 16.592C565.513 15.76 565.345 15.048 565.009 14.456C564.689 13.848 564.241 13.384 563.665 13.064C563.089 12.744 562.441 12.584 561.721 12.584C560.985 12.584 560.329 12.744 559.753 13.064C559.193 13.384 558.745 13.848 558.409 14.456C558.073 15.048 557.905 15.76 557.905 16.592C557.905 17.408 558.073 18.12 558.409 18.728C558.745 19.336 559.193 19.8 559.753 20.12C560.329 20.44 560.977 20.6 561.697 20.6ZM578.678 10.04C579.702 10.04 580.614 10.24 581.414 10.64C582.23 11.04 582.87 11.656 583.334 12.488C583.798 13.304 584.03 14.36 584.03 15.656V23H581.03V16.04C581.03 14.904 580.758 14.056 580.214 13.496C579.686 12.936 578.942 12.656 577.982 12.656C577.278 12.656 576.654 12.8 576.11 13.088C575.566 13.376 575.142 13.808 574.838 14.384C574.55 14.944 574.406 15.656 574.406 16.52V23H571.406V10.184H574.262V13.64L573.758 12.584C574.206 11.768 574.854 11.144 575.702 10.712C576.566 10.264 577.558 10.04 578.678 10.04ZM592.659 23.168C591.251 23.168 590.163 22.808 589.395 22.088C588.627 21.352 588.243 20.272 588.243 18.848V7.352H591.243V18.776C591.243 19.384 591.395 19.856 591.699 20.192C592.019 20.528 592.459 20.696 593.019 20.696C593.691 20.696 594.251 20.52 594.699 20.168L595.539 22.304C595.187 22.592 594.755 22.808 594.243 22.952C593.731 23.096 593.203 23.168 592.659 23.168ZM586.131 12.68V10.28H594.675V12.68H586.131ZM598.007 23V10.184H600.863V13.712L600.527 12.68C600.911 11.816 601.511 11.16 602.327 10.712C603.159 10.264 604.191 10.04 605.423 10.04V12.896C605.295 12.864 605.175 12.848 605.063 12.848C604.951 12.832 604.839 12.824 604.727 12.824C603.591 12.824 602.687 13.16 602.015 13.832C601.343 14.488 601.007 15.472 601.007 16.784V23H598.007ZM613.611 23.168C612.299 23.168 611.131 22.888 610.107 22.328C609.083 21.752 608.275 20.968 607.683 19.976C607.091 18.984 606.795 17.856 606.795 16.592C606.795 15.312 607.091 14.184 607.683 13.208C608.275 12.216 609.083 11.44 610.107 10.88C611.131 10.32 612.299 10.04 613.611 10.04C614.939 10.04 616.115 10.32 617.139 10.88C618.179 11.44 618.987 12.208 619.563 13.184C620.155 14.16 620.451 15.296 620.451 16.592C620.451 17.856 620.155 18.984 619.563 19.976C618.987 20.968 618.179 21.752 617.139 22.328C616.115 22.888 614.939 23.168 613.611 23.168ZM613.611 20.6C614.347 20.6 615.003 20.44 615.579 20.12C616.155 19.8 616.603 19.336 616.923 18.728C617.259 18.12 617.427 17.408 617.427 16.592C617.427 15.76 617.259 15.048 616.923 14.456C616.603 13.848 616.155 13.384 615.579 13.064C615.003 12.744 614.355 12.584 613.635 12.584C612.899 12.584 612.243 12.744 611.667 13.064C611.107 13.384 610.659 13.848 610.323 14.456C609.987 15.048 609.819 15.76 609.819 16.592C609.819 17.408 609.987 18.12 610.323 18.728C610.659 19.336 611.107 19.8 611.667 20.12C612.243 20.44 612.891 20.6 613.611 20.6ZM623.32 23V5.192H626.32V23H623.32ZM630.257 23V5.192H633.257V23H630.257ZM643.219 23.168C641.795 23.168 640.547 22.888 639.475 22.328C638.419 21.752 637.595 20.968 637.003 19.976C636.427 18.984 636.139 17.856 636.139 16.592C636.139 15.312 636.419 14.184 636.979 13.208C637.555 12.216 638.339 11.44 639.331 10.88C640.339 10.32 641.483 10.04 642.763 10.04C644.011 10.04 645.123 10.312 646.099 10.856C647.075 11.4 647.843 12.168 648.403 13.16C648.963 14.152 649.243 15.32 649.243 16.664C649.243 16.792 649.235 16.936 649.219 17.096C649.219 17.256 649.211 17.408 649.195 17.552H638.515V15.56H647.611L646.435 16.184C646.451 15.448 646.299 14.8 645.979 14.24C645.659 13.68 645.219 13.24 644.659 12.92C644.115 12.6 643.483 12.44 642.763 12.44C642.027 12.44 641.379 12.6 640.819 12.92C640.275 13.24 639.843 13.688 639.523 14.264C639.219 14.824 639.067 15.488 639.067 16.256V16.736C639.067 17.504 639.243 18.184 639.595 18.776C639.947 19.368 640.443 19.824 641.083 20.144C641.723 20.464 642.459 20.624 643.291 20.624C644.011 20.624 644.659 20.512 645.235 20.288C645.811 20.064 646.323 19.712 646.771 19.232L648.379 21.08C647.803 21.752 647.075 22.272 646.195 22.64C645.331 22.992 644.339 23.168 643.219 23.168ZM652.124 23V10.184H654.98V13.712L654.644 12.68C655.028 11.816 655.628 11.16 656.444 10.712C657.276 10.264 658.308 10.04 659.54 10.04V12.896C659.412 12.864 659.292 12.848 659.18 12.848C659.068 12.832 658.956 12.824 658.844 12.824C657.708 12.824 656.804 13.16 656.132 13.832C655.46 14.488 655.124 15.472 655.124 16.784V23H652.124ZM676.731 23V20.408L676.563 19.856V15.32C676.563 14.44 676.299 13.76 675.771 13.28C675.243 12.784 674.443 12.536 673.371 12.536C672.651 12.536 671.939 12.648 671.235 12.872C670.547 13.096 669.963 13.408 669.483 13.808L668.307 11.624C668.995 11.096 669.811 10.704 670.755 10.448C671.715 10.176 672.707 10.04 673.731 10.04C675.587 10.04 677.019 10.488 678.027 11.384C679.051 12.264 679.563 13.632 679.563 15.488V23H676.731ZM672.699 23.168C671.739 23.168 670.899 23.008 670.179 22.688C669.459 22.352 668.899 21.896 668.499 21.32C668.115 20.728 667.923 20.064 667.923 19.328C667.923 18.608 668.091 17.96 668.427 17.384C668.779 16.808 669.347 16.352 670.131 16.016C670.915 15.68 671.955 15.512 673.251 15.512H676.971V17.504H673.467C672.443 17.504 671.755 17.672 671.403 18.008C671.051 18.328 670.875 18.728 670.875 19.208C670.875 19.752 671.091 20.184 671.523 20.504C671.955 20.824 672.555 20.984 673.323 20.984C674.059 20.984 674.715 20.816 675.291 20.48C675.883 20.144 676.307 19.648 676.563 18.992L677.067 20.792C676.779 21.544 676.259 22.128 675.507 22.544C674.771 22.96 673.835 23.168 672.699 23.168ZM690.685 10.04C691.709 10.04 692.621 10.24 693.421 10.64C694.237 11.04 694.877 11.656 695.341 12.488C695.805 13.304 696.037 14.36 696.037 15.656V23H693.037V16.04C693.037 14.904 692.765 14.056 692.221 13.496C691.693 12.936 690.949 12.656 689.989 12.656C689.285 12.656 688.661 12.8 688.117 13.088C687.573 13.376 687.149 13.808 686.845 14.384C686.557 14.944 686.413 15.656 686.413 16.52V23H683.413V10.184H686.269V13.64L685.765 12.584C686.213 11.768 686.861 11.144 687.709 10.712C688.573 10.264 689.565 10.04 690.685 10.04ZM705.29 23.168C704.058 23.168 702.946 22.896 701.954 22.352C700.978 21.792 700.21 21.024 699.65 20.048C699.09 19.072 698.81 17.92 698.81 16.592C698.81 15.264 699.09 14.112 699.65 13.136C700.21 12.16 700.978 11.4 701.954 10.856C702.946 10.312 704.058 10.04 705.29 10.04C706.362 10.04 707.322 10.28 708.17 10.76C709.018 11.224 709.69 11.936 710.186 12.896C710.682 13.856 710.93 15.088 710.93 16.592C710.93 18.08 710.69 19.312 710.21 20.288C709.73 21.248 709.066 21.968 708.218 22.448C707.37 22.928 706.394 23.168 705.29 23.168ZM705.65 20.6C706.37 20.6 707.01 20.44 707.57 20.12C708.146 19.8 708.602 19.336 708.938 18.728C709.29 18.12 709.466 17.408 709.466 16.592C709.466 15.76 709.29 15.048 708.938 14.456C708.602 13.848 708.146 13.384 707.57 13.064C707.01 12.744 706.37 12.584 705.65 12.584C704.93 12.584 704.282 12.744 703.706 13.064C703.146 13.384 702.69 13.848 702.338 14.456C702.002 15.048 701.834 15.76 701.834 16.592C701.834 17.408 702.002 18.12 702.338 18.728C702.69 19.336 703.146 19.8 703.706 20.12C704.282 20.44 704.93 20.6 705.65 20.6ZM709.538 23V19.976L709.658 16.568L709.418 13.16V5.192H712.394V23H709.538ZM725.808 23L721.104 10.184H723.936L727.968 21.488H726.624L730.848 10.184H733.368L737.472 21.488H736.152L740.304 10.184H742.968L738.24 23H735.36L731.616 12.992H732.504L728.688 23H725.808ZM752.528 23V20.408L752.36 19.856V15.32C752.36 14.44 752.096 13.76 751.568 13.28C751.04 12.784 750.24 12.536 749.168 12.536C748.448 12.536 747.736 12.648 747.032 12.872C746.344 13.096 745.76 13.408 745.28 13.808L744.104 11.624C744.792 11.096 745.608 10.704 746.552 10.448C747.512 10.176 748.504 10.04 749.528 10.04C751.384 10.04 752.816 10.488 753.824 11.384C754.848 12.264 755.36 13.632 755.36 15.488V23H752.528ZM748.496 23.168C747.536 23.168 746.696 23.008 745.976 22.688C745.256 22.352 744.696 21.896 744.296 21.32C743.912 20.728 743.72 20.064 743.72 19.328C743.72 18.608 743.888 17.96 744.224 17.384C744.576 16.808 745.144 16.352 745.928 16.016C746.712 15.68 747.752 15.512 749.048 15.512H752.768V17.504H749.264C748.24 17.504 747.552 17.672 747.2 18.008C746.848 18.328 746.672 18.728 746.672 19.208C746.672 19.752 746.888 20.184 747.32 20.504C747.752 20.824 748.352 20.984 749.12 20.984C749.856 20.984 750.512 20.816 751.088 20.48C751.68 20.144 752.104 19.648 752.36 18.992L752.864 20.792C752.576 21.544 752.056 22.128 751.304 22.544C750.568 22.96 749.632 23.168 748.496 23.168ZM759.21 23V10.184H762.21V23H759.21ZM760.722 8.072C760.162 8.072 759.698 7.896 759.33 7.544C758.978 7.192 758.802 6.768 758.802 6.272C758.802 5.76 758.978 5.336 759.33 5C759.698 4.648 760.162 4.472 760.722 4.472C761.282 4.472 761.738 4.64 762.09 4.976C762.458 5.296 762.642 5.704 762.642 6.2C762.642 6.728 762.466 7.176 762.114 7.544C761.762 7.896 761.298 8.072 760.722 8.072ZM770.972 23.168C769.564 23.168 768.476 22.808 767.708 22.088C766.94 21.352 766.556 20.272 766.556 18.848V7.352H769.556V18.776C769.556 19.384 769.708 19.856 770.012 20.192C770.332 20.528 770.772 20.696 771.332 20.696C772.004 20.696 772.564 20.52 773.012 20.168L773.852 22.304C773.5 22.592 773.068 22.808 772.556 22.952C772.044 23.096 771.516 23.168 770.972 23.168ZM764.444 12.68V10.28H772.988V12.68H764.444ZM783.36 23V9.464C783.36 8.12 783.752 7.048 784.536 6.248C785.336 5.432 786.472 5.024 787.944 5.024C788.472 5.024 788.968 5.08 789.432 5.192C789.912 5.304 790.312 5.48 790.632 5.72L789.816 7.976C789.592 7.8 789.336 7.672 789.048 7.592C788.76 7.496 788.464 7.448 788.16 7.448C787.536 7.448 787.064 7.624 786.744 7.976C786.424 8.312 786.264 8.824 786.264 9.512V10.952L786.36 12.296V23H783.36ZM781.248 12.68V10.28H789.792V12.68H781.248ZM797.384 23.168C796.072 23.168 794.904 22.888 793.88 22.328C792.856 21.752 792.048 20.968 791.456 19.976C790.864 18.984 790.568 17.856 790.568 16.592C790.568 15.312 790.864 14.184 791.456 13.208C792.048 12.216 792.856 11.44 793.88 10.88C794.904 10.32 796.072 10.04 797.384 10.04C798.712 10.04 799.888 10.32 800.912 10.88C801.952 11.44 802.76 12.208 803.336 13.184C803.928 14.16 804.224 15.296 804.224 16.592C804.224 17.856 803.928 18.984 803.336 19.976C802.76 20.968 801.952 21.752 800.912 22.328C799.888 22.888 798.712 23.168 797.384 23.168ZM797.384 20.6C798.12 20.6 798.776 20.44 799.352 20.12C799.928 19.8 800.376 19.336 800.696 18.728C801.032 18.12 801.2 17.408 801.2 16.592C801.2 15.76 801.032 15.048 800.696 14.456C800.376 13.848 799.928 13.384 799.352 13.064C798.776 12.744 798.128 12.584 797.408 12.584C796.672 12.584 796.016 12.744 795.44 13.064C794.88 13.384 794.432 13.848 794.096 14.456C793.76 15.048 793.592 15.76 793.592 16.592C793.592 17.408 793.76 18.12 794.096 18.728C794.432 19.336 794.88 19.8 795.44 20.12C796.016 20.44 796.664 20.6 797.384 20.6ZM807.093 23V10.184H809.949V13.712L809.613 12.68C809.997 11.816 810.597 11.16 811.413 10.712C812.245 10.264 813.277 10.04 814.509 10.04V12.896C814.381 12.864 814.261 12.848 814.149 12.848C814.037 12.832 813.925 12.824 813.813 12.824C812.677 12.824 811.773 13.16 811.101 13.832C810.429 14.488 810.093 15.472 810.093 16.784V23H807.093ZM828.46 23.24C827.276 23.24 826.116 23.072 824.98 22.736C823.86 22.384 822.916 21.904 822.148 21.296L823.468 18.872C824.076 19.368 824.812 19.768 825.676 20.072C826.556 20.376 827.468 20.528 828.412 20.528C829.516 20.528 830.38 20.296 831.004 19.832C831.644 19.368 831.964 18.744 831.964 17.96C831.964 17.432 831.828 16.968 831.556 16.568C831.3 16.168 830.836 15.864 830.164 15.656C829.508 15.448 828.604 15.344 827.452 15.344H823.396L824.26 6.2H834.124V8.816H825.412L827.044 7.328L826.396 14.168L824.764 12.704H828.148C829.812 12.704 831.148 12.928 832.156 13.376C833.18 13.808 833.924 14.416 834.388 15.2C834.868 15.968 835.108 16.848 835.108 17.84C835.108 18.816 834.868 19.712 834.388 20.528C833.908 21.344 833.172 22 832.18 22.496C831.204 22.992 829.964 23.24 828.46 23.24ZM841.78 23.168C840.708 23.168 839.676 23.032 838.684 22.76C837.708 22.472 836.932 22.128 836.356 21.728L837.508 19.448C838.084 19.816 838.772 20.12 839.572 20.36C840.372 20.6 841.172 20.72 841.972 20.72C842.916 20.72 843.596 20.592 844.012 20.336C844.444 20.08 844.66 19.736 844.66 19.304C844.66 18.952 844.516 18.688 844.228 18.512C843.94 18.32 843.564 18.176 843.1 18.08C842.636 17.984 842.116 17.896 841.54 17.816C840.98 17.736 840.412 17.632 839.836 17.504C839.276 17.36 838.764 17.16 838.3 16.904C837.836 16.632 837.46 16.272 837.172 15.824C836.884 15.376 836.74 14.784 836.74 14.048C836.74 13.232 836.972 12.528 837.436 11.936C837.9 11.328 838.548 10.864 839.38 10.544C840.228 10.208 841.228 10.04 842.38 10.04C843.244 10.04 844.116 10.136 844.996 10.328C845.876 10.52 846.604 10.792 847.18 11.144L846.028 13.424C845.42 13.056 844.804 12.808 844.18 12.68C843.572 12.536 842.964 12.464 842.356 12.464C841.444 12.464 840.764 12.6 840.316 12.872C839.884 13.144 839.668 13.488 839.668 13.904C839.668 14.288 839.812 14.576 840.1 14.768C840.388 14.96 840.764 15.112 841.228 15.224C841.692 15.336 842.204 15.432 842.764 15.512C843.34 15.576 843.908 15.68 844.468 15.824C845.028 15.968 845.54 16.168 846.004 16.424C846.484 16.664 846.868 17.008 847.156 17.456C847.444 17.904 847.588 18.488 847.588 19.208C847.588 20.008 847.348 20.704 846.868 21.296C846.404 21.888 845.74 22.352 844.876 22.688C844.012 23.008 842.98 23.168 841.78 23.168ZM856.051 23.168C854.707 23.168 853.507 22.888 852.451 22.328C851.411 21.752 850.595 20.968 850.003 19.976C849.411 18.984 849.115 17.856 849.115 16.592C849.115 15.312 849.411 14.184 850.003 13.208C850.595 12.216 851.411 11.44 852.451 10.88C853.507 10.32 854.707 10.04 856.051 10.04C857.299 10.04 858.395 10.296 859.339 10.808C860.299 11.304 861.027 12.04 861.523 13.016L859.219 14.36C858.835 13.752 858.363 13.304 857.803 13.016C857.259 12.728 856.667 12.584 856.027 12.584C855.291 12.584 854.627 12.744 854.035 13.064C853.443 13.384 852.979 13.848 852.643 14.456C852.307 15.048 852.139 15.76 852.139 16.592C852.139 17.424 852.307 18.144 852.643 18.752C852.979 19.344 853.443 19.8 854.035 20.12C854.627 20.44 855.291 20.6 856.027 20.6C856.667 20.6 857.259 20.456 857.803 20.168C858.363 19.88 858.835 19.432 859.219 18.824L861.523 20.168C861.027 21.128 860.299 21.872 859.339 22.4C858.395 22.912 857.299 23.168 856.051 23.168ZM869.953 23.168C868.529 23.168 867.281 22.888 866.209 22.328C865.153 21.752 864.329 20.968 863.737 19.976C863.161 18.984 862.873 17.856 862.873 16.592C862.873 15.312 863.153 14.184 863.713 13.208C864.289 12.216 865.073 11.44 866.065 10.88C867.073 10.32 868.217 10.04 869.497 10.04C870.745 10.04 871.857 10.312 872.833 10.856C873.809 11.4 874.577 12.168 875.137 13.16C875.697 14.152 875.977 15.32 875.977 16.664C875.977 16.792 875.969 16.936 875.953 17.096C875.953 17.256 875.945 17.408 875.929 17.552H865.249V15.56H874.345L873.169 16.184C873.185 15.448 873.033 14.8 872.713 14.24C872.393 13.68 871.953 13.24 871.393 12.92C870.849 12.6 870.217 12.44 869.497 12.44C868.761 12.44 868.113 12.6 867.553 12.92C867.009 13.24 866.577 13.688 866.257 14.264C865.953 14.824 865.801 15.488 865.801 16.256V16.736C865.801 17.504 865.977 18.184 866.329 18.776C866.681 19.368 867.177 19.824 867.817 20.144C868.457 20.464 869.193 20.624 870.025 20.624C870.745 20.624 871.393 20.512 871.969 20.288C872.545 20.064 873.057 19.712 873.505 19.232L875.113 21.08C874.537 21.752 873.809 22.272 872.929 22.64C872.065 22.992 871.073 23.168 869.953 23.168ZM890.315 23.168C888.907 23.168 887.819 22.808 887.051 22.088C886.283 21.352 885.899 20.272 885.899 18.848V7.352H888.899V18.776C888.899 19.384 889.051 19.856 889.355 20.192C889.675 20.528 890.115 20.696 890.675 20.696C891.347 20.696 891.907 20.52 892.355 20.168L893.195 22.304C892.843 22.592 892.411 22.808 891.899 22.952C891.387 23.096 890.859 23.168 890.315 23.168ZM883.787 12.68V10.28H892.331V12.68H883.787ZM901.001 23.168C899.689 23.168 898.521 22.888 897.497 22.328C896.473 21.752 895.665 20.968 895.073 19.976C894.481 18.984 894.185 17.856 894.185 16.592C894.185 15.312 894.481 14.184 895.073 13.208C895.665 12.216 896.473 11.44 897.497 10.88C898.521 10.32 899.689 10.04 901.001 10.04C902.329 10.04 903.505 10.32 904.529 10.88C905.569 11.44 906.377 12.208 906.953 13.184C907.545 14.16 907.841 15.296 907.841 16.592C907.841 17.856 907.545 18.984 906.953 19.976C906.377 20.968 905.569 21.752 904.529 22.328C903.505 22.888 902.329 23.168 901.001 23.168ZM901.001 20.6C901.737 20.6 902.393 20.44 902.969 20.12C903.545 19.8 903.993 19.336 904.313 18.728C904.649 18.12 904.817 17.408 904.817 16.592C904.817 15.76 904.649 15.048 904.313 14.456C903.993 13.848 903.545 13.384 902.969 13.064C902.393 12.744 901.745 12.584 901.025 12.584C900.289 12.584 899.633 12.744 899.057 13.064C898.497 13.384 898.049 13.848 897.713 14.456C897.377 15.048 897.209 15.76 897.209 16.592C897.209 17.408 897.377 18.12 897.713 18.728C898.049 19.336 898.497 19.8 899.057 20.12C899.633 20.44 900.281 20.6 901.001 20.6ZM923.223 23.168C921.879 23.168 920.679 22.888 919.623 22.328C918.583 21.752 917.767 20.968 917.175 19.976C916.583 18.984 916.287 17.856 916.287 16.592C916.287 15.312 916.583 14.184 917.175 13.208C917.767 12.216 918.583 11.44 919.623 10.88C920.679 10.32 921.879 10.04 923.223 10.04C924.471 10.04 925.567 10.296 926.511 10.808C927.471 11.304 928.199 12.04 928.695 13.016L926.391 14.36C926.007 13.752 925.535 13.304 924.975 13.016C924.431 12.728 923.839 12.584 923.199 12.584C922.463 12.584 921.799 12.744 921.207 13.064C920.615 13.384 920.151 13.848 919.815 14.456C919.479 15.048 919.311 15.76 919.311 16.592C919.311 17.424 919.479 18.144 919.815 18.752C920.151 19.344 920.615 19.8 921.207 20.12C921.799 20.44 922.463 20.6 923.199 20.6C923.839 20.6 924.431 20.456 924.975 20.168C925.535 19.88 926.007 19.432 926.391 18.824L928.695 20.168C928.199 21.128 927.471 21.872 926.511 22.4C925.567 22.912 924.471 23.168 923.223 23.168ZM936.861 23.168C935.549 23.168 934.381 22.888 933.357 22.328C932.333 21.752 931.525 20.968 930.933 19.976C930.341 18.984 930.045 17.856 930.045 16.592C930.045 15.312 930.341 14.184 930.933 13.208C931.525 12.216 932.333 11.44 933.357 10.88C934.381 10.32 935.549 10.04 936.861 10.04C938.189 10.04 939.365 10.32 940.389 10.88C941.429 11.44 942.237 12.208 942.813 13.184C943.405 14.16 943.701 15.296 943.701 16.592C943.701 17.856 943.405 18.984 942.813 19.976C942.237 20.968 941.429 21.752 940.389 22.328C939.365 22.888 938.189 23.168 936.861 23.168ZM936.861 20.6C937.597 20.6 938.253 20.44 938.829 20.12C939.405 19.8 939.853 19.336 940.173 18.728C940.509 18.12 940.677 17.408 940.677 16.592C940.677 15.76 940.509 15.048 940.173 14.456C939.853 13.848 939.405 13.384 938.829 13.064C938.253 12.744 937.605 12.584 936.885 12.584C936.149 12.584 935.493 12.744 934.917 13.064C934.357 13.384 933.909 13.848 933.573 14.456C933.237 15.048 933.069 15.76 933.069 16.592C933.069 17.408 933.237 18.12 933.573 18.728C933.909 19.336 934.357 19.8 934.917 20.12C935.493 20.44 936.141 20.6 936.861 20.6ZM953.842 10.04C954.866 10.04 955.778 10.24 956.578 10.64C957.394 11.04 958.034 11.656 958.498 12.488C958.962 13.304 959.194 14.36 959.194 15.656V23H956.194V16.04C956.194 14.904 955.922 14.056 955.378 13.496C954.85 12.936 954.106 12.656 953.146 12.656C952.442 12.656 951.818 12.8 951.274 13.088C950.73 13.376 950.306 13.808 950.002 14.384C949.714 14.944 949.57 15.656 949.57 16.52V23H946.57V10.184H949.426V13.64L948.922 12.584C949.37 11.768 950.018 11.144 950.866 10.712C951.73 10.264 952.722 10.04 953.842 10.04ZM970.271 10.04C971.295 10.04 972.207 10.24 973.007 10.64C973.823 11.04 974.463 11.656 974.927 12.488C975.391 13.304 975.623 14.36 975.623 15.656V23H972.623V16.04C972.623 14.904 972.351 14.056 971.807 13.496C971.279 12.936 970.535 12.656 969.575 12.656C968.871 12.656 968.247 12.8 967.703 13.088C967.159 13.376 966.735 13.808 966.431 14.384C966.143 14.944 965.999 15.656 965.999 16.52V23H962.999V10.184H965.855V13.64L965.351 12.584C965.799 11.768 966.447 11.144 967.295 10.712C968.159 10.264 969.151 10.04 970.271 10.04ZM985.476 23.168C984.052 23.168 982.804 22.888 981.732 22.328C980.676 21.752 979.852 20.968 979.26 19.976C978.684 18.984 978.396 17.856 978.396 16.592C978.396 15.312 978.676 14.184 979.236 13.208C979.812 12.216 980.596 11.44 981.588 10.88C982.596 10.32 983.74 10.04 985.02 10.04C986.268 10.04 987.38 10.312 988.356 10.856C989.332 11.4 990.1 12.168 990.66 13.16C991.22 14.152 991.5 15.32 991.5 16.664C991.5 16.792 991.492 16.936 991.476 17.096C991.476 17.256 991.468 17.408 991.452 17.552H980.772V15.56H989.868L988.692 16.184C988.708 15.448 988.556 14.8 988.236 14.24C987.916 13.68 987.476 13.24 986.916 12.92C986.372 12.6 985.74 12.44 985.02 12.44C984.284 12.44 983.636 12.6 983.076 12.92C982.532 13.24 982.1 13.688 981.78 14.264C981.476 14.824 981.324 15.488 981.324 16.256V16.736C981.324 17.504 981.5 18.184 981.852 18.776C982.204 19.368 982.7 19.824 983.34 20.144C983.98 20.464 984.716 20.624 985.548 20.624C986.268 20.624 986.916 20.512 987.492 20.288C988.068 20.064 988.58 19.712 989.028 19.232L990.636 21.08C990.06 21.752 989.332 22.272 988.452 22.64C987.588 22.992 986.596 23.168 985.476 23.168ZM1000.26 23.168C998.918 23.168 997.718 22.888 996.662 22.328C995.622 21.752 994.806 20.968 994.214 19.976C993.622 18.984 993.326 17.856 993.326 16.592C993.326 15.312 993.622 14.184 994.214 13.208C994.806 12.216 995.622 11.44 996.662 10.88C997.718 10.32 998.918 10.04 1000.26 10.04C1001.51 10.04 1002.61 10.296 1003.55 10.808C1004.51 11.304 1005.24 12.04 1005.73 13.016L1003.43 14.36C1003.05 13.752 1002.57 13.304 1002.01 13.016C1001.47 12.728 1000.88 12.584 1000.24 12.584C999.502 12.584 998.838 12.744 998.246 13.064C997.654 13.384 997.19 13.848 996.854 14.456C996.518 15.048 996.35 15.76 996.35 16.592C996.35 17.424 996.518 18.144 996.854 18.752C997.19 19.344 997.654 19.8 998.246 20.12C998.838 20.44 999.502 20.6 1000.24 20.6C1000.88 20.6 1001.47 20.456 1002.01 20.168C1002.57 19.88 1003.05 19.432 1003.43 18.824L1005.73 20.168C1005.24 21.128 1004.51 21.872 1003.55 22.4C1002.61 22.912 1001.51 23.168 1000.26 23.168ZM1013.32 23.168C1011.91 23.168 1010.82 22.808 1010.05 22.088C1009.28 21.352 1008.9 20.272 1008.9 18.848V7.352H1011.9V18.776C1011.9 19.384 1012.05 19.856 1012.36 20.192C1012.68 20.528 1013.12 20.696 1013.68 20.696C1014.35 20.696 1014.91 20.52 1015.36 20.168L1016.2 22.304C1015.84 22.592 1015.41 22.808 1014.9 22.952C1014.39 23.096 1013.86 23.168 1013.32 23.168ZM1006.79 12.68V10.28H1015.33V12.68H1006.79ZM1026.71 27.656H1023.86C1024.85 25.896 1025.57 24.104 1026.02 22.28C1026.48 20.44 1026.71 18.488 1026.71 16.424C1026.71 14.36 1026.48 12.416 1026.02 10.592C1025.57 8.752 1024.85 6.952 1023.86 5.192H1026.71C1027.67 6.616 1028.4 8.296 1028.9 10.232C1029.39 12.152 1029.64 14.216 1029.64 16.424C1029.64 18.632 1029.39 20.696 1028.9 22.616C1028.4 24.52 1027.67 26.2 1026.71 27.656Z" fill="#252D3B"/>
</svg>
