<svg width="132" height="108" viewBox="0 0 132 108" fill="none" xmlns="http://www.w3.org/2000/svg">
<path d="M27.0991 38.4648H12.3516V106.247H27.0991V38.4648Z" fill="#252D3B"/>
<path d="M37.7594 38.1373L27.2734 40.457L41.7626 105.954L52.2486 103.634L37.7594 38.1373Z" fill="#AF8CFF"/>
<path d="M48.65 38.1334L38.1641 40.4531L52.6533 105.95L63.1392 103.63L48.65 38.1334Z" fill="white" stroke="#252D3B" stroke-width="1.3" stroke-miterlimit="10" stroke-linecap="round"/>
<path d="M0.648438 106.66H130.699" stroke="#252D3B" stroke-width="1.3" stroke-miterlimit="10" stroke-linecap="round"/>
<path d="M85.9505 76.561C85.9505 76.561 65.0631 25.4529 74.8398 20.564C84.6164 15.6752 91.728 51.6734 91.728 51.6734C91.728 51.6734 91.728 3.67579 108.616 0.120997C125.505 -3.43479 104.172 72.5618 104.172 72.5618L85.9505 76.561Z" fill="#F4E3FF"/>
<path d="M94.5172 106.162C85.1018 106.162 77.4688 98.5286 77.4688 89.1132V69.6289H111.565V89.1132C111.565 98.5296 103.933 106.162 94.5172 106.162Z" fill="white" stroke="#252D3B" stroke-width="1.3" stroke-miterlimit="10" stroke-linecap="round"/>
<path d="M81.3013 35.5273C80.5377 36.6732 90.0861 69.1377 90.0861 69.1377L81.3013 35.5273Z" fill="white"/>
<path d="M81.3013 35.5273C80.5377 36.6732 90.0861 69.1377 90.0861 69.1377" stroke="#252D3B" stroke-width="1.3" stroke-miterlimit="10" stroke-linecap="round"/>
<path d="M106.885 14.1406C106.885 14.1406 99.2459 44.3133 97.7188 69.1398L106.885 14.1406Z" fill="white"/>
<path d="M106.885 14.1406C106.885 14.1406 99.2459 44.3133 97.7188 69.1398" stroke="#252D3B" stroke-width="1.3" stroke-miterlimit="10" stroke-linecap="round"/>
</svg>
