<svg width="444" height="272" viewBox="0 0 444 272" fill="none" xmlns="http://www.w3.org/2000/svg">
<path d="M442.122 252.123C442.122 261.859 434.201 269.78 424.464 269.78H-24.6746C-34.4116 269.78 -42.3328 261.859 -42.3328 252.123V189.333C-42.3328 179.596 -34.4116 171.675 -24.6746 171.675H424.464C434.201 171.675 442.122 179.596 442.122 189.333V252.123ZM436.749 174.426C433.407 171.667 429.126 170.008 424.464 170.008H-24.6746C-29.3375 170.008 -33.6181 171.667 -36.961 174.426C-41.2572 177.974 -44 183.339 -44 189.333V252.123C-44 260.781 -38.277 268.127 -30.4158 270.577C-28.6011 271.143 -26.673 271.447 -24.6749 271.447H424.464C426.462 271.447 428.39 271.143 430.204 270.577C438.066 268.127 443.789 260.781 443.789 252.123V189.333C443.789 183.339 441.045 177.974 436.749 174.426Z" fill="#13171E"/>
<path d="M433.942 250.398C433.942 256.09 429.311 260.72 423.619 260.72H422.38V260.378H423.619C429.122 260.378 433.598 255.901 433.598 250.398V188.875C433.598 183.372 429.122 178.895 423.619 178.895H422.38V178.552H423.619C429.311 178.552 433.942 183.183 433.942 188.874V250.398ZM421.268 261.317H418.197V260.378H421.268V261.317ZM417.086 260.72H327.004V178.552H417.086V178.896H327.764C327.534 178.896 327.347 179.082 327.347 179.312V259.961C327.347 260.191 327.534 260.378 327.764 260.378H417.086V260.72ZM423.619 179.729C428.662 179.729 432.765 183.832 432.765 188.875V250.398C432.765 255.44 428.662 259.545 423.619 259.545H328.181V179.729L423.619 179.729ZM418.197 177.955H421.269V178.895H418.197V177.955ZM325.337 260.72H319.083V178.552H325.337V260.72ZM317.416 178.552V222.763H81.9514V178.552H317.416ZM202.81 260.72H196.556V224.43H202.81V260.72ZM80.2844 260.72H74.0291V178.552H80.2844V260.72ZM72.3622 260.72H-17.7196V260.378H71.602C71.8322 260.378 72.0186 260.191 72.0186 259.961V179.312C72.0186 179.082 71.8319 178.896 71.602 178.896H-17.7196V178.552H72.3622V260.72ZM-18.8309 261.317H-21.9037V260.378H-18.8309V261.317ZM-23.0148 260.72H-24.2515C-29.9436 260.72 -34.5753 256.09 -34.5753 250.398V188.875C-34.5753 183.183 -29.9433 178.552 -24.2515 178.552H-23.0148V178.896H-24.2515C-29.7545 178.896 -34.232 183.372 -34.232 188.875V250.398C-34.232 255.901 -29.7548 260.378 -24.2515 260.378H-23.0148V260.72ZM71.1854 179.729V259.544H-24.2515C-29.2944 259.544 -33.3985 255.44 -33.3985 250.397V188.874C-33.3985 183.832 -29.2944 179.728 -24.2515 179.728L71.1854 179.729ZM-21.9034 177.955H-18.8307V178.895H-21.9034V177.955ZM423.619 176.885H422.38V176.844H417.086V176.885H-17.7196V176.844H-23.0148V176.885H-24.2515C-30.8627 176.885 -36.2422 182.264 -36.2422 188.874V250.397C-36.2422 257.01 -30.8624 262.387 -24.2515 262.387H-23.0148V262.428H-17.7196V262.387H81.9514V224.43H194.889V260.721H81.9535V262.388H194.893V262.387H204.473V262.388H317.412V260.721H204.477V224.43H317.415V262.387H417.085V262.428H422.379V262.387H423.619C430.23 262.387 435.608 257.01 435.608 250.397V188.874C435.608 182.264 430.23 176.885 423.619 176.885H423.619Z" fill="#13171E"/>
<path d="M317.412 214.848H81.9531V216.515H317.412V214.848Z" fill="#13171E"/>
<path d="M343.794 211.023V228.253C343.794 230.188 342.414 231.862 340.521 232.23C340.248 232.282 339.981 232.291 339.716 232.289C338.18 231.57 337.137 230.02 337.137 228.253V211.023C337.137 209.244 338.193 207.683 339.746 206.972C340 206.972 340.26 206.997 340.513 207.045C341.311 207.2 342.034 207.585 342.602 208.154C343.37 208.921 343.794 209.94 343.794 211.023ZM335.274 211.023C335.274 208.997 336.627 207.282 338.479 206.735C337.148 207.709 336.304 209.283 336.304 211.023V228.253C336.304 229.992 337.148 231.567 338.479 232.539C336.627 231.994 335.274 230.278 335.274 228.253V211.023ZM339.741 233.971C340.098 233.971 340.464 233.936 340.834 233.868C343.515 233.345 345.461 230.984 345.461 228.253V211.023C345.461 209.496 344.865 208.059 343.781 206.975C342.977 206.171 341.959 205.629 340.828 205.407C337.253 204.746 334.023 207.515 334.023 211.023V228.253C334.023 231.406 336.588 233.971 339.741 233.971Z" fill="#13171E"/>
<path d="M63.6768 211.022V228.253C63.6768 230.187 62.2977 231.861 60.4051 232.23C60.1307 232.28 59.8629 232.29 59.5973 232.287C58.0626 231.568 57.0225 230.019 57.0225 228.253V211.022C57.0225 209.243 58.077 207.683 59.6306 206.972C59.884 206.972 60.144 206.996 60.3974 207.044C61.1954 207.2 61.9166 207.583 62.4865 208.153C63.2533 208.921 63.6768 209.94 63.6768 211.022ZM55.1566 211.022C55.1566 208.996 56.5123 207.282 58.3627 206.735C57.0337 207.708 56.189 209.282 56.189 211.022V228.253C56.189 229.992 57.0337 231.565 58.3627 232.539C56.5123 231.992 55.1566 230.278 55.1566 228.253V211.022ZM59.6261 233.97C59.9827 233.97 60.3472 233.936 60.7174 233.867C63.3978 233.345 65.3438 230.983 65.3438 228.253V211.023C65.3438 209.496 64.7482 208.059 63.6656 206.974C62.861 206.171 61.8421 205.628 60.7108 205.406C57.1313 204.747 53.9062 207.513 53.9062 211.023V228.253C53.9062 231.406 56.4722 233.97 59.6261 233.97Z" fill="#13171E"/>
<path d="M266.692 208.14V214.842H132.667V208.14H266.692ZM268.359 216.509V208.137H131V216.509H268.359Z" fill="#13171E"/>
<path d="M128.222 191.119C128.222 189.637 129.426 188.433 130.908 188.433H268.464C269.946 188.433 271.15 189.637 271.15 191.119V203.787C271.15 205.267 269.946 206.472 268.464 206.472H130.908C129.426 206.472 128.222 205.267 128.222 203.787V191.119ZM130.908 208.139H268.464C270.865 208.139 272.817 206.187 272.817 203.787V191.119C272.817 188.718 270.865 186.766 268.464 186.766H130.908C128.507 186.766 126.555 188.718 126.555 191.119V203.787C126.555 206.187 128.507 208.139 130.908 208.139Z" fill="#13171E"/>
<path d="M137.744 210.056H143.501C144.242 210.056 144.845 210.659 144.845 211.4C144.845 212.141 144.242 212.745 143.501 212.745H137.744C137.003 212.745 136.4 212.141 136.4 211.4C136.4 210.659 137.003 210.056 137.744 210.056ZM137.744 213.856H143.501C144.855 213.856 145.956 212.755 145.956 211.4C145.956 210.047 144.855 208.945 143.501 208.945H137.744C136.39 208.945 135.289 210.047 135.289 211.4C135.289 212.755 136.39 213.856 137.744 213.856Z" fill="#13171E"/>
<path d="M255.861 210.056H261.618C262.36 210.056 262.962 210.659 262.962 211.4C262.962 212.141 262.36 212.745 261.618 212.745H255.861C255.12 212.745 254.518 212.141 254.518 211.4C254.518 210.659 255.12 210.056 255.861 210.056ZM255.861 213.856H261.618C262.972 213.856 264.073 212.755 264.073 211.4C264.073 210.047 262.972 208.945 261.618 208.945H255.861C254.507 208.945 253.406 210.047 253.406 211.4C253.406 212.755 254.507 213.856 255.861 213.856Z" fill="#13171E"/>
<path d="M267.539 194.497C267.539 196.473 265.93 198.081 263.954 198.081C261.978 198.081 260.369 196.473 260.369 194.497C260.369 192.521 261.978 190.912 263.954 190.912C265.93 190.912 267.539 192.521 267.539 194.497ZM263.954 199.192C266.543 199.192 268.65 197.086 268.65 194.497C268.65 191.908 266.543 189.801 263.954 189.801C261.365 189.801 259.258 191.908 259.258 194.497C259.258 197.086 261.365 199.192 263.954 199.192Z" fill="#13171E"/>
<path d="M133.92 202.951H192.192C192.618 202.951 192.965 203.298 192.965 203.725C192.965 204.152 192.618 204.5 192.192 204.5H133.92C133.493 204.5 133.146 204.152 133.146 203.725C133.146 203.298 133.493 202.951 133.92 202.951ZM133.92 205.333H192.192C193.078 205.333 193.799 204.611 193.799 203.725C193.799 202.838 193.078 202.117 192.192 202.117H133.92C133.034 202.117 132.312 202.838 132.312 203.725C132.312 204.611 133.034 205.333 133.92 205.333Z" fill="#13171E"/>
<path d="M222.006 251.184L294.921 251.389C295.275 251.39 295.606 251.529 295.854 251.78C296.103 252.029 296.239 252.362 296.238 252.715L296.21 259.56C296.207 260.286 295.615 260.876 294.889 260.876V261.709V261.708L294.883 260.876L221.969 260.671C221.239 260.669 220.649 260.073 220.652 259.345L220.68 252.5C220.682 251.775 221.275 251.184 222.006 251.184ZM297.638 260.722C297.79 260.368 297.876 259.977 297.877 259.567L297.905 252.721C297.908 251.922 297.599 251.172 297.037 250.605C297.002 250.57 296.961 250.545 296.924 250.512C296.39 251.013 295.677 251.326 294.89 251.326H294.877L221.962 251.122C221.213 251.119 220.513 250.833 219.965 250.332C219.384 250.875 219.016 251.64 219.012 252.493L218.984 259.339C218.982 259.84 219.117 260.307 219.335 260.722C219.831 261.674 220.815 262.334 221.962 262.338L240.19 262.389L294.877 262.543H294.89C295.204 262.543 295.501 262.481 295.786 262.389C296.617 262.125 297.298 261.518 297.638 260.722Z" fill="#13171E"/>
<path d="M229.985 259.772L229.98 259.357L223.091 259.329C222.891 259.328 222.702 259.249 222.56 259.107C222.418 258.964 222.34 258.773 222.341 258.572L222.361 253.28C222.363 252.866 222.701 252.529 223.118 252.529L230.006 252.557C230.208 252.558 230.396 252.637 230.539 252.779C230.681 252.922 230.759 253.112 230.758 253.312L230.736 258.607C230.735 259.02 230.398 259.356 229.984 259.356V259.773V259.772L229.985 259.772ZM223.089 260.162L229.985 260.19C230.856 260.19 231.566 259.481 231.569 258.61L231.592 253.316C231.593 252.891 231.428 252.493 231.13 252.192C230.831 251.891 230.434 251.724 230.01 251.723L223.114 251.695C222.245 251.695 221.532 252.404 221.528 253.277L221.508 258.57C221.505 259.445 222.214 260.159 223.089 260.162Z" fill="#13171E"/>
<path d="M292.364 257.556L292.361 257.141L235.334 257C235.078 256.999 234.872 256.79 234.873 256.534L234.877 255.419C234.878 255.164 235.085 254.958 235.343 254.958L292.37 255.1C292.627 255.101 292.833 255.309 292.832 255.564L292.826 256.681C292.825 256.934 292.619 257.141 292.364 257.141V257.558V257.557L292.364 257.556ZM235.33 257.833L292.358 257.974H292.364C293.077 257.974 293.658 257.394 293.66 256.684L293.665 255.567C293.666 254.853 293.087 254.269 292.373 254.266L235.339 254.125C234.626 254.125 234.045 254.704 234.044 255.416L234.039 256.531C234.038 256.878 234.17 257.203 234.415 257.45C234.659 257.696 234.984 257.832 235.33 257.833Z" fill="#13171E"/>
<path d="M222.006 239.967L294.921 240.17C295.649 240.174 296.24 240.768 296.237 241.497L296.21 248.342C296.207 249.067 295.614 249.657 294.888 249.657V250.491L294.883 249.657L221.967 249.454C221.614 249.453 221.284 249.314 221.035 249.063C220.786 248.814 220.65 248.48 220.651 248.127L220.679 241.281C220.681 240.557 221.274 239.967 222.006 239.967L222.006 239.967ZM297.877 248.349L297.904 241.503C297.908 240.627 297.524 239.845 296.923 239.295C296.389 239.795 295.676 240.108 294.891 240.108H294.876L221.962 239.904C221.213 239.9 220.513 239.615 219.965 239.113C219.384 239.657 219.016 240.421 219.012 241.275L218.984 248.121C218.981 248.919 219.29 249.67 219.851 250.237C219.887 250.272 219.928 250.297 219.965 250.33C220.512 250.832 221.212 251.117 221.962 251.12L294.878 251.324H294.89C295.677 251.324 296.39 251.012 296.925 250.511C297.504 249.967 297.873 249.203 297.877 248.349L297.877 248.349Z" fill="#13171E"/>
<path d="M229.982 248.557L229.98 248.142L223.093 248.115C222.677 248.113 222.34 247.773 222.341 247.356L222.361 242.065C222.363 241.65 222.702 241.314 223.118 241.314L230.007 241.34C230.208 241.341 230.397 241.42 230.539 241.563C230.681 241.706 230.759 241.896 230.758 242.097L230.736 247.39C230.735 247.803 230.397 248.141 229.982 248.141V248.558V248.557ZM223.089 248.948L229.982 248.975C230.855 248.975 231.566 248.265 231.569 247.394L231.592 242.101C231.595 241.224 230.885 240.511 230.01 240.507L223.116 240.48C222.244 240.48 221.532 241.189 221.528 242.062L221.508 247.354C221.505 248.228 222.214 248.944 223.089 248.948Z" fill="#13171E"/>
<path d="M292.359 246.34L292.36 245.924L235.334 245.783C235.21 245.782 235.094 245.734 235.007 245.646C234.919 245.558 234.871 245.44 234.873 245.317L234.877 244.201C234.878 243.948 235.085 243.74 235.343 243.74L292.369 243.881C292.626 243.882 292.833 244.091 292.832 244.346L292.826 245.463C292.825 245.716 292.617 245.924 292.361 245.924L292.359 246.339V246.34ZM235.33 246.616L292.36 246.757H292.361C293.076 246.757 293.658 246.177 293.66 245.466L293.665 244.349C293.666 243.634 293.087 243.051 292.373 243.047L235.339 242.906C234.626 242.906 234.045 243.486 234.044 244.199L234.039 245.313C234.038 245.66 234.17 245.987 234.415 246.231C234.659 246.478 234.983 246.615 235.33 246.616H235.33Z" fill="#13171E"/>
<path d="M220.679 230.063C220.681 229.339 221.274 228.749 222.006 228.749L294.921 228.952C295.275 228.953 295.606 229.092 295.854 229.343C296.103 229.593 296.239 229.924 296.238 230.278L296.21 237.122C296.207 237.848 295.616 238.439 294.891 238.439V239.272V239.271L294.883 238.439L221.968 238.234C221.614 238.233 221.284 238.094 221.035 237.844C220.786 237.594 220.651 237.262 220.652 236.91L220.679 230.063ZM221.962 239.902L294.876 240.106H294.891C295.676 240.106 296.389 239.793 296.923 239.293C297.503 238.751 297.873 237.985 297.877 237.13L297.904 230.285C297.908 229.487 297.599 228.734 297.036 228.168C296.475 227.603 295.725 227.288 294.926 227.285L221.998 227.082C220.358 227.082 219.018 228.417 219.012 230.058L218.984 236.904C218.981 237.702 219.29 238.453 219.851 239.018C219.887 239.054 219.928 239.078 219.965 239.112C220.512 239.613 221.212 239.898 221.962 239.902Z" fill="#13171E"/>
<path d="M229.982 237.34L229.98 236.923L223.092 236.897C222.892 236.895 222.703 236.817 222.56 236.674C222.418 236.531 222.34 236.341 222.341 236.139L222.361 230.848C222.363 230.433 222.702 230.096 223.118 230.096L230.006 230.122C230.421 230.125 230.759 230.465 230.758 230.88L230.736 236.173C230.735 236.587 230.397 236.923 229.982 236.923V237.34ZM223.089 237.73L229.982 237.756C230.855 237.756 231.566 237.047 231.569 236.175L231.592 230.883C231.595 230.009 230.885 229.293 230.01 229.288L223.116 229.262C222.244 229.262 221.532 229.971 221.528 230.844L221.508 236.136C221.505 237.012 222.214 237.726 223.089 237.73Z" fill="#13171E"/>
<path d="M292.364 235.124L292.361 234.708L235.334 234.567C235.078 234.566 234.872 234.358 234.873 234.102L234.877 232.986C234.878 232.733 235.086 232.525 235.343 232.525L292.371 232.667C292.495 232.667 292.611 232.716 292.697 232.804C292.784 232.892 292.832 233.009 292.832 233.132L292.826 234.247C292.825 234.502 292.619 234.708 292.364 234.708V235.125L292.364 235.124ZM235.33 235.401L292.358 235.542H292.364C293.077 235.542 293.658 234.963 293.66 234.25L293.665 233.135C293.666 232.419 293.087 231.835 292.373 231.834L235.342 231.691C234.627 231.691 234.045 232.271 234.044 232.984L234.039 234.098C234.038 234.446 234.17 234.772 234.415 235.019C234.659 235.263 234.984 235.4 235.33 235.401Z" fill="#13171E"/>
<path d="M178.167 258.994H178.082C177.631 259.66 176.871 260.098 176.01 260.106H178.167C178.467 260.106 178.712 260.35 178.712 260.651C178.712 260.951 178.467 261.197 178.167 261.197H101.486C100.013 261.197 98.8142 259.999 98.8142 258.527V248.814C98.8142 247.341 100.013 246.142 101.486 246.142H178.167C178.467 246.142 178.712 246.388 178.712 246.688C178.712 246.989 178.467 247.235 178.167 247.235H175.988C176.857 247.235 177.625 247.676 178.081 248.346H178.167C179.08 248.346 179.823 247.603 179.823 246.688C179.823 246.235 179.639 245.822 179.342 245.523C179.041 245.826 178.625 246.015 178.167 246.015H101.486C100.819 246.015 100.201 245.827 99.6578 245.523C98.4987 246.17 97.7031 247.394 97.7031 248.814V258.527C97.7031 259.346 97.972 260.1 98.4166 260.719C99.1033 261.678 100.219 262.308 101.486 262.308H178.167C179.057 262.308 179.78 261.602 179.817 260.719C179.817 260.696 179.824 260.675 179.824 260.652C179.824 259.738 179.08 258.994 178.167 258.994Z" fill="#13171E"/>
<path d="M99.9062 248.817V258.53C99.9062 259.4 100.615 260.109 101.486 260.109H102.417C101.032 260.097 99.9087 258.969 99.9087 257.581V249.767C99.9087 248.373 101.043 247.238 102.438 247.238H101.486C100.615 247.238 99.9062 247.946 99.9062 248.817Z" fill="#13171E"/>
<path d="M177.405 249.764V257.578C177.405 258.36 176.769 258.997 175.987 258.997H102.435C101.653 258.997 101.017 258.36 101.017 257.578V249.764C101.017 248.982 101.653 248.346 102.435 248.346H175.987C176.769 248.346 177.405 248.982 177.405 249.764ZM175.987 247.235H102.435C101.041 247.235 99.9062 248.369 99.9062 249.764V257.578C99.9062 258.966 101.03 260.093 102.414 260.106C102.421 260.106 102.429 260.108 102.435 260.108H175.987C175.994 260.108 176 260.106 176.008 260.106C176.869 260.098 177.629 259.66 178.081 258.994C178.356 258.59 178.516 258.102 178.516 257.577V249.764C178.516 249.238 178.355 248.75 178.079 248.346C177.624 247.676 176.856 247.234 175.987 247.234V247.235Z" fill="#13171E"/>
<path d="M101.486 246.018H178.167C178.626 246.018 179.041 245.829 179.342 245.527C179.639 245.227 179.823 244.815 179.823 244.362C179.823 243.447 179.08 242.705 178.167 242.705H178.082C177.631 243.37 176.871 243.809 176.009 243.817H178.166C178.466 243.817 178.712 244.061 178.712 244.362C178.712 244.662 178.466 244.907 178.166 244.907H101.486C100.013 244.907 98.814 243.709 98.814 242.237V232.524C98.814 231.051 100.013 229.854 101.486 229.854H178.166C178.466 229.854 178.712 230.099 178.712 230.399C178.712 230.7 178.466 230.945 178.166 230.945H101.486C100.614 230.945 99.9053 231.653 99.9053 232.524V242.237C99.9053 243.108 100.614 243.817 101.486 243.817H102.416C101.031 243.805 99.9077 242.676 99.9077 241.289V233.475C99.9077 232.081 101.042 230.945 102.437 230.945H175.988C176.856 230.945 177.624 231.386 178.08 232.056H178.167C179.08 232.056 179.823 231.313 179.823 230.399C179.823 229.486 179.08 228.742 178.167 228.742H101.486C99.3999 228.742 97.7031 230.438 97.7031 232.524V242.237C97.7031 243.656 98.4987 244.88 99.6578 245.527C100.201 245.83 100.819 246.018 101.486 246.018Z" fill="#13171E"/>
<path d="M177.405 233.472V241.286C177.405 242.068 176.769 242.704 175.987 242.704H102.435C101.653 242.704 101.017 242.068 101.017 241.286V233.472C101.017 232.69 101.653 232.053 102.435 232.053H175.987C176.769 232.053 177.405 232.69 177.405 233.472ZM175.987 230.942H102.435C101.041 230.942 99.9062 232.077 99.9062 233.472V241.286C99.9062 242.673 101.03 243.802 102.414 243.814C102.421 243.814 102.429 243.815 102.435 243.815H175.987C175.994 243.815 176 243.814 176.008 243.814C176.869 243.806 177.629 243.367 178.081 242.702C178.356 242.298 178.516 241.81 178.516 241.285V233.472C178.516 232.946 178.354 232.457 178.078 232.053C177.623 231.383 176.855 230.941 175.987 230.941L175.987 230.942Z" fill="#13171E"/>
<path d="M101.709 234.122H175.821C175.899 234.122 175.96 234.06 175.96 233.983C175.96 233.905 175.899 233.844 175.821 233.844H101.709C101.632 233.844 101.57 233.905 101.57 233.983C101.57 234.06 101.632 234.122 101.709 234.122Z" fill="#13171E"/>
<path d="M101.709 236.387H175.821C175.899 236.387 175.96 236.325 175.96 236.248C175.96 236.172 175.899 236.109 175.821 236.109H101.709C101.632 236.109 101.57 236.172 101.57 236.248C101.57 236.325 101.632 236.387 101.709 236.387Z" fill="#13171E"/>
<path d="M101.709 238.649H175.821C175.899 238.649 175.96 238.587 175.96 238.51C175.96 238.433 175.899 238.371 175.821 238.371H101.709C101.632 238.371 101.57 238.433 101.57 238.51C101.57 238.587 101.632 238.649 101.709 238.649Z" fill="#13171E"/>
<path d="M175.952 240.772C175.952 240.695 175.891 240.633 175.813 240.633H101.701C101.625 240.633 101.562 240.695 101.562 240.772C101.562 240.85 101.625 240.911 101.701 240.911H175.813C175.891 240.911 175.952 240.85 175.952 240.772Z" fill="#13171E"/>
<path d="M101.57 250.276C101.57 250.352 101.632 250.415 101.709 250.415H175.821C175.899 250.415 175.96 250.352 175.96 250.276C175.96 250.199 175.899 250.137 175.821 250.137H101.709C101.632 250.137 101.57 250.199 101.57 250.276Z" fill="#13171E"/>
<path d="M101.709 252.68H175.821C175.899 252.68 175.96 252.618 175.96 252.541C175.96 252.464 175.899 252.402 175.821 252.402H101.709C101.632 252.402 101.57 252.464 101.57 252.541C101.57 252.618 101.632 252.68 101.709 252.68Z" fill="#13171E"/>
<path d="M101.709 254.942H175.821C175.899 254.942 175.96 254.881 175.96 254.803C175.96 254.726 175.899 254.664 175.821 254.664H101.709C101.632 254.664 101.57 254.726 101.57 254.803C101.57 254.881 101.632 254.942 101.709 254.942Z" fill="#13171E"/>
<path d="M175.952 257.065C175.952 256.988 175.891 256.926 175.813 256.926H101.701C101.625 256.926 101.562 256.988 101.562 257.065C101.562 257.143 101.625 257.204 101.701 257.204H175.813C175.891 257.204 175.952 257.143 175.952 257.065Z" fill="#13171E"/>
<path d="M181.956 155.398H180.289V164.911H181.956V155.398Z" fill="#13171E"/>
<path d="M220.487 155.398H218.82V164.911H220.487V155.398Z" fill="#13171E"/>
<path d="M272.823 166.577C274.528 166.577 275.928 167.899 276.055 169.571H124.716C124.842 167.899 126.243 166.577 127.948 166.577H272.823ZM123.039 171.238H277.732V169.818C277.732 169.755 277.715 169.698 277.713 169.636C277.615 167.016 275.467 164.91 272.823 164.91H127.948C125.304 164.91 123.156 167.016 123.058 169.636C123.056 169.698 123.039 169.755 123.039 169.818V171.238Z" fill="#13171E"/>
<path d="M46.0064 155.399H354.778C356.947 155.399 358.713 153.633 358.713 151.462V3.93608C358.713 1.76561 356.947 0 354.778 0H46.0064C43.8362 0 42.0703 1.76587 42.0703 3.93608V151.462C42.0703 153.633 43.8362 155.399 46.0064 155.399Z" fill="#13171E"/>
<rect x="47" y="5" width="307" height="141" rx="4" fill="white"/>
<path d="M47.7163 8.33199C47.7163 6.8507 48.921 5.64596 50.4023 5.64596H350.378C351.859 5.64596 353.064 6.8507 353.064 8.33199V142.573C353.064 144.055 351.859 145.259 350.378 145.259H50.4023C48.921 145.259 47.7163 144.055 47.7163 142.573V8.33199ZM50.4023 146.092H350.378C352.318 146.092 353.897 144.514 353.897 142.573V8.33199C353.897 6.39169 352.318 4.8125 350.378 4.8125H50.4023C48.462 4.8125 46.8828 6.39169 46.8828 8.33199V142.573C46.8828 144.514 48.462 146.092 50.4023 146.092Z" fill="#13171E"/>
<path d="M225.075 150.117H175.694C175.266 150.117 174.919 149.769 174.919 149.341C174.919 148.916 175.266 148.568 175.694 148.568H225.075C225.502 148.568 225.849 148.916 225.849 149.341C225.849 149.769 225.502 150.117 225.075 150.117ZM225.075 147.734H175.694C174.807 147.734 174.086 148.454 174.086 149.341C174.086 150.228 174.807 150.95 175.694 150.95H225.075C225.962 150.95 226.683 150.228 226.683 149.341C226.683 148.454 225.962 147.734 225.075 147.734Z" fill="white"/>
</svg>
