<svg width="231" height="56" viewBox="0 0 231 56" fill="none" xmlns="http://www.w3.org/2000/svg">
<rect x="2" y="2" width="226.449" height="51.922" rx="25.961" stroke="black" stroke-width="4"/>
<path d="M85.5685 35.4609V19.9265H92.6256C94.3121 19.9265 95.799 20.252 97.0861 20.903C98.3733 21.5392 99.3793 22.4342 100.104 23.5882C100.829 24.7422 101.192 26.1107 101.192 27.6937C101.192 29.262 100.829 30.6305 100.104 31.7993C99.3793 32.9532 98.3733 33.8557 97.0861 34.5067C95.799 35.1429 94.3121 35.4609 92.6256 35.4609H85.5685ZM89.1636 32.5094H92.448C93.4836 32.5094 94.3787 32.3171 95.1333 31.9324C95.9026 31.533 96.4944 30.9708 96.9086 30.2458C97.3377 29.5209 97.5522 28.6702 97.5522 27.6937C97.5522 26.7025 97.3377 25.8518 96.9086 25.1417C96.4944 24.4167 95.9026 23.8619 95.1333 23.4773C94.3787 23.0778 93.4836 22.8781 92.448 22.8781H89.1636V32.5094ZM109.34 35.6385C108.068 35.6385 106.936 35.3722 105.945 34.8396C104.968 34.307 104.191 33.582 103.614 32.6647C103.052 31.7327 102.771 30.6749 102.771 29.4913C102.771 28.2929 103.052 27.2351 103.614 26.3178C104.191 25.3858 104.968 24.6608 105.945 24.143C106.936 23.6104 108.068 23.3441 109.34 23.3441C110.597 23.3441 111.722 23.6104 112.713 24.143C113.704 24.6608 114.481 25.3784 115.043 26.2956C115.605 27.2129 115.887 28.2781 115.887 29.4913C115.887 30.6749 115.605 31.7327 115.043 32.6647C114.481 33.582 113.704 34.307 112.713 34.8396C111.722 35.3722 110.597 35.6385 109.34 35.6385ZM109.34 32.7979C109.917 32.7979 110.435 32.6647 110.893 32.3984C111.352 32.1321 111.714 31.7549 111.981 31.2666C112.247 30.7636 112.38 30.1718 112.38 29.4913C112.38 28.7959 112.247 28.2042 111.981 27.7159C111.714 27.2277 111.352 26.8504 110.893 26.5841C110.435 26.3178 109.917 26.1847 109.34 26.1847C108.763 26.1847 108.245 26.3178 107.787 26.5841C107.328 26.8504 106.958 27.2277 106.677 27.7159C106.411 28.2042 106.277 28.7959 106.277 29.4913C106.277 30.1718 106.411 30.7636 106.677 31.2666C106.958 31.7549 107.328 32.1321 107.787 32.3984C108.245 32.6647 108.763 32.7979 109.34 32.7979ZM125.457 23.3441C126.404 23.3441 127.248 23.5364 127.987 23.9211C128.742 24.291 129.334 24.868 129.763 25.6521C130.192 26.4214 130.406 27.4126 130.406 28.6258V35.4609H126.944V29.1584C126.944 28.1968 126.73 27.4866 126.301 27.028C125.886 26.5693 125.295 26.34 124.525 26.34C123.978 26.34 123.482 26.4584 123.038 26.6951C122.609 26.917 122.269 27.2647 122.018 27.7381C121.781 28.2116 121.663 28.8181 121.663 29.5579V35.4609H118.201V23.5216H121.507V26.8282L120.886 25.8296C121.315 25.0307 121.929 24.4167 122.728 23.9877C123.527 23.5586 124.437 23.3441 125.457 23.3441ZM139.556 35.6385C138.195 35.6385 136.997 35.3722 135.961 34.8396C134.94 34.307 134.149 33.582 133.587 32.6647C133.024 31.7327 132.743 30.6749 132.743 29.4913C132.743 28.2929 133.017 27.2351 133.564 26.3178C134.127 25.3858 134.889 24.6608 135.85 24.143C136.812 23.6104 137.899 23.3441 139.112 23.3441C140.281 23.3441 141.332 23.5956 142.264 24.0986C143.211 24.5869 143.958 25.297 144.505 26.2291C145.052 27.1463 145.326 28.2485 145.326 29.5357C145.326 29.6688 145.319 29.8242 145.304 30.0017C145.289 30.1644 145.274 30.3198 145.26 30.4677H135.562V28.4483H143.44L142.108 29.0474C142.108 28.4261 141.983 27.8861 141.731 27.4274C141.48 26.9688 141.132 26.6137 140.688 26.3622C140.244 26.0959 139.726 25.9628 139.135 25.9628C138.543 25.9628 138.018 26.0959 137.559 26.3622C137.115 26.6137 136.767 26.9762 136.516 27.4496C136.264 27.9083 136.139 28.4557 136.139 29.0918V29.6244C136.139 30.2754 136.279 30.8524 136.56 31.3554C136.856 31.8436 137.263 32.2209 137.781 32.4872C138.314 32.7387 138.935 32.8645 139.645 32.8645C140.281 32.8645 140.836 32.7683 141.309 32.576C141.798 32.3836 142.241 32.0952 142.641 31.7105L144.483 33.7078C143.935 34.3291 143.248 34.81 142.419 35.1502C141.591 35.4757 140.636 35.6385 139.556 35.6385Z" fill="black"/>
</svg>
