<svg width="1188" height="196" viewBox="0 0 1188 196" fill="none" xmlns="http://www.w3.org/2000/svg">
<path d="M126.28 78V22H139.32L162.52 60.08H155.64L178.2 22H191.24L191.4 78H176.84L176.68 44.16H179.16L162.28 72.48H155.24L137.88 44.16H140.92V78H126.28ZM228.368 78V69.92L227.328 67.92V53.04C227.328 50.64 226.581 48.8 225.088 47.52C223.648 46.1867 221.328 45.52 218.128 45.52C216.048 45.52 213.941 45.8667 211.808 46.56C209.674 47.2 207.861 48.1067 206.368 49.28L201.248 38.96C203.701 37.36 206.634 36.1333 210.048 35.28C213.514 34.3733 216.954 33.92 220.368 33.92C227.408 33.92 232.848 35.5467 236.688 38.8C240.581 42 242.528 47.04 242.528 53.92V78H228.368ZM215.568 78.72C212.101 78.72 209.168 78.1333 206.768 76.96C204.368 75.7867 202.528 74.1867 201.248 72.16C200.021 70.1333 199.408 67.8667 199.408 65.36C199.408 62.6933 200.074 60.4 201.408 58.48C202.794 56.5067 204.901 55.0133 207.728 54C210.554 52.9333 214.208 52.4 218.688 52.4H228.928V60.32H220.768C218.314 60.32 216.581 60.72 215.568 61.52C214.608 62.32 214.128 63.3867 214.128 64.72C214.128 66.0533 214.634 67.12 215.648 67.92C216.661 68.72 218.048 69.12 219.808 69.12C221.461 69.12 222.954 68.72 224.288 67.92C225.674 67.0667 226.688 65.7867 227.328 64.08L229.408 69.68C228.608 72.6667 227.034 74.9333 224.688 76.48C222.394 77.9733 219.354 78.72 215.568 78.72ZM264.762 70L265.162 51.84L282.842 34.64H300.842L281.242 54.88L273.482 61.12L264.762 70ZM252.122 78V18.64H267.322V78H252.122ZM283.962 78L270.682 61.36L280.122 49.68L302.362 78H283.962ZM327.811 78.72C322.691 78.72 318.211 77.76 314.371 75.84C310.584 73.8667 307.624 71.2 305.491 67.84C303.411 64.4267 302.371 60.56 302.371 56.24C302.371 51.92 303.384 48.08 305.411 44.72C307.491 41.3067 310.344 38.6667 313.971 36.8C317.598 34.88 321.678 33.92 326.211 33.92C330.478 33.92 334.371 34.8 337.891 36.56C341.411 38.2667 344.211 40.8 346.291 44.16C348.371 47.52 349.411 51.6 349.411 56.4C349.411 56.9333 349.384 57.5467 349.331 58.24C349.278 58.9333 349.224 59.5733 349.171 60.16H314.851V52.16H341.091L335.331 54.4C335.384 52.4267 335.011 50.72 334.211 49.28C333.464 47.84 332.398 46.72 331.011 45.92C329.678 45.12 328.104 44.72 326.291 44.72C324.478 44.72 322.878 45.12 321.491 45.92C320.158 46.72 319.118 47.8667 318.371 49.36C317.624 50.8 317.251 52.5067 317.251 54.48V56.8C317.251 58.9333 317.678 60.7733 318.531 62.32C319.438 63.8667 320.718 65.0667 322.371 65.92C324.024 66.72 325.998 67.12 328.291 67.12C330.424 67.12 332.238 66.8267 333.731 66.24C335.278 65.6 336.798 64.64 338.291 63.36L346.291 71.68C344.211 73.9733 341.651 75.7333 338.611 76.96C335.571 78.1333 331.971 78.72 327.811 78.72ZM395.46 78.72C391.78 78.72 388.18 78.2933 384.66 77.44C381.194 76.5867 378.394 75.52 376.26 74.24L380.82 63.84C382.847 65.0667 385.22 66.0533 387.94 66.8C390.66 67.4933 393.327 67.84 395.94 67.84C398.5 67.84 400.26 67.5733 401.22 67.04C402.234 66.5067 402.74 65.7867 402.74 64.88C402.74 64.0267 402.26 63.4133 401.3 63.04C400.394 62.6133 399.167 62.2933 397.62 62.08C396.127 61.8667 394.474 61.6267 392.66 61.36C390.847 61.0933 389.007 60.7467 387.14 60.32C385.327 59.84 383.647 59.1467 382.1 58.24C380.607 57.28 379.407 56 378.5 54.4C377.594 52.8 377.14 50.7733 377.14 48.32C377.14 45.5467 377.94 43.0933 379.54 40.96C381.194 38.7733 383.594 37.0667 386.74 35.84C389.887 34.56 393.727 33.92 398.26 33.92C401.3 33.92 404.367 34.24 407.46 34.88C410.607 35.4667 413.247 36.3733 415.38 37.6L410.82 47.92C408.687 46.6933 406.554 45.8667 404.42 45.44C402.287 44.96 400.26 44.72 398.34 44.72C395.78 44.72 393.967 45.0133 392.9 45.6C391.887 46.1867 391.38 46.9067 391.38 47.76C391.38 48.6133 391.834 49.28 392.74 49.76C393.647 50.1867 394.847 50.5333 396.34 50.8C397.887 51.0133 399.567 51.2533 401.38 51.52C403.194 51.7333 405.007 52.08 406.82 52.56C408.687 53.04 410.367 53.76 411.86 54.72C413.407 55.6267 414.634 56.88 415.54 58.48C416.447 60.0267 416.9 62.0267 416.9 64.48C416.9 67.1467 416.074 69.5467 414.42 71.68C412.82 73.8133 410.42 75.52 407.22 76.8C404.074 78.08 400.154 78.72 395.46 78.72ZM441.69 78.72C438.17 78.72 434.997 78.0267 432.17 76.64C429.397 75.2533 427.21 73.0933 425.61 70.16C424.064 67.1733 423.29 63.4133 423.29 58.88V34.64H438.49V56.4C438.49 59.76 439.104 62.16 440.33 63.6C441.61 65.04 443.397 65.76 445.69 65.76C447.184 65.76 448.544 65.4133 449.77 64.72C450.997 64.0267 451.984 62.9333 452.73 61.44C453.477 59.8933 453.85 57.92 453.85 55.52V34.64H469.05V78H454.57V65.76L457.37 69.2C455.877 72.4 453.717 74.8 450.89 76.4C448.064 77.9467 444.997 78.72 441.69 78.72ZM478.841 78V34.64H493.321V47.28L491.161 43.68C492.441 40.4267 494.521 38 497.401 36.4C500.281 34.7467 503.774 33.92 507.881 33.92V47.6C507.188 47.4933 506.574 47.44 506.041 47.44C505.561 47.3867 505.028 47.36 504.441 47.36C501.348 47.36 498.841 48.2133 496.921 49.92C495.001 51.5733 494.041 54.2933 494.041 58.08V78H478.841ZM536.483 78.72C531.363 78.72 526.883 77.76 523.043 75.84C519.256 73.8667 516.296 71.2 514.163 67.84C512.083 64.4267 511.043 60.56 511.043 56.24C511.043 51.92 512.056 48.08 514.083 44.72C516.163 41.3067 519.016 38.6667 522.643 36.8C526.269 34.88 530.349 33.92 534.883 33.92C539.149 33.92 543.043 34.8 546.563 36.56C550.083 38.2667 552.883 40.8 554.963 44.16C557.043 47.52 558.083 51.6 558.083 56.4C558.083 56.9333 558.056 57.5467 558.003 58.24C557.949 58.9333 557.896 59.5733 557.843 60.16H523.523V52.16H549.763L544.003 54.4C544.056 52.4267 543.683 50.72 542.883 49.28C542.136 47.84 541.069 46.72 539.683 45.92C538.349 45.12 536.776 44.72 534.963 44.72C533.149 44.72 531.549 45.12 530.163 45.92C528.829 46.72 527.789 47.8667 527.043 49.36C526.296 50.8 525.923 52.5067 525.923 54.48V56.8C525.923 58.9333 526.349 60.7733 527.203 62.32C528.109 63.8667 529.389 65.0667 531.043 65.92C532.696 66.72 534.669 67.12 536.963 67.12C539.096 67.12 540.909 66.8267 542.403 66.24C543.949 65.6 545.469 64.64 546.963 63.36L554.963 71.68C552.883 73.9733 550.323 75.7333 547.283 76.96C544.243 78.1333 540.643 78.72 536.483 78.72ZM607.732 78.72C602.186 78.72 597.866 77.36 594.772 74.64C591.679 71.8667 590.132 67.7067 590.132 62.16V24.96H605.332V62C605.332 63.5467 605.759 64.7733 606.612 65.68C607.466 66.5333 608.559 66.96 609.892 66.96C611.706 66.96 613.252 66.5067 614.532 65.6L618.292 76.24C617.012 77.0933 615.439 77.7067 613.572 78.08C611.706 78.5067 609.759 78.72 607.732 78.72ZM583.812 47.6V36.24H615.252V47.6H583.812ZM652.393 33.92C655.753 33.92 658.793 34.6133 661.513 36C664.233 37.3333 666.367 39.4133 667.913 42.24C669.513 45.0667 670.313 48.72 670.313 53.2V78H655.113V55.68C655.113 52.5867 654.473 50.3467 653.193 48.96C651.967 47.52 650.233 46.8 647.993 46.8C646.393 46.8 644.927 47.1733 643.593 47.92C642.26 48.6133 641.22 49.7067 640.473 51.2C639.727 52.6933 639.353 54.64 639.353 57.04V78H624.153V18.64H639.353V46.96L635.833 43.36C637.487 40.2133 639.753 37.8667 642.633 36.32C645.513 34.72 648.767 33.92 652.393 33.92ZM703.123 78.72C698.003 78.72 693.523 77.76 689.683 75.84C685.897 73.8667 682.937 71.2 680.803 67.84C678.723 64.4267 677.683 60.56 677.683 56.24C677.683 51.92 678.697 48.08 680.723 44.72C682.803 41.3067 685.657 38.6667 689.283 36.8C692.91 34.88 696.99 33.92 701.523 33.92C705.79 33.92 709.683 34.8 713.203 36.56C716.723 38.2667 719.523 40.8 721.603 44.16C723.683 47.52 724.723 51.6 724.723 56.4C724.723 56.9333 724.697 57.5467 724.643 58.24C724.59 58.9333 724.537 59.5733 724.483 60.16H690.163V52.16H716.403L710.643 54.4C710.697 52.4267 710.323 50.72 709.523 49.28C708.777 47.84 707.71 46.72 706.323 45.92C704.99 45.12 703.417 44.72 701.603 44.72C699.79 44.72 698.19 45.12 696.803 45.92C695.47 46.72 694.43 47.8667 693.683 49.36C692.937 50.8 692.563 52.5067 692.563 54.48V56.8C692.563 58.9333 692.99 60.7733 693.843 62.32C694.75 63.8667 696.03 65.0667 697.683 65.92C699.337 66.72 701.31 67.12 703.603 67.12C705.737 67.12 707.55 66.8267 709.043 66.24C710.59 65.6 712.11 64.64 713.603 63.36L721.603 71.68C719.523 73.9733 716.963 75.7333 713.923 76.96C710.883 78.1333 707.283 78.72 703.123 78.72ZM755.013 78V34.64H769.493V47.28L767.333 43.68C768.613 40.4267 770.693 38 773.573 36.4C776.453 34.7467 779.946 33.92 784.053 33.92V47.6C783.359 47.4933 782.746 47.44 782.213 47.44C781.733 47.3867 781.199 47.36 780.613 47.36C777.519 47.36 775.013 48.2133 773.093 49.92C771.173 51.5733 770.213 54.2933 770.213 58.08V78H755.013ZM811.695 78.72C806.948 78.72 802.735 77.76 799.055 75.84C795.375 73.92 792.468 71.28 790.335 67.92C788.255 64.5067 787.215 60.6133 787.215 56.24C787.215 51.8667 788.255 48 790.335 44.64C792.468 41.28 795.375 38.6667 799.055 36.8C802.735 34.88 806.948 33.92 811.695 33.92C816.441 33.92 820.655 34.88 824.335 36.8C828.068 38.6667 830.975 41.28 833.055 44.64C835.135 48 836.175 51.8667 836.175 56.24C836.175 60.6133 835.135 64.5067 833.055 67.92C830.975 71.28 828.068 73.92 824.335 75.84C820.655 77.76 816.441 78.72 811.695 78.72ZM811.695 66.64C813.455 66.64 815.001 66.24 816.335 65.44C817.721 64.64 818.815 63.4667 819.615 61.92C820.415 60.32 820.815 58.4267 820.815 56.24C820.815 54.0533 820.415 52.2133 819.615 50.72C818.815 49.1733 817.721 48 816.335 47.2C815.001 46.4 813.455 46 811.695 46C809.988 46 808.441 46.4 807.055 47.2C805.721 48 804.628 49.1733 803.775 50.72C802.975 52.2133 802.575 54.0533 802.575 56.24C802.575 58.4267 802.975 60.32 803.775 61.92C804.628 63.4667 805.721 64.64 807.055 65.44C808.441 66.24 809.988 66.64 811.695 66.64ZM864.976 78.72C860.229 78.72 856.016 77.76 852.336 75.84C848.656 73.92 845.749 71.28 843.616 67.92C841.536 64.5067 840.496 60.6133 840.496 56.24C840.496 51.8667 841.536 48 843.616 44.64C845.749 41.28 848.656 38.6667 852.336 36.8C856.016 34.88 860.229 33.92 864.976 33.92C869.723 33.92 873.936 34.88 877.616 36.8C881.349 38.6667 884.256 41.28 886.336 44.64C888.416 48 889.456 51.8667 889.456 56.24C889.456 60.6133 888.416 64.5067 886.336 67.92C884.256 71.28 881.349 73.92 877.616 75.84C873.936 77.76 869.723 78.72 864.976 78.72ZM864.976 66.64C866.736 66.64 868.283 66.24 869.616 65.44C871.003 64.64 872.096 63.4667 872.896 61.92C873.696 60.32 874.096 58.4267 874.096 56.24C874.096 54.0533 873.696 52.2133 872.896 50.72C872.096 49.1733 871.003 48 869.616 47.2C868.283 46.4 866.736 46 864.976 46C863.269 46 861.723 46.4 860.336 47.2C859.003 48 857.909 49.1733 857.056 50.72C856.256 52.2133 855.856 54.0533 855.856 56.24C855.856 58.4267 856.256 60.32 857.056 61.92C857.909 63.4667 859.003 64.64 860.336 65.44C861.723 66.24 863.269 66.64 864.976 66.64ZM952.977 33.92C956.337 33.92 959.324 34.6133 961.937 36C964.604 37.3333 966.684 39.4133 968.177 42.24C969.724 45.0667 970.497 48.72 970.497 53.2V78H955.297V55.68C955.297 52.5867 954.711 50.3467 953.537 48.96C952.364 47.52 950.764 46.8 948.737 46.8C947.297 46.8 945.991 47.1467 944.817 47.84C943.644 48.5333 942.737 49.6 942.097 51.04C941.457 52.4267 941.137 54.24 941.137 56.48V78H925.937V55.68C925.937 52.5867 925.351 50.3467 924.177 48.96C923.057 47.52 921.457 46.8 919.377 46.8C917.884 46.8 916.551 47.1467 915.377 47.84C914.257 48.5333 913.351 49.6 912.657 51.04C912.017 52.4267 911.697 54.24 911.697 56.48V78H896.497V34.64H910.977V46.72L908.097 43.28C909.697 40.1867 911.884 37.8667 914.657 36.32C917.431 34.72 920.524 33.92 923.937 33.92C927.831 33.92 931.244 34.9333 934.177 36.96C937.164 38.9333 939.164 42.0267 940.177 46.24L935.217 45.2C936.764 41.68 939.084 38.9333 942.177 36.96C945.324 34.9333 948.924 33.92 952.977 33.92ZM1003.37 78V34.64H1018.57V78H1003.37ZM1010.97 29.84C1008.2 29.84 1005.96 29.0667 1004.25 27.52C1002.55 25.9733 1001.69 24.0533 1001.69 21.76C1001.69 19.4667 1002.55 17.5467 1004.25 16C1005.96 14.4533 1008.2 13.68 1010.97 13.68C1013.75 13.68 1015.99 14.4267 1017.69 15.92C1019.4 17.36 1020.25 19.2267 1020.25 21.52C1020.25 23.92 1019.4 25.92 1017.69 27.52C1016.04 29.0667 1013.8 29.84 1010.97 29.84ZM1044.21 78.72C1040.53 78.72 1036.93 78.2933 1033.41 77.44C1029.94 76.5867 1027.14 75.52 1025.01 74.24L1029.57 63.84C1031.6 65.0667 1033.97 66.0533 1036.69 66.8C1039.41 67.4933 1042.08 67.84 1044.69 67.84C1047.25 67.84 1049.01 67.5733 1049.97 67.04C1050.98 66.5067 1051.49 65.7867 1051.49 64.88C1051.49 64.0267 1051.01 63.4133 1050.05 63.04C1049.14 62.6133 1047.92 62.2933 1046.37 62.08C1044.88 61.8667 1043.22 61.6267 1041.41 61.36C1039.6 61.0933 1037.76 60.7467 1035.89 60.32C1034.08 59.84 1032.4 59.1467 1030.85 58.24C1029.36 57.28 1028.16 56 1027.25 54.4C1026.34 52.8 1025.89 50.7733 1025.89 48.32C1025.89 45.5467 1026.69 43.0933 1028.29 40.96C1029.94 38.7733 1032.34 37.0667 1035.49 35.84C1038.64 34.56 1042.48 33.92 1047.01 33.92C1050.05 33.92 1053.12 34.24 1056.21 34.88C1059.36 35.4667 1062 36.3733 1064.13 37.6L1059.57 47.92C1057.44 46.6933 1055.3 45.8667 1053.17 45.44C1051.04 44.96 1049.01 44.72 1047.09 44.72C1044.53 44.72 1042.72 45.0133 1041.65 45.6C1040.64 46.1867 1040.13 46.9067 1040.13 47.76C1040.13 48.6133 1040.58 49.28 1041.49 49.76C1042.4 50.1867 1043.6 50.5333 1045.09 50.8C1046.64 51.0133 1048.32 51.2533 1050.13 51.52C1051.94 51.7333 1053.76 52.08 1055.57 52.56C1057.44 53.04 1059.12 53.76 1060.61 54.72C1062.16 55.6267 1063.38 56.88 1064.29 58.48C1065.2 60.0267 1065.65 62.0267 1065.65 64.48C1065.65 67.1467 1064.82 69.5467 1063.17 71.68C1061.57 73.8133 1059.17 75.52 1055.97 76.8C1052.82 78.08 1048.9 78.72 1044.21 78.72ZM38.5359 176L23.0959 132.64H37.4959L49.7359 168.88H42.8559L55.5759 132.64H68.5359L80.7759 168.88H74.0559L86.6959 132.64H100.056L84.6159 176H69.8959L59.4959 146H63.9759L53.2559 176H38.5359ZM126.248 176.72C121.128 176.72 116.648 175.76 112.808 173.84C109.022 171.867 106.062 169.2 103.928 165.84C101.848 162.427 100.808 158.56 100.808 154.24C100.808 149.92 101.822 146.08 103.848 142.72C105.928 139.307 108.782 136.667 112.408 134.8C116.035 132.88 120.115 131.92 124.648 131.92C128.915 131.92 132.808 132.8 136.328 134.56C139.848 136.267 142.648 138.8 144.728 142.16C146.808 145.52 147.848 149.6 147.848 154.4C147.848 154.933 147.822 155.547 147.768 156.24C147.715 156.933 147.662 157.573 147.608 158.16H113.288V150.16H139.528L133.768 152.4C133.822 150.427 133.448 148.72 132.648 147.28C131.902 145.84 130.835 144.72 129.448 143.92C128.115 143.12 126.542 142.72 124.728 142.72C122.915 142.72 121.315 143.12 119.928 143.92C118.595 144.72 117.555 145.867 116.808 147.36C116.062 148.8 115.688 150.507 115.688 152.48V154.8C115.688 156.933 116.115 158.773 116.968 160.32C117.875 161.867 119.155 163.067 120.808 163.92C122.462 164.72 124.435 165.12 126.728 165.12C128.862 165.12 130.675 164.827 132.168 164.24C133.715 163.6 135.235 162.64 136.728 161.36L144.728 169.68C142.648 171.973 140.088 173.733 137.048 174.96C134.008 176.133 130.408 176.72 126.248 176.72ZM154.857 176V116.64H170.057V176H154.857ZM179.935 176V116.64H195.135V176H179.935ZM228.294 176V116.64H243.494V176H228.294ZM253.372 176V132.64H268.572V176H253.372ZM260.972 127.84C258.199 127.84 255.959 127.067 254.252 125.52C252.546 123.973 251.692 122.053 251.692 119.76C251.692 117.467 252.546 115.547 254.252 114C255.959 112.453 258.199 111.68 260.972 111.68C263.746 111.68 265.986 112.427 267.692 113.92C269.399 115.36 270.252 117.227 270.252 119.52C270.252 121.92 269.399 123.92 267.692 125.52C266.039 127.067 263.799 127.84 260.972 127.84ZM297.81 176.72C292.264 176.72 287.944 175.36 284.85 172.64C281.757 169.867 280.21 165.707 280.21 160.16V122.96H295.41V160C295.41 161.547 295.837 162.773 296.69 163.68C297.544 164.533 298.637 164.96 299.97 164.96C301.784 164.96 303.33 164.507 304.61 163.6L308.37 174.24C307.09 175.093 305.517 175.707 303.65 176.08C301.784 176.507 299.837 176.72 297.81 176.72ZM273.89 145.6V134.24H305.33V145.6H273.89ZM313.333 188.56L319.333 167.76L321.493 176.4C318.826 176.4 316.639 175.627 314.933 174.08C313.226 172.48 312.373 170.347 312.373 167.68C312.373 164.907 313.226 162.72 314.933 161.12C316.693 159.52 318.879 158.72 321.493 158.72C324.106 158.72 326.266 159.547 327.973 161.2C329.679 162.8 330.533 164.96 330.533 167.68C330.533 168.427 330.479 169.173 330.373 169.92C330.266 170.667 330.026 171.573 329.653 172.64C329.279 173.707 328.693 175.12 327.893 176.88L322.853 188.56H313.333ZM388.23 176.72C384.337 176.72 381.084 175.92 378.47 174.32C375.91 172.72 373.99 170.267 372.71 166.96C371.43 163.653 370.79 159.413 370.79 154.24C370.79 149.173 371.457 144.987 372.79 141.68C374.177 138.373 376.177 135.92 378.79 134.32C381.404 132.72 384.55 131.92 388.23 131.92C392.177 131.92 395.75 132.827 398.95 134.64C402.204 136.453 404.764 139.04 406.63 142.4C408.55 145.707 409.51 149.653 409.51 154.24C409.51 158.88 408.55 162.88 406.63 166.24C404.764 169.547 402.204 172.133 398.95 174C395.75 175.813 392.177 176.72 388.23 176.72ZM360.95 176V116.64H376.15V139.92L375.35 154.24L375.43 168.56V176H360.95ZM385.03 164.64C386.737 164.64 388.257 164.24 389.59 163.44C390.977 162.64 392.07 161.467 392.87 159.92C393.724 158.32 394.15 156.427 394.15 154.24C394.15 152.053 393.724 150.213 392.87 148.72C392.07 147.173 390.977 146 389.59 145.2C388.257 144.4 386.737 144 385.03 144C383.324 144 381.777 144.4 380.39 145.2C379.057 146 377.964 147.173 377.11 148.72C376.31 150.213 375.91 152.053 375.91 154.24C375.91 156.427 376.31 158.32 377.11 159.92C377.964 161.467 379.057 162.64 380.39 163.44C381.777 164.24 383.324 164.64 385.03 164.64ZM434.815 176.72C431.295 176.72 428.122 176.027 425.295 174.64C422.522 173.253 420.335 171.093 418.735 168.16C417.189 165.173 416.415 161.413 416.415 156.88V132.64H431.615V154.4C431.615 157.76 432.229 160.16 433.455 161.6C434.735 163.04 436.522 163.76 438.815 163.76C440.309 163.76 441.669 163.413 442.895 162.72C444.122 162.027 445.109 160.933 445.855 159.44C446.602 157.893 446.975 155.92 446.975 153.52V132.64H462.175V176H447.695V163.76L450.495 167.2C449.002 170.4 446.842 172.8 444.015 174.4C441.189 175.947 438.122 176.72 434.815 176.72ZM491.326 176.72C485.779 176.72 481.459 175.36 478.366 172.64C475.273 169.867 473.726 165.707 473.726 160.16V122.96H488.926V160C488.926 161.547 489.353 162.773 490.206 163.68C491.059 164.533 492.153 164.96 493.486 164.96C495.299 164.96 496.846 164.507 498.126 163.6L501.886 174.24C500.606 175.093 499.033 175.707 497.166 176.08C495.299 176.507 493.353 176.72 491.326 176.72ZM467.406 145.6V134.24H498.846V145.6H467.406ZM557.508 176V167.92L556.468 165.92V151.04C556.468 148.64 555.722 146.8 554.228 145.52C552.788 144.187 550.468 143.52 547.268 143.52C545.188 143.52 543.082 143.867 540.948 144.56C538.815 145.2 537.002 146.107 535.508 147.28L530.388 136.96C532.842 135.36 535.775 134.133 539.188 133.28C542.655 132.373 546.095 131.92 549.508 131.92C556.548 131.92 561.988 133.547 565.828 136.8C569.722 140 571.668 145.04 571.668 151.92V176H557.508ZM544.708 176.72C541.242 176.72 538.308 176.133 535.908 174.96C533.508 173.787 531.668 172.187 530.388 170.16C529.162 168.133 528.548 165.867 528.548 163.36C528.548 160.693 529.215 158.4 530.548 156.48C531.935 154.507 534.042 153.013 536.868 152C539.695 150.933 543.348 150.4 547.828 150.4H558.068V158.32H549.908C547.455 158.32 545.722 158.72 544.708 159.52C543.748 160.32 543.268 161.387 543.268 162.72C543.268 164.053 543.775 165.12 544.788 165.92C545.802 166.72 547.188 167.12 548.948 167.12C550.602 167.12 552.095 166.72 553.428 165.92C554.815 165.067 555.828 163.787 556.468 162.08L558.548 167.68C557.748 170.667 556.175 172.933 553.828 174.48C551.535 175.973 548.495 176.72 544.708 176.72ZM592.562 176L574.722 132.64H590.322L604.562 168.88H596.722L611.682 132.64H626.162L608.242 176H592.562ZM650.679 176.72C645.932 176.72 641.719 175.76 638.039 173.84C634.359 171.92 631.452 169.28 629.319 165.92C627.239 162.507 626.199 158.613 626.199 154.24C626.199 149.867 627.239 146 629.319 142.64C631.452 139.28 634.359 136.667 638.039 134.8C641.719 132.88 645.932 131.92 650.679 131.92C655.426 131.92 659.639 132.88 663.319 134.8C667.052 136.667 669.959 139.28 672.039 142.64C674.119 146 675.159 149.867 675.159 154.24C675.159 158.613 674.119 162.507 672.039 165.92C669.959 169.28 667.052 171.92 663.319 173.84C659.639 175.76 655.426 176.72 650.679 176.72ZM650.679 164.64C652.439 164.64 653.986 164.24 655.319 163.44C656.706 162.64 657.799 161.467 658.599 159.92C659.399 158.32 659.799 156.427 659.799 154.24C659.799 152.053 659.399 150.213 658.599 148.72C657.799 147.173 656.706 146 655.319 145.2C653.986 144.4 652.439 144 650.679 144C648.972 144 647.426 144.4 646.039 145.2C644.706 146 643.612 147.173 642.759 148.72C641.959 150.213 641.559 152.053 641.559 154.24C641.559 156.427 641.959 158.32 642.759 159.92C643.612 161.467 644.706 162.64 646.039 163.44C647.426 164.24 648.972 164.64 650.679 164.64ZM682.2 176V132.64H697.4V176H682.2ZM689.8 127.84C687.027 127.84 684.787 127.067 683.08 125.52C681.374 123.973 680.52 122.053 680.52 119.76C680.52 117.467 681.374 115.547 683.08 114C684.787 112.453 687.027 111.68 689.8 111.68C692.574 111.68 694.814 112.427 696.52 113.92C698.227 115.36 699.08 117.227 699.08 119.52C699.08 121.92 698.227 123.92 696.52 125.52C694.867 127.067 692.627 127.84 689.8 127.84ZM726.158 176.72C722.212 176.72 718.612 175.813 715.358 174C712.158 172.133 709.598 169.547 707.678 166.24C705.758 162.88 704.798 158.88 704.798 154.24C704.798 149.653 705.758 145.707 707.678 142.4C709.598 139.04 712.158 136.453 715.358 134.64C718.612 132.827 722.212 131.92 726.158 131.92C729.892 131.92 733.038 132.72 735.598 134.32C738.212 135.92 740.185 138.373 741.518 141.68C742.852 144.987 743.518 149.173 743.518 154.24C743.518 159.413 742.878 163.653 741.598 166.96C740.318 170.267 738.398 172.72 735.838 174.32C733.278 175.92 730.052 176.72 726.158 176.72ZM729.358 164.64C731.065 164.64 732.585 164.24 733.918 163.44C735.305 162.64 736.398 161.467 737.198 159.92C737.998 158.32 738.398 156.427 738.398 154.24C738.398 152.053 737.998 150.213 737.198 148.72C736.398 147.173 735.305 146 733.918 145.2C732.585 144.4 731.065 144 729.358 144C727.598 144 726.025 144.4 724.638 145.2C723.305 146 722.238 147.173 721.438 148.72C720.638 150.213 720.238 152.053 720.238 154.24C720.238 156.427 720.638 158.32 721.438 159.92C722.238 161.467 723.305 162.64 724.638 163.44C726.025 164.24 727.598 164.64 729.358 164.64ZM738.878 176V168.56L738.958 154.24L738.158 139.92V116.64H753.358V176H738.878ZM813.699 176.72C809.806 176.72 806.552 175.92 803.939 174.32C801.379 172.72 799.459 170.267 798.179 166.96C796.899 163.653 796.259 159.413 796.259 154.24C796.259 149.173 796.926 144.987 798.259 141.68C799.646 138.373 801.646 135.92 804.259 134.32C806.872 132.72 810.019 131.92 813.699 131.92C817.646 131.92 821.219 132.827 824.419 134.64C827.672 136.453 830.232 139.04 832.099 142.4C834.019 145.707 834.979 149.653 834.979 154.24C834.979 158.88 834.019 162.88 832.099 166.24C830.232 169.547 827.672 172.133 824.419 174C821.219 175.813 817.646 176.72 813.699 176.72ZM786.419 176V116.64H801.619V139.92L800.819 154.24L800.899 168.56V176H786.419ZM810.499 164.64C812.206 164.64 813.726 164.24 815.059 163.44C816.446 162.64 817.539 161.467 818.339 159.92C819.192 158.32 819.619 156.427 819.619 154.24C819.619 152.053 819.192 150.213 818.339 148.72C817.539 147.173 816.446 146 815.059 145.2C813.726 144.4 812.206 144 810.499 144C808.792 144 807.246 144.4 805.859 145.2C804.526 146 803.432 147.173 802.579 148.72C801.779 150.213 801.379 152.053 801.379 154.24C801.379 156.427 801.779 158.32 802.579 159.92C803.432 161.467 804.526 162.64 805.859 163.44C807.246 164.24 808.792 164.64 810.499 164.64ZM867.587 176V167.92L866.547 165.92V151.04C866.547 148.64 865.8 146.8 864.307 145.52C862.867 144.187 860.547 143.52 857.347 143.52C855.267 143.52 853.16 143.867 851.027 144.56C848.893 145.2 847.08 146.107 845.587 147.28L840.467 136.96C842.92 135.36 845.853 134.133 849.267 133.28C852.733 132.373 856.173 131.92 859.587 131.92C866.627 131.92 872.067 133.547 875.907 136.8C879.8 140 881.747 145.04 881.747 151.92V176H867.587ZM854.787 176.72C851.32 176.72 848.387 176.133 845.987 174.96C843.587 173.787 841.747 172.187 840.467 170.16C839.24 168.133 838.627 165.867 838.627 163.36C838.627 160.693 839.293 158.4 840.627 156.48C842.013 154.507 844.12 153.013 846.947 152C849.773 150.933 853.427 150.4 857.907 150.4H868.147V158.32H859.987C857.533 158.32 855.8 158.72 854.787 159.52C853.827 160.32 853.347 161.387 853.347 162.72C853.347 164.053 853.853 165.12 854.867 165.92C855.88 166.72 857.267 167.12 859.027 167.12C860.68 167.12 862.173 166.72 863.507 165.92C864.893 165.067 865.907 163.787 866.547 162.08L868.627 167.68C867.827 170.667 866.253 172.933 863.907 174.48C861.613 175.973 858.573 176.72 854.787 176.72ZM914.048 176.72C909.248 176.72 904.954 175.76 901.168 173.84C897.434 171.92 894.501 169.28 892.368 165.92C890.234 162.507 889.168 158.613 889.168 154.24C889.168 149.867 890.234 146 892.368 142.64C894.501 139.28 897.434 136.667 901.168 134.8C904.954 132.88 909.248 131.92 914.048 131.92C918.954 131.92 923.194 132.96 926.768 135.04C930.341 137.12 932.874 140.053 934.368 143.84L922.608 149.84C921.594 147.813 920.341 146.347 918.848 145.44C917.354 144.48 915.728 144 913.968 144C912.208 144 910.608 144.4 909.168 145.2C907.728 146 906.581 147.173 905.728 148.72C904.928 150.213 904.528 152.053 904.528 154.24C904.528 156.48 904.928 158.373 905.728 159.92C906.581 161.467 907.728 162.64 909.168 163.44C910.608 164.24 912.208 164.64 913.968 164.64C915.728 164.64 917.354 164.187 918.848 163.28C920.341 162.32 921.594 160.827 922.608 158.8L934.368 164.8C932.874 168.587 930.341 171.52 926.768 173.6C923.194 175.68 918.954 176.72 914.048 176.72ZM952.575 168L952.975 149.84L970.655 132.64H988.655L969.055 152.88L961.295 159.12L952.575 168ZM939.935 176V116.64H955.135V176H939.935ZM971.775 176L958.495 159.36L967.935 147.68L990.175 176H971.775ZM994.778 176V116.64H1009.98V176H994.778ZM1019.86 176V132.64H1035.06V176H1019.86ZM1027.46 127.84C1024.68 127.84 1022.44 127.067 1020.74 125.52C1019.03 123.973 1018.18 122.053 1018.18 119.76C1018.18 117.467 1019.03 115.547 1020.74 114C1022.44 112.453 1024.68 111.68 1027.46 111.68C1030.23 111.68 1032.47 112.427 1034.18 113.92C1035.88 115.36 1036.74 117.227 1036.74 119.52C1036.74 121.92 1035.88 123.92 1034.18 125.52C1032.52 127.067 1030.28 127.84 1027.46 127.84ZM1066.13 192.24C1061.97 192.24 1058 191.76 1054.21 190.8C1050.48 189.84 1047.28 188.427 1044.61 186.56L1050.13 175.92C1051.95 177.36 1054.19 178.48 1056.85 179.28C1059.57 180.133 1062.21 180.56 1064.77 180.56C1068.88 180.56 1071.84 179.653 1073.65 177.84C1075.47 176.08 1076.37 173.493 1076.37 170.08V164.96L1077.17 152.8L1077.09 140.56V132.64H1091.57V168.08C1091.57 176.293 1089.36 182.373 1084.93 186.32C1080.51 190.267 1074.24 192.24 1066.13 192.24ZM1063.49 173.76C1059.65 173.76 1056.11 172.907 1052.85 171.2C1049.65 169.44 1047.07 167.013 1045.09 163.92C1043.17 160.773 1042.21 157.067 1042.21 152.8C1042.21 148.533 1043.17 144.853 1045.09 141.76C1047.07 138.613 1049.65 136.187 1052.85 134.48C1056.11 132.773 1059.65 131.92 1063.49 131.92C1067.17 131.92 1070.32 132.667 1072.93 134.16C1075.55 135.6 1077.52 137.867 1078.85 140.96C1080.24 144.053 1080.93 148 1080.93 152.8C1080.93 157.6 1080.24 161.547 1078.85 164.64C1077.52 167.733 1075.55 170.027 1072.93 171.52C1070.32 173.013 1067.17 173.76 1063.49 173.76ZM1067.09 161.68C1068.91 161.68 1070.51 161.307 1071.89 160.56C1073.33 159.813 1074.45 158.773 1075.25 157.44C1076.11 156.107 1076.53 154.56 1076.53 152.8C1076.53 151.04 1076.11 149.493 1075.25 148.16C1074.45 146.827 1073.33 145.813 1071.89 145.12C1070.51 144.373 1068.91 144 1067.09 144C1065.28 144 1063.65 144.373 1062.21 145.12C1060.77 145.813 1059.63 146.827 1058.77 148.16C1057.97 149.493 1057.57 151.04 1057.57 152.8C1057.57 154.56 1057.97 156.107 1058.77 157.44C1059.63 158.773 1060.77 159.813 1062.21 160.56C1063.65 161.307 1065.28 161.68 1067.09 161.68ZM1129.58 131.92C1132.94 131.92 1135.98 132.613 1138.7 134C1141.42 135.333 1143.55 137.413 1145.1 140.24C1146.7 143.067 1147.5 146.72 1147.5 151.2V176H1132.3V153.68C1132.3 150.587 1131.66 148.347 1130.38 146.96C1129.15 145.52 1127.42 144.8 1125.18 144.8C1123.58 144.8 1122.11 145.173 1120.78 145.92C1119.45 146.613 1118.41 147.707 1117.66 149.2C1116.91 150.693 1116.54 152.64 1116.54 155.04V176H1101.34V116.64H1116.54V144.96L1113.02 141.36C1114.67 138.213 1116.94 135.867 1119.82 134.32C1122.7 132.72 1125.95 131.92 1129.58 131.92ZM1176.4 176.72C1170.86 176.72 1166.54 175.36 1163.44 172.64C1160.35 169.867 1158.8 165.707 1158.8 160.16V122.96H1174V160C1174 161.547 1174.43 162.773 1175.28 163.68C1176.14 164.533 1177.23 164.96 1178.56 164.96C1180.38 164.96 1181.92 164.507 1183.2 163.6L1186.96 174.24C1185.68 175.093 1184.11 175.707 1182.24 176.08C1180.38 176.507 1178.43 176.72 1176.4 176.72ZM1152.48 145.6V134.24H1183.92V145.6H1152.48Z" fill="black"/>
</svg>
