<svg xmlns="http://www.w3.org/2000/svg" xmlns:v="https://svgstorm.com"
viewBox = "0 0 646 253"
width="646"
height="253">
<g fill="None" fill-opacity="0.0" stroke="#FEFEFE" stroke-opacity="1.00" stroke-width="0.3"><path d="
M 0.00 253.00 
L 646.00 253.00
L 646.00 0.00
L 0.00 0.00
L 0.00 253.00
M 443.00 27.00 
C 449.11 37.29 432.35 37.91 424.00 37.00 C 415.65 36.09 401.60 37.37 392.00 37.00 C 382.40 36.63 370.14 37.07 360.00 37.00 C 349.86 36.93 338.32 36.83 328.00 37.00 C 317.68 37.17 306.27 36.47 296.00 37.00 C 285.73 37.53 273.95 35.76 264.00 37.00 C 254.05 38.24 241.16 34.22 232.00 37.00 C 222.84 39.78 210.10 29.33 221.00 24.00
C 221.40 23.80 222.00 24.00 222.00 24.00
C 239.93 24.00 258.09 23.72 276.00 24.00 C 293.91 24.28 312.18 23.26 330.00 24.00 C 347.82 24.74 366.39 22.30 384.00 24.00 C 401.61 25.70 420.85 20.20 438.00 24.00
C 439.39 24.31 442.22 25.69 443.00 27.00
M 90.00 45.00 
C 100.96 45.46 112.12 44.83 124.00 45.00 C 135.88 45.17 148.96 44.92 161.00 45.00 C 173.04 45.08 184.89 44.96 197.00 45.00 C 209.11 45.04 221.85 44.98 234.00 45.00 C 246.15 45.02 257.83 44.99 270.00 45.00 C 282.17 45.01 294.82 44.99 307.00 45.00 C 319.18 45.01 330.81 44.98 343.00 45.00 C 355.19 45.02 367.79 44.95 380.00 45.00 C 392.21 45.05 403.74 44.89 416.00 45.00 C 428.26 45.11 440.63 44.76 453.00 45.00 C 465.37 45.24 476.38 44.45 489.00 45.00 C 501.62 45.55 512.86 43.81 526.00 45.00 C 539.14 46.19 547.63 42.28 562.00 45.00 C 576.37 47.72 564.56 59.27 552.00 56.00 C 539.44 52.73 528.34 57.44 516.00 56.00 C 503.66 54.56 491.25 56.67 479.00 56.00 C 466.75 55.33 455.21 56.29 443.00 56.00 C 430.79 55.71 418.19 56.14 406.00 56.00 C 393.81 55.86 382.18 56.06 370.00 56.00 C 357.82 55.94 345.17 56.03 333.00 56.00 C 320.83 55.97 309.15 56.02 297.00 56.00 C 284.85 55.98 272.13 56.02 260.00 56.00 C 247.87 55.98 236.07 56.05 224.00 56.00 C 211.93 55.95 198.95 56.09 187.00 56.00 C 175.05 55.91 162.67 56.21 151.00 56.00 C 139.33 55.79 125.08 56.46 114.00 56.00 C 102.92 55.54 84.41 60.80 90.00 45.00
M 325.00 232.00 
C 324.79 232.64 324.14 232.90 324.00 234.00
C 323.83 235.35 321.73 249.24 319.00 241.00
C 315.58 238.32 315.63 234.64 316.00 230.00
C 306.14 230.55 296.85 230.84 287.33 230.33 C 277.80 229.82 269.30 230.23 259.00 230.00 C 248.71 229.77 237.50 230.10 227.00 230.00 C 216.50 229.90 205.59 230.04 195.00 230.00 C 184.41 229.96 173.62 230.01 163.00 230.00 C 152.38 229.99 141.62 229.98 131.00 230.00 C 120.38 230.02 109.59 229.93 99.00 230.00 C 88.41 230.07 77.52 229.84 67.00 230.00 C 56.48 230.16 45.35 229.65 35.00 230.00 C 24.65 230.35 11.82 231.64 17.90 222.90 C 23.99 214.16 22.54 208.57 27.77 200.77 C 33.00 192.97 34.10 186.79 38.30 179.30 C 42.51 171.82 43.46 163.85 47.99 156.99 C 52.52 150.13 53.88 141.14 57.99 134.99 C 62.10 128.84 64.30 121.68 67.92 114.92 C 71.53 108.16 71.89 98.11 80.00 95.00
C 77.82 82.63 88.41 75.35 90.00 64.00
C 105.37 58.47 122.11 61.55 139.00 61.00 C 155.89 60.45 173.87 61.26 191.00 61.00 C 208.13 60.74 225.77 61.13 243.00 61.00 C 260.23 60.87 277.74 61.10 295.00 61.00 C 312.26 60.90 329.75 61.12 347.00 61.00 C 364.25 60.88 381.81 61.23 399.00 61.00 C 416.19 60.77 433.98 61.49 451.00 61.00 C 468.02 60.51 486.35 62.08 503.00 61.00 C 519.65 59.92 539.18 63.39 555.00 61.00 C 570.82 58.61 573.18 72.33 579.92 84.08 C 586.67 95.82 588.80 108.76 595.93 120.07 C 603.05 131.38 606.28 144.06 611.92 156.08 C 617.57 168.10 621.73 180.47 627.70 192.30 C 633.67 204.12 638.19 217.17 645.00 228.00
C 625.63 232.01 603.19 229.53 582.00 230.00 C 560.81 230.47 538.33 229.85 517.00 230.00 C 495.67 230.15 473.24 230.08 452.00 230.00 C 430.76 229.92 407.88 230.36 387.00 230.00 C 366.12 229.64 345.42 231.41 327.00 229.00
C 327.28 230.49 326.98 232.38 325.00 232.00 Z"/>
</g>
<g fill="None" fill-opacity="0.0" stroke="#DADEE0" stroke-opacity="1.00" stroke-width="0.3"><path d="
M 443.00 27.00 
C 447.45 38.87 427.15 36.17 419.00 36.00 C 410.85 35.83 395.69 36.11 386.00 36.00 C 376.31 35.89 363.37 36.13 353.00 36.00 C 342.63 35.87 330.62 36.24 320.00 36.00 C 309.38 35.76 297.62 36.51 287.00 36.00 C 276.38 35.49 264.37 37.12 254.00 36.00 C 243.63 34.88 231.03 38.93 222.00 35.00
C 219.65 33.98 220.00 34.42 219.00 32.00
C 217.71 28.87 218.24 26.59 221.00 24.00
C 210.10 29.33 222.84 39.78 232.00 37.00 C 241.16 34.22 254.05 38.24 264.00 37.00 C 273.95 35.76 285.73 37.53 296.00 37.00 C 306.27 36.47 317.68 37.17 328.00 37.00 C 338.32 36.83 349.86 36.93 360.00 37.00 C 370.14 37.07 382.40 36.63 392.00 37.00 C 401.60 37.37 415.65 36.09 424.00 37.00 C 432.35 37.91 449.11 37.29 443.00 27.00 Z"/>
</g>
<g fill="None" fill-opacity="0.0" stroke="#797D83" stroke-opacity="1.00" stroke-width="0.3"><path d="
M 219.00 32.00 
C 218.21 28.39 220.14 26.57 222.00 24.00
C 222.00 24.00 221.40 23.80 221.00 24.00
C 218.24 26.59 217.71 28.87 219.00 32.00 Z"/>
</g>
<g fill="None" fill-opacity="0.0" stroke="#29313A" stroke-opacity="1.00" stroke-width="0.3"><path d="
M 219.00 32.00 
C 220.00 34.42 219.65 33.98 222.00 35.00
C 230.06 37.21 239.61 33.99 248.00 35.00 C 256.39 36.01 265.46 34.52 274.00 35.00 C 282.54 35.48 291.40 34.74 300.00 35.00 C 308.60 35.26 317.38 34.77 326.00 35.00 C 334.62 35.23 343.40 34.66 352.00 35.00 C 360.60 35.34 369.46 34.31 378.00 35.00 C 386.54 35.69 395.60 33.51 404.00 35.00 C 412.40 36.49 421.92 31.71 430.00 35.00 C 438.08 38.29 448.37 27.15 438.00 24.00
C 420.85 20.20 401.61 25.70 384.00 24.00 C 366.39 22.30 347.82 24.74 330.00 24.00 C 312.18 23.26 293.91 24.28 276.00 24.00 C 258.09 23.72 239.93 24.00 222.00 24.00
C 220.14 26.57 218.21 28.39 219.00 32.00 Z"/>
</g>
<g fill="None" fill-opacity="0.0" stroke="#75797F" stroke-opacity="1.00" stroke-width="0.3"><path d="
M 222.00 35.00 
C 231.03 38.93 243.63 34.88 254.00 36.00 C 264.37 37.12 276.38 35.49 287.00 36.00 C 297.62 36.51 309.38 35.76 320.00 36.00 C 330.62 36.24 342.63 35.87 353.00 36.00 C 363.37 36.13 376.31 35.89 386.00 36.00 C 395.69 36.11 410.85 35.83 419.00 36.00 C 427.15 36.17 447.45 38.87 443.00 27.00
C 442.22 25.69 439.39 24.31 438.00 24.00
C 448.37 27.15 438.08 38.29 430.00 35.00 C 421.92 31.71 412.40 36.49 404.00 35.00 C 395.60 33.51 386.54 35.69 378.00 35.00 C 369.46 34.31 360.60 35.34 352.00 35.00 C 343.40 34.66 334.62 35.23 326.00 35.00 C 317.38 34.77 308.60 35.26 300.00 35.00 C 291.40 34.74 282.54 35.48 274.00 35.00 C 265.46 34.52 256.39 36.01 248.00 35.00 C 239.61 33.99 230.06 37.21 222.00 35.00 Z"/>
</g>
<g fill="None" fill-opacity="0.0" stroke="#F4E6FB" stroke-opacity="1.00" stroke-width="0.3"><path d="
M 90.00 45.00 
C 84.41 60.80 102.92 55.54 114.00 56.00 C 125.08 56.46 139.33 55.79 151.00 56.00 C 162.67 56.21 175.05 55.91 187.00 56.00 C 198.95 56.09 211.93 55.95 224.00 56.00 C 236.07 56.05 247.87 55.98 260.00 56.00 C 272.13 56.02 284.85 55.98 297.00 56.00 C 309.15 56.02 320.83 55.97 333.00 56.00 C 345.17 56.03 357.82 55.94 370.00 56.00 C 382.18 56.06 393.81 55.86 406.00 56.00 C 418.19 56.14 430.79 55.71 443.00 56.00 C 455.21 56.29 466.75 55.33 479.00 56.00 C 491.25 56.67 503.66 54.56 516.00 56.00 C 528.34 57.44 539.44 52.73 552.00 56.00 C 564.56 59.27 576.37 47.72 562.00 45.00 C 547.63 42.28 539.14 46.19 526.00 45.00 C 512.86 43.81 501.62 45.55 489.00 45.00 C 476.38 44.45 465.37 45.24 453.00 45.00 C 440.63 44.76 428.26 45.11 416.00 45.00 C 403.74 44.89 392.21 45.05 380.00 45.00 C 367.79 44.95 355.19 45.02 343.00 45.00 C 330.81 44.98 319.18 45.01 307.00 45.00 C 294.82 44.99 282.17 45.01 270.00 45.00 C 257.83 44.99 246.15 45.02 234.00 45.00 C 221.85 44.98 209.11 45.04 197.00 45.00 C 184.89 44.96 173.04 45.08 161.00 45.00 C 148.96 44.92 135.88 45.17 124.00 45.00 C 112.12 44.83 100.96 45.46 90.00 45.00 Z"/>
</g>
<g fill="None" fill-opacity="0.0" stroke="#F8F1FE" stroke-opacity="1.00" stroke-width="0.3"><path d="
M 319.00 241.00 
C 318.40 235.92 316.90 231.27 317.00 226.00
C 302.32 226.86 285.14 228.68 272.92 220.08 C 260.70 211.48 258.83 197.74 256.00 185.00 C 253.18 172.25 248.36 153.65 261.75 144.75 C 275.14 135.86 290.39 139.68 306.02 137.02 C 321.66 134.37 340.88 137.99 356.67 134.67 C 372.46 131.35 388.38 135.32 388.93 153.07 C 389.47 170.83 393.53 181.70 394.98 199.02 C 396.42 216.35 375.66 220.55 362.00 218.00 C 348.34 215.45 330.72 218.22 325.00 232.00
C 326.98 232.38 327.28 230.49 327.00 229.00
C 345.42 231.41 366.12 229.64 387.00 230.00 C 407.88 230.36 430.76 229.92 452.00 230.00 C 473.24 230.08 495.67 230.15 517.00 230.00 C 538.33 229.85 560.81 230.47 582.00 230.00 C 603.19 229.53 625.63 232.01 645.00 228.00
C 638.19 217.17 633.67 204.12 627.70 192.30 C 621.73 180.47 617.57 168.10 611.92 156.08 C 606.28 144.06 603.05 131.38 595.93 120.07 C 588.80 108.76 586.67 95.82 579.92 84.08 C 573.18 72.33 570.82 58.61 555.00 61.00 C 539.18 63.39 519.65 59.92 503.00 61.00 C 486.35 62.08 468.02 60.51 451.00 61.00 C 433.98 61.49 416.19 60.77 399.00 61.00 C 381.81 61.23 364.25 60.88 347.00 61.00 C 329.75 61.12 312.26 60.90 295.00 61.00 C 277.74 61.10 260.23 60.87 243.00 61.00 C 225.77 61.13 208.13 60.74 191.00 61.00 C 173.87 61.26 155.89 60.45 139.00 61.00 C 122.11 61.55 105.37 58.47 90.00 64.00
C 88.41 75.35 77.82 82.63 80.00 95.00
C 71.89 98.11 71.53 108.16 67.92 114.92 C 64.30 121.68 62.10 128.84 57.99 134.99 C 53.88 141.14 52.52 150.13 47.99 156.99 C 43.46 163.85 42.51 171.82 38.30 179.30 C 34.10 186.79 33.00 192.97 27.77 200.77 C 22.54 208.57 23.99 214.16 17.90 222.90 C 11.82 231.64 24.65 230.35 35.00 230.00 C 45.35 229.65 56.48 230.16 67.00 230.00 C 77.52 229.84 88.41 230.07 99.00 230.00 C 109.59 229.93 120.38 230.02 131.00 230.00 C 141.62 229.98 152.38 229.99 163.00 230.00 C 173.62 230.01 184.41 229.96 195.00 230.00 C 205.59 230.04 216.50 229.90 227.00 230.00 C 237.50 230.10 248.71 229.77 259.00 230.00 C 269.30 230.23 277.80 229.82 287.33 230.33 C 296.85 230.84 306.14 230.55 316.00 230.00
C 315.63 234.64 315.58 238.32 319.00 241.00 Z"/>
</g>
<g fill="None" fill-opacity="0.0" stroke="#958A9C" stroke-opacity="1.00" stroke-width="0.3"><path d="
M 319.00 241.00 
C 319.01 241.06 320.00 241.00 320.00 241.00
C 320.25 237.28 318.15 233.91 319.00 230.00
C 322.58 229.27 324.90 230.47 323.00 234.00
C 323.00 234.01 324.00 234.00 324.00 234.00
C 324.14 232.90 324.79 232.64 325.00 232.00
C 330.72 218.22 348.34 215.45 362.00 218.00 C 375.66 220.55 396.42 216.35 394.98 199.02 C 393.53 181.70 389.47 170.83 388.93 153.07 C 388.38 135.32 372.46 131.35 356.67 134.67 C 340.88 137.99 321.66 134.37 306.02 137.02 C 290.39 139.68 275.14 135.86 261.75 144.75 C 248.36 153.65 253.18 172.25 256.00 185.00 C 258.83 197.74 260.70 211.48 272.92 220.08 C 285.14 228.68 302.32 226.86 317.00 226.00
C 316.90 231.27 318.40 235.92 319.00 241.00
M 321.00 229.00 
C 317.24 218.08 299.47 227.36 288.99 224.01 C 278.51 220.66 269.92 216.40 265.22 205.78 C 260.53 195.15 258.13 183.69 257.00 172.00 C 255.87 160.31 257.77 146.21 270.07 143.07 C 282.37 139.94 296.72 140.38 309.00 140.00 C 321.28 139.62 335.74 136.43 347.01 137.01 C 358.28 137.59 376.54 131.42 382.30 141.70 C 388.07 151.97 387.38 166.43 388.93 177.07 C 390.47 187.72 396.44 203.73 387.75 211.75 C 379.07 219.77 360.17 213.42 349.00 215.00 C 337.83 216.58 327.84 219.65 321.00 229.00 Z"/>
</g>
<g fill="None" fill-opacity="0.0" stroke="#EFE0F9" stroke-opacity="1.00" stroke-width="0.3"><path d="
M 321.00 229.00 
C 327.84 219.65 337.83 216.58 349.00 215.00 C 360.17 213.42 379.07 219.77 387.75 211.75 C 396.44 203.73 390.47 187.72 388.93 177.07 C 387.38 166.43 388.07 151.97 382.30 141.70 C 376.54 131.42 358.28 137.59 347.01 137.01 C 335.74 136.43 321.28 139.62 309.00 140.00 C 296.72 140.38 282.37 139.94 270.07 143.07 C 257.77 146.21 255.87 160.31 257.00 172.00 C 258.13 183.69 260.53 195.15 265.22 205.78 C 269.92 216.40 278.51 220.66 288.99 224.01 C 299.47 227.36 317.24 218.08 321.00 229.00
M 305.00 160.00 
C 309.11 162.78 303.65 170.05 299.33 166.67 C 295.01 163.29 300.85 157.19 305.00 160.00
M 295.00 170.00 
C 280.22 166.60 287.82 185.59 286.00 194.00
C 266.42 199.20 287.59 164.81 268.00 170.00
C 265.94 161.93 275.94 163.84 281.00 164.00 C 286.06 164.16 297.10 161.43 295.00 170.00
M 373.00 164.00 
C 370.40 169.87 365.01 174.77 363.00 181.00
C 366.89 182.10 368.97 179.85 368.00 176.00
C 376.43 173.17 374.52 181.23 381.00 182.00
C 382.15 186.12 379.58 188.30 376.00 189.00
C 377.93 194.95 371.97 194.21 368.00 194.00
C 370.43 184.10 357.66 189.25 352.00 188.00
C 353.66 178.15 361.29 162.86 373.00 164.00
M 319.00 192.00 
C 319.00 195.33 319.00 198.67 319.00 202.00
C 305.17 202.98 313.75 192.80 311.00 182.00 C 308.25 171.20 315.93 169.58 325.00 170.00 C 334.07 170.43 338.71 177.51 337.00 186.00 C 335.29 194.49 324.71 195.73 319.00 192.00
M 298.00 194.00 
C 298.00 186.33 298.00 178.67 298.00 171.00
C 310.26 166.74 310.30 198.26 298.00 194.00 Z"/>
</g>
<g fill="None" fill-opacity="0.0" stroke="#7F7189" stroke-opacity="1.00" stroke-width="0.3"><path d="
M 305.00 160.00 
C 300.85 157.19 295.01 163.29 299.33 166.67 C 303.65 170.05 309.11 162.78 305.00 160.00 Z"/>
</g>
<g fill="None" fill-opacity="0.0" stroke="#847889" stroke-opacity="1.00" stroke-width="0.3"><path d="
M 295.00 170.00 
C 297.10 161.43 286.06 164.16 281.00 164.00 C 275.94 163.84 265.94 161.93 268.00 170.00
C 287.59 164.81 266.42 199.20 286.00 194.00
C 287.82 185.59 280.22 166.60 295.00 170.00 Z"/>
</g>
<g fill="None" fill-opacity="0.0" stroke="#837789" stroke-opacity="1.00" stroke-width="0.3"><path d="
M 373.00 164.00 
C 361.29 162.86 353.66 178.15 352.00 188.00
C 357.66 189.25 370.43 184.10 368.00 194.00
C 371.97 194.21 377.93 194.95 376.00 189.00
C 379.58 188.30 382.15 186.12 381.00 182.00
C 374.52 181.23 376.43 173.17 368.00 176.00
C 368.97 179.85 366.89 182.10 363.00 181.00
C 365.01 174.77 370.40 169.87 373.00 164.00 Z"/>
</g>
<g fill="None" fill-opacity="0.0" stroke="#83778A" stroke-opacity="1.00" stroke-width="0.3"><path d="
M 319.00 192.00 
C 324.71 195.73 335.29 194.49 337.00 186.00 C 338.71 177.51 334.07 170.43 325.00 170.00 C 315.93 169.58 308.25 171.20 311.00 182.00 C 313.75 192.80 305.17 202.98 319.00 202.00
C 319.00 198.67 319.00 195.33 319.00 192.00
M 327.00 177.00 
C 332.44 179.66 327.55 191.12 321.78 187.22 C 316.00 183.32 320.55 173.85 327.00 177.00 Z"/>
</g>
<g fill="None" fill-opacity="0.0" stroke="#83778A" stroke-opacity="1.00" stroke-width="0.3"><path d="
M 298.00 194.00 
C 310.30 198.26 310.26 166.74 298.00 171.00
C 298.00 178.67 298.00 186.33 298.00 194.00 Z"/>
</g>
<g fill="None" fill-opacity="0.0" stroke="#E6D6ED" stroke-opacity="1.00" stroke-width="0.3"><path d="
M 327.00 177.00 
C 320.55 173.85 316.00 183.32 321.78 187.22 C 327.55 191.12 332.44 179.66 327.00 177.00 Z"/>
</g>
<g fill="None" fill-opacity="0.0" stroke="#1B191B" stroke-opacity="1.00" stroke-width="0.3"><path d="
M 320.00 241.00 
C 323.62 243.88 323.05 236.16 323.00 234.00
C 324.90 230.47 322.58 229.27 319.00 230.00
C 318.15 233.91 320.25 237.28 320.00 241.00 Z"/>
</g>
<g fill="None" fill-opacity="0.0" stroke="#B4B4B4" stroke-opacity="1.00" stroke-width="0.3"><path d="
M 320.00 241.00 
C 320.00 241.00 319.01 241.06 319.00 241.00
C 321.73 249.24 323.83 235.35 324.00 234.00
C 324.00 234.00 323.00 234.01 323.00 234.00
C 323.05 236.16 323.62 243.88 320.00 241.00 Z"/>
</g>
<g fill="#FEFEFE" fill-opacity="1.00" stroke="None">
<path d="
M 0.00 253.00 
L 646.00 253.00
L 646.00 0.00
L 0.00 0.00
L 0.00 253.00
M 443.00 27.00 
C 449.11 37.29 432.35 37.91 424.00 37.00 C 415.65 36.09 401.60 37.37 392.00 37.00 C 382.40 36.63 370.14 37.07 360.00 37.00 C 349.86 36.93 338.32 36.83 328.00 37.00 C 317.68 37.17 306.27 36.47 296.00 37.00 C 285.73 37.53 273.95 35.76 264.00 37.00 C 254.05 38.24 241.16 34.22 232.00 37.00 C 222.84 39.78 210.10 29.33 221.00 24.00
C 221.40 23.80 222.00 24.00 222.00 24.00
C 239.93 24.00 258.09 23.72 276.00 24.00 C 293.91 24.28 312.18 23.26 330.00 24.00 C 347.82 24.74 366.39 22.30 384.00 24.00 C 401.61 25.70 420.85 20.20 438.00 24.00
C 439.39 24.31 442.22 25.69 443.00 27.00
M 90.00 45.00 
C 100.96 45.46 112.12 44.83 124.00 45.00 C 135.88 45.17 148.96 44.92 161.00 45.00 C 173.04 45.08 184.89 44.96 197.00 45.00 C 209.11 45.04 221.85 44.98 234.00 45.00 C 246.15 45.02 257.83 44.99 270.00 45.00 C 282.17 45.01 294.82 44.99 307.00 45.00 C 319.18 45.01 330.81 44.98 343.00 45.00 C 355.19 45.02 367.79 44.95 380.00 45.00 C 392.21 45.05 403.74 44.89 416.00 45.00 C 428.26 45.11 440.63 44.76 453.00 45.00 C 465.37 45.24 476.38 44.45 489.00 45.00 C 501.62 45.55 512.86 43.81 526.00 45.00 C 539.14 46.19 547.63 42.28 562.00 45.00 C 576.37 47.72 564.56 59.27 552.00 56.00 C 539.44 52.73 528.34 57.44 516.00 56.00 C 503.66 54.56 491.25 56.67 479.00 56.00 C 466.75 55.33 455.21 56.29 443.00 56.00 C 430.79 55.71 418.19 56.14 406.00 56.00 C 393.81 55.86 382.18 56.06 370.00 56.00 C 357.82 55.94 345.17 56.03 333.00 56.00 C 320.83 55.97 309.15 56.02 297.00 56.00 C 284.85 55.98 272.13 56.02 260.00 56.00 C 247.87 55.98 236.07 56.05 224.00 56.00 C 211.93 55.95 198.95 56.09 187.00 56.00 C 175.05 55.91 162.67 56.21 151.00 56.00 C 139.33 55.79 125.08 56.46 114.00 56.00 C 102.92 55.54 84.41 60.80 90.00 45.00
M 325.00 232.00 
C 324.79 232.64 324.14 232.90 324.00 234.00
C 323.83 235.35 321.73 249.24 319.00 241.00
C 315.58 238.32 315.63 234.64 316.00 230.00
C 306.14 230.55 296.85 230.84 287.33 230.33 C 277.80 229.82 269.30 230.23 259.00 230.00 C 248.71 229.77 237.50 230.10 227.00 230.00 C 216.50 229.90 205.59 230.04 195.00 230.00 C 184.41 229.96 173.62 230.01 163.00 230.00 C 152.38 229.99 141.62 229.98 131.00 230.00 C 120.38 230.02 109.59 229.93 99.00 230.00 C 88.41 230.07 77.52 229.84 67.00 230.00 C 56.48 230.16 45.35 229.65 35.00 230.00 C 24.65 230.35 11.82 231.64 17.90 222.90 C 23.99 214.16 22.54 208.57 27.77 200.77 C 33.00 192.97 34.10 186.79 38.30 179.30 C 42.51 171.82 43.46 163.85 47.99 156.99 C 52.52 150.13 53.88 141.14 57.99 134.99 C 62.10 128.84 64.30 121.68 67.92 114.92 C 71.53 108.16 71.89 98.11 80.00 95.00
C 77.82 82.63 88.41 75.35 90.00 64.00
C 105.37 58.47 122.11 61.55 139.00 61.00 C 155.89 60.45 173.87 61.26 191.00 61.00 C 208.13 60.74 225.77 61.13 243.00 61.00 C 260.23 60.87 277.74 61.10 295.00 61.00 C 312.26 60.90 329.75 61.12 347.00 61.00 C 364.25 60.88 381.81 61.23 399.00 61.00 C 416.19 60.77 433.98 61.49 451.00 61.00 C 468.02 60.51 486.35 62.08 503.00 61.00 C 519.65 59.92 539.18 63.39 555.00 61.00 C 570.82 58.61 573.18 72.33 579.92 84.08 C 586.67 95.82 588.80 108.76 595.93 120.07 C 603.05 131.38 606.28 144.06 611.92 156.08 C 617.57 168.10 621.73 180.47 627.70 192.30 C 633.67 204.12 638.19 217.17 645.00 228.00
C 625.63 232.01 603.19 229.53 582.00 230.00 C 560.81 230.47 538.33 229.85 517.00 230.00 C 495.67 230.15 473.24 230.08 452.00 230.00 C 430.76 229.92 407.88 230.36 387.00 230.00 C 366.12 229.64 345.42 231.41 327.00 229.00
C 327.28 230.49 326.98 232.38 325.00 232.00 Z"/>
</g>
<g fill="#DADEE0" fill-opacity="1.00" stroke="None">
<path d="
M 443.00 27.00 
C 447.45 38.87 427.15 36.17 419.00 36.00 C 410.85 35.83 395.69 36.11 386.00 36.00 C 376.31 35.89 363.37 36.13 353.00 36.00 C 342.63 35.87 330.62 36.24 320.00 36.00 C 309.38 35.76 297.62 36.51 287.00 36.00 C 276.38 35.49 264.37 37.12 254.00 36.00 C 243.63 34.88 231.03 38.93 222.00 35.00
C 219.65 33.98 220.00 34.42 219.00 32.00
C 217.71 28.87 218.24 26.59 221.00 24.00
C 210.10 29.33 222.84 39.78 232.00 37.00 C 241.16 34.22 254.05 38.24 264.00 37.00 C 273.95 35.76 285.73 37.53 296.00 37.00 C 306.27 36.47 317.68 37.17 328.00 37.00 C 338.32 36.83 349.86 36.93 360.00 37.00 C 370.14 37.07 382.40 36.63 392.00 37.00 C 401.60 37.37 415.65 36.09 424.00 37.00 C 432.35 37.91 449.11 37.29 443.00 27.00 Z"/>
</g>
<g fill="#797D83" fill-opacity="1.00" stroke="None">
<path d="
M 219.00 32.00 
C 218.21 28.39 220.14 26.57 222.00 24.00
C 222.00 24.00 221.40 23.80 221.00 24.00
C 218.24 26.59 217.71 28.87 219.00 32.00 Z"/>
</g>
<g fill="#29313A" fill-opacity="1.00" stroke="None">
<path d="
M 219.00 32.00 
C 220.00 34.42 219.65 33.98 222.00 35.00
C 230.06 37.21 239.61 33.99 248.00 35.00 C 256.39 36.01 265.46 34.52 274.00 35.00 C 282.54 35.48 291.40 34.74 300.00 35.00 C 308.60 35.26 317.38 34.77 326.00 35.00 C 334.62 35.23 343.40 34.66 352.00 35.00 C 360.60 35.34 369.46 34.31 378.00 35.00 C 386.54 35.69 395.60 33.51 404.00 35.00 C 412.40 36.49 421.92 31.71 430.00 35.00 C 438.08 38.29 448.37 27.15 438.00 24.00
C 420.85 20.20 401.61 25.70 384.00 24.00 C 366.39 22.30 347.82 24.74 330.00 24.00 C 312.18 23.26 293.91 24.28 276.00 24.00 C 258.09 23.72 239.93 24.00 222.00 24.00
C 220.14 26.57 218.21 28.39 219.00 32.00 Z"/>
</g>
<g fill="#75797F" fill-opacity="1.00" stroke="None">
<path d="
M 222.00 35.00 
C 231.03 38.93 243.63 34.88 254.00 36.00 C 264.37 37.12 276.38 35.49 287.00 36.00 C 297.62 36.51 309.38 35.76 320.00 36.00 C 330.62 36.24 342.63 35.87 353.00 36.00 C 363.37 36.13 376.31 35.89 386.00 36.00 C 395.69 36.11 410.85 35.83 419.00 36.00 C 427.15 36.17 447.45 38.87 443.00 27.00
C 442.22 25.69 439.39 24.31 438.00 24.00
C 448.37 27.15 438.08 38.29 430.00 35.00 C 421.92 31.71 412.40 36.49 404.00 35.00 C 395.60 33.51 386.54 35.69 378.00 35.00 C 369.46 34.31 360.60 35.34 352.00 35.00 C 343.40 34.66 334.62 35.23 326.00 35.00 C 317.38 34.77 308.60 35.26 300.00 35.00 C 291.40 34.74 282.54 35.48 274.00 35.00 C 265.46 34.52 256.39 36.01 248.00 35.00 C 239.61 33.99 230.06 37.21 222.00 35.00 Z"/>
</g>
<g fill="#F4E6FB" fill-opacity="1.00" stroke="None">
<path d="
M 90.00 45.00 
C 84.41 60.80 102.92 55.54 114.00 56.00 C 125.08 56.46 139.33 55.79 151.00 56.00 C 162.67 56.21 175.05 55.91 187.00 56.00 C 198.95 56.09 211.93 55.95 224.00 56.00 C 236.07 56.05 247.87 55.98 260.00 56.00 C 272.13 56.02 284.85 55.98 297.00 56.00 C 309.15 56.02 320.83 55.97 333.00 56.00 C 345.17 56.03 357.82 55.94 370.00 56.00 C 382.18 56.06 393.81 55.86 406.00 56.00 C 418.19 56.14 430.79 55.71 443.00 56.00 C 455.21 56.29 466.75 55.33 479.00 56.00 C 491.25 56.67 503.66 54.56 516.00 56.00 C 528.34 57.44 539.44 52.73 552.00 56.00 C 564.56 59.27 576.37 47.72 562.00 45.00 C 547.63 42.28 539.14 46.19 526.00 45.00 C 512.86 43.81 501.62 45.55 489.00 45.00 C 476.38 44.45 465.37 45.24 453.00 45.00 C 440.63 44.76 428.26 45.11 416.00 45.00 C 403.74 44.89 392.21 45.05 380.00 45.00 C 367.79 44.95 355.19 45.02 343.00 45.00 C 330.81 44.98 319.18 45.01 307.00 45.00 C 294.82 44.99 282.17 45.01 270.00 45.00 C 257.83 44.99 246.15 45.02 234.00 45.00 C 221.85 44.98 209.11 45.04 197.00 45.00 C 184.89 44.96 173.04 45.08 161.00 45.00 C 148.96 44.92 135.88 45.17 124.00 45.00 C 112.12 44.83 100.96 45.46 90.00 45.00 Z"/>
</g>
<g fill="#F8F1FE" fill-opacity="1.00" stroke="None">
<path d="
M 319.00 241.00 
C 318.40 235.92 316.90 231.27 317.00 226.00
C 302.32 226.86 285.14 228.68 272.92 220.08 C 260.70 211.48 258.83 197.74 256.00 185.00 C 253.18 172.25 248.36 153.65 261.75 144.75 C 275.14 135.86 290.39 139.68 306.02 137.02 C 321.66 134.37 340.88 137.99 356.67 134.67 C 372.46 131.35 388.38 135.32 388.93 153.07 C 389.47 170.83 393.53 181.70 394.98 199.02 C 396.42 216.35 375.66 220.55 362.00 218.00 C 348.34 215.45 330.72 218.22 325.00 232.00
C 326.98 232.38 327.28 230.49 327.00 229.00
C 345.42 231.41 366.12 229.64 387.00 230.00 C 407.88 230.36 430.76 229.92 452.00 230.00 C 473.24 230.08 495.67 230.15 517.00 230.00 C 538.33 229.85 560.81 230.47 582.00 230.00 C 603.19 229.53 625.63 232.01 645.00 228.00
C 638.19 217.17 633.67 204.12 627.70 192.30 C 621.73 180.47 617.57 168.10 611.92 156.08 C 606.28 144.06 603.05 131.38 595.93 120.07 C 588.80 108.76 586.67 95.82 579.92 84.08 C 573.18 72.33 570.82 58.61 555.00 61.00 C 539.18 63.39 519.65 59.92 503.00 61.00 C 486.35 62.08 468.02 60.51 451.00 61.00 C 433.98 61.49 416.19 60.77 399.00 61.00 C 381.81 61.23 364.25 60.88 347.00 61.00 C 329.75 61.12 312.26 60.90 295.00 61.00 C 277.74 61.10 260.23 60.87 243.00 61.00 C 225.77 61.13 208.13 60.74 191.00 61.00 C 173.87 61.26 155.89 60.45 139.00 61.00 C 122.11 61.55 105.37 58.47 90.00 64.00
C 88.41 75.35 77.82 82.63 80.00 95.00
C 71.89 98.11 71.53 108.16 67.92 114.92 C 64.30 121.68 62.10 128.84 57.99 134.99 C 53.88 141.14 52.52 150.13 47.99 156.99 C 43.46 163.85 42.51 171.82 38.30 179.30 C 34.10 186.79 33.00 192.97 27.77 200.77 C 22.54 208.57 23.99 214.16 17.90 222.90 C 11.82 231.64 24.65 230.35 35.00 230.00 C 45.35 229.65 56.48 230.16 67.00 230.00 C 77.52 229.84 88.41 230.07 99.00 230.00 C 109.59 229.93 120.38 230.02 131.00 230.00 C 141.62 229.98 152.38 229.99 163.00 230.00 C 173.62 230.01 184.41 229.96 195.00 230.00 C 205.59 230.04 216.50 229.90 227.00 230.00 C 237.50 230.10 248.71 229.77 259.00 230.00 C 269.30 230.23 277.80 229.82 287.33 230.33 C 296.85 230.84 306.14 230.55 316.00 230.00
C 315.63 234.64 315.58 238.32 319.00 241.00 Z"/>
</g>
<g fill="#958A9C" fill-opacity="1.00" stroke="None">
<path d="
M 319.00 241.00 
C 319.01 241.06 320.00 241.00 320.00 241.00
C 320.25 237.28 318.15 233.91 319.00 230.00
C 322.58 229.27 324.90 230.47 323.00 234.00
C 323.00 234.01 324.00 234.00 324.00 234.00
C 324.14 232.90 324.79 232.64 325.00 232.00
C 330.72 218.22 348.34 215.45 362.00 218.00 C 375.66 220.55 396.42 216.35 394.98 199.02 C 393.53 181.70 389.47 170.83 388.93 153.07 C 388.38 135.32 372.46 131.35 356.67 134.67 C 340.88 137.99 321.66 134.37 306.02 137.02 C 290.39 139.68 275.14 135.86 261.75 144.75 C 248.36 153.65 253.18 172.25 256.00 185.00 C 258.83 197.74 260.70 211.48 272.92 220.08 C 285.14 228.68 302.32 226.86 317.00 226.00
C 316.90 231.27 318.40 235.92 319.00 241.00
M 321.00 229.00 
C 317.24 218.08 299.47 227.36 288.99 224.01 C 278.51 220.66 269.92 216.40 265.22 205.78 C 260.53 195.15 258.13 183.69 257.00 172.00 C 255.87 160.31 257.77 146.21 270.07 143.07 C 282.37 139.94 296.72 140.38 309.00 140.00 C 321.28 139.62 335.74 136.43 347.01 137.01 C 358.28 137.59 376.54 131.42 382.30 141.70 C 388.07 151.97 387.38 166.43 388.93 177.07 C 390.47 187.72 396.44 203.73 387.75 211.75 C 379.07 219.77 360.17 213.42 349.00 215.00 C 337.83 216.58 327.84 219.65 321.00 229.00 Z"/>
</g>
<g fill="#EFE0F9" fill-opacity="1.00" stroke="None">
<path d="
M 321.00 229.00 
C 327.84 219.65 337.83 216.58 349.00 215.00 C 360.17 213.42 379.07 219.77 387.75 211.75 C 396.44 203.73 390.47 187.72 388.93 177.07 C 387.38 166.43 388.07 151.97 382.30 141.70 C 376.54 131.42 358.28 137.59 347.01 137.01 C 335.74 136.43 321.28 139.62 309.00 140.00 C 296.72 140.38 282.37 139.94 270.07 143.07 C 257.77 146.21 255.87 160.31 257.00 172.00 C 258.13 183.69 260.53 195.15 265.22 205.78 C 269.92 216.40 278.51 220.66 288.99 224.01 C 299.47 227.36 317.24 218.08 321.00 229.00
M 305.00 160.00 
C 309.11 162.78 303.65 170.05 299.33 166.67 C 295.01 163.29 300.85 157.19 305.00 160.00
M 295.00 170.00 
C 280.22 166.60 287.82 185.59 286.00 194.00
C 266.42 199.20 287.59 164.81 268.00 170.00
C 265.94 161.93 275.94 163.84 281.00 164.00 C 286.06 164.16 297.10 161.43 295.00 170.00
M 373.00 164.00 
C 370.40 169.87 365.01 174.77 363.00 181.00
C 366.89 182.10 368.97 179.85 368.00 176.00
C 376.43 173.17 374.52 181.23 381.00 182.00
C 382.15 186.12 379.58 188.30 376.00 189.00
C 377.93 194.95 371.97 194.21 368.00 194.00
C 370.43 184.10 357.66 189.25 352.00 188.00
C 353.66 178.15 361.29 162.86 373.00 164.00
M 319.00 192.00 
C 319.00 195.33 319.00 198.67 319.00 202.00
C 305.17 202.98 313.75 192.80 311.00 182.00 C 308.25 171.20 315.93 169.58 325.00 170.00 C 334.07 170.43 338.71 177.51 337.00 186.00 C 335.29 194.49 324.71 195.73 319.00 192.00
M 298.00 194.00 
C 298.00 186.33 298.00 178.67 298.00 171.00
C 310.26 166.74 310.30 198.26 298.00 194.00 Z"/>
</g>
<g fill="#7F7189" fill-opacity="1.00" stroke="None">
<path d="
M 305.00 160.00 
C 300.85 157.19 295.01 163.29 299.33 166.67 C 303.65 170.05 309.11 162.78 305.00 160.00 Z"/>
</g>
<g fill="#847889" fill-opacity="1.00" stroke="None">
<path d="
M 295.00 170.00 
C 297.10 161.43 286.06 164.16 281.00 164.00 C 275.94 163.84 265.94 161.93 268.00 170.00
C 287.59 164.81 266.42 199.20 286.00 194.00
C 287.82 185.59 280.22 166.60 295.00 170.00 Z"/>
</g>
<g fill="#837789" fill-opacity="1.00" stroke="None">
<path d="
M 373.00 164.00 
C 361.29 162.86 353.66 178.15 352.00 188.00
C 357.66 189.25 370.43 184.10 368.00 194.00
C 371.97 194.21 377.93 194.95 376.00 189.00
C 379.58 188.30 382.15 186.12 381.00 182.00
C 374.52 181.23 376.43 173.17 368.00 176.00
C 368.97 179.85 366.89 182.10 363.00 181.00
C 365.01 174.77 370.40 169.87 373.00 164.00 Z"/>
</g>
<g fill="#83778A" fill-opacity="1.00" stroke="None">
<path d="
M 319.00 192.00 
C 324.71 195.73 335.29 194.49 337.00 186.00 C 338.71 177.51 334.07 170.43 325.00 170.00 C 315.93 169.58 308.25 171.20 311.00 182.00 C 313.75 192.80 305.17 202.98 319.00 202.00
C 319.00 198.67 319.00 195.33 319.00 192.00
M 327.00 177.00 
C 332.44 179.66 327.55 191.12 321.78 187.22 C 316.00 183.32 320.55 173.85 327.00 177.00 Z"/>
</g>
<g fill="#83778A" fill-opacity="1.00" stroke="None">
<path d="
M 298.00 194.00 
C 310.30 198.26 310.26 166.74 298.00 171.00
C 298.00 178.67 298.00 186.33 298.00 194.00 Z"/>
</g>
<g fill="#E6D6ED" fill-opacity="1.00" stroke="None">
<path d="
M 327.00 177.00 
C 320.55 173.85 316.00 183.32 321.78 187.22 C 327.55 191.12 332.44 179.66 327.00 177.00 Z"/>
</g>
<g fill="#1B191B" fill-opacity="1.00" stroke="None">
<path d="
M 320.00 241.00 
C 323.62 243.88 323.05 236.16 323.00 234.00
C 324.90 230.47 322.58 229.27 319.00 230.00
C 318.15 233.91 320.25 237.28 320.00 241.00 Z"/>
</g>
<g fill="#B4B4B4" fill-opacity="1.00" stroke="None">
<path d="
M 320.00 241.00 
C 320.00 241.00 319.01 241.06 319.00 241.00
C 321.73 249.24 323.83 235.35 324.00 234.00
C 324.00 234.00 323.00 234.01 323.00 234.00
C 323.05 236.16 323.62 243.88 320.00 241.00 Z"/>
</g>
</svg>