<svg width="1357" height="294" viewBox="0 0 1357 294" fill="none" xmlns="http://www.w3.org/2000/svg">
<path d="M67.0675 78L91.7875 22H107.388L132.188 78H115.708L96.3475 29.76H102.588L83.2275 78H67.0675ZM80.5875 67.12L84.6675 55.44H112.028L116.108 67.12H80.5875ZM135.958 78V18.64H151.158V78H135.958ZM161.036 78V34.64H175.516V47.28L173.356 43.68C174.636 40.4267 176.716 38 179.596 36.4C182.476 34.7467 185.97 33.92 190.076 33.92V47.6C189.383 47.4933 188.77 47.44 188.236 47.44C187.756 47.3867 187.223 47.36 186.636 47.36C183.543 47.36 181.036 48.2133 179.116 49.92C177.196 51.5733 176.236 54.2933 176.236 58.08V78H161.036ZM196.349 78V34.64H211.549V78H196.349ZM203.949 29.84C201.175 29.84 198.935 29.0667 197.229 27.52C195.522 25.9733 194.669 24.0533 194.669 21.76C194.669 19.4667 195.522 17.5467 197.229 16C198.935 14.4533 201.175 13.68 203.949 13.68C206.722 13.68 208.962 14.4267 210.669 15.92C212.375 17.36 213.229 19.2267 213.229 21.52C213.229 23.92 212.375 25.92 210.669 27.52C209.015 29.0667 206.775 29.84 203.949 29.84ZM242.627 94.24C238.467 94.24 234.494 93.76 230.707 92.8C226.974 91.84 223.774 90.4267 221.107 88.56L226.627 77.92C228.44 79.36 230.68 80.48 233.347 81.28C236.067 82.1333 238.707 82.56 241.267 82.56C245.374 82.56 248.334 81.6533 250.147 79.84C251.96 78.08 252.867 75.4933 252.867 72.08V66.96L253.667 54.8L253.587 42.56V34.64H268.067V70.08C268.067 78.2933 265.854 84.3733 261.427 88.32C257 92.2667 250.734 94.24 242.627 94.24ZM239.987 75.76C236.147 75.76 232.6 74.9067 229.347 73.2C226.147 71.44 223.56 69.0133 221.587 65.92C219.667 62.7733 218.707 59.0667 218.707 54.8C218.707 50.5333 219.667 46.8533 221.587 43.76C223.56 40.6133 226.147 38.1867 229.347 36.48C232.6 34.7733 236.147 33.92 239.987 33.92C243.667 33.92 246.814 34.6667 249.427 36.16C252.04 37.6 254.014 39.8667 255.347 42.96C256.734 46.0533 257.427 50 257.427 54.8C257.427 59.6 256.734 63.5467 255.347 66.64C254.014 69.7333 252.04 72.0267 249.427 73.52C246.814 75.0133 243.667 75.76 239.987 75.76ZM243.587 63.68C245.4 63.68 247 63.3067 248.387 62.56C249.827 61.8133 250.947 60.7733 251.747 59.44C252.6 58.1067 253.027 56.56 253.027 54.8C253.027 53.04 252.6 51.4933 251.747 50.16C250.947 48.8267 249.827 47.8133 248.387 47.12C247 46.3733 245.4 46 243.587 46C241.774 46 240.147 46.3733 238.707 47.12C237.267 47.8133 236.12 48.8267 235.267 50.16C234.467 51.4933 234.067 53.04 234.067 54.8C234.067 56.56 234.467 58.1067 235.267 59.44C236.12 60.7733 237.267 61.8133 238.707 62.56C240.147 63.3067 241.774 63.68 243.587 63.68ZM306.073 33.92C309.433 33.92 312.473 34.6133 315.193 36C317.913 37.3333 320.046 39.4133 321.593 42.24C323.193 45.0667 323.993 48.72 323.993 53.2V78H308.793V55.68C308.793 52.5867 308.153 50.3467 306.873 48.96C305.646 47.52 303.913 46.8 301.673 46.8C300.073 46.8 298.606 47.1733 297.273 47.92C295.94 48.6133 294.9 49.7067 294.153 51.2C293.406 52.6933 293.033 54.64 293.033 57.04V78H277.833V18.64H293.033V46.96L289.513 43.36C291.166 40.2133 293.433 37.8667 296.313 36.32C299.193 34.72 302.446 33.92 306.073 33.92ZM352.896 78.72C347.35 78.72 343.03 77.36 339.936 74.64C336.843 71.8667 335.296 67.7067 335.296 62.16V24.96H350.496V62C350.496 63.5467 350.923 64.7733 351.776 65.68C352.63 66.5333 353.723 66.96 355.056 66.96C356.87 66.96 358.416 66.5067 359.696 65.6L363.456 76.24C362.176 77.0933 360.603 77.7067 358.736 78.08C356.87 78.5067 354.923 78.72 352.896 78.72ZM328.976 47.6V36.24H360.416V47.6H328.976ZM368.419 90.56L374.419 69.76L376.579 78.4C373.912 78.4 371.725 77.6267 370.019 76.08C368.312 74.48 367.459 72.3467 367.459 69.68C367.459 66.9067 368.312 64.72 370.019 63.12C371.779 61.52 373.965 60.72 376.579 60.72C379.192 60.72 381.352 61.5467 383.059 63.2C384.765 64.8 385.619 66.96 385.619 69.68C385.619 70.4267 385.565 71.1733 385.459 71.92C385.352 72.6667 385.112 73.5733 384.739 74.64C384.365 75.7067 383.779 77.12 382.979 78.88L377.939 90.56H368.419ZM443.316 78.72C439.423 78.72 436.17 77.92 433.556 76.32C430.996 74.72 429.076 72.2667 427.796 68.96C426.516 65.6533 425.876 61.4133 425.876 56.24C425.876 51.1733 426.543 46.9867 427.876 43.68C429.263 40.3733 431.263 37.92 433.876 36.32C436.49 34.72 439.636 33.92 443.316 33.92C447.263 33.92 450.836 34.8267 454.036 36.64C457.29 38.4533 459.85 41.04 461.716 44.4C463.636 47.7067 464.596 51.6533 464.596 56.24C464.596 60.88 463.636 64.88 461.716 68.24C459.85 71.5467 457.29 74.1333 454.036 76C450.836 77.8133 447.263 78.72 443.316 78.72ZM416.036 78V18.64H431.236V41.92L430.436 56.24L430.516 70.56V78H416.036ZM440.116 66.64C441.823 66.64 443.343 66.24 444.676 65.44C446.063 64.64 447.156 63.4667 447.956 61.92C448.81 60.32 449.236 58.4267 449.236 56.24C449.236 54.0533 448.81 52.2133 447.956 50.72C447.156 49.1733 446.063 48 444.676 47.2C443.343 46.4 441.823 46 440.116 46C438.41 46 436.863 46.4 435.476 47.2C434.143 48 433.05 49.1733 432.196 50.72C431.396 52.2133 430.996 54.0533 430.996 56.24C430.996 58.4267 431.396 60.32 432.196 61.92C433.05 63.4667 434.143 64.64 435.476 65.44C436.863 66.24 438.41 66.64 440.116 66.64ZM494.381 78.72C489.261 78.72 484.781 77.76 480.941 75.84C477.155 73.8667 474.195 71.2 472.061 67.84C469.981 64.4267 468.941 60.56 468.941 56.24C468.941 51.92 469.955 48.08 471.981 44.72C474.061 41.3067 476.915 38.6667 480.541 36.8C484.168 34.88 488.248 33.92 492.781 33.92C497.048 33.92 500.941 34.8 504.461 36.56C507.981 38.2667 510.781 40.8 512.861 44.16C514.941 47.52 515.981 51.6 515.981 56.4C515.981 56.9333 515.955 57.5467 515.901 58.24C515.848 58.9333 515.795 59.5733 515.741 60.16H481.421V52.16H507.661L501.901 54.4C501.955 52.4267 501.581 50.72 500.781 49.28C500.035 47.84 498.968 46.72 497.581 45.92C496.248 45.12 494.675 44.72 492.861 44.72C491.048 44.72 489.448 45.12 488.061 45.92C486.728 46.72 485.688 47.8667 484.941 49.36C484.195 50.8 483.821 52.5067 483.821 54.48V56.8C483.821 58.9333 484.248 60.7733 485.101 62.32C486.008 63.8667 487.288 65.0667 488.941 65.92C490.595 66.72 492.568 67.12 494.861 67.12C496.995 67.12 498.808 66.8267 500.301 66.24C501.848 65.6 503.368 64.64 504.861 63.36L512.861 71.68C510.781 73.9733 508.221 75.7333 505.181 76.96C502.141 78.1333 498.541 78.72 494.381 78.72ZM524.749 78V35.12C524.749 29.8933 526.296 25.7333 529.389 22.64C532.536 19.4933 537.016 17.92 542.829 17.92C544.696 17.92 546.536 18.1067 548.349 18.48C550.163 18.8533 551.683 19.4133 552.909 20.16L549.149 30.88C548.509 30.5067 547.789 30.2133 546.989 30C546.189 29.7333 545.389 29.6 544.589 29.6C542.989 29.6 541.736 30.08 540.829 31.04C539.976 31.9467 539.549 33.36 539.549 35.28V38.4L539.949 44.72V78H524.749ZM518.429 47.6V36.24H549.869V47.6H518.429ZM576.781 78.72C572.034 78.72 567.821 77.76 564.141 75.84C560.461 73.92 557.554 71.28 555.421 67.92C553.341 64.5067 552.301 60.6133 552.301 56.24C552.301 51.8667 553.341 48 555.421 44.64C557.554 41.28 560.461 38.6667 564.141 36.8C567.821 34.88 572.034 33.92 576.781 33.92C581.527 33.92 585.741 34.88 589.421 36.8C593.154 38.6667 596.061 41.28 598.141 44.64C600.221 48 601.261 51.8667 601.261 56.24C601.261 60.6133 600.221 64.5067 598.141 67.92C596.061 71.28 593.154 73.92 589.421 75.84C585.741 77.76 581.527 78.72 576.781 78.72ZM576.781 66.64C578.541 66.64 580.087 66.24 581.421 65.44C582.807 64.64 583.901 63.4667 584.701 61.92C585.501 60.32 585.901 58.4267 585.901 56.24C585.901 54.0533 585.501 52.2133 584.701 50.72C583.901 49.1733 582.807 48 581.421 47.2C580.087 46.4 578.541 46 576.781 46C575.074 46 573.527 46.4 572.141 47.2C570.807 48 569.714 49.1733 568.861 50.72C568.061 52.2133 567.661 54.0533 567.661 56.24C567.661 58.4267 568.061 60.32 568.861 61.92C569.714 63.4667 570.807 64.64 572.141 65.44C573.527 66.24 575.074 66.64 576.781 66.64ZM608.302 78V34.64H622.782V47.28L620.622 43.68C621.902 40.4267 623.982 38 626.862 36.4C629.742 34.7467 633.235 33.92 637.342 33.92V47.6C636.649 47.4933 636.035 47.44 635.502 47.44C635.022 47.3867 634.489 47.36 633.902 47.36C630.809 47.36 628.302 48.2133 626.382 49.92C624.462 51.5733 623.502 54.2933 623.502 58.08V78H608.302ZM665.944 78.72C660.824 78.72 656.344 77.76 652.504 75.84C648.717 73.8667 645.757 71.2 643.624 67.84C641.544 64.4267 640.504 60.56 640.504 56.24C640.504 51.92 641.517 48.08 643.544 44.72C645.624 41.3067 648.477 38.6667 652.104 36.8C655.73 34.88 659.81 33.92 664.344 33.92C668.61 33.92 672.504 34.8 676.024 36.56C679.544 38.2667 682.344 40.8 684.424 44.16C686.504 47.52 687.544 51.6 687.544 56.4C687.544 56.9333 687.517 57.5467 687.464 58.24C687.41 58.9333 687.357 59.5733 687.304 60.16H652.984V52.16H679.224L673.464 54.4C673.517 52.4267 673.144 50.72 672.344 49.28C671.597 47.84 670.53 46.72 669.144 45.92C667.81 45.12 666.237 44.72 664.424 44.72C662.61 44.72 661.01 45.12 659.624 45.92C658.29 46.72 657.25 47.8667 656.504 49.36C655.757 50.8 655.384 52.5067 655.384 54.48V56.8C655.384 58.9333 655.81 60.7733 656.664 62.32C657.57 63.8667 658.85 65.0667 660.504 65.92C662.157 66.72 664.13 67.12 666.424 67.12C668.557 67.12 670.37 66.8267 671.864 66.24C673.41 65.6 674.93 64.64 676.424 63.36L684.424 71.68C682.344 73.9733 679.784 75.7333 676.744 76.96C673.704 78.1333 670.104 78.72 665.944 78.72ZM728.153 78L712.713 34.64H727.113L739.353 70.88H732.473L745.193 34.64H758.153L770.393 70.88H763.673L776.313 34.64H789.673L774.233 78H759.513L749.113 48H753.593L742.873 78H728.153ZM815.866 78.72C810.746 78.72 806.266 77.76 802.426 75.84C798.639 73.8667 795.679 71.2 793.546 67.84C791.466 64.4267 790.426 60.56 790.426 56.24C790.426 51.92 791.439 48.08 793.466 44.72C795.546 41.3067 798.399 38.6667 802.026 36.8C805.652 34.88 809.732 33.92 814.266 33.92C818.532 33.92 822.426 34.8 825.946 36.56C829.466 38.2667 832.266 40.8 834.346 44.16C836.426 47.52 837.466 51.6 837.466 56.4C837.466 56.9333 837.439 57.5467 837.386 58.24C837.332 58.9333 837.279 59.5733 837.226 60.16H802.906V52.16H829.146L823.386 54.4C823.439 52.4267 823.066 50.72 822.266 49.28C821.519 47.84 820.452 46.72 819.066 45.92C817.732 45.12 816.159 44.72 814.346 44.72C812.532 44.72 810.932 45.12 809.546 45.92C808.212 46.72 807.172 47.8667 806.426 49.36C805.679 50.8 805.306 52.5067 805.306 54.48V56.8C805.306 58.9333 805.732 60.7733 806.586 62.32C807.492 63.8667 808.772 65.0667 810.426 65.92C812.079 66.72 814.052 67.12 816.346 67.12C818.479 67.12 820.292 66.8267 821.786 66.24C823.332 65.6 824.852 64.64 826.346 63.36L834.346 71.68C832.266 73.9733 829.706 75.7333 826.666 76.96C823.626 78.1333 820.026 78.72 815.866 78.72ZM889.915 78.72C885.115 78.72 880.822 77.76 877.035 75.84C873.302 73.92 870.368 71.28 868.235 67.92C866.102 64.5067 865.035 60.6133 865.035 56.24C865.035 51.8667 866.102 48 868.235 44.64C870.368 41.28 873.302 38.6667 877.035 36.8C880.822 34.88 885.115 33.92 889.915 33.92C894.822 33.92 899.062 34.96 902.635 37.04C906.208 39.12 908.742 42.0533 910.235 45.84L898.475 51.84C897.462 49.8133 896.208 48.3467 894.715 47.44C893.222 46.48 891.595 46 889.835 46C888.075 46 886.475 46.4 885.035 47.2C883.595 48 882.448 49.1733 881.595 50.72C880.795 52.2133 880.395 54.0533 880.395 56.24C880.395 58.48 880.795 60.3733 881.595 61.92C882.448 63.4667 883.595 64.64 885.035 65.44C886.475 66.24 888.075 66.64 889.835 66.64C891.595 66.64 893.222 66.1867 894.715 65.28C896.208 64.32 897.462 62.8267 898.475 60.8L910.235 66.8C908.742 70.5867 906.208 73.52 902.635 75.6C899.062 77.68 894.822 78.72 889.915 78.72ZM937.249 78.72C932.503 78.72 928.289 77.76 924.609 75.84C920.929 73.92 918.023 71.28 915.889 67.92C913.809 64.5067 912.769 60.6133 912.769 56.24C912.769 51.8667 913.809 48 915.889 44.64C918.023 41.28 920.929 38.6667 924.609 36.8C928.289 34.88 932.503 33.92 937.249 33.92C941.996 33.92 946.209 34.88 949.889 36.8C953.623 38.6667 956.529 41.28 958.609 44.64C960.689 48 961.729 51.8667 961.729 56.24C961.729 60.6133 960.689 64.5067 958.609 67.92C956.529 71.28 953.623 73.92 949.889 75.84C946.209 77.76 941.996 78.72 937.249 78.72ZM937.249 66.64C939.009 66.64 940.556 66.24 941.889 65.44C943.276 64.64 944.369 63.4667 945.169 61.92C945.969 60.32 946.369 58.4267 946.369 56.24C946.369 54.0533 945.969 52.2133 945.169 50.72C944.369 49.1733 943.276 48 941.889 47.2C940.556 46.4 939.009 46 937.249 46C935.543 46 933.996 46.4 932.609 47.2C931.276 48 930.183 49.1733 929.329 50.72C928.529 52.2133 928.129 54.0533 928.129 56.24C928.129 58.4267 928.529 60.32 929.329 61.92C930.183 63.4667 931.276 64.64 932.609 65.44C933.996 66.24 935.543 66.64 937.249 66.64ZM997.011 33.92C1000.37 33.92 1003.41 34.6133 1006.13 36C1008.85 37.3333 1010.98 39.4133 1012.53 42.24C1014.13 45.0667 1014.93 48.72 1014.93 53.2V78H999.731V55.68C999.731 52.5867 999.091 50.3467 997.811 48.96C996.584 47.52 994.851 46.8 992.611 46.8C991.011 46.8 989.544 47.1733 988.211 47.92C986.877 48.6133 985.837 49.7067 985.091 51.2C984.344 52.6933 983.971 54.64 983.971 57.04V78H968.771V34.64H983.251V46.96L980.451 43.36C982.104 40.2133 984.371 37.8667 987.251 36.32C990.131 34.72 993.384 33.92 997.011 33.92ZM1043.83 78.72C1038.29 78.72 1033.97 77.36 1030.87 74.64C1027.78 71.8667 1026.23 67.7067 1026.23 62.16V24.96H1041.43V62C1041.43 63.5467 1041.86 64.7733 1042.71 65.68C1043.57 66.5333 1044.66 66.96 1045.99 66.96C1047.81 66.96 1049.35 66.5067 1050.63 65.6L1054.39 76.24C1053.11 77.0933 1051.54 77.7067 1049.67 78.08C1047.81 78.5067 1045.86 78.72 1043.83 78.72ZM1019.91 47.6V36.24H1051.35V47.6H1019.91ZM1060.26 78V34.64H1075.46V78H1060.26ZM1067.86 29.84C1065.08 29.84 1062.84 29.0667 1061.14 27.52C1059.43 25.9733 1058.58 24.0533 1058.58 21.76C1058.58 19.4667 1059.43 17.5467 1061.14 16C1062.84 14.4533 1065.08 13.68 1067.86 13.68C1070.63 13.68 1072.87 14.4267 1074.58 15.92C1076.28 17.36 1077.14 19.2267 1077.14 21.52C1077.14 23.92 1076.28 25.92 1074.58 27.52C1072.92 29.0667 1070.68 29.84 1067.86 29.84ZM1113.57 33.92C1116.93 33.92 1119.97 34.6133 1122.69 36C1125.41 37.3333 1127.55 39.4133 1129.09 42.24C1130.69 45.0667 1131.49 48.72 1131.49 53.2V78H1116.29V55.68C1116.29 52.5867 1115.65 50.3467 1114.37 48.96C1113.15 47.52 1111.41 46.8 1109.17 46.8C1107.57 46.8 1106.11 47.1733 1104.77 47.92C1103.44 48.6133 1102.4 49.7067 1101.65 51.2C1100.91 52.6933 1100.53 54.64 1100.53 57.04V78H1085.33V34.64H1099.81V46.96L1097.01 43.36C1098.67 40.2133 1100.93 37.8667 1103.81 36.32C1106.69 34.72 1109.95 33.92 1113.57 33.92ZM1159.28 78.72C1155.76 78.72 1152.58 78.0267 1149.76 76.64C1146.98 75.2533 1144.8 73.0933 1143.2 70.16C1141.65 67.1733 1140.88 63.4133 1140.88 58.88V34.64H1156.08V56.4C1156.08 59.76 1156.69 62.16 1157.92 63.6C1159.2 65.04 1160.98 65.76 1163.28 65.76C1164.77 65.76 1166.13 65.4133 1167.36 64.72C1168.58 64.0267 1169.57 62.9333 1170.32 61.44C1171.06 59.8933 1171.44 57.92 1171.44 55.52V34.64H1186.64V78H1172.16V65.76L1174.96 69.2C1173.46 72.4 1171.3 74.8 1168.48 76.4C1165.65 77.9467 1162.58 78.72 1159.28 78.72ZM1219.15 78.72C1214.03 78.72 1209.55 77.76 1205.71 75.84C1201.92 73.8667 1198.96 71.2 1196.83 67.84C1194.75 64.4267 1193.71 60.56 1193.71 56.24C1193.71 51.92 1194.72 48.08 1196.75 44.72C1198.83 41.3067 1201.68 38.6667 1205.31 36.8C1208.93 34.88 1213.01 33.92 1217.55 33.92C1221.81 33.92 1225.71 34.8 1229.23 36.56C1232.75 38.2667 1235.55 40.8 1237.63 44.16C1239.71 47.52 1240.75 51.6 1240.75 56.4C1240.75 56.9333 1240.72 57.5467 1240.67 58.24C1240.61 58.9333 1240.56 59.5733 1240.51 60.16H1206.19V52.16H1232.43L1226.67 54.4C1226.72 52.4267 1226.35 50.72 1225.55 49.28C1224.8 47.84 1223.73 46.72 1222.35 45.92C1221.01 45.12 1219.44 44.72 1217.63 44.72C1215.81 44.72 1214.21 45.12 1212.83 45.92C1211.49 46.72 1210.45 47.8667 1209.71 49.36C1208.96 50.8 1208.59 52.5067 1208.59 54.48V56.8C1208.59 58.9333 1209.01 60.7733 1209.87 62.32C1210.77 63.8667 1212.05 65.0667 1213.71 65.92C1215.36 66.72 1217.33 67.12 1219.63 67.12C1221.76 67.12 1223.57 66.8267 1225.07 66.24C1226.61 65.6 1228.13 64.64 1229.63 63.36L1237.63 71.68C1235.55 73.9733 1232.99 75.7333 1229.95 76.96C1226.91 78.1333 1223.31 78.72 1219.15 78.72ZM1246.08 90.56L1252.08 69.76L1254.24 78.4C1251.57 78.4 1249.38 77.6267 1247.68 76.08C1245.97 74.48 1245.12 72.3467 1245.12 69.68C1245.12 66.9067 1245.97 64.72 1247.68 63.12C1249.44 61.52 1251.62 60.72 1254.24 60.72C1256.85 60.72 1259.01 61.5467 1260.72 63.2C1262.42 64.8 1263.28 66.96 1263.28 69.68C1263.28 70.4267 1263.22 71.1733 1263.12 71.92C1263.01 72.6667 1262.77 73.5733 1262.4 74.64C1262.02 75.7067 1261.44 77.12 1260.64 78.88L1255.6 90.56H1246.08ZM24.2634 176.72C18.7168 176.72 14.3968 175.36 11.3034 172.64C8.2101 169.867 6.66344 165.707 6.66344 160.16V122.96H21.8634V160C21.8634 161.547 22.2901 162.773 23.1434 163.68C23.9968 164.533 25.0901 164.96 26.4234 164.96C28.2368 164.96 29.7834 164.507 31.0634 163.6L34.8234 174.24C33.5434 175.093 31.9701 175.707 30.1034 176.08C28.2368 176.507 26.2901 176.72 24.2634 176.72ZM0.343438 145.6V134.24H31.7834V145.6H0.343438ZM68.9247 131.92C72.2847 131.92 75.3247 132.613 78.0447 134C80.7647 135.333 82.898 137.413 84.4447 140.24C86.0447 143.067 86.8447 146.72 86.8447 151.2V176H71.6447V153.68C71.6447 150.587 71.0047 148.347 69.7247 146.96C68.498 145.52 66.7647 144.8 64.5247 144.8C62.9247 144.8 61.458 145.173 60.1247 145.92C58.7914 146.613 57.7514 147.707 57.0047 149.2C56.258 150.693 55.8847 152.64 55.8847 155.04V176H40.6847V116.64H55.8847V144.96L52.3647 141.36C54.018 138.213 56.2847 135.867 59.1647 134.32C62.0447 132.72 65.298 131.92 68.9247 131.92ZM119.655 176.72C114.535 176.72 110.055 175.76 106.215 173.84C102.428 171.867 99.468 169.2 97.3347 165.84C95.2547 162.427 94.2147 158.56 94.2147 154.24C94.2147 149.92 95.228 146.08 97.2547 142.72C99.3347 139.307 102.188 136.667 105.815 134.8C109.441 132.88 113.521 131.92 118.055 131.92C122.321 131.92 126.215 132.8 129.735 134.56C133.255 136.267 136.055 138.8 138.135 142.16C140.215 145.52 141.255 149.6 141.255 154.4C141.255 154.933 141.228 155.547 141.175 156.24C141.121 156.933 141.068 157.573 141.015 158.16H106.695V150.16H132.935L127.175 152.4C127.228 150.427 126.855 148.72 126.055 147.28C125.308 145.84 124.241 144.72 122.855 143.92C121.521 143.12 119.948 142.72 118.135 142.72C116.321 142.72 114.721 143.12 113.335 143.92C112.001 144.72 110.961 145.867 110.215 147.36C109.468 148.8 109.095 150.507 109.095 152.48V154.8C109.095 156.933 109.521 158.773 110.375 160.32C111.281 161.867 112.561 163.067 114.215 163.92C115.868 164.72 117.841 165.12 120.135 165.12C122.268 165.12 124.081 164.827 125.575 164.24C127.121 163.6 128.641 162.64 130.135 161.36L138.135 169.68C136.055 171.973 133.495 173.733 130.455 174.96C127.415 176.133 123.815 176.72 119.655 176.72ZM148.263 176V132.64H162.743V145.28L160.583 141.68C161.863 138.427 163.943 136 166.823 134.4C169.703 132.747 173.196 131.92 177.303 131.92V145.6C176.609 145.493 175.996 145.44 175.463 145.44C174.983 145.387 174.449 145.36 173.863 145.36C170.769 145.36 168.263 146.213 166.343 147.92C164.423 149.573 163.463 152.293 163.463 156.08V176H148.263ZM205.905 176.72C200.785 176.72 196.305 175.76 192.465 173.84C188.678 171.867 185.718 169.2 183.585 165.84C181.505 162.427 180.465 158.56 180.465 154.24C180.465 149.92 181.478 146.08 183.505 142.72C185.585 139.307 188.438 136.667 192.065 134.8C195.691 132.88 199.771 131.92 204.305 131.92C208.571 131.92 212.465 132.8 215.985 134.56C219.505 136.267 222.305 138.8 224.385 142.16C226.465 145.52 227.505 149.6 227.505 154.4C227.505 154.933 227.478 155.547 227.425 156.24C227.371 156.933 227.318 157.573 227.265 158.16H192.945V150.16H219.185L213.425 152.4C213.478 150.427 213.105 148.72 212.305 147.28C211.558 145.84 210.491 144.72 209.105 143.92C207.771 143.12 206.198 142.72 204.385 142.72C202.571 142.72 200.971 143.12 199.585 143.92C198.251 144.72 197.211 145.867 196.465 147.36C195.718 148.8 195.345 150.507 195.345 152.48V154.8C195.345 156.933 195.771 158.773 196.625 160.32C197.531 161.867 198.811 163.067 200.465 163.92C202.118 164.72 204.091 165.12 206.385 165.12C208.518 165.12 210.331 164.827 211.825 164.24C213.371 163.6 214.891 162.64 216.385 161.36L224.385 169.68C222.305 171.973 219.745 173.733 216.705 174.96C213.665 176.133 210.065 176.72 205.905 176.72ZM284.274 176V167.92L283.234 165.92V151.04C283.234 148.64 282.487 146.8 280.994 145.52C279.554 144.187 277.234 143.52 274.034 143.52C271.954 143.52 269.847 143.867 267.714 144.56C265.581 145.2 263.767 146.107 262.274 147.28L257.154 136.96C259.607 135.36 262.541 134.133 265.954 133.28C269.421 132.373 272.861 131.92 276.274 131.92C283.314 131.92 288.754 133.547 292.594 136.8C296.487 140 298.434 145.04 298.434 151.92V176H284.274ZM271.474 176.72C268.007 176.72 265.074 176.133 262.674 174.96C260.274 173.787 258.434 172.187 257.154 170.16C255.927 168.133 255.314 165.867 255.314 163.36C255.314 160.693 255.981 158.4 257.314 156.48C258.701 154.507 260.807 153.013 263.634 152C266.461 150.933 270.114 150.4 274.594 150.4H284.834V158.32H276.674C274.221 158.32 272.487 158.72 271.474 159.52C270.514 160.32 270.034 161.387 270.034 162.72C270.034 164.053 270.541 165.12 271.554 165.92C272.567 166.72 273.954 167.12 275.714 167.12C277.367 167.12 278.861 166.72 280.194 165.92C281.581 165.067 282.594 163.787 283.234 162.08L285.314 167.68C284.514 170.667 282.941 172.933 280.594 174.48C278.301 175.973 275.261 176.72 271.474 176.72ZM308.028 176V132.64H322.508V145.28L320.348 141.68C321.628 138.427 323.708 136 326.588 134.4C329.468 132.747 332.962 131.92 337.068 131.92V145.6C336.375 145.493 335.762 145.44 335.228 145.44C334.748 145.387 334.215 145.36 333.628 145.36C330.535 145.36 328.028 146.213 326.108 147.92C324.188 149.573 323.228 152.293 323.228 156.08V176H308.028ZM365.67 176.72C360.55 176.72 356.07 175.76 352.23 173.84C348.444 171.867 345.484 169.2 343.35 165.84C341.27 162.427 340.23 158.56 340.23 154.24C340.23 149.92 341.244 146.08 343.27 142.72C345.35 139.307 348.204 136.667 351.83 134.8C355.457 132.88 359.537 131.92 364.07 131.92C368.337 131.92 372.23 132.8 375.75 134.56C379.27 136.267 382.07 138.8 384.15 142.16C386.23 145.52 387.27 149.6 387.27 154.4C387.27 154.933 387.244 155.547 387.19 156.24C387.137 156.933 387.084 157.573 387.03 158.16H352.71V150.16H378.95L373.19 152.4C373.244 150.427 372.87 148.72 372.07 147.28C371.324 145.84 370.257 144.72 368.87 143.92C367.537 143.12 365.964 142.72 364.15 142.72C362.337 142.72 360.737 143.12 359.35 143.92C358.017 144.72 356.977 145.867 356.23 147.36C355.484 148.8 355.11 150.507 355.11 152.48V154.8C355.11 156.933 355.537 158.773 356.39 160.32C357.297 161.867 358.577 163.067 360.23 163.92C361.884 164.72 363.857 165.12 366.15 165.12C368.284 165.12 370.097 164.827 371.59 164.24C373.137 163.6 374.657 162.64 376.15 161.36L384.15 169.68C382.07 171.973 379.51 173.733 376.47 174.96C373.43 176.133 369.83 176.72 365.67 176.72ZM444.04 176V167.92L443 165.92V151.04C443 148.64 442.253 146.8 440.76 145.52C439.32 144.187 437 143.52 433.8 143.52C431.72 143.52 429.613 143.867 427.48 144.56C425.346 145.2 423.533 146.107 422.04 147.28L416.92 136.96C419.373 135.36 422.306 134.133 425.72 133.28C429.186 132.373 432.626 131.92 436.04 131.92C443.08 131.92 448.52 133.547 452.36 136.8C456.253 140 458.2 145.04 458.2 151.92V176H444.04ZM431.24 176.72C427.773 176.72 424.84 176.133 422.44 174.96C420.04 173.787 418.2 172.187 416.92 170.16C415.693 168.133 415.08 165.867 415.08 163.36C415.08 160.693 415.746 158.4 417.08 156.48C418.466 154.507 420.573 153.013 423.4 152C426.226 150.933 429.88 150.4 434.36 150.4H444.6V158.32H436.44C433.986 158.32 432.253 158.72 431.24 159.52C430.28 160.32 429.8 161.387 429.8 162.72C429.8 164.053 430.306 165.12 431.32 165.92C432.333 166.72 433.72 167.12 435.48 167.12C437.133 167.12 438.626 166.72 439.96 165.92C441.346 165.067 442.36 163.787 443 162.08L445.08 167.68C444.28 170.667 442.706 172.933 440.36 174.48C438.066 175.973 435.026 176.72 431.24 176.72ZM492.835 176V133.12C492.835 127.893 494.382 123.733 497.475 120.64C500.622 117.493 505.102 115.92 510.915 115.92C512.782 115.92 514.622 116.107 516.435 116.48C518.249 116.853 519.769 117.413 520.995 118.16L517.235 128.88C516.595 128.507 515.875 128.213 515.075 128C514.275 127.733 513.475 127.6 512.675 127.6C511.075 127.6 509.822 128.08 508.915 129.04C508.062 129.947 507.635 131.36 507.635 133.28V136.4L508.035 142.72V176H492.835ZM486.515 145.6V134.24H517.955V145.6H486.515ZM545.827 176.72C540.707 176.72 536.227 175.76 532.387 173.84C528.6 171.867 525.64 169.2 523.507 165.84C521.427 162.427 520.387 158.56 520.387 154.24C520.387 149.92 521.4 146.08 523.427 142.72C525.507 139.307 528.36 136.667 531.987 134.8C535.613 132.88 539.693 131.92 544.227 131.92C548.493 131.92 552.387 132.8 555.907 134.56C559.427 136.267 562.227 138.8 564.307 142.16C566.387 145.52 567.427 149.6 567.427 154.4C567.427 154.933 567.4 155.547 567.347 156.24C567.293 156.933 567.24 157.573 567.187 158.16H532.867V150.16H559.107L553.347 152.4C553.4 150.427 553.027 148.72 552.227 147.28C551.48 145.84 550.413 144.72 549.027 143.92C547.693 143.12 546.12 142.72 544.307 142.72C542.493 142.72 540.893 143.12 539.507 143.92C538.173 144.72 537.133 145.867 536.387 147.36C535.64 148.8 535.267 150.507 535.267 152.48V154.8C535.267 156.933 535.693 158.773 536.547 160.32C537.453 161.867 538.733 163.067 540.387 163.92C542.04 164.72 544.013 165.12 546.307 165.12C548.44 165.12 550.253 164.827 551.747 164.24C553.293 163.6 554.813 162.64 556.307 161.36L564.307 169.68C562.227 171.973 559.667 173.733 556.627 174.96C553.587 176.133 549.987 176.72 545.827 176.72ZM583.973 176L568.533 132.64H582.933L595.173 168.88H588.293L601.013 132.64H613.973L626.213 168.88H619.493L632.133 132.64H645.493L630.053 176H615.333L604.933 146H609.413L598.693 176H583.973ZM701.659 131.92C705.019 131.92 708.059 132.613 710.779 134C713.499 135.333 715.632 137.413 717.179 140.24C718.779 143.067 719.579 146.72 719.579 151.2V176H704.379V153.68C704.379 150.587 703.739 148.347 702.459 146.96C701.232 145.52 699.499 144.8 697.259 144.8C695.659 144.8 694.192 145.173 692.859 145.92C691.526 146.613 690.486 147.707 689.739 149.2C688.992 150.693 688.619 152.64 688.619 155.04V176H673.419V116.64H688.619V144.96L685.099 141.36C686.752 138.213 689.019 135.867 691.899 134.32C694.779 132.72 698.032 131.92 701.659 131.92ZM752.389 176.72C747.269 176.72 742.789 175.76 738.949 173.84C735.162 171.867 732.202 169.2 730.069 165.84C727.989 162.427 726.949 158.56 726.949 154.24C726.949 149.92 727.962 146.08 729.989 142.72C732.069 139.307 734.922 136.667 738.549 134.8C742.176 132.88 746.256 131.92 750.789 131.92C755.056 131.92 758.949 132.8 762.469 134.56C765.989 136.267 768.789 138.8 770.869 142.16C772.949 145.52 773.989 149.6 773.989 154.4C773.989 154.933 773.962 155.547 773.909 156.24C773.856 156.933 773.802 157.573 773.749 158.16H739.429V150.16H765.669L759.909 152.4C759.962 150.427 759.589 148.72 758.789 147.28C758.042 145.84 756.976 144.72 755.589 143.92C754.256 143.12 752.682 142.72 750.869 142.72C749.056 142.72 747.456 143.12 746.069 143.92C744.736 144.72 743.696 145.867 742.949 147.36C742.202 148.8 741.829 150.507 741.829 152.48V154.8C741.829 156.933 742.256 158.773 743.109 160.32C744.016 161.867 745.296 163.067 746.949 163.92C748.602 164.72 750.576 165.12 752.869 165.12C755.002 165.12 756.816 164.827 758.309 164.24C759.856 163.6 761.376 162.64 762.869 161.36L770.869 169.68C768.789 171.973 766.229 173.733 763.189 174.96C760.149 176.133 756.549 176.72 752.389 176.72ZM780.997 176V116.64H796.197V176H780.997ZM833.355 176.72C829.675 176.72 826.529 175.92 823.915 174.32C821.302 172.667 819.302 170.213 817.915 166.96C816.582 163.653 815.915 159.44 815.915 154.32C815.915 149.147 816.555 144.933 817.835 141.68C819.115 138.373 821.035 135.92 823.595 134.32C826.209 132.72 829.462 131.92 833.355 131.92C837.302 131.92 840.875 132.853 844.075 134.72C847.329 136.533 849.889 139.12 851.755 142.48C853.675 145.787 854.635 149.733 854.635 154.32C854.635 158.907 853.675 162.88 851.755 166.24C849.889 169.6 847.329 172.187 844.075 174C840.875 175.813 837.302 176.72 833.355 176.72ZM806.075 191.52V132.64H820.555V140L820.475 154.32L821.275 168.72V191.52H806.075ZM830.155 164.64C831.862 164.64 833.382 164.24 834.715 163.44C836.102 162.64 837.195 161.467 837.995 159.92C838.849 158.373 839.275 156.507 839.275 154.32C839.275 152.133 838.849 150.267 837.995 148.72C837.195 147.173 836.102 146 834.715 145.2C833.382 144.4 831.862 144 830.155 144C828.449 144 826.902 144.4 825.515 145.2C824.182 146 823.089 147.173 822.235 148.72C821.435 150.267 821.035 152.133 821.035 154.32C821.035 156.507 821.435 158.373 822.235 159.92C823.089 161.467 824.182 162.64 825.515 163.44C826.902 164.24 828.449 164.64 830.155 164.64ZM863.46 176V133.12C863.46 127.893 865.007 123.733 868.1 120.64C871.247 117.493 875.727 115.92 881.54 115.92C883.407 115.92 885.247 116.107 887.06 116.48C888.874 116.853 890.394 117.413 891.62 118.16L887.86 128.88C887.22 128.507 886.5 128.213 885.7 128C884.9 127.733 884.1 127.6 883.3 127.6C881.7 127.6 880.447 128.08 879.54 129.04C878.687 129.947 878.26 131.36 878.26 133.28V136.4L878.66 142.72V176H863.46ZM857.14 145.6V134.24H888.58V145.6H857.14ZM912.44 176.72C908.92 176.72 905.747 176.027 902.92 174.64C900.147 173.253 897.96 171.093 896.36 168.16C894.814 165.173 894.04 161.413 894.04 156.88V132.64H909.24V154.4C909.24 157.76 909.854 160.16 911.08 161.6C912.36 163.04 914.147 163.76 916.44 163.76C917.934 163.76 919.294 163.413 920.52 162.72C921.747 162.027 922.734 160.933 923.48 159.44C924.227 157.893 924.6 155.92 924.6 153.52V132.64H939.8V176H925.32V163.76L928.12 167.2C926.627 170.4 924.467 172.8 921.64 174.4C918.814 175.947 915.747 176.72 912.44 176.72ZM949.591 176V116.64H964.791V176H949.591ZM1017.31 176.72C1011.76 176.72 1007.44 175.36 1004.35 172.64C1001.26 169.867 999.71 165.707 999.71 160.16V122.96H1014.91V160C1014.91 161.547 1015.34 162.773 1016.19 163.68C1017.04 164.533 1018.14 164.96 1019.47 164.96C1021.28 164.96 1022.83 164.507 1024.11 163.6L1027.87 174.24C1026.59 175.093 1025.02 175.707 1023.15 176.08C1021.28 176.507 1019.34 176.72 1017.31 176.72ZM993.39 145.6V134.24H1024.83V145.6H993.39ZM1033.73 176V132.64H1048.93V176H1033.73ZM1041.33 127.84C1038.56 127.84 1036.32 127.067 1034.61 125.52C1032.9 123.973 1032.05 122.053 1032.05 119.76C1032.05 117.467 1032.9 115.547 1034.61 114C1036.32 112.453 1038.56 111.68 1041.33 111.68C1044.1 111.68 1046.34 112.427 1048.05 113.92C1049.76 115.36 1050.61 117.227 1050.61 119.52C1050.61 121.92 1049.76 123.92 1048.05 125.52C1046.4 127.067 1044.16 127.84 1041.33 127.84ZM1086.09 176.72C1082.41 176.72 1079.26 175.92 1076.65 174.32C1074.04 172.667 1072.04 170.213 1070.65 166.96C1069.32 163.653 1068.65 159.44 1068.65 154.32C1068.65 149.147 1069.29 144.933 1070.57 141.68C1071.85 138.373 1073.77 135.92 1076.33 134.32C1078.94 132.72 1082.2 131.92 1086.09 131.92C1090.04 131.92 1093.61 132.853 1096.81 134.72C1100.06 136.533 1102.62 139.12 1104.49 142.48C1106.41 145.787 1107.37 149.733 1107.37 154.32C1107.37 158.907 1106.41 162.88 1104.49 166.24C1102.62 169.6 1100.06 172.187 1096.81 174C1093.61 175.813 1090.04 176.72 1086.09 176.72ZM1058.81 191.52V132.64H1073.29V140L1073.21 154.32L1074.01 168.72V191.52H1058.81ZM1082.89 164.64C1084.6 164.64 1086.12 164.24 1087.45 163.44C1088.84 162.64 1089.93 161.467 1090.73 159.92C1091.58 158.373 1092.01 156.507 1092.01 154.32C1092.01 152.133 1091.58 150.267 1090.73 148.72C1089.93 147.173 1088.84 146 1087.45 145.2C1086.12 144.4 1084.6 144 1082.89 144C1081.18 144 1079.64 144.4 1078.25 145.2C1076.92 146 1075.82 147.173 1074.97 148.72C1074.17 150.267 1073.77 152.133 1073.77 154.32C1073.77 156.507 1074.17 158.373 1074.97 159.92C1075.82 161.467 1076.92 162.64 1078.25 163.44C1079.64 164.24 1081.18 164.64 1082.89 164.64ZM1130.19 176.72C1126.51 176.72 1122.91 176.293 1119.39 175.44C1115.93 174.587 1113.13 173.52 1110.99 172.24L1115.55 161.84C1117.58 163.067 1119.95 164.053 1122.67 164.8C1125.39 165.493 1128.06 165.84 1130.67 165.84C1133.23 165.84 1134.99 165.573 1135.95 165.04C1136.97 164.507 1137.47 163.787 1137.47 162.88C1137.47 162.027 1136.99 161.413 1136.03 161.04C1135.13 160.613 1133.9 160.293 1132.35 160.08C1130.86 159.867 1129.21 159.627 1127.39 159.36C1125.58 159.093 1123.74 158.747 1121.87 158.32C1120.06 157.84 1118.38 157.147 1116.83 156.24C1115.34 155.28 1114.14 154 1113.23 152.4C1112.33 150.8 1111.87 148.773 1111.87 146.32C1111.87 143.547 1112.67 141.093 1114.27 138.96C1115.93 136.773 1118.33 135.067 1121.47 133.84C1124.62 132.56 1128.46 131.92 1132.99 131.92C1136.03 131.92 1139.1 132.24 1142.19 132.88C1145.34 133.467 1147.98 134.373 1150.11 135.6L1145.55 145.92C1143.42 144.693 1141.29 143.867 1139.15 143.44C1137.02 142.96 1134.99 142.72 1133.07 142.72C1130.51 142.72 1128.7 143.013 1127.63 143.6C1126.62 144.187 1126.11 144.907 1126.11 145.76C1126.11 146.613 1126.57 147.28 1127.47 147.76C1128.38 148.187 1129.58 148.533 1131.07 148.8C1132.62 149.013 1134.3 149.253 1136.11 149.52C1137.93 149.733 1139.74 150.08 1141.55 150.56C1143.42 151.04 1145.1 151.76 1146.59 152.72C1148.14 153.627 1149.37 154.88 1150.27 156.48C1151.18 158.027 1151.63 160.027 1151.63 162.48C1151.63 165.147 1150.81 167.547 1149.15 169.68C1147.55 171.813 1145.15 173.52 1141.95 174.8C1138.81 176.08 1134.89 176.72 1130.19 176.72ZM1188.91 192.24C1186.61 192.24 1184.29 191.867 1181.95 191.12C1179.65 190.427 1177.79 189.493 1176.35 188.32L1181.63 177.68C1182.53 178.48 1183.57 179.093 1184.75 179.52C1185.97 180 1187.17 180.24 1188.35 180.24C1190 180.24 1191.31 179.867 1192.27 179.12C1193.23 178.373 1194.05 177.2 1194.75 175.6L1196.75 170.56L1197.95 169.04L1212.67 132.64H1227.15L1208.43 177.76C1206.93 181.493 1205.2 184.4 1203.23 186.48C1201.31 188.613 1199.15 190.107 1196.75 190.96C1194.4 191.813 1191.79 192.24 1188.91 192.24ZM1194.83 177.84L1175.71 132.64H1191.31L1205.39 167.68L1194.83 177.84ZM1251.66 176.72C1246.92 176.72 1242.7 175.76 1239.02 173.84C1235.34 171.92 1232.44 169.28 1230.3 165.92C1228.22 162.507 1227.18 158.613 1227.18 154.24C1227.18 149.867 1228.22 146 1230.3 142.64C1232.44 139.28 1235.34 136.667 1239.02 134.8C1242.7 132.88 1246.92 131.92 1251.66 131.92C1256.41 131.92 1260.62 132.88 1264.3 134.8C1268.04 136.667 1270.94 139.28 1273.02 142.64C1275.1 146 1276.14 149.867 1276.14 154.24C1276.14 158.613 1275.1 162.507 1273.02 165.92C1270.94 169.28 1268.04 171.92 1264.3 173.84C1260.62 175.76 1256.41 176.72 1251.66 176.72ZM1251.66 164.64C1253.42 164.64 1254.97 164.24 1256.3 163.44C1257.69 162.64 1258.78 161.467 1259.58 159.92C1260.38 158.32 1260.78 156.427 1260.78 154.24C1260.78 152.053 1260.38 150.213 1259.58 148.72C1258.78 147.173 1257.69 146 1256.3 145.2C1254.97 144.4 1253.42 144 1251.66 144C1249.96 144 1248.41 144.4 1247.02 145.2C1245.69 146 1244.6 147.173 1243.74 148.72C1242.94 150.213 1242.54 152.053 1242.54 154.24C1242.54 156.427 1242.94 158.32 1243.74 159.92C1244.6 161.467 1245.69 162.64 1247.02 163.44C1248.41 164.24 1249.96 164.64 1251.66 164.64ZM1301.42 176.72C1297.9 176.72 1294.73 176.027 1291.9 174.64C1289.13 173.253 1286.94 171.093 1285.34 168.16C1283.8 165.173 1283.02 161.413 1283.02 156.88V132.64H1298.22V154.4C1298.22 157.76 1298.84 160.16 1300.06 161.6C1301.34 163.04 1303.13 163.76 1305.42 163.76C1306.92 163.76 1308.28 163.413 1309.5 162.72C1310.73 162.027 1311.72 160.933 1312.46 159.44C1313.21 157.893 1313.58 155.92 1313.58 153.52V132.64H1328.78V176H1314.3V163.76L1317.1 167.2C1315.61 170.4 1313.45 172.8 1310.62 174.4C1307.8 175.947 1304.73 176.72 1301.42 176.72ZM412.851 274.72C409.171 274.72 405.571 274.293 402.051 273.44C398.584 272.587 395.784 271.52 393.651 270.24L398.211 259.84C400.238 261.067 402.611 262.053 405.331 262.8C408.051 263.493 410.718 263.84 413.331 263.84C415.891 263.84 417.651 263.573 418.611 263.04C419.624 262.507 420.131 261.787 420.131 260.88C420.131 260.027 419.651 259.413 418.691 259.04C417.784 258.613 416.558 258.293 415.011 258.08C413.518 257.867 411.864 257.627 410.051 257.36C408.238 257.093 406.398 256.747 404.531 256.32C402.718 255.84 401.038 255.147 399.491 254.24C397.998 253.28 396.798 252 395.891 250.4C394.984 248.8 394.531 246.773 394.531 244.32C394.531 241.547 395.331 239.093 396.931 236.96C398.584 234.773 400.984 233.067 404.131 231.84C407.278 230.56 411.118 229.92 415.651 229.92C418.691 229.92 421.758 230.24 424.851 230.88C427.998 231.467 430.638 232.373 432.771 233.6L428.211 243.92C426.078 242.693 423.944 241.867 421.811 241.44C419.678 240.96 417.651 240.72 415.731 240.72C413.171 240.72 411.358 241.013 410.291 241.6C409.278 242.187 408.771 242.907 408.771 243.76C408.771 244.613 409.224 245.28 410.131 245.76C411.038 246.187 412.238 246.533 413.731 246.8C415.278 247.013 416.958 247.253 418.771 247.52C420.584 247.733 422.398 248.08 424.211 248.56C426.078 249.04 427.758 249.76 429.251 250.72C430.798 251.627 432.024 252.88 432.931 254.48C433.838 256.027 434.291 258.027 434.291 260.48C434.291 263.147 433.464 265.547 431.811 267.68C430.211 269.813 427.811 271.52 424.611 272.8C421.464 274.08 417.544 274.72 412.851 274.72ZM469.081 229.92C472.441 229.92 475.481 230.613 478.201 232C480.921 233.333 483.054 235.413 484.601 238.24C486.201 241.067 487.001 244.72 487.001 249.2V274H471.801V251.68C471.801 248.587 471.161 246.347 469.881 244.96C468.654 243.52 466.921 242.8 464.681 242.8C463.081 242.8 461.614 243.173 460.281 243.92C458.948 244.613 457.908 245.707 457.161 247.2C456.414 248.693 456.041 250.64 456.041 253.04V274H440.841V214.64H456.041V242.96L452.521 239.36C454.174 236.213 456.441 233.867 459.321 232.32C462.201 230.72 465.454 229.92 469.081 229.92ZM518.851 274.72C514.104 274.72 509.891 273.76 506.211 271.84C502.531 269.92 499.624 267.28 497.491 263.92C495.411 260.507 494.371 256.613 494.371 252.24C494.371 247.867 495.411 244 497.491 240.64C499.624 237.28 502.531 234.667 506.211 232.8C509.891 230.88 514.104 229.92 518.851 229.92C523.598 229.92 527.811 230.88 531.491 232.8C535.224 234.667 538.131 237.28 540.211 240.64C542.291 244 543.331 247.867 543.331 252.24C543.331 256.613 542.291 260.507 540.211 263.92C538.131 267.28 535.224 269.92 531.491 271.84C527.811 273.76 523.598 274.72 518.851 274.72ZM518.851 262.64C520.611 262.64 522.158 262.24 523.491 261.44C524.878 260.64 525.971 259.467 526.771 257.92C527.571 256.32 527.971 254.427 527.971 252.24C527.971 250.053 527.571 248.213 526.771 246.72C525.971 245.173 524.878 244 523.491 243.2C522.158 242.4 520.611 242 518.851 242C517.144 242 515.598 242.4 514.211 243.2C512.878 244 511.784 245.173 510.931 246.72C510.131 248.213 509.731 250.053 509.731 252.24C509.731 254.427 510.131 256.32 510.931 257.92C511.784 259.467 512.878 260.64 514.211 261.44C515.598 262.24 517.144 262.64 518.851 262.64ZM568.612 274.72C565.092 274.72 561.919 274.027 559.092 272.64C556.319 271.253 554.132 269.093 552.532 266.16C550.986 263.173 550.212 259.413 550.212 254.88V230.64H565.412V252.4C565.412 255.76 566.026 258.16 567.252 259.6C568.532 261.04 570.319 261.76 572.612 261.76C574.106 261.76 575.466 261.413 576.692 260.72C577.919 260.027 578.906 258.933 579.652 257.44C580.399 255.893 580.772 253.92 580.772 251.52V230.64H595.972V274H581.492V261.76L584.292 265.2C582.799 268.4 580.639 270.8 577.812 272.4C574.986 273.947 571.919 274.72 568.612 274.72ZM605.763 274V214.64H620.963V274H605.763ZM649.721 274.72C645.774 274.72 642.174 273.813 638.921 272C635.721 270.133 633.161 267.547 631.241 264.24C629.321 260.88 628.361 256.88 628.361 252.24C628.361 247.653 629.321 243.707 631.241 240.4C633.161 237.04 635.721 234.453 638.921 232.64C642.174 230.827 645.774 229.92 649.721 229.92C653.454 229.92 656.601 230.72 659.161 232.32C661.774 233.92 663.748 236.373 665.081 239.68C666.414 242.987 667.081 247.173 667.081 252.24C667.081 257.413 666.441 261.653 665.161 264.96C663.881 268.267 661.961 270.72 659.401 272.32C656.841 273.92 653.614 274.72 649.721 274.72ZM652.921 262.64C654.628 262.64 656.148 262.24 657.481 261.44C658.868 260.64 659.961 259.467 660.761 257.92C661.561 256.32 661.961 254.427 661.961 252.24C661.961 250.053 661.561 248.213 660.761 246.72C659.961 245.173 658.868 244 657.481 243.2C656.148 242.4 654.628 242 652.921 242C651.161 242 649.588 242.4 648.201 243.2C646.868 244 645.801 245.173 645.001 246.72C644.201 248.213 643.801 250.053 643.801 252.24C643.801 254.427 644.201 256.32 645.001 257.92C645.801 259.467 646.868 260.64 648.201 261.44C649.588 262.24 651.161 262.64 652.921 262.64ZM662.441 274V266.56L662.521 252.24L661.721 237.92V214.64H676.921V274H662.441ZM722.622 266L723.022 247.84L740.702 230.64H758.702L739.102 250.88L731.342 257.12L722.622 266ZM709.982 274V214.64H725.182V274H709.982ZM741.822 274L728.542 257.36L737.982 245.68L760.222 274H741.822ZM792.909 229.92C796.269 229.92 799.309 230.613 802.029 232C804.749 233.333 806.882 235.413 808.429 238.24C810.029 241.067 810.829 244.72 810.829 249.2V274H795.629V251.68C795.629 248.587 794.989 246.347 793.709 244.96C792.482 243.52 790.749 242.8 788.509 242.8C786.909 242.8 785.442 243.173 784.109 243.92C782.776 244.613 781.736 245.707 780.989 247.2C780.242 248.693 779.869 250.64 779.869 253.04V274H764.669V230.64H779.149V242.96L776.349 239.36C778.002 236.213 780.269 233.867 783.149 232.32C786.029 230.72 789.282 229.92 792.909 229.92ZM842.679 274.72C837.932 274.72 833.719 273.76 830.039 271.84C826.359 269.92 823.452 267.28 821.319 263.92C819.239 260.507 818.199 256.613 818.199 252.24C818.199 247.867 819.239 244 821.319 240.64C823.452 237.28 826.359 234.667 830.039 232.8C833.719 230.88 837.932 229.92 842.679 229.92C847.426 229.92 851.639 230.88 855.319 232.8C859.052 234.667 861.959 237.28 864.039 240.64C866.119 244 867.159 247.867 867.159 252.24C867.159 256.613 866.119 260.507 864.039 263.92C861.959 267.28 859.052 269.92 855.319 271.84C851.639 273.76 847.426 274.72 842.679 274.72ZM842.679 262.64C844.439 262.64 845.986 262.24 847.319 261.44C848.706 260.64 849.799 259.467 850.599 257.92C851.399 256.32 851.799 254.427 851.799 252.24C851.799 250.053 851.399 248.213 850.599 246.72C849.799 245.173 848.706 244 847.319 243.2C845.986 242.4 844.439 242 842.679 242C840.972 242 839.426 242.4 838.039 243.2C836.706 244 835.612 245.173 834.759 246.72C833.959 248.213 833.559 250.053 833.559 252.24C833.559 254.427 833.959 256.32 834.759 257.92C835.612 259.467 836.706 260.64 838.039 261.44C839.426 262.24 840.972 262.64 842.679 262.64ZM883.348 274L867.908 230.64H882.308L894.548 266.88H887.668L900.388 230.64H913.348L925.588 266.88H918.868L931.508 230.64H944.868L929.428 274H914.708L904.308 244H908.788L898.068 274H883.348ZM953.413 274.72C950.853 274.72 948.693 273.867 946.933 272.16C945.173 270.453 944.293 268.293 944.293 265.68C944.293 262.96 945.173 260.8 946.933 259.2C948.693 257.547 950.853 256.72 953.413 256.72C955.973 256.72 958.133 257.547 959.893 259.2C961.653 260.8 962.533 262.96 962.533 265.68C962.533 268.293 961.653 270.453 959.893 272.16C958.133 273.867 955.973 274.72 953.413 274.72Z" fill="black"/>
</svg>
