<svg width="575" height="260" viewBox="0 0 575 260" fill="none" xmlns="http://www.w3.org/2000/svg">
<path d="M51.6558 259.216H44.4688V202.098H58.3544L51.6558 259.216Z" fill="#252D3B"/>
<path d="M13.9737 101.122L1.44338 53.8293C-5.71523 26.8112 14.6559 0.339844 42.6059 0.339844H442.39C471.488 0.339844 491.671 29.3468 481.556 56.6304L460.643 113.044V172.042H22.0202C22.0202 172.042 20.3515 150.35 19.4128 134.949C18.7164 123.522 16.9057 112.189 13.9737 101.122Z" fill="#F4E3FF"/>
<path d="M479.837 206.193H30.3612C25.3163 206.193 21.2266 202.103 21.2266 197.058V166.438H479.837V206.193Z" fill="#F4E3FF"/>
<path d="M526.937 259.954H533.491V202.836H520.828L526.937 259.954Z" fill="#252D3B"/>
<path d="M561.63 100.782L573.057 53.4894C579.585 26.4713 561.008 0 535.519 0H170.939C144.404 0 125.998 29.0069 135.222 56.2905L154.293 112.704V171.703H554.292C554.292 171.703 555.814 150.01 556.67 134.609C557.304 123.182 558.955 111.849 561.63 100.782Z" fill="#F4E3FF"/>
<path d="M136.469 206.932H545.972C550.79 206.932 554.696 203.026 554.696 198.209V167.176H136.469V206.932Z" fill="#F4E3FF"/>
<path d="M495.984 80.5623C495.984 80.5623 524.943 62.8052 529.512 32.2344" stroke="#252D3B" stroke-width="1.3" stroke-miterlimit="10" stroke-linecap="round"/>
<path d="M72.7262 78.6401C72.7262 78.6401 45.3177 60.3677 40.75 29.7969" stroke="#252D3B" stroke-width="1.3" stroke-miterlimit="10" stroke-linecap="round"/>
<path d="M390.976 97.4521C390.976 97.4521 395.738 95.2192 411.673 93.4274C436.82 90.6007 460.709 111.7 454.503 130.797C448.202 150.188 430.07 146.606 420.009 139.133C420.009 139.133 402.187 133.384 388.677 137.983C375.167 142.582 363.12 148.427 362.479 142.153C362.16 139.022 372.005 135.397 372.005 135.397C372.005 135.397 358.495 141.146 346.709 136.259C346.709 136.259 328.312 144.307 325.725 140.284C323.138 136.259 336.073 131.085 336.073 131.085C336.073 131.085 330.324 116.425 337.798 107.514C337.798 107.514 334.349 92.8538 337.223 92.5661C340.097 92.2785 347.284 98.3152 347.284 98.3152C347.284 98.3152 361.943 92.8538 376.892 96.3032C376.892 96.3032 380.916 85.6673 384.365 85.955C387.814 86.2409 390.976 97.4521 390.976 97.4521Z" fill="white" stroke="#252D3B" stroke-width="1.3" stroke-miterlimit="10" stroke-linecap="round"/>
<path d="M344.367 119.184C344.367 119.184 345.414 123.972 348.108 123.822C350.801 123.672 350.652 119.184 350.652 119.184" fill="white"/>
<path d="M344.367 119.184C344.367 119.184 345.414 123.972 348.108 123.822C350.801 123.672 350.652 119.184 350.652 119.184" stroke="#252D3B" stroke-width="1.3" stroke-miterlimit="10" stroke-linecap="round"/>
<path d="M365.767 117.987C365.767 117.987 364.121 122.626 367.862 122.477C371.604 122.328 372.8 117.09 372.8 117.09" fill="white"/>
<path d="M365.767 117.987C365.767 117.987 364.121 122.626 367.862 122.477C371.604 122.328 372.8 117.09 372.8 117.09" stroke="#252D3B" stroke-width="1.3" stroke-miterlimit="10" stroke-linecap="round"/>
<path d="M335.992 130.109C335.992 130.109 338.728 134.329 346.712 136.259L335.992 130.109Z" fill="white"/>
<path d="M335.992 130.109C335.992 130.109 338.728 134.329 346.712 136.259" stroke="#252D3B" stroke-width="1.3" stroke-miterlimit="10" stroke-linecap="round"/>
<path d="M372 135.397C372 135.397 380.877 132.802 384.617 129.211L372 135.397Z" fill="white"/>
<path d="M372 135.397C372 135.397 380.877 132.802 384.617 129.211" stroke="#252D3B" stroke-width="1.3" stroke-miterlimit="10" stroke-linecap="round"/>
<path d="M381.633 99.281C381.633 99.281 382.231 92.9961 383.728 92.9961C385.225 92.9961 385.972 100.179 385.972 100.179" fill="white"/>
<path d="M381.633 99.281C381.633 99.281 382.231 92.9961 383.728 92.9961C385.225 92.9961 385.972 100.179 385.972 100.179" stroke="#252D3B" stroke-width="1.3" stroke-miterlimit="10" stroke-linecap="round"/>
<path d="M344.216 102.273C344.216 102.273 339.876 95.6893 339.278 98.2327C338.68 100.777 341.522 105.715 341.522 105.715" fill="white"/>
<path d="M344.216 102.273C344.216 102.273 339.876 95.6893 339.278 98.2327C338.68 100.777 341.522 105.715 341.522 105.715" stroke="#252D3B" stroke-width="1.3" stroke-miterlimit="10" stroke-linecap="round"/>
<path d="M390.969 97.4531C390.969 97.4531 393.294 101.378 392.097 106.765L390.969 97.4531Z" fill="white"/>
<path d="M390.969 97.4531C390.969 97.4531 393.294 101.378 392.097 106.765" stroke="#252D3B" stroke-width="1.3" stroke-miterlimit="10" stroke-linecap="round"/>
<path d="M420.008 139.131C420.008 139.131 416.259 134.357 421.787 132.367C427.315 130.377 440.14 139.664 443.677 127.945" fill="white"/>
<path d="M420.008 139.131C420.008 139.131 416.259 134.357 421.787 132.367C427.315 130.377 440.14 139.664 443.677 127.945" stroke="#252D3B" stroke-width="1.3" stroke-miterlimit="10" stroke-linecap="round"/>
<path d="M366.07 128.626C366.07 128.626 383.418 123.248 387.856 118.406L366.07 128.626Z" fill="white"/>
<path d="M366.07 128.626C366.07 128.626 383.418 123.248 387.856 118.406" stroke="#252D3B" stroke-width="1.3" stroke-miterlimit="10" stroke-linecap="round"/>
<path d="M366.07 131.451L391.218 124.055" stroke="#252D3B" stroke-width="1.3" stroke-miterlimit="10" stroke-linecap="round"/>
<path d="M347.244 128.36C347.244 128.36 325.055 121.367 325.459 121.098L347.244 128.36Z" fill="white"/>
<path d="M347.244 128.36C347.244 128.36 325.055 121.367 325.459 121.098" stroke="#252D3B" stroke-width="1.3" stroke-miterlimit="10" stroke-linecap="round"/>
<path d="M345.357 130.643L325.453 128.223" stroke="#252D3B" stroke-width="1.3" stroke-miterlimit="10" stroke-linecap="round"/>
<path d="M356.657 129.57L353.43 126.611C353.43 126.611 357.061 125.939 360.288 126.611L356.657 129.57Z" fill="#252D3B"/>
<path d="M404.047 94.7723C404.047 94.7723 404.467 107.588 412.66 109.058C420.854 110.529 423.795 98.9742 429.678 101.496C435.56 104.017 440.813 106.958 444.173 103.387C444.173 103.387 428.675 89.1697 404.047 94.7723Z" fill="#252D3B"/>
<path d="M439.396 119.858C442.04 119.858 444.183 118.334 444.183 116.455C444.183 114.575 442.04 113.051 439.396 113.051C436.753 113.051 434.609 114.575 434.609 116.455C434.609 118.334 436.753 119.858 439.396 119.858Z" fill="#252D3B"/>
<path d="M351.172 97.0862C351.172 97.0862 355.018 95.7733 355.768 101.87C356.519 107.967 356.912 108.364 361.32 107.52C365.729 106.675 364.585 95.9601 372.277 95.4909C372.277 95.4909 359.614 94.178 351.172 97.0862Z" fill="#252D3B"/>
</svg>
