<svg width="672" height="98" viewBox="0 0 672 98" fill="none" xmlns="http://www.w3.org/2000/svg">
<path d="M33.52 79.12C29.0933 79.12 24.9867 78.4267 21.2 77.04C17.4667 75.6 14.2133 73.5733 11.44 70.96C8.72 68.3467 6.58667 65.28 5.04 61.76C3.49333 58.1867 2.72 54.2667 2.72 50C2.72 45.7333 3.49333 41.84 5.04 38.32C6.58667 34.7467 8.72 31.6533 11.44 29.04C14.2133 26.4267 17.4667 24.4267 21.2 23.04C24.9867 21.6 29.0933 20.88 33.52 20.88C38.6933 20.88 43.3067 21.7867 47.36 23.6C51.4667 25.4133 54.88 28.0267 57.6 31.44L47.52 40.56C45.7067 38.4267 43.7067 36.8 41.52 35.68C39.3867 34.56 36.9867 34 34.32 34C32.0267 34 29.92 34.3733 28 35.12C26.08 35.8667 24.4267 36.96 23.04 38.4C21.7067 39.7867 20.64 41.4667 19.84 43.44C19.0933 45.4133 18.72 47.6 18.72 50C18.72 52.4 19.0933 54.5867 19.84 56.56C20.64 58.5333 21.7067 60.24 23.04 61.68C24.4267 63.0667 26.08 64.1333 28 64.88C29.92 65.6267 32.0267 66 34.32 66C36.9867 66 39.3867 65.44 41.52 64.32C43.7067 63.2 45.7067 61.5733 47.52 59.44L57.6 68.56C54.88 71.92 51.4667 74.5333 47.36 76.4C43.3067 78.2133 38.6933 79.12 33.52 79.12ZM84.2963 78.72C79.5496 78.72 75.3363 77.76 71.6563 75.84C67.9763 73.92 65.0696 71.28 62.9362 67.92C60.8563 64.5067 59.8163 60.6133 59.8163 56.24C59.8163 51.8667 60.8563 48 62.9362 44.64C65.0696 41.28 67.9763 38.6667 71.6563 36.8C75.3363 34.88 79.5496 33.92 84.2963 33.92C89.0429 33.92 93.2563 34.88 96.9363 36.8C100.67 38.6667 103.576 41.28 105.656 44.64C107.736 48 108.776 51.8667 108.776 56.24C108.776 60.6133 107.736 64.5067 105.656 67.92C103.576 71.28 100.67 73.92 96.9363 75.84C93.2563 77.76 89.0429 78.72 84.2963 78.72ZM84.2963 66.64C86.0563 66.64 87.6029 66.24 88.9363 65.44C90.3229 64.64 91.4163 63.4667 92.2163 61.92C93.0163 60.32 93.4163 58.4267 93.4163 56.24C93.4163 54.0533 93.0163 52.2133 92.2163 50.72C91.4163 49.1733 90.3229 48 88.9363 47.2C87.6029 46.4 86.0563 46 84.2963 46C82.5896 46 81.0429 46.4 79.6563 47.2C78.3229 48 77.2296 49.1733 76.3763 50.72C75.5763 52.2133 75.1763 54.0533 75.1763 56.24C75.1763 58.4267 75.5763 60.32 76.3763 61.92C77.2296 63.4667 78.3229 64.64 79.6563 65.44C81.0429 66.24 82.5896 66.64 84.2963 66.64ZM144.058 33.92C147.418 33.92 150.458 34.6133 153.177 36C155.898 37.3333 158.031 39.4133 159.578 42.24C161.178 45.0667 161.978 48.72 161.978 53.2V78H146.778V55.68C146.778 52.5867 146.138 50.3467 144.858 48.96C143.631 47.52 141.898 46.8 139.658 46.8C138.058 46.8 136.591 47.1733 135.258 47.92C133.924 48.6133 132.884 49.7067 132.138 51.2C131.391 52.6933 131.018 54.64 131.018 57.04V78H115.818V34.64H130.298V46.96L127.498 43.36C129.151 40.2133 131.418 37.8667 134.298 36.32C137.178 34.72 140.431 33.92 144.058 33.92ZM199.761 33.92C203.121 33.92 206.161 34.6133 208.881 36C211.601 37.3333 213.734 39.4133 215.281 42.24C216.881 45.0667 217.681 48.72 217.681 53.2V78H202.481V55.68C202.481 52.5867 201.841 50.3467 200.561 48.96C199.334 47.52 197.601 46.8 195.361 46.8C193.761 46.8 192.294 47.1733 190.961 47.92C189.627 48.6133 188.587 49.7067 187.841 51.2C187.094 52.6933 186.721 54.64 186.721 57.04V78H171.521V34.64H186.001V46.96L183.201 43.36C184.854 40.2133 187.121 37.8667 190.001 36.32C192.881 34.72 196.134 33.92 199.761 33.92ZM250.491 78.72C245.371 78.72 240.891 77.76 237.051 75.84C233.264 73.8667 230.304 71.2 228.171 67.84C226.091 64.4267 225.051 60.56 225.051 56.24C225.051 51.92 226.064 48.08 228.091 44.72C230.171 41.3067 233.024 38.6667 236.651 36.8C240.277 34.88 244.357 33.92 248.891 33.92C253.157 33.92 257.051 34.8 260.571 36.56C264.091 38.2667 266.891 40.8 268.971 44.16C271.051 47.52 272.091 51.6 272.091 56.4C272.091 56.9333 272.064 57.5467 272.011 58.24C271.957 58.9333 271.904 59.5733 271.851 60.16H237.531V52.16H263.771L258.011 54.4C258.064 52.4267 257.691 50.72 256.891 49.28C256.144 47.84 255.077 46.72 253.691 45.92C252.357 45.12 250.784 44.72 248.971 44.72C247.157 44.72 245.557 45.12 244.171 45.92C242.837 46.72 241.797 47.8667 241.051 49.36C240.304 50.8 239.931 52.5067 239.931 54.48V56.8C239.931 58.9333 240.357 60.7733 241.211 62.32C242.117 63.8667 243.397 65.0667 245.051 65.92C246.704 66.72 248.677 67.12 250.971 67.12C253.104 67.12 254.917 66.8267 256.411 66.24C257.957 65.6 259.477 64.64 260.971 63.36L268.971 71.68C266.891 73.9733 264.331 75.7333 261.291 76.96C258.251 78.1333 254.651 78.72 250.491 78.72ZM301.259 78.72C296.459 78.72 292.165 77.76 288.379 75.84C284.645 73.92 281.712 71.28 279.579 67.92C277.445 64.5067 276.379 60.6133 276.379 56.24C276.379 51.8667 277.445 48 279.579 44.64C281.712 41.28 284.645 38.6667 288.379 36.8C292.165 34.88 296.459 33.92 301.259 33.92C306.165 33.92 310.405 34.96 313.979 37.04C317.552 39.12 320.085 42.0533 321.579 45.84L309.819 51.84C308.805 49.8133 307.552 48.3467 306.059 47.44C304.565 46.48 302.939 46 301.179 46C299.419 46 297.819 46.4 296.379 47.2C294.939 48 293.792 49.1733 292.939 50.72C292.139 52.2133 291.739 54.0533 291.739 56.24C291.739 58.48 292.139 60.3733 292.939 61.92C293.792 63.4667 294.939 64.64 296.379 65.44C297.819 66.24 299.419 66.64 301.179 66.64C302.939 66.64 304.565 66.1867 306.059 65.28C307.552 64.32 308.805 62.8267 309.819 60.8L321.579 66.8C320.085 70.5867 317.552 73.52 313.979 75.6C310.405 77.68 306.165 78.72 301.259 78.72ZM347.365 78.72C341.818 78.72 337.498 77.36 334.405 74.64C331.312 71.8667 329.765 67.7067 329.765 62.16V24.96H344.965V62C344.965 63.5467 345.392 64.7733 346.245 65.68C347.098 66.5333 348.192 66.96 349.525 66.96C351.338 66.96 352.885 66.5067 354.165 65.6L357.925 76.24C356.645 77.0933 355.072 77.7067 353.205 78.08C351.338 78.5067 349.392 78.72 347.365 78.72ZM323.445 47.6V36.24H354.885V47.6H323.445ZM406.428 78.72C400.881 78.72 396.561 77.36 393.468 74.64C390.374 71.8667 388.828 67.7067 388.828 62.16V24.96H404.028V62C404.028 63.5467 404.454 64.7733 405.308 65.68C406.161 66.5333 407.254 66.96 408.588 66.96C410.401 66.96 411.948 66.5067 413.228 65.6L416.988 76.24C415.708 77.0933 414.134 77.7067 412.268 78.08C410.401 78.5067 408.454 78.72 406.428 78.72ZM382.508 47.6V36.24H413.948V47.6H382.508ZM443.359 78.72C438.612 78.72 434.399 77.76 430.719 75.84C427.039 73.92 424.132 71.28 421.999 67.92C419.919 64.5067 418.879 60.6133 418.879 56.24C418.879 51.8667 419.919 48 421.999 44.64C424.132 41.28 427.039 38.6667 430.719 36.8C434.399 34.88 438.612 33.92 443.359 33.92C448.105 33.92 452.319 34.88 455.999 36.8C459.732 38.6667 462.639 41.28 464.719 44.64C466.799 48 467.839 51.8667 467.839 56.24C467.839 60.6133 466.799 64.5067 464.719 67.92C462.639 71.28 459.732 73.92 455.999 75.84C452.319 77.76 448.105 78.72 443.359 78.72ZM443.359 66.64C445.119 66.64 446.665 66.24 447.999 65.44C449.385 64.64 450.479 63.4667 451.279 61.92C452.079 60.32 452.479 58.4267 452.479 56.24C452.479 54.0533 452.079 52.2133 451.279 50.72C450.479 49.1733 449.385 48 447.999 47.2C446.665 46.4 445.119 46 443.359 46C441.652 46 440.105 46.4 438.719 47.2C437.385 48 436.292 49.1733 435.439 50.72C434.639 52.2133 434.239 54.0533 434.239 56.24C434.239 58.4267 434.639 60.32 435.439 61.92C436.292 63.4667 437.385 64.64 438.719 65.44C440.105 66.24 441.652 66.64 443.359 66.64ZM512.721 78L494.561 22H510.881L526.161 70.48H517.921L534.001 22H548.561L563.761 70.48H555.841L571.601 22H586.721L568.561 78H551.601L538.641 36.8H543.201L529.681 78H512.721ZM592.771 78V34.64H607.971V78H592.771ZM600.371 29.84C597.597 29.84 595.357 29.0667 593.651 27.52C591.944 25.9733 591.091 24.0533 591.091 21.76C591.091 19.4667 591.944 17.5467 593.651 16C595.357 14.4533 597.597 13.68 600.371 13.68C603.144 13.68 605.384 14.4267 607.091 15.92C608.797 17.36 609.651 19.2267 609.651 21.52C609.651 23.92 608.797 25.92 607.091 27.52C605.437 29.0667 603.197 29.84 600.371 29.84ZM619.609 78V35.12C619.609 29.8933 621.155 25.7333 624.249 22.64C627.395 19.4933 631.875 17.92 637.689 17.92C639.555 17.92 641.395 18.1067 643.209 18.48C645.022 18.8533 646.542 19.4133 647.769 20.16L644.009 30.88C643.369 30.5067 642.649 30.2133 641.849 30C641.049 29.7333 640.249 29.6 639.449 29.6C637.849 29.6 636.595 30.08 635.689 31.04C634.835 31.9467 634.409 33.36 634.409 35.28V38.4L634.809 44.72V78H619.609ZM613.289 47.6V36.24H644.729V47.6H613.289ZM651.689 78V34.64H666.889V78H651.689ZM659.289 29.84C656.515 29.84 654.275 29.0667 652.569 27.52C650.862 25.9733 650.009 24.0533 650.009 21.76C650.009 19.4667 650.862 17.5467 652.569 16C654.275 14.4533 656.515 13.68 659.289 13.68C662.062 13.68 664.302 14.4267 666.009 15.92C667.715 17.36 668.569 19.2267 668.569 21.52C668.569 23.92 667.715 25.92 666.009 27.52C664.355 29.0667 662.115 29.84 659.289 29.84Z" fill="black"/>
</svg>
