<svg width="122" height="156" viewBox="0 0 122 156" fill="none" xmlns="http://www.w3.org/2000/svg">
<path d="M43.3047 135.91C43.3047 146.332 51.7536 154.781 62.1776 154.781C72.5997 154.781 81.0487 146.332 81.0487 135.91C81.0487 125.488 72.5997 117.039 62.1776 117.039C51.7536 117.037 43.3047 125.488 43.3047 135.91Z" fill="white" stroke="#252D3B" stroke-width="1.3" stroke-miterlimit="10" stroke-linecap="round"/>
<path d="M62.7813 116.851L62.7812 -624" stroke="#252D3B" stroke-width="1.3" stroke-miterlimit="10" stroke-linecap="round"/>
<path d="M71.4807 45.7656H53.9623C49.1709 45.7656 45.2891 49.6492 45.2891 54.4388V95.4924C45.2891 100.284 49.1727 104.167 53.9623 104.167H71.4807C76.272 104.167 80.154 100.284 80.154 95.4924V54.4388C80.154 49.6492 76.272 45.7656 71.4807 45.7656Z" fill="white" stroke="#252D3B" stroke-width="1.3" stroke-miterlimit="10" stroke-linecap="round"/>
<path d="M121.993 135.978H0C3.99845 116.839 29.7775 91.5391 60.9883 91.5391C92.201 91.5391 117.993 116.839 121.993 135.978Z" fill="#252D3B"/>
</svg>
