<svg width="182" height="149" viewBox="0 0 182 149" fill="none" xmlns="http://www.w3.org/2000/svg">
<path d="M37.2496 53.2188H16.8438V147.008H37.2496V53.2188Z" fill="#252D3B"/>
<path d="M51.9936 52.7707L37.4844 55.9805L57.5328 146.607L72.042 143.397L51.9936 52.7707Z" fill="#AF8CFF"/>
<path d="M67.0639 52.7668L52.5547 55.9766L72.6031 146.603L87.1123 143.393L67.0639 52.7668Z" fill="white" stroke="#252D3B" stroke-width="1.3" stroke-miterlimit="10" stroke-linecap="round"/>
<path d="M0.648438 147.586H180.597" stroke="#252D3B" stroke-width="1.3" stroke-miterlimit="10" stroke-linecap="round"/>
<path d="M118.682 105.936C118.682 105.936 89.7804 35.2186 103.308 28.454C116.836 21.6895 126.676 71.4995 126.676 71.4995C126.676 71.4995 126.676 5.08611 150.044 0.167421C173.412 -4.75265 143.894 100.402 143.894 100.402L118.682 105.936Z" fill="#F4E3FF"/>
<path d="M130.535 146.897C117.507 146.897 106.945 136.336 106.945 123.308V96.3477H154.124V123.308C154.124 136.337 143.563 146.897 130.535 146.897Z" fill="white" stroke="#252D3B" stroke-width="1.3" stroke-miterlimit="10" stroke-linecap="round"/>
<path d="M112.248 49.1602C111.191 50.7457 124.403 95.6662 124.403 95.6662L112.248 49.1602Z" fill="white"/>
<path d="M112.248 49.1602C111.191 50.7457 124.403 95.6662 124.403 95.6662" stroke="#252D3B" stroke-width="1.3" stroke-miterlimit="10" stroke-linecap="round"/>
<path d="M147.652 19.5664C147.652 19.5664 137.082 61.3157 134.969 95.6676L147.652 19.5664Z" fill="white"/>
<path d="M147.652 19.5664C147.652 19.5664 137.082 61.3157 134.969 95.6676" stroke="#252D3B" stroke-width="1.3" stroke-miterlimit="10" stroke-linecap="round"/>
</svg>
