<svg width="981" height="546" viewBox="0 0 981 546" fill="none" xmlns="http://www.w3.org/2000/svg">
<path d="M976.736 506.579C976.736 526.141 960.821 542.056 941.257 542.056H38.8294C19.2654 542.056 3.34979 526.141 3.34979 506.579V380.419C3.34979 360.855 19.2654 344.94 38.8294 344.94H941.257C960.821 344.94 976.736 360.855 976.736 380.419V506.579ZM965.94 350.468C959.226 344.924 950.623 341.59 941.257 341.59H38.8294C29.4606 341.59 20.8597 344.924 14.143 350.468C5.51099 357.595 0 368.375 0 380.419V506.579C0 523.975 11.4989 538.734 27.294 543.658C30.9401 544.794 34.814 545.406 38.8288 545.406H941.256C945.271 545.406 949.145 544.794 952.789 543.658C968.586 538.734 980.086 523.975 980.086 506.579V380.419C980.086 368.375 974.573 357.595 965.94 350.468Z" fill="#13171E"/>
<path d="M960.306 503.112C960.306 514.548 951.002 523.852 939.565 523.852H937.075V523.165H939.565C950.622 523.165 959.616 514.169 959.616 503.112V379.497C959.616 368.44 950.622 359.446 939.565 359.446H937.075V358.756H939.565C951.002 358.756 960.306 368.061 960.306 379.497V503.112ZM934.842 525.052H928.671V523.165H934.842V525.052ZM926.438 523.852H745.442V358.757H926.438V359.447H746.97C746.507 359.447 746.133 359.822 746.133 360.284V522.327C746.133 522.79 746.508 523.164 746.97 523.164H926.438V523.852ZM939.565 361.121C949.698 361.121 957.941 369.364 957.941 379.497V503.112C957.941 513.244 949.698 521.49 939.565 521.49H747.807V361.121L939.565 361.121ZM928.671 357.557H934.843V359.446H928.671V357.557ZM742.093 523.852H729.527V358.757H742.093V523.852ZM726.177 358.757V447.588H253.073V358.757H726.177ZM495.907 523.852H483.341V450.937H495.907V523.852ZM249.724 523.852H237.155V358.757H249.724V523.852ZM233.806 523.852H52.8101V523.165H232.279C232.741 523.165 233.116 522.79 233.116 522.328V360.284C233.116 359.822 232.741 359.447 232.279 359.447H52.8101V358.757H233.806V523.852ZM50.5771 525.052H44.4032V523.165H50.5771V525.052ZM42.1707 523.852H39.6859C28.2491 523.852 18.943 514.548 18.943 503.112V379.497C18.943 368.06 28.2496 358.757 39.6859 358.757H42.1707V359.447H39.6859C28.629 359.447 19.6327 368.44 19.6327 379.498V503.112C19.6327 514.169 28.6285 523.165 39.6859 523.165H42.1707V523.852ZM231.442 361.121V521.49H39.6859C29.5534 521.49 21.3073 513.243 21.3073 503.111V379.497C21.3073 369.364 29.5534 361.12 39.6859 361.12L231.442 361.121ZM44.4038 357.557H50.5776V359.446H44.4038V357.557ZM939.566 355.407H937.076V355.324H926.439V355.407H52.8101V355.324H42.1707V355.407H39.6859C26.4025 355.407 15.5938 366.214 15.5938 379.497V503.111C15.5938 516.397 26.403 527.201 39.6859 527.201H42.1707V527.283H52.8101V527.201H253.073V450.936H479.992V523.854H253.077V527.203H480V527.201H499.247V527.203H726.17V523.854H499.256V450.936H726.177V527.201H926.438V527.283H937.075V527.201H939.565C952.848 527.201 963.654 516.397 963.654 503.111V379.497C963.654 366.214 952.847 355.407 939.565 355.407H939.566Z" fill="#13171E"/>
<path d="M726.163 431.684H253.07V435.033H726.163V431.684Z" fill="#13171E"/>
<path d="M779.17 423.997V458.617C779.17 462.504 776.397 465.867 772.594 466.608C772.045 466.711 771.509 466.731 770.977 466.726C767.89 465.282 765.795 462.167 765.795 458.617V423.997C765.795 420.422 767.916 417.287 771.037 415.858C771.547 415.858 772.069 415.908 772.578 416.004C774.181 416.316 775.635 417.089 776.776 418.232C778.318 419.775 779.17 421.822 779.17 423.997ZM762.051 423.997C762.051 419.926 764.77 416.481 768.49 415.383C765.818 417.338 764.121 420.5 764.121 423.997V458.617C764.121 462.111 765.818 465.275 768.49 467.229C764.77 466.133 762.051 462.685 762.051 458.617V423.997ZM771.027 470.105C771.744 470.105 772.481 470.036 773.224 469.898C778.61 468.848 782.519 464.103 782.519 458.617V423.997C782.519 420.929 781.323 418.043 779.145 415.863C777.529 414.249 775.484 413.159 773.21 412.713C766.028 411.384 759.539 416.948 759.539 423.997V458.617C759.539 464.952 764.693 470.105 771.027 470.105Z" fill="#13171E"/>
<path d="M216.35 423.996V458.616C216.35 462.503 213.579 465.866 209.777 466.607C209.225 466.708 208.687 466.728 208.153 466.721C205.07 465.276 202.98 462.164 202.98 458.616V423.996C202.98 420.421 205.099 417.286 208.22 415.857C208.729 415.857 209.252 415.907 209.761 416.003C211.364 416.315 212.813 417.086 213.959 418.231C215.499 419.774 216.35 421.821 216.35 423.996ZM199.231 423.996C199.231 419.925 201.955 416.48 205.673 415.382C203.002 417.337 201.305 420.499 201.305 423.996V458.616C201.305 462.11 203.002 465.272 205.673 467.228C201.955 466.129 199.231 462.684 199.231 458.616V423.996ZM208.211 470.104C208.928 470.104 209.66 470.035 210.404 469.897C215.79 468.847 219.699 464.102 219.699 458.616V423.996C219.699 420.928 218.503 418.042 216.328 415.862C214.711 414.248 212.664 413.158 210.391 412.712C203.199 411.388 196.719 416.945 196.719 423.996V458.616C196.719 464.951 201.874 470.104 208.211 470.104Z" fill="#13171E"/>
<path d="M624.256 418.21V431.676H354.966V418.21H624.256ZM627.605 435.025V418.203H351.617V435.025H627.605Z" fill="#13171E"/>
<path d="M346.037 384.004C346.037 381.028 348.457 378.607 351.434 378.607H627.818C630.795 378.607 633.215 381.028 633.215 384.004V409.458C633.215 412.432 630.795 414.853 627.818 414.853H351.434C348.457 414.853 346.037 412.432 346.037 409.458V384.004ZM351.434 418.202H627.818C632.641 418.202 636.564 414.279 636.564 409.458V384.004C636.564 379.181 632.641 375.258 627.818 375.258H351.434C346.611 375.258 342.688 379.181 342.688 384.004V409.458C342.688 414.279 346.611 418.202 351.434 418.202Z" fill="#13171E"/>
<path d="M365.167 422.057H376.735C378.224 422.057 379.434 423.267 379.434 424.756C379.434 426.245 378.224 427.458 376.735 427.458H365.167C363.677 427.458 362.467 426.246 362.467 424.756C362.467 423.267 363.677 422.057 365.167 422.057ZM365.167 429.691H376.735C379.454 429.691 381.667 427.478 381.667 424.756C381.667 422.037 379.454 419.824 376.735 419.824H365.167C362.447 419.824 360.234 422.037 360.234 424.756C360.234 427.478 362.447 429.691 365.167 429.691Z" fill="#13171E"/>
<path d="M602.495 422.057H614.063C615.552 422.057 616.763 423.267 616.763 424.756C616.763 426.245 615.553 427.458 614.063 427.458H602.495C601.006 427.458 599.796 426.246 599.796 424.756C599.796 423.267 601.006 422.057 602.495 422.057ZM602.495 429.691H614.063C616.782 429.691 618.995 427.478 618.995 424.756C618.995 422.037 616.782 419.824 614.063 419.824H602.495C599.775 419.824 597.562 422.037 597.562 424.756C597.562 427.478 599.775 429.691 602.495 429.691Z" fill="#13171E"/>
<path d="M625.959 390.799C625.959 394.769 622.726 398 618.756 398C614.786 398 611.553 394.769 611.553 390.799C611.553 386.829 614.786 383.596 618.756 383.596C622.726 383.596 625.959 386.829 625.959 390.799ZM618.756 400.233C623.958 400.233 628.192 396.001 628.192 390.799C628.192 385.597 623.958 381.363 618.756 381.363C613.554 381.363 609.32 385.597 609.32 390.799C609.32 396.001 613.554 400.233 618.756 400.233Z" fill="#13171E"/>
<path d="M357.496 407.78H474.577C475.435 407.78 476.131 408.479 476.131 409.336C476.131 410.194 475.435 410.893 474.577 410.893H357.496C356.637 410.893 355.94 410.194 355.94 409.336C355.94 408.479 356.637 407.78 357.496 407.78ZM357.496 412.567H474.577C476.359 412.567 477.806 411.116 477.806 409.336C477.806 407.555 476.359 406.105 474.577 406.105H357.496C355.715 406.105 354.266 407.555 354.266 409.336C354.266 411.116 355.715 412.567 357.496 412.567Z" fill="#13171E"/>
<path d="M534.47 504.689L680.973 505.1C681.685 505.102 682.349 505.381 682.849 505.886C683.349 506.386 683.622 507.056 683.62 507.764L683.564 521.518C683.557 522.976 682.367 524.162 680.909 524.162V525.836V525.834L680.898 524.162L534.394 523.751C532.928 523.746 531.744 522.549 531.749 521.087L531.805 507.332C531.809 505.876 533.001 504.689 534.47 504.689ZM686.432 523.853C686.738 523.141 686.91 522.355 686.912 521.531L686.968 507.777C686.975 506.171 686.354 504.665 685.224 503.526C685.155 503.455 685.073 503.405 684.999 503.338C683.925 504.345 682.491 504.973 680.911 504.973H680.886L534.381 504.564C532.876 504.557 531.469 503.983 530.368 502.977C529.202 504.068 528.461 505.605 528.454 507.319L528.398 521.074C528.394 522.081 528.664 523.019 529.102 523.853C530.1 525.765 532.076 527.091 534.381 527.1L571.006 527.203L680.886 527.511H680.911C681.542 527.511 682.139 527.386 682.712 527.203C684.38 526.671 685.749 525.452 686.432 523.853Z" fill="#13171E"/>
<path d="M550.493 521.951L550.484 521.116L536.642 521.061C536.241 521.059 535.861 520.9 535.575 520.614C535.289 520.327 535.133 519.944 535.135 519.54L535.175 508.907C535.18 508.075 535.858 507.398 536.696 507.398L550.537 507.454C550.941 507.456 551.32 507.614 551.606 507.9C551.892 508.188 552.049 508.57 552.046 508.972L552.002 519.609C552 520.44 551.323 521.116 550.492 521.116V521.953V521.951L550.493 521.951ZM536.638 522.735L550.493 522.79C552.244 522.79 553.67 521.366 553.677 519.615L553.722 508.978C553.724 508.125 553.393 507.326 552.795 506.72C552.194 506.115 551.395 505.781 550.544 505.778L536.687 505.723C534.942 505.723 533.51 507.147 533.501 508.9L533.461 519.535C533.455 521.294 534.879 522.728 536.638 522.735Z" fill="#13171E"/>
<path d="M675.837 517.496L675.831 516.661L561.25 516.378C560.737 516.376 560.321 515.956 560.324 515.442L560.333 513.201C560.335 512.689 560.75 512.276 561.268 512.276L675.849 512.56C676.365 512.562 676.78 512.981 676.777 513.493L676.766 515.737C676.764 516.247 676.349 516.662 675.837 516.662V517.499V517.497L675.837 517.496ZM561.243 518.052L675.826 518.336H675.837C677.27 518.336 678.438 517.17 678.44 515.743L678.452 513.5C678.454 512.064 677.29 510.892 675.855 510.885L561.261 510.602C559.827 510.602 558.66 511.765 558.658 513.196L558.648 515.436C558.646 516.132 558.912 516.787 559.403 517.282C559.894 517.776 560.546 518.05 561.243 518.052Z" fill="#13171E"/>
<path d="M534.469 482.157L680.973 482.565C682.435 482.572 683.623 483.767 683.618 485.231L683.563 498.983C683.556 500.442 682.366 501.627 680.908 501.627V503.302L680.897 501.627L534.391 501.218C533.681 501.216 533.018 500.937 532.518 500.432C532.018 499.932 531.745 499.262 531.747 498.552L531.803 484.798C531.807 483.342 533 482.156 534.469 482.156L534.469 482.157ZM686.912 498.999L686.968 485.242C686.974 483.483 686.204 481.911 684.996 480.806C683.922 481.811 682.491 482.44 680.912 482.44H680.883L534.381 482.029C532.876 482.022 531.469 481.449 530.368 480.441C529.202 481.534 528.461 483.069 528.454 484.784L528.398 498.541C528.392 500.144 529.013 501.653 530.14 502.792C530.211 502.861 530.294 502.912 530.368 502.979C531.469 503.986 532.875 504.56 534.381 504.567L680.886 504.976H680.911C682.491 504.976 683.925 504.348 684.999 503.341C686.162 502.25 686.906 500.713 686.913 498.998L686.912 498.999Z" fill="#13171E"/>
<path d="M550.489 499.416L550.484 498.581L536.645 498.527C535.81 498.523 535.133 497.84 535.136 497.002L535.176 486.371C535.18 485.538 535.861 484.862 536.696 484.862L550.537 484.915C550.941 484.917 551.321 485.076 551.607 485.362C551.893 485.649 552.049 486.031 552.047 486.435L552.002 497.071C552 497.901 551.321 498.58 550.489 498.58V499.417V499.416ZM536.638 500.202L550.489 500.255C552.241 500.255 553.67 498.829 553.677 497.078L553.722 486.443C553.728 484.681 552.301 483.248 550.544 483.241L536.692 483.188C534.941 483.188 533.51 484.612 533.501 486.365L533.461 496.998C533.455 498.755 534.879 500.193 536.638 500.202Z" fill="#13171E"/>
<path d="M675.828 494.962L675.83 494.125L561.25 493.842C561.002 493.84 560.767 493.744 560.593 493.567C560.417 493.391 560.321 493.154 560.323 492.906L560.332 490.665C560.334 490.156 560.75 489.738 561.268 489.738L675.848 490.022C676.364 490.024 676.78 490.444 676.777 490.955L676.766 493.199C676.764 493.708 676.346 494.125 675.832 494.125L675.828 494.96V494.962ZM561.243 495.516L675.83 495.8H675.832C677.268 495.8 678.438 494.634 678.44 493.205L678.452 490.961C678.454 489.525 677.29 488.352 675.855 488.346L561.261 488.062C559.827 488.062 558.66 489.228 558.658 490.659L558.648 492.899C558.646 493.595 558.912 494.252 559.403 494.743C559.894 495.239 560.546 495.514 561.243 495.516H561.243Z" fill="#13171E"/>
<path d="M531.804 462.26C531.808 460.804 532.998 459.618 534.47 459.618L680.973 460.027C681.685 460.029 682.349 460.308 682.849 460.813C683.349 461.315 683.622 461.98 683.62 462.69L683.564 476.443C683.557 477.901 682.369 479.088 680.913 479.088V480.763V480.761L680.898 479.088L534.392 478.677C533.682 478.675 533.019 478.396 532.519 477.893C532.019 477.391 531.746 476.724 531.748 476.016L531.804 462.26ZM534.381 482.027L680.883 482.438H680.912C682.491 482.438 683.922 481.809 684.996 480.804C686.162 479.714 686.906 478.176 686.912 476.459L686.968 462.704C686.974 461.101 686.354 459.589 685.224 458.451C684.096 457.316 682.589 456.684 680.984 456.678L534.454 456.27C531.158 456.27 528.465 458.951 528.454 462.249L528.398 476.003C528.392 477.607 529.013 479.116 530.14 480.252C530.211 480.324 530.294 480.373 530.368 480.44C531.469 481.447 532.875 482.02 534.381 482.027Z" fill="#13171E"/>
<path d="M550.489 476.879L550.484 476.042L536.643 475.989C536.241 475.986 535.862 475.828 535.576 475.542C535.29 475.254 535.133 474.872 535.136 474.466L535.176 463.836C535.18 463.001 535.861 462.324 536.696 462.324L550.535 462.378C551.37 462.382 552.049 463.065 552.047 463.901L552.002 474.536C552 475.366 551.321 476.043 550.489 476.043V476.879ZM536.638 477.663L550.489 477.716C552.241 477.716 553.67 476.292 553.677 474.539L553.722 463.906C553.728 462.149 552.301 460.711 550.544 460.702L536.692 460.648C534.941 460.648 533.51 462.073 533.501 463.828L533.461 474.461C533.455 476.22 534.879 477.656 536.638 477.663Z" fill="#13171E"/>
<path d="M675.837 472.424L675.831 471.589L561.25 471.306C560.737 471.304 560.321 470.886 560.324 470.37L560.333 468.129C560.335 467.619 560.752 467.202 561.268 467.202L675.851 467.488C676.101 467.488 676.333 467.586 676.507 467.763C676.681 467.939 676.777 468.176 676.777 468.421L676.766 470.663C676.764 471.174 676.349 471.589 675.837 471.589V472.426L675.837 472.424ZM561.243 472.98L675.826 473.264H675.837C677.27 473.264 678.438 472.1 678.44 470.669L678.452 468.428C678.454 466.99 677.29 465.815 675.855 465.813L561.266 465.527C559.83 465.527 558.66 466.693 558.658 468.124L558.648 470.364C558.646 471.062 558.912 471.717 559.403 472.212C559.894 472.704 560.546 472.978 561.243 472.98Z" fill="#13171E"/>
<path d="M446.39 520.391H446.22C445.313 521.728 443.786 522.608 442.055 522.624H446.389C446.992 522.624 447.486 523.115 447.486 523.72C447.486 524.323 446.992 524.816 446.389 524.816H292.319C289.361 524.816 286.951 522.409 286.951 519.451V499.936C286.951 496.975 289.361 494.568 292.319 494.568H446.389C446.992 494.568 447.486 495.062 447.486 495.664C447.486 496.269 446.992 496.763 446.389 496.763H442.013C443.758 496.763 445.302 497.649 446.217 498.996H446.389C448.225 498.996 449.718 497.503 449.718 495.664C449.718 494.753 449.347 493.925 448.751 493.324C448.146 493.931 447.311 494.311 446.389 494.311H292.319C290.979 494.311 289.738 493.934 288.646 493.324C286.317 494.624 284.719 497.082 284.719 499.936V519.451C284.719 521.097 285.259 522.613 286.152 523.857C287.532 525.784 289.774 527.049 292.319 527.049H446.389C448.177 527.049 449.631 525.629 449.705 523.857C449.705 523.81 449.719 523.767 449.719 523.72C449.719 521.885 448.225 520.391 446.39 520.391Z" fill="#13171E"/>
<path d="M289.133 499.934V519.449C289.133 521.198 290.557 522.622 292.308 522.622H294.177C291.395 522.598 289.138 520.331 289.138 517.543V501.843C289.138 499.041 291.417 496.762 294.219 496.762H292.308C290.557 496.762 289.133 498.183 289.133 499.934Z" fill="#13171E"/>
<path d="M444.854 501.845V517.544C444.854 519.115 443.577 520.395 442.005 520.395H294.222C292.651 520.395 291.373 519.116 291.373 517.544V501.845C291.373 500.273 292.65 498.995 294.222 498.995H442.005C443.577 498.995 444.854 500.272 444.854 501.845ZM442.005 496.763H294.222C291.42 496.763 289.141 499.042 289.141 501.845V517.544C289.141 520.332 291.398 522.599 294.18 522.623C294.193 522.623 294.209 522.628 294.222 522.628H442.005C442.018 522.628 442.032 522.623 442.047 522.623C443.778 522.608 445.305 521.728 446.212 520.39C446.765 519.577 447.087 518.597 447.087 517.543V501.844C447.087 500.788 446.763 499.808 446.209 498.995C445.294 497.648 443.751 496.762 442.005 496.762V496.763Z" fill="#13171E"/>
<path d="M292.319 494.309H446.389C447.311 494.309 448.146 493.929 448.751 493.322C449.347 492.719 449.718 491.892 449.718 490.981C449.718 489.144 448.225 487.653 446.389 487.653H446.219C445.313 488.988 443.785 489.87 442.055 489.886H446.389C446.991 489.886 447.485 490.377 447.485 490.982C447.485 491.585 446.991 492.076 446.389 492.076H292.319C289.36 492.076 286.951 489.669 286.951 486.711V467.196C286.951 464.237 289.36 461.831 292.319 461.831H446.389C446.991 461.831 447.485 462.324 447.485 462.927C447.485 463.532 446.991 464.024 446.389 464.024H292.319C290.568 464.024 289.144 465.446 289.144 467.196V486.712C289.144 488.462 290.568 489.887 292.319 489.887H294.188C291.405 489.862 289.148 487.594 289.148 484.807V469.108C289.148 466.306 291.428 464.024 294.23 464.024H442.013C443.756 464.024 445.299 464.91 446.215 466.257H446.389C448.225 466.257 449.718 464.762 449.718 462.927C449.718 461.092 448.225 459.598 446.389 459.598H292.319C288.128 459.598 284.719 463.005 284.719 467.196V486.711C284.719 489.562 286.317 492.023 288.646 493.322C289.738 493.932 290.979 494.309 292.319 494.309Z" fill="#13171E"/>
<path d="M444.854 469.108V484.808C444.854 486.379 443.577 487.657 442.005 487.657H294.222C292.651 487.657 291.373 486.38 291.373 484.808V469.108C291.373 467.537 292.65 466.257 294.222 466.257H442.005C443.577 466.257 444.854 467.536 444.854 469.108ZM442.005 464.024H294.222C291.42 464.024 289.141 466.306 289.141 469.108V484.808C289.141 487.594 291.398 489.863 294.18 489.887C294.193 489.887 294.209 489.889 294.222 489.889H442.005C442.018 489.889 442.032 489.887 442.047 489.887C443.778 489.872 445.305 488.99 446.212 487.654C446.765 486.841 447.087 485.861 447.087 484.807V469.108C447.087 468.052 446.761 467.069 446.207 466.256C445.291 464.91 443.749 464.023 442.004 464.023L442.005 464.024Z" fill="#13171E"/>
<path d="M292.764 470.414H441.671C441.828 470.414 441.951 470.289 441.951 470.135C441.951 469.978 441.828 469.855 441.671 469.855H292.764C292.609 469.855 292.484 469.978 292.484 470.135C292.484 470.289 292.609 470.414 292.764 470.414Z" fill="#13171E"/>
<path d="M292.764 474.961H441.671C441.828 474.961 441.951 474.836 441.951 474.682C441.951 474.527 441.828 474.402 441.671 474.402H292.764C292.609 474.402 292.484 474.527 292.484 474.682C292.484 474.836 292.609 474.961 292.764 474.961Z" fill="#13171E"/>
<path d="M292.764 479.508H441.671C441.828 479.508 441.951 479.383 441.951 479.228C441.951 479.074 441.828 478.949 441.671 478.949H292.764C292.609 478.949 292.484 479.074 292.484 479.228C292.484 479.383 292.609 479.508 292.764 479.508Z" fill="#13171E"/>
<path d="M441.943 483.775C441.943 483.621 441.82 483.496 441.664 483.496H292.756C292.601 483.496 292.477 483.621 292.477 483.775C292.477 483.932 292.601 484.054 292.756 484.054H441.664C441.82 484.054 441.943 483.932 441.943 483.775Z" fill="#13171E"/>
<path d="M292.484 502.869C292.484 503.023 292.609 503.148 292.764 503.148H441.671C441.828 503.148 441.951 503.023 441.951 502.869C441.951 502.715 441.828 502.59 441.671 502.59H292.764C292.609 502.59 292.484 502.715 292.484 502.869Z" fill="#13171E"/>
<path d="M292.764 507.699H441.671C441.828 507.699 441.951 507.574 441.951 507.42C441.951 507.265 441.828 507.141 441.671 507.141H292.764C292.609 507.141 292.484 507.265 292.484 507.42C292.484 507.574 292.609 507.699 292.764 507.699Z" fill="#13171E"/>
<path d="M292.764 512.246H441.671C441.828 512.246 441.951 512.123 441.951 511.967C441.951 511.812 441.828 511.688 441.671 511.688H292.764C292.609 511.688 292.484 511.812 292.484 511.967C292.484 512.123 292.609 512.246 292.764 512.246Z" fill="#13171E"/>
<path d="M441.943 516.51C441.943 516.355 441.82 516.23 441.664 516.23H292.756C292.601 516.23 292.477 516.355 292.477 516.51C292.477 516.666 292.601 516.789 292.756 516.789H441.664C441.82 516.789 441.943 516.666 441.943 516.51Z" fill="#13171E"/>
<path d="M454.013 312.234H450.664V331.348H454.013V312.234Z" fill="#13171E"/>
<path d="M531.427 312.234H528.078V331.348H531.427V312.234Z" fill="#13171E"/>
<path d="M636.593 334.697C640.019 334.697 642.832 337.354 643.087 340.712H339.01C339.263 337.354 342.078 334.697 345.503 334.697H636.593ZM335.641 344.061H646.456V341.208C646.456 341.083 646.422 340.967 646.418 340.844C646.221 335.579 641.905 331.348 636.593 331.348H345.503C340.191 331.348 335.875 335.579 335.679 340.844C335.674 340.967 335.641 341.083 335.641 341.208V344.061Z" fill="#13171E"/>
<path d="M180.854 312.233H801.249C805.608 312.233 809.156 308.685 809.156 304.324V7.90852C809.156 3.54753 805.608 0 801.249 0H180.854C176.493 0 172.945 3.54806 172.945 7.90852V304.324C172.945 308.685 176.493 312.233 180.854 312.233Z" fill="#13171E"/>
<rect x="183" y="10" width="616" height="283" rx="6" fill="white"/>
<path d="M184.292 16.7434C184.292 13.7671 186.712 11.3465 189.689 11.3465H792.411C795.388 11.3465 797.808 13.7671 797.808 16.7434V286.466C797.808 289.444 795.388 291.862 792.411 291.862H189.689C186.712 291.862 184.292 289.444 184.292 286.466V16.7434ZM189.689 293.537H792.411C796.31 293.537 799.483 290.366 799.483 286.466V16.7434C799.483 12.8448 796.31 9.67188 792.411 9.67188H189.689C185.79 9.67188 182.617 12.8448 182.617 16.7434V286.466C182.617 290.366 185.79 293.537 189.689 293.537Z" fill="#13171E"/>
<path d="M540.652 301.623H441.434C440.574 301.623 439.878 300.924 439.878 300.065C439.878 299.209 440.574 298.511 441.434 298.511H540.652C541.51 298.511 542.208 299.209 542.208 300.065C542.208 300.924 541.51 301.623 540.652 301.623ZM540.652 296.836H441.434C439.652 296.836 438.203 298.283 438.203 300.065C438.203 301.846 439.652 303.298 441.434 303.298H540.652C542.434 303.298 543.883 301.846 543.883 300.065C543.883 298.283 542.434 296.836 540.652 296.836Z" fill="white"/>
<g clip-path="url(#clip0_40001529_15702)">
<path d="M347.716 198L357.166 177H361.006L370.486 198H366.406L358.276 179.07H359.836L351.736 198H347.716ZM352.066 193.14L353.116 190.08H364.456L365.506 193.14H352.066ZM372.797 198V181.98H376.547V198H372.797ZM374.687 179.34C373.987 179.34 373.407 179.12 372.947 178.68C372.507 178.24 372.287 177.71 372.287 177.09C372.287 176.45 372.507 175.92 372.947 175.5C373.407 175.06 373.987 174.84 374.687 174.84C375.387 174.84 375.957 175.05 376.397 175.47C376.857 175.87 377.087 176.38 377.087 177C377.087 177.66 376.867 178.22 376.427 178.68C375.987 179.12 375.407 179.34 374.687 179.34ZM381.469 198V181.98H385.039V186.39L384.619 185.1C385.099 184.02 385.849 183.2 386.869 182.64C387.909 182.08 389.199 181.8 390.739 181.8V185.37C390.579 185.33 390.429 185.31 390.289 185.31C390.149 185.29 390.009 185.28 389.869 185.28C388.449 185.28 387.319 185.7 386.479 186.54C385.639 187.36 385.219 188.59 385.219 190.23V198H381.469ZM400.536 198.21C398.776 198.21 397.416 197.76 396.456 196.86C395.496 195.94 395.016 194.59 395.016 192.81V178.44H398.766V192.72C398.766 193.48 398.956 194.07 399.336 194.49C399.736 194.91 400.286 195.12 400.986 195.12C401.826 195.12 402.526 194.9 403.086 194.46L404.136 197.13C403.696 197.49 403.156 197.76 402.516 197.94C401.876 198.12 401.216 198.21 400.536 198.21ZM392.376 185.1V182.1H403.056V185.1H392.376ZM414.223 198.21C412.443 198.21 410.883 197.86 409.543 197.16C408.223 196.44 407.193 195.46 406.453 194.22C405.733 192.98 405.373 191.57 405.373 189.99C405.373 188.39 405.723 186.98 406.423 185.76C407.143 184.52 408.123 183.55 409.363 182.85C410.623 182.15 412.053 181.8 413.653 181.8C415.213 181.8 416.603 182.14 417.823 182.82C419.043 183.5 420.003 184.46 420.703 185.7C421.403 186.94 421.753 188.4 421.753 190.08C421.753 190.24 421.743 190.42 421.723 190.62C421.723 190.82 421.713 191.01 421.693 191.19H408.343V188.7H419.713L418.243 189.48C418.263 188.56 418.073 187.75 417.673 187.05C417.273 186.35 416.723 185.8 416.023 185.4C415.343 185 414.553 184.8 413.653 184.8C412.733 184.8 411.923 185 411.223 185.4C410.543 185.8 410.003 186.36 409.603 187.08C409.223 187.78 409.033 188.61 409.033 189.57V190.17C409.033 191.13 409.253 191.98 409.693 192.72C410.133 193.46 410.753 194.03 411.553 194.43C412.353 194.83 413.273 195.03 414.313 195.03C415.213 195.03 416.023 194.89 416.743 194.61C417.463 194.33 418.103 193.89 418.663 193.29L420.673 195.6C419.953 196.44 419.043 197.09 417.943 197.55C416.863 197.99 415.623 198.21 414.223 198.21ZM425.356 198V175.74H429.106V198H425.356ZM431.567 200.28V198H446.567V200.28H431.567ZM448.058 198L457.508 177H461.348L470.828 198H466.748L458.618 179.07H460.178L452.078 198H448.058ZM452.408 193.14L453.458 190.08H464.798L465.848 193.14H452.408ZM473.499 198V177H477.399V194.7H488.379V198H473.499ZM491.458 198V177H495.358V194.7H506.338V198H491.458ZM509.417 198V177H518.057C519.917 177 521.507 177.3 522.827 177.9C524.167 178.5 525.197 179.36 525.917 180.48C526.637 181.6 526.997 182.93 526.997 184.47C526.997 186.01 526.637 187.34 525.917 188.46C525.197 189.56 524.167 190.41 522.827 191.01C521.507 191.59 519.917 191.88 518.057 191.88H511.577L513.317 190.11V198H509.417ZM523.157 198L517.847 190.38H522.017L527.357 198H523.157ZM513.317 190.53L511.577 188.67H517.877C519.597 188.67 520.887 188.3 521.747 187.56C522.627 186.82 523.067 185.79 523.067 184.47C523.067 183.13 522.627 182.1 521.747 181.38C520.887 180.66 519.597 180.3 517.877 180.3H511.577L513.317 178.38V190.53ZM534.96 185.73H545.4V188.94H534.96V185.73ZM535.26 194.73H547.11V198H531.36V177H546.69V180.27H535.26V194.73ZM548.488 198L557.938 177H561.778L571.258 198H567.178L559.048 179.07H560.608L552.508 198H548.488ZM552.838 193.14L553.888 190.08H565.228L566.278 193.14H552.838ZM573.928 198V177H577.828V194.7H588.808V198H573.928ZM593.636 198.21C592.956 198.21 592.376 197.98 591.896 197.52C591.416 197.04 591.176 196.44 591.176 195.72C591.176 194.96 591.416 194.36 591.896 193.92C592.376 193.46 592.956 193.23 593.636 193.23C594.316 193.23 594.896 193.46 595.376 193.92C595.856 194.36 596.096 194.96 596.096 195.72C596.096 196.44 595.856 197.04 595.376 197.52C594.896 197.98 594.316 198.21 593.636 198.21ZM600.12 198V177H604.02V198H600.12ZM619.54 198.3C617.9 198.3 616.39 198.03 615.01 197.49C613.63 196.95 612.43 196.2 611.41 195.24C610.39 194.26 609.6 193.12 609.04 191.82C608.48 190.5 608.2 189.06 608.2 187.5C608.2 185.94 608.48 184.51 609.04 183.21C609.6 181.89 610.39 180.75 611.41 179.79C612.43 178.81 613.63 178.05 615.01 177.51C616.39 176.97 617.89 176.7 619.51 176.7C621.15 176.7 622.65 176.97 624.01 177.51C625.39 178.05 626.59 178.81 627.61 179.79C628.63 180.75 629.42 181.89 629.98 183.21C630.54 184.51 630.82 185.94 630.82 187.5C630.82 189.06 630.54 190.5 629.98 191.82C629.42 193.14 628.63 194.28 627.61 195.24C626.59 196.2 625.39 196.95 624.01 197.49C622.65 198.03 621.16 198.3 619.54 198.3ZM619.51 194.88C620.57 194.88 621.55 194.7 622.45 194.34C623.35 193.98 624.13 193.47 624.79 192.81C625.45 192.13 625.96 191.35 626.32 190.47C626.7 189.57 626.89 188.58 626.89 187.5C626.89 186.42 626.7 185.44 626.32 184.56C625.96 183.66 625.45 182.88 624.79 182.22C624.13 181.54 623.35 181.02 622.45 180.66C621.55 180.3 620.57 180.12 619.51 180.12C618.45 180.12 617.47 180.3 616.57 180.66C615.69 181.02 614.91 181.54 614.23 182.22C613.57 182.88 613.05 183.66 612.67 184.56C612.31 185.44 612.13 186.42 612.13 187.5C612.13 188.56 612.31 189.54 612.67 190.44C613.05 191.34 613.57 192.13 614.23 192.81C614.89 193.47 615.67 193.98 616.57 194.34C617.47 194.7 618.45 194.88 619.51 194.88Z" fill="#252D3B"/>
<path d="M419.427 243V240.408L419.259 239.856V235.32C419.259 234.44 418.995 233.76 418.467 233.28C417.939 232.784 417.139 232.536 416.067 232.536C415.347 232.536 414.635 232.648 413.931 232.872C413.243 233.096 412.659 233.408 412.179 233.808L411.003 231.624C411.691 231.096 412.507 230.704 413.451 230.448C414.411 230.176 415.403 230.04 416.427 230.04C418.283 230.04 419.715 230.488 420.723 231.384C421.747 232.264 422.259 233.632 422.259 235.488V243H419.427ZM415.395 243.168C414.435 243.168 413.595 243.008 412.875 242.688C412.155 242.352 411.595 241.896 411.195 241.32C410.811 240.728 410.619 240.064 410.619 239.328C410.619 238.608 410.787 237.96 411.123 237.384C411.475 236.808 412.043 236.352 412.827 236.016C413.611 235.68 414.651 235.512 415.947 235.512H419.667V237.504H416.163C415.139 237.504 414.451 237.672 414.099 238.008C413.747 238.328 413.571 238.728 413.571 239.208C413.571 239.752 413.787 240.184 414.219 240.504C414.651 240.824 415.251 240.984 416.019 240.984C416.755 240.984 417.411 240.816 417.987 240.48C418.579 240.144 419.003 239.648 419.259 238.992L419.763 240.792C419.475 241.544 418.955 242.128 418.203 242.544C417.467 242.96 416.531 243.168 415.395 243.168ZM426.109 243V225.192H429.109V243H426.109ZM433.046 243V225.192H436.046V243H433.046ZM439.984 243V230.184H442.84V233.712L442.504 232.68C442.888 231.816 443.488 231.16 444.304 230.712C445.136 230.264 446.168 230.04 447.4 230.04V232.896C447.272 232.864 447.152 232.848 447.04 232.848C446.928 232.832 446.816 232.824 446.704 232.824C445.568 232.824 444.664 233.16 443.992 233.832C443.32 234.488 442.984 235.472 442.984 236.784V243H439.984ZM455.851 243.168C454.427 243.168 453.179 242.888 452.107 242.328C451.051 241.752 450.227 240.968 449.635 239.976C449.059 238.984 448.771 237.856 448.771 236.592C448.771 235.312 449.051 234.184 449.611 233.208C450.187 232.216 450.971 231.44 451.963 230.88C452.971 230.32 454.115 230.04 455.395 230.04C456.643 230.04 457.755 230.312 458.731 230.856C459.707 231.4 460.475 232.168 461.035 233.16C461.595 234.152 461.875 235.32 461.875 236.664C461.875 236.792 461.867 236.936 461.851 237.096C461.851 237.256 461.843 237.408 461.827 237.552H451.147V235.56H460.243L459.067 236.184C459.083 235.448 458.931 234.8 458.611 234.24C458.291 233.68 457.851 233.24 457.291 232.92C456.747 232.6 456.115 232.44 455.395 232.44C454.659 232.44 454.011 232.6 453.451 232.92C452.907 233.24 452.475 233.688 452.155 234.264C451.851 234.824 451.699 235.488 451.699 236.256V236.736C451.699 237.504 451.875 238.184 452.227 238.776C452.579 239.368 453.075 239.824 453.715 240.144C454.355 240.464 455.091 240.624 455.923 240.624C456.643 240.624 457.291 240.512 457.867 240.288C458.443 240.064 458.955 239.712 459.403 239.232L461.011 241.08C460.435 241.752 459.707 242.272 458.827 242.64C457.963 242.992 456.971 243.168 455.851 243.168ZM472.302 243V240.408L472.134 239.856V235.32C472.134 234.44 471.87 233.76 471.342 233.28C470.814 232.784 470.014 232.536 468.942 232.536C468.222 232.536 467.51 232.648 466.806 232.872C466.118 233.096 465.534 233.408 465.054 233.808L463.878 231.624C464.566 231.096 465.382 230.704 466.326 230.448C467.286 230.176 468.278 230.04 469.302 230.04C471.158 230.04 472.59 230.488 473.598 231.384C474.622 232.264 475.134 233.632 475.134 235.488V243H472.302ZM468.27 243.168C467.31 243.168 466.47 243.008 465.75 242.688C465.03 242.352 464.47 241.896 464.07 241.32C463.686 240.728 463.494 240.064 463.494 239.328C463.494 238.608 463.662 237.96 463.998 237.384C464.35 236.808 464.918 236.352 465.702 236.016C466.486 235.68 467.526 235.512 468.822 235.512H472.542V237.504H469.038C468.014 237.504 467.326 237.672 466.974 238.008C466.622 238.328 466.446 238.728 466.446 239.208C466.446 239.752 466.662 240.184 467.094 240.504C467.526 240.824 468.126 240.984 468.894 240.984C469.63 240.984 470.286 240.816 470.862 240.48C471.454 240.144 471.878 239.648 472.134 238.992L472.638 240.792C472.35 241.544 471.83 242.128 471.078 242.544C470.342 242.96 469.406 243.168 468.27 243.168ZM478.984 243V225.192H481.984V243H478.984ZM486.881 243.168C486.337 243.168 485.873 242.984 485.489 242.616C485.105 242.232 484.913 241.752 484.913 241.176C484.913 240.568 485.105 240.088 485.489 239.736C485.873 239.368 486.337 239.184 486.881 239.184C487.425 239.184 487.889 239.368 488.273 239.736C488.657 240.088 488.849 240.568 488.849 241.176C488.849 241.752 488.657 242.232 488.273 242.616C487.889 242.984 487.425 243.168 486.881 243.168ZM493.816 243L489.112 230.184H491.944L495.976 241.488H494.632L498.856 230.184H501.376L505.48 241.488H504.16L508.312 230.184H510.976L506.248 243H503.368L499.624 232.992H500.512L496.696 243H493.816ZM513.038 243V230.184H516.038V243H513.038ZM514.55 228.072C513.99 228.072 513.526 227.896 513.158 227.544C512.806 227.192 512.63 226.768 512.63 226.272C512.63 225.76 512.806 225.336 513.158 225C513.526 224.648 513.99 224.472 514.55 224.472C515.11 224.472 515.566 224.64 515.918 224.976C516.286 225.296 516.47 225.704 516.47 226.2C516.47 226.728 516.294 227.176 515.942 227.544C515.59 227.896 515.126 228.072 514.55 228.072ZM520.384 243V229.464C520.384 228.12 520.776 227.048 521.56 226.248C522.36 225.432 523.496 225.024 524.968 225.024C525.496 225.024 525.992 225.08 526.456 225.192C526.936 225.304 527.336 225.48 527.656 225.72L526.84 227.976C526.616 227.8 526.36 227.672 526.072 227.592C525.784 227.496 525.488 227.448 525.184 227.448C524.56 227.448 524.088 227.624 523.768 227.976C523.448 228.312 523.288 228.824 523.288 229.512V230.952L523.384 232.296V243H520.384ZM518.272 232.68V230.28H526.816V232.68H518.272ZM528.928 243V230.184H531.928V243H528.928ZM530.44 228.072C529.88 228.072 529.416 227.896 529.048 227.544C528.696 227.192 528.52 226.768 528.52 226.272C528.52 225.76 528.696 225.336 529.048 225C529.416 224.648 529.88 224.472 530.44 224.472C531 224.472 531.456 224.64 531.808 224.976C532.176 225.296 532.36 225.704 532.36 226.2C532.36 226.728 532.184 227.176 531.832 227.544C531.48 227.896 531.016 228.072 530.44 228.072ZM536.826 243.168C536.282 243.168 535.818 242.984 535.434 242.616C535.05 242.232 534.858 241.752 534.858 241.176C534.858 240.568 535.05 240.088 535.434 239.736C535.818 239.368 536.282 239.184 536.826 239.184C537.37 239.184 537.834 239.368 538.218 239.736C538.602 240.088 538.794 240.568 538.794 241.176C538.794 241.752 538.602 242.232 538.218 242.616C537.834 242.984 537.37 243.168 536.826 243.168ZM546.382 243.24C545.198 243.24 544.038 243.072 542.902 242.736C541.782 242.384 540.838 241.904 540.07 241.296L541.39 238.872C541.998 239.368 542.734 239.768 543.598 240.072C544.478 240.376 545.39 240.528 546.334 240.528C547.438 240.528 548.302 240.296 548.926 239.832C549.566 239.368 549.886 238.744 549.886 237.96C549.886 237.432 549.75 236.968 549.478 236.568C549.222 236.168 548.758 235.864 548.086 235.656C547.43 235.448 546.526 235.344 545.374 235.344H541.318L542.182 226.2H552.046V228.816H543.334L544.966 227.328L544.318 234.168L542.686 232.704H546.07C547.734 232.704 549.07 232.928 550.078 233.376C551.102 233.808 551.846 234.416 552.31 235.2C552.79 235.968 553.03 236.848 553.03 237.84C553.03 238.816 552.79 239.712 552.31 240.528C551.83 241.344 551.094 242 550.102 242.496C549.126 242.992 547.886 243.24 546.382 243.24ZM561.549 247.824C560.365 247.824 559.205 247.664 558.069 247.344C556.949 247.04 556.029 246.592 555.309 246L556.653 243.744C557.213 244.208 557.917 244.576 558.765 244.848C559.629 245.136 560.501 245.28 561.381 245.28C562.789 245.28 563.821 244.952 564.477 244.296C565.133 243.656 565.461 242.688 565.461 241.392V239.112L565.701 236.208L565.605 233.304V230.184H568.461V241.056C568.461 243.376 567.869 245.08 566.685 246.168C565.501 247.272 563.789 247.824 561.549 247.824ZM561.165 242.424C559.949 242.424 558.845 242.168 557.853 241.656C556.877 241.128 556.101 240.4 555.525 239.472C554.965 238.544 554.685 237.456 554.685 236.208C554.685 234.976 554.965 233.896 555.525 232.968C556.101 232.04 556.877 231.32 557.853 230.808C558.845 230.296 559.949 230.04 561.165 230.04C562.253 230.04 563.229 230.256 564.093 230.688C564.957 231.12 565.645 231.792 566.157 232.704C566.685 233.616 566.949 234.784 566.949 236.208C566.949 237.632 566.685 238.808 566.157 239.736C565.645 240.648 564.957 241.328 564.093 241.776C563.229 242.208 562.253 242.424 561.165 242.424ZM561.621 239.88C562.373 239.88 563.045 239.728 563.637 239.424C564.229 239.104 564.685 238.672 565.005 238.128C565.341 237.568 565.509 236.928 565.509 236.208C565.509 235.488 565.341 234.856 565.005 234.312C564.685 233.752 564.229 233.328 563.637 233.04C563.045 232.736 562.373 232.584 561.621 232.584C560.869 232.584 560.189 232.736 559.581 233.04C558.989 233.328 558.525 233.752 558.189 234.312C557.869 234.856 557.709 235.488 557.709 236.208C557.709 236.928 557.869 237.568 558.189 238.128C558.525 238.672 558.989 239.104 559.581 239.424C560.189 239.728 560.869 239.88 561.621 239.88Z" fill="#252D3B"/>
<path d="M405.493 286L413.053 269.2H416.125L423.709 286H420.445L413.941 270.856H415.189L408.709 286H405.493ZM408.973 282.112L409.813 279.664H418.885L419.725 282.112H408.973ZM433.387 286.24C432.107 286.24 430.915 286.032 429.811 285.616C428.723 285.184 427.771 284.584 426.955 283.816C426.155 283.032 425.531 282.112 425.083 281.056C424.635 280 424.411 278.848 424.411 277.6C424.411 276.352 424.635 275.2 425.083 274.144C425.531 273.088 426.163 272.176 426.979 271.408C427.795 270.624 428.747 270.024 429.835 269.608C430.923 269.176 432.115 268.96 433.411 268.96C434.787 268.96 436.043 269.2 437.179 269.68C438.315 270.144 439.275 270.84 440.059 271.768L438.043 273.664C437.435 273.008 436.755 272.52 436.003 272.2C435.251 271.864 434.435 271.696 433.555 271.696C432.675 271.696 431.867 271.84 431.131 272.128C430.411 272.416 429.779 272.824 429.235 273.352C428.707 273.88 428.291 274.504 427.987 275.224C427.699 275.944 427.555 276.736 427.555 277.6C427.555 278.464 427.699 279.256 427.987 279.976C428.291 280.696 428.707 281.32 429.235 281.848C429.779 282.376 430.411 282.784 431.131 283.072C431.867 283.36 432.675 283.504 433.555 283.504C434.435 283.504 435.251 283.344 436.003 283.024C436.755 282.688 437.435 282.184 438.043 281.512L440.059 283.432C439.275 284.344 438.315 285.04 437.179 285.52C436.043 286 434.779 286.24 433.387 286.24ZM446.269 286V271.84H440.701V269.2H454.957V271.84H449.389V286H446.269ZM455.519 280.576V278.08H462.119V280.576H455.519ZM473.298 286V283.408L473.13 282.856V278.32C473.13 277.44 472.866 276.76 472.338 276.28C471.81 275.784 471.01 275.536 469.938 275.536C469.218 275.536 468.506 275.648 467.802 275.872C467.114 276.096 466.53 276.408 466.05 276.808L464.874 274.624C465.562 274.096 466.378 273.704 467.322 273.448C468.282 273.176 469.274 273.04 470.298 273.04C472.154 273.04 473.586 273.488 474.594 274.384C475.618 275.264 476.13 276.632 476.13 278.488V286H473.298ZM469.266 286.168C468.306 286.168 467.466 286.008 466.746 285.688C466.026 285.352 465.466 284.896 465.066 284.32C464.682 283.728 464.49 283.064 464.49 282.328C464.49 281.608 464.658 280.96 464.994 280.384C465.346 279.808 465.914 279.352 466.698 279.016C467.482 278.68 468.522 278.512 469.818 278.512H473.538V280.504H470.034C469.01 280.504 468.322 280.672 467.97 281.008C467.618 281.328 467.442 281.728 467.442 282.208C467.442 282.752 467.658 283.184 468.09 283.504C468.522 283.824 469.122 283.984 469.89 283.984C470.626 283.984 471.282 283.816 471.858 283.48C472.45 283.144 472.874 282.648 473.13 281.992L473.634 283.792C473.346 284.544 472.826 285.128 472.074 285.544C471.338 285.96 470.402 286.168 469.266 286.168ZM479.98 286V273.184H482.98V286H479.98ZM481.492 271.072C480.932 271.072 480.468 270.896 480.1 270.544C479.748 270.192 479.572 269.768 479.572 269.272C479.572 268.76 479.748 268.336 480.1 268C480.468 267.648 480.932 267.472 481.492 267.472C482.052 267.472 482.508 267.64 482.86 267.976C483.228 268.296 483.412 268.704 483.412 269.2C483.412 269.728 483.236 270.176 482.884 270.544C482.532 270.896 482.068 271.072 481.492 271.072ZM484.949 287.824V286H496.949V287.824H484.949ZM500.506 286V270.4L501.874 271.816H496.954V269.2H503.626V286H500.506ZM509.646 286V270.4L511.014 271.816H506.094V269.2H512.766V286H509.646ZM515.883 286V283.912L522.555 277.576C523.115 277.048 523.531 276.584 523.803 276.184C524.075 275.784 524.251 275.416 524.331 275.08C524.427 274.728 524.475 274.4 524.475 274.096C524.475 273.328 524.211 272.736 523.683 272.32C523.155 271.888 522.379 271.672 521.355 271.672C520.539 271.672 519.795 271.816 519.123 272.104C518.467 272.392 517.899 272.832 517.419 273.424L515.235 271.744C515.891 270.864 516.771 270.184 517.875 269.704C518.995 269.208 520.243 268.96 521.619 268.96C522.835 268.96 523.891 269.16 524.787 269.56C525.699 269.944 526.395 270.496 526.875 271.216C527.371 271.936 527.619 272.792 527.619 273.784C527.619 274.328 527.547 274.872 527.403 275.416C527.259 275.944 526.987 276.504 526.587 277.096C526.187 277.688 525.603 278.352 524.835 279.088L519.099 284.536L518.451 283.36H528.267V286H515.883ZM535.348 286.24C534.164 286.24 533.004 286.072 531.868 285.736C530.748 285.384 529.804 284.904 529.036 284.296L530.38 281.872C530.988 282.368 531.724 282.768 532.588 283.072C533.452 283.376 534.356 283.528 535.3 283.528C536.42 283.528 537.292 283.304 537.916 282.856C538.54 282.392 538.852 281.768 538.852 280.984C538.852 280.216 538.564 279.608 537.988 279.16C537.412 278.712 536.484 278.488 535.204 278.488H533.668V276.352L538.468 270.64L538.876 271.816H529.852V269.2H541.3V271.288L536.5 277L534.868 276.04H535.804C537.868 276.04 539.412 276.504 540.436 277.432C541.476 278.344 541.996 279.52 541.996 280.96C541.996 281.904 541.756 282.776 541.276 283.576C540.796 284.376 540.06 285.024 539.068 285.52C538.092 286 536.852 286.24 535.348 286.24ZM550.372 286.168C549.14 286.168 548.028 285.896 547.036 285.352C546.06 284.792 545.292 284.024 544.732 283.048C544.172 282.072 543.892 280.92 543.892 279.592C543.892 278.264 544.172 277.112 544.732 276.136C545.292 275.16 546.06 274.4 547.036 273.856C548.028 273.312 549.14 273.04 550.372 273.04C551.444 273.04 552.404 273.28 553.252 273.76C554.1 274.224 554.772 274.936 555.268 275.896C555.764 276.856 556.012 278.088 556.012 279.592C556.012 281.08 555.772 282.312 555.292 283.288C554.812 284.248 554.148 284.968 553.3 285.448C552.452 285.928 551.476 286.168 550.372 286.168ZM550.732 283.6C551.452 283.6 552.092 283.44 552.652 283.12C553.228 282.8 553.684 282.336 554.02 281.728C554.372 281.12 554.548 280.408 554.548 279.592C554.548 278.76 554.372 278.048 554.02 277.456C553.684 276.848 553.228 276.384 552.652 276.064C552.092 275.744 551.452 275.584 550.732 275.584C550.012 275.584 549.364 275.744 548.788 276.064C548.228 276.384 547.772 276.848 547.42 277.456C547.084 278.048 546.916 278.76 546.916 279.592C546.916 280.408 547.084 281.12 547.42 281.728C547.772 282.336 548.228 282.8 548.788 283.12C549.364 283.44 550.012 283.6 550.732 283.6ZM554.62 286V282.976L554.74 279.568L554.5 276.16V268.192H557.476V286H554.62ZM567.449 286.168C566.025 286.168 564.777 285.888 563.705 285.328C562.649 284.752 561.825 283.968 561.233 282.976C560.657 281.984 560.369 280.856 560.369 279.592C560.369 278.312 560.649 277.184 561.209 276.208C561.785 275.216 562.569 274.44 563.561 273.88C564.569 273.32 565.713 273.04 566.993 273.04C568.241 273.04 569.353 273.312 570.329 273.856C571.305 274.4 572.073 275.168 572.633 276.16C573.193 277.152 573.473 278.32 573.473 279.664C573.473 279.792 573.465 279.936 573.449 280.096C573.449 280.256 573.441 280.408 573.425 280.552H562.745V278.56H571.841L570.665 279.184C570.681 278.448 570.529 277.8 570.209 277.24C569.889 276.68 569.449 276.24 568.889 275.92C568.345 275.6 567.713 275.44 566.993 275.44C566.257 275.44 565.609 275.6 565.049 275.92C564.505 276.24 564.073 276.688 563.753 277.264C563.449 277.824 563.297 278.488 563.297 279.256V279.736C563.297 280.504 563.473 281.184 563.825 281.776C564.177 282.368 564.673 282.824 565.313 283.144C565.953 283.464 566.689 283.624 567.521 283.624C568.241 283.624 568.889 283.512 569.465 283.288C570.041 283.064 570.553 282.712 571.001 282.232L572.609 284.08C572.033 284.752 571.305 285.272 570.425 285.64C569.561 285.992 568.569 286.168 567.449 286.168Z" fill="#252D3B"/>
</g>
<defs>
<clipPath id="clip0_40001529_15702">
<rect width="300" height="200" fill="white" transform="translate(340 97)"/>
</clipPath>
</defs>
</svg>
