<svg width="1228" height="294" viewBox="0 0 1228 294" fill="none" xmlns="http://www.w3.org/2000/svg">
<path d="M-0.00281253 78L24.7172 22H40.3172L65.1172 78H48.6372L29.2772 29.76H35.5172L16.1572 78H-0.00281253ZM13.5172 67.12L17.5972 55.44H44.9572L49.0372 67.12H13.5172ZM78.6241 78L60.7841 34.64H76.3841L90.6241 70.88H82.7841L97.7441 34.64H112.224L94.3041 78H78.6241ZM136.742 78.72C131.995 78.72 127.782 77.76 124.102 75.84C120.422 73.92 117.515 71.28 115.382 67.92C113.302 64.5067 112.262 60.6133 112.262 56.24C112.262 51.8667 113.302 48 115.382 44.64C117.515 41.28 120.422 38.6667 124.102 36.8C127.782 34.88 131.995 33.92 136.742 33.92C141.488 33.92 145.702 34.88 149.382 36.8C153.115 38.6667 156.022 41.28 158.102 44.64C160.182 48 161.222 51.8667 161.222 56.24C161.222 60.6133 160.182 64.5067 158.102 67.92C156.022 71.28 153.115 73.92 149.382 75.84C145.702 77.76 141.488 78.72 136.742 78.72ZM136.742 66.64C138.502 66.64 140.048 66.24 141.382 65.44C142.768 64.64 143.862 63.4667 144.662 61.92C145.462 60.32 145.862 58.4267 145.862 56.24C145.862 54.0533 145.462 52.2133 144.662 50.72C143.862 49.1733 142.768 48 141.382 47.2C140.048 46.4 138.502 46 136.742 46C135.035 46 133.488 46.4 132.102 47.2C130.768 48 129.675 49.1733 128.822 50.72C128.022 52.2133 127.622 54.0533 127.622 56.24C127.622 58.4267 128.022 60.32 128.822 61.92C129.675 63.4667 130.768 64.64 132.102 65.44C133.488 66.24 135.035 66.64 136.742 66.64ZM168.263 78V34.64H183.463V78H168.263ZM175.863 29.84C173.089 29.84 170.849 29.0667 169.143 27.52C167.436 25.9733 166.583 24.0533 166.583 21.76C166.583 19.4667 167.436 17.5467 169.143 16C170.849 14.4533 173.089 13.68 175.863 13.68C178.636 13.68 180.876 14.4267 182.583 15.92C184.289 17.36 185.143 19.2267 185.143 21.52C185.143 23.92 184.289 25.92 182.583 27.52C180.929 29.0667 178.689 29.84 175.863 29.84ZM212.221 78.72C208.274 78.72 204.674 77.8133 201.421 76C198.221 74.1333 195.661 71.5467 193.741 68.24C191.821 64.88 190.861 60.88 190.861 56.24C190.861 51.6533 191.821 47.7067 193.741 44.4C195.661 41.04 198.221 38.4533 201.421 36.64C204.674 34.8267 208.274 33.92 212.221 33.92C215.954 33.92 219.101 34.72 221.661 36.32C224.274 37.92 226.248 40.3733 227.581 43.68C228.914 46.9867 229.581 51.1733 229.581 56.24C229.581 61.4133 228.941 65.6533 227.661 68.96C226.381 72.2667 224.461 74.72 221.901 76.32C219.341 77.92 216.114 78.72 212.221 78.72ZM215.421 66.64C217.128 66.64 218.648 66.24 219.981 65.44C221.368 64.64 222.461 63.4667 223.261 61.92C224.061 60.32 224.461 58.4267 224.461 56.24C224.461 54.0533 224.061 52.2133 223.261 50.72C222.461 49.1733 221.368 48 219.981 47.2C218.648 46.4 217.128 46 215.421 46C213.661 46 212.088 46.4 210.701 47.2C209.368 48 208.301 49.1733 207.501 50.72C206.701 52.2133 206.301 54.0533 206.301 56.24C206.301 58.4267 206.701 60.32 207.501 61.92C208.301 63.4667 209.368 64.64 210.701 65.44C212.088 66.24 213.661 66.64 215.421 66.64ZM224.941 78V70.56L225.021 56.24L224.221 41.92V18.64H239.421V78H224.941ZM294.642 78.72C289.842 78.72 285.548 77.76 281.762 75.84C278.028 73.92 275.095 71.28 272.962 67.92C270.828 64.5067 269.762 60.6133 269.762 56.24C269.762 51.8667 270.828 48 272.962 44.64C275.095 41.28 278.028 38.6667 281.762 36.8C285.548 34.88 289.842 33.92 294.642 33.92C299.548 33.92 303.788 34.96 307.362 37.04C310.935 39.12 313.468 42.0533 314.962 45.84L303.202 51.84C302.188 49.8133 300.935 48.3467 299.442 47.44C297.948 46.48 296.322 46 294.562 46C292.802 46 291.202 46.4 289.762 47.2C288.322 48 287.175 49.1733 286.322 50.72C285.522 52.2133 285.122 54.0533 285.122 56.24C285.122 58.48 285.522 60.3733 286.322 61.92C287.175 63.4667 288.322 64.64 289.762 65.44C291.202 66.24 292.802 66.64 294.562 66.64C296.322 66.64 297.948 66.1867 299.442 65.28C300.935 64.32 302.188 62.8267 303.202 60.8L314.962 66.8C313.468 70.5867 310.935 73.52 307.362 75.6C303.788 77.68 299.548 78.72 294.642 78.72ZM320.528 78V18.64H335.728V78H320.528ZM367.367 78.72C362.62 78.72 358.407 77.76 354.727 75.84C351.047 73.92 348.14 71.28 346.007 67.92C343.927 64.5067 342.887 60.6133 342.887 56.24C342.887 51.8667 343.927 48 346.007 44.64C348.14 41.28 351.047 38.6667 354.727 36.8C358.407 34.88 362.62 33.92 367.367 33.92C372.113 33.92 376.327 34.88 380.007 36.8C383.74 38.6667 386.647 41.28 388.727 44.64C390.807 48 391.847 51.8667 391.847 56.24C391.847 60.6133 390.807 64.5067 388.727 67.92C386.647 71.28 383.74 73.92 380.007 75.84C376.327 77.76 372.113 78.72 367.367 78.72ZM367.367 66.64C369.127 66.64 370.673 66.24 372.007 65.44C373.393 64.64 374.487 63.4667 375.287 61.92C376.087 60.32 376.487 58.4267 376.487 56.24C376.487 54.0533 376.087 52.2133 375.287 50.72C374.487 49.1733 373.393 48 372.007 47.2C370.673 46.4 369.127 46 367.367 46C365.66 46 364.113 46.4 362.727 47.2C361.393 48 360.3 49.1733 359.447 50.72C358.647 52.2133 358.247 54.0533 358.247 56.24C358.247 58.4267 358.647 60.32 359.447 61.92C360.3 63.4667 361.393 64.64 362.727 65.44C364.113 66.24 365.66 66.64 367.367 66.64ZM418.248 78.72C412.701 78.72 408.381 77.36 405.288 74.64C402.194 71.8667 400.648 67.7067 400.648 62.16V24.96H415.848V62C415.848 63.5467 416.274 64.7733 417.128 65.68C417.981 66.5333 419.074 66.96 420.408 66.96C422.221 66.96 423.768 66.5067 425.048 65.6L428.808 76.24C427.528 77.0933 425.954 77.7067 424.088 78.08C422.221 78.5067 420.274 78.72 418.248 78.72ZM394.328 47.6V36.24H425.768V47.6H394.328ZM462.909 33.92C466.269 33.92 469.309 34.6133 472.029 36C474.749 37.3333 476.882 39.4133 478.429 42.24C480.029 45.0667 480.829 48.72 480.829 53.2V78H465.629V55.68C465.629 52.5867 464.989 50.3467 463.709 48.96C462.482 47.52 460.749 46.8 458.509 46.8C456.909 46.8 455.442 47.1733 454.109 47.92C452.776 48.6133 451.736 49.7067 450.989 51.2C450.242 52.6933 449.869 54.64 449.869 57.04V78H434.669V18.64H449.869V46.96L446.349 43.36C448.002 40.2133 450.269 37.8667 453.149 36.32C456.029 34.72 459.282 33.92 462.909 33.92ZM513.639 78.72C508.519 78.72 504.039 77.76 500.199 75.84C496.412 73.8667 493.452 71.2 491.319 67.84C489.239 64.4267 488.199 60.56 488.199 56.24C488.199 51.92 489.212 48.08 491.239 44.72C493.319 41.3067 496.172 38.6667 499.799 36.8C503.426 34.88 507.506 33.92 512.039 33.92C516.306 33.92 520.199 34.8 523.719 36.56C527.239 38.2667 530.039 40.8 532.119 44.16C534.199 47.52 535.239 51.6 535.239 56.4C535.239 56.9333 535.212 57.5467 535.159 58.24C535.106 58.9333 535.052 59.5733 534.999 60.16H500.679V52.16H526.919L521.159 54.4C521.212 52.4267 520.839 50.72 520.039 49.28C519.292 47.84 518.226 46.72 516.839 45.92C515.506 45.12 513.932 44.72 512.119 44.72C510.306 44.72 508.706 45.12 507.319 45.92C505.986 46.72 504.946 47.8667 504.199 49.36C503.452 50.8 503.079 52.5067 503.079 54.48V56.8C503.079 58.9333 503.506 60.7733 504.359 62.32C505.266 63.8667 506.546 65.0667 508.199 65.92C509.852 66.72 511.826 67.12 514.119 67.12C516.252 67.12 518.066 66.8267 519.559 66.24C521.106 65.6 522.626 64.64 524.119 63.36L532.119 71.68C530.039 73.9733 527.479 75.7333 524.439 76.96C521.399 78.1333 517.799 78.72 513.639 78.72ZM558.007 78.72C554.327 78.72 550.727 78.2933 547.207 77.44C543.741 76.5867 540.941 75.52 538.807 74.24L543.367 63.84C545.394 65.0667 547.767 66.0533 550.487 66.8C553.207 67.4933 555.874 67.84 558.487 67.84C561.047 67.84 562.807 67.5733 563.767 67.04C564.781 66.5067 565.287 65.7867 565.287 64.88C565.287 64.0267 564.807 63.4133 563.847 63.04C562.941 62.6133 561.714 62.2933 560.167 62.08C558.674 61.8667 557.021 61.6267 555.207 61.36C553.394 61.0933 551.554 60.7467 549.687 60.32C547.874 59.84 546.194 59.1467 544.647 58.24C543.154 57.28 541.954 56 541.047 54.4C540.141 52.8 539.687 50.7733 539.687 48.32C539.687 45.5467 540.487 43.0933 542.087 40.96C543.741 38.7733 546.141 37.0667 549.287 35.84C552.434 34.56 556.274 33.92 560.807 33.92C563.847 33.92 566.914 34.24 570.007 34.88C573.154 35.4667 575.794 36.3733 577.927 37.6L573.367 47.92C571.234 46.6933 569.101 45.8667 566.967 45.44C564.834 44.96 562.807 44.72 560.887 44.72C558.327 44.72 556.514 45.0133 555.447 45.6C554.434 46.1867 553.927 46.9067 553.927 47.76C553.927 48.6133 554.381 49.28 555.287 49.76C556.194 50.1867 557.394 50.5333 558.887 50.8C560.434 51.0133 562.114 51.2533 563.927 51.52C565.741 51.7333 567.554 52.08 569.367 52.56C571.234 53.04 572.914 53.76 574.407 54.72C575.954 55.6267 577.181 56.88 578.087 58.48C578.994 60.0267 579.447 62.0267 579.447 64.48C579.447 67.1467 578.621 69.5467 576.967 71.68C575.367 73.8133 572.967 75.52 569.767 76.8C566.621 78.08 562.701 78.72 558.007 78.72ZM619.598 78L604.158 34.64H618.558L630.798 70.88H623.918L636.638 34.64H649.598L661.838 70.88H655.118L667.758 34.64H681.118L665.678 78H650.958L640.558 48H645.038L634.318 78H619.598ZM685.763 78V34.64H700.963V78H685.763ZM693.363 29.84C690.589 29.84 688.349 29.0667 686.643 27.52C684.936 25.9733 684.083 24.0533 684.083 21.76C684.083 19.4667 684.936 17.5467 686.643 16C688.349 14.4533 690.589 13.68 693.363 13.68C696.136 13.68 698.376 14.4267 700.083 15.92C701.789 17.36 702.643 19.2267 702.643 21.52C702.643 23.92 701.789 25.92 700.083 27.52C698.429 29.0667 696.189 29.84 693.363 29.84ZM730.201 78.72C724.654 78.72 720.334 77.36 717.241 74.64C714.148 71.8667 712.601 67.7067 712.601 62.16V24.96H727.801V62C727.801 63.5467 728.228 64.7733 729.081 65.68C729.934 66.5333 731.028 66.96 732.361 66.96C734.174 66.96 735.721 66.5067 737.001 65.6L740.761 76.24C739.481 77.0933 737.908 77.7067 736.041 78.08C734.174 78.5067 732.228 78.72 730.201 78.72ZM706.281 47.6V36.24H737.721V47.6H706.281ZM774.862 33.92C778.222 33.92 781.262 34.6133 783.982 36C786.702 37.3333 788.836 39.4133 790.382 42.24C791.982 45.0667 792.782 48.72 792.782 53.2V78H777.582V55.68C777.582 52.5867 776.942 50.3467 775.662 48.96C774.436 47.52 772.702 46.8 770.462 46.8C768.862 46.8 767.396 47.1733 766.062 47.92C764.729 48.6133 763.689 49.7067 762.942 51.2C762.196 52.6933 761.822 54.64 761.822 57.04V78H746.622V18.64H761.822V46.96L758.302 43.36C759.956 40.2133 762.222 37.8667 765.102 36.32C767.982 34.72 771.236 33.92 774.862 33.92ZM852.887 78.72C849.207 78.72 846.06 77.92 843.447 76.32C840.833 74.6667 838.833 72.2133 837.447 68.96C836.113 65.6533 835.447 61.44 835.447 56.32C835.447 51.1467 836.087 46.9333 837.367 43.68C838.647 40.3733 840.567 37.92 843.127 36.32C845.74 34.72 848.993 33.92 852.887 33.92C856.833 33.92 860.407 34.8533 863.607 36.72C866.86 38.5333 869.42 41.12 871.287 44.48C873.207 47.7867 874.167 51.7333 874.167 56.32C874.167 60.9067 873.207 64.88 871.287 68.24C869.42 71.6 866.86 74.1867 863.607 76C860.407 77.8133 856.833 78.72 852.887 78.72ZM825.607 93.52V34.64H840.087V42L840.007 56.32L840.807 70.72V93.52H825.607ZM849.687 66.64C851.393 66.64 852.913 66.24 854.247 65.44C855.633 64.64 856.727 63.4667 857.527 61.92C858.38 60.3733 858.807 58.5067 858.807 56.32C858.807 54.1333 858.38 52.2667 857.527 50.72C856.727 49.1733 855.633 48 854.247 47.2C852.913 46.4 851.393 46 849.687 46C847.98 46 846.433 46.4 845.047 47.2C843.713 48 842.62 49.1733 841.767 50.72C840.967 52.2667 840.567 54.1333 840.567 56.32C840.567 58.5067 840.967 60.3733 841.767 61.92C842.62 63.4667 843.713 64.64 845.047 65.44C846.433 66.24 847.98 66.64 849.687 66.64ZM906.774 78V69.92L905.734 67.92V53.04C905.734 50.64 904.987 48.8 903.494 47.52C902.054 46.1867 899.734 45.52 896.534 45.52C894.454 45.52 892.347 45.8667 890.214 46.56C888.081 47.2 886.267 48.1067 884.774 49.28L879.654 38.96C882.107 37.36 885.041 36.1333 888.454 35.28C891.921 34.3733 895.361 33.92 898.774 33.92C905.814 33.92 911.254 35.5467 915.094 38.8C918.987 42 920.934 47.04 920.934 53.92V78H906.774ZM893.974 78.72C890.507 78.72 887.574 78.1333 885.174 76.96C882.774 75.7867 880.934 74.1867 879.654 72.16C878.427 70.1333 877.814 67.8667 877.814 65.36C877.814 62.6933 878.481 60.4 879.814 58.48C881.201 56.5067 883.307 55.0133 886.134 54C888.961 52.9333 892.614 52.4 897.094 52.4H907.334V60.32H899.174C896.721 60.32 894.987 60.72 893.974 61.52C893.014 62.32 892.534 63.3867 892.534 64.72C892.534 66.0533 893.041 67.12 894.054 67.92C895.067 68.72 896.454 69.12 898.214 69.12C899.867 69.12 901.361 68.72 902.694 67.92C904.081 67.0667 905.094 65.7867 905.734 64.08L907.814 69.68C907.014 72.6667 905.441 74.9333 903.094 76.48C900.801 77.9733 897.761 78.72 893.974 78.72ZM949.888 78.72C944.342 78.72 940.022 77.36 936.928 74.64C933.835 71.8667 932.288 67.7067 932.288 62.16V24.96H947.488V62C947.488 63.5467 947.915 64.7733 948.768 65.68C949.622 66.5333 950.715 66.96 952.048 66.96C953.862 66.96 955.408 66.5067 956.688 65.6L960.448 76.24C959.168 77.0933 957.595 77.7067 955.728 78.08C953.862 78.5067 951.915 78.72 949.888 78.72ZM925.968 47.6V36.24H957.408V47.6H925.968ZM984.81 78.72C979.264 78.72 974.944 77.36 971.85 74.64C968.757 71.8667 967.21 67.7067 967.21 62.16V24.96H982.41V62C982.41 63.5467 982.837 64.7733 983.69 65.68C984.544 66.5333 985.637 66.96 986.97 66.96C988.784 66.96 990.33 66.5067 991.61 65.6L995.37 76.24C994.09 77.0933 992.517 77.7067 990.65 78.08C988.784 78.5067 986.837 78.72 984.81 78.72ZM960.89 47.6V36.24H992.33V47.6H960.89ZM1022.7 78.72C1017.58 78.72 1013.1 77.76 1009.26 75.84C1005.47 73.8667 1002.51 71.2 1000.38 67.84C998.302 64.4267 997.262 60.56 997.262 56.24C997.262 51.92 998.275 48.08 1000.3 44.72C1002.38 41.3067 1005.23 38.6667 1008.86 36.8C1012.49 34.88 1016.57 33.92 1021.1 33.92C1025.37 33.92 1029.26 34.8 1032.78 36.56C1036.3 38.2667 1039.1 40.8 1041.18 44.16C1043.26 47.52 1044.3 51.6 1044.3 56.4C1044.3 56.9333 1044.27 57.5467 1044.22 58.24C1044.17 58.9333 1044.11 59.5733 1044.06 60.16H1009.74V52.16H1035.98L1030.22 54.4C1030.27 52.4267 1029.9 50.72 1029.1 49.28C1028.35 47.84 1027.29 46.72 1025.9 45.92C1024.57 45.12 1022.99 44.72 1021.18 44.72C1019.37 44.72 1017.77 45.12 1016.38 45.92C1015.05 46.72 1014.01 47.8667 1013.26 49.36C1012.51 50.8 1012.14 52.5067 1012.14 54.48V56.8C1012.14 58.9333 1012.57 60.7733 1013.42 62.32C1014.33 63.8667 1015.61 65.0667 1017.26 65.92C1018.91 66.72 1020.89 67.12 1023.18 67.12C1025.31 67.12 1027.13 66.8267 1028.62 66.24C1030.17 65.6 1031.69 64.64 1033.18 63.36L1041.18 71.68C1039.1 73.9733 1036.54 75.7333 1033.5 76.96C1030.46 78.1333 1026.86 78.72 1022.7 78.72ZM1051.31 78V34.64H1065.79V47.28L1063.63 43.68C1064.91 40.4267 1066.99 38 1069.87 36.4C1072.75 34.7467 1076.24 33.92 1080.35 33.92V47.6C1079.66 47.4933 1079.04 47.44 1078.51 47.44C1078.03 47.3867 1077.5 47.36 1076.91 47.36C1073.82 47.36 1071.31 48.2133 1069.39 49.92C1067.47 51.5733 1066.51 54.2933 1066.51 58.08V78H1051.31ZM1114.86 33.92C1118.22 33.92 1121.26 34.6133 1123.98 36C1126.7 37.3333 1128.84 39.4133 1130.38 42.24C1131.98 45.0667 1132.78 48.72 1132.78 53.2V78H1117.58V55.68C1117.58 52.5867 1116.94 50.3467 1115.66 48.96C1114.44 47.52 1112.7 46.8 1110.46 46.8C1108.86 46.8 1107.4 47.1733 1106.06 47.92C1104.73 48.6133 1103.69 49.7067 1102.94 51.2C1102.2 52.6933 1101.82 54.64 1101.82 57.04V78H1086.62V34.64H1101.1V46.96L1098.3 43.36C1099.96 40.2133 1102.22 37.8667 1105.1 36.32C1107.98 34.72 1111.24 33.92 1114.86 33.92ZM1158.09 78.72C1154.41 78.72 1150.81 78.2933 1147.29 77.44C1143.82 76.5867 1141.02 75.52 1138.89 74.24L1143.45 63.84C1145.47 65.0667 1147.85 66.0533 1150.57 66.8C1153.29 67.4933 1155.95 67.84 1158.57 67.84C1161.13 67.84 1162.89 67.5733 1163.85 67.04C1164.86 66.5067 1165.37 65.7867 1165.37 64.88C1165.37 64.0267 1164.89 63.4133 1163.93 63.04C1163.02 62.6133 1161.79 62.2933 1160.25 62.08C1158.75 61.8667 1157.1 61.6267 1155.29 61.36C1153.47 61.0933 1151.63 60.7467 1149.77 60.32C1147.95 59.84 1146.27 59.1467 1144.73 58.24C1143.23 57.28 1142.03 56 1141.13 54.4C1140.22 52.8 1139.77 50.7733 1139.77 48.32C1139.77 45.5467 1140.57 43.0933 1142.17 40.96C1143.82 38.7733 1146.22 37.0667 1149.37 35.84C1152.51 34.56 1156.35 33.92 1160.89 33.92C1163.93 33.92 1166.99 34.24 1170.09 34.88C1173.23 35.4667 1175.87 36.3733 1178.01 37.6L1173.45 47.92C1171.31 46.6933 1169.18 45.8667 1167.05 45.44C1164.91 44.96 1162.89 44.72 1160.97 44.72C1158.41 44.72 1156.59 45.0133 1155.53 45.6C1154.51 46.1867 1154.01 46.9067 1154.01 47.76C1154.01 48.6133 1154.46 49.28 1155.37 49.76C1156.27 50.1867 1157.47 50.5333 1158.97 50.8C1160.51 51.0133 1162.19 51.2533 1164.01 51.52C1165.82 51.7333 1167.63 52.08 1169.45 52.56C1171.31 53.04 1172.99 53.76 1174.49 54.72C1176.03 55.6267 1177.26 56.88 1178.17 58.48C1179.07 60.0267 1179.53 62.0267 1179.53 64.48C1179.53 67.1467 1178.7 69.5467 1177.05 71.68C1175.45 73.8133 1173.05 75.52 1169.85 76.8C1166.7 78.08 1162.78 78.72 1158.09 78.72ZM1184.4 90.56L1190.4 69.76L1192.56 78.4C1189.89 78.4 1187.7 77.6267 1186 76.08C1184.29 74.48 1183.44 72.3467 1183.44 69.68C1183.44 66.9067 1184.29 64.72 1186 63.12C1187.76 61.52 1189.94 60.72 1192.56 60.72C1195.17 60.72 1197.33 61.5467 1199.04 63.2C1200.74 64.8 1201.6 66.96 1201.6 69.68C1201.6 70.4267 1201.54 71.1733 1201.44 71.92C1201.33 72.6667 1201.09 73.5733 1200.72 74.64C1200.34 75.7067 1199.76 77.12 1198.96 78.88L1193.92 90.56H1184.4ZM34.4347 176V116.64H49.6347V176H34.4347ZM81.2728 176.72C76.5261 176.72 72.3128 175.76 68.6328 173.84C64.9528 171.92 62.0461 169.28 59.9128 165.92C57.8328 162.507 56.7928 158.613 56.7928 154.24C56.7928 149.867 57.8328 146 59.9128 142.64C62.0461 139.28 64.9528 136.667 68.6328 134.8C72.3128 132.88 76.5261 131.92 81.2728 131.92C86.0195 131.92 90.2328 132.88 93.9128 134.8C97.6461 136.667 100.553 139.28 102.633 142.64C104.713 146 105.753 149.867 105.753 154.24C105.753 158.613 104.713 162.507 102.633 165.92C100.553 169.28 97.6461 171.92 93.9128 173.84C90.2328 175.76 86.0195 176.72 81.2728 176.72ZM81.2728 164.64C83.0328 164.64 84.5795 164.24 85.9128 163.44C87.2995 162.64 88.3928 161.467 89.1928 159.92C89.9928 158.32 90.3928 156.427 90.3928 154.24C90.3928 152.053 89.9928 150.213 89.1928 148.72C88.3928 147.173 87.2995 146 85.9128 145.2C84.5795 144.4 83.0328 144 81.2728 144C79.5661 144 78.0195 144.4 76.6328 145.2C75.2995 146 74.2061 147.173 73.3528 148.72C72.5528 150.213 72.1528 152.053 72.1528 154.24C72.1528 156.427 72.5528 158.32 73.3528 159.92C74.2061 161.467 75.2995 162.64 76.6328 163.44C78.0195 164.24 79.5661 164.64 81.2728 164.64ZM141.034 131.92C144.394 131.92 147.434 132.613 150.154 134C152.874 135.333 155.007 137.413 156.554 140.24C158.154 143.067 158.954 146.72 158.954 151.2V176H143.754V153.68C143.754 150.587 143.114 148.347 141.834 146.96C140.607 145.52 138.874 144.8 136.634 144.8C135.034 144.8 133.567 145.173 132.234 145.92C130.901 146.613 129.861 147.707 129.114 149.2C128.367 150.693 127.994 152.64 127.994 155.04V176H112.794V132.64H127.274V144.96L124.474 141.36C126.127 138.213 128.394 135.867 131.274 134.32C134.154 132.72 137.407 131.92 141.034 131.92ZM190.244 192.24C186.084 192.24 182.111 191.76 178.324 190.8C174.591 189.84 171.391 188.427 168.724 186.56L174.244 175.92C176.057 177.36 178.297 178.48 180.964 179.28C183.684 180.133 186.324 180.56 188.884 180.56C192.991 180.56 195.951 179.653 197.764 177.84C199.577 176.08 200.484 173.493 200.484 170.08V164.96L201.284 152.8L201.204 140.56V132.64H215.684V168.08C215.684 176.293 213.471 182.373 209.044 186.32C204.617 190.267 198.351 192.24 190.244 192.24ZM187.604 173.76C183.764 173.76 180.217 172.907 176.964 171.2C173.764 169.44 171.177 167.013 169.204 163.92C167.284 160.773 166.324 157.067 166.324 152.8C166.324 148.533 167.284 144.853 169.204 141.76C171.177 138.613 173.764 136.187 176.964 134.48C180.217 132.773 183.764 131.92 187.604 131.92C191.284 131.92 194.431 132.667 197.044 134.16C199.657 135.6 201.631 137.867 202.964 140.96C204.351 144.053 205.044 148 205.044 152.8C205.044 157.6 204.351 161.547 202.964 164.64C201.631 167.733 199.657 170.027 197.044 171.52C194.431 173.013 191.284 173.76 187.604 173.76ZM191.204 161.68C193.017 161.68 194.617 161.307 196.004 160.56C197.444 159.813 198.564 158.773 199.364 157.44C200.217 156.107 200.644 154.56 200.644 152.8C200.644 151.04 200.217 149.493 199.364 148.16C198.564 146.827 197.444 145.813 196.004 145.12C194.617 144.373 193.017 144 191.204 144C189.391 144 187.764 144.373 186.324 145.12C184.884 145.813 183.737 146.827 182.884 148.16C182.084 149.493 181.684 151.04 181.684 152.8C181.684 154.56 182.084 156.107 182.884 157.44C183.737 158.773 184.884 159.813 186.324 160.56C187.764 161.307 189.391 161.68 191.204 161.68ZM264.492 176.72C260.812 176.72 257.212 176.293 253.692 175.44C250.225 174.587 247.425 173.52 245.292 172.24L249.852 161.84C251.878 163.067 254.252 164.053 256.972 164.8C259.692 165.493 262.358 165.84 264.972 165.84C267.532 165.84 269.292 165.573 270.252 165.04C271.265 164.507 271.772 163.787 271.772 162.88C271.772 162.027 271.292 161.413 270.332 161.04C269.425 160.613 268.198 160.293 266.652 160.08C265.158 159.867 263.505 159.627 261.692 159.36C259.878 159.093 258.038 158.747 256.172 158.32C254.358 157.84 252.678 157.147 251.132 156.24C249.638 155.28 248.438 154 247.532 152.4C246.625 150.8 246.172 148.773 246.172 146.32C246.172 143.547 246.972 141.093 248.572 138.96C250.225 136.773 252.625 135.067 255.772 133.84C258.918 132.56 262.758 131.92 267.292 131.92C270.332 131.92 273.398 132.24 276.492 132.88C279.638 133.467 282.278 134.373 284.412 135.6L279.852 145.92C277.718 144.693 275.585 143.867 273.452 143.44C271.318 142.96 269.292 142.72 267.372 142.72C264.812 142.72 262.998 143.013 261.932 143.6C260.918 144.187 260.412 144.907 260.412 145.76C260.412 146.613 260.865 147.28 261.772 147.76C262.678 148.187 263.878 148.533 265.372 148.8C266.918 149.013 268.598 149.253 270.412 149.52C272.225 149.733 274.038 150.08 275.852 150.56C277.718 151.04 279.398 151.76 280.892 152.72C282.438 153.627 283.665 154.88 284.572 156.48C285.478 158.027 285.932 160.027 285.932 162.48C285.932 165.147 285.105 167.547 283.452 169.68C281.852 171.813 279.452 173.52 276.252 174.8C273.105 176.08 269.185 176.72 264.492 176.72ZM292.482 176V116.64H307.682V176H292.482ZM340.28 176.72C335.16 176.72 330.68 175.76 326.84 173.84C323.053 171.867 320.093 169.2 317.96 165.84C315.88 162.427 314.84 158.56 314.84 154.24C314.84 149.92 315.853 146.08 317.88 142.72C319.96 139.307 322.813 136.667 326.44 134.8C330.066 132.88 334.146 131.92 338.68 131.92C342.946 131.92 346.84 132.8 350.36 134.56C353.88 136.267 356.68 138.8 358.76 142.16C360.84 145.52 361.88 149.6 361.88 154.4C361.88 154.933 361.853 155.547 361.8 156.24C361.746 156.933 361.693 157.573 361.64 158.16H327.32V150.16H353.56L347.8 152.4C347.853 150.427 347.48 148.72 346.68 147.28C345.933 145.84 344.866 144.72 343.48 143.92C342.146 143.12 340.573 142.72 338.76 142.72C336.946 142.72 335.346 143.12 333.96 143.92C332.626 144.72 331.586 145.867 330.84 147.36C330.093 148.8 329.72 150.507 329.72 152.48V154.8C329.72 156.933 330.146 158.773 331 160.32C331.906 161.867 333.186 163.067 334.84 163.92C336.493 164.72 338.466 165.12 340.76 165.12C342.893 165.12 344.706 164.827 346.2 164.24C347.746 163.6 349.266 162.64 350.76 161.36L358.76 169.68C356.68 171.973 354.12 173.733 351.08 174.96C348.04 176.133 344.44 176.72 340.28 176.72ZM391.608 176.72C386.488 176.72 382.008 175.76 378.168 173.84C374.381 171.867 371.421 169.2 369.288 165.84C367.208 162.427 366.168 158.56 366.168 154.24C366.168 149.92 367.181 146.08 369.208 142.72C371.288 139.307 374.141 136.667 377.768 134.8C381.394 132.88 385.474 131.92 390.008 131.92C394.274 131.92 398.168 132.8 401.688 134.56C405.208 136.267 408.008 138.8 410.088 142.16C412.168 145.52 413.208 149.6 413.208 154.4C413.208 154.933 413.181 155.547 413.128 156.24C413.074 156.933 413.021 157.573 412.968 158.16H378.648V150.16H404.888L399.128 152.4C399.181 150.427 398.808 148.72 398.008 147.28C397.261 145.84 396.194 144.72 394.808 143.92C393.474 143.12 391.901 142.72 390.088 142.72C388.274 142.72 386.674 143.12 385.288 143.92C383.954 144.72 382.914 145.867 382.168 147.36C381.421 148.8 381.048 150.507 381.048 152.48V154.8C381.048 156.933 381.474 158.773 382.328 160.32C383.234 161.867 384.514 163.067 386.168 163.92C387.821 164.72 389.794 165.12 392.088 165.12C394.221 165.12 396.034 164.827 397.528 164.24C399.074 163.6 400.594 162.64 402.088 161.36L410.088 169.68C408.008 171.973 405.448 173.733 402.408 174.96C399.368 176.133 395.768 176.72 391.608 176.72ZM431.515 176L413.675 132.64H429.275L443.515 168.88H435.675L450.635 132.64H465.115L447.195 176H431.515ZM490.592 176.72C485.472 176.72 480.992 175.76 477.152 173.84C473.366 171.867 470.406 169.2 468.272 165.84C466.192 162.427 465.152 158.56 465.152 154.24C465.152 149.92 466.166 146.08 468.192 142.72C470.272 139.307 473.126 136.667 476.752 134.8C480.379 132.88 484.459 131.92 488.992 131.92C493.259 131.92 497.152 132.8 500.672 134.56C504.192 136.267 506.992 138.8 509.072 142.16C511.152 145.52 512.192 149.6 512.192 154.4C512.192 154.933 512.166 155.547 512.112 156.24C512.059 156.933 512.006 157.573 511.952 158.16H477.632V150.16H503.872L498.112 152.4C498.166 150.427 497.792 148.72 496.992 147.28C496.246 145.84 495.179 144.72 493.792 143.92C492.459 143.12 490.886 142.72 489.072 142.72C487.259 142.72 485.659 143.12 484.272 143.92C482.939 144.72 481.899 145.867 481.152 147.36C480.406 148.8 480.032 150.507 480.032 152.48V154.8C480.032 156.933 480.459 158.773 481.312 160.32C482.219 161.867 483.499 163.067 485.152 163.92C486.806 164.72 488.779 165.12 491.072 165.12C493.206 165.12 495.019 164.827 496.512 164.24C498.059 163.6 499.579 162.64 501.072 161.36L509.072 169.68C506.992 171.973 504.432 173.733 501.392 174.96C498.352 176.133 494.752 176.72 490.592 176.72ZM534.96 176.72C531.28 176.72 527.68 176.293 524.16 175.44C520.694 174.587 517.894 173.52 515.76 172.24L520.32 161.84C522.347 163.067 524.72 164.053 527.44 164.8C530.16 165.493 532.827 165.84 535.44 165.84C538 165.84 539.76 165.573 540.72 165.04C541.734 164.507 542.24 163.787 542.24 162.88C542.24 162.027 541.76 161.413 540.8 161.04C539.894 160.613 538.667 160.293 537.12 160.08C535.627 159.867 533.974 159.627 532.16 159.36C530.347 159.093 528.507 158.747 526.64 158.32C524.827 157.84 523.147 157.147 521.6 156.24C520.107 155.28 518.907 154 518 152.4C517.094 150.8 516.64 148.773 516.64 146.32C516.64 143.547 517.44 141.093 519.04 138.96C520.694 136.773 523.094 135.067 526.24 133.84C529.387 132.56 533.227 131.92 537.76 131.92C540.8 131.92 543.867 132.24 546.96 132.88C550.107 133.467 552.747 134.373 554.88 135.6L550.32 145.92C548.187 144.693 546.054 143.867 543.92 143.44C541.787 142.96 539.76 142.72 537.84 142.72C535.28 142.72 533.467 143.013 532.4 143.6C531.387 144.187 530.88 144.907 530.88 145.76C530.88 146.613 531.334 147.28 532.24 147.76C533.147 148.187 534.347 148.533 535.84 148.8C537.387 149.013 539.067 149.253 540.88 149.52C542.694 149.733 544.507 150.08 546.32 150.56C548.187 151.04 549.867 151.76 551.36 152.72C552.907 153.627 554.134 154.88 555.04 156.48C555.947 158.027 556.4 160.027 556.4 162.48C556.4 165.147 555.574 167.547 553.92 169.68C552.32 171.813 549.92 173.52 546.72 174.8C543.574 176.08 539.654 176.72 534.96 176.72ZM561.27 188.56L567.27 167.76L569.43 176.4C566.764 176.4 564.577 175.627 562.87 174.08C561.164 172.48 560.31 170.347 560.31 167.68C560.31 164.907 561.164 162.72 562.87 161.12C564.63 159.52 566.817 158.72 569.43 158.72C572.044 158.72 574.204 159.547 575.91 161.2C577.617 162.8 578.47 164.96 578.47 167.68C578.47 168.427 578.417 169.173 578.31 169.92C578.204 170.667 577.964 171.573 577.59 172.64C577.217 173.707 576.63 175.12 575.83 176.88L570.79 188.56H561.27ZM630.648 176.72C625.901 176.72 621.688 175.76 618.008 173.84C614.328 171.92 611.421 169.28 609.288 165.92C607.208 162.507 606.168 158.613 606.168 154.24C606.168 149.867 607.208 146 609.288 142.64C611.421 139.28 614.328 136.667 618.008 134.8C621.688 132.88 625.901 131.92 630.648 131.92C635.394 131.92 639.608 132.88 643.288 134.8C647.021 136.667 649.928 139.28 652.008 142.64C654.088 146 655.128 149.867 655.128 154.24C655.128 158.613 654.088 162.507 652.008 165.92C649.928 169.28 647.021 171.92 643.288 173.84C639.608 175.76 635.394 176.72 630.648 176.72ZM630.648 164.64C632.408 164.64 633.954 164.24 635.288 163.44C636.674 162.64 637.768 161.467 638.568 159.92C639.368 158.32 639.768 156.427 639.768 154.24C639.768 152.053 639.368 150.213 638.568 148.72C637.768 147.173 636.674 146 635.288 145.2C633.954 144.4 632.408 144 630.648 144C628.941 144 627.394 144.4 626.008 145.2C624.674 146 623.581 147.173 622.728 148.72C621.928 150.213 621.528 152.053 621.528 154.24C621.528 156.427 621.928 158.32 622.728 159.92C623.581 161.467 624.674 162.64 626.008 163.44C627.394 164.24 628.941 164.64 630.648 164.64ZM662.169 176V132.64H676.649V145.28L674.489 141.68C675.769 138.427 677.849 136 680.729 134.4C683.609 132.747 687.102 131.92 691.209 131.92V145.6C690.516 145.493 689.902 145.44 689.369 145.44C688.889 145.387 688.356 145.36 687.769 145.36C684.676 145.36 682.169 146.213 680.249 147.92C678.329 149.573 677.369 152.293 677.369 156.08V176H662.169ZM743.079 176.72C738.279 176.72 733.986 175.76 730.199 173.84C726.466 171.92 723.532 169.28 721.399 165.92C719.266 162.507 718.199 158.613 718.199 154.24C718.199 149.867 719.266 146 721.399 142.64C723.532 139.28 726.466 136.667 730.199 134.8C733.986 132.88 738.279 131.92 743.079 131.92C747.986 131.92 752.226 132.96 755.799 135.04C759.372 137.12 761.906 140.053 763.399 143.84L751.639 149.84C750.626 147.813 749.372 146.347 747.879 145.44C746.386 144.48 744.759 144 742.999 144C741.239 144 739.639 144.4 738.199 145.2C736.759 146 735.612 147.173 734.759 148.72C733.959 150.213 733.559 152.053 733.559 154.24C733.559 156.48 733.959 158.373 734.759 159.92C735.612 161.467 736.759 162.64 738.199 163.44C739.639 164.24 741.239 164.64 742.999 164.64C744.759 164.64 746.386 164.187 747.879 163.28C749.372 162.32 750.626 160.827 751.639 158.8L763.399 164.8C761.906 168.587 759.372 171.52 755.799 173.6C752.226 175.68 747.986 176.72 743.079 176.72ZM790.413 176.72C785.667 176.72 781.453 175.76 777.773 173.84C774.093 171.92 771.187 169.28 769.053 165.92C766.973 162.507 765.933 158.613 765.933 154.24C765.933 149.867 766.973 146 769.053 142.64C771.187 139.28 774.093 136.667 777.773 134.8C781.453 132.88 785.667 131.92 790.413 131.92C795.16 131.92 799.373 132.88 803.053 134.8C806.787 136.667 809.693 139.28 811.773 142.64C813.853 146 814.893 149.867 814.893 154.24C814.893 158.613 813.853 162.507 811.773 165.92C809.693 169.28 806.787 171.92 803.053 173.84C799.373 175.76 795.16 176.72 790.413 176.72ZM790.413 164.64C792.173 164.64 793.72 164.24 795.053 163.44C796.44 162.64 797.533 161.467 798.333 159.92C799.133 158.32 799.533 156.427 799.533 154.24C799.533 152.053 799.133 150.213 798.333 148.72C797.533 147.173 796.44 146 795.053 145.2C793.72 144.4 792.173 144 790.413 144C788.707 144 787.16 144.4 785.773 145.2C784.44 146 783.347 147.173 782.493 148.72C781.693 150.213 781.293 152.053 781.293 154.24C781.293 156.427 781.693 158.32 782.493 159.92C783.347 161.467 784.44 162.64 785.773 163.44C787.16 164.24 788.707 164.64 790.413 164.64ZM821.935 176V116.64H837.135V176H821.935ZM868.773 176.72C864.026 176.72 859.813 175.76 856.133 173.84C852.453 171.92 849.546 169.28 847.413 165.92C845.333 162.507 844.293 158.613 844.293 154.24C844.293 149.867 845.333 146 847.413 142.64C849.546 139.28 852.453 136.667 856.133 134.8C859.813 132.88 864.026 131.92 868.773 131.92C873.519 131.92 877.733 132.88 881.413 134.8C885.146 136.667 888.053 139.28 890.133 142.64C892.213 146 893.253 149.867 893.253 154.24C893.253 158.613 892.213 162.507 890.133 165.92C888.053 169.28 885.146 171.92 881.413 173.84C877.733 175.76 873.519 176.72 868.773 176.72ZM868.773 164.64C870.533 164.64 872.079 164.24 873.413 163.44C874.799 162.64 875.893 161.467 876.693 159.92C877.493 158.32 877.893 156.427 877.893 154.24C877.893 152.053 877.493 150.213 876.693 148.72C875.893 147.173 874.799 146 873.413 145.2C872.079 144.4 870.533 144 868.773 144C867.066 144 865.519 144.4 864.133 145.2C862.799 146 861.706 147.173 860.853 148.72C860.053 150.213 859.653 152.053 859.653 154.24C859.653 156.427 860.053 158.32 860.853 159.92C861.706 161.467 862.799 162.64 864.133 163.44C865.519 164.24 867.066 164.64 868.773 164.64ZM900.294 176V132.64H914.774V145.28L912.614 141.68C913.894 138.427 915.974 136 918.854 134.4C921.734 132.747 925.227 131.92 929.334 131.92V145.6C928.641 145.493 928.027 145.44 927.494 145.44C927.014 145.387 926.481 145.36 925.894 145.36C922.801 145.36 920.294 146.213 918.374 147.92C916.454 149.573 915.494 152.293 915.494 156.08V176H900.294ZM951.523 176.72C947.843 176.72 944.243 176.293 940.723 175.44C937.256 174.587 934.456 173.52 932.323 172.24L936.883 161.84C938.909 163.067 941.283 164.053 944.003 164.8C946.723 165.493 949.389 165.84 952.003 165.84C954.563 165.84 956.323 165.573 957.283 165.04C958.296 164.507 958.803 163.787 958.803 162.88C958.803 162.027 958.323 161.413 957.363 161.04C956.456 160.613 955.229 160.293 953.683 160.08C952.189 159.867 950.536 159.627 948.723 159.36C946.909 159.093 945.069 158.747 943.203 158.32C941.389 157.84 939.709 157.147 938.163 156.24C936.669 155.28 935.469 154 934.563 152.4C933.656 150.8 933.203 148.773 933.203 146.32C933.203 143.547 934.003 141.093 935.603 138.96C937.256 136.773 939.656 135.067 942.803 133.84C945.949 132.56 949.789 131.92 954.323 131.92C957.363 131.92 960.429 132.24 963.523 132.88C966.669 133.467 969.309 134.373 971.443 135.6L966.883 145.92C964.749 144.693 962.616 143.867 960.483 143.44C958.349 142.96 956.323 142.72 954.403 142.72C951.843 142.72 950.029 143.013 948.963 143.6C947.949 144.187 947.443 144.907 947.443 145.76C947.443 146.613 947.896 147.28 948.803 147.76C949.709 148.187 950.909 148.533 952.403 148.8C953.949 149.013 955.629 149.253 957.443 149.52C959.256 149.733 961.069 150.08 962.883 150.56C964.749 151.04 966.429 151.76 967.923 152.72C969.469 153.627 970.696 154.88 971.603 156.48C972.509 158.027 972.963 160.027 972.963 162.48C972.963 165.147 972.136 167.547 970.483 169.68C968.883 171.813 966.483 173.52 963.283 174.8C960.136 176.08 956.216 176.72 951.523 176.72ZM1022.15 176.72C1016.61 176.72 1012.29 175.36 1009.19 172.64C1006.1 169.867 1004.55 165.707 1004.55 160.16V122.96H1019.75V160C1019.75 161.547 1020.18 162.773 1021.03 163.68C1021.89 164.533 1022.98 164.96 1024.31 164.96C1026.13 164.96 1027.67 164.507 1028.95 163.6L1032.71 174.24C1031.43 175.093 1029.86 175.707 1027.99 176.08C1026.13 176.507 1024.18 176.72 1022.15 176.72ZM998.234 145.6V134.24H1029.67V145.6H998.234ZM1066.82 131.92C1070.18 131.92 1073.22 132.613 1075.94 134C1078.66 135.333 1080.79 137.413 1082.34 140.24C1083.94 143.067 1084.74 146.72 1084.74 151.2V176H1069.54V153.68C1069.54 150.587 1068.9 148.347 1067.62 146.96C1066.39 145.52 1064.66 144.8 1062.42 144.8C1060.82 144.8 1059.35 145.173 1058.02 145.92C1056.68 146.613 1055.64 147.707 1054.9 149.2C1054.15 150.693 1053.78 152.64 1053.78 155.04V176H1038.58V116.64H1053.78V144.96L1050.26 141.36C1051.91 138.213 1054.18 135.867 1057.06 134.32C1059.94 132.72 1063.19 131.92 1066.82 131.92ZM1120.76 176V167.92L1119.72 165.92V151.04C1119.72 148.64 1118.97 146.8 1117.48 145.52C1116.04 144.187 1113.72 143.52 1110.52 143.52C1108.44 143.52 1106.33 143.867 1104.2 144.56C1102.07 145.2 1100.25 146.107 1098.76 147.28L1093.64 136.96C1096.09 135.36 1099.03 134.133 1102.44 133.28C1105.91 132.373 1109.35 131.92 1112.76 131.92C1119.8 131.92 1125.24 133.547 1129.08 136.8C1132.97 140 1134.92 145.04 1134.92 151.92V176H1120.76ZM1107.96 176.72C1104.49 176.72 1101.56 176.133 1099.16 174.96C1096.76 173.787 1094.92 172.187 1093.64 170.16C1092.41 168.133 1091.8 165.867 1091.8 163.36C1091.8 160.693 1092.47 158.4 1093.8 156.48C1095.19 154.507 1097.29 153.013 1100.12 152C1102.95 150.933 1106.6 150.4 1111.08 150.4H1121.32V158.32H1113.16C1110.71 158.32 1108.97 158.72 1107.96 159.52C1107 160.32 1106.52 161.387 1106.52 162.72C1106.52 164.053 1107.03 165.12 1108.04 165.92C1109.05 166.72 1110.44 167.12 1112.2 167.12C1113.85 167.12 1115.35 166.72 1116.68 165.92C1118.07 165.067 1119.08 163.787 1119.72 162.08L1121.8 167.68C1121 170.667 1119.43 172.933 1117.08 174.48C1114.79 175.973 1111.75 176.72 1107.96 176.72ZM1163.87 176.72C1158.33 176.72 1154.01 175.36 1150.91 172.64C1147.82 169.867 1146.27 165.707 1146.27 160.16V122.96H1161.47V160C1161.47 161.547 1161.9 162.773 1162.75 163.68C1163.61 164.533 1164.7 164.96 1166.03 164.96C1167.85 164.96 1169.39 164.507 1170.67 163.6L1174.43 174.24C1173.15 175.093 1171.58 175.707 1169.71 176.08C1167.85 176.507 1165.9 176.72 1163.87 176.72ZM1139.95 145.6V134.24H1171.39V145.6H1139.95ZM310.29 229.92C313.65 229.92 316.636 230.613 319.25 232C321.916 233.333 323.996 235.413 325.49 238.24C327.036 241.067 327.81 244.72 327.81 249.2V274H312.61V251.68C312.61 248.587 312.023 246.347 310.85 244.96C309.676 243.52 308.076 242.8 306.05 242.8C304.61 242.8 303.303 243.147 302.13 243.84C300.956 244.533 300.05 245.6 299.41 247.04C298.77 248.427 298.45 250.24 298.45 252.48V274H283.25V251.68C283.25 248.587 282.663 246.347 281.49 244.96C280.37 243.52 278.77 242.8 276.69 242.8C275.196 242.8 273.863 243.147 272.69 243.84C271.57 244.533 270.663 245.6 269.97 247.04C269.33 248.427 269.01 250.24 269.01 252.48V274H253.81V230.64H268.29V242.72L265.41 239.28C267.01 236.187 269.196 233.867 271.97 232.32C274.743 230.72 277.836 229.92 281.25 229.92C285.143 229.92 288.556 230.933 291.49 232.96C294.476 234.933 296.476 238.027 297.49 242.24L292.53 241.2C294.076 237.68 296.396 234.933 299.49 232.96C302.636 230.933 306.236 229.92 310.29 229.92ZM363.883 274V265.92L362.843 263.92V249.04C362.843 246.64 362.097 244.8 360.603 243.52C359.163 242.187 356.843 241.52 353.643 241.52C351.563 241.52 349.457 241.867 347.323 242.56C345.19 243.2 343.377 244.107 341.883 245.28L336.763 234.96C339.217 233.36 342.15 232.133 345.563 231.28C349.03 230.373 352.47 229.92 355.883 229.92C362.923 229.92 368.363 231.547 372.203 234.8C376.097 238 378.043 243.04 378.043 249.92V274H363.883ZM351.083 274.72C347.617 274.72 344.683 274.133 342.283 272.96C339.883 271.787 338.043 270.187 336.763 268.16C335.537 266.133 334.923 263.867 334.923 261.36C334.923 258.693 335.59 256.4 336.923 254.48C338.31 252.507 340.417 251.013 343.243 250C346.07 248.933 349.723 248.4 354.203 248.4H364.443V256.32H356.283C353.83 256.32 352.097 256.72 351.083 257.52C350.123 258.32 349.643 259.387 349.643 260.72C349.643 262.053 350.15 263.12 351.163 263.92C352.177 264.72 353.563 265.12 355.323 265.12C356.977 265.12 358.47 264.72 359.803 263.92C361.19 263.067 362.203 261.787 362.843 260.08L364.923 265.68C364.123 268.667 362.55 270.933 360.203 272.48C357.91 273.973 354.87 274.72 351.083 274.72ZM406.998 274.72C401.451 274.72 397.131 273.36 394.038 270.64C390.944 267.867 389.398 263.707 389.398 258.16V220.96H404.598V258C404.598 259.547 405.024 260.773 405.878 261.68C406.731 262.533 407.824 262.96 409.158 262.96C410.971 262.96 412.518 262.507 413.798 261.6L417.558 272.24C416.278 273.093 414.704 273.707 412.838 274.08C410.971 274.507 409.024 274.72 406.998 274.72ZM383.078 243.6V232.24H414.518V243.6H383.078ZM444.329 274.72C439.529 274.72 435.236 273.76 431.449 271.84C427.716 269.92 424.782 267.28 422.649 263.92C420.516 260.507 419.449 256.613 419.449 252.24C419.449 247.867 420.516 244 422.649 240.64C424.782 237.28 427.716 234.667 431.449 232.8C435.236 230.88 439.529 229.92 444.329 229.92C449.236 229.92 453.476 230.96 457.049 233.04C460.622 235.12 463.156 238.053 464.649 241.84L452.889 247.84C451.876 245.813 450.622 244.347 449.129 243.44C447.636 242.48 446.009 242 444.249 242C442.489 242 440.889 242.4 439.449 243.2C438.009 244 436.862 245.173 436.009 246.72C435.209 248.213 434.809 250.053 434.809 252.24C434.809 254.48 435.209 256.373 436.009 257.92C436.862 259.467 438.009 260.64 439.449 261.44C440.889 262.24 442.489 262.64 444.249 262.64C446.009 262.64 447.636 262.187 449.129 261.28C450.622 260.32 451.876 258.827 452.889 256.8L464.649 262.8C463.156 266.587 460.622 269.52 457.049 271.6C453.476 273.68 449.236 274.72 444.329 274.72ZM498.456 229.92C501.816 229.92 504.856 230.613 507.576 232C510.296 233.333 512.429 235.413 513.976 238.24C515.576 241.067 516.376 244.72 516.376 249.2V274H501.176V251.68C501.176 248.587 500.536 246.347 499.256 244.96C498.029 243.52 496.296 242.8 494.056 242.8C492.456 242.8 490.989 243.173 489.656 243.92C488.323 244.613 487.283 245.707 486.536 247.2C485.789 248.693 485.416 250.64 485.416 253.04V274H470.216V214.64H485.416V242.96L481.896 239.36C483.549 236.213 485.816 233.867 488.696 232.32C491.576 230.72 494.829 229.92 498.456 229.92ZM556.64 290.24C554.347 290.24 552.027 289.867 549.68 289.12C547.387 288.427 545.52 287.493 544.08 286.32L549.36 275.68C550.267 276.48 551.307 277.093 552.48 277.52C553.707 278 554.907 278.24 556.08 278.24C557.734 278.24 559.04 277.867 560 277.12C560.96 276.373 561.787 275.2 562.48 273.6L564.48 268.56L565.68 267.04L580.4 230.64H594.88L576.16 275.76C574.667 279.493 572.934 282.4 570.96 284.48C569.04 286.613 566.88 288.107 564.48 288.96C562.134 289.813 559.52 290.24 556.64 290.24ZM562.56 275.84L543.44 230.64H559.04L573.12 265.68L562.56 275.84ZM619.398 274.72C614.651 274.72 610.438 273.76 606.758 271.84C603.078 269.92 600.171 267.28 598.038 263.92C595.958 260.507 594.918 256.613 594.918 252.24C594.918 247.867 595.958 244 598.038 240.64C600.171 237.28 603.078 234.667 606.758 232.8C610.438 230.88 614.651 229.92 619.398 229.92C624.144 229.92 628.358 230.88 632.038 232.8C635.771 234.667 638.678 237.28 640.758 240.64C642.838 244 643.878 247.867 643.878 252.24C643.878 256.613 642.838 260.507 640.758 263.92C638.678 267.28 635.771 269.92 632.038 271.84C628.358 273.76 624.144 274.72 619.398 274.72ZM619.398 262.64C621.158 262.64 622.704 262.24 624.038 261.44C625.424 260.64 626.518 259.467 627.318 257.92C628.118 256.32 628.518 254.427 628.518 252.24C628.518 250.053 628.118 248.213 627.318 246.72C626.518 245.173 625.424 244 624.038 243.2C622.704 242.4 621.158 242 619.398 242C617.691 242 616.144 242.4 614.758 243.2C613.424 244 612.331 245.173 611.478 246.72C610.678 248.213 610.278 250.053 610.278 252.24C610.278 254.427 610.678 256.32 611.478 257.92C612.331 259.467 613.424 260.64 614.758 261.44C616.144 262.24 617.691 262.64 619.398 262.64ZM669.159 274.72C665.639 274.72 662.466 274.027 659.639 272.64C656.866 271.253 654.679 269.093 653.079 266.16C651.532 263.173 650.759 259.413 650.759 254.88V230.64H665.959V252.4C665.959 255.76 666.572 258.16 667.799 259.6C669.079 261.04 670.866 261.76 673.159 261.76C674.652 261.76 676.012 261.413 677.239 260.72C678.466 260.027 679.452 258.933 680.199 257.44C680.946 255.893 681.319 253.92 681.319 251.52V230.64H696.519V274H682.039V261.76L684.839 265.2C683.346 268.4 681.186 270.8 678.359 272.4C675.532 273.947 672.466 274.72 669.159 274.72ZM706.31 274V230.64H720.79V243.28L718.63 239.68C719.91 236.427 721.99 234 724.87 232.4C727.75 230.747 731.243 229.92 735.35 229.92V243.6C734.656 243.493 734.043 243.44 733.51 243.44C733.03 243.387 732.496 243.36 731.91 243.36C728.816 243.36 726.31 244.213 724.39 245.92C722.47 247.573 721.51 250.293 721.51 254.08V274H706.31ZM775.38 274L759.94 230.64H774.34L786.58 266.88H779.7L792.42 230.64H805.38L817.62 266.88H810.9L823.54 230.64H836.9L821.46 274H806.74L796.34 244H800.82L790.1 274H775.38ZM866.54 274V265.92L865.5 263.92V249.04C865.5 246.64 864.753 244.8 863.26 243.52C861.82 242.187 859.5 241.52 856.3 241.52C854.22 241.52 852.113 241.867 849.98 242.56C847.846 243.2 846.033 244.107 844.54 245.28L839.42 234.96C841.873 233.36 844.806 232.133 848.22 231.28C851.686 230.373 855.126 229.92 858.54 229.92C865.58 229.92 871.02 231.547 874.86 234.8C878.753 238 880.7 243.04 880.7 249.92V274H866.54ZM853.74 274.72C850.273 274.72 847.34 274.133 844.94 272.96C842.54 271.787 840.7 270.187 839.42 268.16C838.193 266.133 837.58 263.867 837.58 261.36C837.58 258.693 838.246 256.4 839.58 254.48C840.966 252.507 843.073 251.013 845.9 250C848.726 248.933 852.38 248.4 856.86 248.4H867.1V256.32H858.94C856.486 256.32 854.753 256.72 853.74 257.52C852.78 258.32 852.3 259.387 852.3 260.72C852.3 262.053 852.806 263.12 853.82 263.92C854.833 264.72 856.22 265.12 857.98 265.12C859.633 265.12 861.126 264.72 862.46 263.92C863.846 263.067 864.86 261.787 865.5 260.08L867.58 265.68C866.78 268.667 865.206 270.933 862.86 272.48C860.566 273.973 857.526 274.72 853.74 274.72ZM890.294 274V214.64H905.494V274H890.294ZM915.372 274V214.64H930.572V274H915.372ZM956.21 274.72C952.53 274.72 948.93 274.293 945.41 273.44C941.944 272.587 939.144 271.52 937.01 270.24L941.57 259.84C943.597 261.067 945.97 262.053 948.69 262.8C951.41 263.493 954.077 263.84 956.69 263.84C959.25 263.84 961.01 263.573 961.97 263.04C962.984 262.507 963.49 261.787 963.49 260.88C963.49 260.027 963.01 259.413 962.05 259.04C961.144 258.613 959.917 258.293 958.37 258.08C956.877 257.867 955.224 257.627 953.41 257.36C951.597 257.093 949.757 256.747 947.89 256.32C946.077 255.84 944.397 255.147 942.85 254.24C941.357 253.28 940.157 252 939.25 250.4C938.344 248.8 937.89 246.773 937.89 244.32C937.89 241.547 938.69 239.093 940.29 236.96C941.944 234.773 944.344 233.067 947.49 231.84C950.637 230.56 954.477 229.92 959.01 229.92C962.05 229.92 965.117 230.24 968.21 230.88C971.357 231.467 973.997 232.373 976.13 233.6L971.57 243.92C969.437 242.693 967.304 241.867 965.17 241.44C963.037 240.96 961.01 240.72 959.09 240.72C956.53 240.72 954.717 241.013 953.65 241.6C952.637 242.187 952.13 242.907 952.13 243.76C952.13 244.613 952.584 245.28 953.49 245.76C954.397 246.187 955.597 246.533 957.09 246.8C958.637 247.013 960.317 247.253 962.13 247.52C963.944 247.733 965.757 248.08 967.57 248.56C969.437 249.04 971.117 249.76 972.61 250.72C974.157 251.627 975.384 252.88 976.29 254.48C977.197 256.027 977.65 258.027 977.65 260.48C977.65 263.147 976.824 265.547 975.17 267.68C973.57 269.813 971.17 271.52 967.97 272.8C964.824 274.08 960.904 274.72 956.21 274.72Z" fill="black"/>
</svg>
