<svg width="268" height="210" viewBox="0 0 268 210" fill="none" xmlns="http://www.w3.org/2000/svg">
<path d="M123.785 209.545C120.352 188.683 140.021 170.223 160.536 165.111C181.051 159.999 202.597 163.872 223.737 163.514C235.354 163.318 248.526 160.888 254.72 151.057C259.637 143.253 258.552 133.242 257.294 124.105C253.643 97.5946 249.992 71.0846 246.341 44.5756C244.796 33.3606 242.333 20.6716 232.676 14.7616C226.027 10.6916 217.685 11.0286 209.903 11.4976C157.102 14.6736 104.301 17.8496 51.5015 21.0246C38.3935 21.8126 24.3235 22.9626 14.1835 31.3056C5.87749 38.1396 1.5955 48.9096 0.412495 59.6006C-0.770505 70.2916 0.810486 81.0746 2.38749 91.7146C6.52349 119.623 12.3085 150.434 34.7955 167.474C57.5535 184.719 89.2065 181.659 117.496 177.784C120.077 188.06 122.657 198.336 125.237 208.612L123.785 209.545Z" fill="#F4E3FF"/>
<path d="M8.80747 103.821C13.7275 127.788 23.3085 152.752 46.1235 164.882C68.8575 176.969 96.1445 174.251 120.804 170.941C122.705 178.511 124.606 186.081 126.508 193.651C126.324 195.833 126.356 198.073 126.622 200.364C126.567 200.588 126.592 200.799 126.69 200.991C126.698 201.05 126.701 201.108 126.709 201.167C126.94 202.816 129.495 202.765 131.138 201.792C131.266 201.734 131.392 201.674 131.507 201.6C131.991 201.289 132.475 200.979 132.959 200.668C133.598 200.258 134.146 199.44 133.949 198.654C133.427 196.576 132.905 194.498 132.383 192.42C133.365 183.029 138.763 174.617 146.143 168.438C156.561 159.716 169.213 156.376 182.563 155.55C196.89 154.663 211.221 156.367 225.548 156.391C235.831 156.408 246.938 155.552 255.787 149.744C265.279 143.513 267.692 133.134 266.924 122.358C265.898 107.96 263.167 93.5283 261.198 79.2323C259.15 64.3613 257.157 49.4814 255.054 34.6184C253.657 24.7464 251.781 13.5483 244.031 6.48234C234.854 -1.88466 221.407 -0.0166384 210.056 0.666362C194.876 1.57936 179.695 2.49234 164.515 3.40534C134.155 5.23134 103.794 7.05734 73.4345 8.88334C50.9745 10.2343 22.4435 8.86334 9.45248 31.1763C3.26748 41.7993 2.30848 54.3494 3.21548 66.3564C4.15948 78.8684 6.28447 91.5294 8.80747 103.821ZM10.1775 44.0804C13.1265 31.0964 21.2695 20.8643 34.2565 17.0213C45.9775 13.5523 58.8015 13.7744 70.9055 13.0454C99.2855 11.3384 127.666 9.63136 156.046 7.92436C169.906 7.09036 183.766 6.25735 197.627 5.42335C204.125 5.03235 210.622 4.58334 217.123 4.25434C224.269 3.89334 232.022 3.80135 237.975 8.41835C246.738 15.2153 248.123 27.9383 249.534 38.1373C251.411 51.7143 253.274 65.2933 255.144 78.8713C257.022 92.5043 259.178 106.133 260.743 119.805C262.24 132.888 259.797 145.53 245.904 150.066C232.806 154.343 217.838 152.086 204.355 151.534C190.618 150.971 176.334 150.74 163.053 154.84C149.404 159.053 135.819 168.801 129.718 181.799C128.548 177.141 127.378 172.482 126.208 167.824C125.949 166.792 124.483 166.471 123.588 166.593C101.318 169.623 76.9145 172.764 55.5185 163.927C34.3005 155.163 23.1135 135.057 17.3405 113.856C14.6015 103.797 12.8635 93.5013 11.3155 83.2023C9.37947 70.3223 7.24747 56.9814 10.1775 44.0804Z" fill="black"/>
<path d="M51.6919 112V68.56H34.4919V56H84.6519V68.56H67.5319V112H51.6919ZM89.8331 112V68.64H105.033V112H89.8331ZM97.4331 63.84C94.6598 63.84 92.4198 63.0667 90.7131 61.52C89.0065 59.9733 88.1531 58.0533 88.1531 55.76C88.1531 53.4667 89.0065 51.5467 90.7131 50C92.4198 48.4533 94.6598 47.68 97.4331 47.68C100.206 47.68 102.446 48.4267 104.153 49.92C105.86 51.36 106.713 53.2267 106.713 55.52C106.713 57.92 105.86 59.92 104.153 61.52C102.5 63.0667 100.26 63.84 97.4331 63.84ZM142.191 112.72C138.511 112.72 135.365 111.92 132.751 110.32C130.138 108.667 128.138 106.213 126.751 102.96C125.418 99.6533 124.751 95.44 124.751 90.32C124.751 85.1467 125.391 80.9333 126.671 77.68C127.951 74.3733 129.871 71.92 132.431 70.32C135.045 68.72 138.298 67.92 142.191 67.92C146.138 67.92 149.711 68.8533 152.911 70.72C156.165 72.5333 158.725 75.12 160.591 78.48C162.511 81.7867 163.471 85.7333 163.471 90.32C163.471 94.9067 162.511 98.88 160.591 102.24C158.725 105.6 156.165 108.187 152.911 110C149.711 111.813 146.138 112.72 142.191 112.72ZM114.911 127.52V68.64H129.391V76L129.311 90.32L130.111 104.72V127.52H114.911ZM138.991 100.64C140.698 100.64 142.218 100.24 143.551 99.44C144.938 98.64 146.031 97.4667 146.831 95.92C147.685 94.3733 148.111 92.5067 148.111 90.32C148.111 88.1333 147.685 86.2667 146.831 84.72C146.031 83.1733 144.938 82 143.551 81.2C142.218 80.4 140.698 80 138.991 80C137.285 80 135.738 80.4 134.351 81.2C133.018 82 131.925 83.1733 131.071 84.72C130.271 86.2667 129.871 88.1333 129.871 90.32C129.871 92.5067 130.271 94.3733 131.071 95.92C131.925 97.4667 133.018 98.64 134.351 99.44C135.738 100.24 137.285 100.64 138.991 100.64ZM191.338 112V102.08L212.298 82.48C213.791 81.0933 214.884 79.8667 215.578 78.8C216.324 77.7333 216.804 76.7733 217.018 75.92C217.284 75.0133 217.418 74.1867 217.418 73.44C217.418 71.6267 216.804 70.2133 215.578 69.2C214.404 68.1867 212.618 67.68 210.218 67.68C208.191 67.68 206.298 68.1333 204.538 69.04C202.778 69.9467 201.338 71.3067 200.218 73.12L188.457 66.56C190.537 63.04 193.551 60.2133 197.498 58.08C201.444 55.9467 206.164 54.88 211.658 54.88C215.978 54.88 219.764 55.5733 223.018 56.96C226.271 58.3467 228.804 60.32 230.618 62.88C232.484 65.44 233.418 68.4533 233.418 71.92C233.418 73.7333 233.178 75.5467 232.698 77.36C232.218 79.12 231.284 81.0133 229.898 83.04C228.564 85.0133 226.564 87.2267 223.898 89.68L207.258 105.04L204.618 99.44H234.938V112H191.338Z" fill="black"/>
</svg>
