<svg width="660" height="866" viewBox="0 0 660 866" fill="none" xmlns="http://www.w3.org/2000/svg">
<path d="M280.325 682.769C280.173 687.73 276.079 691.658 271.115 691.612L171.009 690.613C151.291 690.613 134.426 677.741 130.972 658.144L112.306 552.239C110.081 539.622 119.693 528.039 132.389 528.039H192.179C198.601 528.039 203.954 532.958 204.498 539.357L211.433 620.923C215.693 643.47 241.79 651.002 270.877 657.652C276.773 659.001 280.892 664.341 280.708 670.39L280.325 682.769L280.325 682.769Z" fill="white"/>
<path d="M132.388 528.839C126.616 528.839 121.166 531.389 117.435 535.836C113.648 540.348 112.064 546.276 113.091 552.101L131.758 658.006C135.059 676.735 151.199 689.816 171.008 689.816L271.124 690.811H271.206C275.664 690.811 279.386 687.21 279.524 682.744L279.906 670.364C280.083 664.709 276.209 659.691 270.696 658.431C240.396 651.504 214.963 643.908 210.647 621.072C210.642 621.047 210.638 621.019 210.636 620.994L203.701 539.423C203.188 533.389 198.234 528.839 192.178 528.839H132.388V528.839ZM271.206 692.408H271.107L171 691.413C150.41 691.413 133.623 677.79 130.185 658.286L111.518 552.377C110.409 546.088 112.12 539.686 116.212 534.81C120.247 530.001 126.143 527.242 132.388 527.242H192.178C199.071 527.242 204.709 532.419 205.293 539.289L212.224 620.817C216.383 642.673 241.329 650.077 271.053 656.873C277.307 658.303 281.702 663.998 281.503 670.414L281.121 682.794C280.958 688.117 276.517 692.408 271.206 692.408L271.206 692.408Z" fill="black"/>
<path d="M213.408 821.193H195.469V690.426L213.408 691.109V821.193Z" fill="white"/>
<path d="M196.27 820.394H212.611V691.879L196.27 691.256V820.394ZM213.41 821.991H195.471C195.03 821.991 194.672 821.634 194.672 821.195V690.427C194.672 690.211 194.76 690.002 194.917 689.85C195.073 689.701 195.288 689.616 195.501 689.63L213.44 690.314C213.869 690.328 214.208 690.682 214.208 691.111V821.195C214.208 821.634 213.851 821.991 213.41 821.991Z" fill="black"/>
<path d="M249.488 799.316H163.421C152.315 799.316 143.312 808.318 143.312 819.427V822.111H269.598V819.427C269.598 808.318 260.593 799.316 249.488 799.316Z" fill="white"/>
<path d="M144.113 821.31H268.8V819.423C268.8 808.778 260.138 800.116 249.49 800.116H163.423C152.776 800.116 144.113 808.778 144.113 819.423L144.113 821.31ZM269.6 822.907H143.314C142.874 822.907 142.516 822.553 142.516 822.11V819.423C142.516 807.896 151.895 798.516 163.423 798.516H249.49C261.02 798.516 270.397 807.896 270.397 819.423V822.11C270.397 822.553 270.039 822.907 269.6 822.907Z" fill="black"/>
<path d="M297.423 632.172H9.77297C4.41383 632.172 0.249104 637.207 0.85566 642.958L20.719 831.237H35.0617L22.628 654.531C22.4088 651.418 24.69 648.762 27.5824 648.762H274.505C278.832 648.762 282.246 652.735 281.917 657.395L269.608 832.346H283.949L304.151 640.306C304.605 635.971 301.464 632.172 297.423 632.172Z" fill="white"/>
<path d="M270.466 831.545H283.232L303.356 640.22C303.565 638.262 302.953 636.329 301.685 634.919C300.552 633.662 299.04 632.972 297.425 632.972H9.77449C7.55742 632.972 5.48296 633.917 3.93339 635.642C2.20143 637.564 1.36956 640.199 1.65181 642.873L21.4397 830.44H34.2058L21.8327 654.587C21.7066 652.799 22.314 651.046 23.4981 649.774C24.5874 648.606 26.0382 647.961 27.5839 647.961H274.506C276.705 647.961 278.773 648.879 280.328 650.546C282.024 652.366 282.895 654.884 282.715 657.448L270.466 831.545H270.466ZM283.951 833.142H269.609C269.386 833.142 269.174 833.05 269.025 832.887C268.873 832.728 268.795 832.508 268.812 832.288L281.121 657.338C281.27 655.213 280.555 653.135 279.16 651.637C277.91 650.298 276.259 649.558 274.507 649.558H27.584C26.4867 649.558 25.4508 650.022 24.6665 650.861C23.7836 651.81 23.3315 653.128 23.4264 654.473L35.8597 831.184C35.8752 831.403 35.7981 831.619 35.6472 831.782C35.4964 831.945 35.2846 832.037 35.0629 832.037H20.7206C20.312 832.037 19.9692 831.729 19.9263 831.322L0.0626288 643.039C-0.266358 639.919 0.711337 636.831 2.74645 634.572C4.60274 632.508 7.09883 631.371 9.77457 631.371H297.425C299.5 631.371 301.434 632.253 302.871 633.85C304.443 635.596 305.201 637.979 304.946 640.39L284.744 832.427C284.702 832.834 284.358 833.142 283.951 833.142L283.951 833.142Z" fill="black"/>
<path d="M129.281 599.496C126.838 594.418 126.605 589.297 129.281 584.123L127.36 581.797L63.9062 583.543L65.7172 600.406L127.489 600.997L129.281 599.496Z" fill="white"/>
<path d="M66.4369 599.612L127.204 600.193L128.3 599.28C125.985 594.117 125.997 589.06 128.336 584.233L126.994 582.604L64.7946 584.318L66.437 599.612L66.4369 599.612ZM127.491 601.797H127.483L65.7106 601.202C65.3055 601.199 64.9677 600.894 64.9245 600.491L63.1139 583.628C63.0902 583.405 63.16 583.185 63.3066 583.015C63.4532 582.849 63.6632 582.75 63.8863 582.743L127.34 580.997C127.584 580.986 127.821 581.096 127.978 581.287L129.899 583.617C130.102 583.861 130.139 584.209 129.992 584.492C127.537 589.237 127.541 594.032 130.003 599.152C130.161 599.481 130.076 599.875 129.795 600.108L128.003 601.61C127.86 601.73 127.678 601.797 127.491 601.797Z" fill="black"/>
<path d="M22.5597 579.941H130.982C132.122 579.941 133.046 580.873 133.046 582.024C133.046 583.178 132.122 584.109 130.982 584.109H75.2342C71.9516 584.109 69.2911 586.797 69.2911 590.115V593.493C69.2911 596.808 71.9516 599.496 75.2342 599.496H130.982C132.122 599.496 133.046 600.431 133.046 601.581C133.046 602.732 132.122 603.667 130.982 603.667H22.5597C16.5079 603.667 11.6016 598.71 11.6016 592.594V591.015C11.6016 584.899 16.5078 579.941 22.5597 579.941Z" fill="black"/>
<path d="M123.834 628.638H24.8438V606.105H123.834C121.234 613.471 121.163 621.471 123.834 628.638Z" fill="white"/>
<path d="M25.6446 627.841H122.708C120.507 621.208 120.513 613.857 122.725 606.906H25.6446V627.841ZM123.836 629.438H24.8458C24.4045 629.438 24.0469 629.08 24.0469 628.638V606.105C24.0469 605.663 24.4045 605.309 24.8458 605.309H123.836C124.095 605.309 124.338 605.433 124.488 605.645C124.638 605.858 124.675 606.127 124.589 606.371C122.017 613.659 122.015 621.467 124.584 628.358C124.676 628.606 124.641 628.879 124.492 629.094C124.343 629.31 124.098 629.438 123.836 629.438Z" fill="black"/>
<path d="M115.014 614.8H40.0798C39.6389 614.8 39.2812 614.443 39.2812 614C39.2812 613.561 39.6389 613.203 40.0798 613.203H115.014C115.455 613.203 115.813 613.561 115.813 614C115.813 614.442 115.455 614.8 115.014 614.8Z" fill="black"/>
<path d="M101.648 621.101H40.0798C39.6389 621.101 39.2812 620.743 39.2812 620.301C39.2812 619.858 39.6389 619.504 40.0798 619.504H101.648C102.089 619.504 102.447 619.858 102.447 620.301C102.447 620.743 102.089 621.101 101.648 621.101Z" fill="black"/>
<path d="M36.1704 607.181H125.164C126.103 607.181 126.864 606.412 126.864 605.464C126.864 604.514 126.103 603.746 125.164 603.746H12.9317C8.80554 603.746 5.46094 607.124 5.46094 611.296V623.162C5.46094 627.33 8.80554 630.712 12.9317 630.712H125.164C126.103 630.712 126.864 629.94 126.864 628.994C126.864 628.045 126.103 627.273 125.164 627.273H36.1704C33.2553 627.273 30.8927 624.887 30.8927 621.94V612.514C30.8927 609.568 33.2553 607.181 36.1704 607.181Z" fill="white"/>
<path d="M12.9337 604.542C9.25483 604.542 6.26183 607.57 6.26183 611.292V623.162C6.26183 626.883 9.25483 629.911 12.9337 629.911H125.167C125.663 629.911 126.068 629.5 126.068 628.99C126.068 628.484 125.663 628.073 125.167 628.073H36.1724C32.8214 628.073 30.0955 625.322 30.0955 621.94V612.513C30.0955 609.132 32.8214 606.38 36.1724 606.38H125.167C125.663 606.38 126.068 605.969 126.068 605.463C126.068 604.957 125.663 604.542 125.167 604.542L12.9337 604.542ZM125.167 631.508H12.9337C8.37376 631.508 4.66406 627.765 4.66406 623.162V611.292C4.66406 606.692 8.37376 602.945 12.9337 602.945H125.167C126.544 602.945 127.665 604.075 127.665 605.463C127.665 606.851 126.544 607.981 125.167 607.981H36.1724C33.7028 607.981 31.6932 610.013 31.6932 612.514V621.94C31.6932 624.44 33.7028 626.476 36.1724 626.476H125.167C126.544 626.476 127.665 627.606 127.665 628.99C127.665 630.379 126.544 631.508 125.167 631.508Z" fill="black"/>
<path d="M122.235 589.765H76.4942C76.0529 589.765 75.6953 589.407 75.6953 588.964C75.6953 588.522 76.0529 588.164 76.4942 588.164H122.235C122.676 588.164 123.033 588.522 123.033 588.964C123.033 589.407 122.676 589.765 122.235 589.765Z" fill="black"/>
<path d="M185.722 304.194C185.426 304.194 185.142 304.03 185.003 303.746C184.809 303.349 184.974 302.871 185.37 302.678C235.881 277.995 282.891 275.718 313.437 278.149C346.543 280.787 368.013 289.389 368.225 289.476C368.633 289.642 368.827 290.109 368.664 290.517C368.498 290.926 368.031 291.119 367.623 290.957C367.411 290.871 346.125 282.348 313.246 279.736C282.916 277.332 236.232 279.601 186.072 304.113C185.959 304.168 185.839 304.194 185.722 304.194Z" fill="black"/>
<path d="M410.622 289.095C410.466 289.095 410.31 289.05 410.172 288.955C356.609 252.105 291.696 261.756 291.048 261.861C290.613 261.922 290.202 261.631 290.135 261.195C290.067 260.759 290.365 260.35 290.8 260.282C290.963 260.257 307.472 257.732 330.422 259.838C351.612 261.783 382.803 268.186 411.075 287.638C411.44 287.888 411.532 288.385 411.28 288.749C411.128 288.974 410.877 289.095 410.622 289.095H410.622Z" fill="black"/>
<path d="M625.126 595.583C625.019 595.583 624.909 595.559 624.803 595.513C624.4 595.336 624.219 594.865 624.396 594.461L626.9 588.792C627.077 588.388 627.548 588.207 627.955 588.384C628.355 588.561 628.539 589.032 628.362 589.436L625.859 595.105C625.724 595.403 625.433 595.583 625.126 595.583Z" fill="black"/>
<path d="M619.291 608.783C619.181 608.783 619.075 608.762 618.968 608.716C618.565 608.539 618.381 608.068 618.562 607.661L621.065 601.995C621.242 601.591 621.713 601.41 622.117 601.587C622.52 601.764 622.704 602.235 622.527 602.639L620.021 608.309C619.89 608.606 619.599 608.783 619.291 608.783L619.291 608.783Z" fill="black"/>
<path d="M619.685 597.687C619.579 597.687 619.469 597.662 619.363 597.616L613.694 595.113C613.29 594.936 613.11 594.465 613.287 594.061C613.464 593.657 613.934 593.477 614.342 593.654L620.008 596.157C620.412 596.334 620.596 596.805 620.419 597.209C620.284 597.507 619.994 597.687 619.685 597.687H619.685Z" fill="black"/>
<path d="M632.897 603.519C632.787 603.519 632.681 603.494 632.575 603.452L626.905 600.945C626.501 600.768 626.321 600.297 626.498 599.893C626.675 599.489 627.146 599.309 627.55 599.486L633.219 601.989C633.623 602.166 633.807 602.637 633.626 603.041C633.495 603.339 633.205 603.519 632.897 603.519Z" fill="black"/>
<path d="M30.7598 477.009C30.3186 477.009 29.9609 476.652 29.9609 476.21V470.014C29.9609 469.572 30.3186 469.215 30.7598 469.215C31.2007 469.215 31.5587 469.572 31.5587 470.014V476.21C31.5587 476.652 31.2007 477.009 30.7598 477.009Z" fill="black"/>
<path d="M30.7598 491.447C30.3186 491.447 29.9609 491.09 29.9609 490.648V484.451C29.9609 484.01 30.3186 483.652 30.7598 483.652C31.2007 483.652 31.5587 484.01 31.5587 484.451V490.648C31.5587 491.09 31.2007 491.447 30.7598 491.447Z" fill="black"/>
<path d="M26.6436 481.129H20.447C20.0057 481.129 19.6484 480.771 19.6484 480.33C19.6484 479.888 20.0057 479.531 20.447 479.531H26.6436C27.0852 479.531 27.4425 479.888 27.4425 480.33C27.4425 480.771 27.0852 481.129 26.6436 481.129Z" fill="black"/>
<path d="M41.0733 481.129H34.877C34.4362 481.129 34.0781 480.771 34.0781 480.33C34.0781 479.888 34.4361 479.531 34.877 479.531H41.0733C41.5145 479.531 41.8722 479.888 41.8722 480.33C41.8722 480.771 41.5145 481.129 41.0733 481.129Z" fill="black"/>
<path d="M86.8623 745.181C87.1081 745.416 87.4213 745.721 87.79 746.104C88.7886 747.139 90.2058 748.724 91.8662 750.914C95.1868 755.293 99.4822 762.091 103.355 771.743C111.077 790.984 117.127 821.593 110.396 867.031H97.3174C97.2794 866.944 97.2323 866.839 97.1787 866.714C97.0043 866.307 96.7492 865.7 96.4297 864.902C95.7903 863.306 94.892 860.944 93.8564 857.892C91.7852 851.787 89.1676 842.919 86.9883 831.88C82.6659 809.984 80.0688 779.552 86.8623 745.181Z" fill="#F4E3FF" stroke="black"/>
<path d="M102.982 862.73H102.938C102.497 862.705 102.16 862.33 102.184 861.887C104.059 827.563 88.5803 754.29 88.4238 753.553C88.3324 753.121 88.6075 752.7 89.0388 752.608C89.4712 752.516 89.8944 752.792 89.9861 753.22C90.1437 753.96 105.666 827.439 103.779 861.976C103.756 862.401 103.403 862.73 102.982 862.73Z" fill="black"/>
<path d="M121.633 780.219C121.633 780.219 90.0662 837.249 109.055 861.931H119.212C119.212 861.931 139.511 817.348 121.633 780.219Z" fill="white"/>
<path d="M109.457 861.13H118.692C120.734 856.346 136.989 816.051 121.591 782.007C116.976 790.852 93.1059 839.125 109.457 861.13ZM119.216 862.727H109.059C108.811 862.727 108.577 862.614 108.426 862.415C89.3372 837.606 119.639 782.176 120.938 779.832C121.083 779.57 121.35 779.422 121.66 779.418C121.959 779.429 122.227 779.602 122.357 779.871C140.19 816.908 120.147 861.81 119.943 862.259C119.813 862.546 119.529 862.727 119.216 862.727Z" fill="black"/>
<path d="M113.803 864.242C113.376 864.242 113.022 863.902 113.005 863.473C112.091 839.925 120.76 780.699 120.848 780.104C120.913 779.668 121.322 779.364 121.755 779.431C122.191 779.495 122.493 779.902 122.429 780.338C122.342 780.933 113.693 840.01 114.601 863.409C114.618 863.852 114.275 864.224 113.834 864.242H113.803Z" fill="black"/>
<path d="M61.3672 801.48C61.3672 801.48 88.2576 810.656 97.9943 864.97H87.4176C87.4176 864.97 65.3454 835.139 61.3672 801.48Z" fill="white"/>
<path d="M87.828 864.172H97.0392C88.5858 818.417 67.6303 805.386 62.3377 802.779C66.4323 833.432 85.4893 860.897 87.8279 864.172H87.828ZM97.9964 865.769H87.4197C87.1665 865.769 86.9282 865.649 86.7777 865.444C86.5557 865.146 64.5334 835.057 60.5758 801.572C60.5439 801.299 60.6533 801.03 60.8672 800.857C61.0803 800.687 61.3679 800.633 61.6267 800.722C61.9096 800.821 68.6439 803.19 76.633 812.33C83.9437 820.694 93.7204 836.59 98.7829 864.827C98.8247 865.061 98.761 865.302 98.609 865.482C98.4575 865.663 98.233 865.769 97.9964 865.769Z" fill="black"/>
<path d="M92.2159 864.24C91.8317 864.24 91.4932 863.964 91.4283 863.571C87.4307 839.409 70.1209 815.061 69.9467 814.816C69.6896 814.459 69.7715 813.959 70.1301 813.701C70.4889 813.442 70.987 813.527 71.2445 813.885C71.4212 814.133 88.9449 838.776 93.0048 863.309C93.0764 863.744 92.7821 864.155 92.3469 864.229C92.3026 864.236 92.2591 864.24 92.2159 864.24Z" fill="black"/>
<path d="M71.7457 860.66H138.087L139.575 892.038C139.94 899.733 133.8 906.171 126.098 906.171H88.2088C79.0957 906.171 71.7103 898.777 71.7188 889.666L71.7457 860.66Z" fill="black"/>
<path d="M470.29 286.407C480.396 284.433 488.915 285.332 491.25 285.579C518.43 288.45 540.707 309.515 548.78 334.472L549.154 335.663C559.381 369.302 540.015 397.236 535.516 403.116C535.133 399.7 534.411 395.703 532.959 391.903C531.328 387.636 528.764 383.585 524.698 380.906H524.697C518.033 376.514 510.931 378.19 502.652 380.322C494.328 382.467 484.666 385.13 472.568 383.097C469.084 382.511 445.816 378.216 434.82 358.319C425.57 341.58 428.188 319.55 439.87 304.428C448.529 293.22 460.186 288.381 470.29 286.407Z" fill="#F4E3FF" stroke="black"/>
<path d="M486.64 327.174C493.804 316.735 503.103 312.415 508.146 315.016C513.921 317.994 512.972 329.46 512.806 331.182C511.294 346.694 496.598 355.763 493.563 357.554C491.481 356.981 466.966 349.894 463.878 332.398C462.95 327.141 463.478 318.242 468.361 316.027C472.957 313.942 480.971 317.982 486.64 327.174Z" fill="white"/>
<path d="M113.953 135.272C103.681 134.563 95.6843 131.489 93.493 130.647C67.9825 120.839 51.9167 94.726 50.5774 68.5304L50.5244 67.2828C49.3528 32.1438 75.2885 10.1739 81.1565 5.65806C80.6419 9.05662 80.3047 13.105 80.724 17.1506C81.195 21.6951 82.6228 26.2713 85.857 29.911L85.8579 29.9112C91.1581 35.8783 98.4519 36.0983 107.001 36.181C115.597 36.2641 125.619 36.1927 136.777 41.2874C139.992 42.7551 161.356 52.9258 166.826 74.9904C171.429 93.5537 163.198 114.155 148.001 125.739C136.736 134.323 124.223 135.98 113.953 135.272Z" fill="#F4E3FF" stroke="black"/>
<path d="M108.713 91.663C99.0914 99.8918 88.9909 101.659 84.7934 97.8408C79.9854 93.4693 83.8696 82.6398 84.4761 81.0195C89.9514 66.4274 106.494 61.4711 109.889 60.5265C111.752 61.6189 133.597 74.8096 132.052 92.5081C131.587 97.826 128.774 106.285 123.484 107.161C118.505 107.986 111.81 102.009 108.713 91.663Z" fill="white"/>
<path d="M413.466 709.469L294.798 748.942C294.798 748.942 295.411 757.458 296.569 772.044L278.407 768.581C278.407 768.581 265.588 846.298 267.185 898.219C267.666 913.963 434.447 903.934 441.317 883.041L413.466 709.469Z" fill="black"/>
<path d="M529.192 484.993C528.254 484.811 527.581 483.99 527.602 483.034C527.708 478.069 528.742 463.182 537.092 456.347C547.202 448.076 555.782 429.083 561.909 430.921C568.035 432.759 554.554 449.301 556.087 451.139C557.62 452.977 568.339 442.562 571.711 436.435C575.082 430.308 579.158 418.317 584.051 418.725C590.765 419.284 592.235 429.389 583.35 449.301C574.898 468.249 546.469 473.328 544.267 485.918C544.079 486.988 543.038 487.685 541.972 487.478L529.192 484.993Z" fill="white"/>
<path d="M529.34 484.211L542.12 486.696C542.432 486.757 542.743 486.691 543.005 486.512C543.257 486.338 543.423 486.08 543.476 485.783C544.585 479.45 551.624 475.116 559.773 470.098C568.445 464.757 578.279 458.703 582.617 448.978C588.378 436.067 590.195 426.148 587.599 421.763C586.802 420.41 585.584 419.657 583.98 419.522C580.8 419.27 577.542 426.161 574.932 431.706C574.047 433.583 573.211 435.355 572.407 436.821C569.429 442.235 560.077 451.83 556.812 452.144C556.062 452.22 555.647 451.868 555.47 451.653C554.581 450.588 555.651 448.555 558.158 444.055C560.385 440.052 563.434 434.569 562.57 432.437C562.418 432.063 562.131 431.825 561.674 431.688C558.682 430.785 554.287 436.715 549.645 442.993C546.033 447.877 541.939 453.413 537.594 456.968C529.436 463.642 528.49 478.621 528.394 483.054C528.384 483.615 528.781 484.103 529.34 484.211L529.34 484.211ZM542.35 488.316C542.173 488.316 541.993 488.299 541.812 488.264L529.036 485.78C527.711 485.522 526.769 484.361 526.797 483.02C526.925 477.118 528.132 462.645 536.585 455.731C540.774 452.303 544.804 446.852 548.36 442.043C553.778 434.72 558.055 428.934 562.131 430.158C563.052 430.434 563.714 431.014 564.05 431.837C565.205 434.678 562.202 440.073 559.553 444.832C558.416 446.873 556.894 449.612 556.763 450.557C558.827 450.307 567.801 441.884 571.005 436.052C571.788 434.629 572.613 432.879 573.488 431.025C576.384 424.873 579.66 417.918 583.806 417.918C583.909 417.918 584.012 417.922 584.115 417.931C586.232 418.107 587.911 419.151 588.977 420.95C591.877 425.858 590.138 436.043 584.076 449.628C579.536 459.805 569.483 465.996 560.612 471.457C552.79 476.274 546.033 480.434 545.049 486.058C544.921 486.781 544.517 487.41 543.908 487.828C543.444 488.149 542.903 488.316 542.35 488.316Z" fill="black"/>
<path d="M543.806 483.181L529.582 480.336C526.441 479.708 523.367 481.66 522.602 484.768C518.119 502.991 503.271 560.011 491.911 564.643C478.37 570.156 467.339 556.115 444.275 544.582C431.966 538.431 413.166 536.129 398.304 535.325C385.308 534.621 372.287 535.743 359.592 538.608L319.082 547.758C314.152 548.605 297.594 551.746 279.534 561.689C280.667 563.555 281.723 565.457 282.714 567.348C296.9 594.438 278.217 638.989 275.281 669.464C289.287 689.882 312.045 698.172 303.139 711.961C285.179 739.759 279.708 756.845 279.155 781.764C302.375 764.707 337.549 743.265 384.196 729.416C408.226 722.28 418.623 717.907 435.692 716.037C437.891 715.793 439.477 713.813 439.211 711.618C437.469 697.237 437.037 651.797 434.53 631.425C433.482 622.916 434.877 611.127 429.229 595.73C455.331 619.76 489.659 630.377 515.477 619.799C553.371 604.275 576.261 541.742 543.806 483.181L543.806 483.181Z" fill="#F4E3FF"/>
<path d="M276.102 669.254C281.166 676.57 287.341 682.296 292.798 687.353C302.299 696.156 309.803 703.115 303.804 712.4C286.686 738.895 280.769 755.609 279.99 780.163C311.793 757.025 346.765 739.698 383.965 728.65C389.868 726.901 394.989 725.3 399.511 723.891C413.445 719.539 422.649 716.663 435.599 715.243C436.456 715.151 437.22 714.73 437.752 714.053C438.283 713.388 438.517 712.559 438.414 711.716C437.621 705.158 437.089 692.027 436.53 678.128C435.857 661.485 435.099 642.621 433.732 631.527C433.446 629.179 433.336 626.559 433.226 623.786C432.922 616.353 432.543 607.1 428.477 596.009C428.35 595.662 428.474 595.273 428.782 595.071C429.086 594.866 429.494 594.897 429.766 595.145C456.247 619.53 490.571 629.14 515.172 619.062C531.737 612.274 545.456 596.388 552.803 575.481C562.935 546.649 559.464 513.288 543.281 483.895L529.418 481.122C526.695 480.58 524.035 482.264 523.373 484.962C517.806 507.594 503.624 560.732 492.207 565.382C482.707 569.256 474.48 563.944 463.099 556.596C457.618 553.059 451.41 549.05 443.913 545.3C431.495 539.092 412.231 536.883 398.257 536.125C385.392 535.431 372.442 536.529 359.765 539.39L319.251 548.54C311.644 549.847 296.665 553.314 280.645 561.993C281.559 563.53 282.469 565.17 283.418 566.979C293.436 586.112 287.211 614.158 281.718 638.9C279.296 649.813 277.005 660.129 276.102 669.254H276.102ZM279.151 782.568C279.023 782.568 278.896 782.536 278.783 782.475C278.51 782.337 278.343 782.054 278.351 781.75C278.924 755.959 284.785 738.895 302.462 711.532C307.735 703.373 301.014 697.145 291.711 688.525C286.134 683.355 279.813 677.495 274.618 669.92C274.512 669.764 274.462 669.577 274.48 669.393C275.376 660.097 277.699 649.633 280.157 638.556C285.592 614.076 291.75 586.335 282.002 567.719C280.921 565.658 279.891 563.82 278.85 562.107C278.737 561.922 278.705 561.699 278.758 561.487C278.815 561.278 278.956 561.097 279.147 560.995C295.646 551.908 311.159 548.31 318.943 546.975L359.411 537.832C372.237 534.935 385.332 533.823 398.342 534.528C412.468 535.297 431.962 537.542 444.625 543.87C452.203 547.659 458.45 551.692 463.963 555.254C475.352 562.606 482.877 567.461 491.606 563.905C500.377 560.332 512.966 520.587 521.822 484.58C522.69 481.05 526.16 478.842 529.733 479.556L543.961 482.401C544.188 482.447 544.386 482.592 544.503 482.797C561.054 512.669 564.631 546.642 554.312 576.009C546.812 597.348 532.764 613.581 515.777 620.543C503.114 625.727 488.057 626.067 472.235 621.513C457.724 617.341 443.52 609.367 430.981 598.382C434.196 608.411 434.54 616.835 434.82 623.719C434.933 626.46 435.039 629.049 435.319 631.329C436.693 642.491 437.454 661.39 438.127 678.065C438.687 691.932 439.214 705.031 440 711.525C440.153 712.793 439.802 714.047 439.005 715.049C438.205 716.058 437.058 716.692 435.772 716.833C422.978 718.236 413.831 721.093 399.985 725.414C395.46 726.827 390.332 728.427 384.418 730.184C346.882 741.328 311.627 758.899 279.622 782.412C279.484 782.515 279.317 782.568 279.151 782.568L279.151 782.568Z" fill="black"/>
<path d="M381.352 718.971C381.235 718.971 381.115 718.946 381.002 718.889C380.605 718.694 380.442 718.216 380.637 717.82L415.404 646.951C415.599 646.554 416.077 646.391 416.473 646.586C416.87 646.781 417.033 647.259 416.838 647.656L382.071 718.524C381.933 718.808 381.65 718.971 381.352 718.971Z" fill="black"/>
<path d="M411.775 695.57C411.672 695.57 411.569 695.552 411.47 695.51C411.063 695.343 410.868 694.876 411.038 694.465L420.564 671.402C420.734 670.991 421.201 670.8 421.608 670.966C422.016 671.136 422.21 671.604 422.04 672.011L412.511 695.078C412.384 695.386 412.09 695.57 411.775 695.57Z" fill="black"/>
<path d="M229.289 657.797L194.553 813.883C192.616 822.588 196.445 831.54 204.039 836.207C245.29 861.558 293.694 859.224 318.386 855.711C327.838 854.369 335.044 846.579 335.632 837.05L345.983 669.465L229.289 657.797L229.289 657.797Z" fill="white"/>
<path d="M229.915 658.661L195.333 814.061C193.476 822.404 197.143 831.03 204.458 835.527C245.365 860.666 293.327 858.47 318.274 854.922C327.308 853.64 334.273 846.101 334.836 837L345.141 670.184L229.915 658.661ZM288.121 858.658C263.025 858.658 231.701 854.143 203.622 836.887C195.726 832.036 191.768 822.722 193.774 813.714L228.51 657.624C228.597 657.227 228.963 656.965 229.369 657.004L346.065 668.672C346.494 668.714 346.809 669.086 346.784 669.515L336.43 837.099C335.82 846.954 328.281 855.113 318.501 856.505C310.431 857.652 299.966 858.658 288.121 858.658L288.121 858.658Z" fill="black"/>
<path d="M238.512 803.371C238.512 803.371 203.588 744.542 292.02 718.395C292.02 718.395 342.091 795.574 254.387 809.908C268.297 796.806 274.824 773.18 277.398 743.919C271.088 771.437 261.19 794.802 238.512 803.371Z" fill="black"/>
<path d="M279.532 561.691C279.532 561.691 141.453 626.289 180.551 704.477C211.116 765.598 288.321 692.119 288.321 692.119L270.959 661.966C270.959 661.966 237.906 687.384 234.78 674.271C231.71 661.399 247.134 645.5 290.4 653.754L299.929 664.7C299.929 664.7 332.196 614.77 279.532 561.691Z" fill="#F4E3FF"/>
<path d="M279.363 562.658C272.359 566.047 195.796 604.1 178.07 655.061C172.261 671.761 173.336 688.266 181.263 704.12C187.931 717.456 197.404 725.282 209.42 727.385C211.695 727.782 214.021 727.966 216.368 727.966C247.16 727.973 282.862 696.06 287.31 691.967L270.716 663.149C266.484 666.318 245.722 681.396 237.384 678.432C235.618 677.806 234.48 676.471 234 674.459C232.79 669.385 234.298 664.314 238.245 660.181C247.072 650.942 266.137 648.311 290.546 652.968C290.723 653.003 290.883 653.096 290.999 653.23L299.803 663.344C301.634 660.132 307.476 648.779 308.688 632.961C310.001 615.789 305.964 589.688 279.363 562.658ZM216.505 729.577C214.022 729.577 211.563 729.379 209.145 728.957C196.603 726.762 186.741 718.646 179.834 704.832C171.706 688.581 170.606 671.658 176.562 654.533C186.351 626.395 213.753 602.447 235.016 587.312C258.01 570.945 278.984 561.068 279.193 560.969C279.498 560.828 279.863 560.891 280.1 561.129C307.515 588.764 311.641 615.556 310.274 633.163C308.79 652.26 300.677 665.008 300.596 665.136C300.461 665.344 300.235 665.479 299.983 665.497C299.728 665.522 299.488 665.415 299.325 665.224L289.976 654.487C256.282 648.12 243.385 657.115 239.4 661.286C235.84 665.012 234.474 669.558 235.554 674.087C235.905 675.557 236.678 676.488 237.917 676.928C244.809 679.364 263.754 666.499 270.471 661.332C270.652 661.191 270.886 661.138 271.112 661.184C271.339 661.226 271.534 661.368 271.651 661.566L289.013 691.722C289.197 692.041 289.137 692.445 288.871 692.7C287.175 694.311 249.71 729.577 216.505 729.577L216.505 729.577Z" fill="black"/>
<path d="M279.531 561.692L290.548 556.32C290.548 556.32 328.364 595.79 318.296 669.467H298.558C298.558 669.467 318.565 611.799 279.531 561.692Z" fill="white"/>
<path d="M299.652 668.669H317.599C322.581 631.172 314.868 602.846 307.496 585.65C300.382 569.071 292.219 559.386 290.36 557.3L280.764 561.978C300.548 587.825 304.592 615.566 304.482 634.373C304.38 651.792 300.782 664.951 299.652 668.669L299.652 668.669ZM318.296 670.266H298.558C298.3 670.266 298.059 670.142 297.91 669.93C297.758 669.721 297.719 669.448 297.804 669.204C297.853 669.062 302.776 654.632 302.885 634.306C302.988 615.58 298.909 587.867 278.901 562.183C278.756 561.992 278.699 561.748 278.756 561.51C278.809 561.277 278.965 561.078 279.181 560.976L290.197 555.6C290.509 555.448 290.885 555.515 291.125 555.767C291.221 555.866 300.771 565.958 308.93 584.949C316.448 602.446 324.313 631.335 319.086 669.576C319.033 669.972 318.697 670.266 318.296 670.266Z" fill="black"/>
<path d="M275.281 669.466L294.503 648.874L330.884 645.23C330.884 645.23 338.204 663.29 318.299 669.466C298.391 675.645 285.349 682.738 285.349 682.738L275.281 669.466Z" fill="white"/>
<path d="M276.32 669.519L285.57 681.715C288.381 680.256 300.687 674.094 318.056 668.704C323.935 666.881 327.929 663.818 329.923 659.607C332.575 654.009 330.939 647.929 330.333 646.087L294.876 649.639L276.32 669.519ZM285.343 683.538C285.102 683.538 284.862 683.425 284.706 683.22L274.638 669.951C274.405 669.639 274.426 669.207 274.691 668.92L293.913 648.329C294.044 648.187 294.224 648.098 294.416 648.077L330.797 644.437C331.151 644.405 331.484 644.603 331.619 644.929C331.75 645.255 334.816 653.007 331.367 660.291C329.175 664.922 324.855 668.265 318.531 670.231C298.923 676.314 285.857 683.368 285.725 683.439C285.605 683.506 285.474 683.538 285.343 683.538L285.343 683.538Z" fill="black"/>
<path d="M356.665 515.371C356.665 515.371 352.203 520.283 342.883 518.558L356.665 515.371Z" fill="white"/>
<path d="M346.759 519.724C345.527 519.724 344.188 519.611 342.733 519.341C342.297 519.264 342.01 518.846 342.092 518.414C342.17 517.978 342.588 517.688 343.023 517.773C351.805 519.395 356.03 514.876 356.069 514.83C356.37 514.504 356.873 514.483 357.198 514.777C357.524 515.074 357.549 515.581 357.252 515.907C357.089 516.087 353.689 519.724 346.759 519.724Z" fill="black"/>
<path d="M371.087 447.986C371.087 491.656 342.053 541.489 298.384 541.489C254.714 541.489 210.266 503.865 210.266 460.195C210.266 416.525 247.005 374.469 290.674 374.469C334.347 374.469 371.087 404.316 371.087 447.986L371.087 447.986Z" fill="black"/>
<path d="M228.41 484.498C228.41 489.508 224.348 493.57 219.338 493.57C214.327 493.57 210.266 489.508 210.266 484.498C210.266 479.488 214.327 475.426 219.338 475.426C224.348 475.426 228.41 479.488 228.41 484.498Z" fill="black"/>
<path d="M219.336 501.769C219.336 509.382 225.506 515.551 233.117 515.551C240.729 515.551 246.901 509.382 246.901 501.769C246.901 494.158 240.729 487.988 233.117 487.988C225.506 487.988 219.336 494.158 219.336 501.769Z" fill="black"/>
<path d="M238.712 504.454C232.263 510.902 232.263 521.362 238.712 527.811C245.161 534.259 255.618 534.259 262.07 527.811C268.519 521.362 268.519 510.902 262.07 504.454C255.618 498.005 245.161 498.005 238.712 504.454Z" fill="black"/>
<path d="M256.867 525.337C256.867 535.688 265.26 544.081 275.611 544.081C285.962 544.081 294.351 535.688 294.351 525.337C294.351 514.987 285.962 506.598 275.611 506.598C265.26 506.598 256.867 514.987 256.867 525.337Z" fill="black"/>
<path d="M281.674 527.467C282.846 538.827 293.009 547.085 304.369 545.909C315.729 544.737 323.987 534.574 322.811 523.214C321.639 511.854 311.476 503.596 300.116 504.772C288.756 505.944 280.498 516.107 281.674 527.467Z" fill="black"/>
<path d="M235.965 453.209C235.965 462.523 228.414 470.074 219.099 470.074C209.785 470.074 202.234 462.523 202.234 453.209C202.234 443.895 209.785 436.344 219.099 436.344C228.414 436.344 235.965 443.895 235.965 453.209Z" fill="black"/>
<path d="M241.534 446.211C234.383 453.365 222.784 453.365 215.631 446.211C208.477 439.058 208.477 427.46 215.631 420.307C222.784 413.153 234.383 413.153 241.534 420.307C248.691 427.46 248.691 439.058 241.534 446.211Z" fill="black"/>
<path d="M229.569 471.612C229.569 477.394 224.882 482.08 219.101 482.08C213.32 482.08 208.633 477.394 208.633 471.612C208.633 465.831 213.32 461.145 219.101 461.145C224.882 461.145 229.569 465.831 229.569 471.612Z" fill="black"/>
<path d="M375.769 450.534C375.769 458.371 369.417 464.724 361.58 464.724C353.744 464.724 347.391 458.371 347.391 450.534C347.391 442.697 353.743 436.344 361.58 436.344C369.417 436.344 375.769 442.697 375.769 450.534Z" fill="black"/>
<path d="M377.448 432.299C377.448 440.6 370.72 447.329 362.419 447.329C354.119 447.329 347.391 440.6 347.391 432.299C347.391 423.998 354.119 417.27 362.419 417.27C370.72 417.27 377.448 423.998 377.448 432.299Z" fill="black"/>
<path d="M367.861 414.347C367.861 423.129 360.74 430.249 351.958 430.249C343.176 430.249 336.055 423.129 336.055 414.347C336.055 405.565 343.176 398.445 351.958 398.445C360.74 398.445 367.861 405.565 367.861 414.347Z" fill="black"/>
<path d="M325.773 394.892C325.773 403.122 332.449 409.795 340.678 409.795C348.908 409.795 355.579 403.122 355.579 394.892C355.579 386.661 348.908 379.988 340.678 379.988C332.449 379.988 325.773 386.661 325.773 394.892Z" fill="black"/>
<path d="M331.992 384.68C331.992 390.319 327.421 394.891 321.779 394.891C316.142 394.891 311.57 390.319 311.57 384.68C311.57 379.04 316.142 374.469 321.779 374.469C327.42 374.469 331.992 379.04 331.992 384.68Z" fill="black"/>
<path d="M316.462 381.313C316.462 388.435 310.69 394.208 303.569 394.208C296.447 394.208 290.672 388.435 290.672 381.313C290.672 374.191 296.447 368.418 303.569 368.418C310.69 368.418 316.462 374.191 316.462 381.313Z" fill="black"/>
<path d="M300.399 389.123C300.399 398.758 292.591 406.569 282.955 406.569C273.32 406.569 265.508 398.758 265.508 389.123C265.508 379.487 273.32 371.676 282.955 371.676C292.591 371.676 300.399 379.487 300.399 389.123Z" fill="black"/>
<path d="M262.483 374.469C271.092 374.469 278.068 381.447 278.068 390.054C278.068 398.662 271.092 405.64 262.483 405.64C253.875 405.64 246.898 398.662 246.898 390.054C246.898 381.447 253.874 374.469 262.483 374.469Z" fill="black"/>
<path d="M246.899 381.492C256.258 381.492 263.85 389.082 263.85 398.444C263.85 407.806 256.258 415.395 246.899 415.395C237.535 415.395 229.945 407.806 229.945 398.444C229.945 389.082 237.535 381.492 246.899 381.492Z" fill="black"/>
<path d="M235.967 412.034C235.967 418.394 230.811 423.549 224.452 423.549C218.093 423.549 212.938 418.394 212.938 412.034C212.938 405.675 218.093 400.52 224.452 400.52C230.811 400.52 235.967 405.675 235.967 412.034Z" fill="black"/>
<path d="M346.671 449.375C350.014 451.213 351.817 451.57 354.596 453.395C360.248 457.106 367.005 469.955 375.571 471.243C377.277 475.537 373.814 476.729 372.932 479.472C374.349 481.473 377.94 491.369 380.872 497.284C381.899 499.355 381.229 501.887 379.285 503.141C376.013 505.251 372.199 506.947 367.791 508.126C367.791 508.126 350.22 545.719 376.93 559.215L320.297 554.335L335.517 504.596C334.787 504.476 325.198 502.747 322.847 495.534C321.983 492.886 321.752 488.452 324.026 487.066C326.243 485.713 330.697 487.351 334.192 491.985C334.515 490.662 334.702 489.01 334.855 487.116C335.064 484.522 335.028 481.605 334.054 480.317C355.199 470.033 331.034 452.18 346.671 449.375Z" fill="white"/>
<path d="M321.351 553.625L373.442 558.116C350.895 543.165 366.898 508.157 367.068 507.789C367.167 507.576 367.358 507.417 367.588 507.357C371.774 506.238 375.563 504.595 378.856 502.47C380.453 501.439 381.016 499.364 380.159 497.64C378.757 494.81 377.199 491.065 375.825 487.76C374.359 484.24 372.978 480.915 372.284 479.935C372.139 479.731 372.1 479.469 372.174 479.23C372.514 478.18 373.148 477.369 373.76 476.583C374.833 475.212 375.694 474.112 374.982 471.953C369.458 470.864 364.787 465.432 360.658 460.625C358.328 457.915 356.129 455.357 354.16 454.064C352.645 453.068 351.437 452.53 350.042 451.906C349.04 451.458 347.91 450.954 346.54 450.215C344.457 450.626 343.112 451.339 342.432 452.39C341.288 454.161 341.986 456.947 342.793 460.175C344.344 466.354 346.455 474.768 335.158 480.66C335.732 482.028 335.895 484.178 335.654 487.183C335.52 488.811 335.339 490.678 334.971 492.177C334.896 492.477 334.659 492.708 334.358 492.77C334.054 492.831 333.742 492.715 333.558 492.469C330.381 488.257 326.281 486.63 324.443 487.749C322.651 488.844 322.807 492.832 323.607 495.288C325.831 502.105 335.25 503.744 335.651 503.812C335.881 503.847 336.079 503.982 336.199 504.18C336.32 504.375 336.352 504.612 336.284 504.832L321.351 553.625V553.625ZM376.933 560.014C376.908 560.014 376.887 560.014 376.862 560.01L320.232 555.134C319.992 555.113 319.772 554.985 319.637 554.787C319.503 554.585 319.464 554.334 319.535 554.103L334.5 505.211C331.773 504.602 324.227 502.346 322.088 495.784C321.199 493.054 320.824 488.088 323.611 486.386C325.856 485.017 330.077 486.123 333.728 490.167C333.88 489.147 333.979 488.055 334.061 487.055C334.4 482.802 333.806 481.312 333.42 480.802C333.274 480.612 333.225 480.366 333.278 480.134C333.335 479.902 333.494 479.706 333.706 479.601C344.68 474.264 342.857 466.985 341.245 460.563C340.381 457.125 339.567 453.877 341.09 451.523C342.053 450.035 343.83 449.075 346.532 448.591C346.713 448.558 346.897 448.589 347.057 448.678C348.484 449.46 349.606 449.963 350.693 450.448C352.092 451.072 353.413 451.663 355.038 452.729C357.195 454.145 359.465 456.787 361.869 459.584C365.934 464.317 370.545 469.681 375.694 470.455C375.974 470.498 376.211 470.686 376.317 470.951C377.62 474.239 376.179 476.085 375.017 477.568C374.55 478.169 374.1 478.742 373.824 479.38C374.628 480.724 375.821 483.597 377.298 487.146C378.665 490.429 380.212 494.149 381.59 496.928C382.808 499.382 382.004 502.343 379.72 503.812C376.388 505.965 372.567 507.64 368.367 508.802C366.742 512.527 352.903 546.182 377.294 558.502C377.634 558.675 377.804 559.068 377.702 559.433C377.602 559.78 377.287 560.014 376.933 560.014L376.933 560.014Z" fill="black"/>
<path d="M348.898 508.91C348.898 508.91 357.426 512.182 367.079 508.344L348.898 508.91Z" fill="white"/>
<path d="M357.193 511.021C352.26 511.021 348.839 509.743 348.612 509.654C348.202 509.495 347.996 509.034 348.156 508.624C348.311 508.213 348.772 508.004 349.186 508.163C349.267 508.195 357.557 511.272 366.782 507.604C367.193 507.441 367.657 507.639 367.82 508.05C367.982 508.461 367.784 508.925 367.373 509.088C363.68 510.557 360.164 511.021 357.193 511.021Z" fill="black"/>
<path d="M355.847 892.628C355.715 892.628 355.581 892.596 355.457 892.525C355.071 892.313 354.933 891.824 355.149 891.438L381.509 844.313C381.725 843.926 382.21 843.788 382.596 844.004C382.982 844.22 383.12 844.706 382.904 845.092L356.544 892.221C356.399 892.483 356.126 892.628 355.847 892.628Z" fill="white"/>
<path d="M591.867 772.792C592.211 772.516 597.526 774.442 598.323 774.591C600.547 775.002 602.806 775.214 605.065 775.19C609.159 775.143 613.305 774.34 616.984 772.495C620.409 770.777 621.861 768.695 623.904 765.696C626.485 761.907 629.52 759.063 631.206 754.64C632.99 749.959 632.728 744.753 634.591 740.104C636.298 735.851 640.43 733.457 643.267 730.019C646.319 726.318 647.835 721.527 648.242 716.746C648.692 711.438 648.568 704.834 645.827 700.156C643.596 696.342 638.224 692.571 639.538 687.553C640.076 685.496 641.762 683.984 643.115 682.344C646.794 677.882 647.116 672.999 647.499 667.546C647.863 662.351 646.408 656.586 642.438 652.988C632.098 643.622 609.761 651.897 610.171 666.25C610.32 671.469 608.004 676.707 604.042 680.103C602.36 681.547 600.398 682.677 598.903 684.313C594.828 688.775 596.938 695.234 599.583 699.745C602.183 704.175 605.766 709.041 604.063 714.459C602.317 720.011 597.37 719.14 595.706 724.537C592.972 733.407 605.072 739.835 605.493 750.95C605.699 756.333 603.195 763.698 591.867 772.792Z" fill="black"/>
<path d="M589.095 774.397C588.712 774.397 588.376 774.124 588.308 773.731C588.234 773.299 588.528 772.885 588.963 772.811C593.67 772.014 598.05 770.307 601.984 767.74C607.632 764.057 611.722 759.372 614.141 753.812C616.655 748.033 616.506 743.129 616.259 735.005C616.089 729.347 615.465 726.184 614.86 723.128C614.261 720.079 613.695 717.204 613.57 712.19C613.468 708.068 613.281 700.391 615.954 691.64C618.631 682.862 623.847 674.586 631.032 667.706C631.347 667.401 631.854 667.412 632.162 667.731C632.466 668.049 632.456 668.556 632.137 668.86C625.15 675.55 620.083 683.588 617.48 692.104C614.885 700.61 615.069 708.117 615.168 712.151C615.288 717.027 615.841 719.842 616.429 722.817C617.045 725.94 617.682 729.17 617.859 734.956C618.111 743.302 618.262 748.341 615.607 754.45C613.061 760.3 608.769 765.222 602.855 769.078C598.737 771.766 594.155 773.551 589.229 774.386C589.183 774.393 589.14 774.397 589.095 774.397Z" fill="white"/>
<path d="M567.179 765.349C571.949 765.774 577.675 761.73 580.624 758.341C581.538 757.297 588.061 749.804 586.326 742.424C584.86 736.195 578.794 735.522 578.964 731.319C579.151 726.723 585.713 725.083 588.171 721.928C591.938 717.091 587.416 712.554 585.373 708.153C582.158 701.212 587.236 697.172 592.731 693.669C595.373 691.987 598.351 689.919 599.467 686.839C600.614 683.659 599.456 680.514 601.623 677.412C603.011 675.425 605.094 673.935 606.124 671.746C607.257 669.338 606.917 666.53 606.553 663.892C605.635 657.259 606.361 647.298 601.262 642.429C595.292 636.728 586.297 639.072 579.891 642.755C573.652 646.345 570.458 653.994 563.457 656.445C560.843 657.362 557.968 657.365 555.387 658.368C546.392 661.852 547.826 673.109 549.257 680.652C550.291 686.088 551.098 692.186 547.288 696.775C546.144 698.156 544.678 699.314 543.91 700.936C541.526 705.975 544.675 711.067 548.191 714.619C550.068 716.517 552.196 718.17 554.423 719.629C556.031 720.681 559.937 722.087 559.93 724.385C559.926 725.359 559.14 726.141 558.34 726.697C556.75 727.799 554.873 728.493 553.474 729.828C544.413 738.454 563.613 749.24 568.422 753.904C569.523 754.973 570.617 756.174 570.961 757.668C571.729 761 568.843 763.026 567.179 765.349L567.179 765.349Z" fill="black"/>
<path d="M562.424 769.569C562.077 769.569 561.758 769.343 561.659 768.992C561.531 768.571 561.776 768.128 562.201 768C564.453 767.342 567.789 765.777 570.873 762.066C571.061 761.839 575.466 756.46 576.673 748.85C577.704 742.341 575.816 737.88 573.203 731.707C571.921 728.683 570.473 725.252 569.145 721.031C567.403 715.5 562.102 698.668 564.945 683.916C568.614 664.858 585.328 654.039 592.343 650.275C592.729 650.066 593.214 650.211 593.423 650.601C593.632 650.99 593.487 651.476 593.097 651.681C586.284 655.339 570.055 665.832 566.514 684.221C563.748 698.573 568.957 715.117 570.668 720.549C571.974 724.699 573.408 728.092 574.673 731.084C577.29 737.26 579.354 742.14 578.249 749.101C576.999 757.002 572.601 762.487 572.105 763.085C568.762 767.108 565.115 768.812 562.647 769.537C562.572 769.559 562.498 769.569 562.424 769.569Z" fill="white"/>
<path d="M617.803 701.559H561.18V816.529H617.803V701.559Z" fill="white"/>
<path d="M561.988 815.728H617.014V702.355H561.988V815.728ZM617.81 817.325H561.187C560.745 817.325 560.391 816.968 560.391 816.529V701.558C560.391 701.116 560.745 700.758 561.187 700.758H617.81C618.253 700.758 618.611 701.115 618.611 701.558V816.529C618.611 816.968 618.253 817.325 617.81 817.325Z" fill="black"/>
<path d="M632.277 813.368L617.805 816.814V701.557L635.914 698.395V808.765C635.914 810.957 634.409 812.862 632.277 813.368Z" fill="white"/>
<path d="M618.605 702.23V815.805L632.093 812.593C633.871 812.172 635.114 810.596 635.114 808.769V699.348L618.605 702.23ZM617.805 817.615C617.628 817.615 617.454 817.558 617.309 817.445C617.117 817.293 617.008 817.062 617.008 816.818V701.561C617.008 701.171 617.287 700.838 617.666 700.771L635.776 697.609C636.006 697.57 636.247 697.634 636.427 697.786C636.608 697.938 636.711 698.161 636.711 698.399V808.769C636.711 811.34 634.965 813.553 632.461 814.148L617.989 817.594C617.928 817.608 617.868 817.615 617.805 817.615Z" fill="black"/>
<path d="M561 701.882L577.566 690.277L616.44 690.635L617.804 701.775L561 701.882Z" fill="white"/>
<path d="M577.814 691.077L563.54 701.077L616.901 700.975L615.733 691.428L577.814 691.077ZM561.001 702.681C560.654 702.681 560.346 702.455 560.239 702.122C560.137 701.789 560.257 701.428 560.544 701.226L577.106 689.622C577.244 689.526 577.435 689.477 577.573 689.477L616.448 689.838C616.848 689.841 617.184 690.139 617.23 690.539L618.597 701.676C618.625 701.902 618.555 702.133 618.403 702.303C618.254 702.473 618.034 702.572 617.808 702.572L561.004 702.682H561.001L561.001 702.681Z" fill="black"/>
<path d="M635.486 698.399L616.445 690.637L617.809 701.777L635.486 698.399Z" fill="white"/>
<path d="M617.396 691.887L618.494 700.828L632.68 698.116L617.396 691.887ZM617.804 702.571C617.637 702.571 617.47 702.517 617.333 702.418C617.156 702.287 617.039 702.089 617.01 701.869L615.647 690.732C615.611 690.449 615.728 690.169 615.952 689.999C616.178 689.826 616.479 689.791 616.741 689.893L635.782 697.655C636.108 697.79 636.31 698.123 636.274 698.473C636.239 698.828 635.977 699.114 635.63 699.178L617.956 702.556C617.902 702.567 617.853 702.571 617.804 702.571Z" fill="black"/>
<path d="M616.662 690.71H577.43V687.693C577.43 686.719 578.219 685.93 579.193 685.93H615.03C615.932 685.93 616.662 686.659 616.662 687.562L616.662 690.71Z" fill="white"/>
<path d="M578.222 689.909H615.857V687.562C615.857 687.101 615.486 686.729 615.025 686.729H579.189C578.654 686.729 578.222 687.161 578.222 687.693V689.909L578.222 689.909ZM616.658 691.507H577.425C576.983 691.507 576.625 691.149 576.625 690.71V687.693C576.625 686.28 577.776 685.129 579.189 685.129H615.025C616.367 685.129 617.458 686.22 617.458 687.562V690.71C617.458 691.149 617.1 691.507 616.658 691.507Z" fill="black"/>
<path d="M521.133 713.608L504.628 693.477C503.966 692.67 503.753 691.54 504.189 690.587C504.766 689.327 505.871 688.622 507.524 688.505C508.314 688.448 509.068 688.863 509.437 689.564L522.022 713.481L521.133 713.608Z" fill="black"/>
<path d="M520.604 713.66L510.827 689.534C510.434 688.56 510.568 687.423 511.27 686.644C512.194 685.61 513.458 685.267 515.073 685.646C515.841 685.826 516.436 686.446 516.581 687.225L521.486 713.801L520.604 713.66L520.604 713.66Z" fill="black"/>
<path d="M522.101 713.11L517.409 687.504C517.218 686.473 517.579 685.386 518.422 684.763C519.541 683.938 520.844 683.856 522.349 684.554C523.068 684.887 523.525 685.616 523.507 686.406L522.937 713.425L522.101 713.11L522.101 713.11Z" fill="black"/>
<path d="M511.897 710.912C514.992 707.491 520.339 704.52 525.315 703.826C529.968 703.175 534.348 706.213 535.626 710.735C544.773 743.087 557.755 784.777 556.416 791.601C555.145 793.201 553.584 793.87 551.678 793.467C547.44 791.746 526.483 748.728 510.92 719.035C509.532 716.383 509.889 713.129 511.897 710.912Z" fill="white"/>
<path d="M551.928 792.7C553.404 792.984 554.601 792.527 555.67 791.256C556.471 785.622 548.609 758.518 541.003 732.295C538.935 725.164 536.796 717.787 534.863 710.953C533.676 706.753 529.615 704.034 525.429 704.614C520.804 705.259 515.609 708.007 512.493 711.445C510.737 713.389 510.39 716.29 511.633 718.662C515.429 725.907 519.615 734.073 523.662 741.974C534.905 763.918 548.879 791.192 551.928 792.7ZM552.749 794.379C552.352 794.379 551.942 794.336 551.517 794.244C551.471 794.237 551.428 794.223 551.382 794.205C548.135 792.888 538.206 773.869 522.239 742.703C518.195 734.806 514.012 726.64 510.22 719.402C508.665 716.442 509.104 712.812 511.311 710.372C514.657 706.675 520.241 703.726 525.21 703.031C530.185 702.337 534.997 705.553 536.4 710.517C538.33 717.348 540.468 724.721 542.536 731.849C550.642 759.792 558.298 786.181 557.204 791.751C557.179 791.879 557.126 791.996 557.048 792.095C555.841 793.614 554.399 794.379 552.749 794.379H552.749Z" fill="black"/>
<path d="M526.939 748.105C526.752 748.105 526.568 748.041 526.415 747.91C526.082 747.62 526.047 747.113 526.337 746.784C527.679 745.236 529.85 744.199 533.161 743.515C533.59 743.431 534.014 743.703 534.103 744.139C534.192 744.571 533.915 744.992 533.483 745.081C530.534 745.69 528.646 746.564 527.541 747.832C527.385 748.013 527.162 748.105 526.939 748.105L526.939 748.105Z" fill="white"/>
<path d="M498.983 712.264L480.19 694.25C479.433 693.524 479.089 692.43 479.408 691.435C479.829 690.111 480.842 689.282 482.471 688.967C483.246 688.815 484.043 689.137 484.493 689.789L499.847 712.03L498.983 712.264H498.983Z" fill="black"/>
<path d="M498.459 712.375L485.87 689.591C485.364 688.674 485.36 687.527 485.962 686.67C486.756 685.533 487.97 685.041 489.617 685.225C490.403 685.31 491.069 685.856 491.306 686.613L499.351 712.411L498.459 712.375Z" fill="black"/>
<path d="M499.876 711.653L492.157 686.791C491.848 685.792 492.075 684.666 492.836 683.947C493.849 682.995 495.135 682.761 496.711 683.271C497.465 683.515 498.007 684.185 498.085 684.974L500.747 711.866L499.876 711.653L499.876 711.653Z" fill="black"/>
<path d="M489.487 710.684C492.15 706.923 497.104 703.333 501.959 702.047C506.502 700.847 511.216 703.34 513.025 707.678C525.972 738.702 543.844 778.543 543.33 785.477C542.261 787.215 540.788 788.069 538.851 787.895C534.435 786.691 508.489 746.489 489.487 718.868C487.791 716.403 487.759 713.127 489.487 710.684Z" fill="white"/>
<path d="M539.004 787.105C540.516 787.215 541.638 786.613 542.548 785.225C542.672 779.538 531.624 753.564 520.937 728.436C518.033 721.605 515.027 714.54 512.289 707.986C510.611 703.956 506.255 701.732 502.169 702.819C497.654 704.012 492.824 707.359 490.143 711.144C488.631 713.287 488.631 716.208 490.15 718.414C494.785 725.153 499.92 732.766 504.881 740.128C518.667 760.568 535.799 785.976 539.004 787.105ZM539.347 788.717C539.163 788.717 538.975 788.71 538.784 788.692C538.735 788.688 538.689 788.678 538.643 788.667C535.264 787.746 523.132 770.051 503.557 741.021C498.596 733.662 493.465 726.052 488.833 719.321C486.938 716.566 486.942 712.908 488.84 710.224C491.719 706.155 496.91 702.557 501.761 701.275C506.616 699.99 511.779 702.607 513.766 707.369C516.5 713.92 519.503 720.982 522.406 727.812C533.795 754.584 544.549 779.871 544.131 785.533C544.121 785.661 544.082 785.785 544.014 785.894C542.863 787.768 541.295 788.717 539.347 788.717Z" fill="black"/>
<path d="M492.523 719.398C492.371 719.398 492.215 719.355 492.077 719.26C491.712 719.012 491.617 718.516 491.864 718.151C493.015 716.455 495.044 715.166 498.249 714.093C498.667 713.951 499.12 714.178 499.258 714.596C499.4 715.014 499.173 715.467 498.756 715.609C495.898 716.565 494.131 717.659 493.185 719.047C493.029 719.277 492.782 719.398 492.523 719.398Z" fill="black"/>
<path d="M511.031 725.107C510.879 725.107 510.723 725.065 510.585 724.969C510.22 724.721 510.124 724.225 510.372 723.861C511.523 722.168 513.552 720.879 516.757 719.803C517.175 719.664 517.628 719.888 517.766 720.305C517.908 720.723 517.681 721.177 517.263 721.318C514.409 722.274 512.639 723.369 511.693 724.76C511.537 724.987 511.289 725.107 511.031 725.107Z" fill="black"/>
<path d="M526.297 762.205C526.141 762.205 525.985 762.159 525.85 762.067C525.486 761.819 525.39 761.32 525.638 760.955C526.789 759.262 528.814 757.974 532.019 756.901C532.437 756.762 532.89 756.982 533.032 757.403C533.173 757.821 532.947 758.275 532.529 758.413C529.671 759.372 527.901 760.463 526.959 761.855C526.803 762.081 526.552 762.205 526.297 762.205Z" fill="white"/>
<path d="M531.894 779.802C531.738 779.802 531.582 779.756 531.444 779.664C531.079 779.416 530.984 778.921 531.232 778.552C532.383 776.86 534.412 775.571 537.616 774.498C538.034 774.36 538.487 774.583 538.626 775.001C538.767 775.419 538.541 775.872 538.123 776.01C535.269 776.97 533.498 778.06 532.552 779.452C532.4 779.679 532.149 779.803 531.894 779.803L531.894 779.802Z" fill="white"/>
<path d="M508.765 745.822C508.613 745.822 508.457 745.776 508.319 745.684C507.954 745.436 507.859 744.94 508.107 744.576C509.258 742.879 511.287 741.59 514.491 740.517C514.909 740.379 515.362 740.602 515.501 741.02C515.642 741.438 515.416 741.891 514.998 742.03C512.14 742.989 510.373 744.083 509.428 745.472C509.275 745.698 509.024 745.822 508.765 745.822Z" fill="white"/>
<path d="M537.387 702.846L523.452 680.859C522.893 679.974 522.819 678.83 523.367 677.938C524.093 676.755 525.276 676.192 526.933 676.273C527.723 676.312 528.417 676.819 528.7 677.559L538.283 702.828L537.387 702.846Z" fill="black"/>
<path d="M536.847 702.829L530.08 677.691C529.807 676.678 530.076 675.566 530.866 674.876C531.911 673.962 533.207 673.778 534.765 674.348C535.505 674.621 536.022 675.311 536.068 676.101L537.708 703.074L536.847 702.829Z" fill="black"/>
<path d="M538.409 702.465L536.865 676.48C536.801 675.432 537.293 674.398 538.203 673.881C539.415 673.198 540.721 673.279 542.127 674.154C542.8 674.572 543.165 675.351 543.051 676.133L539.198 702.883L538.409 702.465Z" fill="black"/>
<path d="M528.546 699.042C532.03 696.025 537.703 693.727 542.724 693.642C547.423 693.56 551.4 697.112 552.119 701.755C557.261 734.978 565.076 777.939 562.919 784.547C561.464 785.981 559.828 786.455 557.987 785.825C553.989 783.601 538.422 738.353 526.587 706.989C525.532 704.188 526.283 701.001 528.546 699.042Z" fill="white"/>
<path d="M558.324 785.095C559.758 785.562 560.997 785.247 562.212 784.117C563.695 778.625 559.188 750.767 554.828 723.815C553.642 716.485 552.417 708.9 551.33 701.878C550.66 697.565 546.985 694.377 542.739 694.438C538.068 694.519 532.576 696.612 529.067 699.647C527.084 701.361 526.389 704.197 527.335 706.704C530.225 714.36 533.383 722.979 536.443 731.315C544.931 754.46 555.48 783.228 558.324 785.095ZM559.559 786.901C558.964 786.901 558.355 786.794 557.729 786.578C557.686 786.564 557.64 786.543 557.601 786.522C554.538 784.818 546.999 764.736 534.941 731.864C531.885 723.532 528.727 714.916 525.841 707.267C524.658 704.14 525.536 700.589 528.022 698.439C531.793 695.174 537.696 692.926 542.711 692.841C547.76 692.78 552.119 696.538 552.909 701.633C553.996 708.652 555.221 716.23 556.408 723.56C561.05 752.275 565.441 779.397 563.678 784.797C563.639 784.917 563.572 785.027 563.479 785.116C562.276 786.306 560.962 786.901 559.559 786.901Z" fill="black"/>
<path d="M529.595 708.25C529.379 708.25 529.159 708.162 529.003 707.985C528.706 707.659 528.734 707.152 529.06 706.859C530.583 705.488 532.863 704.723 536.231 704.447C536.684 704.419 537.056 704.737 537.095 705.177C537.13 705.616 536.801 706.002 536.362 706.041C533.359 706.285 531.38 706.922 530.13 708.045C529.977 708.183 529.786 708.25 529.595 708.25Z" fill="black"/>
<path d="M546.198 718.223C545.979 718.223 545.759 718.134 545.603 717.961C545.309 717.631 545.334 717.125 545.663 716.831C547.183 715.46 549.463 714.696 552.831 714.419C553.28 714.395 553.656 714.71 553.691 715.149C553.73 715.591 553.401 715.977 552.962 716.013C549.959 716.257 547.979 716.895 546.729 718.017C546.577 718.155 546.386 718.223 546.198 718.223Z" fill="black"/>
<path d="M552.142 757.895C551.923 757.895 551.707 757.806 551.547 757.633C551.253 757.303 551.282 756.797 551.607 756.503C553.13 755.133 555.407 754.368 558.778 754.092C559.232 754.063 559.603 754.382 559.639 754.821C559.674 755.264 559.348 755.65 558.909 755.685C555.906 755.929 553.927 756.567 552.677 757.693C552.525 757.827 552.333 757.895 552.142 757.895Z" fill="white"/>
<path d="M553.362 776.324C553.143 776.324 552.923 776.235 552.767 776.062C552.473 775.732 552.498 775.226 552.827 774.932C554.35 773.562 556.627 772.797 559.995 772.521C560.444 772.499 560.823 772.811 560.859 773.25C560.894 773.693 560.565 774.075 560.126 774.114C557.123 774.358 555.143 774.996 553.893 776.118C553.741 776.256 553.55 776.324 553.362 776.324Z" fill="white"/>
<path d="M539.042 737.798C538.822 737.798 538.606 737.709 538.447 737.532C538.153 737.206 538.178 736.7 538.507 736.406C540.03 735.035 542.307 734.271 545.674 733.994C546.124 733.962 546.503 734.285 546.538 734.724C546.574 735.163 546.244 735.549 545.805 735.584C542.802 735.832 540.823 736.47 539.576 737.592C539.424 737.73 539.233 737.798 539.042 737.798Z" fill="white"/>
<path d="M596.065 732.303C596.019 742.19 589.492 756.365 571.992 756.284C555.299 756.206 548.907 741.967 548.953 732.08C548.999 722.409 554.874 713.128 568.964 713.372C569.248 713.379 572.307 714.286 572.594 714.289C572.821 714.289 576.634 713.411 576.861 713.411C591.04 713.478 596.111 722.586 596.065 732.303Z" fill="white"/>
<path d="M568.376 714.166C562.679 714.166 558.1 715.791 554.81 719.007C551.577 722.172 549.782 726.815 549.754 732.084C549.711 741.447 555.596 755.406 571.999 755.484H572.144C579.623 755.484 585.778 752.74 589.953 747.534C593.256 743.412 595.243 737.718 595.268 732.3C595.293 727.197 593.887 722.863 591.195 719.764C588.03 716.11 583.203 714.24 576.861 714.212C576.748 714.23 575.682 714.46 574.906 714.63C572.976 715.048 572.76 715.104 572.594 715.087C572.381 715.087 572.073 715.012 570.54 714.594C569.92 714.424 569.07 714.194 568.897 714.169C568.723 714.166 568.55 714.166 568.376 714.166L568.376 714.166ZM572.148 757.081H571.988C554.417 757 548.11 742.081 548.157 732.077C548.185 726.376 550.15 721.33 553.695 717.863C557.346 714.293 562.622 712.455 568.982 712.576C569.184 712.579 569.481 712.65 570.958 713.054C571.514 713.203 572.332 713.426 572.605 713.482C572.902 713.429 573.855 713.224 574.566 713.068C576.489 712.65 576.709 712.622 576.868 712.611C583.695 712.643 588.922 714.701 592.403 718.716C595.349 722.112 596.893 726.815 596.869 732.307C596.84 738.076 594.723 744.142 591.199 748.533C588.065 752.439 582.222 757.081 572.148 757.081L572.148 757.081Z" fill="black"/>
<path d="M572.648 716.174C574.398 706.361 581.728 703.967 588.598 702.855C590.641 711.684 582.918 713.854 572.648 716.174Z" fill="white"/>
<path d="M587.969 703.774C581.591 704.896 575.603 707.195 573.687 715.12C580.164 713.622 585.217 712.12 587.204 708.958C588.079 707.559 588.333 705.86 587.969 703.774ZM572.65 716.972C572.448 716.972 572.25 716.894 572.101 716.752C571.906 716.568 571.817 716.299 571.864 716.033C573.687 705.799 581.283 703.232 588.472 702.067C588.896 702.007 589.282 702.269 589.378 702.676C590.04 705.538 589.771 707.871 588.557 709.808C586.12 713.682 580.249 715.276 572.827 716.954C572.77 716.968 572.71 716.972 572.65 716.972Z" fill="black"/>
<path d="M572.003 716.353L570.389 707.914C570.261 707.241 570.718 706.597 571.398 706.497C572.435 706.342 573.406 706.338 574.273 706.565C575.01 706.76 575.431 707.542 575.233 708.279L572.988 716.533C572.637 716.77 572.315 716.608 572.003 716.353Z" fill="black"/>
<path d="M575.965 714.161C575.671 714.161 575.388 713.998 575.249 713.718C575.051 713.325 575.21 712.844 575.604 712.649C580.827 710.028 582.881 708.591 586.06 705.315C586.365 705 586.871 704.993 587.19 705.301C587.505 705.609 587.512 706.115 587.204 706.431C583.915 709.819 581.677 711.392 576.322 714.076C576.206 714.133 576.085 714.161 575.965 714.161Z" fill="black"/>
<path d="M622.78 906.227L620.766 732.792L633.539 735.724L643.089 732.289L658.419 893.702L622.78 906.227Z" fill="black"/>
<path d="M621.58 733.796L623.567 905.102L657.565 893.151L642.391 733.385L633.815 736.473C633.669 736.526 633.514 736.537 633.365 736.501L621.58 733.796ZM622.784 907.025C622.621 907.025 622.462 906.976 622.324 906.88C622.115 906.735 621.987 906.494 621.983 906.235L619.969 732.801C619.965 732.557 620.079 732.323 620.266 732.171C620.458 732.015 620.709 731.958 620.946 732.015L633.492 734.894L642.82 731.537C643.054 731.452 643.309 731.48 643.517 731.611C643.726 731.746 643.864 731.965 643.886 732.21L659.215 893.622C659.251 893.987 659.031 894.33 658.684 894.451L623.049 906.979C622.961 907.011 622.872 907.025 622.784 907.025L622.784 907.025Z" fill="white"/>
<path d="M492.801 730.826C492.439 730.567 491.887 730.762 491.844 731.159L474.018 900.132C473.873 901.53 475.251 902.738 477.042 902.78L622.788 906.233L620.774 732.791L600.766 740.624L584.102 732.288L566.077 740.458L550.613 731.718L533.187 739.898L517.514 730.578L502.91 738.025L492.8 730.826L492.801 730.826Z" fill="white"/>
<path d="M492.589 731.659L474.809 900.217C474.763 900.645 474.968 900.985 475.152 901.191C475.57 901.669 476.282 901.963 477.057 901.98L621.972 905.412L619.982 733.96L601.051 741.368C600.842 741.45 600.608 741.439 600.403 741.34L584.078 733.174L566.401 741.184C566.17 741.29 565.901 741.276 565.678 741.152L550.572 732.618L533.521 740.621C533.28 740.734 533 740.72 532.774 740.586L517.48 731.492L503.265 738.737C503 738.872 502.685 738.847 502.44 738.677L492.589 731.659L492.589 731.659ZM622.782 907.03H622.761L477.018 903.578C475.79 903.549 474.671 903.064 473.952 902.246C473.396 901.616 473.134 900.833 473.219 900.047L491.045 731.078C491.091 730.624 491.381 730.235 491.817 730.04C492.291 729.828 492.84 729.877 493.258 730.175L502.972 737.094L517.147 729.87C517.391 729.743 517.681 729.753 517.919 729.895L533.227 738.996L550.267 730.996C550.501 730.886 550.774 730.897 551 731.025L566.11 739.562L583.766 731.559C583.986 731.46 584.237 731.464 584.453 731.574L600.799 739.75L620.477 732.048C620.718 731.952 620.998 731.984 621.214 732.13C621.43 732.278 621.565 732.523 621.565 732.785L623.579 906.223C623.583 906.439 623.498 906.648 623.342 906.8C623.193 906.949 622.992 907.03 622.782 907.03H622.782Z" fill="black"/>
</svg>
