<svg width="520" height="196" viewBox="0 0 520 196" fill="none" xmlns="http://www.w3.org/2000/svg">
<path d="M34.2306 79.12C29.7506 79.12 25.6173 78.4 21.8306 76.96C18.044 75.52 14.7373 73.4933 11.9106 70.88C9.13729 68.2133 6.97729 65.12 5.43063 61.6C3.88396 58.08 3.11063 54.2133 3.11063 50C3.11063 45.7867 3.88396 41.92 5.43063 38.4C6.97729 34.88 9.13729 31.8133 11.9106 29.2C14.7373 26.5333 18.044 24.48 21.8306 23.04C25.6173 21.6 29.7506 20.88 34.2306 20.88C38.764 20.88 42.8973 21.6 46.6306 23.04C50.4173 24.48 53.6973 26.5333 56.4706 29.2C59.244 31.8133 61.404 34.88 62.9506 38.4C64.5506 41.92 65.3506 45.7867 65.3506 50C65.3506 54.2133 64.5506 58.1067 62.9506 61.68C61.404 65.2 59.244 68.2667 56.4706 70.88C53.6973 73.4933 50.4173 75.52 46.6306 76.96C42.8973 78.4 38.764 79.12 34.2306 79.12ZM34.2306 66C36.364 66 38.3373 65.6267 40.1506 64.88C42.0173 64.1333 43.6173 63.0667 44.9506 61.68C46.3373 60.24 47.404 58.5333 48.1506 56.56C48.9506 54.5867 49.3506 52.4 49.3506 50C49.3506 47.5467 48.9506 45.36 48.1506 43.44C47.404 41.4667 46.3373 39.7867 44.9506 38.4C43.6173 36.96 42.0173 35.8667 40.1506 35.12C38.3373 34.3733 36.364 34 34.2306 34C32.0973 34 30.0973 34.3733 28.2306 35.12C26.4173 35.8667 24.8173 36.96 23.4306 38.4C22.0973 39.7867 21.0306 41.4667 20.2306 43.44C19.484 45.36 19.1106 47.5467 19.1106 50C19.1106 52.4 19.484 54.5867 20.2306 56.56C21.0306 58.5333 22.0973 60.24 23.4306 61.68C24.8173 63.0667 26.4173 64.1333 28.2306 64.88C30.0973 65.6267 32.0973 66 34.2306 66ZM85.5669 70L85.9669 51.84L103.647 34.64H121.647L102.047 54.88L94.2869 61.12L85.5669 70ZM72.9269 78V18.64H88.1269V78H72.9269ZM104.767 78L91.4869 61.36L100.927 49.68L123.167 78H104.767ZM126.872 90.56L132.872 69.76L135.032 78.4C132.365 78.4 130.179 77.6267 128.472 76.08C126.765 74.48 125.912 72.3467 125.912 69.68C125.912 66.9067 126.765 64.72 128.472 63.12C130.232 61.52 132.419 60.72 135.032 60.72C137.645 60.72 139.805 61.5467 141.512 63.2C143.219 64.8 144.072 66.96 144.072 69.68C144.072 70.4267 144.019 71.1733 143.912 71.92C143.805 72.6667 143.565 73.5733 143.192 74.64C142.819 75.7067 142.232 77.12 141.432 78.88L136.392 90.56H126.872ZM193.849 78.72C188.303 78.72 183.983 77.36 180.889 74.64C177.796 71.8667 176.249 67.7067 176.249 62.16V24.96H191.449V62C191.449 63.5467 191.876 64.7733 192.729 65.68C193.583 66.5333 194.676 66.96 196.009 66.96C197.823 66.96 199.369 66.5067 200.649 65.6L204.409 76.24C203.129 77.0933 201.556 77.7067 199.689 78.08C197.823 78.5067 195.876 78.72 193.849 78.72ZM169.929 47.6V36.24H201.369V47.6H169.929ZM238.511 33.92C241.871 33.92 244.911 34.6133 247.631 36C250.351 37.3333 252.484 39.4133 254.031 42.24C255.631 45.0667 256.431 48.72 256.431 53.2V78H241.231V55.68C241.231 52.5867 240.591 50.3467 239.311 48.96C238.084 47.52 236.351 46.8 234.111 46.8C232.511 46.8 231.044 47.1733 229.711 47.92C228.377 48.6133 227.337 49.7067 226.591 51.2C225.844 52.6933 225.471 54.64 225.471 57.04V78H210.271V18.64H225.471V46.96L221.951 43.36C223.604 40.2133 225.871 37.8667 228.751 36.32C231.631 34.72 234.884 33.92 238.511 33.92ZM292.454 78V69.92L291.414 67.92V53.04C291.414 50.64 290.667 48.8 289.174 47.52C287.734 46.1867 285.414 45.52 282.214 45.52C280.134 45.52 278.027 45.8667 275.894 46.56C273.76 47.2 271.947 48.1067 270.454 49.28L265.334 38.96C267.787 37.36 270.72 36.1333 274.134 35.28C277.6 34.3733 281.04 33.92 284.454 33.92C291.494 33.92 296.934 35.5467 300.774 38.8C304.667 42 306.614 47.04 306.614 53.92V78H292.454ZM279.654 78.72C276.187 78.72 273.254 78.1333 270.854 76.96C268.454 75.7867 266.614 74.1867 265.334 72.16C264.107 70.1333 263.494 67.8667 263.494 65.36C263.494 62.6933 264.16 60.4 265.494 58.48C266.88 56.5067 268.987 55.0133 271.814 54C274.64 52.9333 278.294 52.4 282.774 52.4H293.014V60.32H284.854C282.4 60.32 280.667 60.72 279.654 61.52C278.694 62.32 278.214 63.3867 278.214 64.72C278.214 66.0533 278.72 67.12 279.734 67.92C280.747 68.72 282.134 69.12 283.894 69.12C285.547 69.12 287.04 68.72 288.374 67.92C289.76 67.0667 290.774 65.7867 291.414 64.08L293.494 69.68C292.694 72.6667 291.12 74.9333 288.774 76.48C286.48 77.9733 283.44 78.72 279.654 78.72ZM335.568 78.72C330.021 78.72 325.701 77.36 322.608 74.64C319.515 71.8667 317.968 67.7067 317.968 62.16V24.96H333.168V62C333.168 63.5467 333.595 64.7733 334.448 65.68C335.301 66.5333 336.395 66.96 337.728 66.96C339.541 66.96 341.088 66.5067 342.368 65.6L346.128 76.24C344.848 77.0933 343.275 77.7067 341.408 78.08C339.541 78.5067 337.595 78.72 335.568 78.72ZM311.648 47.6V36.24H343.088V47.6H311.648ZM350.309 47.76L356.309 26.96L358.469 35.6C355.803 35.6 353.616 34.8267 351.909 33.28C350.203 31.68 349.349 29.5467 349.349 26.88C349.349 24.16 350.203 22 351.909 20.4C353.669 18.7467 355.856 17.92 358.469 17.92C361.083 17.92 363.243 18.7467 364.949 20.4C366.656 22 367.509 24.16 367.509 26.88C367.509 27.6267 367.456 28.4 367.349 29.2C367.243 29.9467 367.003 30.8533 366.629 31.92C366.309 32.9333 365.749 34.32 364.949 36.08L359.829 47.76H350.309ZM388.921 78.72C385.241 78.72 381.641 78.2933 378.121 77.44C374.655 76.5867 371.855 75.52 369.721 74.24L374.281 63.84C376.308 65.0667 378.681 66.0533 381.401 66.8C384.121 67.4933 386.788 67.84 389.401 67.84C391.961 67.84 393.721 67.5733 394.681 67.04C395.695 66.5067 396.201 65.7867 396.201 64.88C396.201 64.0267 395.721 63.4133 394.761 63.04C393.855 62.6133 392.628 62.2933 391.081 62.08C389.588 61.8667 387.935 61.6267 386.121 61.36C384.308 61.0933 382.468 60.7467 380.601 60.32C378.788 59.84 377.108 59.1467 375.561 58.24C374.068 57.28 372.868 56 371.961 54.4C371.055 52.8 370.601 50.7733 370.601 48.32C370.601 45.5467 371.401 43.0933 373.001 40.96C374.655 38.7733 377.055 37.0667 380.201 35.84C383.348 34.56 387.188 33.92 391.721 33.92C394.761 33.92 397.828 34.24 400.921 34.88C404.068 35.4667 406.708 36.3733 408.841 37.6L404.281 47.92C402.148 46.6933 400.015 45.8667 397.881 45.44C395.748 44.96 393.721 44.72 391.801 44.72C389.241 44.72 387.428 45.0133 386.361 45.6C385.348 46.1867 384.841 46.9067 384.841 47.76C384.841 48.6133 385.295 49.28 386.201 49.76C387.108 50.1867 388.308 50.5333 389.801 50.8C391.348 51.0133 393.028 51.2533 394.841 51.52C396.655 51.7333 398.468 52.08 400.281 52.56C402.148 53.04 403.828 53.76 405.321 54.72C406.868 55.6267 408.095 56.88 409.001 58.48C409.908 60.0267 410.361 62.0267 410.361 64.48C410.361 67.1467 409.535 69.5467 407.881 71.68C406.281 73.8133 403.881 75.52 400.681 76.8C397.535 78.08 393.615 78.72 388.921 78.72ZM440.193 78V34.64H455.393V78H440.193ZM447.793 29.84C445.019 29.84 442.779 29.0667 441.073 27.52C439.366 25.9733 438.513 24.0533 438.513 21.76C438.513 19.4667 439.366 17.5467 441.073 16C442.779 14.4533 445.019 13.68 447.793 13.68C450.566 13.68 452.806 14.4267 454.513 15.92C456.219 17.36 457.073 19.2267 457.073 21.52C457.073 23.92 456.219 25.92 454.513 27.52C452.859 29.0667 450.619 29.84 447.793 29.84ZM484.631 78.72C479.084 78.72 474.764 77.36 471.671 74.64C468.577 71.8667 467.031 67.7067 467.031 62.16V24.96H482.231V62C482.231 63.5467 482.657 64.7733 483.511 65.68C484.364 66.5333 485.457 66.96 486.791 66.96C488.604 66.96 490.151 66.5067 491.431 65.6L495.191 76.24C493.911 77.0933 492.337 77.7067 490.471 78.08C488.604 78.5067 486.657 78.72 484.631 78.72ZM460.711 47.6V36.24H492.151V47.6H460.711ZM508.233 78.72C505.673 78.72 503.513 77.8667 501.753 76.16C499.993 74.4533 499.113 72.2933 499.113 69.68C499.113 66.96 499.993 64.8 501.753 63.2C503.513 61.5467 505.673 60.72 508.233 60.72C510.793 60.72 512.953 61.5467 514.713 63.2C516.473 64.8 517.353 66.96 517.353 69.68C517.353 72.2933 516.473 74.4533 514.713 76.16C512.953 77.8667 510.793 78.72 508.233 78.72ZM40.0531 176V120H55.8931V163.44H82.6131V176H40.0531ZM110.725 176.72C105.605 176.72 101.125 175.76 97.285 173.84C93.4983 171.867 90.5383 169.2 88.405 165.84C86.325 162.427 85.285 158.56 85.285 154.24C85.285 149.92 86.2983 146.08 88.325 142.72C90.405 139.307 93.2583 136.667 96.885 134.8C100.512 132.88 104.592 131.92 109.125 131.92C113.392 131.92 117.285 132.8 120.805 134.56C124.325 136.267 127.125 138.8 129.205 142.16C131.285 145.52 132.325 149.6 132.325 154.4C132.325 154.933 132.298 155.547 132.245 156.24C132.192 156.933 132.138 157.573 132.085 158.16H97.765V150.16H124.005L118.245 152.4C118.298 150.427 117.925 148.72 117.125 147.28C116.378 145.84 115.312 144.72 113.925 143.92C112.592 143.12 111.018 142.72 109.205 142.72C107.392 142.72 105.792 143.12 104.405 143.92C103.072 144.72 102.032 145.867 101.285 147.36C100.538 148.8 100.165 150.507 100.165 152.48V154.8C100.165 156.933 100.592 158.773 101.445 160.32C102.352 161.867 103.632 163.067 105.285 163.92C106.938 164.72 108.912 165.12 111.205 165.12C113.338 165.12 115.152 164.827 116.645 164.24C118.192 163.6 119.712 162.64 121.205 161.36L129.205 169.68C127.125 171.973 124.565 173.733 121.525 174.96C118.485 176.133 114.885 176.72 110.725 176.72ZM158.693 176.72C153.146 176.72 148.826 175.36 145.733 172.64C142.64 169.867 141.093 165.707 141.093 160.16V122.96H156.293V160C156.293 161.547 156.72 162.773 157.573 163.68C158.426 164.533 159.52 164.96 160.853 164.96C162.666 164.96 164.213 164.507 165.493 163.6L169.253 174.24C167.973 175.093 166.4 175.707 164.533 176.08C162.666 176.507 160.72 176.72 158.693 176.72ZM134.773 145.6V134.24H166.213V145.6H134.773ZM173.434 145.76L179.434 124.96L181.594 133.6C178.928 133.6 176.741 132.827 175.034 131.28C173.328 129.68 172.474 127.547 172.474 124.88C172.474 122.16 173.328 120 175.034 118.4C176.794 116.747 178.981 115.92 181.594 115.92C184.208 115.92 186.368 116.747 188.074 118.4C189.781 120 190.634 122.16 190.634 124.88C190.634 125.627 190.581 126.4 190.474 127.2C190.368 127.947 190.128 128.853 189.754 129.92C189.434 130.933 188.874 132.32 188.074 134.08L182.954 145.76H173.434ZM212.046 176.72C208.366 176.72 204.766 176.293 201.246 175.44C197.78 174.587 194.98 173.52 192.846 172.24L197.406 161.84C199.433 163.067 201.806 164.053 204.526 164.8C207.246 165.493 209.913 165.84 212.526 165.84C215.086 165.84 216.846 165.573 217.806 165.04C218.82 164.507 219.326 163.787 219.326 162.88C219.326 162.027 218.846 161.413 217.886 161.04C216.98 160.613 215.753 160.293 214.206 160.08C212.713 159.867 211.06 159.627 209.246 159.36C207.433 159.093 205.593 158.747 203.726 158.32C201.913 157.84 200.233 157.147 198.686 156.24C197.193 155.28 195.993 154 195.086 152.4C194.18 150.8 193.726 148.773 193.726 146.32C193.726 143.547 194.526 141.093 196.126 138.96C197.78 136.773 200.18 135.067 203.326 133.84C206.473 132.56 210.313 131.92 214.846 131.92C217.886 131.92 220.953 132.24 224.046 132.88C227.193 133.467 229.833 134.373 231.966 135.6L227.406 145.92C225.273 144.693 223.14 143.867 221.006 143.44C218.873 142.96 216.846 142.72 214.926 142.72C212.366 142.72 210.553 143.013 209.486 143.6C208.473 144.187 207.966 144.907 207.966 145.76C207.966 146.613 208.42 147.28 209.326 147.76C210.233 148.187 211.433 148.533 212.926 148.8C214.473 149.013 216.153 149.253 217.966 149.52C219.78 149.733 221.593 150.08 223.406 150.56C225.273 151.04 226.953 151.76 228.446 152.72C229.993 153.627 231.22 154.88 232.126 156.48C233.033 158.027 233.486 160.027 233.486 162.48C233.486 165.147 232.66 167.547 231.006 169.68C229.406 171.813 227.006 173.52 223.806 174.8C220.66 176.08 216.74 176.72 212.046 176.72ZM290.598 176.72C286.918 176.72 283.771 175.92 281.158 174.32C278.544 172.667 276.544 170.213 275.158 166.96C273.824 163.653 273.158 159.44 273.158 154.32C273.158 149.147 273.798 144.933 275.078 141.68C276.358 138.373 278.278 135.92 280.838 134.32C283.451 132.72 286.704 131.92 290.598 131.92C294.544 131.92 298.118 132.853 301.318 134.72C304.571 136.533 307.131 139.12 308.998 142.48C310.918 145.787 311.878 149.733 311.878 154.32C311.878 158.907 310.918 162.88 308.998 166.24C307.131 169.6 304.571 172.187 301.318 174C298.118 175.813 294.544 176.72 290.598 176.72ZM263.318 191.52V132.64H277.798V140L277.718 154.32L278.518 168.72V191.52H263.318ZM287.398 164.64C289.104 164.64 290.624 164.24 291.958 163.44C293.344 162.64 294.438 161.467 295.238 159.92C296.091 158.373 296.518 156.507 296.518 154.32C296.518 152.133 296.091 150.267 295.238 148.72C294.438 147.173 293.344 146 291.958 145.2C290.624 144.4 289.104 144 287.398 144C285.691 144 284.144 144.4 282.758 145.2C281.424 146 280.331 147.173 279.478 148.72C278.678 150.267 278.278 152.133 278.278 154.32C278.278 156.507 278.678 158.373 279.478 159.92C280.331 161.467 281.424 162.64 282.758 163.44C284.144 164.24 285.691 164.64 287.398 164.64ZM318.943 176V116.64H334.143V176H318.943ZM370.501 176V167.92L369.461 165.92V151.04C369.461 148.64 368.714 146.8 367.221 145.52C365.781 144.187 363.461 143.52 360.261 143.52C358.181 143.52 356.074 143.867 353.941 144.56C351.807 145.2 349.994 146.107 348.501 147.28L343.381 136.96C345.834 135.36 348.767 134.133 352.181 133.28C355.647 132.373 359.087 131.92 362.501 131.92C369.541 131.92 374.981 133.547 378.821 136.8C382.714 140 384.661 145.04 384.661 151.92V176H370.501ZM357.701 176.72C354.234 176.72 351.301 176.133 348.901 174.96C346.501 173.787 344.661 172.187 343.381 170.16C342.154 168.133 341.541 165.867 341.541 163.36C341.541 160.693 342.207 158.4 343.541 156.48C344.927 154.507 347.034 153.013 349.861 152C352.687 150.933 356.341 150.4 360.821 150.4H371.061V158.32H362.901C360.447 158.32 358.714 158.72 357.701 159.52C356.741 160.32 356.261 161.387 356.261 162.72C356.261 164.053 356.767 165.12 357.781 165.92C358.794 166.72 360.181 167.12 361.941 167.12C363.594 167.12 365.087 166.72 366.421 165.92C367.807 165.067 368.821 163.787 369.461 162.08L371.541 167.68C370.741 170.667 369.167 172.933 366.821 174.48C364.527 175.973 361.487 176.72 357.701 176.72ZM400.914 192.24C398.62 192.24 396.3 191.867 393.954 191.12C391.66 190.427 389.794 189.493 388.354 188.32L393.634 177.68C394.54 178.48 395.58 179.093 396.754 179.52C397.98 180 399.18 180.24 400.354 180.24C402.007 180.24 403.314 179.867 404.274 179.12C405.234 178.373 406.06 177.2 406.754 175.6L408.754 170.56L409.954 169.04L424.674 132.64H439.154L420.434 177.76C418.94 181.493 417.207 184.4 415.234 186.48C413.314 188.613 411.154 190.107 408.754 190.96C406.407 191.813 403.794 192.24 400.914 192.24ZM406.834 177.84L387.714 132.64H403.314L417.394 167.68L406.834 177.84ZM467.484 155.6L464.524 120H482.604L479.564 155.6H467.484ZM473.564 176.72C470.898 176.72 468.711 175.893 467.004 174.24C465.298 172.587 464.444 170.613 464.444 168.32C464.444 165.973 465.298 164.027 467.004 162.48C468.711 160.88 470.898 160.08 473.564 160.08C476.231 160.08 478.391 160.88 480.044 162.48C481.751 164.027 482.604 165.973 482.604 168.32C482.604 170.613 481.751 172.587 480.044 174.24C478.391 175.893 476.231 176.72 473.564 176.72Z" fill="black"/>
</svg>
