<svg width="551" height="557" viewBox="0 0 551 557" fill="none" xmlns="http://www.w3.org/2000/svg">
<path d="M85.0725 525.895C181.6 573.394 328.243 567.822 433.814 481.174C444.688 472.249 474.367 446.667 501.772 408.559H234.782C205.872 408.559 178.147 420.044 157.706 440.484C137.264 460.928 109.539 472.41 80.6301 472.41H15.0859C33.9659 500.742 64.4301 515.735 85.0726 525.895L85.0725 525.895Z" fill="white"/>
<path d="M85.368 525.294C176.592 570.181 325.427 569.263 433.387 480.655C447.563 469.021 475.004 444.358 500.461 409.231H234.781C205.844 409.231 178.64 420.5 158.179 440.959C137.464 461.676 109.923 473.082 80.629 473.082H16.3474C35.1838 500.6 65.3332 515.435 85.368 525.294ZM220.582 556.31C171.737 556.31 124.519 546.053 84.7756 526.497C64.3604 516.45 33.5089 501.269 14.5269 472.784C14.3895 472.578 14.3767 472.313 14.4934 472.094C14.6105 471.879 14.8376 471.742 15.085 471.742H80.6291C109.565 471.742 136.769 460.473 157.231 440.011C177.945 419.297 205.485 407.891 234.781 407.891H501.771C502.024 407.891 502.255 408.03 502.367 408.255C502.483 408.477 502.464 408.748 502.315 408.952C476.558 444.765 448.609 469.9 434.239 481.692C384.456 522.552 322.864 547.732 256.119 554.508C244.236 555.714 232.358 556.31 220.582 556.31Z" fill="black"/>
<path d="M394.127 293.87V194.279H462.422V293.87H394.127ZM312.984 293.87V194.279H381.28V293.87H312.984ZM231.839 293.87V194.279H300.138V293.87H231.839ZM300.138 81.841V181.432H231.839V81.841H300.138ZM381.28 81.841V181.432H312.984V81.841H381.28ZM462.422 81.841V181.432H394.127V81.841H462.422ZM549.988 293.87H475.269V194.279H548.03C546.833 189.929 545.516 185.646 544.082 181.432H475.269V81.8411H478.254C477.27 80.9234 476.269 80.0169 475.269 79.1133V79.0912C472.643 76.7203 469.971 74.4059 467.259 72.1369C467.238 72.1187 467.213 72.1002 467.192 72.0813C465.614 70.7614 464.027 69.4518 462.422 68.1658V68.9945H394.127V26.721C389.868 24.8147 385.585 22.9937 381.28 21.2807V68.9945H312.984V2.41045C308.68 1.7304 304.394 1.14461 300.138 0.667969V68.9945H231.839V0.859192C227.562 1.32766 223.279 1.88026 218.992 2.51719V411.428H231.839V306.717H300.138V411.428H312.984V306.717H381.28V411.428H394.127V306.717H462.422V411.428H475.269V306.717H549.988V293.87L549.988 293.87Z" fill="white"/>
<path d="M232.507 180.763H299.462V82.5137H232.507V180.763ZM300.134 182.105H231.836C231.468 182.105 231.167 181.805 231.167 181.434V81.8431C231.167 81.4722 231.468 81.1722 231.836 81.1722H300.134C300.505 81.1722 300.803 81.4722 300.803 81.8431V181.434C300.803 181.805 300.505 182.105 300.134 182.105ZM313.65 180.763H380.605V82.5137H313.65V180.763ZM381.277 182.105H312.981C312.61 182.105 312.309 181.805 312.309 181.434V81.8431C312.309 81.4722 312.61 81.1722 312.981 81.1722H381.277C381.647 81.1722 381.948 81.4722 381.948 81.8431V181.434C381.948 181.805 381.647 182.105 381.277 182.105ZM394.792 180.763H461.75V82.5137H394.792V180.763ZM462.419 182.105H394.123C393.753 182.105 393.452 181.805 393.452 181.434V81.8431C393.452 81.4722 393.752 81.1722 394.123 81.1722H462.419C462.79 81.1722 463.091 81.4722 463.091 81.8431V181.434C463.091 181.805 462.79 182.105 462.419 182.105ZM232.507 293.203H299.462V194.952H232.507V293.203ZM300.134 294.544H231.836C231.468 294.544 231.167 294.243 231.167 293.872V194.281C231.167 193.911 231.468 193.611 231.836 193.611H300.134C300.505 193.611 300.803 193.911 300.803 194.281V293.872C300.803 294.243 300.505 294.544 300.134 294.544ZM313.65 293.203H380.605V194.952H313.65V293.203ZM381.277 294.544H312.981C312.61 294.544 312.309 294.243 312.309 293.872V194.281C312.309 193.911 312.61 193.611 312.981 193.611H381.277C381.647 193.611 381.948 193.911 381.948 194.281V293.872C381.948 294.243 381.647 294.544 381.277 294.544ZM394.792 293.203H461.75V194.952H394.792V293.203ZM462.419 294.544H394.123C393.753 294.544 393.452 294.243 393.452 293.872V194.281C393.452 193.911 393.753 193.611 394.123 193.611H462.419C462.79 193.611 463.091 193.911 463.091 194.281V293.872C463.091 294.243 462.79 294.544 462.419 294.544ZM463.091 410.758H474.594V306.719C474.594 306.348 474.895 306.047 475.266 306.047H549.316V294.544H475.266C474.895 294.544 474.594 294.243 474.594 293.872V194.281C474.594 193.911 474.895 193.611 475.266 193.611H547.146C546.057 189.719 544.866 185.855 543.598 182.105H475.266C474.895 182.105 474.594 181.805 474.594 181.434V81.843C474.594 81.4722 474.895 81.1721 475.266 81.1721H476.534C475.962 80.6501 475.391 80.1313 474.816 79.6133C474.779 79.5798 474.746 79.5424 474.719 79.5017C472.253 77.2792 469.599 74.9761 466.827 72.6533L466.754 72.5934C465.337 71.4079 464.097 70.3853 462.927 69.4367C462.802 69.5784 462.623 69.6675 462.419 69.6675H394.123C393.753 69.6675 393.452 69.3675 393.452 68.9966V27.158C389.536 25.4104 385.672 23.77 381.948 22.2731V68.9966C381.948 69.3675 381.647 69.6675 381.277 69.6675H312.981C312.61 69.6675 312.309 69.3675 312.309 68.9966V2.98618C308.394 2.37515 304.53 1.84984 300.803 1.42121V68.9966C300.803 69.3675 300.505 69.6675 300.134 69.6675H231.836C231.468 69.6675 231.167 69.3675 231.167 68.9966V1.61062C227.346 2.03765 223.482 2.53683 219.661 3.09832V410.758H231.167V306.719C231.167 306.348 231.468 306.047 231.836 306.047H300.134C300.505 306.047 300.803 306.348 300.803 306.719V410.758H312.309V306.719C312.309 306.348 312.61 306.047 312.981 306.047H381.277C381.647 306.047 381.948 306.348 381.948 306.719V410.758H393.452V306.719C393.452 306.348 393.753 306.047 394.123 306.047H462.419C462.79 306.047 463.091 306.348 463.091 306.719V410.758ZM475.266 412.102H462.419C462.048 412.102 461.75 411.801 461.75 411.43V307.391H394.792V411.43C394.792 411.801 394.494 412.102 394.124 412.102H381.277C380.906 412.102 380.605 411.801 380.605 411.43V307.391H313.65V411.43C313.65 411.801 313.352 412.102 312.981 412.102H300.134C299.764 412.102 299.463 411.801 299.463 411.43V307.391H232.508V411.43C232.508 411.801 232.207 412.102 231.836 412.102H218.989C218.621 412.102 218.32 411.801 218.32 411.43V2.51925C218.32 2.18699 218.564 1.90485 218.892 1.85561C223.163 1.22086 227.495 0.662148 231.763 0.194555C231.954 0.173324 232.143 0.234392 232.286 0.36207C232.426 0.489164 232.508 0.670689 232.508 0.861257V68.326H299.463V0.670106C299.463 0.479464 299.545 0.297352 299.688 0.17033C299.831 0.0432359 300.019 -0.0145469 300.207 0.00310911C304.363 0.468805 308.695 1.05649 313.085 1.75018C313.41 1.80126 313.65 2.08244 313.65 2.41258V68.326H380.605V21.2827C380.605 21.0608 380.718 20.8523 380.9 20.7279C381.085 20.6027 381.316 20.5766 381.526 20.6598C385.673 22.3106 390.005 24.144 394.397 26.1105C394.637 26.2187 394.793 26.4585 394.793 26.723V68.3259H461.75V68.1678C461.75 67.9098 461.896 67.6748 462.13 67.5631C462.362 67.4506 462.638 67.4814 462.839 67.6447C464.292 68.8092 465.812 70.0565 467.621 71.5689L467.681 71.6215C470.509 73.9887 473.211 76.334 475.716 78.5952C475.752 78.6286 475.786 78.6666 475.813 78.7065C476.783 79.5832 477.753 80.4621 478.707 81.3515C478.911 81.5397 478.978 81.8318 478.878 82.0887C478.774 82.3447 478.528 82.5137 478.251 82.5137H475.938V180.763H544.078C544.364 180.763 544.62 180.946 544.714 181.218C546.139 185.406 547.471 189.741 548.675 194.103C548.73 194.305 548.69 194.521 548.562 194.688C548.435 194.854 548.237 194.952 548.027 194.952H475.938V293.203H549.985C550.356 293.203 550.657 293.501 550.657 293.872V306.719C550.657 307.09 550.356 307.391 549.985 307.391H475.938V411.43C475.938 411.801 475.637 412.102 475.266 412.102L475.266 412.102Z" fill="black"/>
<path d="M239.308 46.7613C238.879 49.8256 238.183 55.5093 238.125 60.6058C238.089 63.8063 240.478 66.5054 243.634 66.9131C252.559 68.0649 272.799 69.3241 290.042 67.7509C291.221 67.643 293.31 66.7782 293.89 63.8138C295.842 53.8617 278.627 51.4218 259.752 44.2016C259.01 43.9189 258.174 44.0864 257.605 44.6399L255.572 46.622C253.535 48.6059 250.513 49.1683 247.905 48.0499L241.716 45.3942C240.661 44.9419 239.469 45.6201 239.308 46.7613Z" fill="black"/>
<path d="M239.263 59.7031C239.263 59.7031 239.253 60.1989 239.25 60.4382C239.217 63.51 241.509 66.101 244.54 66.4922C253.103 67.5976 272.532 68.8062 289.081 67.2963C290.215 67.1929 292.218 66.3627 292.778 63.5173C292.948 62.6458 292.842 61.0732 292.842 61.0732L291.668 61.1313C274.946 61.9612 258.186 61.5578 241.521 59.9241L239.263 59.7031Z" fill="white"/>
<path d="M239.927 60.4403V60.4449C239.897 63.1627 241.918 65.4763 244.63 65.8262C253.485 66.9699 272.613 68.1257 289.025 66.6273C289.445 66.5892 291.561 66.2533 292.123 63.3882C292.205 62.9663 292.214 62.3014 292.205 61.7761L291.706 61.8008C275.008 62.631 258.103 62.2228 241.459 60.5909L239.927 60.4405V60.4403ZM271.843 68.6804C260.717 68.6804 250.339 67.9159 244.457 67.1571C241.07 66.7196 238.547 63.8274 238.586 60.43C238.586 60.1895 238.599 59.6883 238.599 59.6883C238.602 59.5016 238.684 59.3246 238.824 59.2004C238.963 59.0764 239.146 59.0156 239.334 59.0347L241.59 59.256C258.167 60.8811 275.008 61.2879 291.64 60.4608L292.813 60.4024C293.178 60.3927 293.494 60.6632 293.518 61.028C293.521 61.0955 293.625 62.6988 293.439 63.6464C292.862 66.5966 290.764 67.8157 289.147 67.9637C283.526 68.4765 277.586 68.6805 271.844 68.6805L271.843 68.6804Z" fill="black"/>
<path d="M264.164 55.6788C263.994 55.6788 263.821 55.6137 263.69 55.4836C263.428 55.2228 263.425 54.7975 263.687 54.5349L270.043 48.1388C270.308 47.8771 270.73 47.8749 270.995 48.1364C271.256 48.3969 271.256 48.8222 270.998 49.0849L264.638 55.4809C264.508 55.6125 264.337 55.6788 264.164 55.6788Z" fill="white"/>
<path d="M270.414 56.3443C270.247 56.3443 270.079 56.2825 269.949 56.1579C269.681 55.9019 269.672 55.4776 269.93 55.2095L275.007 49.9023C275.266 49.635 275.688 49.625 275.956 49.8813C276.223 50.1376 276.235 50.562 275.977 50.8298L270.9 56.1373C270.766 56.2747 270.59 56.3443 270.414 56.3443Z" fill="white"/>
<path d="M399.095 63.8447C399.238 66.0724 401.937 67.859 404.12 68.1922C411.707 69.3504 429.546 68.8606 434.391 69.1987C440.678 69.6374 451.783 69.0691 454.464 65.0446C458.228 59.3991 448.229 52.979 435.614 49.0346C429.09 46.9946 422.189 36.8864 419.134 36.7061C416.079 36.5259 410.674 44.5091 410.674 44.5091L401.979 41.5242C401.979 41.5242 398.377 52.5477 399.095 63.8447H399.095Z" fill="black"/>
<path d="M441.627 63.963C439.961 63.963 438.137 63.8666 436.207 63.765C433.346 63.6152 430.388 63.4586 427.479 63.5929C420.867 63.8972 415.21 63.6333 411.629 63.3589C404.968 62.8487 404.704 62.4262 404.588 62.2454C404.461 62.0417 404.448 61.7784 404.564 61.5663C404.737 61.238 405.145 61.116 405.47 61.2903C405.473 61.2908 405.476 61.2924 405.476 61.293C406.561 61.5744 415.815 62.7853 427.418 62.2527C430.394 62.1159 433.386 62.2721 436.277 62.4257C440.651 62.6542 444.783 62.8722 447.16 61.8504C447.497 61.707 447.892 61.8614 448.041 62.2016C448.187 62.5421 448.029 62.9364 447.689 63.0832C446.111 63.7611 444.038 63.963 441.627 63.963Z" fill="white"/>
<path d="M425.428 56.0194C425.261 56.0194 425.093 55.9565 424.963 55.831C424.695 55.5726 424.689 55.1482 424.948 54.8822L429.526 50.1536C429.784 49.8861 430.21 49.8816 430.474 50.1378C430.742 50.3958 430.748 50.8202 430.489 51.0863L425.911 55.8151C425.781 55.9514 425.604 56.0194 425.428 56.0194Z" fill="white"/>
<path d="M318.956 63.834C318.743 58.4059 318.95 48.6963 322.592 43.3821L334.286 47.5517V45.0501C334.286 44.2445 334.861 43.5803 335.594 43.538L342.114 43.1635C344.549 43.0236 346.975 43.5277 349.197 44.6224C355.773 47.8593 369.55 55.3923 373.411 63.3637C374.484 65.5801 373.049 68.2024 370.608 68.5051C364.348 69.2819 349.836 70.2674 323.057 68.0981C320.813 67.9166 319.044 66.0863 318.956 63.834L318.956 63.834Z" fill="white"/>
<path d="M322.862 44.1891C319.591 49.4473 319.424 58.6808 319.624 63.8056C319.7 65.715 321.199 67.272 323.111 67.4274C349.814 69.5903 364.278 68.613 370.525 67.8375C371.474 67.7195 372.283 67.1684 372.739 66.3248C373.198 65.4842 373.222 64.5108 372.805 63.6536C368.981 55.7589 354.815 48.1337 348.902 45.2221C346.783 44.1791 344.449 43.7018 342.154 43.8307L335.63 44.2055C335.253 44.2271 334.955 44.5971 334.955 45.0479V47.5495C334.955 47.7678 334.849 47.9721 334.672 48.0979C334.493 48.2238 334.265 48.2529 334.061 48.1815L322.862 44.1891ZM352.289 70.0849C344.795 70.0849 335.159 69.7496 323.002 68.765C320.412 68.5546 318.384 66.4454 318.284 63.8579C318.071 58.4249 318.275 48.4903 322.038 43.0008C322.208 42.7506 322.528 42.6475 322.816 42.7478L333.614 46.5982V45.0479C333.614 43.8872 334.465 42.9287 335.554 42.8664L342.074 42.4919C344.61 42.3484 347.169 42.8743 349.492 44.0179C356.995 47.7114 370.151 55.097 374.015 63.0693C374.62 64.3202 374.584 65.7404 373.918 66.9656C373.249 68.1943 372.073 68.9969 370.689 69.1683C367.248 69.596 361.329 70.0849 352.289 70.0849H352.289Z" fill="black"/>
<path d="M349.074 64.8953C342.204 64.8953 333.838 64.5548 324.563 63.4771C324.192 63.4346 323.931 63.1017 323.973 62.7339C324.016 62.3657 324.344 62.1043 324.715 62.1447C349.624 65.0381 367.904 62.5864 368.086 62.5609C368.454 62.5044 368.791 62.7664 368.843 63.1333C368.892 63.5003 368.636 63.8389 368.268 63.889C368.153 63.9057 360.787 64.8953 349.074 64.8953Z" fill="black"/>
<path d="M353.039 56.0986C352.902 56.0986 352.765 56.0573 352.647 55.9722L341.387 47.8638C341.089 47.647 341.019 47.2284 341.235 46.9277C341.451 46.6265 341.87 46.5584 342.171 46.7752L353.431 54.8833C353.732 55.1001 353.799 55.519 353.583 55.8196C353.452 56.0017 353.246 56.0986 353.039 56.0986Z" fill="black"/>
<path d="M510.651 260.876L513.214 263.724C518.284 269.367 524.653 273.692 531.767 276.328L537.232 278.353C537.755 278.544 538.144 278.982 538.278 279.523L538.345 279.797C539.099 282.843 535.621 289.81 524.507 292.233C517.628 293.732 501.537 294.738 482.088 287.387C480.86 286.922 480.072 285.718 480.154 284.405C480.452 279.626 481.601 268.223 485.897 262.563C486.374 261.934 487.283 261.837 487.861 262.378L493.418 267.567C495.91 269.895 499.823 269.753 502.142 267.251L508.061 260.855C508.763 260.098 509.964 260.107 510.651 260.876Z" fill="black"/>
<path d="M513.989 278.157L511.849 277.23C510.7 276.734 509.508 277.847 509.928 279.026L510.694 281.188C511.074 282.264 510.286 283.395 509.146 283.416C501.027 283.55 492.968 281.999 485.477 278.856L480.957 276.98C480.495 279.944 480.264 282.632 480.154 284.404C480.072 285.717 480.86 286.921 482.088 287.386C501.537 294.737 517.628 293.731 524.507 292.232C535.621 289.809 539.099 282.842 538.345 279.796L538.278 279.522C538.144 278.981 537.755 278.543 537.232 278.352L535.177 277.591L533.946 278.23C527.562 280.935 520.352 280.908 513.989 278.157L513.989 278.157Z" fill="white"/>
<path d="M481.49 277.929C481.113 280.552 480.919 282.89 480.821 284.446C480.758 285.468 481.363 286.395 482.323 286.76C504.658 295.199 521.259 292.253 524.363 291.578C532.038 289.903 535.313 286.234 536.583 284.197C537.723 282.367 537.903 280.807 537.693 279.956L537.626 279.683C537.547 279.357 537.31 279.096 537 278.98L535.221 278.321L534.252 278.825C527.685 281.61 520.219 281.583 513.72 278.771L511.583 277.847C511.154 277.661 510.841 277.907 510.756 277.989C510.671 278.068 510.403 278.363 510.558 278.804L511.324 280.965C511.577 281.683 511.473 282.455 511.042 283.078C510.604 283.705 509.92 284.072 509.157 284.084C500.882 284.224 492.838 282.674 485.217 279.473L481.49 277.929ZM512.935 293.961C505.253 293.961 494.437 292.77 481.849 288.015C480.332 287.441 479.383 285.975 479.484 284.364C479.593 282.613 479.821 279.892 480.289 276.877C480.323 276.673 480.448 276.497 480.627 276.396C480.806 276.293 481.022 276.281 481.211 276.36L485.734 278.236C493.185 281.364 501.052 282.887 509.136 282.744C509.458 282.738 509.753 282.583 509.938 282.315C510.124 282.048 510.166 281.719 510.06 281.412L509.294 279.251C509.008 278.448 509.218 277.591 509.841 277.007C510.461 276.43 511.333 276.278 512.115 276.615L514.252 277.539C520.417 280.206 527.497 280.233 533.68 277.609L534.869 276.995C535.036 276.907 535.233 276.895 535.41 276.962L537.465 277.722C538.194 277.992 538.742 278.603 538.927 279.36L538.997 279.634C539.359 281.102 538.894 283.024 537.72 284.908C536.34 287.124 532.808 291.107 524.645 292.885C523.238 293.195 519.097 293.961 512.935 293.961Z" fill="black"/>
<path d="M505.824 154.945L490.886 159.817L482.681 157.244C479.051 162.558 479.161 171.235 479.599 176.211C479.799 178.504 481.581 180.328 483.867 180.598C498.513 182.324 523.824 181.216 535.847 180.534C538.875 180.362 540.319 176.677 538.169 174.539C527.389 163.815 505.824 154.945 505.824 154.945Z" fill="white"/>
<path d="M482.969 158.038C479.704 163.259 479.869 171.582 480.27 176.155C480.44 178.114 481.987 179.703 483.948 179.934C498.282 181.625 522.595 180.617 535.81 179.866C536.956 179.801 537.926 179.09 538.336 178.01C538.743 176.938 538.503 175.819 537.698 175.017C527.724 165.095 508.125 156.645 505.796 155.663L491.098 160.458C490.964 160.5 490.822 160.501 490.688 160.46L482.969 158.038L482.969 158.038ZM504.69 182.196C497.026 182.196 489.602 181.951 483.79 181.266C481.203 180.961 479.16 178.862 478.932 176.272C478.507 171.398 478.352 162.396 482.13 156.867C482.297 156.624 482.601 156.515 482.884 156.606L490.885 159.115L505.617 154.31C505.769 154.261 505.933 154.267 506.079 154.328C506.298 154.417 527.894 163.371 538.643 174.066C539.819 175.234 540.181 176.928 539.588 178.487C538.986 180.068 537.57 181.11 535.886 181.205C527.964 181.655 516.062 182.196 504.69 182.196L504.69 182.196Z" fill="black"/>
<path d="M535.852 180.536C538.879 180.365 540.323 176.68 538.174 174.542C538.165 174.535 538.159 174.528 538.153 174.521C523.154 175.452 496.636 175.762 491.088 172.296C489.064 171.031 484.756 168.938 479.491 168.379C479.293 171.298 479.418 174.093 479.603 176.214C479.804 178.507 481.586 180.331 483.872 180.6C498.518 182.327 523.829 181.219 535.852 180.536Z" fill="white"/>
<path d="M480.116 169.129C479.979 171.881 480.119 174.438 480.271 176.155C480.441 178.114 481.989 179.703 483.949 179.933C498.283 181.624 522.596 180.617 535.811 179.866C536.957 179.8 537.927 179.09 538.334 178.01C538.711 177.021 538.538 175.992 537.875 175.209C526.563 175.893 496.969 176.762 490.732 172.864C489.595 172.154 485.579 169.859 480.116 169.129ZM504.691 182.196C497.027 182.196 489.604 181.95 483.791 181.266C481.204 180.961 479.161 178.861 478.933 176.272C478.766 174.362 478.611 171.435 478.818 168.333C478.833 168.151 478.918 167.982 479.058 167.864C479.198 167.747 479.377 167.691 479.56 167.711C485.661 168.358 490.197 170.948 491.443 171.727C496.769 175.054 522.891 174.794 538.109 173.85C538.313 173.835 538.51 173.918 538.647 174.069C539.821 175.234 540.182 176.929 539.59 178.486C538.988 180.068 537.571 181.11 535.887 181.205C527.965 181.655 516.063 182.196 504.691 182.196Z" fill="black"/>
<path d="M510.193 165.051C509.895 165.051 509.625 164.851 509.546 164.549C509.451 164.191 509.667 163.824 510.026 163.731L517.431 161.799C517.784 161.706 518.155 161.92 518.249 162.279C518.343 162.637 518.127 163.004 517.769 163.097L510.363 165.029C510.306 165.043 510.251 165.051 510.193 165.051Z" fill="black"/>
<path d="M121.948 503.054C121.948 503.054 117.226 526.012 122.076 531.839L123.572 533.66L100.203 532.523C100.203 532.523 109.824 508.207 110.698 498.062L121.948 503.054Z" fill="white"/>
<path d="M103.972 550.037L119.986 550.089H119.999C122.835 550.089 125.198 548.006 125.62 545.137C126.269 540.717 122.842 525.839 121.391 523.903C121.25 523.714 121.048 523.602 120.824 523.581C120.628 523.562 120.439 523.626 120.29 523.751L118.735 525.681C118.34 526.174 117.737 526.393 117.12 526.277C116.493 526.159 115.984 525.699 115.791 525.082L115.002 522.559C114.827 522 114.332 521.605 113.77 521.58L109.173 521.364C108.677 521.325 108.223 521.608 107.989 522.055L106.464 524.985C106.177 525.535 105.638 525.876 105.021 525.891C104.395 525.937 103.819 525.581 103.499 525.037L102.577 523.471C102.5 523.401 102.379 523.365 102.305 523.365C102.188 523.368 102.079 523.419 101.998 523.511C99.1189 526.833 95.5409 540.148 98.4884 546.563C99.5691 548.912 101.381 550.068 103.972 550.037L103.972 550.037ZM119.998 551.429H119.982L103.973 551.378C100.861 551.408 98.5564 549.922 97.2696 547.122C94.0725 540.166 97.846 526.256 100.984 522.632C101.316 522.249 101.794 522.027 102.296 522.024C102.785 522.027 103.277 522.234 103.615 522.614C103.644 522.647 103.67 522.684 103.692 522.72L104.655 524.356C104.761 524.535 104.922 524.556 104.986 524.55C105.059 524.547 105.193 524.523 105.274 524.365L106.799 521.437C107.27 520.531 108.229 519.975 109.235 520.027L113.833 520.24C114.956 520.291 115.941 521.063 116.283 522.161L117.071 524.684C117.137 524.894 117.302 524.946 117.37 524.961C117.443 524.973 117.582 524.976 117.691 524.842L119.278 522.869C119.297 522.845 119.318 522.824 119.34 522.802C119.768 522.398 120.348 522.197 120.938 522.243C121.54 522.295 122.096 522.608 122.465 523.097C124.295 525.538 127.613 540.799 126.948 545.331C126.428 548.867 123.507 551.429 119.998 551.429L119.998 551.429Z" fill="black"/>
<path d="M103.969 550.71L119.978 550.761C123.141 550.77 125.808 548.436 126.278 545.238C126.458 544.01 126.326 541.942 126.006 539.547C123.908 541.599 120.685 543.313 116.222 543.821C113.556 544.125 107.863 544.222 104.422 543.259C101.222 542.365 98.5903 541.201 96.7316 539.55C96.5495 545.517 98.2635 550.74 103.969 550.71Z" fill="white"/>
<path d="M231.341 497.233C231.341 497.233 228.282 508.663 231.502 524.036L217.497 532.651L206.711 523.151L211.93 516.649C216.047 510.104 216.956 499.248 217.336 493.621L231.341 497.233Z" fill="white"/>
<path d="M233.436 520.179L235.388 523.294C239.252 529.466 244.56 534.603 250.849 538.266L255.686 541.081C256.145 541.349 256.443 541.829 256.479 542.361L256.497 542.629C256.707 545.632 252.272 551.648 241.365 552.107C234.616 552.39 219.24 550.688 202.064 540.534C200.979 539.893 200.435 538.625 200.726 537.397C201.797 532.928 204.764 522.34 209.755 517.695C210.311 517.178 211.187 517.236 211.643 517.841L216.042 523.666C218.015 526.277 221.736 526.787 224.341 524.803L230.992 519.735C231.78 519.133 232.91 519.339 233.436 520.178L233.436 520.179Z" fill="white"/>
<path d="M233.74 537.066L231.871 535.841C230.868 535.181 229.557 536.035 229.758 537.221L230.126 539.391C230.308 540.471 229.381 541.41 228.299 541.24C220.599 540.03 213.236 537.236 206.673 533.029L202.709 530.512C201.784 533.239 201.125 535.74 200.726 537.397C200.435 538.625 200.979 539.893 202.064 540.534C219.24 550.688 234.616 552.39 241.365 552.108C252.272 551.648 256.707 545.632 256.497 542.629L256.479 542.358C256.443 541.829 256.145 541.349 255.686 541.082L253.868 540.024L252.597 540.425C246.116 541.93 239.303 540.717 233.74 537.066L233.74 537.066Z" fill="white"/>
<path d="M109.849 504.402C111.635 505.153 118.734 507.816 122.196 504.353C126.415 500.134 145.147 448.968 146.639 439.523C147.165 436.194 148.289 434.574 150.152 431.89C153.455 427.132 159.604 418.28 169.362 387.747C180.17 353.924 190.937 336.28 196.393 328.772C196.535 328.577 196.769 328.474 197.011 328.498C197.251 328.525 197.458 328.68 197.553 328.902C203.964 343.895 211.542 365.807 211.241 385.062C210.91 406.111 214.658 416.982 216.92 421.591C218.057 423.904 218.197 426.625 217.309 429.054C215.643 433.598 213.91 440.949 215.099 450.166C216.698 462.554 215.686 487.886 215.251 498.702C215.166 500.848 215.105 502.399 215.105 502.894C215.105 503.943 222.273 505.496 231.953 506.059C246.754 450.172 243.535 435.468 241.607 426.67C241.504 426.193 241.401 425.731 241.306 425.278C239.376 416.104 240.753 401.542 240.811 400.925C240.911 400.372 249.916 350.729 244.678 308.343C239.707 268.143 219.726 252.028 217.701 250.493H157.181C157.327 254.138 157.721 271.207 153.363 289.581C152.367 293.776 151.117 298.071 149.792 302.619C144.467 320.901 137.173 345.941 134.678 402.953C134.676 403.004 134.668 403.056 134.653 403.108C134.607 403.266 129.957 419.286 121.795 432.732C114.147 445.327 110.238 498.811 109.849 504.402ZM117.222 507.436C113.159 507.436 109.117 505.554 108.86 505.432C108.612 505.317 108.46 505.059 108.478 504.782C108.636 502.371 112.447 445.542 120.648 432.036C128.433 419.213 132.989 404.01 133.342 402.813C135.846 345.698 143.162 320.582 148.504 302.242C149.824 297.713 151.07 293.435 152.058 289.271C156.902 268.845 155.82 250.052 155.809 249.864C155.797 249.678 155.863 249.499 155.989 249.362C156.116 249.228 156.293 249.152 156.478 249.152H217.923C218.06 249.152 218.194 249.195 218.309 249.274C218.531 249.429 240.72 265.395 246.009 308.179C251.272 350.772 242.231 400.615 242.139 401.114C242.133 401.205 240.729 416.031 242.62 425.001C242.714 425.451 242.814 425.91 242.918 426.385C245.003 435.906 248.153 450.297 233.108 506.931C233.029 507.238 232.743 507.454 232.424 507.43C232.378 507.427 227.84 507.177 223.359 506.579C214.902 505.445 213.762 504.08 213.762 502.894C213.762 502.371 213.822 500.891 213.911 498.647C214.306 488.792 215.351 462.615 213.768 450.336C212.546 440.855 214.333 433.276 216.048 428.592C216.814 426.506 216.692 424.168 215.716 422.18C213.4 417.465 209.566 406.373 209.898 385.041C210.19 366.485 203.04 345.358 196.786 330.529C191.193 338.469 180.95 355.894 170.64 388.154C160.82 418.879 154.597 427.841 151.254 432.656C149.441 435.267 148.441 436.705 147.964 439.733C146.459 449.263 127.44 501.006 123.144 505.302C121.54 506.907 119.377 507.436 117.222 507.436Z" fill="black"/>
<path d="M156.735 260.784C173.028 268.445 210.435 260.057 217.94 255.306C219.089 254.576 219.135 254.199 219.135 254.193C217.201 249.852 211.89 237.857 211.89 237.857C208.656 229.521 209.765 225.825 211.049 221.544C212.249 217.541 213.611 213.002 211.83 203.305C208.842 187.045 188.198 166.8 187.99 166.597C187.978 166.585 187.965 166.572 187.954 166.559C187.853 166.445 177.511 155.154 149.928 159.496C138.742 161.256 130.192 168.656 127.056 179.291C124.046 189.497 126.882 200.046 134.457 206.822C159.969 229.637 157.301 256.738 156.735 260.784ZM174.992 265.207C168.045 265.207 160.916 264.38 155.697 261.769C155.428 261.635 155.282 261.34 155.338 261.045C155.392 260.757 160.482 231.895 133.563 207.819C125.598 200.696 122.611 189.619 125.769 178.912C129.056 167.767 138.009 160.013 149.719 158.17C177.776 153.757 188.289 164.92 188.943 165.653C190.033 166.716 210.103 186.486 213.149 203.061C214.988 213.078 213.578 217.781 212.335 221.93C211.07 226.141 210.073 229.466 213.128 237.343C213.128 237.343 218.43 249.311 220.36 253.652C220.555 254.093 220.603 254.792 219.725 255.631C216.864 258.364 204.726 261.973 192.086 263.845C187.634 264.505 181.39 265.207 174.992 265.207L174.992 265.207Z" fill="black"/>
<path d="M195.029 170.353L206.874 199.81C208.232 197.952 211.385 193.959 215.322 191.007C217.778 189.166 223.332 188.091 231.017 186.603C240.234 184.82 251.701 182.6 263.456 178.039C276.191 173.098 280.142 167.306 281.216 163.318C281.979 160.48 281.307 158.363 280.884 157.833C279.893 156.596 266.992 152.43 255.531 150.347C239.894 147.505 207.281 145.546 206.952 145.527C206.84 145.52 206.73 145.485 206.633 145.425C196.559 139.087 185.282 133.781 183.847 135.864C183.684 136.102 183.644 136.366 183.723 136.695C184.268 138.979 189.655 142.355 191.685 143.463C191.963 143.615 192.097 143.941 192.006 144.245C191.914 144.549 191.621 144.749 191.307 144.72C184.041 144.109 172.481 143.782 170.416 145.387C169.001 146.487 168.625 148.604 169.436 150.912C171.104 155.664 177.646 161.143 190.641 160.953C194.646 160.894 197.924 160.299 199.97 159.811C203.058 159.072 206.278 158.849 209.536 159.147C235.558 161.534 244.01 165.611 244.356 165.783C244.602 165.905 244.748 166.163 244.727 166.436C244.706 166.708 244.52 166.941 244.262 167.023C243.833 167.159 233.643 170.31 220.426 167.732C209.166 165.535 197.771 169.339 195.029 170.353H195.029ZM206.709 201.873C206.685 201.873 206.664 201.872 206.64 201.87C206.393 201.844 206.181 201.683 206.086 201.453L193.53 170.221C193.393 169.88 193.556 169.492 193.896 169.351C194.442 169.125 207.433 163.829 220.681 166.415C230.208 168.273 238.276 167.03 241.867 166.246C238.136 164.948 228.503 162.233 209.412 160.483C206.299 160.198 203.229 160.41 200.28 161.116C197.211 161.849 193.974 162.246 190.661 162.295C176.967 162.493 169.986 156.528 168.17 151.357C167.162 148.487 167.707 145.793 169.593 144.328C172.084 142.39 183.18 142.834 188.599 143.178C186.219 141.643 182.937 139.181 182.418 137.007C182.252 136.312 182.364 135.654 182.742 135.104C185.582 130.978 203.284 141.74 207.205 144.198C209.795 144.356 240.645 146.278 255.768 149.027C265.666 150.825 280.41 155.093 281.93 156.995C282.617 157.854 283.383 160.426 282.511 163.667C281.355 167.955 277.197 174.145 263.943 179.29C252.075 183.895 240.541 186.127 231.272 187.921C224.043 189.319 218.334 190.424 216.127 192.08C211.132 195.827 207.305 201.518 207.269 201.575C207.141 201.763 206.931 201.873 206.709 201.873Z" fill="black"/>
<path d="M147.934 161.083C151.665 166.513 173.948 198.195 184.658 196.994C188.964 196.516 192.076 194.753 193.909 191.755C198.349 184.493 194.199 172.109 193.594 170.405L184.576 164.299C181.368 162.127 179.541 158.519 179.689 154.647L180.653 129.372C180.666 129.042 180.917 128.77 181.245 128.731C184.453 128.356 189.338 127.412 190.157 126.491C190.538 125.871 190.172 121.833 190.016 120.109C189.973 119.641 189.934 119.21 189.905 118.843C189.839 118.013 190.077 116.148 190.787 115.385L193.2 112.503C193.405 112.281 193.527 111.985 193.513 111.772C193.506 111.668 193.469 111.638 193.453 111.625C189.503 108.372 188.679 105.913 187.882 103.535C187.534 102.497 187.174 101.423 186.547 100.269C184.263 96.0605 176.916 95.7085 171.486 98.0194C166.965 99.9434 163.709 106.172 162.932 109.776C162.804 110.374 162.435 110.878 161.92 111.157C161.412 111.434 160.823 111.471 160.264 111.257H160.264C159.04 110.793 157.795 110.888 156.85 111.518C155.757 112.248 155.149 113.624 155.09 115.5C154.971 119.301 160.224 122.334 162.487 123.461C163.328 123.881 163.852 124.692 163.821 125.53C162.781 154.08 151.421 159.951 147.934 161.083ZM184.107 198.366C171.416 198.369 147.323 162.596 146.285 161.046C146.158 160.854 146.136 160.612 146.229 160.401C146.322 160.191 146.515 160.043 146.742 160.009C146.885 159.986 161.32 157.307 162.481 125.481C162.494 125.126 162.193 124.814 161.889 124.663C158.79 123.118 153.611 119.87 153.749 115.459C153.841 112.517 155.081 111.085 156.105 110.402C157.416 109.528 159.105 109.383 160.74 110.003C160.982 110.093 161.167 110.04 161.279 109.978C161.452 109.885 161.574 109.712 161.621 109.493C162.457 105.616 166.003 98.8946 170.961 96.7855C176.908 94.2536 185.008 94.6232 187.726 99.6285C188.409 100.886 188.787 102.016 189.153 103.109C189.925 105.409 190.653 107.581 194.307 110.59C194.633 110.859 194.822 111.237 194.851 111.683C194.89 112.266 194.642 112.92 194.205 113.39L191.792 116.272C191.449 116.644 191.186 118.024 191.242 118.736C191.271 119.099 191.31 119.525 191.352 119.988C191.76 124.493 191.829 126.63 191.16 127.382C189.852 128.854 184.111 129.718 181.972 129.994L181.03 154.698C180.899 158.104 182.507 161.278 185.329 163.188L194.526 169.416C194.641 169.493 194.729 169.605 194.777 169.734C194.999 170.317 200.144 184.128 195.054 192.455C192.994 195.825 189.546 197.802 184.807 198.328C184.578 198.354 184.344 198.366 184.107 198.366L184.107 198.366Z" fill="black"/>
<path d="M101.167 531.9L122.091 532.918L121.557 532.264C116.923 526.695 120.487 507.03 121.184 503.452L111.266 499.047C110.083 508.571 102.858 527.546 101.167 531.9ZM123.571 534.332H123.538L100.169 533.192C99.9533 533.182 99.7553 533.067 99.6383 532.887C99.521 532.705 99.4988 532.477 99.5781 532.276C99.6739 532.033 109.173 507.936 110.028 498.004C110.046 497.788 110.168 497.594 110.355 497.484C110.541 497.375 110.769 497.36 110.969 497.448L122.219 502.442C122.507 502.57 122.667 502.88 122.604 503.19C122.557 503.415 118.002 525.896 122.591 531.41L124.089 533.234C124.257 533.441 124.289 533.723 124.17 533.961C124.056 534.189 123.823 534.332 123.571 534.332Z" fill="black"/>
<path d="M121.925 523.504C123.591 525.723 126.925 540.856 126.281 545.236C125.811 548.437 123.145 550.769 119.981 550.76L103.973 550.708C91.9486 550.769 97.6366 527.519 101.488 523.075C101.917 522.579 102.668 522.564 103.112 523.063L104.075 524.698C104.492 525.407 105.493 525.394 105.867 524.677L107.391 521.746C107.745 521.069 108.446 520.661 109.201 520.698L113.799 520.91C114.643 520.95 115.381 521.534 115.64 522.361L116.429 524.884C116.68 525.689 117.694 525.905 118.21 525.264L119.798 523.294C120.417 522.707 121.402 522.804 121.925 523.504L121.925 523.504Z" fill="white"/>
<path d="M103.931 550.039H103.978L119.986 550.091H120C122.836 550.091 125.198 548.008 125.621 545.139C125.751 544.248 125.71 542.795 125.502 540.895C123.635 542.4 120.693 543.987 116.304 544.485C113.359 544.819 107.672 544.862 104.247 543.905C101.369 543.099 99.1141 542.12 97.4017 540.922C97.4762 544.351 98.2751 546.929 99.7376 548.431C100.778 549.498 102.189 550.039 103.931 550.039ZM119.999 551.431H119.982L103.976 551.38H103.93C101.813 551.38 100.08 550.702 98.777 549.367C96.8679 547.407 95.931 544.005 96.0678 539.527C96.0757 539.266 96.2335 539.035 96.4724 538.931C96.7111 538.825 96.9886 538.873 97.1838 539.047C98.832 540.512 101.261 541.676 104.608 542.613C107.823 543.509 113.398 543.467 116.153 543.154C121.027 542.597 123.95 540.624 125.544 539.068C125.725 538.889 125.991 538.828 126.231 538.913C126.471 538.995 126.644 539.205 126.678 539.457C127.035 542.138 127.127 544.114 126.948 545.333C126.428 548.869 123.507 551.431 119.999 551.431Z" fill="black"/>
<path d="M207.634 523.071L217.565 531.817L230.75 523.71C228.108 510.653 229.962 500.357 230.54 497.718L217.948 494.471C217.602 499.43 216.659 510.389 212.495 517.004C212.482 517.025 212.467 517.046 212.452 517.067L207.634 523.071ZM217.495 533.319C217.337 533.319 217.179 533.264 217.052 533.152L206.266 523.655C205.998 523.418 205.962 523.01 206.187 522.731L211.382 516.259C215.589 509.537 216.371 497.943 216.666 493.575C216.678 493.377 216.781 493.195 216.942 493.076C217.103 492.96 217.31 492.921 217.502 492.97L231.507 496.581C231.683 496.627 231.829 496.739 231.92 496.894C232.011 497.046 232.036 497.232 231.99 497.405C231.96 497.517 229.011 508.875 232.157 523.898C232.215 524.175 232.093 524.46 231.853 524.606L217.848 533.222C217.739 533.289 217.617 533.319 217.495 533.319Z" fill="black"/>
<path d="M210.643 518.014C210.487 518.014 210.332 518.075 210.214 518.184C205.341 522.717 202.413 533.238 201.38 537.552C201.155 538.491 201.565 539.458 202.404 539.953C222.118 551.608 238.294 551.563 241.337 551.432C248.861 551.116 252.554 548.194 254.086 546.48C255.461 544.945 255.886 543.507 255.828 542.674L255.81 542.403C255.789 542.093 255.616 541.814 255.348 541.659L250.511 538.844C244.152 535.138 238.726 529.885 234.819 523.647L232.868 520.531C232.716 520.288 232.475 520.124 232.193 520.072C231.907 520.02 231.627 520.087 231.399 520.263L224.745 525.334C223.344 526.401 221.608 526.857 219.863 526.62C218.115 526.38 216.567 525.474 215.506 524.066L211.108 518.245C211.007 518.111 210.861 518.029 210.697 518.014L210.643 518.014ZM240.091 552.797C234.99 552.797 219.784 551.788 201.723 541.108C200.374 540.312 199.711 538.755 200.076 537.239C201.137 532.806 204.158 521.981 209.299 517.202C209.709 516.822 210.263 516.631 210.813 516.679C211.354 516.725 211.852 517.002 212.178 517.436L216.577 523.258C217.422 524.376 218.653 525.1 220.045 525.292C221.437 525.483 222.818 525.118 223.933 524.267L230.585 519.196C231.111 518.798 231.782 518.637 232.433 518.753C233.081 518.871 233.655 519.26 234.005 519.82L235.956 522.936C239.747 528.988 245.015 534.089 251.186 537.682L256.023 540.5C256.674 540.88 257.096 541.555 257.148 542.309L257.166 542.58C257.269 544.036 256.509 545.781 255.087 547.374C253.415 549.246 249.411 552.435 241.392 552.773C241.085 552.788 240.647 552.797 240.091 552.797Z" fill="black"/>
<path d="M203.073 531.539C202.292 533.943 201.726 536.105 201.38 537.555C201.155 538.494 201.565 539.461 202.404 539.956C222.121 551.615 238.291 551.566 241.337 551.435C248.861 551.119 252.554 548.198 254.087 546.483C255.461 544.948 255.886 543.51 255.828 542.677L255.81 542.406C255.789 542.096 255.616 541.817 255.345 541.662L253.786 540.753L252.798 541.063C246.122 542.616 239.06 541.361 233.372 537.628L231.503 536.4C231.144 536.166 230.822 536.339 230.731 536.4C230.639 536.457 230.348 536.685 230.421 537.108L230.788 539.278C230.91 540.008 230.685 540.728 230.165 541.254C229.642 541.78 228.925 542.017 228.195 541.902C220.355 540.671 212.992 537.874 206.311 533.594L203.073 531.539ZM240.087 552.8C234.983 552.8 219.784 551.791 201.723 541.112C200.374 540.315 199.711 538.759 200.076 537.242C200.468 535.603 201.131 533.071 202.073 530.295C202.14 530.101 202.292 529.946 202.486 529.879C202.678 529.809 202.894 529.833 203.067 529.946L207.034 532.463C213.558 536.646 220.747 539.373 228.402 540.577C228.703 540.625 228.998 540.528 229.211 540.312C229.423 540.096 229.515 539.801 229.466 539.503L229.098 537.333C228.958 536.515 229.302 535.728 229.995 535.275C230.688 534.822 231.548 534.825 232.241 535.278L234.111 536.506C239.492 540.039 246.173 541.227 252.445 539.771L253.667 539.385C253.846 539.33 254.041 539.348 254.205 539.443L256.023 540.501C256.673 540.884 257.096 541.558 257.148 542.312L257.166 542.583C257.269 544.039 256.509 545.784 255.087 547.377C253.412 549.25 249.411 552.438 241.391 552.776C241.084 552.788 240.647 552.8 240.087 552.8H240.087Z" fill="black"/>
<path d="M156.479 249.82C156.479 249.82 157.637 268.656 152.711 289.422C147.785 310.191 137.137 331.44 134.009 402.918C134.009 402.918 129.433 418.857 121.223 432.379C113.012 445.903 109.148 504.824 109.148 504.824C109.148 504.824 118.325 509.171 122.671 504.824C127.018 500.477 145.853 448.8 147.302 439.623C148.751 430.448 155.03 434.792 170.002 387.947C184.973 341.098 199.946 325.381 199.946 325.381L205.74 249.82L156.479 249.82Z" fill="black"/>
<path d="M141.559 438.447C140.233 438.447 137.913 438.188 136.095 436.61C134.425 435.163 133.578 432.959 133.578 430.062C133.578 429.692 133.878 429.391 134.249 429.391C134.619 429.391 134.92 429.692 134.92 430.062C134.92 432.552 135.611 434.416 136.974 435.598C139.165 437.498 142.392 437.063 142.424 437.057C142.789 437.006 143.13 437.258 143.182 437.626C143.235 437.994 142.98 438.334 142.613 438.386C142.564 438.392 142.165 438.447 141.559 438.447Z" fill="white"/>
<path d="M217.929 249.82C217.929 249.82 240.035 265.272 245.349 308.257C250.66 351.242 241.485 400.988 241.485 400.988C241.485 400.988 240.035 415.957 241.969 425.134C243.899 434.312 248.246 447.35 232.466 506.754C232.466 506.754 214.439 505.79 214.439 502.89C214.439 499.993 216.369 465.219 214.439 450.247C213.183 440.52 215.19 432.832 216.752 428.636C217.549 426.49 217.433 424.104 216.409 422.052C214.013 417.261 210.244 406.284 210.575 385.05C211.058 354.139 190.773 315.985 190.773 315.985L192.705 249.82L217.929 249.82Z" fill="black"/>
<path d="M229.656 430.379C227.723 430.379 225.564 429.731 223.725 427.585C223.482 427.302 223.516 426.88 223.798 426.64C224.078 426.396 224.5 426.43 224.744 426.709C228.604 431.212 234.082 427.883 234.313 427.74C234.63 427.545 235.043 427.64 235.238 427.953C235.435 428.266 235.341 428.682 235.025 428.877C234.985 428.901 232.578 430.379 229.656 430.379Z" fill="white"/>
<path d="M188.459 166.115C188.459 166.115 209.43 186.524 212.491 203.182C216.206 223.419 206.387 221.807 212.503 237.585C212.503 237.585 217.817 249.577 219.75 253.924C221.681 258.272 174.35 270.346 155.998 261.169C155.998 261.169 161.552 231.949 134.011 207.319C117.487 192.541 125.088 162.725 149.825 158.832C178.172 154.37 188.459 166.115 188.459 166.115Z" fill="white"/>
<path d="M194.153 169.971C194.153 169.971 207.355 164.498 220.554 167.073C233.757 169.649 244.059 166.384 244.059 166.384C244.059 166.384 235.675 162.217 209.477 159.815C206.346 159.528 203.184 159.732 200.126 160.463C197.834 161.011 194.579 161.566 190.652 161.624C170.497 161.921 165.184 148.605 170.005 144.857C173.026 142.508 191.364 144.052 191.364 144.052C191.364 144.052 181.213 138.513 183.296 135.484C185.952 131.62 206.993 144.857 206.993 144.857C206.993 144.857 239.794 146.805 255.651 149.687C266.123 151.59 280.119 155.804 281.408 157.414C282.697 159.024 285.272 170.293 263.7 178.664C242.129 187.036 220.877 187.68 215.727 191.543C210.574 195.407 206.71 201.202 206.71 201.202L194.153 169.971Z" fill="white"/>
<path d="M191.044 95.2267C190.006 92.1782 187.536 89.8335 184.438 88.9556L171.1 85.1766C163.511 83.0268 155.353 85.0955 149.705 90.6017L149.581 90.7227C147.602 92.6519 146.047 94.8868 144.917 97.2932C140.106 94.8473 124.14 87.1566 110.467 80.5975C97.3217 74.292 81.6994 76.3017 70.579 85.7301C61.3354 93.5669 50.6305 99.4951 39.0829 103.171L0.45303 115.47C-0.0421417 115.627 -0.161065 116.273 0.244805 116.597L5.7246 120.967C14.3073 127.813 24.8471 131.748 35.8165 132.202L48.3502 132.721C49.8377 132.782 50.4168 134.682 49.2172 135.563C41.7188 141.07 33.2635 145.137 24.2814 147.558L13.2552 150.531C12.6183 150.702 12.6132 151.603 13.2473 151.783L27.6776 155.865C39.7568 159.282 52.694 157.826 63.7114 151.81L82.0606 141.791C78.3795 149.92 72.7064 156.989 65.5673 162.344C65.0186 162.755 65.3995 163.626 66.0743 163.502L72.5084 162.319C86.8397 159.685 99.2293 150.751 106.255 137.985C111.555 128.354 119.121 120.157 128.299 114.104L142.901 104.472C142.492 108.259 143.027 112.165 144.6 115.821L146.609 120.493C149.653 127.569 156.268 132.462 163.926 133.301L190.041 100.892C191.324 99.3004 191.703 97.1621 191.044 95.2266L191.044 95.2267Z" fill="black"/>
<path d="M160.503 110.631C161.297 110.933 162.099 110.465 162.278 109.635C163.114 105.754 166.555 99.3904 171.225 97.4031C177.208 94.8572 184.719 95.4937 187.138 99.9494C189.248 103.837 188.368 106.569 193.881 111.109C194.409 111.544 194.181 112.433 193.715 112.934L191.279 115.843C190.756 116.405 190.514 118.025 190.575 118.79C190.763 121.156 191.356 126.154 190.659 126.938C189.302 128.465 181.324 129.399 181.324 129.399L180.36 154.674C180.222 158.288 181.959 161.717 184.954 163.745L194.151 169.972C194.151 169.972 203.851 195.538 184.733 197.662C172.512 199.02 146.844 160.673 146.844 160.673C146.844 160.673 161.954 158.381 163.152 125.506C163.175 124.888 162.743 124.339 162.189 124.063C160.066 123.005 154.286 119.803 154.421 115.48C154.565 110.87 157.808 109.608 160.503 110.631Z" fill="white"/>
<path d="M149.826 158.832C150.694 158.696 151.544 158.576 152.378 158.469C168.312 191.586 178.933 195.883 189.001 191.865C195.828 189.14 192.68 175.563 191.968 168.491C199.305 174.639 211.276 182.366 214.817 200.558C217.696 215.351 207.388 221.927 211.68 235.257C204.466 231.992 195.028 229.624 184.493 231.788C170.272 234.713 160.757 240.224 155.455 244.125C153.933 235.965 150.293 225.8 142.102 215.759C144.048 211.503 147.026 204.128 149.398 194.441C152.4 182.183 147.345 166.434 144.939 160.014C146.487 159.508 148.111 159.102 149.826 158.832L149.826 158.832Z" fill="black"/>
<path d="M142.119 161.684C135.084 161.257 114.391 162.391 116.398 190.9C118.813 225.19 118.057 254.167 116.262 258.997C114.467 263.828 114.627 286.205 122.033 320.979C122.033 320.979 123.643 333.856 124.931 341.584C126.218 349.311 133.302 355.431 140.707 361.225C148.113 367.019 151.333 358.005 148.435 352.853C145.537 347.703 144.571 341.584 144.571 341.584C144.571 341.584 147.469 348.667 151.011 349.956C154.552 351.245 151.977 339.653 148.757 335.79C145.537 331.926 138.454 322.909 137.166 321.623C135.878 320.334 132.925 303.289 134.015 296.209C136.933 277.258 133.05 262.362 133.05 262.362C133.05 262.362 132.094 258.28 132.904 253.559C133.704 248.902 136.269 243.649 136.635 236.672C137.119 227.406 134.796 216.547 136.844 209.251C136.844 209.251 143.545 161.771 142.119 161.684L142.119 161.684Z" fill="white"/>
<path d="M145.096 363.776C143.836 363.776 142.239 363.275 140.291 361.752C132.912 355.976 125.596 349.671 124.266 341.691C122.991 334.039 121.381 321.187 121.365 321.059C114.108 286.996 113.641 264.114 115.63 258.761C117.301 254.271 118.168 225.617 115.727 190.945C114.955 179.981 117.421 171.842 123.059 166.755C131.545 159.098 143.997 161.168 144.523 161.259C144.888 161.323 145.132 161.671 145.068 162.035C145.005 162.4 144.657 162.644 144.293 162.581C144.17 162.559 131.943 160.537 123.95 167.757C118.64 172.554 116.324 180.324 117.065 190.851C119.366 223.525 118.869 253.9 116.888 259.229C115.011 264.279 115.556 287.352 122.686 320.837C122.712 321.022 124.319 333.848 125.59 341.472C126.841 348.975 133.947 355.082 141.118 360.694C143.527 362.578 145.65 362.934 147.095 361.691C149.051 360.013 149.409 355.957 147.848 353.179C144.924 347.984 143.946 341.94 143.906 341.688C143.853 341.35 144.06 341.028 144.388 340.937C144.715 340.843 145.061 341.013 145.189 341.329C145.965 343.223 148.565 348.351 151.237 349.324C151.592 349.452 151.668 349.346 151.734 349.251C152.836 347.683 150.864 339.365 148.239 336.216C146.947 334.666 145.007 332.255 143.131 329.92C140.331 326.439 137.436 322.84 136.689 322.092C135.054 320.46 132.53 302.852 133.346 296.125C135.087 281.773 134.34 272.283 133.407 266.847C133.241 265.89 133.032 264.893 132.83 263.932C132.1 260.457 131.344 256.861 132.253 253.386C135.279 241.81 135.185 234.11 135.095 226.665C135.028 221.187 134.965 216.01 136.075 209.517C136.137 209.152 136.481 208.909 136.849 208.97C137.214 209.03 137.46 209.377 137.397 209.742C136.308 216.114 136.37 221.233 136.436 226.65C136.527 234.183 136.622 241.974 133.551 253.727C132.722 256.894 133.445 260.333 134.143 263.655C134.348 264.631 134.559 265.637 134.728 266.622C135.677 272.143 136.439 281.773 134.678 296.286C133.826 303.311 136.527 319.849 137.643 321.15C138.435 321.943 141.224 325.412 144.176 329.081C146.049 331.407 147.985 333.817 149.269 335.356C151.993 338.627 154.503 347.643 152.832 350.02C152.367 350.683 151.619 350.89 150.779 350.583C149.146 349.99 147.671 348.33 146.513 346.616C147.102 348.461 147.919 350.57 149.017 352.522C150.894 355.86 150.404 360.621 147.97 362.709C147.38 363.217 146.426 363.776 145.096 363.776V363.776Z" fill="black"/>
<path d="M330.782 303.415L320.176 335.654L313.281 338.189L326.937 299.555L330.782 303.415Z" fill="black"/>
<path d="M345.126 415.468C345.126 415.468 349.418 418.043 353.711 415.468C358.006 412.893 378.672 380.366 381.569 374.894C384.469 369.419 377.322 330.787 370.239 326.604C363.156 322.418 339.973 320.163 332.568 321.452C325.162 322.741 300.359 347.188 300.359 347.188L307.132 398.724L345.126 415.468Z" fill="white"/>
<path d="M345.477 414.887C345.638 414.985 349.489 417.219 353.374 414.89C357.384 412.483 377.803 380.588 380.983 374.575C383.886 369.097 376.329 330.973 369.906 327.176C363.114 323.166 340.008 320.837 332.691 322.108C325.951 323.281 303.632 344.932 301.075 347.431L307.757 398.259L345.404 414.851C345.428 414.863 345.452 414.875 345.477 414.887ZM349.577 417.289C347.066 417.289 345.145 416.246 344.829 416.064L306.869 399.335C306.656 399.241 306.504 399.043 306.474 398.809L299.701 347.273C299.674 347.066 299.747 346.856 299.896 346.707C300.914 345.704 324.936 322.096 332.463 320.786C340.126 319.457 363.449 321.804 370.59 326.02C375.472 328.905 379.266 345.196 380.311 350.121C382.4 359.949 383.871 371.987 382.169 375.204C379.667 379.934 358.755 413.224 354.064 416.039C352.502 416.976 350.951 417.289 349.577 417.289Z" fill="black"/>
<path d="M342.904 306.197C344.214 310.745 348.579 327.395 350.482 331.48C356.593 344.616 361.657 352.03 361.657 352.03L365.053 347.686C365.053 347.686 347.135 304.03 346.275 301.506C342.518 290.48 334.723 293.302 331.522 298.868C329.984 301.54 331.243 307.896 331.243 307.896C331.243 307.896 338.973 334.295 343.974 344.057C348.105 352.128 353.659 362.427 353.659 362.427L357.368 358.612L349.871 343.473C347.364 338.411 345.163 333.21 343.275 327.893L337.976 308.626C336.441 299.892 341.843 302.528 342.904 306.197H342.904Z" fill="black"/>
<path d="M297.166 354.099C297.494 349.731 300.406 345.934 304.595 344.651C308.9 343.335 315.722 342.754 326.453 344.633C352.21 349.138 348.669 359.766 349.957 364.593C351.243 369.424 357.363 408.706 356.074 412.247C354.785 415.789 354.466 419.975 306.167 416.433C306.167 416.433 291.356 417.397 293.934 390.995C295.697 372.92 296.707 360.276 297.166 354.099L297.166 354.099Z" fill="white"/>
<path d="M306.169 415.764C306.188 415.764 306.203 415.764 306.221 415.767C352.893 419.19 354.258 415.35 355.356 412.271L355.447 412.018C356.569 408.936 350.845 370.52 349.312 364.768C349.1 363.978 349.011 363.06 348.917 362.084C348.419 356.886 347.659 349.025 326.339 345.295C317.247 343.705 310 343.705 304.795 345.295C300.941 346.477 298.147 350.034 297.837 354.153C297.393 360.099 296.384 372.803 294.602 391.064C293.62 401.142 295.134 408.583 298.98 412.578C302.229 415.955 306.09 415.764 306.13 415.767C306.142 415.764 306.157 415.764 306.169 415.764ZM335.557 418.445C328.522 418.445 319.028 418.05 306.163 417.107C305.637 417.125 301.561 417.174 298.04 413.535C293.833 409.194 292.228 401.588 293.268 390.933C295.049 372.687 296.056 359.996 296.499 354.053C296.849 349.389 300.026 345.352 304.403 344.012C309.811 342.358 317.268 342.346 326.571 343.972C348.899 347.881 349.714 356.351 350.255 361.956C350.346 362.914 350.425 363.741 350.607 364.425C351.592 368.112 358.147 408.522 356.706 412.477L356.62 412.718C355.614 415.548 354.578 418.445 335.557 418.445L335.557 418.445Z" fill="black"/>
<path d="M313.573 366.527L324.943 368.85L316.151 425.77H301.617L313.573 366.527Z" fill="black"/>
<path d="M405.938 380.83C405.938 380.83 405.938 411.257 425.247 428.296C427.4 430.193 428.378 433.09 428.792 435.93C429.567 441.237 433.23 450.117 439.234 462.453C445.229 474.768 445.952 521.687 445.952 521.687L460.489 519.051C460.489 519.051 462.18 501.17 463.016 480.079C463.97 456.13 460.769 426.782 448.299 417.127C441.627 411.96 442.572 378.289 442.572 378.289L405.938 380.83Z" fill="white"/>
<path d="M406.621 381.454C406.764 385.862 408.351 412.489 425.691 427.789C427.667 429.534 428.932 432.237 429.458 435.83C430.169 440.703 433.467 449.069 439.836 462.156C445.472 473.729 446.484 514.467 446.609 520.882L459.866 518.48C460.146 515.419 461.596 498.927 462.347 480.049C463.301 456.039 460.003 427.038 447.889 417.654C441.508 412.714 441.782 384.126 441.885 379.007L406.621 381.454ZM445.952 522.353C445.8 522.353 445.648 522.301 445.527 522.201C445.375 522.076 445.287 521.891 445.284 521.693C445.274 521.226 444.49 474.784 438.632 462.743C432.111 449.349 428.871 441.107 428.129 436.025C427.652 432.754 426.533 430.322 424.803 428.796C405.491 411.754 405.266 381.135 405.266 380.828C405.266 380.476 405.539 380.184 405.889 380.159L442.526 377.618C442.715 377.609 442.9 377.673 443.037 377.804C443.174 377.934 443.25 378.117 443.244 378.308C442.982 387.577 443.457 412.526 448.71 416.593C461.228 426.288 464.654 455.76 463.687 480.104C462.858 500.97 461.173 518.933 461.155 519.113C461.128 519.411 460.903 519.657 460.608 519.709L446.074 522.344C446.034 522.35 445.992 522.353 445.952 522.353V522.353Z" fill="black"/>
<path d="M432.669 431.969C432.298 431.969 432 431.668 432 431.297C432 430.926 432.298 430.625 432.669 430.625C441.333 430.625 441.573 424.771 441.579 424.521C441.588 424.15 441.907 423.84 442.263 423.865C442.634 423.874 442.929 424.181 442.919 424.552C442.916 424.628 442.628 431.969 432.669 431.969Z" fill="black"/>
<path d="M445.111 551.629C450.306 552.365 458.827 553.012 468.829 551.617C472.097 551.161 474.267 547.96 473.48 544.734C471.279 535.727 467.485 518.639 460.973 510.72L459.356 515.016L457.122 510.973C456.818 510.419 456.267 510.046 455.644 509.963L450.75 509.34C449.729 509.21 448.777 509.891 448.567 510.906L447.789 514.633L444.807 509.748L443.481 527.991C443.196 531.9 442.609 535.779 441.724 539.597L440.393 545.348C439.992 548.391 442.092 551.2 445.111 551.629Z" fill="white"/>
<path d="M445.323 511.879L444.149 528.036C443.863 531.967 443.268 535.907 442.377 539.743L441.042 545.498C440.705 548.109 442.565 550.587 445.204 550.961C450.512 551.712 458.902 552.32 468.733 550.949C470.104 550.757 471.335 549.991 472.114 548.842C472.898 547.687 473.156 546.249 472.825 544.89L472.354 542.941C470.226 534.141 466.727 519.655 461.176 512.077L459.984 515.25C459.89 515.494 459.665 515.664 459.403 515.682C459.136 515.706 458.896 515.567 458.768 515.339L456.534 511.292C456.333 510.928 455.968 510.681 455.558 510.627L450.664 510.003C449.995 509.918 449.363 510.374 449.223 511.04L448.444 514.764C448.387 515.035 448.171 515.244 447.9 515.29C447.633 515.336 447.359 515.214 447.213 514.977L445.322 511.879L445.323 511.879ZM456.896 553.107C452.132 553.107 448.074 552.721 445.015 552.289C441.653 551.812 439.279 548.66 439.726 545.261L441.07 539.442C441.945 535.67 442.529 531.8 442.811 527.939L444.137 509.696C444.155 509.405 444.362 509.161 444.648 509.091C444.927 509.022 445.225 509.146 445.377 509.395L447.475 512.834L447.909 510.767C448.189 509.42 449.466 508.505 450.834 508.672L455.728 509.295C456.561 509.405 457.3 509.906 457.707 510.645L459.239 513.417L460.346 510.481C460.428 510.259 460.626 510.095 460.863 510.058C461.1 510.019 461.34 510.107 461.489 510.292C467.654 517.792 471.411 533.338 473.658 542.625L474.129 544.574C474.552 546.297 474.22 548.128 473.226 549.596C472.232 551.058 470.663 552.034 468.919 552.277C464.59 552.882 460.537 553.107 456.896 553.107Z" fill="black"/>
<path d="M472.677 541.422C472.963 542.611 473.233 543.723 473.48 544.732C474.267 547.958 472.097 551.159 468.829 551.615C458.827 553.01 450.306 552.36 445.111 551.627C442.092 551.198 439.992 548.389 440.393 545.346L441.101 542.279C448.941 544.313 461.217 546.015 472.677 541.422Z" fill="white"/>
<path d="M441.599 543.103L441.042 545.501C440.705 548.109 442.565 550.59 445.204 550.964C450.512 551.715 458.902 552.323 468.733 550.952C470.104 550.763 471.335 549.994 472.114 548.845C472.898 547.69 473.156 546.252 472.825 544.893L472.205 542.327C461.23 546.471 449.66 545.106 441.598 543.102L441.599 543.103ZM456.896 553.11C452.132 553.11 448.074 552.724 445.015 552.292C441.653 551.815 439.279 548.663 439.726 545.261L440.446 542.133C440.489 541.957 440.598 541.801 440.753 541.71C440.908 541.616 441.094 541.589 441.27 541.634C449.326 543.72 461.273 545.27 472.427 540.801C472.606 540.731 472.81 540.737 472.983 540.829C473.156 540.917 473.281 541.078 473.326 541.266L474.129 544.577C474.552 546.301 474.22 548.131 473.223 549.599C472.232 551.061 470.663 552.037 468.919 552.28C464.59 552.885 460.537 553.11 456.896 553.11L456.896 553.11Z" fill="black"/>
<path d="M461.695 535.012H461.674L449.992 534.623C449.621 534.611 449.332 534.301 449.344 533.93C449.356 533.559 449.685 533.261 450.037 533.282L461.717 533.671C462.088 533.684 462.376 533.994 462.364 534.365C462.352 534.726 462.054 535.012 461.695 535.012Z" fill="black"/>
<path d="M460.488 528.185H460.463L449.614 527.796C449.243 527.784 448.954 527.474 448.969 527.103C448.982 526.732 449.295 526.422 449.662 526.456L460.512 526.845C460.883 526.86 461.172 527.17 461.157 527.541C461.144 527.903 460.846 528.185 460.488 528.185Z" fill="black"/>
<path d="M459.283 521.861H459.255L449.239 521.472C448.868 521.46 448.579 521.147 448.594 520.776C448.61 520.408 448.923 520.107 449.29 520.135L459.307 520.521C459.678 520.536 459.967 520.846 459.952 521.217C459.936 521.579 459.638 521.861 459.283 521.861Z" fill="black"/>
<path d="M345.031 356.969C345.031 356.969 346.892 403.03 348.573 411.597C352.114 429.627 342.456 423.188 355.659 464.401C368.858 505.613 362.097 522.032 362.097 522.032L384.636 515.594C384.636 515.594 374.975 473.414 378.194 456.029C380.726 442.367 379.082 429.502 375.917 419.461C374.06 413.561 373.747 407.286 374.844 401.2C377.522 386.347 382.851 360.881 388.5 356.969C396.549 351.388 345.031 356.969 345.031 356.969Z" fill="white"/>
<path d="M345.733 357.566C345.964 363.114 347.691 403.591 349.238 411.464C350.536 418.073 350.089 421.447 349.618 425.019C348.815 431.096 347.906 437.979 356.303 464.195C367.578 499.401 364.422 516.494 363.133 521.039L383.848 515.12C382.62 509.636 374.509 472.284 377.54 455.905C380.346 440.769 377.859 427.84 375.284 419.66C373.433 413.79 373.056 407.366 374.19 401.079C377.479 382.828 382.568 360.265 388.122 356.414C388.444 356.189 388.587 356.037 388.648 355.951C386.769 354.273 365.632 355.432 345.733 357.566ZM362.103 522.702C361.914 522.702 361.732 522.623 361.604 522.48C361.431 522.289 361.385 522.015 361.48 521.778C361.547 521.614 367.967 505.012 355.023 464.602C346.535 438.103 347.466 431.06 348.286 424.843C348.745 421.383 349.177 418.115 347.922 411.722C346.247 403.208 344.444 358.876 344.368 356.991C344.353 356.639 344.614 356.338 344.967 356.298C345.073 356.286 355.856 355.125 366.657 354.398C388.979 352.899 389.639 354.672 389.958 355.523C390.204 356.183 389.843 356.854 388.885 357.517C384.909 360.277 380.033 376.24 375.509 401.317C374.415 407.39 374.78 413.592 376.564 419.258C379.185 427.582 381.714 440.739 378.859 456.148C375.704 473.202 385.198 515.02 385.295 515.442C385.374 515.789 385.167 516.139 384.824 516.236L362.285 522.678C362.225 522.693 362.164 522.702 362.103 522.702L362.103 522.702Z" fill="black"/>
<path d="M359.821 425.353C357.888 425.353 355.729 424.705 353.887 422.562C353.647 422.279 353.68 421.857 353.96 421.614C354.24 421.373 354.665 421.407 354.905 421.687C358.769 426.189 364.247 422.86 364.478 422.717C364.791 422.523 365.205 422.617 365.402 422.93C365.597 423.246 365.503 423.656 365.19 423.854C365.15 423.878 362.739 425.353 359.821 425.353Z" fill="black"/>
<path d="M384.774 503.484C384.774 503.484 385.047 512.926 388.884 519.405C392.723 525.883 394.766 530.257 389.808 533.908C386.981 535.991 380.262 538.249 375.009 539.809C371.033 540.988 367.4 543.065 364.251 545.77C359.591 549.78 350.325 554.82 335.432 550.901C316.572 545.94 337.171 532.863 345.06 528.385C346.951 527.312 348.592 525.852 349.872 524.092L363.111 505.871C363.111 505.871 370.103 515.811 375.797 514.811C383.132 513.522 384.774 503.484 384.774 503.484Z" fill="white"/>
<path d="M363.123 507.004L350.419 524.488C349.085 526.327 347.395 527.835 345.394 528.968C334.259 535.291 327.909 541.362 328.41 545.207C328.69 547.372 331.113 549.068 335.609 550.251C349.79 553.984 358.779 549.6 363.823 545.262C367.16 542.393 370.863 540.341 374.827 539.164C382.187 536.981 387.233 534.975 389.419 533.367C393.596 530.294 392.514 526.834 388.312 519.748C385.911 515.69 384.874 510.576 384.433 507.181C383.23 510.361 380.743 514.626 375.919 515.474C370.784 516.374 364.932 509.373 363.123 507.004ZM345.674 552.972C342.558 552.972 339.096 552.558 335.265 551.549C330.192 550.214 327.437 548.141 327.079 545.381C326.279 539.258 337.797 531.738 344.735 527.801C346.565 526.764 348.112 525.384 349.334 523.7L362.573 505.475C362.701 505.302 362.886 505.208 363.123 505.199C363.339 505.202 363.54 505.308 363.664 505.485C363.731 505.582 370.465 515.076 375.684 514.151C382.46 512.96 384.102 503.472 384.12 503.375C384.175 503.034 384.47 502.782 384.826 502.815C385.172 502.84 385.443 503.119 385.452 503.466C385.455 503.557 385.765 512.814 389.468 519.064C393.316 525.561 395.623 530.467 390.212 534.45C387.297 536.595 380.442 538.897 375.207 540.45C371.425 541.572 367.89 543.533 364.695 546.281C361.436 549.084 355.195 552.972 345.674 552.972L345.674 552.972Z" fill="black"/>
<path d="M389.808 533.911C394.161 530.707 393.115 526.94 390.2 521.688C387.388 524.323 383.287 527.658 376.228 531.032C372.483 532.826 368.981 535.081 365.792 537.738C360.408 542.222 351.459 545.827 343.685 545.478C334.155 545.043 332.368 542.493 329.774 540.003C325.844 544.393 327.422 548.797 335.429 550.904C350.325 554.823 359.59 549.782 364.251 545.776C367.4 543.067 371.033 540.991 375.009 539.811C380.262 538.252 386.98 535.993 389.807 533.911L389.808 533.911Z" fill="white"/>
<path d="M329.823 540.987C328.869 542.203 328.033 543.838 328.531 545.501C329.139 547.526 331.65 549.216 335.602 550.255C349.787 553.985 358.773 549.602 363.816 545.264C367.154 542.394 370.857 540.342 374.821 539.166C382.181 536.983 387.227 534.977 389.413 533.369C393.127 530.633 392.605 527.599 390.021 522.762C387.449 525.103 383.345 528.371 376.517 531.639C372.848 533.393 369.382 535.621 366.221 538.254C360.244 543.23 350.942 546.48 343.655 546.146C334.639 545.735 332.24 543.37 329.924 541.084C329.89 541.051 329.857 541.02 329.823 540.987L329.823 540.987ZM345.668 552.976C342.552 552.976 339.089 552.56 335.259 551.55C330.775 550.371 328.005 548.413 327.245 545.887C326.65 543.893 327.349 541.704 329.276 539.555C329.398 539.418 329.568 539.339 329.75 539.333C329.911 539.311 330.109 539.391 330.24 539.518C330.453 539.722 330.659 539.926 330.866 540.129C333.1 542.336 335.213 544.419 343.716 544.805C350.723 545.133 359.621 542.005 365.363 537.223C368.61 534.517 372.167 532.231 375.939 530.426C383.193 526.957 387.288 523.498 389.738 521.196C389.89 521.054 390.1 520.993 390.3 521.023C390.507 521.054 390.683 521.178 390.783 521.358C393.31 525.908 395.346 530.666 390.206 534.451C387.291 536.597 380.435 538.898 375.201 540.452C371.419 541.573 367.883 543.534 364.688 546.282C361.43 549.085 355.189 552.973 345.667 552.976H345.668Z" fill="black"/>
<path d="M357.183 532.524C357.065 532.524 356.946 532.494 356.837 532.427L350.997 528.901C350.678 528.712 350.577 528.299 350.769 527.983C350.96 527.663 351.371 527.56 351.687 527.755L357.53 531.278C357.846 531.469 357.949 531.883 357.758 532.199C357.633 532.409 357.411 532.524 357.183 532.524L357.183 532.524Z" fill="black"/>
<path d="M361.506 527.585C361.387 527.585 361.269 527.554 361.159 527.49L355.316 523.964C355 523.773 354.897 523.362 355.088 523.043C355.28 522.727 355.693 522.623 356.01 522.815L361.852 526.341C362.168 526.533 362.272 526.946 362.08 527.262C361.953 527.472 361.734 527.585 361.506 527.585Z" fill="black"/>
<path d="M364.957 521.486C364.838 521.486 364.72 521.453 364.61 521.389L358.77 517.863C358.451 517.671 358.351 517.261 358.542 516.941C358.734 516.625 359.147 516.522 359.463 516.713L365.303 520.24C365.622 520.431 365.723 520.845 365.531 521.161C365.407 521.371 365.185 521.486 364.957 521.486Z" fill="black"/>
<path d="M446.135 340.224C446.135 318.492 435.991 296.276 435.991 296.276L358.435 289.512C358.435 289.512 350.024 307.384 344.71 325.252C339.399 343.121 341.813 377.251 341.813 377.251C341.813 377.251 388.339 389.715 390.109 377.801C390.151 377.512 392.525 347.468 392.525 347.468C394.456 359.06 397.064 383.343 397.064 383.343C438.307 392.651 449.032 378.862 449.032 378.862C449.032 378.862 446.135 361.957 446.135 340.224Z" fill="black"/>
<path d="M441.202 373.91C440.874 373.91 440.585 373.667 440.54 373.332C439.801 368.107 438.083 354.159 438.083 337.54C438.083 331.35 437.247 324.511 435.603 317.218C435.521 316.856 435.749 316.497 436.11 316.415C436.469 316.333 436.831 316.561 436.91 316.923C438.579 324.313 439.424 331.25 439.424 337.54C439.424 354.074 441.132 367.948 441.868 373.144C441.92 373.512 441.664 373.849 441.297 373.901C441.266 373.907 441.233 373.91 441.202 373.91L441.202 373.91Z" fill="white"/>
<path d="M326.574 292.051C327.915 290.266 329.66 288.163 331.168 286.5C333.116 284.353 339.263 270.598 339.263 270.598L351.471 273.349C351.471 273.349 343.297 283.551 345.814 287.971C350.888 296.875 347.413 305.426 347.413 305.426L343.598 303.438C341.944 302.575 339.981 302.478 338.272 303.229C338.129 303.292 337.968 303.377 337.792 303.481C335.506 304.831 334.095 307.281 333.946 309.932L333.621 315.686C333.621 315.686 319.245 301.821 326.574 292.051L326.574 292.051Z" fill="white"/>
<path d="M327.112 292.453C321.373 300.098 329.936 310.699 333.037 314.104L333.277 309.89C333.441 306.96 335.004 304.345 337.451 302.901C337.652 302.783 337.837 302.685 338.001 302.612C339.886 301.786 342.041 301.868 343.908 302.844L347.027 304.467C347.69 302.287 349.258 295.365 345.23 288.3C342.917 284.239 348.276 276.46 350.295 273.769L339.652 271.371C338.506 273.909 333.469 284.962 331.666 286.951C330.152 288.617 328.407 290.723 327.112 292.453L327.112 292.453ZM333.621 316.356C333.447 316.356 333.28 316.292 333.152 316.168C332.547 315.584 318.439 301.774 326.039 291.647C327.358 289.887 329.134 287.744 330.672 286.048C332.21 284.352 336.952 274.122 338.652 270.322C338.782 270.03 339.099 269.872 339.412 269.942L351.617 272.693C351.842 272.745 352.027 272.909 352.103 273.128C352.18 273.344 352.137 273.587 351.994 273.767C349.799 276.509 344.519 284.339 346.398 287.638C351.572 296.718 348.179 305.318 348.033 305.677C347.963 305.853 347.82 305.99 347.644 306.054C347.465 306.121 347.267 306.109 347.103 306.02L343.288 304.032C341.783 303.245 340.053 303.178 338.539 303.841C338.418 303.896 338.281 303.968 338.132 304.057C336.071 305.273 334.755 307.483 334.615 309.966L334.289 315.724C334.274 315.985 334.107 316.213 333.864 316.311C333.785 316.341 333.703 316.356 333.621 316.356Z" fill="black"/>
<path d="M377.953 147.039C377.874 147.361 351.609 161.405 347.93 169.255C343.65 178.387 343.76 183.484 344.441 189.374C344.884 193.198 347.633 197.051 347.277 200.883C346.635 207.831 346.003 219.292 347.93 225.922C350.827 235.905 336.227 274.236 336.227 274.236L352.682 280.045C352.682 280.045 381.878 232.479 369.18 191.15C361.771 167.039 377.953 147.039 377.953 147.039Z" fill="white"/>
<path d="M400.426 136.961C400.426 136.961 407.47 145.177 415.556 149.388C423.801 153.68 434.532 156.026 434.532 156.026C434.532 156.026 443.457 220.383 435.249 262.234C434.064 268.293 434.513 274.555 436.423 280.425C438.639 287.241 441.153 296.674 441.207 304.486C441.308 318.491 352.924 300.139 352.924 300.139C352.924 300.139 361.226 269.883 361.165 246.53C361.111 223.985 353.705 208.436 352.924 200.165C350.732 176.889 364.315 158.63 371.136 152.835C377.958 147.039 400.426 136.961 400.426 136.961L400.426 136.961Z" fill="white"/>
<path d="M359.76 266.556C359.729 266.556 359.699 266.553 359.672 266.55C359.304 266.501 359.045 266.164 359.094 265.796C360.036 258.604 360.511 252.122 360.495 246.532C360.456 231.08 357.911 218.981 356.051 210.147C355.194 206.067 354.516 202.842 354.27 200.227C353.145 188.307 355.565 176.29 361.082 166.391C361.264 166.067 361.672 165.951 361.994 166.132C362.319 166.313 362.435 166.722 362.255 167.045C356.869 176.709 354.507 188.449 355.604 200.101C355.844 202.641 356.516 205.833 357.364 209.873C359.234 218.762 361.796 230.94 361.836 246.526C361.851 252.177 361.374 258.719 360.422 265.972C360.38 266.31 360.091 266.556 359.76 266.556Z" fill="black"/>
<path d="M380.325 204.715C377.358 202.666 376.44 201.825 374.218 198.988C372.85 197.243 367.959 190.395 359.085 192.978C352.385 194.928 352.233 198.381 354.151 199.758C355.699 200.867 359.508 199.033 356.489 200.458C352.437 202.371 348.54 206.806 349.746 212.236C351.358 219.492 363.979 210.582 368.497 213.105C369.084 213.433 372.522 215.169 375.604 216.713C378.504 218.173 382.04 217.188 383.77 214.44C385.575 211.579 384.8 207.806 382.019 205.885L380.325 204.715L380.325 204.715Z" fill="white"/>
<path d="M366.336 211.968C367.275 211.968 368.114 212.126 368.819 212.521C369.141 212.701 370.631 213.47 375.899 216.114C378.511 217.422 381.645 216.549 383.201 214.084C384.818 211.518 384.128 208.159 381.636 206.435L379.939 205.265C376.866 203.143 375.93 202.264 373.686 199.403L373.522 199.188C372.002 197.227 367.381 191.26 359.271 193.621C356.091 194.547 354.039 195.991 353.784 197.483C353.668 198.154 353.945 198.784 354.541 199.213C355.179 199.671 356.626 199.386 357.173 199.279C357.483 199.218 358.064 199.102 358.255 199.684C358.447 200.274 358.128 200.425 356.939 200.986L356.772 201.065C352.926 202.879 349.291 207.104 350.397 212.09C350.601 213.011 351.005 213.64 351.631 214.014C353.373 215.06 356.711 214.129 359.94 213.233C362.253 212.588 364.484 211.968 366.336 211.968L366.336 211.968ZM378.444 218.063C377.383 218.063 376.31 217.82 375.3 217.312C371.051 215.181 368.652 213.962 368.166 213.692C366.545 212.786 363.372 213.67 360.298 214.525C356.799 215.5 353.173 216.507 350.941 215.166C349.996 214.598 349.373 213.661 349.087 212.378C347.971 207.359 350.987 203.049 354.668 200.7C354.34 200.623 354.03 200.497 353.759 200.303C352.744 199.574 352.258 198.436 352.461 197.256C352.665 196.057 353.774 193.824 358.897 192.333C367.883 189.716 372.923 196.228 374.58 198.367L374.744 198.575C376.902 201.331 377.738 202.114 380.702 204.161L382.399 205.332C385.484 207.466 386.339 211.624 384.335 214.798C383.013 216.896 380.766 218.063 378.444 218.063Z" fill="black"/>
<path d="M433.063 155.449C433.063 155.449 451.783 156.927 455.647 183.973C459.51 211.019 466.387 246.76 452.382 256.418C438.377 266.075 371.586 219.82 371.586 219.82C371.586 219.82 378.666 217.473 381.299 209.341C382.876 204.462 382.837 200.583 382.837 200.583C382.837 200.583 412.297 223.094 431.133 223.577C431.133 223.577 419.474 213.518 428.232 191.218C436.072 171.266 433.063 155.449 433.063 155.449Z" fill="white"/>
<path d="M353.758 299.621C361.418 301.175 429.526 314.675 439.497 306.507C440.202 305.926 440.542 305.266 440.539 304.488C440.485 296.691 437.925 287.212 435.785 280.634C433.815 274.578 433.405 268.17 434.593 262.105C435.019 259.923 435.42 257.57 435.776 255.11C435.806 254.913 435.922 254.739 436.092 254.636C436.262 254.533 436.472 254.508 436.657 254.575C444.874 257.399 450.489 257.834 453.35 255.861C465.263 247.647 460.904 219.421 457.058 194.52C456.493 190.878 455.964 187.439 455.481 184.065C451.735 157.852 434.529 156.129 434.356 156.115C434.21 156.094 423.832 154.51 415.247 149.981C408.054 146.187 401.762 139.454 400.251 137.775C397.725 138.924 385.109 144.724 376.919 149.672C376.652 149.834 376.311 149.79 376.092 149.568C375.98 149.455 375.919 149.309 375.904 149.16C375.81 149.217 375.715 149.278 375.615 149.339C369.204 153.324 352.174 163.912 348.499 169.617C345.316 174.563 344.176 181.183 345.112 189.296C345.291 190.843 345.869 192.395 346.477 194.037C347.31 196.276 348.17 198.591 347.951 200.943C347.359 207.356 346.653 219.102 348.578 225.735C351.332 235.217 339.069 268.589 337.102 273.83L352.45 279.25C353.493 277.843 357.153 272.502 359.29 264.306C359.378 263.963 359.719 263.75 360.066 263.817C360.412 263.883 360.649 264.206 360.604 264.558C358.585 280.792 354.654 296.219 353.758 299.621L353.758 299.621ZM424.601 310.404C399.445 310.404 355.196 301.293 352.788 300.795C352.609 300.755 352.451 300.646 352.353 300.488C352.256 300.33 352.229 300.138 352.277 299.959C352.32 299.81 355.852 286.841 358.266 271.514C355.904 277.135 353.35 280.293 353.208 280.47C353.028 280.689 352.733 280.771 352.466 280.676L336.007 274.867C335.837 274.809 335.7 274.682 335.624 274.518C335.548 274.353 335.542 274.165 335.606 273.998C335.752 273.615 350.092 235.761 347.292 226.109C345.304 219.263 346.015 207.325 346.617 200.821C346.805 198.772 346.036 196.699 345.222 194.504C344.611 192.859 343.978 191.159 343.781 189.45C342.808 181.021 344.015 174.105 347.371 168.892C351.207 162.931 367.814 152.608 374.907 148.2C376.156 147.424 377.241 146.749 377.472 146.577C377.67 146.367 377.983 146.305 378.248 146.433C378.509 146.558 378.658 146.836 378.625 147.119C387.729 141.935 400.017 136.409 400.153 136.348C400.421 136.226 400.74 136.297 400.935 136.521C401.005 136.602 408.015 144.65 415.87 148.794C424.257 153.219 434.411 154.768 434.511 154.783C434.651 154.794 452.915 156.616 456.809 183.876C457.289 187.242 457.821 190.678 458.384 194.316C462.29 219.607 466.719 248.274 454.113 256.968C450.933 259.16 445.327 258.877 436.986 256.102C436.657 258.293 436.295 260.397 435.909 262.364C434.763 268.207 435.162 274.381 437.062 280.218C439.229 286.887 441.825 296.512 441.88 304.479C441.889 305.671 441.372 306.705 440.345 307.544C437.831 309.605 432.052 310.404 424.601 310.404V310.404Z" fill="black"/>
<path d="M434.103 255.953C434.03 255.953 433.954 255.941 433.881 255.916C409.401 247.301 371.793 220.89 371.416 220.625C371.21 220.479 371.103 220.227 371.14 219.978C371.176 219.729 371.353 219.519 371.593 219.44C371.66 219.416 378.39 217.081 380.877 209.39C382.4 204.684 382.385 200.884 382.382 200.846C382.382 200.588 382.524 200.352 382.756 200.238C382.99 200.123 383.263 200.153 383.467 200.311C383.744 200.528 410.69 221.44 429.094 223.07C426.385 219.671 420.32 209.381 427.154 191.238C429.355 185.395 429.978 179.752 430.528 174.774C430.647 173.697 430.762 172.659 430.89 171.666C430.936 171.299 431.273 171.05 431.638 171.085C432.006 171.132 432.267 171.468 432.219 171.835C432.094 172.821 431.981 173.851 431.863 174.921C431.304 179.978 430.668 185.709 428.41 191.711C420.378 213.025 431.027 223.24 431.133 223.34C431.34 223.528 431.404 223.826 431.3 224.085C431.194 224.343 430.948 224.513 430.662 224.501C413.608 224.066 389.051 206.222 383.671 202.157C383.558 203.723 383.211 206.535 382.154 209.803C380.077 216.223 375.384 219.16 373.186 220.221C379.305 224.456 412.243 246.878 434.328 254.648C434.675 254.773 434.86 255.156 434.739 255.506C434.641 255.782 434.38 255.953 434.103 255.953L434.103 255.953Z" fill="black"/>
<path d="M338.319 308.977C340.034 309.08 343.256 309.542 344.113 311.901C345.214 314.911 339.638 315.963 339.638 315.963C339.638 315.963 337.62 308.934 338.319 308.977Z" fill="white"/>
<path d="M338.855 309.691C338.962 310.697 339.515 313.029 340.108 315.166C341.175 314.877 342.868 314.245 343.415 313.281C343.619 312.926 343.64 312.558 343.482 312.129C342.856 310.412 340.518 309.861 338.855 309.691ZM339.637 316.634C339.345 316.634 339.077 316.44 338.992 316.148C337.059 309.415 337.503 308.858 337.715 308.594C337.873 308.396 338.101 308.284 338.36 308.308C341.81 308.515 344.017 309.679 344.744 311.67C345.033 312.464 344.978 313.251 344.583 313.947C343.488 315.871 340.141 316.552 339.761 316.622C339.722 316.631 339.679 316.634 339.637 316.634Z" fill="black"/>
<path d="M385.265 171.72C380.793 171.329 367.177 168.188 373.786 156.22C375.686 152.776 376.516 148.84 376.209 144.918L374.859 127.617L399.547 125.711L401.443 150.014C405.465 173.037 385.827 171.769 385.265 171.72Z" fill="white"/>
<path d="M375.574 128.236L376.872 144.868C377.191 148.96 376.325 152.998 374.367 156.546C372.498 159.933 372.175 162.828 373.413 165.15C375.559 169.177 381.906 170.756 385.317 171.054C385.396 171.061 393.057 171.665 397.747 166.554C401.037 162.971 402.055 157.445 400.778 150.131L398.924 126.434L375.574 128.236ZM386.092 172.418C385.542 172.418 385.217 172.392 385.201 172.39C381.52 172.069 374.644 170.315 372.227 165.781C370.765 163.033 371.087 159.708 373.191 155.898C375.024 152.58 375.835 148.802 375.534 144.973L374.185 127.671C374.17 127.494 374.227 127.318 374.343 127.183C374.458 127.048 374.623 126.964 374.802 126.95L399.489 125.044C399.866 125.02 400.179 125.292 400.21 125.661L402.107 149.964C403.453 157.646 402.32 163.554 398.735 167.46C394.598 171.97 388.387 172.418 386.092 172.418Z" fill="black"/>
<path d="M402.12 134.913L375.618 136.96L373.818 113.91C373.086 104.555 380.09 96.3844 389.456 95.6613L400.737 94.7906C403.874 94.5484 406.616 96.8928 406.863 100.027L408.963 126.928C409.282 131.022 406.218 134.597 402.12 134.913Z" fill="white"/>
<path d="M375.617 137.633C375.271 137.633 374.976 137.366 374.948 137.014L373.149 113.965C372.781 109.261 374.27 104.698 377.341 101.115C380.411 97.5319 384.694 95.3587 389.403 94.9948L400.685 94.1242C404.193 93.8572 407.257 96.4792 407.531 99.9766L409.631 126.879C409.801 129.038 409.117 131.132 407.707 132.776C406.299 134.42 404.333 135.417 402.171 135.584L392.586 136.324C389.367 136.573 386.19 136.146 383.147 135.056C382.801 134.931 382.618 134.548 382.743 134.199C382.867 133.849 383.253 133.669 383.6 133.793C386.464 134.819 389.455 135.22 392.483 134.987L402.068 134.247C403.87 134.107 405.512 133.275 406.688 131.903C407.865 130.531 408.436 128.784 408.294 126.983L406.193 100.081C405.977 97.3209 403.554 95.2404 400.788 95.4619L389.507 96.3326C385.156 96.6685 381.195 98.677 378.359 101.987C375.52 105.298 374.146 109.514 374.486 113.86L376.286 136.91C376.316 137.279 376.04 137.602 375.669 137.631C375.654 137.632 375.635 137.633 375.617 137.633L375.617 137.633Z" fill="black"/>
<path d="M375.07 127.422L370.385 120.289C368.823 117.91 367.826 115.2 367.497 112.374C367.491 112.329 367.485 112.283 367.482 112.238C367.002 108.038 367.242 103.768 368.437 99.7137C372.221 86.8422 382.393 83.8391 391.318 86.133C391.343 86.1391 391.367 86.1452 391.391 86.151C394.617 86.9797 398.046 86.2103 400.615 84.0944L403.387 81.8118C405.311 80.2255 408.245 80.8177 409.345 83.0572C410.753 85.9209 411.793 90.0242 409.649 94.3145L407.327 97.9469L385.616 99.2757C383.776 99.3927 382.29 100.816 382.095 102.647L381.104 111.999C381.053 112.501 380.651 112.895 380.147 112.94L377.952 113.136L374.249 111.761L375.07 127.422L375.07 127.422Z" fill="black"/>
<path d="M377.956 113.135L376.402 111.669C375.126 110.465 373.107 110.546 371.934 111.849C371.122 112.751 370.906 114.043 371.383 115.16L372.228 117.132C372.937 118.791 374.128 120.199 375.645 121.174L377.463 122.342L377.956 113.135L377.956 113.135Z" fill="white"/>
<path d="M449.031 113.08C448.66 113.08 448.359 112.781 448.359 112.41V107.206C448.359 106.835 448.66 106.535 449.031 106.535C449.402 106.535 449.7 106.835 449.7 107.206V112.41C449.7 112.781 449.402 113.08 449.031 113.08Z" fill="black"/>
<path d="M449.031 125.202C448.66 125.202 448.359 124.902 448.359 124.531V119.327C448.359 118.956 448.66 118.656 449.031 118.656C449.402 118.656 449.7 118.956 449.7 119.327V124.531C449.7 124.902 449.402 125.202 449.031 125.202Z" fill="black"/>
<path d="M445.572 116.541H440.367C439.996 116.541 439.695 116.241 439.695 115.87C439.695 115.499 439.996 115.199 440.367 115.199H445.572C445.942 115.199 446.24 115.499 446.24 115.87C446.24 116.241 445.942 116.541 445.572 116.541Z" fill="black"/>
<path d="M457.694 116.541H452.492C452.121 116.541 451.82 116.241 451.82 115.87C451.82 115.499 452.121 115.199 452.492 115.199H457.694C458.064 115.199 458.365 115.499 458.365 115.87C458.365 116.241 458.064 116.541 457.694 116.541Z" fill="black"/>
<path d="M498.856 47.725C498.488 47.725 498.188 47.4249 498.188 47.054V41.8502C498.188 41.4797 498.488 41.1797 498.856 41.1797C499.227 41.1797 499.528 41.4797 499.528 41.8502V47.054C499.528 47.4249 499.227 47.725 498.856 47.725Z" fill="black"/>
<path d="M498.856 59.8461C498.488 59.8461 498.188 59.5461 498.188 59.1755V53.9717C498.188 53.6008 498.488 53.3008 498.856 53.3008C499.227 53.3008 499.528 53.6008 499.528 53.9717V59.1755C499.528 59.5461 499.227 59.8461 498.856 59.8461Z" fill="black"/>
<path d="M495.4 51.1814H490.195C489.824 51.1814 489.523 50.8813 489.523 50.5105C489.523 50.1396 489.824 49.8398 490.195 49.8398H495.4C495.771 49.8398 496.068 50.1396 496.068 50.5105C496.068 50.8813 495.771 51.1814 495.4 51.1814Z" fill="black"/>
<path d="M507.522 51.1814H502.317C501.949 51.1814 501.648 50.8813 501.648 50.5105C501.648 50.1396 501.949 49.8398 502.317 49.8398H507.522C507.892 49.8398 508.193 50.1396 508.193 50.5105C508.193 50.8813 507.892 51.1814 507.522 51.1814Z" fill="black"/>
<path d="M436.842 22.2458C439.161 21.2037 441.87 22.2779 442.891 24.6449C443.913 27.0118 442.861 29.7752 440.542 30.817C438.219 31.8587 435.513 30.7844 434.492 28.4175C433.471 26.0506 434.522 23.2872 436.842 22.2458Z" fill="black"/>
<path d="M153.189 54.8993C153.189 60.1961 148.895 64.4901 143.599 64.4901C138.302 64.4901 134.008 60.1961 134.008 54.8993C134.008 49.6025 138.302 45.3086 143.599 45.3086C148.895 45.3086 153.189 49.6025 153.189 54.8993Z" fill="black"/>
</svg>
