<svg width="422" height="491" viewBox="0 0 422 491" fill="none" xmlns="http://www.w3.org/2000/svg">
<path d="M90.5172 471.759C68.6152 471.759 106.431 425.958 129.496 436.496C129.055 424.791 138.575 419.885 146.975 427.679C162.216 384.663 237.718 372.258 233.262 429.864C235.515 428.341 253.687 422.478 250.671 442.79C270.663 446.452 295.302 471.759 274.494 471.759C253.687 471.759 112.419 471.759 90.5172 471.759Z" fill="white" stroke="black" stroke-width="3.8911" stroke-miterlimit="10"/>
<path d="M229.909 366.626C185.303 360.034 87.988 293.804 155.987 253.281C191.028 232.399 181.74 218.38 155.387 194.144C143.953 183.625 134.412 172.515 140.111 156.367C146.386 138.582 161.395 140.98 174.675 133.985C217.316 111.521 178.456 90.8726 164.69 66.0797C148.505 36.9319 179.458 8.1326 205.824 3.05928C242.092 -3.91674 267.785 22.8656 271.522 55.617C273.28 71.0093 262.931 97.7619 271.966 110.422C282.042 124.539 302.175 118.753 312.586 134.526C349.842 190.966 250.595 210.926 289.586 267.523C305.263 290.281 313.916 305.769 302.794 333.779C289.877 366.31 270.816 359.737 242.957 369.034C239.071 367.673 229.909 366.626 229.909 366.626Z" fill="white" stroke="black" stroke-width="3.8911" stroke-miterlimit="10"/>
<path d="M221.141 471.755L229.901 136.809L249.614 471.755H221.141Z" fill="black"/>
<path d="M266.19 447.777C253.761 418.374 257.139 377.261 274.212 349.781" stroke="black" stroke-width="3.8911" stroke-miterlimit="10"/>
<path d="M268.372 357.653C264.342 355.192 261.012 340.043 262.052 335.766C268.718 342.143 270.761 348.996 269.11 357.893L268.372 357.653Z" fill="white" stroke="black" stroke-width="3.8911" stroke-miterlimit="10"/>
<path d="M261.123 379.132C257.093 376.671 253.761 361.522 254.802 357.246C261.469 363.622 263.514 370.475 261.86 379.372L261.123 379.132Z" fill="white" stroke="black" stroke-width="3.8911" stroke-miterlimit="10"/>
<path d="M257.796 400.419C253.766 397.957 250.434 382.807 251.473 378.531C258.142 384.906 260.186 391.762 258.533 400.659L257.796 400.419Z" fill="white" stroke="black" stroke-width="3.8911" stroke-miterlimit="10"/>
<path d="M273.71 350.85C272.726 346.232 281.435 333.396 285.255 331.211C285.208 340.435 281.636 346.634 274.041 351.549L273.71 350.85Z" fill="white" stroke="black" stroke-width="3.8911" stroke-miterlimit="10"/>
<path d="M267 366.459C267.987 361.841 281.184 353.687 285.564 353.254C281.75 361.654 275.959 365.85 267.015 367.233L267 366.459Z" fill="white" stroke="black" stroke-width="3.8911" stroke-miterlimit="10"/>
<path d="M261.125 387.542C262.114 382.923 275.31 374.769 279.689 374.34C275.875 382.74 270.084 386.933 261.142 388.316L261.125 387.542Z" fill="white" stroke="black" stroke-width="3.8911" stroke-miterlimit="10"/>
<path d="M258.656 405.681C259.645 401.066 272.841 392.912 277.221 392.48C273.408 400.879 267.616 405.074 258.672 406.455L258.656 405.681Z" fill="white" stroke="black" stroke-width="3.8911" stroke-miterlimit="10"/>
<path d="M228.001 471.759C206.1 471.759 243.915 425.958 266.982 436.496C266.541 424.791 276.06 419.885 284.459 427.679C299.702 384.663 375.204 372.258 370.747 429.864C373.001 428.341 391.173 422.478 388.155 442.79C408.149 446.452 432.786 471.759 411.979 471.759C391.173 471.759 249.905 471.759 228.001 471.759Z" fill="white" stroke="black" stroke-width="3.8911" stroke-miterlimit="10"/>
<path d="M226.844 469.461C235.493 452.507 248.502 436.436 267.869 444.995C268.465 433.114 275.958 426.821 286.521 432.922C291.528 412.208 310.167 398.514 330.879 394.366C355.384 389.457 373.078 410.983 365.666 432.894C375.224 428.58 385.628 436.076 379.902 445.979C382.31 445.778 385.089 446.195 386.874 445.568C392.415 448.305 399.24 448.741 404.18 453.595C408.392 457.731 409.058 467.179 411.551 468.104" fill="#F4E3FF"/>
<path d="M310.117 448.209C310.894 445.715 313.78 444.055 316.549 445.39C318.83 436.999 334.428 434.331 333.772 445.418C337.26 442.763 340.443 445.642 340.781 449.305" stroke="black" stroke-width="3.8911" stroke-miterlimit="10" stroke-linecap="round"/>
<path d="M126.023 486.36C129.897 484.334 133.998 486.305 138.115 485.191C142.902 483.896 145.287 482.326 150.322 483.602C155.871 485.008 156.645 485.214 161.758 482.549C167.925 479.334 167.986 481.742 173.861 483.731" stroke="black" stroke-width="3.8911" stroke-miterlimit="10"/>
<path d="M44.4219 489.047C48.295 487.021 52.396 488.991 56.5122 487.877C61.3004 486.582 63.6853 485.013 68.7215 486.289C74.2688 487.694 75.0426 487.902 80.1562 485.237C86.3237 482.021 86.3851 484.429 92.26 486.418" stroke="black" stroke-width="3.8911" stroke-miterlimit="10"/>
<path d="M0.84375 476.5C10.265 471.961 15.7502 476.011 25.0261 476.5C32.4778 476.893 38.6431 472.027 46.0538 471.769C54.4472 471.475 59.3777 475.534 67.6087 473.478C77.4544 471.016 82.8837 477.034 92.3149 477.551" stroke="black" stroke-width="3.8911" stroke-miterlimit="10"/>
</svg>
