<svg width="972" height="196" viewBox="0 0 972 196" fill="none" xmlns="http://www.w3.org/2000/svg">
<path d="M185.536 79.12C181.109 79.12 177.002 78.4267 173.216 77.04C169.482 75.6 166.229 73.5733 163.456 70.96C160.736 68.3467 158.602 65.28 157.056 61.76C155.509 58.1867 154.736 54.2667 154.736 50C154.736 45.7333 155.509 41.84 157.056 38.32C158.602 34.7467 160.736 31.6533 163.456 29.04C166.229 26.4267 169.482 24.4267 173.216 23.04C177.002 21.6 181.109 20.88 185.536 20.88C190.709 20.88 195.322 21.7867 199.376 23.6C203.482 25.4133 206.896 28.0267 209.616 31.44L199.536 40.56C197.722 38.4267 195.722 36.8 193.536 35.68C191.402 34.56 189.002 34 186.336 34C184.042 34 181.936 34.3733 180.016 35.12C178.096 35.8667 176.442 36.96 175.056 38.4C173.722 39.7867 172.656 41.4667 171.856 43.44C171.109 45.4133 170.736 47.6 170.736 50C170.736 52.4 171.109 54.5867 171.856 56.56C172.656 58.5333 173.722 60.24 175.056 61.68C176.442 63.0667 178.096 64.1333 180.016 64.88C181.936 65.6267 184.042 66 186.336 66C189.002 66 191.402 65.44 193.536 64.32C195.722 63.2 197.722 61.5733 199.536 59.44L209.616 68.56C206.896 71.92 203.482 74.5333 199.376 76.4C195.322 78.2133 190.709 79.12 185.536 79.12ZM215.958 78V18.64H231.158V78H215.958ZM263.756 78.72C258.636 78.72 254.156 77.76 250.316 75.84C246.53 73.8667 243.57 71.2 241.436 67.84C239.356 64.4267 238.316 60.56 238.316 56.24C238.316 51.92 239.33 48.08 241.356 44.72C243.436 41.3067 246.29 38.6667 249.916 36.8C253.543 34.88 257.623 33.92 262.156 33.92C266.423 33.92 270.316 34.8 273.836 36.56C277.356 38.2667 280.156 40.8 282.236 44.16C284.316 47.52 285.356 51.6 285.356 56.4C285.356 56.9333 285.33 57.5467 285.276 58.24C285.223 58.9333 285.17 59.5733 285.116 60.16H250.796V52.16H277.036L271.276 54.4C271.33 52.4267 270.956 50.72 270.156 49.28C269.41 47.84 268.343 46.72 266.956 45.92C265.623 45.12 264.05 44.72 262.236 44.72C260.423 44.72 258.823 45.12 257.436 45.92C256.103 46.72 255.063 47.8667 254.316 49.36C253.57 50.8 253.196 52.5067 253.196 54.48V56.8C253.196 58.9333 253.623 60.7733 254.476 62.32C255.383 63.8667 256.663 65.0667 258.316 65.92C259.97 66.72 261.943 67.12 264.236 67.12C266.37 67.12 268.183 66.8267 269.676 66.24C271.223 65.6 272.743 64.64 274.236 63.36L282.236 71.68C280.156 73.9733 277.596 75.7333 274.556 76.96C271.516 78.1333 267.916 78.72 263.756 78.72ZM317.673 78V69.92L316.633 67.92V53.04C316.633 50.64 315.886 48.8 314.393 47.52C312.953 46.1867 310.633 45.52 307.432 45.52C305.353 45.52 303.246 45.8667 301.113 46.56C298.979 47.2 297.166 48.1067 295.673 49.28L290.553 38.96C293.006 37.36 295.939 36.1333 299.353 35.28C302.819 34.3733 306.259 33.92 309.673 33.92C316.713 33.92 322.153 35.5467 325.993 38.8C329.886 42 331.833 47.04 331.833 53.92V78H317.673ZM304.873 78.72C301.406 78.72 298.473 78.1333 296.073 76.96C293.673 75.7867 291.833 74.1867 290.553 72.16C289.326 70.1333 288.713 67.8667 288.713 65.36C288.713 62.6933 289.379 60.4 290.713 58.48C292.099 56.5067 294.206 55.0133 297.033 54C299.859 52.9333 303.513 52.4 307.993 52.4H318.233V60.32H310.073C307.619 60.32 305.886 60.72 304.873 61.52C303.913 62.32 303.433 63.3867 303.433 64.72C303.433 66.0533 303.939 67.12 304.953 67.92C305.966 68.72 307.353 69.12 309.113 69.12C310.766 69.12 312.259 68.72 313.593 67.92C314.979 67.0667 315.993 65.7867 316.633 64.08L318.713 69.68C317.913 72.6667 316.339 74.9333 313.993 76.48C311.699 77.9733 308.659 78.72 304.873 78.72ZM341.427 78V34.64H355.907V47.28L353.747 43.68C355.027 40.4267 357.107 38 359.987 36.4C362.867 34.7467 366.36 33.92 370.467 33.92V47.6C369.774 47.4933 369.16 47.44 368.627 47.44C368.147 47.3867 367.614 47.36 367.027 47.36C363.934 47.36 361.427 48.2133 359.507 49.92C357.587 51.5733 356.627 54.2933 356.627 58.08V78H341.427ZM407.617 94.24C405.324 94.24 403.004 93.8667 400.657 93.12C398.364 92.4267 396.497 91.4933 395.057 90.32L400.337 79.68C401.244 80.48 402.284 81.0933 403.457 81.52C404.684 82 405.884 82.24 407.057 82.24C408.71 82.24 410.017 81.8667 410.977 81.12C411.937 80.3733 412.764 79.2 413.457 77.6L415.457 72.56L416.657 71.04L431.377 34.64H445.857L427.137 79.76C425.644 83.4933 423.91 86.4 421.937 88.48C420.017 90.6133 417.857 92.1067 415.457 92.96C413.11 93.8133 410.497 94.24 407.617 94.24ZM413.537 79.84L394.417 34.64H410.017L424.097 69.68L413.537 79.84ZM470.374 78.72C465.628 78.72 461.414 77.76 457.734 75.84C454.054 73.92 451.148 71.28 449.014 67.92C446.934 64.5067 445.894 60.6133 445.894 56.24C445.894 51.8667 446.934 48 449.014 44.64C451.148 41.28 454.054 38.6667 457.734 36.8C461.414 34.88 465.628 33.92 470.374 33.92C475.121 33.92 479.334 34.88 483.014 36.8C486.748 38.6667 489.654 41.28 491.734 44.64C493.814 48 494.854 51.8667 494.854 56.24C494.854 60.6133 493.814 64.5067 491.734 67.92C489.654 71.28 486.748 73.92 483.014 75.84C479.334 77.76 475.121 78.72 470.374 78.72ZM470.374 66.64C472.134 66.64 473.681 66.24 475.014 65.44C476.401 64.64 477.494 63.4667 478.294 61.92C479.094 60.32 479.494 58.4267 479.494 56.24C479.494 54.0533 479.094 52.2133 478.294 50.72C477.494 49.1733 476.401 48 475.014 47.2C473.681 46.4 472.134 46 470.374 46C468.668 46 467.121 46.4 465.734 47.2C464.401 48 463.308 49.1733 462.454 50.72C461.654 52.2133 461.254 54.0533 461.254 56.24C461.254 58.4267 461.654 60.32 462.454 61.92C463.308 63.4667 464.401 64.64 465.734 65.44C467.121 66.24 468.668 66.64 470.374 66.64ZM520.136 78.72C516.616 78.72 513.442 78.0267 510.616 76.64C507.842 75.2533 505.656 73.0933 504.056 70.16C502.509 67.1733 501.736 63.4133 501.736 58.88V34.64H516.936V56.4C516.936 59.76 517.549 62.16 518.776 63.6C520.056 65.04 521.842 65.76 524.136 65.76C525.629 65.76 526.989 65.4133 528.216 64.72C529.442 64.0267 530.429 62.9333 531.176 61.44C531.922 59.8933 532.296 57.92 532.296 55.52V34.64H547.496V78H533.016V65.76L535.816 69.2C534.322 72.4 532.162 74.8 529.336 76.4C526.509 77.9467 523.442 78.72 520.136 78.72ZM557.286 78V34.64H571.766V47.28L569.606 43.68C570.886 40.4267 572.966 38 575.846 36.4C578.726 34.7467 582.22 33.92 586.326 33.92V47.6C585.633 47.4933 585.02 47.44 584.486 47.44C584.006 47.3867 583.473 47.36 582.886 47.36C579.793 47.36 577.286 48.2133 575.366 49.92C573.446 51.5733 572.486 54.2933 572.486 58.08V78H557.286ZM642.516 78V69.92L641.476 67.92V53.04C641.476 50.64 640.73 48.8 639.236 47.52C637.796 46.1867 635.476 45.52 632.276 45.52C630.196 45.52 628.09 45.8667 625.956 46.56C623.823 47.2 622.01 48.1067 620.516 49.28L615.396 38.96C617.85 37.36 620.783 36.1333 624.196 35.28C627.663 34.3733 631.103 33.92 634.516 33.92C641.556 33.92 646.996 35.5467 650.836 38.8C654.73 42 656.676 47.04 656.676 53.92V78H642.516ZM629.716 78.72C626.25 78.72 623.316 78.1333 620.916 76.96C618.516 75.7867 616.676 74.1867 615.396 72.16C614.17 70.1333 613.556 67.8667 613.556 65.36C613.556 62.6933 614.223 60.4 615.556 58.48C616.943 56.5067 619.05 55.0133 621.876 54C624.703 52.9333 628.356 52.4 632.836 52.4H643.076V60.32H634.916C632.463 60.32 630.73 60.72 629.716 61.52C628.756 62.32 628.276 63.3867 628.276 64.72C628.276 66.0533 628.783 67.12 629.796 67.92C630.81 68.72 632.196 69.12 633.956 69.12C635.61 69.12 637.103 68.72 638.436 67.92C639.823 67.0667 640.836 65.7867 641.476 64.08L643.556 69.68C642.756 72.6667 641.183 74.9333 638.836 76.48C636.543 77.9733 633.503 78.72 629.716 78.72ZM666.271 78V34.64H680.751V47.28L678.591 43.68C679.871 40.4267 681.951 38 684.831 36.4C687.711 34.7467 691.204 33.92 695.311 33.92V47.6C694.617 47.4933 694.004 47.44 693.471 47.44C692.991 47.3867 692.457 47.36 691.871 47.36C688.777 47.36 686.271 48.2133 684.351 49.92C682.431 51.5733 681.471 54.2933 681.471 58.08V78H666.271ZM723.913 78.72C718.793 78.72 714.313 77.76 710.473 75.84C706.686 73.8667 703.726 71.2 701.592 67.84C699.513 64.4267 698.473 60.56 698.473 56.24C698.473 51.92 699.486 48.08 701.513 44.72C703.593 41.3067 706.446 38.6667 710.073 36.8C713.699 34.88 717.779 33.92 722.313 33.92C726.579 33.92 730.473 34.8 733.993 36.56C737.513 38.2667 740.313 40.8 742.393 44.16C744.473 47.52 745.513 51.6 745.513 56.4C745.513 56.9333 745.486 57.5467 745.433 58.24C745.379 58.9333 745.326 59.5733 745.273 60.16H710.953V52.16H737.193L731.433 54.4C731.486 52.4267 731.113 50.72 730.313 49.28C729.566 47.84 728.499 46.72 727.113 45.92C725.779 45.12 724.206 44.72 722.393 44.72C720.579 44.72 718.979 45.12 717.593 45.92C716.259 46.72 715.219 47.8667 714.473 49.36C713.726 50.8 713.353 52.5067 713.353 54.48V56.8C713.353 58.9333 713.779 60.7733 714.633 62.32C715.539 63.8667 716.819 65.0667 718.473 65.92C720.126 66.72 722.099 67.12 724.393 67.12C726.526 67.12 728.339 66.8267 729.833 66.24C731.379 65.6 732.899 64.64 734.393 63.36L742.393 71.68C740.313 73.9733 737.753 75.7333 734.713 76.96C731.673 78.1333 728.073 78.72 723.913 78.72ZM777.829 78V69.92L776.789 67.92V53.04C776.789 50.64 776.042 48.8 774.549 47.52C773.109 46.1867 770.789 45.52 767.589 45.52C765.509 45.52 763.402 45.8667 761.269 46.56C759.135 47.2 757.322 48.1067 755.829 49.28L750.709 38.96C753.162 37.36 756.095 36.1333 759.509 35.28C762.975 34.3733 766.415 33.92 769.829 33.92C776.869 33.92 782.309 35.5467 786.149 38.8C790.042 42 791.989 47.04 791.989 53.92V78H777.829ZM765.029 78.72C761.562 78.72 758.629 78.1333 756.229 76.96C753.829 75.7867 751.989 74.1867 750.709 72.16C749.482 70.1333 748.869 67.8667 748.869 65.36C748.869 62.6933 749.535 60.4 750.869 58.48C752.255 56.5067 754.362 55.0133 757.189 54C760.015 52.9333 763.669 52.4 768.149 52.4H778.389V60.32H770.229C767.775 60.32 766.042 60.72 765.029 61.52C764.069 62.32 763.589 63.3867 763.589 64.72C763.589 66.0533 764.095 67.12 765.109 67.92C766.122 68.72 767.509 69.12 769.269 69.12C770.922 69.12 772.415 68.72 773.749 67.92C775.135 67.0667 776.149 65.7867 776.789 64.08L778.869 69.68C778.069 72.6667 776.495 74.9333 774.149 76.48C771.855 77.9733 768.815 78.72 765.029 78.72ZM26.8978 176.72C22.1511 176.72 17.9378 175.76 14.2578 173.84C10.5778 171.92 7.67115 169.28 5.53781 165.92C3.45781 162.507 2.41781 158.613 2.41781 154.24C2.41781 149.867 3.45781 146 5.53781 142.64C7.67115 139.28 10.5778 136.667 14.2578 134.8C17.9378 132.88 22.1511 131.92 26.8978 131.92C31.6445 131.92 35.8578 132.88 39.5378 134.8C43.2711 136.667 46.1778 139.28 48.2578 142.64C50.3378 146 51.3778 149.867 51.3778 154.24C51.3778 158.613 50.3378 162.507 48.2578 165.92C46.1778 169.28 43.2711 171.92 39.5378 173.84C35.8578 175.76 31.6445 176.72 26.8978 176.72ZM26.8978 164.64C28.6578 164.64 30.2045 164.24 31.5378 163.44C32.9245 162.64 34.0178 161.467 34.8178 159.92C35.6178 158.32 36.0178 156.427 36.0178 154.24C36.0178 152.053 35.6178 150.213 34.8178 148.72C34.0178 147.173 32.9245 146 31.5378 145.2C30.2045 144.4 28.6578 144 26.8978 144C25.1911 144 23.6445 144.4 22.2578 145.2C20.9245 146 19.8311 147.173 18.9778 148.72C18.1778 150.213 17.7778 152.053 17.7778 154.24C17.7778 156.427 18.1778 158.32 18.9778 159.92C19.8311 161.467 20.9245 162.64 22.2578 163.44C23.6445 164.24 25.1911 164.64 26.8978 164.64ZM60.1791 176V133.12C60.1791 127.893 61.7257 123.733 64.8191 120.64C67.9657 117.493 72.4457 115.92 78.2591 115.92C80.1257 115.92 81.9657 116.107 83.7791 116.48C85.5924 116.853 87.1124 117.413 88.3391 118.16L84.5791 128.88C83.9391 128.507 83.2191 128.213 82.4191 128C81.6191 127.733 80.8191 127.6 80.0191 127.6C78.4191 127.6 77.1657 128.08 76.2591 129.04C75.4057 129.947 74.9791 131.36 74.9791 133.28V136.4L75.3791 142.72V176H60.1791ZM53.8591 145.6V134.24H85.2991V145.6H53.8591ZM115.96 176V133.12C115.96 127.893 117.507 123.733 120.6 120.64C123.747 117.493 128.227 115.92 134.04 115.92C135.907 115.92 137.747 116.107 139.56 116.48C141.374 116.853 142.894 117.413 144.12 118.16L140.36 128.88C139.72 128.507 139 128.213 138.2 128C137.4 127.733 136.6 127.6 135.8 127.6C134.2 127.6 132.947 128.08 132.04 129.04C131.187 129.947 130.76 131.36 130.76 133.28V136.4L131.16 142.72V176H115.96ZM109.64 145.6V134.24H141.08V145.6H109.64ZM164.94 176.72C161.42 176.72 158.247 176.027 155.42 174.64C152.647 173.253 150.46 171.093 148.86 168.16C147.314 165.173 146.54 161.413 146.54 156.88V132.64H161.74V154.4C161.74 157.76 162.354 160.16 163.58 161.6C164.86 163.04 166.647 163.76 168.94 163.76C170.434 163.76 171.794 163.413 173.02 162.72C174.247 162.027 175.234 160.933 175.98 159.44C176.727 157.893 177.1 155.92 177.1 153.52V132.64H192.3V176H177.82V163.76L180.62 167.2C179.127 170.4 176.967 172.8 174.14 174.4C171.314 175.947 168.247 176.72 164.94 176.72ZM202.091 176V132.64H216.571V145.28L214.411 141.68C215.691 138.427 217.771 136 220.651 134.4C223.531 132.747 227.024 131.92 231.131 131.92V145.6C230.438 145.493 229.824 145.44 229.291 145.44C228.811 145.387 228.278 145.36 227.691 145.36C224.598 145.36 222.091 146.213 220.171 147.92C218.251 149.573 217.291 152.293 217.291 156.08V176H202.091ZM265.643 131.92C269.003 131.92 272.043 132.613 274.763 134C277.483 135.333 279.617 137.413 281.163 140.24C282.763 143.067 283.563 146.72 283.563 151.2V176H268.363V153.68C268.363 150.587 267.723 148.347 266.443 146.96C265.217 145.52 263.483 144.8 261.243 144.8C259.643 144.8 258.177 145.173 256.843 145.92C255.51 146.613 254.47 147.707 253.723 149.2C252.977 150.693 252.603 152.64 252.603 155.04V176H237.403V132.64H251.883V144.96L249.083 141.36C250.737 138.213 253.003 135.867 255.883 134.32C258.763 132.72 262.017 131.92 265.643 131.92ZM293.107 176V132.64H308.307V176H293.107ZM300.707 127.84C297.933 127.84 295.693 127.067 293.987 125.52C292.28 123.973 291.427 122.053 291.427 119.76C291.427 117.467 292.28 115.547 293.987 114C295.693 112.453 297.933 111.68 300.707 111.68C303.48 111.68 305.72 112.427 307.427 113.92C309.133 115.36 309.987 117.227 309.987 119.52C309.987 121.92 309.133 123.92 307.427 125.52C305.773 127.067 303.533 127.84 300.707 127.84ZM337.545 176.72C331.998 176.72 327.678 175.36 324.585 172.64C321.491 169.867 319.945 165.707 319.945 160.16V122.96H335.145V160C335.145 161.547 335.571 162.773 336.425 163.68C337.278 164.533 338.371 164.96 339.705 164.96C341.518 164.96 343.065 164.507 344.345 163.6L348.105 174.24C346.825 175.093 345.251 175.707 343.385 176.08C341.518 176.507 339.571 176.72 337.545 176.72ZM313.625 145.6V134.24H345.065V145.6H313.625ZM372.206 176.72C368.686 176.72 365.513 176.027 362.686 174.64C359.913 173.253 357.726 171.093 356.126 168.16C354.579 165.173 353.806 161.413 353.806 156.88V132.64H369.006V154.4C369.006 157.76 369.619 160.16 370.846 161.6C372.126 163.04 373.913 163.76 376.206 163.76C377.699 163.76 379.059 163.413 380.286 162.72C381.513 162.027 382.499 160.933 383.246 159.44C383.993 157.893 384.366 155.92 384.366 153.52V132.64H399.566V176H385.086V163.76L387.886 167.2C386.393 170.4 384.233 172.8 381.406 174.4C378.579 175.947 375.513 176.72 372.206 176.72ZM409.357 176V132.64H423.837V145.28L421.677 141.68C422.957 138.427 425.037 136 427.917 134.4C430.797 132.747 434.29 131.92 438.397 131.92V145.6C437.703 145.493 437.09 145.44 436.557 145.44C436.077 145.387 435.543 145.36 434.957 145.36C431.863 145.36 429.357 146.213 427.437 147.92C425.517 149.573 424.557 152.293 424.557 156.08V176H409.357ZM466.998 176.72C461.878 176.72 457.398 175.76 453.558 173.84C449.772 171.867 446.812 169.2 444.678 165.84C442.598 162.427 441.558 158.56 441.558 154.24C441.558 149.92 442.572 146.08 444.598 142.72C446.678 139.307 449.532 136.667 453.158 134.8C456.785 132.88 460.865 131.92 465.398 131.92C469.665 131.92 473.558 132.8 477.078 134.56C480.598 136.267 483.398 138.8 485.478 142.16C487.558 145.52 488.598 149.6 488.598 154.4C488.598 154.933 488.572 155.547 488.518 156.24C488.465 156.933 488.412 157.573 488.358 158.16H454.038V150.16H480.278L474.518 152.4C474.572 150.427 474.198 148.72 473.398 147.28C472.652 145.84 471.585 144.72 470.198 143.92C468.865 143.12 467.292 142.72 465.478 142.72C463.665 142.72 462.065 143.12 460.678 143.92C459.345 144.72 458.305 145.867 457.558 147.36C456.812 148.8 456.438 150.507 456.438 152.48V154.8C456.438 156.933 456.865 158.773 457.718 160.32C458.625 161.867 459.905 163.067 461.558 163.92C463.212 164.72 465.185 165.12 467.478 165.12C469.612 165.12 471.425 164.827 472.918 164.24C474.465 163.6 475.985 162.64 477.478 161.36L485.478 169.68C483.398 171.973 480.838 173.733 477.798 174.96C474.758 176.133 471.158 176.72 466.998 176.72ZM529.128 191.52C525.821 186.72 523.261 181.12 521.448 174.72C519.688 168.267 518.808 161.387 518.808 154.08C518.808 146.773 519.688 139.92 521.448 133.52C523.261 127.067 525.821 121.44 529.128 116.64H543.688C540.221 122.827 537.688 128.96 536.088 135.04C534.488 141.12 533.688 147.467 533.688 154.08C533.688 160.693 534.488 167.04 536.088 173.12C537.688 179.2 540.221 185.333 543.688 191.52H529.128ZM574.899 176V167.92L573.859 165.92V151.04C573.859 148.64 573.112 146.8 571.619 145.52C570.179 144.187 567.859 143.52 564.659 143.52C562.579 143.52 560.472 143.867 558.339 144.56C556.206 145.2 554.392 146.107 552.899 147.28L547.779 136.96C550.232 135.36 553.166 134.133 556.579 133.28C560.046 132.373 563.486 131.92 566.899 131.92C573.939 131.92 579.379 133.547 583.219 136.8C587.112 140 589.059 145.04 589.059 151.92V176H574.899ZM562.099 176.72C558.632 176.72 555.699 176.133 553.299 174.96C550.899 173.787 549.059 172.187 547.779 170.16C546.552 168.133 545.939 165.867 545.939 163.36C545.939 160.693 546.606 158.4 547.939 156.48C549.326 154.507 551.432 153.013 554.259 152C557.086 150.933 560.739 150.4 565.219 150.4H575.459V158.32H567.299C564.846 158.32 563.112 158.72 562.099 159.52C561.139 160.32 560.659 161.387 560.659 162.72C560.659 164.053 561.166 165.12 562.179 165.92C563.192 166.72 564.579 167.12 566.339 167.12C567.992 167.12 569.486 166.72 570.819 165.92C572.206 165.067 573.219 163.787 573.859 162.08L575.939 167.68C575.139 170.667 573.566 172.933 571.219 174.48C568.926 175.973 565.886 176.72 562.099 176.72ZM626.893 131.92C630.253 131.92 633.293 132.613 636.013 134C638.733 135.333 640.867 137.413 642.413 140.24C644.013 143.067 644.813 146.72 644.813 151.2V176H629.613V153.68C629.613 150.587 628.973 148.347 627.693 146.96C626.467 145.52 624.733 144.8 622.493 144.8C620.893 144.8 619.427 145.173 618.093 145.92C616.76 146.613 615.72 147.707 614.973 149.2C614.227 150.693 613.853 152.64 613.853 155.04V176H598.653V132.64H613.133V144.96L610.333 141.36C611.987 138.213 614.253 135.867 617.133 134.32C620.013 132.72 623.267 131.92 626.893 131.92ZM673.783 176.72C669.837 176.72 666.237 175.813 662.983 174C659.783 172.133 657.223 169.547 655.303 166.24C653.383 162.88 652.423 158.88 652.423 154.24C652.423 149.653 653.383 145.707 655.303 142.4C657.223 139.04 659.783 136.453 662.983 134.64C666.237 132.827 669.837 131.92 673.783 131.92C677.517 131.92 680.663 132.72 683.223 134.32C685.837 135.92 687.81 138.373 689.143 141.68C690.477 144.987 691.143 149.173 691.143 154.24C691.143 159.413 690.503 163.653 689.223 166.96C687.943 170.267 686.023 172.72 683.463 174.32C680.903 175.92 677.677 176.72 673.783 176.72ZM676.983 164.64C678.69 164.64 680.21 164.24 681.543 163.44C682.93 162.64 684.023 161.467 684.823 159.92C685.623 158.32 686.023 156.427 686.023 154.24C686.023 152.053 685.623 150.213 684.823 148.72C684.023 147.173 682.93 146 681.543 145.2C680.21 144.4 678.69 144 676.983 144C675.223 144 673.65 144.4 672.263 145.2C670.93 146 669.863 147.173 669.063 148.72C668.263 150.213 667.863 152.053 667.863 154.24C667.863 156.427 668.263 158.32 669.063 159.92C669.863 161.467 670.93 162.64 672.263 163.44C673.65 164.24 675.223 164.64 676.983 164.64ZM686.503 176V168.56L686.583 154.24L685.783 139.92V116.64H700.983V176H686.503ZM734.764 176V120H760.364C765.484 120 769.884 120.827 773.564 122.48C777.297 124.133 780.177 126.533 782.204 129.68C784.231 132.773 785.244 136.453 785.244 140.72C785.244 144.933 784.231 148.587 782.204 151.68C780.177 154.773 777.297 157.173 773.564 158.88C769.884 160.533 765.484 161.36 760.364 161.36H743.564L750.604 154.48V176H734.764ZM750.604 156.16L743.564 148.88H759.404C762.711 148.88 765.164 148.16 766.764 146.72C768.417 145.28 769.244 143.28 769.244 140.72C769.244 138.107 768.417 136.08 766.764 134.64C765.164 133.2 762.711 132.48 759.404 132.48H743.564L750.604 125.2V156.16ZM814.889 176.72C809.769 176.72 805.289 175.76 801.449 173.84C797.662 171.867 794.702 169.2 792.569 165.84C790.489 162.427 789.449 158.56 789.449 154.24C789.449 149.92 790.462 146.08 792.489 142.72C794.569 139.307 797.422 136.667 801.049 134.8C804.676 132.88 808.756 131.92 813.289 131.92C817.556 131.92 821.449 132.8 824.969 134.56C828.489 136.267 831.289 138.8 833.369 142.16C835.449 145.52 836.489 149.6 836.489 154.4C836.489 154.933 836.462 155.547 836.409 156.24C836.356 156.933 836.302 157.573 836.249 158.16H801.929V150.16H828.169L822.409 152.4C822.462 150.427 822.089 148.72 821.289 147.28C820.542 145.84 819.476 144.72 818.089 143.92C816.756 143.12 815.182 142.72 813.369 142.72C811.556 142.72 809.956 143.12 808.569 143.92C807.236 144.72 806.196 145.867 805.449 147.36C804.702 148.8 804.329 150.507 804.329 152.48V154.8C804.329 156.933 804.756 158.773 805.609 160.32C806.516 161.867 807.796 163.067 809.449 163.92C811.102 164.72 813.076 165.12 815.369 165.12C817.502 165.12 819.316 164.827 820.809 164.24C822.356 163.6 823.876 162.64 825.369 161.36L833.369 169.68C831.289 171.973 828.729 173.733 825.689 174.96C822.649 176.133 819.049 176.72 814.889 176.72ZM862.857 176.72C857.311 176.72 852.991 175.36 849.897 172.64C846.804 169.867 845.257 165.707 845.257 160.16V122.96H860.457V160C860.457 161.547 860.884 162.773 861.737 163.68C862.591 164.533 863.684 164.96 865.017 164.96C866.831 164.96 868.377 164.507 869.657 163.6L873.417 174.24C872.137 175.093 870.564 175.707 868.697 176.08C866.831 176.507 864.884 176.72 862.857 176.72ZM838.937 145.6V134.24H870.377V145.6H838.937ZM895.038 176.72C891.358 176.72 887.758 176.293 884.238 175.44C880.772 174.587 877.972 173.52 875.838 172.24L880.398 161.84C882.425 163.067 884.798 164.053 887.518 164.8C890.238 165.493 892.905 165.84 895.518 165.84C898.078 165.84 899.838 165.573 900.798 165.04C901.812 164.507 902.318 163.787 902.318 162.88C902.318 162.027 901.838 161.413 900.878 161.04C899.972 160.613 898.745 160.293 897.198 160.08C895.705 159.867 894.052 159.627 892.238 159.36C890.425 159.093 888.585 158.747 886.718 158.32C884.905 157.84 883.225 157.147 881.678 156.24C880.185 155.28 878.985 154 878.078 152.4C877.172 150.8 876.718 148.773 876.718 146.32C876.718 143.547 877.518 141.093 879.118 138.96C880.772 136.773 883.172 135.067 886.318 133.84C889.465 132.56 893.305 131.92 897.838 131.92C900.878 131.92 903.945 132.24 907.038 132.88C910.185 133.467 912.825 134.373 914.958 135.6L910.398 145.92C908.265 144.693 906.132 143.867 903.998 143.44C901.865 142.96 899.838 142.72 897.918 142.72C895.358 142.72 893.545 143.013 892.478 143.6C891.465 144.187 890.958 144.907 890.958 145.76C890.958 146.613 891.412 147.28 892.318 147.76C893.225 148.187 894.425 148.533 895.918 148.8C897.465 149.013 899.145 149.253 900.958 149.52C902.772 149.733 904.585 150.08 906.398 150.56C908.265 151.04 909.945 151.76 911.438 152.72C912.985 153.627 914.212 154.88 915.118 156.48C916.025 158.027 916.478 160.027 916.478 162.48C916.478 165.147 915.652 167.547 913.998 169.68C912.398 171.813 909.998 173.52 906.798 174.8C903.652 176.08 899.732 176.72 895.038 176.72ZM924.148 155.6L921.188 120H939.268L936.228 155.6H924.148ZM930.228 176.72C927.562 176.72 925.375 175.893 923.668 174.24C921.962 172.587 921.108 170.613 921.108 168.32C921.108 165.973 921.962 164.027 923.668 162.48C925.375 160.88 927.562 160.08 930.228 160.08C932.895 160.08 935.055 160.88 936.708 162.48C938.415 164.027 939.268 165.973 939.268 168.32C939.268 170.613 938.415 172.587 936.708 174.24C935.055 175.893 932.895 176.72 930.228 176.72ZM956.611 191.52H942.051C945.571 185.333 948.104 179.2 949.651 173.12C951.251 167.04 952.051 160.693 952.051 154.08C952.051 147.467 951.251 141.12 949.651 135.04C948.104 128.96 945.571 122.827 942.051 116.64H956.611C959.971 121.44 962.531 127.067 964.291 133.52C966.051 139.92 966.931 146.773 966.931 154.08C966.931 161.387 966.051 168.267 964.291 174.72C962.531 181.12 959.971 186.72 956.611 191.52Z" fill="black"/>
</svg>
