<svg width="135" height="124" viewBox="0 0 135 124" fill="none" xmlns="http://www.w3.org/2000/svg">
<path d="M108.954 24.2818C89.9113 11.1816 64.0302 26.7799 66.7583 49.7329C66.8098 50.1668 66.8661 50.6054 66.9292 51.0509C70.9025 79.5088 37.3756 85.2271 59.4377 110.952C81.4997 136.677 131.398 120.066 134.464 76.6525C136.107 53.3899 123.719 34.4394 108.954 24.2818Z" fill="#F4E3FF"/>
<path d="M52.1223 115.194C23.6936 115.194 0.648438 92.1478 0.648438 63.72C0.648438 35.2913 23.6946 12.2461 52.1223 12.2461C80.5511 12.2461 103.596 35.2923 103.596 63.72C103.596 92.1478 80.5511 115.194 52.1223 115.194Z" fill="#252D3B"/>
<path d="M52.1223 103.596C23.6936 103.596 0.648438 80.5501 0.648438 52.1223C0.648438 23.6936 23.6946 0.648438 52.1223 0.648438C80.5511 0.648438 103.596 23.6946 103.596 52.1223C103.596 80.5511 80.5511 103.596 52.1223 103.596Z" fill="white" stroke="#252D3B" stroke-width="1.3" stroke-miterlimit="10" stroke-linecap="round"/>
<path d="M52.3359 20.7227V57.8949L66.031 71.59" fill="white"/>
<path d="M52.3359 20.7227V57.8949L66.031 71.59" stroke="#252D3B" stroke-width="1.3" stroke-miterlimit="10" stroke-linecap="round"/>
</svg>
