<svg width="777" height="311" viewBox="0 0 777 311" fill="none" xmlns="http://www.w3.org/2000/svg">
<path d="M165.656 272.216H158.469V215.098H172.354L165.656 272.216Z" fill="#252D3B"/>
<path d="M127.974 114.122L115.443 66.8293C108.285 39.8112 128.656 13.3398 156.606 13.3398H556.39C585.488 13.3398 605.671 42.3468 595.556 69.6304L574.643 126.044V185.042H136.02C136.02 185.042 134.351 163.35 133.413 147.949C132.716 136.522 130.906 125.189 127.974 114.122Z" fill="#F4E3FF"/>
<path d="M593.837 219.193H144.361C139.316 219.193 135.227 215.103 135.227 210.058V179.438H593.837V219.193Z" fill="#F4E3FF"/>
<path d="M640.937 272.954H647.491V215.836H634.828L640.937 272.954Z" fill="#252D3B"/>
<path d="M675.63 113.782L687.057 66.4894C693.585 39.4713 675.008 13 649.519 13H284.939C258.404 13 239.998 42.0069 249.222 69.2905L268.293 125.704V184.703H668.292C668.292 184.703 669.814 163.01 670.67 147.609C671.304 136.182 672.955 124.849 675.63 113.782Z" fill="#F4E3FF"/>
<path d="M250.461 219.932H659.965C664.782 219.932 668.688 216.026 668.688 211.209V180.176H250.461V219.932Z" fill="#F4E3FF"/>
<path d="M609.984 93.5623C609.984 93.5623 638.943 75.8052 643.512 45.2344" stroke="#252D3B" stroke-width="1.3" stroke-miterlimit="10" stroke-linecap="round"/>
<path d="M186.726 91.6401C186.726 91.6401 159.318 73.3677 154.75 42.7969" stroke="#252D3B" stroke-width="1.3" stroke-miterlimit="10" stroke-linecap="round"/>
<path d="M504.976 110.452C504.976 110.452 509.738 108.219 525.673 106.427C550.82 103.601 574.709 124.7 568.503 143.797C562.202 163.188 544.07 159.606 534.009 152.133C534.009 152.133 516.187 146.384 502.677 150.983C489.167 155.582 477.12 161.427 476.479 155.153C476.16 152.022 486.005 148.397 486.005 148.397C486.005 148.397 472.495 154.146 460.709 149.259C460.709 149.259 442.312 157.307 439.725 153.284C437.138 149.259 450.073 144.085 450.073 144.085C450.073 144.085 444.324 129.425 451.798 120.514C451.798 120.514 448.349 105.854 451.223 105.566C454.097 105.278 461.284 111.315 461.284 111.315C461.284 111.315 475.943 105.854 490.892 109.303C490.892 109.303 494.916 98.6673 498.365 98.955C501.814 99.2409 504.976 110.452 504.976 110.452Z" fill="white" stroke="#252D3B" stroke-width="1.3" stroke-miterlimit="10" stroke-linecap="round"/>
<path d="M458.367 132.184C458.367 132.184 459.414 136.972 462.108 136.822C464.801 136.672 464.652 132.184 464.652 132.184" fill="white"/>
<path d="M458.367 132.184C458.367 132.184 459.414 136.972 462.108 136.822C464.801 136.672 464.652 132.184 464.652 132.184" stroke="#252D3B" stroke-width="1.3" stroke-miterlimit="10" stroke-linecap="round"/>
<path d="M479.767 130.987C479.767 130.987 478.121 135.626 481.862 135.477C485.604 135.328 486.8 130.09 486.8 130.09" fill="white"/>
<path d="M479.767 130.987C479.767 130.987 478.121 135.626 481.862 135.477C485.604 135.328 486.8 130.09 486.8 130.09" stroke="#252D3B" stroke-width="1.3" stroke-miterlimit="10" stroke-linecap="round"/>
<path d="M449.992 143.109C449.992 143.109 452.728 147.329 460.712 149.259L449.992 143.109Z" fill="white"/>
<path d="M449.992 143.109C449.992 143.109 452.728 147.329 460.712 149.259" stroke="#252D3B" stroke-width="1.3" stroke-miterlimit="10" stroke-linecap="round"/>
<path d="M486 148.397C486 148.397 494.877 145.802 498.617 142.211L486 148.397Z" fill="white"/>
<path d="M486 148.397C486 148.397 494.877 145.802 498.617 142.211" stroke="#252D3B" stroke-width="1.3" stroke-miterlimit="10" stroke-linecap="round"/>
<path d="M495.633 112.281C495.633 112.281 496.231 105.996 497.728 105.996C499.225 105.996 499.972 113.179 499.972 113.179" fill="white"/>
<path d="M495.633 112.281C495.633 112.281 496.231 105.996 497.728 105.996C499.225 105.996 499.972 113.179 499.972 113.179" stroke="#252D3B" stroke-width="1.3" stroke-miterlimit="10" stroke-linecap="round"/>
<path d="M458.216 115.273C458.216 115.273 453.876 108.689 453.278 111.233C452.68 113.777 455.522 118.715 455.522 118.715" fill="white"/>
<path d="M458.216 115.273C458.216 115.273 453.876 108.689 453.278 111.233C452.68 113.777 455.522 118.715 455.522 118.715" stroke="#252D3B" stroke-width="1.3" stroke-miterlimit="10" stroke-linecap="round"/>
<path d="M504.969 110.453C504.969 110.453 507.294 114.378 506.097 119.765L504.969 110.453Z" fill="white"/>
<path d="M504.969 110.453C504.969 110.453 507.294 114.378 506.097 119.765" stroke="#252D3B" stroke-width="1.3" stroke-miterlimit="10" stroke-linecap="round"/>
<path d="M534.008 152.131C534.008 152.131 530.259 147.357 535.787 145.367C541.315 143.377 554.14 152.664 557.677 140.945" fill="white"/>
<path d="M534.008 152.131C534.008 152.131 530.259 147.357 535.787 145.367C541.315 143.377 554.14 152.664 557.677 140.945" stroke="#252D3B" stroke-width="1.3" stroke-miterlimit="10" stroke-linecap="round"/>
<path d="M480.07 141.626C480.07 141.626 497.418 136.248 501.856 131.406L480.07 141.626Z" fill="white"/>
<path d="M480.07 141.626C480.07 141.626 497.418 136.248 501.856 131.406" stroke="#252D3B" stroke-width="1.3" stroke-miterlimit="10" stroke-linecap="round"/>
<path d="M480.07 144.451L505.218 137.055" stroke="#252D3B" stroke-width="1.3" stroke-miterlimit="10" stroke-linecap="round"/>
<path d="M461.244 141.36C461.244 141.36 439.055 134.367 439.459 134.098L461.244 141.36Z" fill="white"/>
<path d="M461.244 141.36C461.244 141.36 439.055 134.367 439.459 134.098" stroke="#252D3B" stroke-width="1.3" stroke-miterlimit="10" stroke-linecap="round"/>
<path d="M459.357 143.643L439.453 141.223" stroke="#252D3B" stroke-width="1.3" stroke-miterlimit="10" stroke-linecap="round"/>
<path d="M470.657 142.57L467.43 139.611C467.43 139.611 471.061 138.939 474.288 139.611L470.657 142.57Z" fill="#252D3B"/>
<path d="M518.047 107.772C518.047 107.772 518.467 120.588 526.66 122.058C534.854 123.529 537.795 111.974 543.678 114.496C549.56 117.017 554.813 119.958 558.173 116.387C558.173 116.387 542.675 102.17 518.047 107.772Z" fill="#252D3B"/>
<path d="M553.396 132.858C556.04 132.858 558.183 131.334 558.183 129.455C558.183 127.575 556.04 126.051 553.396 126.051C550.753 126.051 548.609 127.575 548.609 129.455C548.609 131.334 550.753 132.858 553.396 132.858Z" fill="#252D3B"/>
<path d="M465.172 110.086C465.172 110.086 469.018 108.773 469.768 114.87C470.519 120.967 470.912 121.364 475.32 120.52C479.729 119.675 478.585 108.96 486.277 108.491C486.277 108.491 473.614 107.178 465.172 110.086Z" fill="#252D3B"/>
<path d="M110.695 66.7183C110.695 66.7183 120.139 82.1213 135.666 78.6288C135.666 78.6288 139.975 71.4786 140.872 65.8621C140.982 65.1709 141.092 64.5013 141.199 63.8651C142.237 57.545 142.989 54.0241 142.989 54.0241C142.989 54.0241 142.985 54.0221 142.974 54.019C142.349 53.6395 121.957 41.4174 121.862 42.1616C119.641 59.344 110.695 66.7183 110.695 66.7183Z" fill="#FFB27D"/>
<path d="M123.43 46.5737C124.938 50.7781 130.98 59.4726 141.202 63.8626C142.24 57.5425 142.991 54.0217 142.991 54.0217C142.991 54.0217 142.988 54.0196 142.977 54.0165C142.399 53.7635 122.979 45.3333 123.43 46.5737Z" fill="#ED975D"/>
<path d="M147.413 54.0537C147.413 54.0537 122.087 56.098 121.057 40.3063C120.027 24.515 116.064 14.1439 132.19 12.171C148.317 10.1982 151.855 16.0184 153.481 21.2055C155.107 26.3937 153.975 53.1152 147.413 54.0537Z" fill="#FFB27D"/>
<path d="M121.497 44.5978C121.131 44.7608 115.624 45.5806 108.666 24.2185C107.574 20.8654 107.53 13.9621 112.079 8.55791C116.628 3.15375 130.267 0.429044 141.318 0.0186409C152.369 -0.391762 154.032 6.04355 155.642 12.502C157.332 19.2819 164.206 25.6935 164.206 25.6935C154.158 29.4648 144.122 20.3732 140.072 21.0047C136.022 21.6363 133.734 27.5208 133.148 29.4298C132.562 31.3389 131.871 32.8936 127.274 30.4137C122.678 27.9333 124.033 36.9688 124.562 38.7375C124.562 38.7375 124.556 43.2344 121.497 44.5978Z" fill="#2A4E96"/>
<path d="M127.643 206.68C127.643 206.68 125.523 233.131 123.031 264.927C119.644 308.119 115.572 361.174 115.169 371.224C114.472 388.677 111.677 416.594 111.677 416.594C111.677 416.594 105.05 423.227 91.7848 420.432C91.7848 420.432 79.9649 380.579 76.5881 338.413C76.5356 337.722 76.4832 337.026 76.4312 336.329C73.2905 293.405 68.4062 203.016 68.4062 203.016L127.643 206.68Z" fill="black"/>
<path d="M116.94 211.904C116.94 211.904 121.116 221.422 113.483 252.389C107.882 275.109 76.5881 338.413 76.5881 338.413C76.5356 337.722 76.4832 337.026 76.4312 336.329C73.2905 293.405 68.4062 203.016 68.4062 203.016L116.94 211.904Z" fill="#F4E3FF"/>
<path d="M119.744 204.919C119.744 204.919 79.7473 305.618 54.6207 350.636C29.494 395.655 21.6418 408.219 21.6418 408.219C21.6418 408.219 7.24637 402.46 5.9375 398.534C5.9375 398.534 15.546 311.623 32.373 290.437C41.8812 278.466 53.0505 242.539 53.5741 229.975C54.0971 217.412 56.9766 192.547 56.9766 192.547L119.744 204.919Z" fill="black"/>
<path d="M121.776 209.472C116.381 207.948 61.3641 186.386 62.4374 183.268C66.1655 172.421 70.0175 154.101 74.6204 131.825C75.4875 127.677 76.4543 123.597 77.5102 119.601C80.2657 109.195 83.6369 99.4241 87.4673 90.8714C94.5872 74.9825 106.149 64.2035 115.394 60.5212C116.597 60.0676 119.124 63.8753 124.074 68.2242C128.646 72.2382 133.4 72.1626 138.654 72.4949L142.894 80.0143C146.33 86.5355 149.258 95.6723 149.643 103.116C149.643 103.116 122.259 209.604 121.776 209.472Z" fill="#2A4E96"/>
<path d="M149.645 103.116L133.182 101.344L92.424 150.786C86.5708 157.887 76.914 160.589 68.2256 157.557L56.9766 192.548L126.132 214.873L149.645 103.116Z" fill="black"/>
<path d="M123.137 79.397C120.741 74.8662 112.531 61.851 112.531 61.851C112.531 61.851 113.551 61.3033 113.904 61.1388C114.267 60.9701 115.396 60.5195 115.396 60.5195C117.026 60.7278 125.691 73.6663 128.388 78.5161C131.635 84.3558 139.427 102.026 139.427 102.026L133.182 101.342C133.182 101.342 125.958 84.7307 123.137 79.397Z" fill="#F4E3FF"/>
<path d="M146.368 205.398C146.368 205.398 150.473 207.561 152.913 207.454C155.353 207.347 157.067 207.732 160.685 208.505C164.304 209.278 164.453 210.499 161.764 211.1C159.076 211.702 156.03 210.55 157.398 212.002C158.766 213.454 171.69 214.698 171.529 216.343C171.369 217.988 159.616 222.757 155.313 221.258C151.011 219.759 140.953 210.956 140.953 210.956L146.368 205.398Z" fill="#FFB27D"/>
<path d="M145.783 210.699C149.513 207.8 148.47 205.459 148.47 205.459C148.47 205.459 122.994 163.967 121.233 160.078C119.473 156.189 123.248 106.08 123.248 106.08C123.248 106.08 125.565 86.094 115.8 80.1658C107.314 75.0141 104.516 70.7903 98.4131 74.5543C91.1411 79.0405 84.8919 95.776 86.4194 104.183C89.8486 123.053 94.2787 158.815 97.7348 166.066C105.426 182.206 139.612 213.472 139.612 213.472C139.612 213.472 142.853 212.975 145.783 210.699Z" fill="#2A4E96"/>
<path d="M622.473 218.159C622.192 217.996 613.482 220.227 611.047 220.282C608.916 220.33 600.904 218.523 600.001 216.533C599.872 216.249 609.267 215.678 610.751 214.747C611.489 214.284 614.606 212.282 617.228 212.469C619.851 212.657 621.256 212.457 621.256 212.457L622.473 218.159Z" fill="#FFB27D"/>
<path d="M719.593 120.383C719.593 120.383 707.118 130.578 695.07 123.076C695.07 123.076 693.542 115.789 694.437 110.797C694.548 110.183 694.652 109.587 694.748 109.02C695.732 103.394 696.133 100.209 696.133 100.209C696.133 100.209 696.137 100.208 696.147 100.209C696.784 100.073 717.544 95.773 717.405 96.427C714.228 111.546 719.593 120.383 719.593 120.383Z" fill="#FFB27D"/>
<path d="M714.792 99.6839C712.287 102.781 704.645 108.326 694.75 109.02C695.733 103.394 696.135 100.209 696.135 100.209C696.135 100.209 696.139 100.208 696.148 100.209C696.709 100.165 715.536 98.7721 714.792 99.6839Z" fill="#ED975D"/>
<path d="M692.204 98.8671C692.204 98.8671 712.927 108.028 718.433 95.0355C723.939 82.0423 730.322 74.4748 717.324 68.0759C704.326 61.6774 699.638 65.5389 696.745 69.4283C693.852 73.3182 686.955 96.1494 692.204 98.8671Z" fill="#FFB27D"/>
<path d="M716.998 98.5872C717.259 98.8321 721.655 101.14 733.788 85.1983C735.693 82.6961 737.758 76.8971 735.516 71.0104C733.273 65.1242 722.59 58.8229 713.406 55.2311C704.222 51.6389 700.931 56.5689 697.679 61.5333C694.265 66.7449 686.594 70.1244 686.594 70.1244C693.945 76.2513 705.066 71.5447 708.29 73.2663C711.514 74.9874 711.713 80.6145 711.645 82.3939C711.577 84.1728 711.702 85.6853 716.301 84.9474C720.899 84.2095 717.104 91.4183 716.14 92.7524C716.14 92.7524 714.824 96.5405 716.998 98.5872Z" fill="#2A4E96"/>
<path d="M662.875 240.518C662.875 240.518 664.766 264.105 666.987 292.458C670.008 330.974 673.639 378.284 673.998 387.247C674.619 402.81 677.112 427.704 677.112 427.704C677.112 427.704 683.022 433.618 694.85 431.126C694.85 431.126 705.39 395.588 708.402 357.988C708.448 357.371 708.495 356.751 708.542 356.129C711.343 317.852 715.698 237.25 715.698 237.25L662.875 240.518Z" fill="black"/>
<path d="M669.922 238.947C669.922 238.947 668.698 253.664 675.505 281.277C680.499 301.538 708.404 357.988 708.404 357.988C708.451 357.371 708.498 356.751 708.544 356.129C711.345 317.852 715.7 237.25 715.7 237.25L669.922 238.947Z" fill="#F4E3FF"/>
<path d="M669.922 238.947C669.922 238.947 705.588 328.742 727.994 368.887C750.4 409.031 757.402 420.234 757.402 420.234C757.402 420.234 770.239 415.1 771.406 411.599C771.406 411.599 762.838 334.098 747.833 315.205C739.354 304.53 729.394 272.493 728.927 261.29C728.46 250.087 725.893 227.914 725.893 227.914L669.922 238.947Z" fill="black"/>
<path d="M668.127 237.249C673.117 237.551 725.773 235.559 725.785 232.618C725.833 222.39 727.972 205.835 730.64 185.727C731.129 181.98 731.513 178.261 731.798 174.586C732.534 165.015 732.567 155.799 731.854 147.472C730.527 132.003 723.96 119.531 717.258 113.715C716.378 112.979 713.132 115.443 707.687 117.65C702.658 119.687 698.678 118.227 694.157 116.963L688.377 122.048C683.569 126.529 678.419 133.361 675.909 139.515C675.909 139.516 667.682 237.218 668.127 237.249Z" fill="#2A4E96"/>
<path d="M675.909 139.516L690.29 142.86L710.082 196.461C712.924 204.158 720.261 209.271 728.467 209.271L726.732 235.731L662.875 240.516L675.909 139.516Z" fill="black"/>
<path d="M619.361 214.761C618.335 210.675 620.354 209.604 620.354 209.604C620.354 209.604 661.049 194.472 664.423 192.709C667.798 190.946 692.689 153.686 692.689 153.686C692.689 153.686 702.047 138.378 712.163 139.583C720.953 140.63 725.374 146.552 727.59 152.549C730.231 159.696 728.153 167.733 722.46 172.797C709.68 184.162 684.044 206.638 677.632 209.83C663.359 216.935 622.169 220.1 622.169 220.1C622.169 220.1 620.167 217.969 619.361 214.761Z" fill="#2A4E96"/>
<path d="M705.192 127.335C708.541 124.224 719.276 115.677 719.276 115.677C719.276 115.677 718.434 114.768 718.125 114.468C717.929 114.278 717.255 113.715 717.255 113.715C715.822 113.412 704.725 121.76 701.03 125.05C696.581 129.013 684.625 141.543 684.625 141.543L690.288 142.86C690.288 142.86 701.25 130.997 705.192 127.335Z" fill="#F4E3FF"/>
</svg>
