<svg width="268" height="210" viewBox="0 0 268 210" fill="none" xmlns="http://www.w3.org/2000/svg">
<path d="M123.785 209.545C120.352 188.683 140.021 170.223 160.536 165.111C181.051 159.999 202.597 163.872 223.737 163.514C235.354 163.318 248.526 160.888 254.72 151.057C259.637 143.253 258.552 133.242 257.294 124.105C253.643 97.5946 249.992 71.0846 246.341 44.5756C244.796 33.3606 242.333 20.6716 232.676 14.7616C226.027 10.6916 217.685 11.0286 209.903 11.4976C157.102 14.6736 104.301 17.8496 51.5015 21.0246C38.3935 21.8126 24.3235 22.9626 14.1835 31.3056C5.87749 38.1396 1.5955 48.9096 0.412495 59.6006C-0.770505 70.2916 0.810486 81.0746 2.38749 91.7146C6.52349 119.623 12.3085 150.434 34.7955 167.474C57.5535 184.719 89.2065 181.659 117.496 177.784C120.077 188.06 122.657 198.336 125.237 208.612L123.785 209.545Z" fill="#F4E3FF"/>
<path d="M8.80747 103.821C13.7275 127.788 23.3085 152.752 46.1235 164.882C68.8575 176.969 96.1445 174.251 120.804 170.941C122.705 178.511 124.606 186.081 126.508 193.651C126.324 195.833 126.356 198.073 126.622 200.364C126.567 200.588 126.592 200.799 126.69 200.991C126.698 201.05 126.701 201.108 126.709 201.167C126.94 202.816 129.495 202.765 131.138 201.792C131.266 201.734 131.392 201.674 131.507 201.6C131.991 201.289 132.475 200.979 132.959 200.668C133.598 200.258 134.146 199.44 133.949 198.654C133.427 196.576 132.905 194.498 132.383 192.42C133.365 183.029 138.763 174.617 146.143 168.438C156.561 159.716 169.213 156.376 182.563 155.55C196.89 154.663 211.221 156.367 225.548 156.391C235.831 156.408 246.938 155.552 255.787 149.744C265.279 143.513 267.692 133.134 266.924 122.358C265.898 107.96 263.167 93.5283 261.198 79.2323C259.15 64.3613 257.157 49.4814 255.054 34.6184C253.657 24.7464 251.781 13.5483 244.031 6.48234C234.854 -1.88466 221.407 -0.0166384 210.056 0.666362C194.876 1.57936 179.695 2.49234 164.515 3.40534C134.155 5.23134 103.794 7.05734 73.4345 8.88334C50.9745 10.2343 22.4435 8.86334 9.45248 31.1763C3.26748 41.7993 2.30848 54.3494 3.21548 66.3564C4.15948 78.8684 6.28447 91.5294 8.80747 103.821ZM10.1775 44.0804C13.1265 31.0964 21.2695 20.8643 34.2565 17.0213C45.9775 13.5523 58.8015 13.7744 70.9055 13.0454C99.2855 11.3384 127.666 9.63136 156.046 7.92436C169.906 7.09036 183.766 6.25735 197.627 5.42335C204.125 5.03235 210.622 4.58334 217.123 4.25434C224.269 3.89334 232.022 3.80135 237.975 8.41835C246.738 15.2153 248.123 27.9383 249.534 38.1373C251.411 51.7143 253.274 65.2933 255.144 78.8713C257.022 92.5043 259.178 106.133 260.743 119.805C262.24 132.888 259.797 145.53 245.904 150.066C232.806 154.343 217.838 152.086 204.355 151.534C190.618 150.971 176.334 150.74 163.053 154.84C149.404 159.053 135.819 168.801 129.718 181.799C128.548 177.141 127.378 172.482 126.208 167.824C125.949 166.792 124.483 166.471 123.588 166.593C101.318 169.623 76.9145 172.764 55.5185 163.927C34.3005 155.163 23.1135 135.057 17.3405 113.856C14.6015 103.797 12.8635 93.5013 11.3155 83.2023C9.37947 70.3223 7.24747 56.9814 10.1775 44.0804Z" fill="black"/>
<path d="M58.9263 112V68.56H41.7263V56H91.8863V68.56H74.7663V112H58.9263ZM97.0675 112V68.64H112.268V112H97.0675ZM104.668 63.84C101.894 63.84 99.6542 63.0667 97.9475 61.52C96.2408 59.9733 95.3875 58.0533 95.3875 55.76C95.3875 53.4667 96.2408 51.5467 97.9475 50C99.6542 48.4533 101.894 47.68 104.668 47.68C107.441 47.68 109.681 48.4267 111.388 49.92C113.094 51.36 113.948 53.2267 113.948 55.52C113.948 57.92 113.094 59.92 111.388 61.52C109.734 63.0667 107.494 63.84 104.668 63.84ZM149.426 112.72C145.746 112.72 142.599 111.92 139.986 110.32C137.372 108.667 135.372 106.213 133.986 102.96C132.652 99.6533 131.986 95.44 131.986 90.32C131.986 85.1467 132.626 80.9333 133.906 77.68C135.186 74.3733 137.106 71.92 139.666 70.32C142.279 68.72 145.532 67.92 149.426 67.92C153.372 67.92 156.946 68.8533 160.146 70.72C163.399 72.5333 165.959 75.12 167.826 78.48C169.746 81.7867 170.706 85.7333 170.706 90.32C170.706 94.9067 169.746 98.88 167.826 102.24C165.959 105.6 163.399 108.187 160.146 110C156.946 111.813 153.372 112.72 149.426 112.72ZM122.146 127.52V68.64H136.626V76L136.546 90.32L137.346 104.72V127.52H122.146ZM146.226 100.64C147.932 100.64 149.452 100.24 150.786 99.44C152.172 98.64 153.266 97.4667 154.066 95.92C154.919 94.3733 155.346 92.5067 155.346 90.32C155.346 88.1333 154.919 86.2667 154.066 84.72C153.266 83.1733 152.172 82 150.786 81.2C149.452 80.4 147.932 80 146.226 80C144.519 80 142.972 80.4 141.586 81.2C140.252 82 139.159 83.1733 138.306 84.72C137.506 86.2667 137.106 88.1333 137.106 90.32C137.106 92.5067 137.506 94.3733 138.306 95.92C139.159 97.4667 140.252 98.64 141.586 99.44C142.972 100.24 144.519 100.64 146.226 100.64ZM207.052 112V61.68L213.852 68.24H196.652V56H222.892V112H207.052Z" fill="black"/>
</svg>
