<svg width="901" height="196" viewBox="0 0 901 196" fill="none" xmlns="http://www.w3.org/2000/svg">
<path d="M-0.00281253 78L24.7172 22H40.3172L65.1172 78H48.6372L29.2772 29.76H35.5172L16.1572 78H-0.00281253ZM13.5172 67.12L17.5972 55.44H44.9572L49.0372 67.12H13.5172ZM78.6241 78L60.7841 34.64H76.3841L90.6241 70.88H82.7841L97.7441 34.64H112.224L94.3041 78H78.6241ZM136.742 78.72C131.995 78.72 127.782 77.76 124.102 75.84C120.422 73.92 117.515 71.28 115.382 67.92C113.302 64.5067 112.262 60.6133 112.262 56.24C112.262 51.8667 113.302 48 115.382 44.64C117.515 41.28 120.422 38.6667 124.102 36.8C127.782 34.88 131.995 33.92 136.742 33.92C141.488 33.92 145.702 34.88 149.382 36.8C153.115 38.6667 156.022 41.28 158.102 44.64C160.182 48 161.222 51.8667 161.222 56.24C161.222 60.6133 160.182 64.5067 158.102 67.92C156.022 71.28 153.115 73.92 149.382 75.84C145.702 77.76 141.488 78.72 136.742 78.72ZM136.742 66.64C138.502 66.64 140.048 66.24 141.382 65.44C142.768 64.64 143.862 63.4667 144.662 61.92C145.462 60.32 145.862 58.4267 145.862 56.24C145.862 54.0533 145.462 52.2133 144.662 50.72C143.862 49.1733 142.768 48 141.382 47.2C140.048 46.4 138.502 46 136.742 46C135.035 46 133.488 46.4 132.102 47.2C130.768 48 129.675 49.1733 128.822 50.72C128.022 52.2133 127.622 54.0533 127.622 56.24C127.622 58.4267 128.022 60.32 128.822 61.92C129.675 63.4667 130.768 64.64 132.102 65.44C133.488 66.24 135.035 66.64 136.742 66.64ZM168.263 78V34.64H183.463V78H168.263ZM175.863 29.84C173.089 29.84 170.849 29.0667 169.143 27.52C167.436 25.9733 166.583 24.0533 166.583 21.76C166.583 19.4667 167.436 17.5467 169.143 16C170.849 14.4533 173.089 13.68 175.863 13.68C178.636 13.68 180.876 14.4267 182.583 15.92C184.289 17.36 185.143 19.2267 185.143 21.52C185.143 23.92 184.289 25.92 182.583 27.52C180.929 29.0667 178.689 29.84 175.863 29.84ZM212.221 78.72C208.274 78.72 204.674 77.8133 201.421 76C198.221 74.1333 195.661 71.5467 193.741 68.24C191.821 64.88 190.861 60.88 190.861 56.24C190.861 51.6533 191.821 47.7067 193.741 44.4C195.661 41.04 198.221 38.4533 201.421 36.64C204.674 34.8267 208.274 33.92 212.221 33.92C215.954 33.92 219.101 34.72 221.661 36.32C224.274 37.92 226.248 40.3733 227.581 43.68C228.914 46.9867 229.581 51.1733 229.581 56.24C229.581 61.4133 228.941 65.6533 227.661 68.96C226.381 72.2667 224.461 74.72 221.901 76.32C219.341 77.92 216.114 78.72 212.221 78.72ZM215.421 66.64C217.128 66.64 218.648 66.24 219.981 65.44C221.368 64.64 222.461 63.4667 223.261 61.92C224.061 60.32 224.461 58.4267 224.461 56.24C224.461 54.0533 224.061 52.2133 223.261 50.72C222.461 49.1733 221.368 48 219.981 47.2C218.648 46.4 217.128 46 215.421 46C213.661 46 212.088 46.4 210.701 47.2C209.368 48 208.301 49.1733 207.501 50.72C206.701 52.2133 206.301 54.0533 206.301 56.24C206.301 58.4267 206.701 60.32 207.501 61.92C208.301 63.4667 209.368 64.64 210.701 65.44C212.088 66.24 213.661 66.64 215.421 66.64ZM224.941 78V70.56L225.021 56.24L224.221 41.92V18.64H239.421V78H224.941ZM300.722 33.92C304.082 33.92 307.122 34.6133 309.842 36C312.562 37.3333 314.695 39.4133 316.242 42.24C317.842 45.0667 318.642 48.72 318.642 53.2V78H303.442V55.68C303.442 52.5867 302.802 50.3467 301.522 48.96C300.295 47.52 298.562 46.8 296.322 46.8C294.722 46.8 293.255 47.1733 291.922 47.92C290.588 48.6133 289.548 49.7067 288.802 51.2C288.055 52.6933 287.682 54.64 287.682 57.04V78H272.482V34.64H286.962V46.96L284.162 43.36C285.815 40.2133 288.082 37.8667 290.962 36.32C293.842 34.72 297.095 33.92 300.722 33.92ZM350.492 78.72C345.745 78.72 341.532 77.76 337.852 75.84C334.172 73.92 331.265 71.28 329.132 67.92C327.052 64.5067 326.012 60.6133 326.012 56.24C326.012 51.8667 327.052 48 329.132 44.64C331.265 41.28 334.172 38.6667 337.852 36.8C341.532 34.88 345.745 33.92 350.492 33.92C355.238 33.92 359.452 34.88 363.132 36.8C366.865 38.6667 369.772 41.28 371.852 44.64C373.932 48 374.972 51.8667 374.972 56.24C374.972 60.6133 373.932 64.5067 371.852 67.92C369.772 71.28 366.865 73.92 363.132 75.84C359.452 77.76 355.238 78.72 350.492 78.72ZM350.492 66.64C352.252 66.64 353.798 66.24 355.132 65.44C356.518 64.64 357.612 63.4667 358.412 61.92C359.212 60.32 359.612 58.4267 359.612 56.24C359.612 54.0533 359.212 52.2133 358.412 50.72C357.612 49.1733 356.518 48 355.132 47.2C353.798 46.4 352.252 46 350.492 46C348.785 46 347.238 46.4 345.852 47.2C344.518 48 343.425 49.1733 342.572 50.72C341.772 52.2133 341.372 54.0533 341.372 56.24C341.372 58.4267 341.772 60.32 342.572 61.92C343.425 63.4667 344.518 64.64 345.852 65.44C347.238 66.24 348.785 66.64 350.492 66.64ZM410.253 33.92C413.613 33.92 416.653 34.6133 419.373 36C422.093 37.3333 424.226 39.4133 425.773 42.24C427.373 45.0667 428.173 48.72 428.173 53.2V78H412.973V55.68C412.973 52.5867 412.333 50.3467 411.053 48.96C409.826 47.52 408.093 46.8 405.853 46.8C404.253 46.8 402.786 47.1733 401.453 47.92C400.119 48.6133 399.079 49.7067 398.333 51.2C397.586 52.6933 397.213 54.64 397.213 57.04V78H382.013V34.64H396.493V46.96L393.693 43.36C395.346 40.2133 397.613 37.8667 400.493 36.32C403.373 34.72 406.626 33.92 410.253 33.92ZM436.676 61.04V49.36H460.036V61.04H436.676ZM496.012 78.72C492.332 78.72 489.185 77.92 486.572 76.32C483.958 74.6667 481.958 72.2133 480.572 68.96C479.238 65.6533 478.572 61.44 478.572 56.32C478.572 51.1467 479.212 46.9333 480.492 43.68C481.772 40.3733 483.692 37.92 486.252 36.32C488.865 34.72 492.118 33.92 496.012 33.92C499.958 33.92 503.532 34.8533 506.732 36.72C509.985 38.5333 512.545 41.12 514.412 44.48C516.332 47.7867 517.292 51.7333 517.292 56.32C517.292 60.9067 516.332 64.88 514.412 68.24C512.545 71.6 509.985 74.1867 506.732 76C503.532 77.8133 499.958 78.72 496.012 78.72ZM468.732 93.52V34.64H483.212V42L483.132 56.32L483.932 70.72V93.52H468.732ZM492.812 66.64C494.518 66.64 496.038 66.24 497.372 65.44C498.758 64.64 499.852 63.4667 500.652 61.92C501.505 60.3733 501.932 58.5067 501.932 56.32C501.932 54.1333 501.505 52.2667 500.652 50.72C499.852 49.1733 498.758 48 497.372 47.2C496.038 46.4 494.518 46 492.812 46C491.105 46 489.558 46.4 488.172 47.2C486.838 48 485.745 49.1733 484.892 50.72C484.092 52.2667 483.692 54.1333 483.692 56.32C483.692 58.5067 484.092 60.3733 484.892 61.92C485.745 63.4667 486.838 64.64 488.172 65.44C489.558 66.24 491.105 66.64 492.812 66.64ZM524.357 78V18.64H539.557V78H524.357ZM575.915 78V69.92L574.875 67.92V53.04C574.875 50.64 574.128 48.8 572.635 47.52C571.195 46.1867 568.875 45.52 565.675 45.52C563.595 45.52 561.488 45.8667 559.355 46.56C557.221 47.2 555.408 48.1067 553.915 49.28L548.795 38.96C551.248 37.36 554.181 36.1333 557.595 35.28C561.061 34.3733 564.501 33.92 567.915 33.92C574.955 33.92 580.395 35.5467 584.235 38.8C588.128 42 590.075 47.04 590.075 53.92V78H575.915ZM563.115 78.72C559.648 78.72 556.715 78.1333 554.315 76.96C551.915 75.7867 550.075 74.1867 548.795 72.16C547.568 70.1333 546.955 67.8667 546.955 65.36C546.955 62.6933 547.621 60.4 548.955 58.48C550.341 56.5067 552.448 55.0133 555.275 54C558.101 52.9333 561.755 52.4 566.235 52.4H576.475V60.32H568.315C565.861 60.32 564.128 60.72 563.115 61.52C562.155 62.32 561.675 63.3867 561.675 64.72C561.675 66.0533 562.181 67.12 563.195 67.92C564.208 68.72 565.595 69.12 567.355 69.12C569.008 69.12 570.501 68.72 571.835 67.92C573.221 67.0667 574.235 65.7867 574.875 64.08L576.955 69.68C576.155 72.6667 574.581 74.9333 572.235 76.48C569.941 77.9733 566.901 78.72 563.115 78.72ZM606.328 94.24C604.034 94.24 601.714 93.8667 599.368 93.12C597.074 92.4267 595.208 91.4933 593.768 90.32L599.048 79.68C599.954 80.48 600.994 81.0933 602.168 81.52C603.394 82 604.594 82.24 605.768 82.24C607.421 82.24 608.728 81.8667 609.688 81.12C610.648 80.3733 611.474 79.2 612.168 77.6L614.168 72.56L615.368 71.04L630.088 34.64H644.568L625.848 79.76C624.354 83.4933 622.621 86.4 620.648 88.48C618.728 90.6133 616.568 92.1067 614.168 92.96C611.821 93.8133 609.208 94.24 606.328 94.24ZM612.248 79.84L593.128 34.64H608.728L622.808 69.68L612.248 79.84ZM670.045 78.72C664.925 78.72 660.445 77.76 656.605 75.84C652.819 73.8667 649.859 71.2 647.725 67.84C645.645 64.4267 644.605 60.56 644.605 56.24C644.605 51.92 645.619 48.08 647.645 44.72C649.725 41.3067 652.579 38.6667 656.205 36.8C659.832 34.88 663.912 33.92 668.445 33.92C672.712 33.92 676.605 34.8 680.125 36.56C683.645 38.2667 686.445 40.8 688.525 44.16C690.605 47.52 691.645 51.6 691.645 56.4C691.645 56.9333 691.619 57.5467 691.565 58.24C691.512 58.9333 691.459 59.5733 691.405 60.16H657.085V52.16H683.325L677.565 54.4C677.619 52.4267 677.245 50.72 676.445 49.28C675.699 47.84 674.632 46.72 673.245 45.92C671.912 45.12 670.339 44.72 668.525 44.72C666.712 44.72 665.112 45.12 663.725 45.92C662.392 46.72 661.352 47.8667 660.605 49.36C659.859 50.8 659.485 52.5067 659.485 54.48V56.8C659.485 58.9333 659.912 60.7733 660.765 62.32C661.672 63.8667 662.952 65.0667 664.605 65.92C666.259 66.72 668.232 67.12 670.525 67.12C672.659 67.12 674.472 66.8267 675.965 66.24C677.512 65.6 679.032 64.64 680.525 63.36L688.525 71.68C686.445 73.9733 683.885 75.7333 680.845 76.96C677.805 78.1333 674.205 78.72 670.045 78.72ZM698.653 78V34.64H713.133V47.28L710.973 43.68C712.253 40.4267 714.333 38 717.213 36.4C720.093 34.7467 723.587 33.92 727.693 33.92V47.6C727 47.4933 726.387 47.44 725.853 47.44C725.373 47.3867 724.84 47.36 724.253 47.36C721.16 47.36 718.653 48.2133 716.733 49.92C714.813 51.5733 713.853 54.2933 713.853 58.08V78H698.653ZM749.882 78.72C746.202 78.72 742.602 78.2933 739.082 77.44C735.616 76.5867 732.816 75.52 730.682 74.24L735.242 63.84C737.269 65.0667 739.642 66.0533 742.362 66.8C745.082 67.4933 747.749 67.84 750.362 67.84C752.922 67.84 754.682 67.5733 755.642 67.04C756.656 66.5067 757.162 65.7867 757.162 64.88C757.162 64.0267 756.682 63.4133 755.722 63.04C754.816 62.6133 753.589 62.2933 752.042 62.08C750.549 61.8667 748.896 61.6267 747.082 61.36C745.269 61.0933 743.429 60.7467 741.562 60.32C739.749 59.84 738.069 59.1467 736.522 58.24C735.029 57.28 733.829 56 732.922 54.4C732.016 52.8 731.562 50.7733 731.562 48.32C731.562 45.5467 732.362 43.0933 733.962 40.96C735.616 38.7733 738.016 37.0667 741.162 35.84C744.309 34.56 748.149 33.92 752.682 33.92C755.722 33.92 758.789 34.24 761.882 34.88C765.029 35.4667 767.669 36.3733 769.802 37.6L765.242 47.92C763.109 46.6933 760.976 45.8667 758.842 45.44C756.709 44.96 754.682 44.72 752.762 44.72C750.202 44.72 748.389 45.0133 747.322 45.6C746.309 46.1867 745.802 46.9067 745.802 47.76C745.802 48.6133 746.256 49.28 747.162 49.76C748.069 50.1867 749.269 50.5333 750.762 50.8C752.309 51.0133 753.989 51.2533 755.802 51.52C757.616 51.7333 759.429 52.08 761.242 52.56C763.109 53.04 764.789 53.76 766.282 54.72C767.829 55.6267 769.056 56.88 769.962 58.48C770.869 60.0267 771.322 62.0267 771.322 64.48C771.322 67.1467 770.496 69.5467 768.842 71.68C767.242 73.8133 764.842 75.52 761.642 76.8C758.496 78.08 754.576 78.72 749.882 78.72ZM801.153 78V34.64H816.353V78H801.153ZM808.753 29.84C805.98 29.84 803.74 29.0667 802.033 27.52C800.327 25.9733 799.473 24.0533 799.473 21.76C799.473 19.4667 800.327 17.5467 802.033 16C803.74 14.4533 805.98 13.68 808.753 13.68C811.527 13.68 813.767 14.4267 815.473 15.92C817.18 17.36 818.033 19.2267 818.033 21.52C818.033 23.92 817.18 25.92 815.473 27.52C813.82 29.0667 811.58 29.84 808.753 29.84ZM854.472 33.92C857.832 33.92 860.872 34.6133 863.592 36C866.312 37.3333 868.445 39.4133 869.992 42.24C871.592 45.0667 872.392 48.72 872.392 53.2V78H857.192V55.68C857.192 52.5867 856.552 50.3467 855.272 48.96C854.045 47.52 852.312 46.8 850.072 46.8C848.472 46.8 847.005 47.1733 845.672 47.92C844.338 48.6133 843.298 49.7067 842.552 51.2C841.805 52.6933 841.432 54.64 841.432 57.04V78H826.232V34.64H840.712V46.96L837.912 43.36C839.565 40.2133 841.832 37.8667 844.712 36.32C847.592 34.72 850.845 33.92 854.472 33.92ZM120.709 176.72C115.162 176.72 110.842 175.36 107.749 172.64C104.655 169.867 103.109 165.707 103.109 160.16V122.96H118.309V160C118.309 161.547 118.735 162.773 119.589 163.68C120.442 164.533 121.535 164.96 122.869 164.96C124.682 164.96 126.229 164.507 127.509 163.6L131.269 174.24C129.989 175.093 128.415 175.707 126.549 176.08C124.682 176.507 122.735 176.72 120.709 176.72ZM96.7888 145.6V134.24H128.229V145.6H96.7888ZM165.37 131.92C168.73 131.92 171.77 132.613 174.49 134C177.21 135.333 179.343 137.413 180.89 140.24C182.49 143.067 183.29 146.72 183.29 151.2V176H168.09V153.68C168.09 150.587 167.45 148.347 166.17 146.96C164.943 145.52 163.21 144.8 160.97 144.8C159.37 144.8 157.903 145.173 156.57 145.92C155.237 146.613 154.197 147.707 153.45 149.2C152.703 150.693 152.33 152.64 152.33 155.04V176H137.13V116.64H152.33V144.96L148.81 141.36C150.463 138.213 152.73 135.867 155.61 134.32C158.49 132.72 161.743 131.92 165.37 131.92ZM216.1 176.72C210.98 176.72 206.5 175.76 202.66 173.84C198.873 171.867 195.913 169.2 193.78 165.84C191.7 162.427 190.66 158.56 190.66 154.24C190.66 149.92 191.673 146.08 193.7 142.72C195.78 139.307 198.633 136.667 202.26 134.8C205.887 132.88 209.967 131.92 214.5 131.92C218.767 131.92 222.66 132.8 226.18 134.56C229.7 136.267 232.5 138.8 234.58 142.16C236.66 145.52 237.7 149.6 237.7 154.4C237.7 154.933 237.673 155.547 237.62 156.24C237.567 156.933 237.513 157.573 237.46 158.16H203.14V150.16H229.38L223.62 152.4C223.673 150.427 223.3 148.72 222.5 147.28C221.753 145.84 220.687 144.72 219.3 143.92C217.967 143.12 216.393 142.72 214.58 142.72C212.767 142.72 211.167 143.12 209.78 143.92C208.447 144.72 207.407 145.867 206.66 147.36C205.913 148.8 205.54 150.507 205.54 152.48V154.8C205.54 156.933 205.967 158.773 206.82 160.32C207.727 161.867 209.007 163.067 210.66 163.92C212.313 164.72 214.287 165.12 216.58 165.12C218.713 165.12 220.527 164.827 222.02 164.24C223.567 163.6 225.087 162.64 226.58 161.36L234.58 169.68C232.5 171.973 229.94 173.733 226.9 174.96C223.86 176.133 220.26 176.72 216.1 176.72ZM290.149 176.72C285.349 176.72 281.056 175.76 277.269 173.84C273.536 171.92 270.603 169.28 268.469 165.92C266.336 162.507 265.269 158.613 265.269 154.24C265.269 149.867 266.336 146 268.469 142.64C270.603 139.28 273.536 136.667 277.269 134.8C281.056 132.88 285.349 131.92 290.149 131.92C295.056 131.92 299.296 132.96 302.869 135.04C306.443 137.12 308.976 140.053 310.469 143.84L298.709 149.84C297.696 147.813 296.443 146.347 294.949 145.44C293.456 144.48 291.829 144 290.069 144C288.309 144 286.709 144.4 285.269 145.2C283.829 146 282.683 147.173 281.829 148.72C281.029 150.213 280.629 152.053 280.629 154.24C280.629 156.48 281.029 158.373 281.829 159.92C282.683 161.467 283.829 162.64 285.269 163.44C286.709 164.24 288.309 164.64 290.069 164.64C291.829 164.64 293.456 164.187 294.949 163.28C296.443 162.32 297.696 160.827 298.709 158.8L310.469 164.8C308.976 168.587 306.443 171.52 302.869 173.6C299.296 175.68 295.056 176.72 290.149 176.72ZM342.673 176V167.92L341.633 165.92V151.04C341.633 148.64 340.886 146.8 339.393 145.52C337.953 144.187 335.633 143.52 332.432 143.52C330.353 143.52 328.246 143.867 326.113 144.56C323.979 145.2 322.166 146.107 320.673 147.28L315.553 136.96C318.006 135.36 320.939 134.133 324.353 133.28C327.819 132.373 331.259 131.92 334.673 131.92C341.713 131.92 347.153 133.547 350.993 136.8C354.886 140 356.833 145.04 356.833 151.92V176H342.673ZM329.873 176.72C326.406 176.72 323.473 176.133 321.073 174.96C318.673 173.787 316.833 172.187 315.553 170.16C314.326 168.133 313.713 165.867 313.713 163.36C313.713 160.693 314.379 158.4 315.713 156.48C317.099 154.507 319.206 153.013 322.033 152C324.859 150.933 328.513 150.4 332.993 150.4H343.233V158.32H335.073C332.619 158.32 330.886 158.72 329.873 159.52C328.913 160.32 328.433 161.387 328.433 162.72C328.433 164.053 328.939 165.12 329.953 165.92C330.966 166.72 332.353 167.12 334.113 167.12C335.766 167.12 337.259 166.72 338.593 165.92C339.979 165.067 340.993 163.787 341.633 162.08L343.713 167.68C342.913 170.667 341.339 172.933 338.993 174.48C336.699 175.973 333.659 176.72 329.873 176.72ZM422.907 131.92C426.267 131.92 429.254 132.613 431.867 134C434.534 135.333 436.614 137.413 438.107 140.24C439.654 143.067 440.427 146.72 440.427 151.2V176H425.227V153.68C425.227 150.587 424.64 148.347 423.467 146.96C422.294 145.52 420.694 144.8 418.667 144.8C417.227 144.8 415.92 145.147 414.747 145.84C413.574 146.533 412.667 147.6 412.027 149.04C411.387 150.427 411.067 152.24 411.067 154.48V176H395.867V153.68C395.867 150.587 395.28 148.347 394.107 146.96C392.987 145.52 391.387 144.8 389.307 144.8C387.814 144.8 386.48 145.147 385.307 145.84C384.187 146.533 383.28 147.6 382.587 149.04C381.947 150.427 381.627 152.24 381.627 154.48V176H366.427V132.64H380.907V144.72L378.027 141.28C379.627 138.187 381.814 135.867 384.587 134.32C387.36 132.72 390.454 131.92 393.867 131.92C397.76 131.92 401.174 132.933 404.107 134.96C407.094 136.933 409.094 140.027 410.107 144.24L405.147 143.2C406.694 139.68 409.014 136.933 412.107 134.96C415.254 132.933 418.854 131.92 422.907 131.92ZM473.288 176.72C468.168 176.72 463.688 175.76 459.848 173.84C456.061 171.867 453.101 169.2 450.967 165.84C448.888 162.427 447.848 158.56 447.848 154.24C447.848 149.92 448.861 146.08 450.888 142.72C452.968 139.307 455.821 136.667 459.448 134.8C463.074 132.88 467.154 131.92 471.688 131.92C475.954 131.92 479.848 132.8 483.368 134.56C486.888 136.267 489.688 138.8 491.768 142.16C493.848 145.52 494.888 149.6 494.888 154.4C494.888 154.933 494.861 155.547 494.808 156.24C494.754 156.933 494.701 157.573 494.648 158.16H460.328V150.16H486.568L480.808 152.4C480.861 150.427 480.488 148.72 479.688 147.28C478.941 145.84 477.874 144.72 476.488 143.92C475.154 143.12 473.581 142.72 471.768 142.72C469.954 142.72 468.354 143.12 466.968 143.92C465.634 144.72 464.594 145.867 463.848 147.36C463.101 148.8 462.728 150.507 462.728 152.48V154.8C462.728 156.933 463.154 158.773 464.008 160.32C464.914 161.867 466.194 163.067 467.848 163.92C469.501 164.72 471.474 165.12 473.768 165.12C475.901 165.12 477.714 164.827 479.208 164.24C480.754 163.6 482.274 162.64 483.768 161.36L491.768 169.68C489.688 171.973 487.128 173.733 484.088 174.96C481.048 176.133 477.448 176.72 473.288 176.72ZM501.896 176V132.64H516.376V145.28L514.216 141.68C515.496 138.427 517.576 136 520.456 134.4C523.336 132.747 526.829 131.92 530.936 131.92V145.6C530.242 145.493 529.629 145.44 529.096 145.44C528.616 145.387 528.082 145.36 527.496 145.36C524.402 145.36 521.896 146.213 519.976 147.92C518.056 149.573 517.096 152.293 517.096 156.08V176H501.896ZM561.11 176V167.92L560.07 165.92V151.04C560.07 148.64 559.323 146.8 557.83 145.52C556.39 144.187 554.07 143.52 550.87 143.52C548.79 143.52 546.683 143.867 544.55 144.56C542.417 145.2 540.603 146.107 539.11 147.28L533.99 136.96C536.443 135.36 539.377 134.133 542.79 133.28C546.257 132.373 549.697 131.92 553.11 131.92C560.15 131.92 565.59 133.547 569.43 136.8C573.323 140 575.27 145.04 575.27 151.92V176H561.11ZM548.31 176.72C544.843 176.72 541.91 176.133 539.51 174.96C537.11 173.787 535.27 172.187 533.99 170.16C532.763 168.133 532.15 165.867 532.15 163.36C532.15 160.693 532.817 158.4 534.15 156.48C535.537 154.507 537.643 153.013 540.47 152C543.297 150.933 546.95 150.4 551.43 150.4H561.67V158.32H553.51C551.057 158.32 549.323 158.72 548.31 159.52C547.35 160.32 546.87 161.387 546.87 162.72C546.87 164.053 547.377 165.12 548.39 165.92C549.403 166.72 550.79 167.12 552.55 167.12C554.203 167.12 555.697 166.72 557.03 165.92C558.417 165.067 559.43 163.787 560.07 162.08L562.15 167.68C561.35 170.667 559.777 172.933 557.43 174.48C555.137 175.973 552.097 176.72 548.31 176.72ZM620.226 176L602.386 132.64H617.986L632.226 168.88H624.386L639.346 132.64H653.826L635.906 176H620.226ZM657.755 176V132.64H672.955V176H657.755ZM665.355 127.84C662.582 127.84 660.342 127.067 658.635 125.52C656.928 123.973 656.075 122.053 656.075 119.76C656.075 117.467 656.928 115.547 658.635 114C660.342 112.453 662.582 111.68 665.355 111.68C668.128 111.68 670.368 112.427 672.075 113.92C673.782 115.36 674.635 117.227 674.635 119.52C674.635 121.92 673.782 123.92 672.075 125.52C670.422 127.067 668.182 127.84 665.355 127.84ZM705.553 176.72C700.433 176.72 695.953 175.76 692.113 173.84C688.326 171.867 685.366 169.2 683.233 165.84C681.153 162.427 680.113 158.56 680.113 154.24C680.113 149.92 681.126 146.08 683.153 142.72C685.233 139.307 688.086 136.667 691.713 134.8C695.34 132.88 699.42 131.92 703.953 131.92C708.22 131.92 712.113 132.8 715.633 134.56C719.153 136.267 721.953 138.8 724.033 142.16C726.113 145.52 727.153 149.6 727.153 154.4C727.153 154.933 727.126 155.547 727.073 156.24C727.02 156.933 726.966 157.573 726.913 158.16H692.593V150.16H718.833L713.073 152.4C713.126 150.427 712.753 148.72 711.953 147.28C711.206 145.84 710.14 144.72 708.753 143.92C707.42 143.12 705.846 142.72 704.033 142.72C702.22 142.72 700.62 143.12 699.233 143.92C697.9 144.72 696.86 145.867 696.113 147.36C695.366 148.8 694.993 150.507 694.993 152.48V154.8C694.993 156.933 695.42 158.773 696.273 160.32C697.18 161.867 698.46 163.067 700.113 163.92C701.766 164.72 703.74 165.12 706.033 165.12C708.166 165.12 709.98 164.827 711.473 164.24C713.02 163.6 714.54 162.64 716.033 161.36L724.033 169.68C721.953 171.973 719.393 173.733 716.353 174.96C713.313 176.133 709.713 176.72 705.553 176.72ZM743.7 176L728.26 132.64H742.66L754.9 168.88H748.02L760.74 132.64H773.7L785.94 168.88H779.22L791.86 132.64H805.22L789.78 176H775.06L764.66 146H769.14L758.42 176H743.7Z" fill="black"/>
</svg>
