<svg width="268" height="210" viewBox="0 0 268 210" fill="none" xmlns="http://www.w3.org/2000/svg">
<path d="M123.785 209.545C120.352 188.683 140.021 170.223 160.536 165.111C181.051 159.999 202.597 163.872 223.737 163.514C235.354 163.318 248.526 160.888 254.72 151.057C259.637 143.253 258.552 133.242 257.294 124.105C253.643 97.5946 249.992 71.0846 246.341 44.5756C244.796 33.3606 242.333 20.6716 232.676 14.7616C226.027 10.6916 217.685 11.0286 209.903 11.4976C157.102 14.6736 104.301 17.8496 51.5015 21.0246C38.3935 21.8126 24.3235 22.9626 14.1835 31.3056C5.87749 38.1396 1.5955 48.9096 0.412495 59.6006C-0.770505 70.2916 0.810486 81.0746 2.38749 91.7146C6.52349 119.623 12.3085 150.434 34.7955 167.474C57.5535 184.719 89.2065 181.659 117.496 177.784C120.077 188.06 122.657 198.336 125.237 208.612L123.785 209.545Z" fill="#F4E3FF"/>
<path d="M8.80747 103.821C13.7275 127.788 23.3085 152.752 46.1235 164.882C68.8575 176.969 96.1445 174.251 120.804 170.941C122.705 178.511 124.606 186.081 126.508 193.651C126.324 195.833 126.356 198.073 126.622 200.364C126.567 200.588 126.592 200.799 126.69 200.991C126.698 201.05 126.701 201.108 126.709 201.167C126.94 202.816 129.495 202.765 131.138 201.792C131.266 201.734 131.392 201.674 131.507 201.6C131.991 201.289 132.475 200.979 132.959 200.668C133.598 200.258 134.146 199.44 133.949 198.654C133.427 196.576 132.905 194.498 132.383 192.42C133.365 183.029 138.763 174.617 146.143 168.438C156.561 159.716 169.213 156.376 182.563 155.55C196.89 154.663 211.221 156.367 225.548 156.391C235.831 156.408 246.938 155.552 255.787 149.744C265.279 143.513 267.692 133.134 266.924 122.358C265.898 107.96 263.167 93.5283 261.198 79.2323C259.15 64.3613 257.157 49.4814 255.054 34.6184C253.657 24.7464 251.781 13.5483 244.031 6.48234C234.854 -1.88466 221.407 -0.0166384 210.056 0.666362C194.876 1.57936 179.695 2.49234 164.515 3.40534C134.155 5.23134 103.794 7.05734 73.4345 8.88334C50.9745 10.2343 22.4435 8.86334 9.45248 31.1763C3.26748 41.7993 2.30848 54.3494 3.21548 66.3564C4.15948 78.8684 6.28447 91.5294 8.80747 103.821ZM10.1775 44.0804C13.1265 31.0964 21.2695 20.8643 34.2565 17.0213C45.9775 13.5523 58.8015 13.7744 70.9055 13.0454C99.2855 11.3384 127.666 9.63136 156.046 7.92436C169.906 7.09036 183.766 6.25735 197.627 5.42335C204.125 5.03235 210.622 4.58334 217.123 4.25434C224.269 3.89334 232.022 3.80135 237.975 8.41835C246.738 15.2153 248.123 27.9383 249.534 38.1373C251.411 51.7143 253.274 65.2933 255.144 78.8713C257.022 92.5043 259.178 106.133 260.743 119.805C262.24 132.888 259.797 145.53 245.904 150.066C232.806 154.343 217.838 152.086 204.355 151.534C190.618 150.971 176.334 150.74 163.053 154.84C149.404 159.053 135.819 168.801 129.718 181.799C128.548 177.141 127.378 172.482 126.208 167.824C125.949 166.792 124.483 166.471 123.588 166.593C101.318 169.623 76.9145 172.764 55.5185 163.927C34.3005 155.163 23.1135 135.057 17.3405 113.856C14.6015 103.797 12.8635 93.5013 11.3155 83.2023C9.37947 70.3223 7.24747 56.9814 10.1775 44.0804Z" fill="black"/>
<path d="M51.5356 112V68.56H34.3356V56H84.4956V68.56H67.3756V112H51.5356ZM89.6769 112V68.64H104.877V112H89.6769ZM97.2769 63.84C94.5035 63.84 92.2635 63.0667 90.5569 61.52C88.8502 59.9733 87.9969 58.0533 87.9969 55.76C87.9969 53.4667 88.8502 51.5467 90.5569 50C92.2635 48.4533 94.5035 47.68 97.2769 47.68C100.05 47.68 102.29 48.4267 103.997 49.92C105.704 51.36 106.557 53.2267 106.557 55.52C106.557 57.92 105.704 59.92 103.997 61.52C102.344 63.0667 100.104 63.84 97.2769 63.84ZM142.035 112.72C138.355 112.72 135.208 111.92 132.595 110.32C129.982 108.667 127.982 106.213 126.595 102.96C125.262 99.6533 124.595 95.44 124.595 90.32C124.595 85.1467 125.235 80.9333 126.515 77.68C127.795 74.3733 129.715 71.92 132.275 70.32C134.888 68.72 138.142 67.92 142.035 67.92C145.982 67.92 149.555 68.8533 152.755 70.72C156.008 72.5333 158.568 75.12 160.435 78.48C162.355 81.7867 163.315 85.7333 163.315 90.32C163.315 94.9067 162.355 98.88 160.435 102.24C158.568 105.6 156.008 108.187 152.755 110C149.555 111.813 145.982 112.72 142.035 112.72ZM114.755 127.52V68.64H129.235V76L129.155 90.32L129.955 104.72V127.52H114.755ZM138.835 100.64C140.542 100.64 142.062 100.24 143.395 99.44C144.782 98.64 145.875 97.4667 146.675 95.92C147.528 94.3733 147.955 92.5067 147.955 90.32C147.955 88.1333 147.528 86.2667 146.675 84.72C145.875 83.1733 144.782 82 143.395 81.2C142.062 80.4 140.542 80 138.835 80C137.128 80 135.582 80.4 134.195 81.2C132.862 82 131.768 83.1733 130.915 84.72C130.115 86.2667 129.715 88.1333 129.715 90.32C129.715 92.5067 130.115 94.3733 130.915 95.92C131.768 97.4667 132.862 98.64 134.195 99.44C135.582 100.24 137.128 100.64 138.835 100.64ZM210.221 113.12C206.328 113.12 202.435 112.64 198.541 111.68C194.701 110.72 191.341 109.36 188.461 107.6L194.221 95.68C196.461 97.1733 198.941 98.32 201.661 99.12C204.435 99.92 207.128 100.32 209.741 100.32C212.461 100.32 214.621 99.8133 216.221 98.8C217.821 97.7867 218.621 96.3467 218.621 94.48C218.621 92.8267 217.955 91.52 216.621 90.56C215.288 89.5467 213.101 89.04 210.061 89.04H203.421V79.04L218.461 62.8L219.981 68.24H191.341V56H231.821V65.92L216.781 82.16L209.021 77.76H213.341C220.328 77.76 225.608 79.3333 229.181 82.48C232.808 85.5733 234.621 89.5733 234.621 94.48C234.621 97.68 233.741 100.693 231.981 103.52C230.275 106.347 227.635 108.667 224.061 110.48C220.488 112.24 215.875 113.12 210.221 113.12Z" fill="black"/>
</svg>
