<svg width="625" height="338" viewBox="0 0 625 338" fill="none" xmlns="http://www.w3.org/2000/svg">
<path d="M275.786 306.359H272.5V325.113H275.786V306.359Z" fill="#13171E"/>
<path d="M351.739 306.359H348.453V325.113H351.739V306.359Z" fill="#13171E"/>
<path d="M454.922 328.396C458.283 328.396 461.043 331.002 461.293 334.298H162.939C163.187 331.002 165.949 328.396 169.31 328.396H454.922ZM159.633 337.584H464.599V334.784C464.599 334.662 464.566 334.547 464.561 334.427C464.368 329.261 460.134 325.109 454.922 325.109H169.31C164.098 325.109 159.863 329.261 159.67 334.427C159.666 334.547 159.633 334.662 159.633 334.784V337.584Z" fill="#13171E"/>
<path d="M7.75971 306.357H616.48C620.756 306.357 624.238 302.876 624.238 298.597V7.75969C624.238 3.48077 620.756 0 616.48 0H7.75971C3.48131 0 0 3.48129 0 7.75969V298.597C0 302.876 3.48131 306.357 7.75971 306.357Z" fill="#13171E"/>
<rect width="605.257" height="278.523" transform="translate(9.49219 9.49219)" fill="#13171E"/>
<rect x="10.4922" y="10.4922" width="603.257" height="276.523" rx="16" fill="white"/>
<path d="M360.787 295.947H263.436C262.592 295.947 261.909 295.261 261.909 294.418C261.909 293.579 262.592 292.893 263.436 292.893H360.787C361.628 292.893 362.314 293.579 362.314 294.418C362.314 295.261 361.628 295.947 360.787 295.947ZM360.787 291.25H263.436C261.687 291.25 260.266 292.67 260.266 294.418C260.266 296.166 261.687 297.59 263.436 297.59H360.787C362.535 297.59 363.957 296.166 363.957 294.418C363.957 292.67 362.535 291.25 360.787 291.25Z" fill="white"/>
<mask id="mask0_40001529_17672" style="mask-type:alpha" maskUnits="userSpaceOnUse" x="10" y="10" width="604" height="278">
<rect x="10.4922" y="10.4922" width="603.257" height="276.523" rx="16" fill="white"/>
</mask>
<g mask="url(#mask0_40001529_17672)">
<path d="M379.338 323.818L409.124 265.477L374.047 213.214L407.356 195.895L433.62 240.624C442.828 256.455 446.176 267.584 437.057 278.201L392.016 334.85L379.338 323.818Z" fill="url(#paint0_linear_40001529_17672)"/>
<path d="M370.451 154.141C370.451 154.141 400.177 156.993 417.524 203.172L369.417 238.965L361.156 210.665L370.451 154.141Z" fill="#F4E3FF"/>
<path d="M245.044 199.805L231.767 216.831L213.528 155.559L194.039 157.747L203.303 235.488C203.24 254.365 225.253 264.723 239.756 252.638L275.628 221.083L245.044 199.805Z" fill="url(#paint1_linear_40001529_17672)"/>
<path d="M284.394 152.312C284.394 152.312 272.175 154.089 262.896 166.021C253.617 177.951 241.234 200.109 241.234 200.109L273.139 232.923L287.729 220.799L284.394 152.312Z" fill="#F4E3FF"/>
<path d="M213.525 155.558L216.202 147.925C217.856 144.152 218.265 140.132 217.369 136.424L213.534 120.539C213.117 118.814 211.373 117.784 209.416 118.107C207.175 118.478 205.482 120.48 205.678 122.526L206.811 134.418C206.811 134.418 201.493 127.246 197.628 112.897C196.864 110.057 193.375 108.954 190.502 110.69C185.724 113.58 180.477 118.1 181.042 123.366C182.686 138.724 194.107 158.583 194.107 158.583L213.525 155.558Z" fill="url(#paint2_linear_40001529_17672)"/>
<path d="M284.395 152.312L281.569 171.244C281.569 171.244 274.559 192.249 275.918 197.612L267.195 308.442L384.345 321.94L376.683 170.577C377.131 168.579 377.334 164.442 376.881 160.816C376.415 157.1 373.383 154.239 369.644 154.052L346.142 152.874L284.395 152.312Z" fill="#F4E3FF"/>
<path d="M378.047 195.895L379.594 230.391" stroke="#D5D5D5" stroke-width="0.8041" stroke-miterlimit="10" stroke-linecap="round" stroke-linejoin="round"/>
<path d="M273.141 232.924L275.919 197.613" stroke="#D5D5D5" stroke-width="0.8041" stroke-miterlimit="10" stroke-linecap="round" stroke-linejoin="round"/>
<path d="M345.608 119.939L320.474 119.227L318.943 156.667C318.776 160.766 322.333 160.023 326.43 159.816L340.294 159.113C344.112 158.919 347.062 155.687 346.905 151.868L345.608 119.939Z" fill="url(#paint3_linear_40001529_17672)"/>
<path opacity="0.26" d="M321.367 126.59L346.469 141.353L345.601 119.938L321.367 126.59Z" fill="#C98867"/>
<path d="M375.601 97.2066C375.601 102.406 371.387 106.62 366.187 106.62C360.989 106.62 356.773 102.406 356.773 97.2066C356.773 92.007 360.987 87.793 366.187 87.793C371.385 87.793 375.601 92.007 375.601 97.2066Z" fill="url(#paint4_linear_40001529_17672)"/>
<path d="M360.898 99.2501C361.411 98.5595 363.247 93.2718 369.166 94.1387" stroke="#432F1A" stroke-width="0.7307" stroke-miterlimit="10" stroke-linecap="round" stroke-linejoin="round"/>
<path d="M301.21 106.62C306.409 106.62 310.624 102.406 310.624 97.2066C310.624 92.0076 306.409 87.793 301.21 87.793C296.011 87.793 291.797 92.0076 291.797 97.2066C291.797 102.406 296.011 106.62 301.21 106.62Z" fill="url(#paint5_linear_40001529_17672)"/>
<path d="M306.487 99.2501C305.974 98.5595 304.138 93.2718 298.219 94.1387" stroke="#432F1A" stroke-width="0.7307" stroke-miterlimit="10" stroke-linecap="round" stroke-linejoin="round"/>
<path d="M362.965 80.3797C362.965 92.3777 361.231 102.732 359.499 110.081C357.805 117.275 353.035 122.304 346.295 126.35L345.081 127.081C337.883 131.402 328.78 131.505 321.48 127.343C314.176 123.181 309.063 117.694 307.491 109.975C304.63 95.9334 304.317 80.3815 304.317 80.3815C304.317 80.3815 301.594 50.0922 333.223 50.6803C364.852 51.2667 362.965 80.3797 362.965 80.3797Z" fill="url(#paint6_linear_40001529_17672)"/>
<path d="M306.01 92.6888C306.01 92.6888 312.685 71.1746 307.852 57.2539C307.852 57.2539 289.208 62.6118 306.01 92.6888Z" fill="url(#paint7_linear_40001529_17672)"/>
<path d="M361.787 92.6888C361.787 92.6888 353.367 71.1746 358.199 57.2539C358.199 57.2539 375.604 61.547 361.787 92.6888Z" fill="url(#paint8_linear_40001529_17672)"/>
<path d="M331.68 98.2188L331.683 102.134C331.685 103.122 332.566 103.861 333.505 103.665L335.597 103.228" stroke="#432F1A" stroke-width="0.737" stroke-miterlimit="10" stroke-linecap="round" stroke-linejoin="round"/>
<path d="M328.829 80.2401L311.156 82.3534C311.156 82.3534 312.575 77.6879 319.796 76.8876C327.016 76.0872 328.829 80.2401 328.829 80.2401Z" fill="url(#paint9_linear_40001529_17672)"/>
<path d="M338.281 80.2401L355.954 82.3534C355.954 82.3534 354.535 77.6879 347.313 76.8876C340.092 76.0872 338.281 80.2401 338.281 80.2401Z" fill="url(#paint10_linear_40001529_17672)"/>
<path d="M323.211 108.262H341.765C341.765 108.262 340.297 113.044 332.488 113.044C325.943 113.044 323.211 108.262 323.211 108.262Z" fill="white"/>
<path d="M342.281 93.1273C342.281 93.1273 345.792 89.3252 349.594 93.1273" stroke="#432F1A" stroke-width="1.1102" stroke-miterlimit="10" stroke-linecap="round" stroke-linejoin="round"/>
<path d="M316.328 93.1273C316.328 93.1273 319.839 89.3252 323.641 93.1273" stroke="#432F1A" stroke-width="1.1102" stroke-miterlimit="10" stroke-linecap="round" stroke-linejoin="round"/>
<path d="M309.106 66.9068C309.106 66.9068 314.449 57.2792 324.039 62.6083C333.629 67.9374 343.096 72.9967 360.227 68.8097L357.951 57.2055C357.951 57.2055 334.172 31.8964 307.609 57.2055L309.106 66.9068Z" fill="url(#paint11_linear_40001529_17672)"/>
<path d="M307.727 57.2066C307.727 57.2066 309.25 39.6456 334.036 38.1222C358.821 36.5989 366.165 49.8164 366.165 49.8164L361.654 50.6275C361.654 50.6275 370.332 54.3613 372.571 57.9691L367.701 59.6742L374.122 65.3845C374.122 65.3845 353.915 73.2298 342.71 69.0266L333.433 54.9944L307.727 57.2066Z" fill="url(#paint12_linear_40001529_17672)"/>
<path d="M319.118 152.312L304.266 152.492C304.266 152.492 302.672 167.543 331.67 168.285C360.67 169.028 361.154 153.46 361.154 153.46L345.467 152.312H319.118Z" fill="url(#paint13_linear_40001529_17672)"/>
<path d="M605.225 151.223C605.225 151.223 620.333 156.114 631.493 207.316C642.652 258.518 646.59 330.188 648.56 368.204H608.157L587.005 209.803L577.012 367.131L536.453 367.411C536.453 367.411 538.794 168.465 570.389 151.223H605.225Z" fill="#F4E3FF"/>
<path d="M586.996 209.803L576.336 205.75" stroke="url(#paint14_linear_40001529_17672)" stroke-width="0.304" stroke-miterlimit="10"/>
<path d="M570.41 89.0527C561.701 90.1385 556.541 97.2853 555.404 104.204C553.181 117.723 557.151 131.417 554.95 144.934C553.931 151.189 549.666 156.97 546.276 162.214C542.503 168.057 538.377 173.672 534.047 179.114C534.047 179.114 536.864 190.363 536.874 190.382C555.162 171.882 569.402 152.011 570.332 151.073C575.379 145.972 581.741 122.161 576.917 99.6962C576.172 96.2263 573.869 88.6226 570.41 89.0527Z" fill="url(#paint15_linear_40001529_17672)"/>
<path d="M620.849 95.2695C620.849 95.2695 626.265 108.217 614.535 126.657L604.609 116.334L608.829 97.2047L620.849 95.2695Z" fill="url(#paint16_linear_40001529_17672)"/>
<path d="M608.537 91.9264L620.85 95.27C620.85 95.27 610.392 107.048 614.536 126.658L605.193 146.018L570.137 145.945L562.74 122.736C560.705 116.356 559.157 109.609 562.326 103.71L570.411 89.0532L578.106 88.7656L608.537 91.9264Z" fill="white"/>
<path d="M605.195 146.018L605.17 151.24C605.17 151.24 569.732 151.875 570.334 151.074C570.936 150.273 570.141 145.945 570.141 145.945L605.195 146.018Z" fill="url(#paint17_linear_40001529_17672)"/>
<path d="M616.956 183.105L663.269 159.974C668.416 158.27 671.45 152.965 670.313 147.664C668.806 140.649 662.022 137.123 655.786 140.671L611.594 171.545L616.956 183.105Z" fill="url(#paint18_linear_40001529_17672)"/>
<path d="M614.883 170.836L606 168.484L614.633 185.511L623.199 180.26L614.883 170.836Z" fill="url(#paint19_linear_40001529_17672)"/>
<path d="M604.016 164.504L617.172 190.538" stroke="url(#paint20_linear_40001529_17672)" stroke-width="0.304" stroke-miterlimit="10"/>
<path d="M584.087 30.5158C584.087 30.5158 569.817 31.228 568.457 46.9165C567.441 58.6245 569.699 63.8737 560.789 73.2406C560.789 73.2406 586.852 88.6227 624.237 77.3072C624.237 77.3072 617.211 65.1826 617.404 53.6682C617.598 42.1538 614.305 37.0954 608.301 32.7359C602.294 28.379 590.091 25.8068 584.087 30.5158Z" fill="black"/>
<path d="M579.296 58.8484C579.353 62.5118 576.428 65.5249 572.765 65.5813C569.102 65.6377 566.088 62.7134 566.032 59.05C565.976 55.3866 568.9 52.3736 572.563 52.3171C576.227 52.2634 579.24 55.1877 579.296 58.8484Z" fill="url(#paint21_linear_40001529_17672)"/>
<path d="M585.008 75.6312L585.126 90.0027C585.158 94.4752 587.932 93.9 592.337 93.8328C596.095 93.7763 600.704 94.8138 601.113 91.0751L599.96 69.3203L585.008 75.6312Z" fill="url(#paint22_linear_40001529_17672)"/>
<path opacity="0.26" d="M585.082 83.9748L599.128 72.1836L584.969 74.3231L585.082 83.9748Z" fill="#C98867"/>
<path d="M585.446 78.1808C576.977 77.7481 570.276 70.0127 570.4 63.0836L570.755 48.059C570.908 39.3748 577.921 32.3758 586.607 32.2441C595.499 32.1071 604.374 39.1813 604.511 48.0724L604.056 61.2156C603.704 71.3808 595.617 78.0249 585.446 78.1808Z" fill="url(#paint23_linear_40001529_17672)"/>
<path d="M579.306 60.6094L578.935 62.7058C578.847 63.2031 579.204 63.6681 579.707 63.7137L580.873 63.8213" stroke="#432F1A" stroke-width="0.3116" stroke-miterlimit="10" stroke-linecap="round" stroke-linejoin="round"/>
<path d="M588.384 50.6222C588.384 50.6222 584.788 50.1303 584.672 51.5978C584.672 51.5978 584.621 52.5923 587.763 52.9606C590.902 53.3288 592.668 53.2992 593.007 52.3773C593.345 51.4608 590.08 50.7243 588.384 50.6222Z" fill="black"/>
<path d="M574.182 50.3831C574.182 50.3831 575.723 50.1197 575.892 51.5146C575.892 51.5146 577.443 52.5736 574.819 52.6435C572.196 52.7134 571.366 52.3344 571.161 51.5684C570.925 50.6975 572.763 50.3293 574.182 50.3831Z" fill="black"/>
<path d="M575.889 56.9417C575.87 57.7803 575.177 58.4442 574.338 58.4281C573.5 58.4093 572.833 57.7158 572.852 56.8773C572.871 56.0387 573.564 55.3748 574.403 55.3909C575.241 55.407 575.908 56.1032 575.889 56.9417Z" fill="url(#paint24_linear_40001529_17672)"/>
<path d="M589.217 57.2152C589.198 58.0538 588.505 58.7176 587.666 58.7015C586.828 58.6827 586.164 57.9893 586.18 57.1507C586.199 56.3121 586.892 55.6482 587.731 55.6644C588.569 55.6832 589.236 56.3766 589.217 57.2152Z" fill="url(#paint25_linear_40001529_17672)"/>
<path d="M576.789 66.5278L585.817 65.9258C585.817 65.9258 584.299 67.5949 580.146 67.5949C577.477 67.5922 576.789 66.5278 576.789 66.5278Z" fill="#FF0000"/>
<path d="M586.981 87.6523L576.625 89.0527C576.625 89.0527 581.181 103.814 610.297 92.5683L600.011 89.3645L586.981 87.6523Z" fill="url(#paint26_linear_40001529_17672)"/>
<path d="M605.471 38.2319C598.346 31.3808 592.828 30.5664 592.828 30.5664L582.461 30.7841C582.461 30.7841 580.873 31.4587 579.346 32.6736C578.9 32.808 578.408 32.9639 577.817 33.1762C571.433 35.4608 568.944 43.7983 570.756 48.0584C570.756 48.0584 575 45.1019 578.147 41.2234C581.338 45.7711 588.863 50.9451 597.437 54.0683C598.577 57.5247 600.018 61.7822 600.018 61.7822L601.743 55.4256C602.98 55.7589 604.224 56.0572 605.471 56.283C605.471 56.283 612.596 45.0831 605.471 38.2319Z" fill="url(#paint27_linear_40001529_17672)"/>
<path d="M605.471 38.2319C598.346 31.3808 592.828 30.5664 592.828 30.5664L582.461 30.7841C582.461 30.7841 580.873 31.4587 579.346 32.6736C578.9 32.808 578.408 32.9639 577.817 33.1762C571.433 35.4608 568.944 43.7983 570.756 48.0584C570.756 48.0584 575 45.1019 578.147 41.2234C581.338 45.7711 588.863 50.9451 597.437 54.0683C598.577 57.5247 600.018 61.7822 600.018 61.7822L601.743 55.4256C602.98 55.7589 604.224 56.0572 605.471 56.283C605.471 56.283 612.596 45.0831 605.471 38.2319Z" fill="black"/>
<path d="M611.914 60.0895C611.97 63.7771 609.027 66.8143 605.337 66.8707C601.649 66.9272 598.612 63.9841 598.555 60.2938C598.499 56.6061 601.445 53.569 605.133 53.5125C608.82 53.4561 611.857 56.4019 611.914 60.0895Z" fill="url(#paint28_linear_40001529_17672)"/>
<path d="M602.93 62.2135C602.93 62.2135 602.855 57.3728 607.496 58.0636" stroke="#432F1A" stroke-width="0.3137" stroke-miterlimit="10" stroke-linecap="round" stroke-linejoin="round"/>
<path d="M534.115 179.296L529.693 177.695C527.39 176.861 524.992 176.775 522.826 177.45L513.556 180.345C512.551 180.659 512.005 181.734 512.274 182.882C512.583 184.196 513.833 185.121 515.04 184.927L522.047 183.79C522.047 183.79 518.002 187.225 509.643 190.077C507.99 190.642 507.471 192.754 508.611 194.388C510.511 197.108 513.395 200.043 516.497 199.503C525.541 197.931 536.872 190.381 536.872 190.381L534.115 179.296Z" fill="url(#paint29_linear_40001529_17672)"/>
</g>
<defs>
<linearGradient id="paint0_linear_40001529_17672" x1="394.134" y1="184.725" x2="418.622" y2="343.445" gradientUnits="userSpaceOnUse">
<stop stop-color="#A96F4C"/>
<stop offset="1" stop-color="#DEA683"/>
</linearGradient>
<linearGradient id="paint1_linear_40001529_17672" x1="241.135" y1="234.257" x2="177.193" y2="120.885" gradientUnits="userSpaceOnUse">
<stop stop-color="#A96F4C"/>
<stop offset="1" stop-color="#DEA683"/>
</linearGradient>
<linearGradient id="paint2_linear_40001529_17672" x1="266.508" y1="271.915" x2="192.739" y2="116.497" gradientUnits="userSpaceOnUse">
<stop stop-color="#A96F4C"/>
<stop offset="1" stop-color="#DEA683"/>
</linearGradient>
<linearGradient id="paint3_linear_40001529_17672" x1="329.966" y1="112.859" x2="334.408" y2="162.364" gradientUnits="userSpaceOnUse">
<stop stop-color="#A96F4C"/>
<stop offset="1" stop-color="#DEA683"/>
</linearGradient>
<linearGradient id="paint4_linear_40001529_17672" x1="366.187" y1="87.793" x2="366.187" y2="106.62" gradientUnits="userSpaceOnUse">
<stop stop-color="#A96F4C"/>
<stop offset="1" stop-color="#DEA683"/>
</linearGradient>
<linearGradient id="paint5_linear_40001529_17672" x1="301.21" y1="87.793" x2="301.21" y2="106.62" gradientUnits="userSpaceOnUse">
<stop stop-color="#A96F4C"/>
<stop offset="1" stop-color="#DEA683"/>
</linearGradient>
<linearGradient id="paint6_linear_40001529_17672" x1="333.622" y1="50.6704" x2="333.622" y2="130.392" gradientUnits="userSpaceOnUse">
<stop stop-color="#A96F4C"/>
<stop offset="1" stop-color="#DEA683"/>
</linearGradient>
<linearGradient id="paint7_linear_40001529_17672" x1="298.992" y1="74.9721" x2="309.608" y2="74.9721" gradientUnits="userSpaceOnUse">
<stop/>
<stop offset="1" stop-color="#3B3338"/>
</linearGradient>
<linearGradient id="paint8_linear_40001529_17672" x1="356.702" y1="74.9721" x2="367.118" y2="74.9721" gradientUnits="userSpaceOnUse">
<stop/>
<stop offset="1" stop-color="#3B3338"/>
</linearGradient>
<linearGradient id="paint9_linear_40001529_17672" x1="311.155" y1="79.5697" x2="328.828" y2="79.5697" gradientUnits="userSpaceOnUse">
<stop/>
<stop offset="1" stop-color="#3B3338"/>
</linearGradient>
<linearGradient id="paint10_linear_40001529_17672" x1="338.281" y1="79.5697" x2="355.953" y2="79.5697" gradientUnits="userSpaceOnUse">
<stop/>
<stop offset="1" stop-color="#3B3338"/>
</linearGradient>
<linearGradient id="paint11_linear_40001529_17672" x1="313.213" y1="60.7681" x2="365.864" y2="55.7687" gradientUnits="userSpaceOnUse">
<stop/>
<stop offset="1" stop-color="#3B3338"/>
</linearGradient>
<linearGradient id="paint12_linear_40001529_17672" x1="312.866" y1="57.0731" x2="365.517" y2="52.0737" gradientUnits="userSpaceOnUse">
<stop/>
<stop offset="1" stop-color="#3B3338"/>
</linearGradient>
<linearGradient id="paint13_linear_40001529_17672" x1="329.075" y1="112.936" x2="333.517" y2="162.44" gradientUnits="userSpaceOnUse">
<stop stop-color="#A96F4C"/>
<stop offset="1" stop-color="#DEA683"/>
</linearGradient>
<linearGradient id="paint14_linear_40001529_17672" x1="581.666" y1="210.185" x2="581.666" y2="205.368" gradientUnits="userSpaceOnUse">
<stop stop-color="#DE9900"/>
<stop offset="1" stop-color="#E9CB00"/>
</linearGradient>
<linearGradient id="paint15_linear_40001529_17672" x1="514.896" y1="217.027" x2="586.376" y2="82.86" gradientUnits="userSpaceOnUse">
<stop stop-color="#A96F4C"/>
<stop offset="1" stop-color="#DEA683"/>
</linearGradient>
<linearGradient id="paint16_linear_40001529_17672" x1="613.273" y1="126.65" x2="613.424" y2="95.2334" gradientUnits="userSpaceOnUse">
<stop stop-color="#A96F4C"/>
<stop offset="1" stop-color="#DEA683"/>
</linearGradient>
<linearGradient id="paint17_linear_40001529_17672" x1="587.639" y1="151.512" x2="587.665" y2="145.933" gradientUnits="userSpaceOnUse">
<stop stop-color="#A96F4C"/>
<stop offset="1" stop-color="#DEA683"/>
</linearGradient>
<linearGradient id="paint18_linear_40001529_17672" x1="626.897" y1="193.34" x2="668.625" y2="100.654" gradientUnits="userSpaceOnUse">
<stop stop-color="#A96F4C"/>
<stop offset="1" stop-color="#DEA683"/>
</linearGradient>
<linearGradient id="paint19_linear_40001529_17672" x1="609.572" y1="185.54" x2="651.299" y2="92.8553" gradientUnits="userSpaceOnUse">
<stop stop-color="#A96F4C"/>
<stop offset="1" stop-color="#DEA683"/>
</linearGradient>
<linearGradient id="paint20_linear_40001529_17672" x1="610.595" y1="190.722" x2="610.595" y2="164.319" gradientUnits="userSpaceOnUse">
<stop stop-color="#DE9900"/>
<stop offset="1" stop-color="#E9CB00"/>
</linearGradient>
<linearGradient id="paint21_linear_40001529_17672" x1="566.031" y1="58.9511" x2="579.297" y2="58.9511" gradientUnits="userSpaceOnUse">
<stop stop-color="#A96F4C"/>
<stop offset="1" stop-color="#DEA683"/>
</linearGradient>
<linearGradient id="paint22_linear_40001529_17672" x1="600.002" y1="57.0256" x2="588.797" y2="99.655" gradientUnits="userSpaceOnUse">
<stop stop-color="#A96F4C"/>
<stop offset="1" stop-color="#DEA683"/>
</linearGradient>
<linearGradient id="paint23_linear_40001529_17672" x1="587.454" y1="32.2407" x2="587.454" y2="78.18" gradientUnits="userSpaceOnUse">
<stop stop-color="#A96F4C"/>
<stop offset="1" stop-color="#DEA683"/>
</linearGradient>
<linearGradient id="paint24_linear_40001529_17672" x1="574.372" y1="58.4286" x2="574.372" y2="55.3917" gradientUnits="userSpaceOnUse">
<stop/>
<stop offset="1" stop-color="#3B3338"/>
</linearGradient>
<linearGradient id="paint25_linear_40001529_17672" x1="587.7" y1="58.7015" x2="587.7" y2="55.6649" gradientUnits="userSpaceOnUse">
<stop/>
<stop offset="1" stop-color="#3B3338"/>
</linearGradient>
<linearGradient id="paint26_linear_40001529_17672" x1="602.189" y1="57.6001" x2="590.983" y2="100.229" gradientUnits="userSpaceOnUse">
<stop stop-color="#A96F4C"/>
<stop offset="1" stop-color="#DEA683"/>
</linearGradient>
<linearGradient id="paint27_linear_40001529_17672" x1="580.121" y1="82.8997" x2="596.828" y2="15.8423" gradientUnits="userSpaceOnUse">
<stop stop-color="#282EA3"/>
<stop offset="0.0242" stop-color="#2A32A5"/>
<stop offset="0.4992" stop-color="#5984D2"/>
<stop offset="0.8355" stop-color="#77B7ED"/>
<stop offset="1" stop-color="#82CBF8"/>
</linearGradient>
<linearGradient id="paint28_linear_40001529_17672" x1="611.176" y1="51.2069" x2="599.175" y2="69.3551" gradientUnits="userSpaceOnUse">
<stop stop-color="#A96F4C"/>
<stop offset="1" stop-color="#DEA683"/>
</linearGradient>
<linearGradient id="paint29_linear_40001529_17672" x1="509.558" y1="214.182" x2="581.038" y2="80.0147" gradientUnits="userSpaceOnUse">
<stop stop-color="#A96F4C"/>
<stop offset="1" stop-color="#DEA683"/>
</linearGradient>
</defs>
</svg>
