<svg width="370" height="329" viewBox="0 0 370 329" fill="none" xmlns="http://www.w3.org/2000/svg">
<path d="M92.4617 253.643C103.924 330.409 187.952 355.841 229.503 295.064C230.287 293.916 231.074 292.741 231.861 291.542C282.188 214.761 361.349 281.931 369.688 168.08C378.028 54.2283 243.61 -26.6079 148.471 68.558C97.4915 119.551 83.5744 194.122 92.4617 253.643Z" fill="#F4E3FF"/>
<path d="M50.6825 100.231C78.6736 100.231 101.365 77.7939 101.365 50.1157C101.365 22.4376 78.6736 0 50.6825 0C22.6913 0 0 22.4376 0 50.1157C0 77.7939 22.6913 100.231 50.6825 100.231Z" fill="#F4E3FF"/>
</svg>
