<svg width="139" height="127" viewBox="0 0 139 127" fill="none" xmlns="http://www.w3.org/2000/svg">
<path d="M112.19 24.987C92.5787 11.4956 65.9248 27.5597 68.7344 51.198C68.7874 51.6448 68.8454 52.0966 68.9104 52.5554C73.0024 81.8629 38.4744 87.752 61.1952 114.245C83.916 140.738 135.304 123.631 138.462 78.9213C140.153 54.9642 127.396 35.4478 112.19 24.987Z" fill="#F4E3FF"/>
<path d="M53.6593 118.615C24.3817 118.615 0.648438 94.8812 0.648438 65.6046C0.648438 36.3271 24.3827 12.5938 53.6593 12.5938C82.9368 12.5938 106.67 36.3281 106.67 65.6046C106.67 94.8812 82.9368 118.615 53.6593 118.615Z" fill="#252D3B"/>
<path d="M53.6593 106.67C24.3817 106.67 0.648438 82.9358 0.648438 53.6593C0.648438 24.3817 24.3827 0.648438 53.6593 0.648438C82.9368 0.648438 106.67 24.3827 106.67 53.6593C106.67 82.9368 82.9368 106.67 53.6593 106.67Z" fill="white" stroke="#252D3B" stroke-width="1.3" stroke-miterlimit="10" stroke-linecap="round"/>
<path d="M53.8828 21.3203V59.6024L67.9868 73.7064" fill="white"/>
<path d="M53.8828 21.3203V59.6024L67.9868 73.7064" stroke="#252D3B" stroke-width="1.3" stroke-miterlimit="10" stroke-linecap="round"/>
</svg>
