<svg width="451" height="303" viewBox="0 0 451 303" fill="none" xmlns="http://www.w3.org/2000/svg">
<path d="M383.141 257.387C383.141 257.387 381.729 289.871 357.719 301.64" stroke="white" stroke-width="1.3" stroke-miterlimit="10" stroke-linecap="round"/>
<path d="M68.6471 14.1181C60.3951 7.65011 43.89 8.76511 35.191 19.2481C29.825 25.7141 26.2501 37.0131 28.4281 45.1451L14.6111 70.9761C14.6111 70.9761 35.2121 80.1761 50.8591 76.6991C50.8591 76.6991 49.224 69.8851 52.357 63.7771C54.501 64.4831 56.6661 64.6051 58.6111 63.6331C66.1941 59.8411 68.425 50.0281 68.425 50.0281C68.425 50.0281 72.2171 51.8122 73.1091 50.6972C74.0011 49.5821 71.5481 43.5601 73.3321 39.0991C75.1151 34.6381 76.9001 20.5861 68.6471 14.1181Z" fill="white" stroke="#252D3B" stroke-width="1.3" stroke-miterlimit="10" stroke-linecap="round"/>
<path d="M28.4728 50.249C26.7038 52.539 23.1108 51.233 23.1558 48.339C23.1928 45.985 22.9178 43.056 22.1138 39.437C18.9338 25.126 27.5199 -0.315047 52.9619 0.00295306C75.1119 0.279953 78.2189 15.985 74.0349 21.512C73.1309 22.705 71.4539 22.985 70.1759 22.207C66.2389 19.811 55.2589 14.1749 42.5179 16.7219C41.3459 16.9559 40.4628 17.925 40.2648 19.105C39.3538 24.549 36.1678 40.291 28.4728 50.249Z" fill="#252D3B"/>
<path d="M27.1374 51.2876C27.1374 51.2876 38.0653 47.7106 43.3003 36.6786L47.7884 37.6136C47.7884 37.6136 53.9594 34.9956 54.1464 21.3456C54.1464 21.3456 73.9663 28.4506 81.4463 17.9796C88.9263 7.50859 63.6824 4.32958 50.4064 5.45158C37.1304 6.57358 23.7194 39.8006 27.1374 51.2876Z" fill="#252D3B"/>
<path d="M48.891 38.7791C48.891 38.7791 49.979 30.6771 43.57 31.0391C37.161 31.4021 37.524 44.3411 42.361 44.7041C47.198 45.0671 48.891 38.7791 48.891 38.7791Z" fill="white"/>
<path d="M46.5445 39.4464C46.5445 39.4464 47.8596 34.4355 42.7236 34.7485L46.5445 39.4464Z" fill="white"/>
<path d="M46.5445 39.4464C46.5445 39.4464 47.8596 34.4355 42.7236 34.7485" stroke="#252D3B" stroke-width="1.3" stroke-miterlimit="10" stroke-linecap="round"/>
<path d="M65.4052 41.1017C65.4052 42.2327 65.8632 43.1497 66.4292 43.1497C66.9942 43.1497 67.4531 42.2327 67.4531 41.1017C67.4531 39.9707 66.9952 39.0547 66.4292 39.0547C65.8632 39.0547 65.4052 39.9717 65.4052 41.1017Z" fill="#252D3B"/>
<path d="M63.866 36.8788C63.866 36.8788 65.647 36.3798 67.928 36.6648C70.208 36.9498 69.9229 34.1708 66.8589 34.5278C63.7939 34.8838 62.797 36.9498 63.866 36.8788Z" fill="#252D3B"/>
<path d="M53.0078 63.2761C53.0078 63.2761 43.7097 59.2361 42.9897 60.4981C42.2687 61.7601 49.0337 72.4891 50.6727 70.9051C50.8337 70.7501 50.7258 65.7001 53.0078 63.2761Z" fill="#252D3B"/>
<path d="M62.1942 55.7578C62.1942 55.7578 62.7223 57.7378 64.5703 58.0018L62.1942 55.7578Z" fill="white"/>
<path d="M62.1942 55.7578C62.1942 55.7578 62.7223 57.7378 64.5703 58.0018" stroke="#252D3B" stroke-width="1.3" stroke-miterlimit="10" stroke-linecap="round"/>
<path d="M101.732 196.821C101.732 196.821 176.347 120.643 213.957 125.41C251.568 130.176 299.555 263.552 299.555 263.552L247.291 256.402L213.675 240.436C213.675 240.436 163.277 273.879 120.293 271.495C77.3086 269.112 101.732 196.821 101.732 196.821Z" fill="#252D3B"/>
<path d="M449.548 219.025C448.948 221.212 416.673 301.096 416.673 301.096C416.673 301.096 371.145 301.611 311.956 301.654C314.251 271.545 325.209 247.934 333.701 233.716C397.279 254.121 425.722 229.298 435.78 222.822C443.866 217.61 449.784 218.167 449.548 219.025Z" fill="white" stroke="#252D3B" stroke-width="1.3" stroke-miterlimit="10" stroke-linecap="round"/>
<path d="M333.539 233.109C325.047 247.327 314.252 271.545 311.957 301.654C286.866 301.654 259.331 301.59 231.752 301.375C146.936 300.71 61.8421 298.587 47.0231 292.84C38.1661 289.409 28.666 272.296 19.723 248.791C53.285 243.816 99.4131 221.77 120.258 211.133C128.107 211.455 178.331 213.535 243.117 218.725C254.569 219.647 253.528 214.738 264.712 217.585C293.15 224.825 314.702 229.905 333.539 233.109Z" fill="#252D3B"/>
<path d="M143.336 202.211C128.217 219.153 90.195 251.428 18.011 254.73C-2.46901 207.765 -12.312 153.723 -11.991 135.388C-11.305 95.6935 -1.71899 66.9355 30.578 68.6085C49.021 69.5735 89.445 98.4175 102.248 141.178C106.516 155.332 112.906 167.17 119.576 176.648C128.582 189.494 138.103 198.029 143.336 202.211Z" fill="#AF8CFF"/>
<path d="M166.831 72.8933C166.831 72.8933 167.203 88.9153 164.635 100.083C164.123 102.311 162.032 103.801 159.764 103.517C159.764 103.517 159.39 103.675 158.707 103.978C160.92 95.4403 161.304 87.6862 161.304 87.6862C161.304 87.6862 151.843 84.6343 148.791 96.5363C145.739 108.438 136.296 115.272 136.332 115.47C120.398 124.581 98.8925 138.802 80.1555 157.819C80.1555 157.819 55.1686 101.632 38.6786 103.045C22.1886 104.459 9.9386 104.459 9.9386 104.459C9.9386 104.459 1.45758 198.217 55.1686 213.765C108.88 229.313 176.655 147.817 177.126 109.654C177.597 71.4923 166.831 72.8933 166.831 72.8933Z" fill="white" stroke="#252D3B" stroke-width="1.3" stroke-miterlimit="10" stroke-linecap="round"/>
<path d="M26.3143 77.9012C26.3143 77.9012 -16.6477 76.1652 7.22034 159.487C6.84534 160.109 49.1264 153.797 84.8594 138.024C84.8594 138.024 59.2953 77.9012 26.3143 77.9012Z" fill="white" stroke="#252D3B" stroke-width="1.3" stroke-miterlimit="10" stroke-linecap="round"/>
<path d="M22.3455 78.2227C22.3455 78.2227 31.0666 122.555 45.6016 150.536L22.3455 78.2227Z" fill="white"/>
<path d="M22.3455 78.2227C22.3455 78.2227 31.0666 122.555 45.6016 150.536" stroke="#252D3B" stroke-width="1.3" stroke-miterlimit="10" stroke-linecap="round"/>
<path d="M154.992 114.287L150.89 112.37C149.348 111.65 148.682 109.816 149.403 108.274L173.868 55.9145C174.588 54.3725 176.422 53.7065 177.964 54.4275L182.066 56.3445C183.608 57.0645 184.274 58.8985 183.553 60.4405L159.088 112.8C158.367 114.342 156.534 115.008 154.992 114.287Z" fill="#252D3B"/>
<path d="M70.0103 169.798C70.0103 169.798 75.3713 162.848 80.1562 157.82L70.0103 169.798Z" fill="white"/>
<path d="M70.0103 169.798C70.0103 169.798 75.3713 162.848 80.1562 157.82" stroke="#252D3B" stroke-width="1.3" stroke-miterlimit="10" stroke-linecap="round"/>
<path d="M284.922 222.832C284.922 222.832 223.041 200.171 166.389 205.401" stroke="white" stroke-width="1.3" stroke-miterlimit="10" stroke-linecap="round"/>
<path d="M399.139 239.359C399.139 239.359 395.038 247.972 399.915 262.601C404.791 277.231 393.549 301.198 393.549 301.198" fill="white"/>
<path d="M399.139 239.359C399.139 239.359 395.038 247.972 399.915 262.601C404.791 277.231 393.549 301.198 393.549 301.198" stroke="#252D3B" stroke-width="1.3" stroke-miterlimit="10" stroke-linecap="round"/>
<path d="M73.0703 143.07C73.0703 143.07 49.2053 164.765 16.1793 166.935L13.5273 159.221C13.5273 159.221 50.4103 151.749 73.0703 143.07Z" fill="#252D3B"/>
</svg>
