<svg width="1266" height="98" viewBox="0 0 1266 98" fill="none" xmlns="http://www.w3.org/2000/svg">
<path d="M5.90469 78V22H18.9447L49.8247 59.28H43.6647V22H59.1847V78H46.1447L15.2647 40.72H21.4247V78H5.90469ZM91.3978 78.72C86.6511 78.72 82.4378 77.76 78.7578 75.84C75.0778 73.92 72.1711 71.28 70.0378 67.92C67.9578 64.5067 66.9178 60.6133 66.9178 56.24C66.9178 51.8667 67.9578 48 70.0378 44.64C72.1711 41.28 75.0778 38.6667 78.7578 36.8C82.4378 34.88 86.6511 33.92 91.3978 33.92C96.1445 33.92 100.358 34.88 104.038 36.8C107.771 38.6667 110.678 41.28 112.758 44.64C114.838 48 115.878 51.8667 115.878 56.24C115.878 60.6133 114.838 64.5067 112.758 67.92C110.678 71.28 107.771 73.92 104.038 75.84C100.358 77.76 96.1445 78.72 91.3978 78.72ZM91.3978 66.64C93.1578 66.64 94.7045 66.24 96.0378 65.44C97.4245 64.64 98.5178 63.4667 99.3178 61.92C100.118 60.32 100.518 58.4267 100.518 56.24C100.518 54.0533 100.118 52.2133 99.3178 50.72C98.5178 49.1733 97.4245 48 96.0378 47.2C94.7045 46.4 93.1578 46 91.3978 46C89.6911 46 88.1445 46.4 86.7578 47.2C85.4245 48 84.3311 49.1733 83.4778 50.72C82.6778 52.2133 82.2778 54.0533 82.2778 56.24C82.2778 58.4267 82.6778 60.32 83.4778 61.92C84.3311 63.4667 85.4245 64.64 86.7578 65.44C88.1445 66.24 89.6911 66.64 91.3978 66.64ZM132.067 78L116.627 34.64H131.027L143.267 70.88H136.387L149.107 34.64H162.067L174.307 70.88H167.587L180.227 34.64H193.587L178.147 78H163.427L153.027 48H157.507L146.787 78H132.067ZM222.233 78V22H238.073V65.44H264.793V78H222.233ZM292.905 78.72C287.785 78.72 283.305 77.76 279.465 75.84C275.678 73.8667 272.718 71.2 270.585 67.84C268.505 64.4267 267.465 60.56 267.465 56.24C267.465 51.92 268.478 48.08 270.505 44.72C272.585 41.3067 275.438 38.6667 279.065 36.8C282.691 34.88 286.771 33.92 291.305 33.92C295.571 33.92 299.465 34.8 302.985 36.56C306.505 38.2667 309.305 40.8 311.385 44.16C313.465 47.52 314.505 51.6 314.505 56.4C314.505 56.9333 314.478 57.5467 314.425 58.24C314.371 58.9333 314.318 59.5733 314.265 60.16H279.945V52.16H306.185L300.425 54.4C300.478 52.4267 300.105 50.72 299.305 49.28C298.558 47.84 297.491 46.72 296.105 45.92C294.771 45.12 293.198 44.72 291.385 44.72C289.571 44.72 287.971 45.12 286.585 45.92C285.251 46.72 284.211 47.8667 283.465 49.36C282.718 50.8 282.345 52.5067 282.345 54.48V56.8C282.345 58.9333 282.771 60.7733 283.625 62.32C284.531 63.8667 285.811 65.0667 287.465 65.92C289.118 66.72 291.091 67.12 293.385 67.12C295.518 67.12 297.331 66.8267 298.825 66.24C300.371 65.6 301.891 64.64 303.385 63.36L311.385 71.68C309.305 73.9733 306.745 75.7333 303.705 76.96C300.665 78.1333 297.065 78.72 292.905 78.72ZM340.873 78.72C335.326 78.72 331.006 77.36 327.913 74.64C324.819 71.8667 323.273 67.7067 323.273 62.16V24.96H338.473V62C338.473 63.5467 338.899 64.7733 339.753 65.68C340.606 66.5333 341.699 66.96 343.033 66.96C344.846 66.96 346.393 66.5067 347.673 65.6L351.433 76.24C350.153 77.0933 348.579 77.7067 346.713 78.08C344.846 78.5067 342.899 78.72 340.873 78.72ZM316.953 47.6V36.24H348.393V47.6H316.953ZM355.614 47.76L361.614 26.96L363.774 35.6C361.107 35.6 358.921 34.8267 357.214 33.28C355.507 31.68 354.654 29.5467 354.654 26.88C354.654 24.16 355.507 22 357.214 20.4C358.974 18.7467 361.161 17.92 363.774 17.92C366.387 17.92 368.547 18.7467 370.254 20.4C371.961 22 372.814 24.16 372.814 26.88C372.814 27.6267 372.761 28.4 372.654 29.2C372.547 29.9467 372.307 30.8533 371.934 31.92C371.614 32.9333 371.054 34.32 370.254 36.08L365.134 47.76H355.614ZM394.226 78.72C390.546 78.72 386.946 78.2933 383.426 77.44C379.959 76.5867 377.159 75.52 375.026 74.24L379.586 63.84C381.613 65.0667 383.986 66.0533 386.706 66.8C389.426 67.4933 392.093 67.84 394.706 67.84C397.266 67.84 399.026 67.5733 399.986 67.04C400.999 66.5067 401.506 65.7867 401.506 64.88C401.506 64.0267 401.026 63.4133 400.066 63.04C399.159 62.6133 397.933 62.2933 396.386 62.08C394.893 61.8667 393.239 61.6267 391.426 61.36C389.613 61.0933 387.773 60.7467 385.906 60.32C384.093 59.84 382.413 59.1467 380.866 58.24C379.373 57.28 378.173 56 377.266 54.4C376.359 52.8 375.906 50.7733 375.906 48.32C375.906 45.5467 376.706 43.0933 378.306 40.96C379.959 38.7733 382.359 37.0667 385.506 35.84C388.653 34.56 392.493 33.92 397.026 33.92C400.066 33.92 403.133 34.24 406.226 34.88C409.373 35.4667 412.013 36.3733 414.146 37.6L409.586 47.92C407.453 46.6933 405.319 45.8667 403.186 45.44C401.053 44.96 399.026 44.72 397.106 44.72C394.546 44.72 392.733 45.0133 391.666 45.6C390.653 46.1867 390.146 46.9067 390.146 47.76C390.146 48.6133 390.599 49.28 391.506 49.76C392.413 50.1867 393.613 50.5333 395.106 50.8C396.653 51.0133 398.333 51.2533 400.146 51.52C401.959 51.7333 403.773 52.08 405.586 52.56C407.453 53.04 409.133 53.76 410.626 54.72C412.173 55.6267 413.399 56.88 414.306 58.48C415.213 60.0267 415.666 62.0267 415.666 64.48C415.666 67.1467 414.839 69.5467 413.186 71.68C411.586 73.8133 409.186 75.52 405.986 76.8C402.839 78.08 398.919 78.72 394.226 78.72ZM471.977 78V69.92L470.937 67.92V53.04C470.937 50.64 470.191 48.8 468.697 47.52C467.257 46.1867 464.937 45.52 461.737 45.52C459.657 45.52 457.551 45.8667 455.417 46.56C453.284 47.2 451.471 48.1067 449.977 49.28L444.857 38.96C447.311 37.36 450.244 36.1333 453.657 35.28C457.124 34.3733 460.564 33.92 463.977 33.92C471.017 33.92 476.457 35.5467 480.297 38.8C484.191 42 486.137 47.04 486.137 53.92V78H471.977ZM459.177 78.72C455.711 78.72 452.777 78.1333 450.377 76.96C447.977 75.7867 446.137 74.1867 444.857 72.16C443.631 70.1333 443.017 67.8667 443.017 65.36C443.017 62.6933 443.684 60.4 445.017 58.48C446.404 56.5067 448.511 55.0133 451.337 54C454.164 52.9333 457.817 52.4 462.297 52.4H472.537V60.32H464.377C461.924 60.32 460.191 60.72 459.177 61.52C458.217 62.32 457.737 63.3867 457.737 64.72C457.737 66.0533 458.244 67.12 459.257 67.92C460.271 68.72 461.657 69.12 463.417 69.12C465.071 69.12 466.564 68.72 467.897 67.92C469.284 67.0667 470.297 65.7867 470.937 64.08L473.017 69.68C472.217 72.6667 470.644 74.9333 468.297 76.48C466.004 77.9733 462.964 78.72 459.177 78.72ZM518.438 78.72C513.638 78.72 509.345 77.76 505.558 75.84C501.825 73.92 498.892 71.28 496.758 67.92C494.625 64.5067 493.558 60.6133 493.558 56.24C493.558 51.8667 494.625 48 496.758 44.64C498.892 41.28 501.825 38.6667 505.558 36.8C509.345 34.88 513.638 33.92 518.438 33.92C523.345 33.92 527.585 34.96 531.158 37.04C534.732 39.12 537.265 42.0533 538.758 45.84L526.998 51.84C525.985 49.8133 524.732 48.3467 523.238 47.44C521.745 46.48 520.118 46 518.358 46C516.598 46 514.998 46.4 513.558 47.2C512.118 48 510.972 49.1733 510.118 50.72C509.318 52.2133 508.918 54.0533 508.918 56.24C508.918 58.48 509.318 60.3733 510.118 61.92C510.972 63.4667 512.118 64.64 513.558 65.44C514.998 66.24 516.598 66.64 518.358 66.64C520.118 66.64 521.745 66.1867 523.238 65.28C524.732 64.32 525.985 62.8267 526.998 60.8L538.758 66.8C537.265 70.5867 534.732 73.52 531.158 75.6C527.585 77.68 523.345 78.72 518.438 78.72ZM564.545 78.72C558.998 78.72 554.678 77.36 551.585 74.64C548.491 71.8667 546.945 67.7067 546.945 62.16V24.96H562.145V62C562.145 63.5467 562.571 64.7733 563.425 65.68C564.278 66.5333 565.371 66.96 566.705 66.96C568.518 66.96 570.065 66.5067 571.345 65.6L575.105 76.24C573.825 77.0933 572.251 77.7067 570.385 78.08C568.518 78.5067 566.571 78.72 564.545 78.72ZM540.625 47.6V36.24H572.065V47.6H540.625ZM580.966 78V34.64H596.166V78H580.966ZM588.566 29.84C585.793 29.84 583.553 29.0667 581.846 27.52C580.139 25.9733 579.286 24.0533 579.286 21.76C579.286 19.4667 580.139 17.5467 581.846 16C583.553 14.4533 585.793 13.68 588.566 13.68C591.339 13.68 593.579 14.4267 595.286 15.92C596.993 17.36 597.846 19.2267 597.846 21.52C597.846 23.92 596.993 25.92 595.286 27.52C593.633 29.0667 591.393 29.84 588.566 29.84ZM618.124 78L600.284 34.64H615.884L630.124 70.88H622.284L637.244 34.64H651.724L633.804 78H618.124ZM680.649 78V69.92L679.609 67.92V53.04C679.609 50.64 678.862 48.8 677.369 47.52C675.929 46.1867 673.609 45.52 670.409 45.52C668.329 45.52 666.222 45.8667 664.089 46.56C661.956 47.2 660.142 48.1067 658.649 49.28L653.529 38.96C655.982 37.36 658.916 36.1333 662.329 35.28C665.796 34.3733 669.236 33.92 672.649 33.92C679.689 33.92 685.129 35.5467 688.969 38.8C692.862 42 694.809 47.04 694.809 53.92V78H680.649ZM667.849 78.72C664.382 78.72 661.449 78.1333 659.049 76.96C656.649 75.7867 654.809 74.1867 653.529 72.16C652.302 70.1333 651.689 67.8667 651.689 65.36C651.689 62.6933 652.356 60.4 653.689 58.48C655.076 56.5067 657.182 55.0133 660.009 54C662.836 52.9333 666.489 52.4 670.969 52.4H681.209V60.32H673.049C670.596 60.32 668.862 60.72 667.849 61.52C666.889 62.32 666.409 63.3867 666.409 64.72C666.409 66.0533 666.916 67.12 667.929 67.92C668.942 68.72 670.329 69.12 672.089 69.12C673.742 69.12 675.236 68.72 676.569 67.92C677.956 67.0667 678.969 65.7867 679.609 64.08L681.689 69.68C680.889 72.6667 679.316 74.9333 676.969 76.48C674.676 77.9733 671.636 78.72 667.849 78.72ZM723.763 78.72C718.217 78.72 713.897 77.36 710.803 74.64C707.71 71.8667 706.163 67.7067 706.163 62.16V24.96H721.363V62C721.363 63.5467 721.79 64.7733 722.643 65.68C723.497 66.5333 724.59 66.96 725.923 66.96C727.737 66.96 729.283 66.5067 730.563 65.6L734.323 76.24C733.043 77.0933 731.47 77.7067 729.603 78.08C727.737 78.5067 725.79 78.72 723.763 78.72ZM699.843 47.6V36.24H731.283V47.6H699.843ZM761.655 78.72C756.535 78.72 752.055 77.76 748.215 75.84C744.428 73.8667 741.468 71.2 739.335 67.84C737.255 64.4267 736.215 60.56 736.215 56.24C736.215 51.92 737.228 48.08 739.255 44.72C741.335 41.3067 744.188 38.6667 747.815 36.8C751.441 34.88 755.521 33.92 760.055 33.92C764.321 33.92 768.215 34.8 771.735 36.56C775.255 38.2667 778.055 40.8 780.135 44.16C782.215 47.52 783.255 51.6 783.255 56.4C783.255 56.9333 783.228 57.5467 783.175 58.24C783.121 58.9333 783.068 59.5733 783.015 60.16H748.695V52.16H774.935L769.175 54.4C769.228 52.4267 768.855 50.72 768.055 49.28C767.308 47.84 766.241 46.72 764.855 45.92C763.521 45.12 761.948 44.72 760.135 44.72C758.321 44.72 756.721 45.12 755.335 45.92C754.001 46.72 752.961 47.8667 752.215 49.36C751.468 50.8 751.095 52.5067 751.095 54.48V56.8C751.095 58.9333 751.521 60.7733 752.375 62.32C753.281 63.8667 754.561 65.0667 756.215 65.92C757.868 66.72 759.841 67.12 762.135 67.12C764.268 67.12 766.081 66.8267 767.575 66.24C769.121 65.6 770.641 64.64 772.135 63.36L780.135 71.68C778.055 73.9733 775.495 75.7333 772.455 76.96C769.415 78.1333 765.815 78.72 761.655 78.72ZM832.904 78.72C827.357 78.72 823.037 77.36 819.944 74.64C816.851 71.8667 815.304 67.7067 815.304 62.16V24.96H830.504V62C830.504 63.5467 830.931 64.7733 831.784 65.68C832.637 66.5333 833.731 66.96 835.064 66.96C836.877 66.96 838.424 66.5067 839.704 65.6L843.464 76.24C842.184 77.0933 840.611 77.7067 838.744 78.08C836.877 78.5067 834.931 78.72 832.904 78.72ZM808.984 47.6V36.24H840.424V47.6H808.984ZM877.565 33.92C880.925 33.92 883.965 34.6133 886.685 36C889.405 37.3333 891.539 39.4133 893.085 42.24C894.685 45.0667 895.485 48.72 895.485 53.2V78H880.285V55.68C880.285 52.5867 879.645 50.3467 878.365 48.96C877.139 47.52 875.405 46.8 873.165 46.8C871.565 46.8 870.099 47.1733 868.765 47.92C867.432 48.6133 866.392 49.7067 865.645 51.2C864.899 52.6933 864.525 54.64 864.525 57.04V78H849.325V18.64H864.525V46.96L861.005 43.36C862.659 40.2133 864.925 37.8667 867.805 36.32C870.685 34.72 873.939 33.92 877.565 33.92ZM928.295 78.72C923.175 78.72 918.695 77.76 914.855 75.84C911.069 73.8667 908.109 71.2 905.975 67.84C903.895 64.4267 902.855 60.56 902.855 56.24C902.855 51.92 903.869 48.08 905.895 44.72C907.975 41.3067 910.829 38.6667 914.455 36.8C918.082 34.88 922.162 33.92 926.695 33.92C930.962 33.92 934.855 34.8 938.375 36.56C941.895 38.2667 944.695 40.8 946.775 44.16C948.855 47.52 949.895 51.6 949.895 56.4C949.895 56.9333 949.869 57.5467 949.815 58.24C949.762 58.9333 949.709 59.5733 949.655 60.16H915.335V52.16H941.575L935.815 54.4C935.869 52.4267 935.495 50.72 934.695 49.28C933.949 47.84 932.882 46.72 931.495 45.92C930.162 45.12 928.589 44.72 926.775 44.72C924.962 44.72 923.362 45.12 921.975 45.92C920.642 46.72 919.602 47.8667 918.855 49.36C918.109 50.8 917.735 52.5067 917.735 54.48V56.8C917.735 58.9333 918.162 60.7733 919.015 62.32C919.922 63.8667 921.202 65.0667 922.855 65.92C924.509 66.72 926.482 67.12 928.775 67.12C930.909 67.12 932.722 66.8267 934.215 66.24C935.762 65.6 937.282 64.64 938.775 63.36L946.775 71.68C944.695 73.9733 942.135 75.7333 939.095 76.96C936.055 78.1333 932.455 78.72 928.295 78.72ZM980.905 78V22H1007.38C1013.57 22 1019.01 23.1467 1023.7 25.44C1028.4 27.7333 1032.05 30.96 1034.66 35.12C1037.33 39.28 1038.66 44.24 1038.66 50C1038.66 55.7067 1037.33 60.6667 1034.66 64.88C1032.05 69.04 1028.4 72.2667 1023.7 74.56C1019.01 76.8533 1013.57 78 1007.38 78H980.905ZM996.745 65.36H1006.74C1009.94 65.36 1012.72 64.7733 1015.06 63.6C1017.46 62.3733 1019.33 60.6133 1020.66 58.32C1022 55.9733 1022.66 53.2 1022.66 50C1022.66 46.7467 1022 43.9733 1020.66 41.68C1019.33 39.3867 1017.46 37.6533 1015.06 36.48C1012.72 35.2533 1009.94 34.64 1006.74 34.64H996.745V65.36ZM1069 78.72C1063.88 78.72 1059.4 77.76 1055.56 75.84C1051.77 73.8667 1048.81 71.2 1046.68 67.84C1044.6 64.4267 1043.56 60.56 1043.56 56.24C1043.56 51.92 1044.57 48.08 1046.6 44.72C1048.68 41.3067 1051.53 38.6667 1055.16 36.8C1058.79 34.88 1062.87 33.92 1067.4 33.92C1071.67 33.92 1075.56 34.8 1079.08 36.56C1082.6 38.2667 1085.4 40.8 1087.48 44.16C1089.56 47.52 1090.6 51.6 1090.6 56.4C1090.6 56.9333 1090.57 57.5467 1090.52 58.24C1090.47 58.9333 1090.41 59.5733 1090.36 60.16H1056.04V52.16H1082.28L1076.52 54.4C1076.57 52.4267 1076.2 50.72 1075.4 49.28C1074.65 47.84 1073.59 46.72 1072.2 45.92C1070.87 45.12 1069.29 44.72 1067.48 44.72C1065.67 44.72 1064.07 45.12 1062.68 45.92C1061.35 46.72 1060.31 47.8667 1059.56 49.36C1058.81 50.8 1058.44 52.5067 1058.44 54.48V56.8C1058.44 58.9333 1058.87 60.7733 1059.72 62.32C1060.63 63.8667 1061.91 65.0667 1063.56 65.92C1065.21 66.72 1067.19 67.12 1069.48 67.12C1071.61 67.12 1073.43 66.8267 1074.92 66.24C1076.47 65.6 1077.99 64.64 1079.48 63.36L1087.48 71.68C1085.4 73.9733 1082.84 75.7333 1079.8 76.96C1076.76 78.1333 1073.16 78.72 1069 78.72ZM1108.91 78L1091.07 34.64H1106.67L1120.91 70.88H1113.07L1128.03 34.64H1142.51L1124.59 78H1108.91ZM1146.43 78V34.64H1161.63V78H1146.43ZM1154.03 29.84C1151.26 29.84 1149.02 29.0667 1147.31 27.52C1145.61 25.9733 1144.75 24.0533 1144.75 21.76C1144.75 19.4667 1145.61 17.5467 1147.31 16C1149.02 14.4533 1151.26 13.68 1154.03 13.68C1156.81 13.68 1159.05 14.4267 1160.75 15.92C1162.46 17.36 1163.31 19.2267 1163.31 21.52C1163.31 23.92 1162.46 25.92 1160.75 27.52C1159.1 29.0667 1156.86 29.84 1154.03 29.84ZM1193.67 78.72C1188.87 78.72 1184.58 77.76 1180.79 75.84C1177.06 73.92 1174.13 71.28 1171.99 67.92C1169.86 64.5067 1168.79 60.6133 1168.79 56.24C1168.79 51.8667 1169.86 48 1171.99 44.64C1174.13 41.28 1177.06 38.6667 1180.79 36.8C1184.58 34.88 1188.87 33.92 1193.67 33.92C1198.58 33.92 1202.82 34.96 1206.39 37.04C1209.97 39.12 1212.5 42.0533 1213.99 45.84L1202.23 51.84C1201.22 49.8133 1199.97 48.3467 1198.47 47.44C1196.98 46.48 1195.35 46 1193.59 46C1191.83 46 1190.23 46.4 1188.79 47.2C1187.35 48 1186.21 49.1733 1185.35 50.72C1184.55 52.2133 1184.15 54.0533 1184.15 56.24C1184.15 58.48 1184.55 60.3733 1185.35 61.92C1186.21 63.4667 1187.35 64.64 1188.79 65.44C1190.23 66.24 1191.83 66.64 1193.59 66.64C1195.35 66.64 1196.98 66.1867 1198.47 65.28C1199.97 64.32 1201.22 62.8267 1202.23 60.8L1213.99 66.8C1212.5 70.5867 1209.97 73.52 1206.39 75.6C1202.82 77.68 1198.58 78.72 1193.67 78.72ZM1241.97 78.72C1236.85 78.72 1232.37 77.76 1228.53 75.84C1224.74 73.8667 1221.78 71.2 1219.65 67.84C1217.57 64.4267 1216.53 60.56 1216.53 56.24C1216.53 51.92 1217.54 48.08 1219.57 44.72C1221.65 41.3067 1224.5 38.6667 1228.13 36.8C1231.75 34.88 1235.83 33.92 1240.37 33.92C1244.63 33.92 1248.53 34.8 1252.05 36.56C1255.57 38.2667 1258.37 40.8 1260.45 44.16C1262.53 47.52 1263.57 51.6 1263.57 56.4C1263.57 56.9333 1263.54 57.5467 1263.49 58.24C1263.43 58.9333 1263.38 59.5733 1263.33 60.16H1229.01V52.16H1255.25L1249.49 54.4C1249.54 52.4267 1249.17 50.72 1248.37 49.28C1247.62 47.84 1246.55 46.72 1245.17 45.92C1243.83 45.12 1242.26 44.72 1240.45 44.72C1238.63 44.72 1237.03 45.12 1235.65 45.92C1234.31 46.72 1233.27 47.8667 1232.53 49.36C1231.78 50.8 1231.41 52.5067 1231.41 54.48V56.8C1231.41 58.9333 1231.83 60.7733 1232.69 62.32C1233.59 63.8667 1234.87 65.0667 1236.53 65.92C1238.18 66.72 1240.15 67.12 1242.45 67.12C1244.58 67.12 1246.39 66.8267 1247.89 66.24C1249.43 65.6 1250.95 64.64 1252.45 63.36L1260.45 71.68C1258.37 73.9733 1255.81 75.7333 1252.77 76.96C1249.73 78.1333 1246.13 78.72 1241.97 78.72Z" fill="black"/>
</svg>
