<svg width="169" height="398" viewBox="0 0 169 398" fill="none" xmlns="http://www.w3.org/2000/svg">
<path d="M112.024 148.617C112.024 148.617 59.1522 73.7991 10.2698 110.708C-38.6127 147.619 103.046 201.488 100.052 270.32C97.059 339.153 146.939 267.326 146.939 267.326L112.024 148.617Z" fill="#F4E3FF"/>
<path d="M122.84 326.134C122.84 326.134 129.613 204.217 64.1409 93.5893C-1.33151 -17.0388 100.264 -30.5848 145.417 61.9819C190.57 154.549 167.994 312.588 167.994 312.588L122.84 326.134Z" fill="white" stroke="#252D3B" stroke-width="1.3" stroke-miterlimit="10" stroke-linecap="round"/>
<path d="M98.7891 65.582C98.7891 65.582 155.205 153.302 146.94 267.326L98.7891 65.582Z" fill="white"/>
<path d="M98.7891 65.582C98.7891 65.582 155.205 153.302 146.94 267.326" stroke="#252D3B" stroke-width="1.3" stroke-miterlimit="10" stroke-linecap="round"/>
<path d="M201.755 250.926H63.8281V421.18H201.755V250.926Z" fill="#252D3B"/>
</svg>
