<svg width="894" height="58" viewBox="0 0 894 58" fill="none" xmlns="http://www.w3.org/2000/svg">
<path d="M7.839 23.24C6.527 23.24 5.271 23.056 4.071 22.688C2.871 22.304 1.919 21.816 1.215 21.224L2.295 18.8C2.967 19.328 3.799 19.768 4.791 20.12C5.783 20.472 6.799 20.648 7.839 20.648C8.719 20.648 9.431 20.552 9.975 20.36C10.519 20.168 10.919 19.912 11.175 19.592C11.431 19.256 11.559 18.88 11.559 18.464C11.559 17.952 11.375 17.544 11.007 17.24C10.639 16.92 10.159 16.672 9.567 16.496C8.991 16.304 8.343 16.128 7.623 15.968C6.919 15.808 6.207 15.624 5.487 15.416C4.783 15.192 4.135 14.912 3.543 14.576C2.967 14.224 2.495 13.76 2.127 13.184C1.759 12.608 1.575 11.872 1.575 10.976C1.575 10.064 1.815 9.232 2.295 8.48C2.791 7.712 3.535 7.104 4.527 6.656C5.535 6.192 6.807 5.96 8.343 5.96C9.351 5.96 10.351 6.088 11.343 6.344C12.335 6.6 13.199 6.968 13.935 7.448L12.951 9.872C12.199 9.424 11.423 9.096 10.623 8.888C9.823 8.664 9.055 8.552 8.319 8.552C7.455 8.552 6.751 8.656 6.207 8.864C5.679 9.072 5.287 9.344 5.031 9.68C4.791 10.016 4.671 10.4 4.671 10.832C4.671 11.344 4.847 11.76 5.199 12.08C5.567 12.384 6.039 12.624 6.615 12.8C7.207 12.976 7.863 13.152 8.583 13.328C9.303 13.488 10.015 13.672 10.719 13.88C11.439 14.088 12.087 14.36 12.663 14.696C13.255 15.032 13.727 15.488 14.079 16.064C14.447 16.64 14.631 17.368 14.631 18.248C14.631 19.144 14.383 19.976 13.887 20.744C13.407 21.496 12.663 22.104 11.655 22.568C10.647 23.016 9.375 23.24 7.839 23.24ZM23.3168 23.168C21.9728 23.168 20.7728 22.888 19.7168 22.328C18.6768 21.752 17.8608 20.968 17.2688 19.976C16.6768 18.984 16.3808 17.856 16.3808 16.592C16.3808 15.312 16.6768 14.184 17.2688 13.208C17.8608 12.216 18.6768 11.44 19.7168 10.88C20.7728 10.32 21.9728 10.04 23.3168 10.04C24.5648 10.04 25.6608 10.296 26.6048 10.808C27.5648 11.304 28.2928 12.04 28.7888 13.016L26.4848 14.36C26.1008 13.752 25.6288 13.304 25.0688 13.016C24.5248 12.728 23.9328 12.584 23.2928 12.584C22.5568 12.584 21.8928 12.744 21.3008 13.064C20.7088 13.384 20.2448 13.848 19.9088 14.456C19.5728 15.048 19.4048 15.76 19.4048 16.592C19.4048 17.424 19.5728 18.144 19.9088 18.752C20.2448 19.344 20.7088 19.8 21.3008 20.12C21.8928 20.44 22.5568 20.6 23.2928 20.6C23.9328 20.6 24.5248 20.456 25.0688 20.168C25.6288 19.88 26.1008 19.432 26.4848 18.824L28.7888 20.168C28.2928 21.128 27.5648 21.872 26.6048 22.4C25.6608 22.912 24.5648 23.168 23.3168 23.168ZM39.2781 23V20.408L39.1101 19.856V15.32C39.1101 14.44 38.8461 13.76 38.3181 13.28C37.7901 12.784 36.9901 12.536 35.9181 12.536C35.1981 12.536 34.4861 12.648 33.7821 12.872C33.0941 13.096 32.5101 13.408 32.0301 13.808L30.8541 11.624C31.5421 11.096 32.3581 10.704 33.3021 10.448C34.2621 10.176 35.2541 10.04 36.2781 10.04C38.1341 10.04 39.5661 10.488 40.5741 11.384C41.5981 12.264 42.1101 13.632 42.1101 15.488V23H39.2781ZM35.2461 23.168C34.2861 23.168 33.4461 23.008 32.7261 22.688C32.0061 22.352 31.4461 21.896 31.0461 21.32C30.6621 20.728 30.4701 20.064 30.4701 19.328C30.4701 18.608 30.6381 17.96 30.9741 17.384C31.3261 16.808 31.8941 16.352 32.6781 16.016C33.4621 15.68 34.5021 15.512 35.7981 15.512H39.5181V17.504H36.0141C34.9901 17.504 34.3021 17.672 33.9501 18.008C33.5981 18.328 33.4221 18.728 33.4221 19.208C33.4221 19.752 33.6381 20.184 34.0701 20.504C34.5021 20.824 35.1021 20.984 35.8701 20.984C36.6061 20.984 37.2621 20.816 37.8381 20.48C38.4301 20.144 38.8541 19.648 39.1101 18.992L39.6141 20.792C39.3261 21.544 38.8061 22.128 38.0541 22.544C37.3181 22.96 36.3821 23.168 35.2461 23.168ZM53.2322 10.04C54.2562 10.04 55.1682 10.24 55.9682 10.64C56.7842 11.04 57.4242 11.656 57.8882 12.488C58.3522 13.304 58.5842 14.36 58.5842 15.656V23H55.5842V16.04C55.5842 14.904 55.3122 14.056 54.7682 13.496C54.2402 12.936 53.4962 12.656 52.5362 12.656C51.8322 12.656 51.2082 12.8 50.6642 13.088C50.1202 13.376 49.6962 13.808 49.3922 14.384C49.1042 14.944 48.9602 15.656 48.9602 16.52V23H45.9602V10.184H48.8162V13.64L48.3122 12.584C48.7602 11.768 49.4082 11.144 50.2562 10.712C51.1202 10.264 52.1122 10.04 53.2322 10.04ZM73.8467 23.168C72.4387 23.168 71.3507 22.808 70.5827 22.088C69.8147 21.352 69.4307 20.272 69.4307 18.848V7.352H72.4307V18.776C72.4307 19.384 72.5827 19.856 72.8867 20.192C73.2067 20.528 73.6467 20.696 74.2067 20.696C74.8787 20.696 75.4387 20.52 75.8867 20.168L76.7267 22.304C76.3747 22.592 75.9427 22.808 75.4307 22.952C74.9187 23.096 74.3907 23.168 73.8467 23.168ZM67.3187 12.68V10.28H75.8627V12.68H67.3187ZM86.4666 10.04C87.4906 10.04 88.4026 10.24 89.2026 10.64C90.0186 11.04 90.6586 11.656 91.1226 12.488C91.5866 13.304 91.8186 14.36 91.8186 15.656V23H88.8186V16.04C88.8186 14.904 88.5466 14.056 88.0026 13.496C87.4746 12.936 86.7306 12.656 85.7706 12.656C85.0666 12.656 84.4426 12.8 83.8986 13.088C83.3546 13.376 82.9306 13.808 82.6266 14.384C82.3386 14.944 82.1946 15.656 82.1946 16.52V23H79.1946V5.192H82.1946V13.64L81.5466 12.584C81.9946 11.768 82.6426 11.144 83.4906 10.712C84.3546 10.264 85.3466 10.04 86.4666 10.04ZM101.672 23.168C100.248 23.168 98.9997 22.888 97.9277 22.328C96.8717 21.752 96.0477 20.968 95.4557 19.976C94.8797 18.984 94.5917 17.856 94.5917 16.592C94.5917 15.312 94.8717 14.184 95.4317 13.208C96.0077 12.216 96.7917 11.44 97.7837 10.88C98.7917 10.32 99.9357 10.04 101.216 10.04C102.464 10.04 103.576 10.312 104.552 10.856C105.528 11.4 106.296 12.168 106.856 13.16C107.416 14.152 107.696 15.32 107.696 16.664C107.696 16.792 107.688 16.936 107.672 17.096C107.672 17.256 107.664 17.408 107.648 17.552H96.9677V15.56H106.064L104.888 16.184C104.904 15.448 104.752 14.8 104.432 14.24C104.112 13.68 103.672 13.24 103.112 12.92C102.568 12.6 101.936 12.44 101.216 12.44C100.48 12.44 99.8317 12.6 99.2717 12.92C98.7277 13.24 98.2957 13.688 97.9757 14.264C97.6717 14.824 97.5197 15.488 97.5197 16.256V16.736C97.5197 17.504 97.6957 18.184 98.0477 18.776C98.3997 19.368 98.8957 19.824 99.5357 20.144C100.176 20.464 100.912 20.624 101.744 20.624C102.464 20.624 103.112 20.512 103.688 20.288C104.264 20.064 104.776 19.712 105.224 19.232L106.832 21.08C106.256 21.752 105.528 22.272 104.648 22.64C103.784 22.992 102.792 23.168 101.672 23.168ZM125.37 23.24C124.058 23.24 122.85 23.024 121.746 22.592C120.642 22.16 119.682 21.56 118.866 20.792C118.05 20.008 117.418 19.096 116.97 18.056C116.522 17 116.298 15.848 116.298 14.6C116.298 13.352 116.522 12.208 116.97 11.168C117.418 10.112 118.05 9.2 118.866 8.432C119.682 7.648 120.642 7.04 121.746 6.608C122.85 6.176 124.05 5.96 125.346 5.96C126.658 5.96 127.858 6.176 128.946 6.608C130.05 7.04 131.01 7.64 131.826 8.408C132.642 9.176 133.274 10.088 133.722 11.144C134.17 12.2 134.394 13.352 134.394 14.6C134.394 15.848 134.17 17 133.722 18.056C133.274 19.112 132.642 20.024 131.826 20.792C131.01 21.56 130.05 22.16 128.946 22.592C127.858 23.024 126.666 23.24 125.37 23.24ZM130.842 26.672C130.25 26.672 129.674 26.6 129.114 26.456C128.57 26.328 128.026 26.104 127.482 25.784C126.954 25.48 126.402 25.072 125.826 24.56C125.25 24.064 124.618 23.448 123.93 22.712L127.242 21.848C127.69 22.44 128.114 22.912 128.514 23.264C128.93 23.632 129.33 23.896 129.714 24.056C130.098 24.216 130.498 24.296 130.914 24.296C132.018 24.296 132.978 23.848 133.794 22.952L135.234 24.68C134.114 26.008 132.65 26.672 130.842 26.672ZM125.346 20.504C126.194 20.504 126.978 20.36 127.698 20.072C128.418 19.784 129.042 19.376 129.57 18.848C130.098 18.304 130.506 17.672 130.794 16.952C131.098 16.232 131.25 15.448 131.25 14.6C131.25 13.736 131.098 12.952 130.794 12.248C130.506 11.528 130.098 10.904 129.57 10.376C129.042 9.832 128.418 9.416 127.698 9.128C126.978 8.84 126.194 8.696 125.346 8.696C124.498 8.696 123.714 8.84 122.994 9.128C122.274 9.416 121.65 9.832 121.122 10.376C120.594 10.904 120.178 11.528 119.874 12.248C119.586 12.952 119.442 13.736 119.442 14.6C119.442 15.448 119.586 16.232 119.874 16.952C120.178 17.672 120.594 18.304 121.122 18.848C121.65 19.376 122.274 19.784 122.994 20.072C123.714 20.36 124.498 20.504 125.346 20.504ZM137.701 23V6.2H144.613C146.101 6.2 147.373 6.44 148.429 6.92C149.501 7.4 150.325 8.088 150.901 8.984C151.477 9.88 151.765 10.944 151.765 12.176C151.765 13.408 151.477 14.472 150.901 15.368C150.325 16.248 149.501 16.928 148.429 17.408C147.373 17.872 146.101 18.104 144.613 18.104H139.429L140.821 16.688V23H137.701ZM148.693 23L144.445 16.904H147.781L152.053 23H148.693ZM140.821 17.024L139.429 15.536H144.469C145.845 15.536 146.877 15.24 147.565 14.648C148.269 14.056 148.621 13.232 148.621 12.176C148.621 11.104 148.269 10.28 147.565 9.704C146.877 9.128 145.845 8.84 144.469 8.84H139.429L140.821 7.304V17.024ZM169.665 23.24C168.385 23.24 167.193 23.032 166.089 22.616C165.001 22.184 164.049 21.584 163.233 20.816C162.433 20.032 161.809 19.112 161.361 18.056C160.913 17 160.689 15.848 160.689 14.6C160.689 13.352 160.913 12.2 161.361 11.144C161.809 10.088 162.441 9.176 163.257 8.408C164.073 7.624 165.025 7.024 166.113 6.608C167.201 6.176 168.393 5.96 169.689 5.96C171.065 5.96 172.321 6.2 173.457 6.68C174.593 7.144 175.553 7.84 176.337 8.768L174.321 10.664C173.713 10.008 173.033 9.52 172.281 9.2C171.529 8.864 170.713 8.696 169.833 8.696C168.953 8.696 168.145 8.84 167.409 9.128C166.689 9.416 166.057 9.824 165.513 10.352C164.985 10.88 164.569 11.504 164.265 12.224C163.977 12.944 163.833 13.736 163.833 14.6C163.833 15.464 163.977 16.256 164.265 16.976C164.569 17.696 164.985 18.32 165.513 18.848C166.057 19.376 166.689 19.784 167.409 20.072C168.145 20.36 168.953 20.504 169.833 20.504C170.713 20.504 171.529 20.344 172.281 20.024C173.033 19.688 173.713 19.184 174.321 18.512L176.337 20.432C175.553 21.344 174.593 22.04 173.457 22.52C172.321 23 171.057 23.24 169.665 23.24ZM184.306 23.168C182.994 23.168 181.826 22.888 180.802 22.328C179.778 21.752 178.97 20.968 178.378 19.976C177.786 18.984 177.49 17.856 177.49 16.592C177.49 15.312 177.786 14.184 178.378 13.208C178.97 12.216 179.778 11.44 180.802 10.88C181.826 10.32 182.994 10.04 184.306 10.04C185.634 10.04 186.81 10.32 187.834 10.88C188.874 11.44 189.682 12.208 190.258 13.184C190.85 14.16 191.146 15.296 191.146 16.592C191.146 17.856 190.85 18.984 190.258 19.976C189.682 20.968 188.874 21.752 187.834 22.328C186.81 22.888 185.634 23.168 184.306 23.168ZM184.306 20.6C185.042 20.6 185.698 20.44 186.274 20.12C186.85 19.8 187.298 19.336 187.618 18.728C187.954 18.12 188.122 17.408 188.122 16.592C188.122 15.76 187.954 15.048 187.618 14.456C187.298 13.848 186.85 13.384 186.274 13.064C185.698 12.744 185.05 12.584 184.33 12.584C183.594 12.584 182.938 12.744 182.362 13.064C181.802 13.384 181.354 13.848 181.018 14.456C180.682 15.048 180.514 15.76 180.514 16.592C180.514 17.408 180.682 18.12 181.018 18.728C181.354 19.336 181.802 19.8 182.362 20.12C182.938 20.44 183.586 20.6 184.306 20.6ZM199.439 23.168C198.207 23.168 197.095 22.896 196.103 22.352C195.127 21.792 194.359 21.024 193.799 20.048C193.239 19.072 192.959 17.92 192.959 16.592C192.959 15.264 193.239 14.112 193.799 13.136C194.359 12.16 195.127 11.4 196.103 10.856C197.095 10.312 198.207 10.04 199.439 10.04C200.511 10.04 201.471 10.28 202.319 10.76C203.167 11.224 203.839 11.936 204.335 12.896C204.831 13.856 205.079 15.088 205.079 16.592C205.079 18.08 204.839 19.312 204.359 20.288C203.879 21.248 203.215 21.968 202.367 22.448C201.519 22.928 200.543 23.168 199.439 23.168ZM199.799 20.6C200.519 20.6 201.159 20.44 201.719 20.12C202.295 19.8 202.751 19.336 203.087 18.728C203.439 18.12 203.615 17.408 203.615 16.592C203.615 15.76 203.439 15.048 203.087 14.456C202.751 13.848 202.295 13.384 201.719 13.064C201.159 12.744 200.519 12.584 199.799 12.584C199.079 12.584 198.431 12.744 197.855 13.064C197.295 13.384 196.839 13.848 196.487 14.456C196.151 15.048 195.983 15.76 195.983 16.592C195.983 17.408 196.151 18.12 196.487 18.728C196.839 19.336 197.295 19.8 197.855 20.12C198.431 20.44 199.079 20.6 199.799 20.6ZM203.687 23V19.976L203.807 16.568L203.567 13.16V5.192H206.543V23H203.687ZM216.515 23.168C215.091 23.168 213.843 22.888 212.771 22.328C211.715 21.752 210.891 20.968 210.299 19.976C209.723 18.984 209.435 17.856 209.435 16.592C209.435 15.312 209.715 14.184 210.275 13.208C210.851 12.216 211.635 11.44 212.627 10.88C213.635 10.32 214.779 10.04 216.059 10.04C217.307 10.04 218.419 10.312 219.395 10.856C220.371 11.4 221.139 12.168 221.699 13.16C222.259 14.152 222.539 15.32 222.539 16.664C222.539 16.792 222.531 16.936 222.515 17.096C222.515 17.256 222.507 17.408 222.491 17.552H211.811V15.56H220.907L219.731 16.184C219.747 15.448 219.595 14.8 219.275 14.24C218.955 13.68 218.515 13.24 217.955 12.92C217.411 12.6 216.779 12.44 216.059 12.44C215.323 12.44 214.675 12.6 214.115 12.92C213.571 13.24 213.139 13.688 212.819 14.264C212.515 14.824 212.363 15.488 212.363 16.256V16.736C212.363 17.504 212.539 18.184 212.891 18.776C213.243 19.368 213.739 19.824 214.379 20.144C215.019 20.464 215.755 20.624 216.587 20.624C217.307 20.624 217.955 20.512 218.531 20.288C219.107 20.064 219.619 19.712 220.067 19.232L221.675 21.08C221.099 21.752 220.371 22.272 219.491 22.64C218.627 22.992 217.635 23.168 216.515 23.168ZM234.886 23L230.182 10.184H233.014L237.046 21.488H235.702L239.926 10.184H242.446L246.55 21.488H245.23L249.382 10.184H252.046L247.318 23H244.438L240.694 12.992H241.582L237.766 23H234.886ZM254.109 23V10.184H257.109V23H254.109ZM255.621 8.072C255.061 8.072 254.597 7.896 254.229 7.544C253.877 7.192 253.701 6.768 253.701 6.272C253.701 5.76 253.877 5.336 254.229 5C254.597 4.648 255.061 4.472 255.621 4.472C256.181 4.472 256.637 4.64 256.989 4.976C257.357 5.296 257.541 5.704 257.541 6.2C257.541 6.728 257.365 7.176 257.013 7.544C256.661 7.896 256.197 8.072 255.621 8.072ZM265.87 23.168C264.462 23.168 263.374 22.808 262.606 22.088C261.838 21.352 261.454 20.272 261.454 18.848V7.352H264.454V18.776C264.454 19.384 264.606 19.856 264.91 20.192C265.23 20.528 265.67 20.696 266.23 20.696C266.902 20.696 267.462 20.52 267.91 20.168L268.75 22.304C268.398 22.592 267.966 22.808 267.454 22.952C266.942 23.096 266.414 23.168 265.87 23.168ZM259.342 12.68V10.28H267.886V12.68H259.342ZM278.49 10.04C279.514 10.04 280.426 10.24 281.226 10.64C282.042 11.04 282.682 11.656 283.146 12.488C283.61 13.304 283.842 14.36 283.842 15.656V23H280.842V16.04C280.842 14.904 280.57 14.056 280.026 13.496C279.498 12.936 278.754 12.656 277.794 12.656C277.09 12.656 276.466 12.8 275.922 13.088C275.378 13.376 274.954 13.808 274.65 14.384C274.362 14.944 274.218 15.656 274.218 16.52V23H271.218V5.192H274.218V13.64L273.57 12.584C274.018 11.768 274.666 11.144 275.514 10.712C276.378 10.264 277.37 10.04 278.49 10.04ZM295.337 27.824C294.713 27.824 294.089 27.72 293.465 27.512C292.841 27.304 292.321 27.016 291.904 26.648L293.104 24.44C293.409 24.712 293.753 24.928 294.137 25.088C294.521 25.248 294.913 25.328 295.312 25.328C295.857 25.328 296.297 25.192 296.633 24.92C296.969 24.648 297.281 24.192 297.569 23.552L298.312 21.872L298.553 21.512L303.401 10.184H306.281L300.281 24.032C299.881 24.992 299.433 25.752 298.937 26.312C298.457 26.872 297.913 27.264 297.305 27.488C296.713 27.712 296.057 27.824 295.337 27.824ZM297.977 23.456L292.192 10.184H295.312L300.017 21.248L297.977 23.456ZM313.564 23.168C312.252 23.168 311.084 22.888 310.06 22.328C309.036 21.752 308.228 20.968 307.636 19.976C307.044 18.984 306.748 17.856 306.748 16.592C306.748 15.312 307.044 14.184 307.636 13.208C308.228 12.216 309.036 11.44 310.06 10.88C311.084 10.32 312.252 10.04 313.564 10.04C314.892 10.04 316.068 10.32 317.092 10.88C318.132 11.44 318.94 12.208 319.516 13.184C320.108 14.16 320.404 15.296 320.404 16.592C320.404 17.856 320.108 18.984 319.516 19.976C318.94 20.968 318.132 21.752 317.092 22.328C316.068 22.888 314.892 23.168 313.564 23.168ZM313.564 20.6C314.3 20.6 314.956 20.44 315.532 20.12C316.108 19.8 316.556 19.336 316.876 18.728C317.212 18.12 317.38 17.408 317.38 16.592C317.38 15.76 317.212 15.048 316.876 14.456C316.556 13.848 316.108 13.384 315.532 13.064C314.956 12.744 314.308 12.584 313.588 12.584C312.852 12.584 312.196 12.744 311.62 13.064C311.06 13.384 310.612 13.848 310.276 14.456C309.94 15.048 309.772 15.76 309.772 16.592C309.772 17.408 309.94 18.12 310.276 18.728C310.612 19.336 311.06 19.8 311.62 20.12C312.196 20.44 312.844 20.6 313.564 20.6ZM328.697 23.168C327.609 23.168 326.649 22.968 325.817 22.568C324.985 22.152 324.337 21.528 323.873 20.696C323.409 19.848 323.177 18.784 323.177 17.504V10.184H326.177V17.096C326.177 18.248 326.433 19.112 326.945 19.688C327.473 20.248 328.217 20.528 329.177 20.528C329.881 20.528 330.489 20.384 331.001 20.096C331.529 19.808 331.937 19.376 332.225 18.8C332.529 18.224 332.681 17.512 332.681 16.664V10.184H335.681V23H332.825V19.544L333.329 20.6C332.897 21.432 332.265 22.072 331.433 22.52C330.601 22.952 329.689 23.168 328.697 23.168ZM339.609 23V10.184H342.465V13.712L342.129 12.68C342.513 11.816 343.113 11.16 343.929 10.712C344.761 10.264 345.793 10.04 347.025 10.04V12.896C346.897 12.864 346.777 12.848 346.665 12.848C346.553 12.832 346.441 12.824 346.329 12.824C345.193 12.824 344.289 13.16 343.617 13.832C342.945 14.488 342.609 15.472 342.609 16.784V23H339.609ZM360.28 23.168C359.208 23.168 358.176 23.032 357.184 22.76C356.208 22.472 355.432 22.128 354.856 21.728L356.008 19.448C356.584 19.816 357.272 20.12 358.072 20.36C358.872 20.6 359.672 20.72 360.472 20.72C361.416 20.72 362.096 20.592 362.512 20.336C362.944 20.08 363.16 19.736 363.16 19.304C363.16 18.952 363.016 18.688 362.728 18.512C362.44 18.32 362.064 18.176 361.6 18.08C361.136 17.984 360.616 17.896 360.04 17.816C359.48 17.736 358.912 17.632 358.336 17.504C357.776 17.36 357.264 17.16 356.8 16.904C356.336 16.632 355.96 16.272 355.672 15.824C355.384 15.376 355.24 14.784 355.24 14.048C355.24 13.232 355.472 12.528 355.936 11.936C356.4 11.328 357.048 10.864 357.88 10.544C358.728 10.208 359.728 10.04 360.88 10.04C361.744 10.04 362.616 10.136 363.496 10.328C364.376 10.52 365.104 10.792 365.68 11.144L364.528 13.424C363.92 13.056 363.304 12.808 362.68 12.68C362.072 12.536 361.464 12.464 360.856 12.464C359.944 12.464 359.264 12.6 358.816 12.872C358.384 13.144 358.168 13.488 358.168 13.904C358.168 14.288 358.312 14.576 358.6 14.768C358.888 14.96 359.264 15.112 359.728 15.224C360.192 15.336 360.704 15.432 361.264 15.512C361.84 15.576 362.408 15.68 362.968 15.824C363.528 15.968 364.04 16.168 364.504 16.424C364.984 16.664 365.368 17.008 365.656 17.456C365.944 17.904 366.088 18.488 366.088 19.208C366.088 20.008 365.848 20.704 365.368 21.296C364.904 21.888 364.24 22.352 363.376 22.688C362.512 23.008 361.48 23.168 360.28 23.168ZM384.847 10.04C385.871 10.04 386.775 10.24 387.559 10.64C388.359 11.04 388.983 11.656 389.431 12.488C389.879 13.304 390.103 14.36 390.103 15.656V23H387.103V16.04C387.103 14.904 386.855 14.056 386.359 13.496C385.863 12.936 385.151 12.656 384.223 12.656C383.567 12.656 382.983 12.8 382.471 13.088C381.975 13.376 381.583 13.8 381.295 14.36C381.023 14.92 380.887 15.632 380.887 16.496V23H377.887V16.04C377.887 14.904 377.639 14.056 377.143 13.496C376.647 12.936 375.935 12.656 375.007 12.656C374.351 12.656 373.767 12.8 373.255 13.088C372.759 13.376 372.367 13.8 372.079 14.36C371.807 14.92 371.671 15.632 371.671 16.496V23H368.671V10.184H371.527V13.592L371.023 12.584C371.455 11.752 372.079 11.12 372.895 10.688C373.727 10.256 374.671 10.04 375.727 10.04C376.927 10.04 377.967 10.336 378.847 10.928C379.743 11.52 380.335 12.416 380.623 13.616L379.447 13.208C379.863 12.248 380.551 11.48 381.511 10.904C382.471 10.328 383.583 10.04 384.847 10.04ZM401.833 23V20.408L401.665 19.856V15.32C401.665 14.44 401.401 13.76 400.873 13.28C400.345 12.784 399.545 12.536 398.473 12.536C397.753 12.536 397.041 12.648 396.337 12.872C395.649 13.096 395.065 13.408 394.585 13.808L393.409 11.624C394.097 11.096 394.913 10.704 395.857 10.448C396.817 10.176 397.809 10.04 398.833 10.04C400.689 10.04 402.121 10.488 403.129 11.384C404.153 12.264 404.665 13.632 404.665 15.488V23H401.833ZM397.801 23.168C396.841 23.168 396.001 23.008 395.281 22.688C394.561 22.352 394.001 21.896 393.601 21.32C393.217 20.728 393.025 20.064 393.025 19.328C393.025 18.608 393.193 17.96 393.529 17.384C393.881 16.808 394.449 16.352 395.233 16.016C396.017 15.68 397.057 15.512 398.353 15.512H402.073V17.504H398.569C397.545 17.504 396.857 17.672 396.505 18.008C396.153 18.328 395.977 18.728 395.977 19.208C395.977 19.752 396.193 20.184 396.625 20.504C397.057 20.824 397.657 20.984 398.425 20.984C399.161 20.984 399.817 20.816 400.393 20.48C400.985 20.144 401.409 19.648 401.665 18.992L402.169 20.792C401.881 21.544 401.361 22.128 400.609 22.544C399.873 22.96 398.937 23.168 397.801 23.168ZM408.515 23V10.184H411.371V13.712L411.035 12.68C411.419 11.816 412.019 11.16 412.835 10.712C413.667 10.264 414.699 10.04 415.931 10.04V12.896C415.803 12.864 415.683 12.848 415.571 12.848C415.459 12.832 415.347 12.824 415.235 12.824C414.099 12.824 413.195 13.16 412.523 13.832C411.851 14.488 411.515 15.472 411.515 16.784V23H408.515ZM423.769 23.168C422.361 23.168 421.273 22.808 420.505 22.088C419.737 21.352 419.353 20.272 419.353 18.848V7.352H422.353V18.776C422.353 19.384 422.505 19.856 422.809 20.192C423.129 20.528 423.569 20.696 424.129 20.696C424.801 20.696 425.361 20.52 425.809 20.168L426.649 22.304C426.297 22.592 425.865 22.808 425.353 22.952C424.841 23.096 424.313 23.168 423.769 23.168ZM417.241 12.68V10.28H425.785V12.68H417.241ZM442.853 23.168C441.813 23.168 440.861 22.928 439.997 22.448C439.149 21.968 438.469 21.248 437.957 20.288C437.461 19.312 437.213 18.08 437.213 16.592C437.213 15.088 437.453 13.856 437.933 12.896C438.429 11.936 439.101 11.224 439.949 10.76C440.797 10.28 441.765 10.04 442.853 10.04C444.117 10.04 445.229 10.312 446.189 10.856C447.165 11.4 447.933 12.16 448.493 13.136C449.069 14.112 449.357 15.264 449.357 16.592C449.357 17.92 449.069 19.08 448.493 20.072C447.933 21.048 447.165 21.808 446.189 22.352C445.229 22.896 444.117 23.168 442.853 23.168ZM435.749 27.656V10.184H438.605V13.208L438.509 16.616L438.749 20.024V27.656H435.749ZM442.517 20.6C443.237 20.6 443.877 20.44 444.437 20.12C445.013 19.8 445.469 19.336 445.805 18.728C446.141 18.12 446.309 17.408 446.309 16.592C446.309 15.76 446.141 15.048 445.805 14.456C445.469 13.848 445.013 13.384 444.437 13.064C443.877 12.744 443.237 12.584 442.517 12.584C441.797 12.584 441.149 12.744 440.573 13.064C439.997 13.384 439.541 13.848 439.205 14.456C438.869 15.048 438.701 15.76 438.701 16.592C438.701 17.408 438.869 18.12 439.205 18.728C439.541 19.336 439.997 19.8 440.573 20.12C441.149 20.44 441.797 20.6 442.517 20.6ZM459.474 10.04C460.498 10.04 461.41 10.24 462.21 10.64C463.026 11.04 463.666 11.656 464.13 12.488C464.594 13.304 464.826 14.36 464.826 15.656V23H461.826V16.04C461.826 14.904 461.554 14.056 461.01 13.496C460.482 12.936 459.738 12.656 458.778 12.656C458.074 12.656 457.45 12.8 456.906 13.088C456.362 13.376 455.938 13.808 455.634 14.384C455.346 14.944 455.202 15.656 455.202 16.52V23H452.202V5.192H455.202V13.64L454.554 12.584C455.002 11.768 455.65 11.144 456.498 10.712C457.362 10.264 458.354 10.04 459.474 10.04ZM474.416 23.168C473.104 23.168 471.936 22.888 470.912 22.328C469.888 21.752 469.08 20.968 468.488 19.976C467.896 18.984 467.6 17.856 467.6 16.592C467.6 15.312 467.896 14.184 468.488 13.208C469.08 12.216 469.888 11.44 470.912 10.88C471.936 10.32 473.104 10.04 474.416 10.04C475.744 10.04 476.92 10.32 477.944 10.88C478.984 11.44 479.792 12.208 480.368 13.184C480.96 14.16 481.256 15.296 481.256 16.592C481.256 17.856 480.96 18.984 480.368 19.976C479.792 20.968 478.984 21.752 477.944 22.328C476.92 22.888 475.744 23.168 474.416 23.168ZM474.416 20.6C475.152 20.6 475.808 20.44 476.384 20.12C476.96 19.8 477.408 19.336 477.728 18.728C478.064 18.12 478.232 17.408 478.232 16.592C478.232 15.76 478.064 15.048 477.728 14.456C477.408 13.848 476.96 13.384 476.384 13.064C475.808 12.744 475.16 12.584 474.44 12.584C473.704 12.584 473.048 12.744 472.472 13.064C471.912 13.384 471.464 13.848 471.128 14.456C470.792 15.048 470.624 15.76 470.624 16.592C470.624 17.408 470.792 18.12 471.128 18.728C471.464 19.336 471.912 19.8 472.472 20.12C473.048 20.44 473.696 20.6 474.416 20.6ZM491.396 10.04C492.42 10.04 493.332 10.24 494.132 10.64C494.948 11.04 495.588 11.656 496.052 12.488C496.516 13.304 496.748 14.36 496.748 15.656V23H493.748V16.04C493.748 14.904 493.476 14.056 492.932 13.496C492.404 12.936 491.66 12.656 490.7 12.656C489.996 12.656 489.372 12.8 488.828 13.088C488.284 13.376 487.86 13.808 487.556 14.384C487.268 14.944 487.124 15.656 487.124 16.52V23H484.124V10.184H486.98V13.64L486.476 12.584C486.924 11.768 487.572 11.144 488.42 10.712C489.284 10.264 490.276 10.04 491.396 10.04ZM506.601 23.168C505.177 23.168 503.929 22.888 502.857 22.328C501.801 21.752 500.977 20.968 500.385 19.976C499.809 18.984 499.521 17.856 499.521 16.592C499.521 15.312 499.801 14.184 500.361 13.208C500.937 12.216 501.721 11.44 502.713 10.88C503.721 10.32 504.865 10.04 506.145 10.04C507.393 10.04 508.505 10.312 509.481 10.856C510.457 11.4 511.225 12.168 511.785 13.16C512.345 14.152 512.625 15.32 512.625 16.664C512.625 16.792 512.617 16.936 512.601 17.096C512.601 17.256 512.593 17.408 512.577 17.552H501.897V15.56H510.993L509.817 16.184C509.833 15.448 509.681 14.8 509.361 14.24C509.041 13.68 508.601 13.24 508.041 12.92C507.497 12.6 506.865 12.44 506.145 12.44C505.409 12.44 504.761 12.6 504.201 12.92C503.657 13.24 503.225 13.688 502.905 14.264C502.601 14.824 502.449 15.488 502.449 16.256V16.736C502.449 17.504 502.625 18.184 502.977 18.776C503.329 19.368 503.825 19.824 504.465 20.144C505.105 20.464 505.841 20.624 506.673 20.624C507.393 20.624 508.041 20.512 508.617 20.288C509.193 20.064 509.705 19.712 510.153 19.232L511.761 21.08C511.185 21.752 510.457 22.272 509.577 22.64C508.713 22.992 507.721 23.168 506.601 23.168ZM514.739 12.464L516.131 7.136L516.539 8.936C515.979 8.936 515.507 8.76 515.123 8.408C514.755 8.056 514.571 7.584 514.571 6.992C514.571 6.4 514.755 5.928 515.123 5.576C515.507 5.208 515.971 5.024 516.515 5.024C517.075 5.024 517.539 5.208 517.907 5.576C518.275 5.944 518.459 6.416 518.459 6.992C518.459 7.168 518.443 7.352 518.411 7.544C518.395 7.72 518.347 7.928 518.267 8.168C518.203 8.392 518.091 8.688 517.931 9.056L516.683 12.464H514.739ZM524.951 23.168C523.879 23.168 522.847 23.032 521.855 22.76C520.879 22.472 520.103 22.128 519.527 21.728L520.679 19.448C521.255 19.816 521.943 20.12 522.743 20.36C523.543 20.6 524.343 20.72 525.143 20.72C526.087 20.72 526.767 20.592 527.183 20.336C527.615 20.08 527.831 19.736 527.831 19.304C527.831 18.952 527.687 18.688 527.399 18.512C527.111 18.32 526.735 18.176 526.271 18.08C525.807 17.984 525.287 17.896 524.711 17.816C524.151 17.736 523.583 17.632 523.007 17.504C522.447 17.36 521.935 17.16 521.471 16.904C521.007 16.632 520.631 16.272 520.343 15.824C520.055 15.376 519.911 14.784 519.911 14.048C519.911 13.232 520.143 12.528 520.607 11.936C521.071 11.328 521.719 10.864 522.551 10.544C523.399 10.208 524.399 10.04 525.551 10.04C526.415 10.04 527.287 10.136 528.167 10.328C529.047 10.52 529.775 10.792 530.351 11.144L529.199 13.424C528.591 13.056 527.975 12.808 527.351 12.68C526.743 12.536 526.135 12.464 525.527 12.464C524.615 12.464 523.935 12.6 523.487 12.872C523.055 13.144 522.839 13.488 522.839 13.904C522.839 14.288 522.983 14.576 523.271 14.768C523.559 14.96 523.935 15.112 524.399 15.224C524.863 15.336 525.375 15.432 525.935 15.512C526.511 15.576 527.079 15.68 527.639 15.824C528.199 15.968 528.711 16.168 529.175 16.424C529.655 16.664 530.039 17.008 530.327 17.456C530.615 17.904 530.759 18.488 530.759 19.208C530.759 20.008 530.519 20.704 530.039 21.296C529.575 21.888 528.911 22.352 528.047 22.688C527.183 23.008 526.151 23.168 524.951 23.168ZM545.856 23.168C544.512 23.168 543.312 22.888 542.256 22.328C541.216 21.752 540.4 20.968 539.808 19.976C539.216 18.984 538.92 17.856 538.92 16.592C538.92 15.312 539.216 14.184 539.808 13.208C540.4 12.216 541.216 11.44 542.256 10.88C543.312 10.32 544.512 10.04 545.856 10.04C547.104 10.04 548.2 10.296 549.144 10.808C550.104 11.304 550.832 12.04 551.328 13.016L549.024 14.36C548.64 13.752 548.168 13.304 547.608 13.016C547.064 12.728 546.472 12.584 545.832 12.584C545.096 12.584 544.432 12.744 543.84 13.064C543.248 13.384 542.784 13.848 542.448 14.456C542.112 15.048 541.944 15.76 541.944 16.592C541.944 17.424 542.112 18.144 542.448 18.752C542.784 19.344 543.248 19.8 543.84 20.12C544.432 20.44 545.096 20.6 545.832 20.6C546.472 20.6 547.064 20.456 547.608 20.168C548.168 19.88 548.64 19.432 549.024 18.824L551.328 20.168C550.832 21.128 550.104 21.872 549.144 22.4C548.2 22.912 547.104 23.168 545.856 23.168ZM561.817 23V20.408L561.649 19.856V15.32C561.649 14.44 561.385 13.76 560.857 13.28C560.329 12.784 559.529 12.536 558.457 12.536C557.737 12.536 557.025 12.648 556.321 12.872C555.633 13.096 555.049 13.408 554.569 13.808L553.393 11.624C554.081 11.096 554.897 10.704 555.841 10.448C556.801 10.176 557.793 10.04 558.817 10.04C560.673 10.04 562.105 10.488 563.113 11.384C564.137 12.264 564.649 13.632 564.649 15.488V23H561.817ZM557.785 23.168C556.825 23.168 555.985 23.008 555.265 22.688C554.545 22.352 553.985 21.896 553.585 21.32C553.201 20.728 553.009 20.064 553.009 19.328C553.009 18.608 553.177 17.96 553.513 17.384C553.865 16.808 554.433 16.352 555.217 16.016C556.001 15.68 557.041 15.512 558.337 15.512H562.057V17.504H558.553C557.529 17.504 556.841 17.672 556.489 18.008C556.137 18.328 555.961 18.728 555.961 19.208C555.961 19.752 556.177 20.184 556.609 20.504C557.041 20.824 557.641 20.984 558.409 20.984C559.145 20.984 559.801 20.816 560.377 20.48C560.969 20.144 561.393 19.648 561.649 18.992L562.153 20.792C561.865 21.544 561.345 22.128 560.593 22.544C559.857 22.96 558.921 23.168 557.785 23.168ZM584.675 10.04C585.699 10.04 586.603 10.24 587.387 10.64C588.187 11.04 588.811 11.656 589.259 12.488C589.707 13.304 589.931 14.36 589.931 15.656V23H586.931V16.04C586.931 14.904 586.683 14.056 586.187 13.496C585.691 12.936 584.979 12.656 584.051 12.656C583.395 12.656 582.811 12.8 582.299 13.088C581.803 13.376 581.411 13.8 581.123 14.36C580.851 14.92 580.715 15.632 580.715 16.496V23H577.715V16.04C577.715 14.904 577.467 14.056 576.971 13.496C576.475 12.936 575.763 12.656 574.835 12.656C574.179 12.656 573.595 12.8 573.083 13.088C572.587 13.376 572.195 13.8 571.907 14.36C571.635 14.92 571.499 15.632 571.499 16.496V23H568.499V10.184H571.355V13.592L570.851 12.584C571.283 11.752 571.907 11.12 572.723 10.688C573.555 10.256 574.499 10.04 575.555 10.04C576.755 10.04 577.795 10.336 578.675 10.928C579.571 11.52 580.163 12.416 580.451 13.616L579.275 13.208C579.691 12.248 580.379 11.48 581.339 10.904C582.299 10.328 583.411 10.04 584.675 10.04ZM599.812 23.168C598.388 23.168 597.14 22.888 596.068 22.328C595.012 21.752 594.188 20.968 593.596 19.976C593.02 18.984 592.732 17.856 592.732 16.592C592.732 15.312 593.012 14.184 593.572 13.208C594.148 12.216 594.932 11.44 595.924 10.88C596.932 10.32 598.076 10.04 599.356 10.04C600.604 10.04 601.716 10.312 602.692 10.856C603.668 11.4 604.436 12.168 604.996 13.16C605.556 14.152 605.836 15.32 605.836 16.664C605.836 16.792 605.828 16.936 605.812 17.096C605.812 17.256 605.804 17.408 605.788 17.552H595.108V15.56H604.204L603.028 16.184C603.044 15.448 602.892 14.8 602.572 14.24C602.252 13.68 601.812 13.24 601.252 12.92C600.708 12.6 600.076 12.44 599.356 12.44C598.62 12.44 597.972 12.6 597.412 12.92C596.868 13.24 596.436 13.688 596.116 14.264C595.812 14.824 595.66 15.488 595.66 16.256V16.736C595.66 17.504 595.836 18.184 596.188 18.776C596.54 19.368 597.036 19.824 597.676 20.144C598.316 20.464 599.052 20.624 599.884 20.624C600.604 20.624 601.252 20.512 601.828 20.288C602.404 20.064 602.916 19.712 603.364 19.232L604.972 21.08C604.396 21.752 603.668 22.272 602.788 22.64C601.924 22.992 600.932 23.168 599.812 23.168ZM608.718 23V10.184H611.574V13.712L611.238 12.68C611.622 11.816 612.222 11.16 613.038 10.712C613.87 10.264 614.902 10.04 616.134 10.04V12.896C616.006 12.864 615.886 12.848 615.774 12.848C615.662 12.832 615.55 12.824 615.438 12.824C614.302 12.824 613.398 13.16 612.726 13.832C612.054 14.488 611.718 15.472 611.718 16.784V23H608.718ZM625.661 23V20.408L625.493 19.856V15.32C625.493 14.44 625.229 13.76 624.701 13.28C624.173 12.784 623.373 12.536 622.301 12.536C621.581 12.536 620.869 12.648 620.165 12.872C619.477 13.096 618.893 13.408 618.413 13.808L617.237 11.624C617.925 11.096 618.741 10.704 619.685 10.448C620.645 10.176 621.637 10.04 622.661 10.04C624.517 10.04 625.949 10.488 626.957 11.384C627.981 12.264 628.493 13.632 628.493 15.488V23H625.661ZM621.629 23.168C620.669 23.168 619.829 23.008 619.109 22.688C618.389 22.352 617.829 21.896 617.429 21.32C617.045 20.728 616.853 20.064 616.853 19.328C616.853 18.608 617.021 17.96 617.357 17.384C617.709 16.808 618.277 16.352 619.061 16.016C619.845 15.68 620.885 15.512 622.181 15.512H625.901V17.504H622.397C621.373 17.504 620.685 17.672 620.333 18.008C619.981 18.328 619.805 18.728 619.805 19.208C619.805 19.752 620.021 20.184 620.453 20.504C620.885 20.824 621.485 20.984 622.253 20.984C622.989 20.984 623.645 20.816 624.221 20.48C624.813 20.144 625.237 19.648 625.493 18.992L625.997 20.792C625.709 21.544 625.189 22.128 624.437 22.544C623.701 22.96 622.765 23.168 621.629 23.168ZM646.872 23V20.408L646.704 19.856V15.32C646.704 14.44 646.44 13.76 645.912 13.28C645.384 12.784 644.584 12.536 643.512 12.536C642.792 12.536 642.08 12.648 641.376 12.872C640.688 13.096 640.104 13.408 639.624 13.808L638.448 11.624C639.136 11.096 639.952 10.704 640.896 10.448C641.856 10.176 642.848 10.04 643.872 10.04C645.728 10.04 647.16 10.488 648.168 11.384C649.192 12.264 649.704 13.632 649.704 15.488V23H646.872ZM642.84 23.168C641.88 23.168 641.04 23.008 640.32 22.688C639.6 22.352 639.04 21.896 638.64 21.32C638.256 20.728 638.064 20.064 638.064 19.328C638.064 18.608 638.232 17.96 638.568 17.384C638.92 16.808 639.488 16.352 640.272 16.016C641.056 15.68 642.096 15.512 643.392 15.512H647.112V17.504H643.608C642.584 17.504 641.896 17.672 641.544 18.008C641.192 18.328 641.016 18.728 641.016 19.208C641.016 19.752 641.232 20.184 641.664 20.504C642.096 20.824 642.696 20.984 643.464 20.984C644.2 20.984 644.856 20.816 645.432 20.48C646.024 20.144 646.448 19.648 646.704 18.992L647.208 20.792C646.92 21.544 646.4 22.128 645.648 22.544C644.912 22.96 643.976 23.168 642.84 23.168ZM660.826 10.04C661.85 10.04 662.762 10.24 663.562 10.64C664.378 11.04 665.018 11.656 665.482 12.488C665.946 13.304 666.178 14.36 666.178 15.656V23H663.178V16.04C663.178 14.904 662.906 14.056 662.362 13.496C661.834 12.936 661.09 12.656 660.13 12.656C659.426 12.656 658.802 12.8 658.258 13.088C657.714 13.376 657.29 13.808 656.986 14.384C656.698 14.944 656.554 15.656 656.554 16.52V23H653.554V10.184H656.41V13.64L655.906 12.584C656.354 11.768 657.002 11.144 657.85 10.712C658.714 10.264 659.706 10.04 660.826 10.04ZM675.431 23.168C674.199 23.168 673.087 22.896 672.095 22.352C671.119 21.792 670.351 21.024 669.791 20.048C669.231 19.072 668.951 17.92 668.951 16.592C668.951 15.264 669.231 14.112 669.791 13.136C670.351 12.16 671.119 11.4 672.095 10.856C673.087 10.312 674.199 10.04 675.431 10.04C676.503 10.04 677.463 10.28 678.311 10.76C679.159 11.224 679.831 11.936 680.327 12.896C680.823 13.856 681.071 15.088 681.071 16.592C681.071 18.08 680.831 19.312 680.351 20.288C679.871 21.248 679.207 21.968 678.359 22.448C677.511 22.928 676.535 23.168 675.431 23.168ZM675.791 20.6C676.511 20.6 677.151 20.44 677.711 20.12C678.287 19.8 678.743 19.336 679.079 18.728C679.431 18.12 679.607 17.408 679.607 16.592C679.607 15.76 679.431 15.048 679.079 14.456C678.743 13.848 678.287 13.384 677.711 13.064C677.151 12.744 676.511 12.584 675.791 12.584C675.071 12.584 674.423 12.744 673.847 13.064C673.287 13.384 672.831 13.848 672.479 14.456C672.143 15.048 671.975 15.76 671.975 16.592C671.975 17.408 672.143 18.12 672.479 18.728C672.831 19.336 673.287 19.8 673.847 20.12C674.423 20.44 675.071 20.6 675.791 20.6ZM679.679 23V19.976L679.799 16.568L679.559 13.16V5.192H682.535V23H679.679ZM693.524 23V9.464C693.524 8.12 693.916 7.048 694.7 6.248C695.5 5.432 696.636 5.024 698.108 5.024C698.636 5.024 699.132 5.08 699.596 5.192C700.076 5.304 700.476 5.48 700.796 5.72L699.98 7.976C699.756 7.8 699.5 7.672 699.212 7.592C698.924 7.496 698.628 7.448 698.324 7.448C697.7 7.448 697.228 7.624 696.908 7.976C696.588 8.312 696.428 8.824 696.428 9.512V10.952L696.524 12.296V23H693.524ZM691.412 12.68V10.28H699.956V12.68H691.412ZM707.548 23.168C706.236 23.168 705.068 22.888 704.044 22.328C703.02 21.752 702.212 20.968 701.62 19.976C701.028 18.984 700.732 17.856 700.732 16.592C700.732 15.312 701.028 14.184 701.62 13.208C702.212 12.216 703.02 11.44 704.044 10.88C705.068 10.32 706.236 10.04 707.548 10.04C708.876 10.04 710.052 10.32 711.076 10.88C712.116 11.44 712.924 12.208 713.5 13.184C714.092 14.16 714.388 15.296 714.388 16.592C714.388 17.856 714.092 18.984 713.5 19.976C712.924 20.968 712.116 21.752 711.076 22.328C710.052 22.888 708.876 23.168 707.548 23.168ZM707.548 20.6C708.284 20.6 708.94 20.44 709.516 20.12C710.092 19.8 710.54 19.336 710.86 18.728C711.196 18.12 711.364 17.408 711.364 16.592C711.364 15.76 711.196 15.048 710.86 14.456C710.54 13.848 710.092 13.384 709.516 13.064C708.94 12.744 708.292 12.584 707.572 12.584C706.836 12.584 706.18 12.744 705.604 13.064C705.044 13.384 704.596 13.848 704.26 14.456C703.924 15.048 703.756 15.76 703.756 16.592C703.756 17.408 703.924 18.12 704.26 18.728C704.596 19.336 705.044 19.8 705.604 20.12C706.18 20.44 706.828 20.6 707.548 20.6ZM717.257 23V5.192H720.257V23H717.257ZM724.195 23V5.192H727.195V23H724.195ZM736.892 23.168C735.58 23.168 734.412 22.888 733.388 22.328C732.364 21.752 731.556 20.968 730.964 19.976C730.372 18.984 730.076 17.856 730.076 16.592C730.076 15.312 730.372 14.184 730.964 13.208C731.556 12.216 732.364 11.44 733.388 10.88C734.412 10.32 735.58 10.04 736.892 10.04C738.22 10.04 739.396 10.32 740.42 10.88C741.46 11.44 742.268 12.208 742.844 13.184C743.436 14.16 743.732 15.296 743.732 16.592C743.732 17.856 743.436 18.984 742.844 19.976C742.268 20.968 741.46 21.752 740.42 22.328C739.396 22.888 738.22 23.168 736.892 23.168ZM736.892 20.6C737.628 20.6 738.284 20.44 738.86 20.12C739.436 19.8 739.884 19.336 740.204 18.728C740.54 18.12 740.708 17.408 740.708 16.592C740.708 15.76 740.54 15.048 740.204 14.456C739.884 13.848 739.436 13.384 738.86 13.064C738.284 12.744 737.636 12.584 736.916 12.584C736.18 12.584 735.524 12.744 734.948 13.064C734.388 13.384 733.94 13.848 733.604 14.456C733.268 15.048 733.1 15.76 733.1 16.592C733.1 17.408 733.268 18.12 733.604 18.728C733.94 19.336 734.388 19.8 734.948 20.12C735.524 20.44 736.172 20.6 736.892 20.6ZM749.081 23L744.377 10.184H747.209L751.241 21.488H749.897L754.121 10.184H756.641L760.745 21.488H759.425L763.577 10.184H766.241L761.513 23H758.633L754.889 12.992H755.777L751.961 23H749.081ZM779.761 23.168C778.353 23.168 777.265 22.808 776.497 22.088C775.729 21.352 775.345 20.272 775.345 18.848V7.352H778.345V18.776C778.345 19.384 778.497 19.856 778.801 20.192C779.121 20.528 779.561 20.696 780.121 20.696C780.793 20.696 781.353 20.52 781.801 20.168L782.641 22.304C782.289 22.592 781.857 22.808 781.345 22.952C780.833 23.096 780.305 23.168 779.761 23.168ZM773.233 12.68V10.28H781.777V12.68H773.233ZM792.381 10.04C793.405 10.04 794.317 10.24 795.117 10.64C795.933 11.04 796.573 11.656 797.037 12.488C797.501 13.304 797.733 14.36 797.733 15.656V23H794.733V16.04C794.733 14.904 794.461 14.056 793.917 13.496C793.389 12.936 792.645 12.656 791.685 12.656C790.981 12.656 790.357 12.8 789.813 13.088C789.269 13.376 788.845 13.808 788.541 14.384C788.253 14.944 788.109 15.656 788.109 16.52V23H785.109V5.192H788.109V13.64L787.461 12.584C787.909 11.768 788.557 11.144 789.405 10.712C790.269 10.264 791.261 10.04 792.381 10.04ZM807.586 23.168C806.162 23.168 804.914 22.888 803.842 22.328C802.786 21.752 801.962 20.968 801.37 19.976C800.794 18.984 800.506 17.856 800.506 16.592C800.506 15.312 800.786 14.184 801.346 13.208C801.922 12.216 802.706 11.44 803.698 10.88C804.706 10.32 805.85 10.04 807.13 10.04C808.378 10.04 809.49 10.312 810.466 10.856C811.442 11.4 812.21 12.168 812.77 13.16C813.33 14.152 813.61 15.32 813.61 16.664C813.61 16.792 813.602 16.936 813.586 17.096C813.586 17.256 813.578 17.408 813.562 17.552H802.882V15.56H811.978L810.802 16.184C810.818 15.448 810.666 14.8 810.346 14.24C810.026 13.68 809.586 13.24 809.026 12.92C808.482 12.6 807.85 12.44 807.13 12.44C806.394 12.44 805.746 12.6 805.186 12.92C804.642 13.24 804.21 13.688 803.89 14.264C803.586 14.824 803.434 15.488 803.434 16.256V16.736C803.434 17.504 803.61 18.184 803.962 18.776C804.314 19.368 804.81 19.824 805.45 20.144C806.09 20.464 806.826 20.624 807.658 20.624C808.378 20.624 809.026 20.512 809.602 20.288C810.178 20.064 810.69 19.712 811.138 19.232L812.746 21.08C812.17 21.752 811.442 22.272 810.562 22.64C809.698 22.992 808.706 23.168 807.586 23.168ZM827.084 23.168C826.012 23.168 824.98 23.032 823.988 22.76C823.012 22.472 822.236 22.128 821.66 21.728L822.812 19.448C823.388 19.816 824.076 20.12 824.876 20.36C825.676 20.6 826.476 20.72 827.276 20.72C828.22 20.72 828.9 20.592 829.316 20.336C829.748 20.08 829.964 19.736 829.964 19.304C829.964 18.952 829.82 18.688 829.532 18.512C829.244 18.32 828.868 18.176 828.404 18.08C827.94 17.984 827.42 17.896 826.844 17.816C826.284 17.736 825.716 17.632 825.14 17.504C824.58 17.36 824.068 17.16 823.604 16.904C823.14 16.632 822.764 16.272 822.476 15.824C822.188 15.376 822.044 14.784 822.044 14.048C822.044 13.232 822.276 12.528 822.74 11.936C823.204 11.328 823.852 10.864 824.684 10.544C825.532 10.208 826.532 10.04 827.684 10.04C828.548 10.04 829.42 10.136 830.3 10.328C831.18 10.52 831.908 10.792 832.484 11.144L831.332 13.424C830.724 13.056 830.108 12.808 829.484 12.68C828.876 12.536 828.268 12.464 827.66 12.464C826.748 12.464 826.068 12.6 825.62 12.872C825.188 13.144 824.972 13.488 824.972 13.904C824.972 14.288 825.116 14.576 825.404 14.768C825.692 14.96 826.068 15.112 826.532 15.224C826.996 15.336 827.508 15.432 828.068 15.512C828.644 15.576 829.212 15.68 829.772 15.824C830.332 15.968 830.844 16.168 831.308 16.424C831.788 16.664 832.172 17.008 832.46 17.456C832.748 17.904 832.892 18.488 832.892 19.208C832.892 20.008 832.652 20.704 832.172 21.296C831.708 21.888 831.044 22.352 830.18 22.688C829.316 23.008 828.284 23.168 827.084 23.168ZM840.3 23.168C838.892 23.168 837.804 22.808 837.036 22.088C836.268 21.352 835.884 20.272 835.884 18.848V7.352H838.884V18.776C838.884 19.384 839.036 19.856 839.34 20.192C839.66 20.528 840.1 20.696 840.66 20.696C841.332 20.696 841.892 20.52 842.34 20.168L843.18 22.304C842.828 22.592 842.396 22.808 841.884 22.952C841.372 23.096 840.844 23.168 840.3 23.168ZM833.772 12.68V10.28H842.316V12.68H833.772ZM851.25 23.168C849.826 23.168 848.578 22.888 847.506 22.328C846.45 21.752 845.626 20.968 845.034 19.976C844.458 18.984 844.17 17.856 844.17 16.592C844.17 15.312 844.45 14.184 845.01 13.208C845.586 12.216 846.37 11.44 847.362 10.88C848.37 10.32 849.514 10.04 850.794 10.04C852.042 10.04 853.154 10.312 854.13 10.856C855.106 11.4 855.874 12.168 856.434 13.16C856.994 14.152 857.274 15.32 857.274 16.664C857.274 16.792 857.266 16.936 857.25 17.096C857.25 17.256 857.242 17.408 857.226 17.552H846.546V15.56H855.642L854.466 16.184C854.482 15.448 854.33 14.8 854.01 14.24C853.69 13.68 853.25 13.24 852.69 12.92C852.146 12.6 851.514 12.44 850.794 12.44C850.058 12.44 849.41 12.6 848.85 12.92C848.306 13.24 847.874 13.688 847.554 14.264C847.25 14.824 847.098 15.488 847.098 16.256V16.736C847.098 17.504 847.274 18.184 847.626 18.776C847.978 19.368 848.474 19.824 849.114 20.144C849.754 20.464 850.49 20.624 851.322 20.624C852.042 20.624 852.69 20.512 853.266 20.288C853.842 20.064 854.354 19.712 854.802 19.232L856.41 21.08C855.834 21.752 855.106 22.272 854.226 22.64C853.362 22.992 852.37 23.168 851.25 23.168ZM867.26 23.168C866.22 23.168 865.268 22.928 864.404 22.448C863.556 21.968 862.876 21.248 862.364 20.288C861.868 19.312 861.62 18.08 861.62 16.592C861.62 15.088 861.86 13.856 862.34 12.896C862.836 11.936 863.508 11.224 864.355 10.76C865.204 10.28 866.172 10.04 867.26 10.04C868.524 10.04 869.636 10.312 870.596 10.856C871.572 11.4 872.34 12.16 872.9 13.136C873.476 14.112 873.764 15.264 873.764 16.592C873.764 17.92 873.476 19.08 872.9 20.072C872.34 21.048 871.572 21.808 870.596 22.352C869.636 22.896 868.524 23.168 867.26 23.168ZM860.156 27.656V10.184H863.012V13.208L862.916 16.616L863.156 20.024V27.656H860.156ZM866.924 20.6C867.644 20.6 868.284 20.44 868.844 20.12C869.42 19.8 869.876 19.336 870.212 18.728C870.548 18.12 870.716 17.408 870.716 16.592C870.716 15.76 870.548 15.048 870.212 14.456C869.876 13.848 869.42 13.384 868.844 13.064C868.284 12.744 867.644 12.584 866.924 12.584C866.204 12.584 865.556 12.744 864.98 13.064C864.404 13.384 863.948 13.848 863.612 14.456C863.276 15.048 863.108 15.76 863.108 16.592C863.108 17.408 863.276 18.12 863.612 18.728C863.948 19.336 864.404 19.8 864.98 20.12C865.556 20.44 866.204 20.6 866.924 20.6ZM880.569 23.168C879.497 23.168 878.465 23.032 877.473 22.76C876.497 22.472 875.721 22.128 875.145 21.728L876.297 19.448C876.873 19.816 877.561 20.12 878.361 20.36C879.161 20.6 879.961 20.72 880.761 20.72C881.705 20.72 882.385 20.592 882.801 20.336C883.233 20.08 883.449 19.736 883.449 19.304C883.449 18.952 883.305 18.688 883.017 18.512C882.729 18.32 882.353 18.176 881.889 18.08C881.425 17.984 880.905 17.896 880.329 17.816C879.769 17.736 879.201 17.632 878.625 17.504C878.065 17.36 877.553 17.16 877.089 16.904C876.625 16.632 876.249 16.272 875.961 15.824C875.673 15.376 875.529 14.784 875.529 14.048C875.529 13.232 875.761 12.528 876.225 11.936C876.689 11.328 877.337 10.864 878.169 10.544C879.017 10.208 880.017 10.04 881.169 10.04C882.033 10.04 882.905 10.136 883.785 10.328C884.665 10.52 885.393 10.792 885.969 11.144L884.817 13.424C884.209 13.056 883.593 12.808 882.969 12.68C882.361 12.536 881.753 12.464 881.145 12.464C880.233 12.464 879.553 12.6 879.105 12.872C878.673 13.144 878.457 13.488 878.457 13.904C878.457 14.288 878.601 14.576 878.889 14.768C879.177 14.96 879.553 15.112 880.017 15.224C880.481 15.336 880.993 15.432 881.553 15.512C882.129 15.576 882.697 15.68 883.257 15.824C883.817 15.968 884.329 16.168 884.793 16.424C885.273 16.664 885.657 17.008 885.945 17.456C886.233 17.904 886.377 18.488 886.377 19.208C886.377 20.008 886.137 20.704 885.657 21.296C885.193 21.888 884.529 22.352 883.665 22.688C882.801 23.008 881.769 23.168 880.569 23.168ZM152.771 52.168C151.459 52.168 150.291 51.888 149.267 51.328C148.243 50.752 147.435 49.968 146.843 48.976C146.251 47.984 145.955 46.856 145.955 45.592C145.955 44.312 146.251 43.184 146.843 42.208C147.435 41.216 148.243 40.44 149.267 39.88C150.291 39.32 151.459 39.04 152.771 39.04C154.099 39.04 155.275 39.32 156.299 39.88C157.339 40.44 158.147 41.208 158.723 42.184C159.315 43.16 159.611 44.296 159.611 45.592C159.611 46.856 159.315 47.984 158.723 48.976C158.147 49.968 157.339 50.752 156.299 51.328C155.275 51.888 154.099 52.168 152.771 52.168ZM152.771 49.6C153.507 49.6 154.163 49.44 154.739 49.12C155.315 48.8 155.763 48.336 156.083 47.728C156.419 47.12 156.587 46.408 156.587 45.592C156.587 44.76 156.419 44.048 156.083 43.456C155.763 42.848 155.315 42.384 154.739 42.064C154.163 41.744 153.515 41.584 152.795 41.584C152.059 41.584 151.403 41.744 150.827 42.064C150.267 42.384 149.819 42.848 149.483 43.456C149.147 44.048 148.979 44.76 148.979 45.592C148.979 46.408 149.147 47.12 149.483 47.728C149.819 48.336 150.267 48.8 150.827 49.12C151.403 49.44 152.051 49.6 152.771 49.6ZM169.752 39.04C170.776 39.04 171.688 39.24 172.488 39.64C173.304 40.04 173.944 40.656 174.408 41.488C174.872 42.304 175.104 43.36 175.104 44.656V52H172.104V45.04C172.104 43.904 171.832 43.056 171.288 42.496C170.76 41.936 170.016 41.656 169.056 41.656C168.352 41.656 167.728 41.8 167.184 42.088C166.64 42.376 166.216 42.808 165.912 43.384C165.624 43.944 165.48 44.656 165.48 45.52V52H162.48V39.184H165.336V42.64L164.832 41.584C165.28 40.768 165.928 40.144 166.776 39.712C167.64 39.264 168.632 39.04 169.752 39.04ZM186.598 56.824C185.974 56.824 185.35 56.72 184.726 56.512C184.102 56.304 183.582 56.016 183.166 55.648L184.366 53.44C184.67 53.712 185.014 53.928 185.398 54.088C185.782 54.248 186.174 54.328 186.574 54.328C187.118 54.328 187.558 54.192 187.894 53.92C188.23 53.648 188.542 53.192 188.83 52.552L189.574 50.872L189.814 50.512L194.662 39.184H197.542L191.542 53.032C191.142 53.992 190.694 54.752 190.198 55.312C189.718 55.872 189.174 56.264 188.566 56.488C187.974 56.712 187.318 56.824 186.598 56.824ZM189.238 52.456L183.454 39.184H186.574L191.278 50.248L189.238 52.456ZM204.826 52.168C203.514 52.168 202.346 51.888 201.322 51.328C200.298 50.752 199.49 49.968 198.898 48.976C198.306 47.984 198.01 46.856 198.01 45.592C198.01 44.312 198.306 43.184 198.898 42.208C199.49 41.216 200.298 40.44 201.322 39.88C202.346 39.32 203.514 39.04 204.826 39.04C206.154 39.04 207.33 39.32 208.354 39.88C209.394 40.44 210.202 41.208 210.778 42.184C211.37 43.16 211.666 44.296 211.666 45.592C211.666 46.856 211.37 47.984 210.778 48.976C210.202 49.968 209.394 50.752 208.354 51.328C207.33 51.888 206.154 52.168 204.826 52.168ZM204.826 49.6C205.562 49.6 206.218 49.44 206.794 49.12C207.37 48.8 207.818 48.336 208.138 47.728C208.474 47.12 208.642 46.408 208.642 45.592C208.642 44.76 208.474 44.048 208.138 43.456C207.818 42.848 207.37 42.384 206.794 42.064C206.218 41.744 205.57 41.584 204.85 41.584C204.114 41.584 203.458 41.744 202.882 42.064C202.322 42.384 201.874 42.848 201.538 43.456C201.202 44.048 201.034 44.76 201.034 45.592C201.034 46.408 201.202 47.12 201.538 47.728C201.874 48.336 202.322 48.8 202.882 49.12C203.458 49.44 204.106 49.6 204.826 49.6ZM219.958 52.168C218.87 52.168 217.91 51.968 217.078 51.568C216.246 51.152 215.598 50.528 215.134 49.696C214.67 48.848 214.438 47.784 214.438 46.504V39.184H217.438V46.096C217.438 47.248 217.694 48.112 218.206 48.688C218.734 49.248 219.478 49.528 220.438 49.528C221.142 49.528 221.75 49.384 222.262 49.096C222.79 48.808 223.198 48.376 223.486 47.8C223.79 47.224 223.942 46.512 223.942 45.664V39.184H226.942V52H224.086V48.544L224.59 49.6C224.158 50.432 223.526 51.072 222.694 51.52C221.862 51.952 220.95 52.168 219.958 52.168ZM230.87 52V39.184H233.726V42.712L233.39 41.68C233.774 40.816 234.374 40.16 235.19 39.712C236.022 39.264 237.054 39.04 238.286 39.04V41.896C238.158 41.864 238.038 41.848 237.926 41.848C237.814 41.832 237.702 41.824 237.59 41.824C236.454 41.824 235.55 42.16 234.878 42.832C234.206 43.488 233.87 44.472 233.87 45.784V52H230.87ZM254.685 52.168C253.645 52.168 252.693 51.928 251.829 51.448C250.981 50.968 250.301 50.248 249.789 49.288C249.293 48.312 249.045 47.08 249.045 45.592C249.045 44.088 249.285 42.856 249.765 41.896C250.261 40.936 250.933 40.224 251.781 39.76C252.629 39.28 253.597 39.04 254.685 39.04C255.949 39.04 257.061 39.312 258.021 39.856C258.997 40.4 259.765 41.16 260.325 42.136C260.901 43.112 261.189 44.264 261.189 45.592C261.189 46.92 260.901 48.08 260.325 49.072C259.765 50.048 258.997 50.808 258.021 51.352C257.061 51.896 255.949 52.168 254.685 52.168ZM247.581 56.656V39.184H250.437V42.208L250.341 45.616L250.581 49.024V56.656H247.581ZM254.349 49.6C255.069 49.6 255.709 49.44 256.269 49.12C256.845 48.8 257.301 48.336 257.637 47.728C257.973 47.12 258.141 46.408 258.141 45.592C258.141 44.76 257.973 44.048 257.637 43.456C257.301 42.848 256.845 42.384 256.269 42.064C255.709 41.744 255.069 41.584 254.349 41.584C253.629 41.584 252.981 41.744 252.405 42.064C251.829 42.384 251.373 42.848 251.037 43.456C250.701 44.048 250.533 44.76 250.533 45.592C250.533 46.408 250.701 47.12 251.037 47.728C251.373 48.336 251.829 48.8 252.405 49.12C252.981 49.44 253.629 49.6 254.349 49.6ZM271.306 39.04C272.33 39.04 273.242 39.24 274.042 39.64C274.858 40.04 275.498 40.656 275.962 41.488C276.426 42.304 276.658 43.36 276.658 44.656V52H273.658V45.04C273.658 43.904 273.386 43.056 272.842 42.496C272.314 41.936 271.57 41.656 270.61 41.656C269.906 41.656 269.282 41.8 268.738 42.088C268.194 42.376 267.77 42.808 267.466 43.384C267.178 43.944 267.034 44.656 267.034 45.52V52H264.034V34.192H267.034V42.64L266.386 41.584C266.834 40.768 267.482 40.144 268.33 39.712C269.194 39.264 270.186 39.04 271.306 39.04ZM286.248 52.168C284.936 52.168 283.768 51.888 282.744 51.328C281.72 50.752 280.912 49.968 280.32 48.976C279.728 47.984 279.432 46.856 279.432 45.592C279.432 44.312 279.728 43.184 280.32 42.208C280.912 41.216 281.72 40.44 282.744 39.88C283.768 39.32 284.936 39.04 286.248 39.04C287.576 39.04 288.752 39.32 289.776 39.88C290.816 40.44 291.624 41.208 292.2 42.184C292.792 43.16 293.088 44.296 293.088 45.592C293.088 46.856 292.792 47.984 292.2 48.976C291.624 49.968 290.816 50.752 289.776 51.328C288.752 51.888 287.576 52.168 286.248 52.168ZM286.248 49.6C286.984 49.6 287.64 49.44 288.216 49.12C288.792 48.8 289.24 48.336 289.56 47.728C289.896 47.12 290.064 46.408 290.064 45.592C290.064 44.76 289.896 44.048 289.56 43.456C289.24 42.848 288.792 42.384 288.216 42.064C287.64 41.744 286.992 41.584 286.272 41.584C285.536 41.584 284.88 41.744 284.304 42.064C283.744 42.384 283.296 42.848 282.96 43.456C282.624 44.048 282.456 44.76 282.456 45.592C282.456 46.408 282.624 47.12 282.96 47.728C283.296 48.336 283.744 48.8 284.304 49.12C284.88 49.44 285.528 49.6 286.248 49.6ZM303.228 39.04C304.252 39.04 305.164 39.24 305.964 39.64C306.78 40.04 307.42 40.656 307.884 41.488C308.348 42.304 308.58 43.36 308.58 44.656V52H305.58V45.04C305.58 43.904 305.308 43.056 304.764 42.496C304.236 41.936 303.492 41.656 302.532 41.656C301.828 41.656 301.204 41.8 300.66 42.088C300.116 42.376 299.692 42.808 299.388 43.384C299.1 43.944 298.956 44.656 298.956 45.52V52H295.956V39.184H298.812V42.64L298.308 41.584C298.756 40.768 299.404 40.144 300.252 39.712C301.116 39.264 302.108 39.04 303.228 39.04ZM318.433 52.168C317.009 52.168 315.761 51.888 314.689 51.328C313.633 50.752 312.809 49.968 312.217 48.976C311.641 47.984 311.353 46.856 311.353 45.592C311.353 44.312 311.633 43.184 312.193 42.208C312.769 41.216 313.553 40.44 314.545 39.88C315.553 39.32 316.697 39.04 317.977 39.04C319.225 39.04 320.337 39.312 321.313 39.856C322.289 40.4 323.057 41.168 323.617 42.16C324.177 43.152 324.457 44.32 324.457 45.664C324.457 45.792 324.449 45.936 324.433 46.096C324.433 46.256 324.425 46.408 324.409 46.552H313.729V44.56H322.825L321.649 45.184C321.665 44.448 321.513 43.8 321.193 43.24C320.873 42.68 320.433 42.24 319.873 41.92C319.329 41.6 318.697 41.44 317.977 41.44C317.241 41.44 316.593 41.6 316.033 41.92C315.489 42.24 315.057 42.688 314.737 43.264C314.433 43.824 314.281 44.488 314.281 45.256V45.736C314.281 46.504 314.457 47.184 314.809 47.776C315.161 48.368 315.657 48.824 316.297 49.144C316.937 49.464 317.673 49.624 318.505 49.624C319.225 49.624 319.873 49.512 320.449 49.288C321.025 49.064 321.537 48.712 321.985 48.232L323.593 50.08C323.017 50.752 322.289 51.272 321.409 51.64C320.545 51.992 319.553 52.168 318.433 52.168ZM338.796 52.168C337.388 52.168 336.3 51.808 335.532 51.088C334.764 50.352 334.38 49.272 334.38 47.848V36.352H337.38V47.776C337.38 48.384 337.532 48.856 337.836 49.192C338.156 49.528 338.596 49.696 339.156 49.696C339.828 49.696 340.388 49.52 340.836 49.168L341.676 51.304C341.324 51.592 340.892 51.808 340.38 51.952C339.868 52.096 339.34 52.168 338.796 52.168ZM332.268 41.68V39.28H340.812V41.68H332.268ZM349.482 52.168C348.17 52.168 347.002 51.888 345.978 51.328C344.954 50.752 344.146 49.968 343.554 48.976C342.962 47.984 342.666 46.856 342.666 45.592C342.666 44.312 342.962 43.184 343.554 42.208C344.146 41.216 344.954 40.44 345.978 39.88C347.002 39.32 348.17 39.04 349.482 39.04C350.81 39.04 351.986 39.32 353.01 39.88C354.05 40.44 354.858 41.208 355.434 42.184C356.026 43.16 356.322 44.296 356.322 45.592C356.322 46.856 356.026 47.984 355.434 48.976C354.858 49.968 354.05 50.752 353.01 51.328C351.986 51.888 350.81 52.168 349.482 52.168ZM349.482 49.6C350.218 49.6 350.874 49.44 351.45 49.12C352.026 48.8 352.474 48.336 352.794 47.728C353.13 47.12 353.298 46.408 353.298 45.592C353.298 44.76 353.13 44.048 352.794 43.456C352.474 42.848 352.026 42.384 351.45 42.064C350.874 41.744 350.226 41.584 349.506 41.584C348.77 41.584 348.114 41.744 347.538 42.064C346.978 42.384 346.53 42.848 346.194 43.456C345.858 44.048 345.69 44.76 345.69 45.592C345.69 46.408 345.858 47.12 346.194 47.728C346.53 48.336 346.978 48.8 347.538 49.12C348.114 49.44 348.762 49.6 349.482 49.6ZM371.703 52.168C370.359 52.168 369.159 51.888 368.103 51.328C367.063 50.752 366.247 49.968 365.655 48.976C365.063 47.984 364.767 46.856 364.767 45.592C364.767 44.312 365.063 43.184 365.655 42.208C366.247 41.216 367.063 40.44 368.103 39.88C369.159 39.32 370.359 39.04 371.703 39.04C372.951 39.04 374.047 39.296 374.991 39.808C375.951 40.304 376.679 41.04 377.175 42.016L374.871 43.36C374.487 42.752 374.015 42.304 373.455 42.016C372.911 41.728 372.319 41.584 371.679 41.584C370.943 41.584 370.279 41.744 369.687 42.064C369.095 42.384 368.631 42.848 368.295 43.456C367.959 44.048 367.791 44.76 367.791 45.592C367.791 46.424 367.959 47.144 368.295 47.752C368.631 48.344 369.095 48.8 369.687 49.12C370.279 49.44 370.943 49.6 371.679 49.6C372.319 49.6 372.911 49.456 373.455 49.168C374.015 48.88 374.487 48.432 374.871 47.824L377.175 49.168C376.679 50.128 375.951 50.872 374.991 51.4C374.047 51.912 372.951 52.168 371.703 52.168ZM385.341 52.168C384.029 52.168 382.861 51.888 381.837 51.328C380.813 50.752 380.005 49.968 379.413 48.976C378.821 47.984 378.525 46.856 378.525 45.592C378.525 44.312 378.821 43.184 379.413 42.208C380.005 41.216 380.813 40.44 381.837 39.88C382.861 39.32 384.029 39.04 385.341 39.04C386.669 39.04 387.845 39.32 388.869 39.88C389.909 40.44 390.717 41.208 391.293 42.184C391.885 43.16 392.181 44.296 392.181 45.592C392.181 46.856 391.885 47.984 391.293 48.976C390.717 49.968 389.909 50.752 388.869 51.328C387.845 51.888 386.669 52.168 385.341 52.168ZM385.341 49.6C386.077 49.6 386.733 49.44 387.309 49.12C387.885 48.8 388.333 48.336 388.653 47.728C388.989 47.12 389.157 46.408 389.157 45.592C389.157 44.76 388.989 44.048 388.653 43.456C388.333 42.848 387.885 42.384 387.309 42.064C386.733 41.744 386.085 41.584 385.365 41.584C384.629 41.584 383.973 41.744 383.397 42.064C382.837 42.384 382.389 42.848 382.053 43.456C381.717 44.048 381.549 44.76 381.549 45.592C381.549 46.408 381.717 47.12 382.053 47.728C382.389 48.336 382.837 48.8 383.397 49.12C383.973 49.44 384.621 49.6 385.341 49.6ZM402.322 39.04C403.346 39.04 404.258 39.24 405.058 39.64C405.874 40.04 406.514 40.656 406.978 41.488C407.442 42.304 407.674 43.36 407.674 44.656V52H404.674V45.04C404.674 43.904 404.402 43.056 403.858 42.496C403.33 41.936 402.586 41.656 401.626 41.656C400.922 41.656 400.298 41.8 399.754 42.088C399.21 42.376 398.786 42.808 398.482 43.384C398.194 43.944 398.05 44.656 398.05 45.52V52H395.05V39.184H397.906V42.64L397.402 41.584C397.85 40.768 398.498 40.144 399.346 39.712C400.21 39.264 401.202 39.04 402.322 39.04ZM416.304 52.168C414.896 52.168 413.808 51.808 413.04 51.088C412.272 50.352 411.888 49.272 411.888 47.848V36.352H414.888V47.776C414.888 48.384 415.04 48.856 415.344 49.192C415.664 49.528 416.104 49.696 416.664 49.696C417.336 49.696 417.896 49.52 418.344 49.168L419.184 51.304C418.832 51.592 418.4 51.808 417.888 51.952C417.376 52.096 416.848 52.168 416.304 52.168ZM409.776 41.68V39.28H418.32V41.68H409.776ZM421.652 52V39.184H424.652V52H421.652ZM423.164 37.072C422.604 37.072 422.14 36.896 421.772 36.544C421.42 36.192 421.244 35.768 421.244 35.272C421.244 34.76 421.42 34.336 421.772 34C422.14 33.648 422.604 33.472 423.164 33.472C423.724 33.472 424.18 33.64 424.532 33.976C424.9 34.296 425.084 34.704 425.084 35.2C425.084 35.728 424.908 36.176 424.556 36.544C424.204 36.896 423.74 37.072 423.164 37.072ZM435.861 39.04C436.885 39.04 437.797 39.24 438.597 39.64C439.413 40.04 440.053 40.656 440.517 41.488C440.981 42.304 441.213 43.36 441.213 44.656V52H438.213V45.04C438.213 43.904 437.941 43.056 437.397 42.496C436.869 41.936 436.125 41.656 435.165 41.656C434.461 41.656 433.837 41.8 433.293 42.088C432.749 42.376 432.325 42.808 432.021 43.384C431.733 43.944 431.589 44.656 431.589 45.52V52H428.589V39.184H431.445V42.64L430.941 41.584C431.389 40.768 432.037 40.144 432.885 39.712C433.749 39.264 434.741 39.04 435.861 39.04ZM450.443 52.168C449.355 52.168 448.395 51.968 447.563 51.568C446.731 51.152 446.083 50.528 445.619 49.696C445.155 48.848 444.923 47.784 444.923 46.504V39.184H447.923V46.096C447.923 47.248 448.179 48.112 448.691 48.688C449.219 49.248 449.963 49.528 450.923 49.528C451.627 49.528 452.235 49.384 452.747 49.096C453.275 48.808 453.683 48.376 453.971 47.8C454.275 47.224 454.427 46.512 454.427 45.664V39.184H457.427V52H454.571V48.544L455.075 49.6C454.643 50.432 454.011 51.072 453.179 51.52C452.347 51.952 451.435 52.168 450.443 52.168ZM467.379 52.168C465.955 52.168 464.707 51.888 463.635 51.328C462.579 50.752 461.755 49.968 461.163 48.976C460.587 47.984 460.299 46.856 460.299 45.592C460.299 44.312 460.579 43.184 461.139 42.208C461.715 41.216 462.499 40.44 463.491 39.88C464.499 39.32 465.643 39.04 466.923 39.04C468.171 39.04 469.283 39.312 470.259 39.856C471.235 40.4 472.003 41.168 472.563 42.16C473.123 43.152 473.403 44.32 473.403 45.664C473.403 45.792 473.395 45.936 473.379 46.096C473.379 46.256 473.371 46.408 473.355 46.552H462.675V44.56H471.771L470.595 45.184C470.611 44.448 470.459 43.8 470.139 43.24C469.819 42.68 469.379 42.24 468.819 41.92C468.275 41.6 467.643 41.44 466.923 41.44C466.187 41.44 465.539 41.6 464.979 41.92C464.435 42.24 464.003 42.688 463.683 43.264C463.379 43.824 463.227 44.488 463.227 45.256V45.736C463.227 46.504 463.403 47.184 463.755 47.776C464.107 48.368 464.603 48.824 465.243 49.144C465.883 49.464 466.619 49.624 467.451 49.624C468.171 49.624 468.819 49.512 469.395 49.288C469.971 49.064 470.483 48.712 470.931 48.232L472.539 50.08C471.963 50.752 471.235 51.272 470.355 51.64C469.491 51.992 468.499 52.168 467.379 52.168ZM486.877 52.168C485.805 52.168 484.773 52.032 483.781 51.76C482.805 51.472 482.029 51.128 481.453 50.728L482.605 48.448C483.181 48.816 483.869 49.12 484.669 49.36C485.469 49.6 486.269 49.72 487.069 49.72C488.013 49.72 488.693 49.592 489.109 49.336C489.541 49.08 489.757 48.736 489.757 48.304C489.757 47.952 489.613 47.688 489.325 47.512C489.037 47.32 488.661 47.176 488.197 47.08C487.733 46.984 487.213 46.896 486.637 46.816C486.077 46.736 485.509 46.632 484.933 46.504C484.373 46.36 483.861 46.16 483.397 45.904C482.933 45.632 482.557 45.272 482.269 44.824C481.981 44.376 481.837 43.784 481.837 43.048C481.837 42.232 482.069 41.528 482.533 40.936C482.997 40.328 483.645 39.864 484.477 39.544C485.325 39.208 486.325 39.04 487.477 39.04C488.341 39.04 489.213 39.136 490.093 39.328C490.973 39.52 491.701 39.792 492.277 40.144L491.125 42.424C490.517 42.056 489.901 41.808 489.277 41.68C488.669 41.536 488.061 41.464 487.453 41.464C486.541 41.464 485.861 41.6 485.413 41.872C484.981 42.144 484.765 42.488 484.765 42.904C484.765 43.288 484.909 43.576 485.197 43.768C485.485 43.96 485.861 44.112 486.325 44.224C486.789 44.336 487.301 44.432 487.861 44.512C488.437 44.576 489.005 44.68 489.565 44.824C490.125 44.968 490.637 45.168 491.101 45.424C491.581 45.664 491.965 46.008 492.253 46.456C492.541 46.904 492.685 47.488 492.685 48.208C492.685 49.008 492.445 49.704 491.965 50.296C491.501 50.888 490.837 51.352 489.973 51.688C489.109 52.008 488.077 52.168 486.877 52.168ZM501.293 52.168C499.869 52.168 498.621 51.888 497.549 51.328C496.493 50.752 495.669 49.968 495.077 48.976C494.501 47.984 494.213 46.856 494.213 45.592C494.213 44.312 494.493 43.184 495.053 42.208C495.629 41.216 496.413 40.44 497.405 39.88C498.413 39.32 499.557 39.04 500.837 39.04C502.085 39.04 503.197 39.312 504.173 39.856C505.149 40.4 505.917 41.168 506.477 42.16C507.037 43.152 507.317 44.32 507.317 45.664C507.317 45.792 507.309 45.936 507.293 46.096C507.293 46.256 507.285 46.408 507.269 46.552H496.589V44.56H505.685L504.509 45.184C504.525 44.448 504.373 43.8 504.053 43.24C503.733 42.68 503.293 42.24 502.733 41.92C502.189 41.6 501.557 41.44 500.837 41.44C500.101 41.44 499.453 41.6 498.893 41.92C498.349 42.24 497.917 42.688 497.597 43.264C497.293 43.824 497.141 44.488 497.141 45.256V45.736C497.141 46.504 497.317 47.184 497.669 47.776C498.021 48.368 498.517 48.824 499.157 49.144C499.797 49.464 500.533 49.624 501.365 49.624C502.085 49.624 502.733 49.512 503.309 49.288C503.885 49.064 504.397 48.712 504.845 48.232L506.453 50.08C505.877 50.752 505.149 51.272 504.269 51.64C503.405 51.992 502.413 52.168 501.293 52.168ZM515.022 52.168C513.614 52.168 512.526 51.808 511.758 51.088C510.99 50.352 510.606 49.272 510.606 47.848V36.352H513.606V47.776C513.606 48.384 513.758 48.856 514.062 49.192C514.382 49.528 514.822 49.696 515.382 49.696C516.054 49.696 516.614 49.52 517.062 49.168L517.902 51.304C517.55 51.592 517.118 51.808 516.606 51.952C516.094 52.096 515.566 52.168 515.022 52.168ZM508.494 41.68V39.28H517.038V41.68H508.494ZM524.89 52.168C523.482 52.168 522.394 51.808 521.626 51.088C520.858 50.352 520.474 49.272 520.474 47.848V36.352H523.474V47.776C523.474 48.384 523.626 48.856 523.93 49.192C524.25 49.528 524.69 49.696 525.25 49.696C525.922 49.696 526.482 49.52 526.93 49.168L527.77 51.304C527.418 51.592 526.986 51.808 526.474 51.952C525.962 52.096 525.434 52.168 524.89 52.168ZM518.362 41.68V39.28H526.906V41.68H518.362ZM530.238 52V39.184H533.238V52H530.238ZM531.75 37.072C531.19 37.072 530.726 36.896 530.358 36.544C530.006 36.192 529.83 35.768 529.83 35.272C529.83 34.76 530.006 34.336 530.358 34C530.726 33.648 531.19 33.472 531.75 33.472C532.31 33.472 532.766 33.64 533.118 33.976C533.486 34.296 533.67 34.704 533.67 35.2C533.67 35.728 533.494 36.176 533.142 36.544C532.79 36.896 532.326 37.072 531.75 37.072ZM544.447 39.04C545.471 39.04 546.383 39.24 547.183 39.64C547.999 40.04 548.639 40.656 549.103 41.488C549.567 42.304 549.799 43.36 549.799 44.656V52H546.799V45.04C546.799 43.904 546.527 43.056 545.983 42.496C545.455 41.936 544.711 41.656 543.751 41.656C543.047 41.656 542.423 41.8 541.879 42.088C541.335 42.376 540.911 42.808 540.607 43.384C540.319 43.944 540.175 44.656 540.175 45.52V52H537.175V39.184H540.031V42.64L539.527 41.584C539.975 40.768 540.623 40.144 541.471 39.712C542.335 39.264 543.327 39.04 544.447 39.04ZM559.436 56.824C558.252 56.824 557.092 56.664 555.956 56.344C554.836 56.04 553.916 55.592 553.196 55L554.54 52.744C555.1 53.208 555.804 53.576 556.652 53.848C557.516 54.136 558.388 54.28 559.268 54.28C560.676 54.28 561.708 53.952 562.364 53.296C563.02 52.656 563.348 51.688 563.348 50.392V48.112L563.588 45.208L563.492 42.304V39.184H566.348V50.056C566.348 52.376 565.756 54.08 564.572 55.168C563.388 56.272 561.676 56.824 559.436 56.824ZM559.052 51.424C557.836 51.424 556.732 51.168 555.74 50.656C554.764 50.128 553.988 49.4 553.412 48.472C552.852 47.544 552.572 46.456 552.572 45.208C552.572 43.976 552.852 42.896 553.412 41.968C553.988 41.04 554.764 40.32 555.74 39.808C556.732 39.296 557.836 39.04 559.052 39.04C560.14 39.04 561.116 39.256 561.98 39.688C562.844 40.12 563.532 40.792 564.044 41.704C564.572 42.616 564.836 43.784 564.836 45.208C564.836 46.632 564.572 47.808 564.044 48.736C563.532 49.648 562.844 50.328 561.98 50.776C561.116 51.208 560.14 51.424 559.052 51.424ZM559.508 48.88C560.26 48.88 560.932 48.728 561.524 48.424C562.116 48.104 562.572 47.672 562.892 47.128C563.228 46.568 563.396 45.928 563.396 45.208C563.396 44.488 563.228 43.856 562.892 43.312C562.572 42.752 562.116 42.328 561.524 42.04C560.932 41.736 560.26 41.584 559.508 41.584C558.756 41.584 558.076 41.736 557.468 42.04C556.876 42.328 556.412 42.752 556.076 43.312C555.756 43.856 555.596 44.488 555.596 45.208C555.596 45.928 555.756 46.568 556.076 47.128C556.412 47.672 556.876 48.104 557.468 48.424C558.076 48.728 558.756 48.88 559.508 48.88ZM574.252 52.168C573.18 52.168 572.148 52.032 571.156 51.76C570.18 51.472 569.404 51.128 568.828 50.728L569.98 48.448C570.556 48.816 571.244 49.12 572.044 49.36C572.844 49.6 573.644 49.72 574.444 49.72C575.388 49.72 576.068 49.592 576.484 49.336C576.916 49.08 577.132 48.736 577.132 48.304C577.132 47.952 576.988 47.688 576.7 47.512C576.412 47.32 576.036 47.176 575.572 47.08C575.108 46.984 574.588 46.896 574.012 46.816C573.452 46.736 572.884 46.632 572.308 46.504C571.748 46.36 571.236 46.16 570.772 45.904C570.308 45.632 569.932 45.272 569.644 44.824C569.356 44.376 569.212 43.784 569.212 43.048C569.212 42.232 569.444 41.528 569.908 40.936C570.372 40.328 571.02 39.864 571.852 39.544C572.7 39.208 573.7 39.04 574.852 39.04C575.716 39.04 576.588 39.136 577.468 39.328C578.348 39.52 579.076 39.792 579.652 40.144L578.5 42.424C577.892 42.056 577.276 41.808 576.652 41.68C576.044 41.536 575.436 41.464 574.828 41.464C573.916 41.464 573.236 41.6 572.788 41.872C572.356 42.144 572.14 42.488 572.14 42.904C572.14 43.288 572.284 43.576 572.572 43.768C572.86 43.96 573.236 44.112 573.7 44.224C574.164 44.336 574.676 44.432 575.236 44.512C575.812 44.576 576.38 44.68 576.94 44.824C577.5 44.968 578.012 45.168 578.476 45.424C578.956 45.664 579.34 46.008 579.628 46.456C579.916 46.904 580.06 47.488 580.06 48.208C580.06 49.008 579.82 49.704 579.34 50.296C578.876 50.888 578.212 51.352 577.348 51.688C576.484 52.008 575.452 52.168 574.252 52.168ZM594.701 52.168C593.613 52.168 592.653 51.968 591.821 51.568C590.989 51.152 590.341 50.528 589.877 49.696C589.413 48.848 589.181 47.784 589.181 46.504V39.184H592.181V46.096C592.181 47.248 592.437 48.112 592.949 48.688C593.477 49.248 594.221 49.528 595.181 49.528C595.885 49.528 596.493 49.384 597.005 49.096C597.533 48.808 597.941 48.376 598.229 47.8C598.533 47.224 598.685 46.512 598.685 45.664V39.184H601.685V52H598.829V48.544L599.333 49.6C598.901 50.432 598.269 51.072 597.437 51.52C596.605 51.952 595.693 52.168 594.701 52.168ZM612.717 52.168C611.677 52.168 610.725 51.928 609.861 51.448C609.013 50.968 608.333 50.248 607.821 49.288C607.325 48.312 607.077 47.08 607.077 45.592C607.077 44.088 607.317 42.856 607.797 41.896C608.293 40.936 608.965 40.224 609.813 39.76C610.661 39.28 611.629 39.04 612.717 39.04C613.981 39.04 615.093 39.312 616.053 39.856C617.029 40.4 617.797 41.16 618.357 42.136C618.933 43.112 619.221 44.264 619.221 45.592C619.221 46.92 618.933 48.08 618.357 49.072C617.797 50.048 617.029 50.808 616.053 51.352C615.093 51.896 613.981 52.168 612.717 52.168ZM605.613 56.656V39.184H608.469V42.208L608.373 45.616L608.613 49.024V56.656H605.613ZM612.381 49.6C613.101 49.6 613.741 49.44 614.301 49.12C614.877 48.8 615.333 48.336 615.669 47.728C616.005 47.12 616.173 46.408 616.173 45.592C616.173 44.76 616.005 44.048 615.669 43.456C615.333 42.848 614.877 42.384 614.301 42.064C613.741 41.744 613.101 41.584 612.381 41.584C611.661 41.584 611.013 41.744 610.437 42.064C609.861 42.384 609.405 42.848 609.069 43.456C608.733 44.048 608.565 44.76 608.565 45.592C608.565 46.408 608.733 47.12 609.069 47.728C609.405 48.336 609.861 48.8 610.437 49.12C611.013 49.44 611.661 49.6 612.381 49.6ZM626.89 52.168C625.482 52.168 624.394 51.808 623.626 51.088C622.858 50.352 622.474 49.272 622.474 47.848V36.352H625.474V47.776C625.474 48.384 625.626 48.856 625.93 49.192C626.25 49.528 626.69 49.696 627.25 49.696C627.922 49.696 628.482 49.52 628.93 49.168L629.77 51.304C629.418 51.592 628.986 51.808 628.474 51.952C627.962 52.096 627.434 52.168 626.89 52.168ZM620.362 41.68V39.28H628.906V41.68H620.362ZM639.51 39.04C640.534 39.04 641.446 39.24 642.246 39.64C643.062 40.04 643.702 40.656 644.166 41.488C644.63 42.304 644.862 43.36 644.862 44.656V52H641.862V45.04C641.862 43.904 641.59 43.056 641.046 42.496C640.518 41.936 639.774 41.656 638.814 41.656C638.11 41.656 637.486 41.8 636.942 42.088C636.398 42.376 635.974 42.808 635.67 43.384C635.382 43.944 635.238 44.656 635.238 45.52V52H632.238V34.192H635.238V42.64L634.59 41.584C635.038 40.768 635.686 40.144 636.534 39.712C637.398 39.264 638.39 39.04 639.51 39.04ZM654.715 52.168C653.291 52.168 652.043 51.888 650.971 51.328C649.915 50.752 649.091 49.968 648.499 48.976C647.923 47.984 647.635 46.856 647.635 45.592C647.635 44.312 647.915 43.184 648.475 42.208C649.051 41.216 649.835 40.44 650.827 39.88C651.835 39.32 652.979 39.04 654.259 39.04C655.507 39.04 656.619 39.312 657.595 39.856C658.571 40.4 659.339 41.168 659.899 42.16C660.459 43.152 660.739 44.32 660.739 45.664C660.739 45.792 660.731 45.936 660.715 46.096C660.715 46.256 660.707 46.408 660.691 46.552H650.011V44.56H659.107L657.931 45.184C657.947 44.448 657.795 43.8 657.475 43.24C657.155 42.68 656.715 42.24 656.155 41.92C655.611 41.6 654.979 41.44 654.259 41.44C653.523 41.44 652.875 41.6 652.315 41.92C651.771 42.24 651.339 42.688 651.019 43.264C650.715 43.824 650.563 44.488 650.563 45.256V45.736C650.563 46.504 650.739 47.184 651.091 47.776C651.443 48.368 651.939 48.824 652.579 49.144C653.219 49.464 653.955 49.624 654.787 49.624C655.507 49.624 656.155 49.512 656.731 49.288C657.307 49.064 657.819 48.712 658.267 48.232L659.875 50.08C659.299 50.752 658.571 51.272 657.691 51.64C656.827 51.992 655.835 52.168 654.715 52.168ZM675.677 52.168C674.445 52.168 673.333 51.896 672.341 51.352C671.365 50.792 670.597 50.024 670.037 49.048C669.477 48.072 669.197 46.92 669.197 45.592C669.197 44.264 669.477 43.112 670.037 42.136C670.597 41.16 671.365 40.4 672.341 39.856C673.333 39.312 674.445 39.04 675.677 39.04C676.749 39.04 677.709 39.28 678.557 39.76C679.405 40.224 680.077 40.936 680.573 41.896C681.069 42.856 681.317 44.088 681.317 45.592C681.317 47.08 681.077 48.312 680.597 49.288C680.117 50.248 679.453 50.968 678.605 51.448C677.757 51.928 676.781 52.168 675.677 52.168ZM676.037 49.6C676.757 49.6 677.397 49.44 677.957 49.12C678.533 48.8 678.989 48.336 679.325 47.728C679.677 47.12 679.853 46.408 679.853 45.592C679.853 44.76 679.677 44.048 679.325 43.456C678.989 42.848 678.533 42.384 677.957 42.064C677.397 41.744 676.757 41.584 676.037 41.584C675.317 41.584 674.669 41.744 674.093 42.064C673.533 42.384 673.077 42.848 672.725 43.456C672.389 44.048 672.221 44.76 672.221 45.592C672.221 46.408 672.389 47.12 672.725 47.728C673.077 48.336 673.533 48.8 674.093 49.12C674.669 49.44 675.317 49.6 676.037 49.6ZM679.925 52V48.976L680.045 45.568L679.805 42.16V34.192H682.781V52H679.925ZM692.754 52.168C691.33 52.168 690.082 51.888 689.01 51.328C687.954 50.752 687.13 49.968 686.538 48.976C685.962 47.984 685.674 46.856 685.674 45.592C685.674 44.312 685.954 43.184 686.514 42.208C687.09 41.216 687.874 40.44 688.866 39.88C689.874 39.32 691.018 39.04 692.298 39.04C693.546 39.04 694.658 39.312 695.634 39.856C696.61 40.4 697.378 41.168 697.938 42.16C698.498 43.152 698.778 44.32 698.778 45.664C698.778 45.792 698.77 45.936 698.754 46.096C698.754 46.256 698.746 46.408 698.73 46.552H688.05V44.56H697.146L695.97 45.184C695.986 44.448 695.834 43.8 695.514 43.24C695.194 42.68 694.754 42.24 694.194 41.92C693.65 41.6 693.018 41.44 692.298 41.44C691.562 41.44 690.914 41.6 690.354 41.92C689.81 42.24 689.378 42.688 689.058 43.264C688.754 43.824 688.602 44.488 688.602 45.256V45.736C688.602 46.504 688.778 47.184 689.13 47.776C689.482 48.368 689.978 48.824 690.618 49.144C691.258 49.464 691.994 49.624 692.826 49.624C693.546 49.624 694.194 49.512 694.77 49.288C695.346 49.064 695.858 48.712 696.306 48.232L697.914 50.08C697.338 50.752 696.61 51.272 695.73 51.64C694.866 51.992 693.874 52.168 692.754 52.168ZM704.833 52L699.337 39.184H702.457L707.185 50.488H705.649L710.545 39.184H713.425L707.929 52H704.833ZM715.3 52V39.184H718.3V52H715.3ZM716.812 37.072C716.252 37.072 715.788 36.896 715.42 36.544C715.068 36.192 714.892 35.768 714.892 35.272C714.892 34.76 715.068 34.336 715.42 34C715.788 33.648 716.252 33.472 716.812 33.472C717.372 33.472 717.828 33.64 718.18 33.976C718.548 34.296 718.732 34.704 718.732 35.2C718.732 35.728 718.556 36.176 718.204 36.544C717.852 36.896 717.388 37.072 716.812 37.072ZM728.118 52.168C726.774 52.168 725.574 51.888 724.518 51.328C723.478 50.752 722.662 49.968 722.07 48.976C721.478 47.984 721.182 46.856 721.182 45.592C721.182 44.312 721.478 43.184 722.07 42.208C722.662 41.216 723.478 40.44 724.518 39.88C725.574 39.32 726.774 39.04 728.118 39.04C729.366 39.04 730.462 39.296 731.406 39.808C732.366 40.304 733.094 41.04 733.59 42.016L731.286 43.36C730.902 42.752 730.43 42.304 729.87 42.016C729.326 41.728 728.734 41.584 728.094 41.584C727.358 41.584 726.694 41.744 726.102 42.064C725.51 42.384 725.046 42.848 724.71 43.456C724.374 44.048 724.206 44.76 724.206 45.592C724.206 46.424 724.374 47.144 724.71 47.752C725.046 48.344 725.51 48.8 726.102 49.12C726.694 49.44 727.358 49.6 728.094 49.6C728.734 49.6 729.326 49.456 729.87 49.168C730.43 48.88 730.902 48.432 731.286 47.824L733.59 49.168C733.094 50.128 732.366 50.872 731.406 51.4C730.462 51.912 729.366 52.168 728.118 52.168ZM742.019 52.168C740.595 52.168 739.347 51.888 738.275 51.328C737.219 50.752 736.395 49.968 735.803 48.976C735.227 47.984 734.939 46.856 734.939 45.592C734.939 44.312 735.219 43.184 735.779 42.208C736.355 41.216 737.139 40.44 738.131 39.88C739.139 39.32 740.283 39.04 741.563 39.04C742.811 39.04 743.923 39.312 744.899 39.856C745.875 40.4 746.643 41.168 747.203 42.16C747.763 43.152 748.043 44.32 748.043 45.664C748.043 45.792 748.035 45.936 748.019 46.096C748.019 46.256 748.011 46.408 747.995 46.552H737.315V44.56H746.411L745.235 45.184C745.251 44.448 745.099 43.8 744.779 43.24C744.459 42.68 744.019 42.24 743.459 41.92C742.915 41.6 742.283 41.44 741.563 41.44C740.827 41.44 740.179 41.6 739.619 41.92C739.075 42.24 738.643 42.688 738.323 43.264C738.019 43.824 737.867 44.488 737.867 45.256V45.736C737.867 46.504 738.043 47.184 738.395 47.776C738.747 48.368 739.243 48.824 739.883 49.144C740.523 49.464 741.259 49.624 742.091 49.624C742.811 49.624 743.459 49.512 744.035 49.288C744.611 49.064 745.123 48.712 745.571 48.232L747.179 50.08C746.603 50.752 745.875 51.272 744.995 51.64C744.131 51.992 743.139 52.168 742.019 52.168Z" fill="#252D3B"/>
</svg>
