<svg width="563" height="263" viewBox="0 0 563 263" fill="none" xmlns="http://www.w3.org/2000/svg">
<path d="M476.188 240.753C476.188 252.155 485.431 261.398 496.835 261.398C508.239 261.398 517.48 252.155 517.48 240.753C517.48 229.351 508.237 220.105 496.835 220.105C485.433 220.105 476.188 229.351 476.188 240.753Z" fill="white" stroke="#252D3B" stroke-width="1.3" stroke-miterlimit="10" stroke-linecap="round"/>
<path d="M497.781 220.395V-21" stroke="#252D3B" stroke-width="1.3" stroke-miterlimit="10" stroke-linecap="round"/>
<path d="M507.014 142.133H487.848C482.606 142.133 478.359 146.382 478.359 151.621V196.535C478.359 201.777 482.608 206.023 487.848 206.023H507.014C512.256 206.023 516.502 201.775 516.502 196.535V151.621C516.502 146.382 512.254 142.133 507.014 142.133Z" fill="white" stroke="#252D3B" stroke-width="1.3" stroke-miterlimit="10" stroke-linecap="round"/>
<path d="M562.275 240.828H428.812C433.187 219.89 461.39 192.211 495.535 192.211C529.682 192.211 557.899 219.89 562.275 240.828Z" fill="#252D3B"/>
<path d="M446.348 -16.5117C446.348 -16.5117 284.155 259.765 0.648438 -10.0218L446.348 -16.5117Z" fill="white"/>
<path d="M446.348 -16.5117C446.348 -16.5117 284.155 259.765 0.648438 -10.0218" stroke="#252D3B" stroke-width="1.3" stroke-miterlimit="10" stroke-linecap="round"/>
</svg>
