<svg width="945" height="196" viewBox="0 0 945 196" fill="none" xmlns="http://www.w3.org/2000/svg">
<path d="M5.95156 78V22H21.7916V65.44H48.5116V78H5.95156ZM76.6234 78.72C71.5034 78.72 67.0234 77.76 63.1834 75.84C59.3968 73.8667 56.4368 71.2 54.3034 67.84C52.2234 64.4267 51.1834 60.56 51.1834 56.24C51.1834 51.92 52.1968 48.08 54.2234 44.72C56.3034 41.3067 59.1568 38.6667 62.7834 36.8C66.4101 34.88 70.4901 33.92 75.0234 33.92C79.2901 33.92 83.1834 34.8 86.7034 36.56C90.2234 38.2667 93.0234 40.8 95.1034 44.16C97.1834 47.52 98.2234 51.6 98.2234 56.4C98.2234 56.9333 98.1968 57.5467 98.1434 58.24C98.0901 58.9333 98.0368 59.5733 97.9834 60.16H63.6634V52.16H89.9034L84.1434 54.4C84.1968 52.4267 83.8234 50.72 83.0234 49.28C82.2768 47.84 81.2101 46.72 79.8234 45.92C78.4901 45.12 76.9168 44.72 75.1034 44.72C73.2901 44.72 71.6901 45.12 70.3034 45.92C68.9701 46.72 67.9301 47.8667 67.1834 49.36C66.4368 50.8 66.0634 52.5067 66.0634 54.48V56.8C66.0634 58.9333 66.4901 60.7733 67.3434 62.32C68.2501 63.8667 69.5301 65.0667 71.1834 65.92C72.8368 66.72 74.8101 67.12 77.1034 67.12C79.2368 67.12 81.0501 66.8267 82.5434 66.24C84.0901 65.6 85.6101 64.64 87.1034 63.36L95.1034 71.68C93.0234 73.9733 90.4634 75.7333 87.4234 76.96C84.3834 78.1333 80.7834 78.72 76.6234 78.72ZM124.592 78.72C119.045 78.72 114.725 77.36 111.632 74.64C108.538 71.8667 106.992 67.7067 106.992 62.16V24.96H122.192V62C122.192 63.5467 122.618 64.7733 123.472 65.68C124.325 66.5333 125.418 66.96 126.752 66.96C128.565 66.96 130.112 66.5067 131.392 65.6L135.152 76.24C133.872 77.0933 132.298 77.7067 130.432 78.08C128.565 78.5067 126.618 78.72 124.592 78.72ZM100.672 47.6V36.24H132.112V47.6H100.672ZM139.333 47.76L145.333 26.96L147.493 35.6C144.826 35.6 142.639 34.8267 140.933 33.28C139.226 31.68 138.373 29.5467 138.373 26.88C138.373 24.16 139.226 22 140.933 20.4C142.693 18.7467 144.879 17.92 147.493 17.92C150.106 17.92 152.266 18.7467 153.973 20.4C155.679 22 156.533 24.16 156.533 26.88C156.533 27.6267 156.479 28.4 156.373 29.2C156.266 29.9467 156.026 30.8533 155.653 31.92C155.333 32.9333 154.773 34.32 153.973 36.08L148.853 47.76H139.333ZM177.945 78.72C174.265 78.72 170.665 78.2933 167.145 77.44C163.678 76.5867 160.878 75.52 158.745 74.24L163.305 63.84C165.331 65.0667 167.705 66.0533 170.425 66.8C173.145 67.4933 175.811 67.84 178.425 67.84C180.985 67.84 182.745 67.5733 183.705 67.04C184.718 66.5067 185.225 65.7867 185.225 64.88C185.225 64.0267 184.745 63.4133 183.785 63.04C182.878 62.6133 181.651 62.2933 180.105 62.08C178.611 61.8667 176.958 61.6267 175.145 61.36C173.331 61.0933 171.491 60.7467 169.625 60.32C167.811 59.84 166.131 59.1467 164.585 58.24C163.091 57.28 161.891 56 160.985 54.4C160.078 52.8 159.625 50.7733 159.625 48.32C159.625 45.5467 160.425 43.0933 162.025 40.96C163.678 38.7733 166.078 37.0667 169.225 35.84C172.371 34.56 176.211 33.92 180.745 33.92C183.785 33.92 186.851 34.24 189.945 34.88C193.091 35.4667 195.731 36.3733 197.865 37.6L193.305 47.92C191.171 46.6933 189.038 45.8667 186.905 45.44C184.771 44.96 182.745 44.72 180.825 44.72C178.265 44.72 176.451 45.0133 175.385 45.6C174.371 46.1867 173.865 46.9067 173.865 47.76C173.865 48.6133 174.318 49.28 175.225 49.76C176.131 50.1867 177.331 50.5333 178.825 50.8C180.371 51.0133 182.051 51.2533 183.865 51.52C185.678 51.7333 187.491 52.08 189.305 52.56C191.171 53.04 192.851 53.76 194.345 54.72C195.891 55.6267 197.118 56.88 198.025 58.48C198.931 60.0267 199.385 62.0267 199.385 64.48C199.385 67.1467 198.558 69.5467 196.905 71.68C195.305 73.8133 192.905 75.52 189.705 76.8C186.558 78.08 182.638 78.72 177.945 78.72ZM244.096 65.6L243.216 47.84L267.296 22H284.736L260.736 48L251.936 57.2L244.096 65.6ZM229.936 78V22H245.616V78H229.936ZM267.536 78L249.296 54.88L259.616 43.84L285.936 78H267.536ZM310.373 78.72C305.253 78.72 300.773 77.76 296.933 75.84C293.147 73.8667 290.187 71.2 288.053 67.84C285.973 64.4267 284.933 60.56 284.933 56.24C284.933 51.92 285.947 48.08 287.973 44.72C290.053 41.3067 292.907 38.6667 296.533 36.8C300.16 34.88 304.24 33.92 308.773 33.92C313.04 33.92 316.933 34.8 320.453 36.56C323.973 38.2667 326.773 40.8 328.853 44.16C330.933 47.52 331.973 51.6 331.973 56.4C331.973 56.9333 331.947 57.5467 331.893 58.24C331.84 58.9333 331.787 59.5733 331.733 60.16H297.413V52.16H323.653L317.893 54.4C317.947 52.4267 317.573 50.72 316.773 49.28C316.027 47.84 314.96 46.72 313.573 45.92C312.24 45.12 310.667 44.72 308.853 44.72C307.04 44.72 305.44 45.12 304.053 45.92C302.72 46.72 301.68 47.8667 300.933 49.36C300.187 50.8 299.813 52.5067 299.813 54.48V56.8C299.813 58.9333 300.24 60.7733 301.093 62.32C302 63.8667 303.28 65.0667 304.933 65.92C306.587 66.72 308.56 67.12 310.853 67.12C312.987 67.12 314.8 66.8267 316.293 66.24C317.84 65.6 319.36 64.64 320.853 63.36L328.853 71.68C326.773 73.9733 324.213 75.7333 321.173 76.96C318.133 78.1333 314.533 78.72 310.373 78.72ZM361.702 78.72C356.582 78.72 352.102 77.76 348.262 75.84C344.475 73.8667 341.515 71.2 339.382 67.84C337.302 64.4267 336.262 60.56 336.262 56.24C336.262 51.92 337.275 48.08 339.302 44.72C341.382 41.3067 344.235 38.6667 347.862 36.8C351.488 34.88 355.568 33.92 360.102 33.92C364.368 33.92 368.262 34.8 371.782 36.56C375.302 38.2667 378.102 40.8 380.182 44.16C382.262 47.52 383.302 51.6 383.302 56.4C383.302 56.9333 383.275 57.5467 383.222 58.24C383.168 58.9333 383.115 59.5733 383.062 60.16H348.742V52.16H374.982L369.222 54.4C369.275 52.4267 368.902 50.72 368.102 49.28C367.355 47.84 366.288 46.72 364.902 45.92C363.568 45.12 361.995 44.72 360.182 44.72C358.368 44.72 356.768 45.12 355.382 45.92C354.048 46.72 353.008 47.8667 352.262 49.36C351.515 50.8 351.142 52.5067 351.142 54.48V56.8C351.142 58.9333 351.568 60.7733 352.422 62.32C353.328 63.8667 354.608 65.0667 356.262 65.92C357.915 66.72 359.888 67.12 362.182 67.12C364.315 67.12 366.128 66.8267 367.622 66.24C369.168 65.6 370.688 64.64 372.182 63.36L380.182 71.68C378.102 73.9733 375.542 75.7333 372.502 76.96C369.462 78.1333 365.862 78.72 361.702 78.72ZM417.59 78.72C413.91 78.72 410.763 77.92 408.15 76.32C405.536 74.6667 403.536 72.2133 402.15 68.96C400.816 65.6533 400.15 61.44 400.15 56.32C400.15 51.1467 400.79 46.9333 402.07 43.68C403.35 40.3733 405.27 37.92 407.83 36.32C410.443 34.72 413.696 33.92 417.59 33.92C421.536 33.92 425.11 34.8533 428.31 36.72C431.563 38.5333 434.123 41.12 435.99 44.48C437.91 47.7867 438.87 51.7333 438.87 56.32C438.87 60.9067 437.91 64.88 435.99 68.24C434.123 71.6 431.563 74.1867 428.31 76C425.11 77.8133 421.536 78.72 417.59 78.72ZM390.31 93.52V34.64H404.79V42L404.71 56.32L405.51 70.72V93.52H390.31ZM414.39 66.64C416.096 66.64 417.616 66.24 418.95 65.44C420.336 64.64 421.43 63.4667 422.23 61.92C423.083 60.3733 423.51 58.5067 423.51 56.32C423.51 54.1333 423.083 52.2667 422.23 50.72C421.43 49.1733 420.336 48 418.95 47.2C417.616 46.4 416.096 46 414.39 46C412.683 46 411.136 46.4 409.75 47.2C408.416 48 407.323 49.1733 406.47 50.72C405.67 52.2667 405.27 54.1333 405.27 56.32C405.27 58.5067 405.67 60.3733 406.47 61.92C407.323 63.4667 408.416 64.64 409.75 65.44C411.136 66.24 412.683 66.64 414.39 66.64ZM488.576 78.72C483.029 78.72 478.709 77.36 475.616 74.64C472.523 71.8667 470.976 67.7067 470.976 62.16V24.96H486.176V62C486.176 63.5467 486.603 64.7733 487.456 65.68C488.309 66.5333 489.403 66.96 490.736 66.96C492.549 66.96 494.096 66.5067 495.376 65.6L499.136 76.24C497.856 77.0933 496.283 77.7067 494.416 78.08C492.549 78.5067 490.603 78.72 488.576 78.72ZM464.656 47.6V36.24H496.096V47.6H464.656ZM533.237 33.92C536.597 33.92 539.637 34.6133 542.357 36C545.077 37.3333 547.211 39.4133 548.757 42.24C550.357 45.0667 551.157 48.72 551.157 53.2V78H535.957V55.68C535.957 52.5867 535.317 50.3467 534.037 48.96C532.811 47.52 531.077 46.8 528.837 46.8C527.237 46.8 525.771 47.1733 524.437 47.92C523.104 48.6133 522.064 49.7067 521.317 51.2C520.571 52.6933 520.197 54.64 520.197 57.04V78H504.997V18.64H520.197V46.96L516.677 43.36C518.331 40.2133 520.597 37.8667 523.477 36.32C526.357 34.72 529.611 33.92 533.237 33.92ZM583.967 78.72C578.847 78.72 574.367 77.76 570.527 75.84C566.741 73.8667 563.781 71.2 561.647 67.84C559.567 64.4267 558.527 60.56 558.527 56.24C558.527 51.92 559.541 48.08 561.567 44.72C563.647 41.3067 566.501 38.6667 570.127 36.8C573.754 34.88 577.834 33.92 582.367 33.92C586.634 33.92 590.527 34.8 594.047 36.56C597.567 38.2667 600.367 40.8 602.447 44.16C604.527 47.52 605.567 51.6 605.567 56.4C605.567 56.9333 605.541 57.5467 605.487 58.24C605.434 58.9333 605.381 59.5733 605.327 60.16H571.007V52.16H597.247L591.487 54.4C591.541 52.4267 591.167 50.72 590.367 49.28C589.621 47.84 588.554 46.72 587.167 45.92C585.834 45.12 584.261 44.72 582.447 44.72C580.634 44.72 579.034 45.12 577.647 45.92C576.314 46.72 575.274 47.8667 574.527 49.36C573.781 50.8 573.407 52.5067 573.407 54.48V56.8C573.407 58.9333 573.834 60.7733 574.687 62.32C575.594 63.8667 576.874 65.0667 578.527 65.92C580.181 66.72 582.154 67.12 584.447 67.12C586.581 67.12 588.394 66.8267 589.887 66.24C591.434 65.6 592.954 64.64 594.447 63.36L602.447 71.68C600.367 73.9733 597.807 75.7333 594.767 76.96C591.727 78.1333 588.127 78.72 583.967 78.72ZM636.577 78V22H663.057C669.243 22 674.683 23.1467 679.377 25.44C684.07 27.7333 687.723 30.96 690.337 35.12C693.003 39.28 694.337 44.24 694.337 50C694.337 55.7067 693.003 60.6667 690.337 64.88C687.723 69.04 684.07 72.2667 679.377 74.56C674.683 76.8533 669.243 78 663.057 78H636.577ZM652.417 65.36H662.417C665.617 65.36 668.39 64.7733 670.737 63.6C673.137 62.3733 675.003 60.6133 676.337 58.32C677.67 55.9733 678.337 53.2 678.337 50C678.337 46.7467 677.67 43.9733 676.337 41.68C675.003 39.3867 673.137 37.6533 670.737 36.48C668.39 35.2533 665.617 34.64 662.417 34.64H652.417V65.36ZM724.67 78.72C719.55 78.72 715.07 77.76 711.23 75.84C707.444 73.8667 704.484 71.2 702.35 67.84C700.27 64.4267 699.23 60.56 699.23 56.24C699.23 51.92 700.244 48.08 702.27 44.72C704.35 41.3067 707.204 38.6667 710.83 36.8C714.457 34.88 718.537 33.92 723.07 33.92C727.337 33.92 731.23 34.8 734.75 36.56C738.27 38.2667 741.07 40.8 743.15 44.16C745.23 47.52 746.27 51.6 746.27 56.4C746.27 56.9333 746.244 57.5467 746.19 58.24C746.137 58.9333 746.084 59.5733 746.03 60.16H711.71V52.16H737.95L732.19 54.4C732.244 52.4267 731.87 50.72 731.07 49.28C730.324 47.84 729.257 46.72 727.87 45.92C726.537 45.12 724.964 44.72 723.15 44.72C721.337 44.72 719.737 45.12 718.35 45.92C717.017 46.72 715.977 47.8667 715.23 49.36C714.484 50.8 714.11 52.5067 714.11 54.48V56.8C714.11 58.9333 714.537 60.7733 715.39 62.32C716.297 63.8667 717.577 65.0667 719.23 65.92C720.884 66.72 722.857 67.12 725.15 67.12C727.284 67.12 729.097 66.8267 730.59 66.24C732.137 65.6 733.657 64.64 735.15 63.36L743.15 71.68C741.07 73.9733 738.51 75.7333 735.47 76.96C732.43 78.1333 728.83 78.72 724.67 78.72ZM764.577 78L746.737 34.64H762.337L776.577 70.88H768.737L783.697 34.64H798.177L780.257 78H764.577ZM802.107 78V34.64H817.307V78H802.107ZM809.707 29.84C806.933 29.84 804.693 29.0667 802.987 27.52C801.28 25.9733 800.427 24.0533 800.427 21.76C800.427 19.4667 801.28 17.5467 802.987 16C804.693 14.4533 806.933 13.68 809.707 13.68C812.48 13.68 814.72 14.4267 816.427 15.92C818.133 17.36 818.987 19.2267 818.987 21.52C818.987 23.92 818.133 25.92 816.427 27.52C814.773 29.0667 812.533 29.84 809.707 29.84ZM849.345 78.72C844.545 78.72 840.251 77.76 836.465 75.84C832.731 73.92 829.798 71.28 827.665 67.92C825.531 64.5067 824.465 60.6133 824.465 56.24C824.465 51.8667 825.531 48 827.665 44.64C829.798 41.28 832.731 38.6667 836.465 36.8C840.251 34.88 844.545 33.92 849.345 33.92C854.251 33.92 858.491 34.96 862.065 37.04C865.638 39.12 868.171 42.0533 869.665 45.84L857.905 51.84C856.891 49.8133 855.638 48.3467 854.145 47.44C852.651 46.48 851.025 46 849.265 46C847.505 46 845.905 46.4 844.465 47.2C843.025 48 841.878 49.1733 841.025 50.72C840.225 52.2133 839.825 54.0533 839.825 56.24C839.825 58.48 840.225 60.3733 841.025 61.92C841.878 63.4667 843.025 64.64 844.465 65.44C845.905 66.24 847.505 66.64 849.265 66.64C851.025 66.64 852.651 66.1867 854.145 65.28C855.638 64.32 856.891 62.8267 857.905 60.8L869.665 66.8C868.171 70.5867 865.638 73.52 862.065 75.6C858.491 77.68 854.251 78.72 849.345 78.72ZM897.639 78.72C892.519 78.72 888.039 77.76 884.199 75.84C880.412 73.8667 877.452 71.2 875.319 67.84C873.239 64.4267 872.199 60.56 872.199 56.24C872.199 51.92 873.212 48.08 875.239 44.72C877.319 41.3067 880.172 38.6667 883.799 36.8C887.426 34.88 891.506 33.92 896.039 33.92C900.306 33.92 904.199 34.8 907.719 36.56C911.239 38.2667 914.039 40.8 916.119 44.16C918.199 47.52 919.239 51.6 919.239 56.4C919.239 56.9333 919.212 57.5467 919.159 58.24C919.106 58.9333 919.052 59.5733 918.999 60.16H884.679V52.16H910.919L905.159 54.4C905.212 52.4267 904.839 50.72 904.039 49.28C903.292 47.84 902.226 46.72 900.839 45.92C899.506 45.12 897.932 44.72 896.119 44.72C894.306 44.72 892.706 45.12 891.319 45.92C889.986 46.72 888.946 47.8667 888.199 49.36C887.452 50.8 887.079 52.5067 887.079 54.48V56.8C887.079 58.9333 887.506 60.7733 888.359 62.32C889.266 63.8667 890.546 65.0667 892.199 65.92C893.852 66.72 895.826 67.12 898.119 67.12C900.252 67.12 902.066 66.8267 903.559 66.24C905.106 65.6 906.626 64.64 908.119 63.36L916.119 71.68C914.039 73.9733 911.479 75.7333 908.439 76.96C905.399 78.1333 901.799 78.72 897.639 78.72ZM113.708 176V132.64H128.908V176H113.708ZM121.308 127.84C118.535 127.84 116.295 127.067 114.588 125.52C112.881 123.973 112.028 122.053 112.028 119.76C112.028 117.467 112.881 115.547 114.588 114C116.295 112.453 118.535 111.68 121.308 111.68C124.081 111.68 126.321 112.427 128.028 113.92C129.735 115.36 130.588 117.227 130.588 119.52C130.588 121.92 129.735 123.92 128.028 125.52C126.375 127.067 124.135 127.84 121.308 127.84ZM167.026 131.92C170.386 131.92 173.426 132.613 176.146 134C178.866 135.333 181 137.413 182.546 140.24C184.146 143.067 184.946 146.72 184.946 151.2V176H169.746V153.68C169.746 150.587 169.106 148.347 167.826 146.96C166.6 145.52 164.866 144.8 162.626 144.8C161.026 144.8 159.56 145.173 158.226 145.92C156.893 146.613 155.853 147.707 155.106 149.2C154.36 150.693 153.986 152.64 153.986 155.04V176H138.786V132.64H153.266V144.96L150.466 141.36C152.12 138.213 154.386 135.867 157.266 134.32C160.146 132.72 163.4 131.92 167.026 131.92ZM237.131 176.72C231.584 176.72 227.264 175.36 224.171 172.64C221.077 169.867 219.531 165.707 219.531 160.16V122.96H234.731V160C234.731 161.547 235.157 162.773 236.011 163.68C236.864 164.533 237.957 164.96 239.291 164.96C241.104 164.96 242.651 164.507 243.931 163.6L247.691 174.24C246.411 175.093 244.837 175.707 242.971 176.08C241.104 176.507 239.157 176.72 237.131 176.72ZM213.211 145.6V134.24H244.651V145.6H213.211ZM281.792 131.92C285.152 131.92 288.192 132.613 290.912 134C293.632 135.333 295.765 137.413 297.312 140.24C298.912 143.067 299.712 146.72 299.712 151.2V176H284.512V153.68C284.512 150.587 283.872 148.347 282.592 146.96C281.365 145.52 279.632 144.8 277.392 144.8C275.792 144.8 274.325 145.173 272.992 145.92C271.659 146.613 270.619 147.707 269.872 149.2C269.125 150.693 268.752 152.64 268.752 155.04V176H253.552V116.64H268.752V144.96L265.232 141.36C266.885 138.213 269.152 135.867 272.032 134.32C274.912 132.72 278.165 131.92 281.792 131.92ZM332.522 176.72C327.402 176.72 322.922 175.76 319.082 173.84C315.295 171.867 312.335 169.2 310.202 165.84C308.122 162.427 307.082 158.56 307.082 154.24C307.082 149.92 308.095 146.08 310.122 142.72C312.202 139.307 315.055 136.667 318.682 134.8C322.309 132.88 326.389 131.92 330.922 131.92C335.189 131.92 339.082 132.8 342.602 134.56C346.122 136.267 348.922 138.8 351.002 142.16C353.082 145.52 354.122 149.6 354.122 154.4C354.122 154.933 354.095 155.547 354.042 156.24C353.989 156.933 353.935 157.573 353.882 158.16H319.562V150.16H345.802L340.042 152.4C340.095 150.427 339.722 148.72 338.922 147.28C338.175 145.84 337.109 144.72 335.722 143.92C334.389 143.12 332.815 142.72 331.002 142.72C329.189 142.72 327.589 143.12 326.202 143.92C324.869 144.72 323.829 145.867 323.082 147.36C322.335 148.8 321.962 150.507 321.962 152.48V154.8C321.962 156.933 322.389 158.773 323.242 160.32C324.149 161.867 325.429 163.067 327.082 163.92C328.735 164.72 330.709 165.12 333.002 165.12C335.135 165.12 336.949 164.827 338.442 164.24C339.989 163.6 341.509 162.64 343.002 161.36L351.002 169.68C348.922 171.973 346.362 173.733 343.322 174.96C340.282 176.133 336.682 176.72 332.522 176.72ZM384.411 176V132.64H398.891V145.28L396.731 141.68C398.011 138.427 400.091 136 402.971 134.4C405.851 132.747 409.345 131.92 413.451 131.92V145.6C412.758 145.493 412.145 145.44 411.611 145.44C411.131 145.387 410.598 145.36 410.011 145.36C406.918 145.36 404.411 146.213 402.491 147.92C400.571 149.573 399.611 152.293 399.611 156.08V176H384.411ZM419.724 176V132.64H434.924V176H419.724ZM427.324 127.84C424.55 127.84 422.31 127.067 420.604 125.52C418.897 123.973 418.044 122.053 418.044 119.76C418.044 117.467 418.897 115.547 420.604 114C422.31 112.453 424.55 111.68 427.324 111.68C430.097 111.68 432.337 112.427 434.044 113.92C435.75 115.36 436.604 117.227 436.604 119.52C436.604 121.92 435.75 123.92 434.044 125.52C432.39 127.067 430.15 127.84 427.324 127.84ZM466.002 192.24C461.842 192.24 457.869 191.76 454.082 190.8C450.349 189.84 447.149 188.427 444.482 186.56L450.002 175.92C451.815 177.36 454.055 178.48 456.722 179.28C459.442 180.133 462.082 180.56 464.642 180.56C468.749 180.56 471.709 179.653 473.522 177.84C475.335 176.08 476.242 173.493 476.242 170.08V164.96L477.042 152.8L476.962 140.56V132.64H491.442V168.08C491.442 176.293 489.229 182.373 484.802 186.32C480.375 190.267 474.109 192.24 466.002 192.24ZM463.362 173.76C459.522 173.76 455.975 172.907 452.722 171.2C449.522 169.44 446.935 167.013 444.962 163.92C443.042 160.773 442.082 157.067 442.082 152.8C442.082 148.533 443.042 144.853 444.962 141.76C446.935 138.613 449.522 136.187 452.722 134.48C455.975 132.773 459.522 131.92 463.362 131.92C467.042 131.92 470.189 132.667 472.802 134.16C475.415 135.6 477.389 137.867 478.722 140.96C480.109 144.053 480.802 148 480.802 152.8C480.802 157.6 480.109 161.547 478.722 164.64C477.389 167.733 475.415 170.027 472.802 171.52C470.189 173.013 467.042 173.76 463.362 173.76ZM466.962 161.68C468.775 161.68 470.375 161.307 471.762 160.56C473.202 159.813 474.322 158.773 475.122 157.44C475.975 156.107 476.402 154.56 476.402 152.8C476.402 151.04 475.975 149.493 475.122 148.16C474.322 146.827 473.202 145.813 471.762 145.12C470.375 144.373 468.775 144 466.962 144C465.149 144 463.522 144.373 462.082 145.12C460.642 145.813 459.495 146.827 458.642 148.16C457.842 149.493 457.442 151.04 457.442 152.8C457.442 154.56 457.842 156.107 458.642 157.44C459.495 158.773 460.642 159.813 462.082 160.56C463.522 161.307 465.149 161.68 466.962 161.68ZM529.448 131.92C532.808 131.92 535.848 132.613 538.568 134C541.288 135.333 543.421 137.413 544.968 140.24C546.568 143.067 547.368 146.72 547.368 151.2V176H532.168V153.68C532.168 150.587 531.528 148.347 530.248 146.96C529.021 145.52 527.288 144.8 525.048 144.8C523.448 144.8 521.981 145.173 520.648 145.92C519.315 146.613 518.275 147.707 517.528 149.2C516.781 150.693 516.408 152.64 516.408 155.04V176H501.208V116.64H516.408V144.96L512.888 141.36C514.541 138.213 516.808 135.867 519.688 134.32C522.568 132.72 525.821 131.92 529.448 131.92ZM576.271 176.72C570.725 176.72 566.405 175.36 563.311 172.64C560.218 169.867 558.671 165.707 558.671 160.16V122.96H573.871V160C573.871 161.547 574.298 162.773 575.151 163.68C576.005 164.533 577.098 164.96 578.431 164.96C580.245 164.96 581.791 164.507 583.071 163.6L586.831 174.24C585.551 175.093 583.978 175.707 582.111 176.08C580.245 176.507 578.298 176.72 576.271 176.72ZM552.351 145.6V134.24H583.791V145.6H552.351ZM631.734 176.72C628.054 176.72 624.454 176.293 620.934 175.44C617.467 174.587 614.667 173.52 612.534 172.24L617.094 161.84C619.12 163.067 621.494 164.053 624.214 164.8C626.934 165.493 629.6 165.84 632.214 165.84C634.774 165.84 636.534 165.573 637.494 165.04C638.507 164.507 639.014 163.787 639.014 162.88C639.014 162.027 638.534 161.413 637.574 161.04C636.667 160.613 635.44 160.293 633.894 160.08C632.4 159.867 630.747 159.627 628.934 159.36C627.12 159.093 625.28 158.747 623.414 158.32C621.6 157.84 619.92 157.147 618.374 156.24C616.88 155.28 615.68 154 614.774 152.4C613.867 150.8 613.414 148.773 613.414 146.32C613.414 143.547 614.214 141.093 615.814 138.96C617.467 136.773 619.867 135.067 623.014 133.84C626.16 132.56 630 131.92 634.534 131.92C637.574 131.92 640.64 132.24 643.734 132.88C646.88 133.467 649.52 134.373 651.654 135.6L647.094 145.92C644.96 144.693 642.827 143.867 640.694 143.44C638.56 142.96 636.534 142.72 634.614 142.72C632.054 142.72 630.24 143.013 629.174 143.6C628.16 144.187 627.654 144.907 627.654 145.76C627.654 146.613 628.107 147.28 629.014 147.76C629.92 148.187 631.12 148.533 632.614 148.8C634.16 149.013 635.84 149.253 637.654 149.52C639.467 149.733 641.28 150.08 643.094 150.56C644.96 151.04 646.64 151.76 648.134 152.72C649.68 153.627 650.907 154.88 651.814 156.48C652.72 158.027 653.174 160.027 653.174 162.48C653.174 165.147 652.347 167.547 650.694 169.68C649.094 171.813 646.694 173.52 643.494 174.8C640.347 176.08 636.427 176.72 631.734 176.72ZM687.004 176.72C683.324 176.72 680.177 175.92 677.564 174.32C674.95 172.667 672.95 170.213 671.564 166.96C670.23 163.653 669.564 159.44 669.564 154.32C669.564 149.147 670.204 144.933 671.484 141.68C672.764 138.373 674.684 135.92 677.244 134.32C679.857 132.72 683.11 131.92 687.004 131.92C690.95 131.92 694.524 132.853 697.724 134.72C700.977 136.533 703.537 139.12 705.404 142.48C707.324 145.787 708.284 149.733 708.284 154.32C708.284 158.907 707.324 162.88 705.404 166.24C703.537 169.6 700.977 172.187 697.724 174C694.524 175.813 690.95 176.72 687.004 176.72ZM659.724 191.52V132.64H674.204V140L674.124 154.32L674.924 168.72V191.52H659.724ZM683.804 164.64C685.51 164.64 687.03 164.24 688.364 163.44C689.75 162.64 690.844 161.467 691.644 159.92C692.497 158.373 692.924 156.507 692.924 154.32C692.924 152.133 692.497 150.267 691.644 148.72C690.844 147.173 689.75 146 688.364 145.2C687.03 144.4 685.51 144 683.804 144C682.097 144 680.55 144.4 679.164 145.2C677.83 146 676.737 147.173 675.884 148.72C675.084 150.267 674.684 152.133 674.684 154.32C674.684 156.507 675.084 158.373 675.884 159.92C676.737 161.467 677.83 162.64 679.164 163.44C680.55 164.24 682.097 164.64 683.804 164.64ZM737.109 176.72C732.362 176.72 728.149 175.76 724.469 173.84C720.789 171.92 717.882 169.28 715.749 165.92C713.669 162.507 712.629 158.613 712.629 154.24C712.629 149.867 713.669 146 715.749 142.64C717.882 139.28 720.789 136.667 724.469 134.8C728.149 132.88 732.362 131.92 737.109 131.92C741.855 131.92 746.069 132.88 749.749 134.8C753.482 136.667 756.389 139.28 758.469 142.64C760.549 146 761.589 149.867 761.589 154.24C761.589 158.613 760.549 162.507 758.469 165.92C756.389 169.28 753.482 171.92 749.749 173.84C746.069 175.76 741.855 176.72 737.109 176.72ZM737.109 164.64C738.869 164.64 740.415 164.24 741.749 163.44C743.135 162.64 744.229 161.467 745.029 159.92C745.829 158.32 746.229 156.427 746.229 154.24C746.229 152.053 745.829 150.213 745.029 148.72C744.229 147.173 743.135 146 741.749 145.2C740.415 144.4 738.869 144 737.109 144C735.402 144 733.855 144.4 732.469 145.2C731.135 146 730.042 147.173 729.189 148.72C728.389 150.213 727.989 152.053 727.989 154.24C727.989 156.427 728.389 158.32 729.189 159.92C730.042 161.467 731.135 162.64 732.469 163.44C733.855 164.24 735.402 164.64 737.109 164.64ZM768.63 176V132.64H783.11V145.28L780.95 141.68C782.23 138.427 784.31 136 787.19 134.4C790.07 132.747 793.563 131.92 797.67 131.92V145.6C796.977 145.493 796.363 145.44 795.83 145.44C795.35 145.387 794.817 145.36 794.23 145.36C791.137 145.36 788.63 146.213 786.71 147.92C784.79 149.573 783.83 152.293 783.83 156.08V176H768.63ZM824.631 176.72C819.084 176.72 814.764 175.36 811.671 172.64C808.577 169.867 807.031 165.707 807.031 160.16V122.96H822.231V160C822.231 161.547 822.657 162.773 823.511 163.68C824.364 164.533 825.457 164.96 826.791 164.96C828.604 164.96 830.151 164.507 831.431 163.6L835.191 174.24C833.911 175.093 832.337 175.707 830.471 176.08C828.604 176.507 826.657 176.72 824.631 176.72ZM800.711 145.6V134.24H832.151V145.6H800.711Z" fill="black"/>
</svg>
