<svg width="655" height="297" viewBox="0 0 655 297" fill="none" xmlns="http://www.w3.org/2000/svg">
<path d="M58.8977 295.556H50.7031V230.43H66.5354L58.8977 295.556Z" fill="#252D3B"/>
<path d="M15.9327 115.298L1.64573 61.375C-6.51646 30.5692 16.7105 0.386719 48.579 0.386719H504.41C537.587 0.386719 560.599 33.4602 549.067 64.5688L525.221 128.892V196.161H25.1072C25.1072 196.161 23.2046 171.427 22.1343 153.867C21.3404 140.838 19.2757 127.917 15.9327 115.298Z" fill="#F4E3FF"/>
<path d="M547.108 235.099H34.6184C28.8662 235.099 24.2031 230.436 24.2031 224.683V189.77H547.108V235.099Z" fill="#F4E3FF"/>
<path d="M600.809 296.4H608.282V231.273H593.844L600.809 296.4Z" fill="#252D3B"/>
<path d="M640.372 114.911L653.401 60.9883C660.844 30.1824 639.663 0 610.6 0H194.909C164.654 0 143.668 33.0734 154.184 64.182L175.929 128.505V195.774H632.005C632.005 195.774 633.741 171.04 634.717 153.48C635.44 140.451 637.322 127.529 640.372 114.911Z" fill="#F4E3FF"/>
<path d="M155.594 235.939H622.507C628 235.939 632.453 231.486 632.453 225.993V190.609H155.594V235.939Z" fill="#F4E3FF"/>
<path d="M565.516 91.8531C565.516 91.8531 598.534 71.6067 603.743 36.75" stroke="#252D3B" stroke-width="1.3" stroke-miterlimit="10" stroke-linecap="round"/>
<path d="M82.92 89.6672C82.92 89.6672 51.669 68.8332 46.4609 33.9766" stroke="#252D3B" stroke-width="1.3" stroke-miterlimit="10" stroke-linecap="round"/>
<path d="M445.789 111.116C445.789 111.116 451.218 108.57 469.387 106.527C498.06 103.304 525.298 127.361 518.222 149.135C511.037 171.245 490.363 167.161 478.892 158.64C478.892 158.64 458.571 152.085 443.167 157.329C427.763 162.573 414.027 169.237 413.297 162.083C412.933 158.514 424.158 154.38 424.158 154.38C424.158 154.38 408.754 160.935 395.316 155.363C395.316 155.363 374.34 164.54 371.39 159.952C368.44 155.363 383.189 149.464 383.189 149.464C383.189 149.464 376.634 132.749 385.156 122.588C385.156 122.588 381.223 105.873 384.5 105.545C387.777 105.217 395.971 112.1 395.971 112.1C395.971 112.1 412.686 105.873 429.73 109.806C429.73 109.806 434.319 97.6785 438.251 98.0065C442.184 98.3325 445.789 111.116 445.789 111.116Z" fill="white" stroke="#252D3B" stroke-width="1.3" stroke-miterlimit="10" stroke-linecap="round"/>
<path d="M392.648 135.895C392.648 135.895 393.842 141.355 396.913 141.184C399.984 141.013 399.814 135.895 399.814 135.895" fill="white"/>
<path d="M392.648 135.895C392.648 135.895 393.842 141.355 396.913 141.184C399.984 141.013 399.814 135.895 399.814 135.895" stroke="#252D3B" stroke-width="1.3" stroke-miterlimit="10" stroke-linecap="round"/>
<path d="M417.044 134.531C417.044 134.531 415.167 139.82 419.433 139.65C423.699 139.48 425.063 133.508 425.063 133.508" fill="white"/>
<path d="M417.044 134.531C417.044 134.531 415.167 139.82 419.433 139.65C423.699 139.48 425.063 133.508 425.063 133.508" stroke="#252D3B" stroke-width="1.3" stroke-miterlimit="10" stroke-linecap="round"/>
<path d="M383.094 148.348C383.094 148.348 386.213 153.159 395.317 155.36L383.094 148.348Z" fill="white"/>
<path d="M383.094 148.348C383.094 148.348 386.213 153.159 395.317 155.36" stroke="#252D3B" stroke-width="1.3" stroke-miterlimit="10" stroke-linecap="round"/>
<path d="M424.156 154.377C424.156 154.377 434.277 151.419 438.542 147.324L424.156 154.377Z" fill="white"/>
<path d="M424.156 154.377C424.156 154.377 434.277 151.419 438.542 147.324" stroke="#252D3B" stroke-width="1.3" stroke-miterlimit="10" stroke-linecap="round"/>
<path d="M435.133 113.201C435.133 113.201 435.815 106.035 437.522 106.035C439.229 106.035 440.081 114.225 440.081 114.225" fill="white"/>
<path d="M435.133 113.201C435.133 113.201 435.815 106.035 437.522 106.035C439.229 106.035 440.081 114.225 440.081 114.225" stroke="#252D3B" stroke-width="1.3" stroke-miterlimit="10" stroke-linecap="round"/>
<path d="M392.474 116.613C392.474 116.613 387.526 109.106 386.844 112.006C386.162 114.907 389.403 120.537 389.403 120.537" fill="white"/>
<path d="M392.474 116.613C392.474 116.613 387.526 109.106 386.844 112.006C386.162 114.907 389.403 120.537 389.403 120.537" stroke="#252D3B" stroke-width="1.3" stroke-miterlimit="10" stroke-linecap="round"/>
<path d="M445.789 111.117C445.789 111.117 448.44 115.592 447.075 121.734L445.789 111.117Z" fill="white"/>
<path d="M445.789 111.117C445.789 111.117 448.44 115.592 447.075 121.734" stroke="#252D3B" stroke-width="1.3" stroke-miterlimit="10" stroke-linecap="round"/>
<path d="M478.893 158.641C478.893 158.641 474.618 153.198 480.921 150.929C487.224 148.66 501.847 159.249 505.88 145.887" fill="white"/>
<path d="M478.893 158.641C478.893 158.641 474.618 153.198 480.921 150.929C487.224 148.66 501.847 159.249 505.88 145.887" stroke="#252D3B" stroke-width="1.3" stroke-miterlimit="10" stroke-linecap="round"/>
<path d="M417.391 146.661C417.391 146.661 437.171 140.528 442.231 135.008L417.391 146.661Z" fill="white"/>
<path d="M417.391 146.661C417.391 146.661 437.171 140.528 442.231 135.008" stroke="#252D3B" stroke-width="1.3" stroke-miterlimit="10" stroke-linecap="round"/>
<path d="M417.391 149.882L446.064 141.449" stroke="#252D3B" stroke-width="1.3" stroke-miterlimit="10" stroke-linecap="round"/>
<path d="M395.924 146.354C395.924 146.354 370.624 138.381 371.084 138.074L395.924 146.354Z" fill="white"/>
<path d="M395.924 146.354C395.924 146.354 370.624 138.381 371.084 138.074" stroke="#252D3B" stroke-width="1.3" stroke-miterlimit="10" stroke-linecap="round"/>
<path d="M393.78 148.963L371.086 146.203" stroke="#252D3B" stroke-width="1.3" stroke-miterlimit="10" stroke-linecap="round"/>
<path d="M406.664 147.733L402.984 144.36C402.984 144.36 407.124 143.593 410.804 144.36L406.664 147.733Z" fill="#252D3B"/>
<path d="M460.695 108.061C460.695 108.061 461.174 122.673 470.516 124.35C479.858 126.027 483.212 112.852 489.919 115.727C496.626 118.602 502.615 121.955 506.447 117.883C506.447 117.883 488.776 101.673 460.695 108.061Z" fill="#252D3B"/>
<path d="M501.005 136.664C504.019 136.664 506.463 134.927 506.463 132.783C506.463 130.64 504.019 128.902 501.005 128.902C497.991 128.902 495.547 130.64 495.547 132.783C495.547 134.927 497.991 136.664 501.005 136.664Z" fill="#252D3B"/>
<path d="M400.398 110.695C400.398 110.695 404.783 109.198 405.639 116.149C406.495 123.101 406.943 123.554 411.969 122.591C416.996 121.628 415.692 109.411 424.462 108.876C424.462 108.876 410.024 107.379 400.398 110.695Z" fill="#252D3B"/>
</svg>
