<svg width="753" height="419" viewBox="0 0 753 419" fill="none" xmlns="http://www.w3.org/2000/svg">
<path d="M749.634 388.795C749.634 403.809 737.419 416.024 722.404 416.024H29.8011C14.786 416.024 2.57093 403.809 2.57093 388.795V291.969C2.57093 276.954 14.786 264.739 29.8011 264.739H722.404C737.419 264.739 749.634 276.954 749.634 291.969V388.795ZM741.348 268.982C736.195 264.727 729.593 262.168 722.404 262.168H29.8011C22.6107 262.168 16.0096 264.727 10.8546 268.982C4.22962 274.452 0 282.725 0 291.969V388.795C0 402.147 8.82529 413.474 20.9478 417.253C23.7462 418.125 26.7194 418.595 29.8007 418.595H722.403C725.485 418.595 728.458 418.125 731.255 417.253C743.379 413.474 752.205 402.147 752.205 388.795V291.969C752.205 282.725 747.974 274.452 741.348 268.982Z" fill="#13171E" fill-opacity="0.5"/>
<path d="M737.025 386.136C737.025 394.914 729.884 402.054 721.106 402.054H719.195V401.527H721.106C729.592 401.527 736.495 394.622 736.495 386.136V291.263C736.495 282.777 729.593 275.875 721.106 275.875H719.195V275.345H721.106C729.884 275.345 737.025 282.486 737.025 291.263V386.136ZM717.482 402.975H712.745V401.527H717.482V402.975ZM711.032 402.054H572.119V275.345H711.032V275.875H573.291C572.936 275.875 572.649 276.163 572.649 276.517V400.884C572.649 401.239 572.937 401.526 573.291 401.526H711.032V402.054ZM721.106 277.16C728.883 277.16 735.21 283.487 735.21 291.263V386.136C735.21 393.913 728.883 400.241 721.106 400.241H573.934V277.16L721.106 277.16ZM712.745 274.425H717.482V275.875H712.745V274.425ZM569.549 402.054H559.904V275.345H569.549V402.054ZM557.334 275.345V343.522H194.231V275.345H557.334ZM380.604 402.054H370.959V346.092H380.604V402.054ZM191.661 402.054H182.015V275.345H191.661V402.054ZM179.444 402.054H40.5319V401.527H178.272C178.627 401.527 178.914 401.239 178.914 400.884V276.518C178.914 276.163 178.627 275.875 178.272 275.875H40.5319V275.346H179.444V402.054ZM38.8181 402.975H34.0797V401.527H38.8181V402.975ZM32.3663 402.054H30.4592C21.6816 402.054 14.5393 394.914 14.5393 386.136V291.263C14.5393 282.486 21.682 275.345 30.4592 275.345H32.3663V275.875H30.4592C21.9732 275.875 15.0686 282.778 15.0686 291.264V386.136C15.0686 394.622 21.9728 401.527 30.4592 401.527H32.3663V402.054ZM177.63 277.16V400.241H30.4592C22.6827 400.241 16.3538 393.912 16.3538 386.136V291.263C16.3538 283.487 22.6827 277.159 30.4592 277.159L177.63 277.16ZM34.0801 274.425H38.8185V275.875H34.0801V274.425ZM721.107 272.774H719.196V272.711H711.032V272.774H40.5319V272.711H32.3663V272.774H30.4592C20.2643 272.774 11.9688 281.069 11.9688 291.263V386.136C11.9688 396.332 20.2647 404.624 30.4592 404.624H32.3663V404.688H40.5319V404.624H194.231V346.092H368.389V402.056H194.235V404.626H368.395V404.624H383.168V404.626H557.328V402.056H383.174V346.092H557.333V404.624H711.031V404.688H719.195V404.624H721.106C731.301 404.624 739.595 396.332 739.595 386.136V291.263C739.595 281.069 731.3 272.774 721.106 272.774H721.107Z" fill="#13171E" fill-opacity="0.5"/>
<path d="M557.32 331.316H194.227V333.887H557.32V331.316Z" fill="#13171E" fill-opacity="0.5"/>
<path d="M598.004 325.417V351.988C598.004 354.971 595.876 357.552 592.957 358.121C592.536 358.2 592.124 358.215 591.716 358.212C589.347 357.103 587.739 354.712 587.739 351.988V325.417C587.739 322.674 589.367 320.267 591.762 319.171C592.153 319.171 592.554 319.209 592.945 319.282C594.175 319.522 595.291 320.115 596.166 320.993C597.35 322.177 598.004 323.748 598.004 325.417ZM584.865 325.417C584.865 322.293 586.952 319.649 589.808 318.806C587.757 320.307 586.454 322.734 586.454 325.417V351.988C586.454 354.67 587.757 357.098 589.808 358.597C586.952 357.756 584.865 355.11 584.865 351.988V325.417ZM591.754 360.805C592.304 360.805 592.87 360.752 593.44 360.646C597.574 359.84 600.575 356.198 600.575 351.988V325.418C600.575 323.063 599.656 320.847 597.985 319.175C596.744 317.936 595.175 317.099 593.43 316.757C587.917 315.737 582.938 320.008 582.938 325.418V351.988C582.938 356.85 586.893 360.805 591.754 360.805Z" fill="#13171E" fill-opacity="0.5"/>
<path d="M166.043 325.416V351.987C166.043 354.97 163.917 357.551 160.998 358.12C160.575 358.197 160.162 358.212 159.753 358.208C157.386 357.099 155.782 354.71 155.782 351.987V325.416C155.782 322.673 157.408 320.267 159.804 319.17C160.195 319.17 160.596 319.208 160.986 319.282C162.217 319.521 163.329 320.113 164.208 320.992C165.39 322.176 166.043 323.747 166.043 325.416ZM152.905 325.416C152.905 322.292 154.995 319.648 157.849 318.805C155.799 320.306 154.497 322.733 154.497 325.416V351.987C154.497 354.669 155.799 357.095 157.849 358.597C154.995 357.753 152.905 355.109 152.905 351.987V325.416ZM159.797 360.804C160.347 360.804 160.909 360.751 161.48 360.645C165.613 359.839 168.614 356.198 168.614 351.987V325.417C168.614 323.062 167.696 320.847 166.026 319.174C164.785 317.935 163.214 317.099 161.47 316.756C155.95 315.74 150.977 320.005 150.977 325.417V351.987C150.977 356.849 154.934 360.804 159.797 360.804Z" fill="#13171E" fill-opacity="0.5"/>
<path d="M271.93 321.465V331.806H479.606V321.465H481.177V333.376H270.359V321.465H271.93Z" fill="#13171E" fill-opacity="0.5" stroke="black"/>
<path d="M269.721 288.508H481.843C485.268 288.508 488.055 291.295 488.055 294.721V314.256C488.055 317.679 485.268 320.467 481.843 320.467H269.721C266.295 320.467 263.508 317.68 263.508 314.256V294.721C263.508 291.295 266.295 288.508 269.721 288.508Z" fill="#F4E3FF" stroke="black"/>
<path d="M280.262 322.711H289.141C290.952 322.711 292.426 324.185 292.426 325.996C292.426 327.809 290.951 329.283 289.141 329.283H280.262C278.451 329.283 276.977 327.809 276.977 325.996C276.977 324.185 278.451 322.711 280.262 322.711Z" fill="#F4E3FF" stroke="black"/>
<path d="M462.41 322.711H471.289C473.1 322.711 474.574 324.185 474.574 325.996C474.574 327.809 473.1 329.283 471.289 329.283H462.41C460.599 329.283 459.125 327.809 459.125 325.996C459.125 324.185 460.599 322.711 462.41 322.711Z" fill="#F4E3FF" stroke="black"/>
<path d="M474.891 293.191C478.607 293.192 481.632 296.217 481.632 299.934C481.632 303.65 478.607 306.674 474.891 306.674C471.174 306.674 468.149 303.65 468.148 299.934C468.148 296.217 471.174 293.191 474.891 293.191ZM474.891 293.905C471.567 293.905 468.862 296.611 468.862 299.934C468.863 303.257 471.568 305.96 474.891 305.96C478.213 305.96 480.919 303.256 480.919 299.934C480.919 296.61 478.213 293.905 474.891 293.905Z" fill="#13171E" fill-opacity="0.5" stroke="black"/>
<path d="M274.37 312.18H364.229C365.319 312.18 366.206 313.067 366.206 314.159C366.206 315.25 365.319 316.139 364.229 316.139H274.37C273.279 316.139 272.391 315.249 272.391 314.159C272.391 313.068 273.279 312.18 274.37 312.18ZM274.37 312.465C273.434 312.465 272.676 313.226 272.676 314.159C272.676 315.093 273.434 315.853 274.37 315.854H364.229C365.164 315.853 365.921 315.092 365.921 314.159C365.921 313.226 365.164 312.465 364.229 312.465H274.37Z" fill="#13171E" fill-opacity="0.5" stroke="black"/>
<path d="M410.199 387.345L522.639 387.661C523.185 387.662 523.694 387.877 524.078 388.264C524.462 388.648 524.671 389.162 524.669 389.705L524.627 400.262C524.622 401.381 523.708 402.291 522.589 402.291V403.576V403.574L522.581 402.291L410.141 401.975C409.015 401.972 408.107 401.053 408.11 399.931L408.153 389.374C408.156 388.257 409.071 387.345 410.199 387.345ZM526.828 402.054C527.063 401.507 527.195 400.904 527.197 400.272L527.24 389.716C527.244 388.483 526.768 387.327 525.901 386.453C525.848 386.398 525.785 386.36 525.728 386.309C524.904 387.082 523.804 387.563 522.59 387.563H522.571L410.13 387.249C408.975 387.245 407.896 386.804 407.051 386.031C406.156 386.869 405.587 388.048 405.582 389.364L405.539 399.921C405.536 400.693 405.743 401.413 406.079 402.054C406.845 403.521 408.362 404.539 410.13 404.546L438.24 404.625L522.571 404.861H522.59C523.075 404.861 523.533 404.765 523.973 404.625C525.254 404.217 526.304 403.281 526.828 402.054Z" fill="#13171E" fill-opacity="0.5"/>
<path d="M422.494 400.596L422.487 399.955L411.864 399.912C411.555 399.911 411.264 399.789 411.044 399.57C410.825 399.349 410.705 399.056 410.707 398.746L410.738 390.585C410.741 389.946 411.262 389.426 411.904 389.426L422.527 389.469C422.838 389.471 423.129 389.592 423.348 389.812C423.568 390.033 423.688 390.326 423.686 390.634L423.652 398.798C423.65 399.436 423.131 399.955 422.493 399.955V400.597V400.596L422.494 400.596ZM411.86 401.197L422.494 401.24C423.837 401.24 424.932 400.147 424.938 398.803L424.972 390.639C424.973 389.984 424.72 389.371 424.261 388.906C423.799 388.442 423.186 388.185 422.533 388.183L411.898 388.141C410.558 388.141 409.46 389.234 409.453 390.579L409.422 398.741C409.417 400.092 410.51 401.192 411.86 401.197Z" fill="#13171E" fill-opacity="0.5"/>
<path d="M518.699 397.174L518.694 396.534L430.755 396.316C430.361 396.314 430.042 395.992 430.043 395.598L430.05 393.878C430.052 393.485 430.371 393.168 430.769 393.168L518.708 393.386C519.104 393.387 519.423 393.709 519.42 394.102L519.412 395.825C519.41 396.215 519.091 396.534 518.699 396.534V397.176V397.175L518.699 397.174ZM430.749 397.601L518.69 397.819H518.699C519.799 397.819 520.695 396.924 520.697 395.829L520.705 394.107C520.707 393.005 519.814 392.105 518.712 392.1L430.763 391.883C429.663 391.883 428.766 392.776 428.765 393.874L428.758 395.593C428.756 396.128 428.96 396.63 429.337 397.01C429.714 397.389 430.215 397.6 430.749 397.601Z" fill="#13171E" fill-opacity="0.5"/>
<path d="M410.199 370.051L522.638 370.364C523.761 370.37 524.672 371.286 524.669 372.41L524.626 382.965C524.621 384.084 523.707 384.994 522.588 384.994V386.279L522.58 384.994L410.138 384.68C409.594 384.679 409.085 384.464 408.701 384.077C408.317 383.693 408.108 383.179 408.109 382.634L408.152 372.078C408.155 370.96 409.07 370.05 410.198 370.05L410.199 370.051ZM527.196 382.977L527.239 372.419C527.244 371.069 526.653 369.862 525.726 369.014C524.902 369.785 523.803 370.268 522.592 370.268H522.569L410.13 369.953C408.975 369.948 407.896 369.508 407.051 368.734C406.156 369.573 405.587 370.751 405.582 372.067L405.539 382.625C405.534 383.856 406.01 385.014 406.876 385.888C406.93 385.941 406.994 385.981 407.051 386.032C407.895 386.805 408.975 387.245 410.13 387.25L522.572 387.564H522.59C523.804 387.564 524.904 387.083 525.728 386.31C526.621 385.472 527.191 384.293 527.197 382.977L527.196 382.977Z" fill="#13171E" fill-opacity="0.5"/>
<path d="M422.49 383.299L422.487 382.658L411.866 382.617C411.225 382.613 410.706 382.089 410.707 381.446L410.738 373.287C410.741 372.648 411.264 372.129 411.905 372.129L422.528 372.17C422.838 372.171 423.129 372.293 423.349 372.512C423.568 372.733 423.688 373.026 423.686 373.337L423.652 381.499C423.651 382.136 423.129 382.657 422.49 382.657V383.3V383.299ZM411.86 383.902L422.49 383.943C423.836 383.943 424.932 382.848 424.938 381.505L424.972 373.342C424.977 371.99 423.882 370.89 422.533 370.885L411.901 370.844C410.558 370.844 409.459 371.937 409.453 373.282L409.422 381.443C409.417 382.791 410.51 383.895 411.86 383.902Z" fill="#13171E" fill-opacity="0.5"/>
<path d="M518.692 379.882L518.693 379.239L430.754 379.022C430.564 379.02 430.384 378.946 430.25 378.811C430.115 378.675 430.041 378.494 430.043 378.303L430.05 376.583C430.052 376.192 430.37 375.872 430.768 375.872L518.707 376.09C519.103 376.091 519.422 376.414 519.42 376.806L519.411 378.528C519.41 378.919 519.089 379.239 518.695 379.239L518.692 379.88V379.882ZM430.749 380.306L518.693 380.524H518.695C519.797 380.524 520.695 379.629 520.697 378.533L520.705 376.81C520.707 375.708 519.814 374.808 518.712 374.803L430.763 374.586C429.663 374.586 428.766 375.48 428.765 376.579L428.758 378.298C428.756 378.832 428.96 379.336 429.337 379.713C429.714 380.094 430.214 380.305 430.749 380.306H430.749Z" fill="#13171E" fill-opacity="0.5"/>
<path d="M408.153 354.781C408.156 353.663 409.07 352.754 410.199 352.754L522.639 353.067C523.185 353.069 523.694 353.283 524.078 353.67C524.462 354.056 524.671 354.567 524.669 355.112L524.627 365.666C524.622 366.785 523.71 367.697 522.592 367.697V368.982V368.98L522.581 367.697L410.139 367.381C409.594 367.38 409.086 367.165 408.701 366.78C408.318 366.394 408.108 365.882 408.11 365.339L408.153 354.781ZM410.13 369.952L522.569 370.268H522.592C523.803 370.268 524.902 369.785 525.726 369.013C526.621 368.177 527.191 366.996 527.196 365.679L527.239 355.122C527.244 353.892 526.768 352.732 525.901 351.858C525.035 350.987 523.879 350.502 522.647 350.497L410.187 350.184C407.657 350.184 405.591 352.242 405.582 354.773L405.539 365.329C405.534 366.56 406.01 367.718 406.876 368.59C406.93 368.645 406.994 368.683 407.051 368.734C407.895 369.507 408.975 369.947 410.13 369.952Z" fill="#13171E" fill-opacity="0.5"/>
<path d="M422.49 366L422.487 365.357L411.864 365.316C411.556 365.315 411.264 365.193 411.045 364.974C410.826 364.753 410.706 364.46 410.707 364.148L410.738 355.989C410.741 355.348 411.264 354.829 411.905 354.829L422.526 354.87C423.167 354.873 423.688 355.398 423.686 356.039L423.652 364.201C423.651 364.839 423.129 365.358 422.49 365.358V366ZM411.86 366.601L422.49 366.642C423.836 366.642 424.932 365.549 424.938 364.204L424.972 356.043C424.977 354.695 423.882 353.591 422.533 353.584L411.901 353.543C410.558 353.543 409.459 354.636 409.453 355.983L409.422 364.144C409.417 365.494 410.51 366.596 411.86 366.601Z" fill="#13171E" fill-opacity="0.5"/>
<path d="M518.699 362.582L518.694 361.941L430.755 361.724C430.361 361.722 430.042 361.402 430.043 361.006L430.05 359.285C430.052 358.895 430.372 358.574 430.769 358.574L518.709 358.794C518.901 358.794 519.08 358.869 519.213 359.005C519.347 359.14 519.42 359.322 519.42 359.51L519.412 361.23C519.41 361.623 519.091 361.941 518.699 361.941V362.584L518.699 362.582ZM430.749 363.009L518.69 363.227H518.699C519.799 363.227 520.695 362.334 520.697 361.235L520.705 359.515C520.707 358.411 519.814 357.51 518.712 357.508L430.767 357.289C429.665 357.289 428.767 358.184 428.765 359.282L428.758 361.001C428.756 361.537 428.96 362.039 429.337 362.42C429.714 362.797 430.215 363.008 430.749 363.009Z" fill="#13171E" fill-opacity="0.5"/>
<path d="M342.596 399.394H342.466C341.77 400.421 340.598 401.096 339.27 401.108H342.596C343.059 401.108 343.437 401.485 343.437 401.949C343.437 402.412 343.059 402.791 342.596 402.791H224.349C222.078 402.791 220.229 400.943 220.229 398.673V383.695C220.229 381.423 222.078 379.576 224.349 379.576H342.596C343.059 379.576 343.437 379.954 343.437 380.417C343.437 380.882 343.059 381.26 342.596 381.26H339.237C340.577 381.26 341.761 381.941 342.464 382.974H342.596C344.004 382.974 345.151 381.828 345.151 380.417C345.151 379.718 344.866 379.082 344.409 378.621C343.944 379.087 343.303 379.379 342.596 379.379H224.349C223.321 379.379 222.368 379.089 221.53 378.621C219.742 379.618 218.516 381.505 218.516 383.695V398.673C218.516 399.936 218.93 401.1 219.616 402.054C220.675 403.533 222.395 404.505 224.349 404.505H342.596C343.968 404.505 345.084 403.415 345.141 402.054C345.141 402.019 345.151 401.986 345.151 401.95C345.151 400.541 344.005 399.394 342.596 399.394Z" fill="#13171E" fill-opacity="0.5"/>
<path d="M221.906 383.697V398.674C221.906 400.016 222.999 401.109 224.343 401.109H225.778C223.642 401.09 221.91 399.351 221.91 397.211V385.162C221.91 383.011 223.66 381.262 225.81 381.262H224.343C222.999 381.262 221.906 382.353 221.906 383.697Z" fill="#13171E" fill-opacity="0.5"/>
<path d="M341.422 385.163V397.212C341.422 398.418 340.442 399.4 339.236 399.4H225.814C224.608 399.4 223.627 398.418 223.627 397.212V385.163C223.627 383.956 224.608 382.976 225.814 382.976H339.236C340.442 382.976 341.422 383.956 341.422 385.163ZM339.236 381.263H225.814C223.664 381.263 221.914 383.012 221.914 385.163V397.212C221.914 399.352 223.647 401.091 225.782 401.11C225.792 401.11 225.804 401.113 225.814 401.113H339.236C339.246 401.113 339.256 401.11 339.268 401.11C340.596 401.098 341.768 400.423 342.464 399.396C342.889 398.772 343.136 398.02 343.136 397.211V385.162C343.136 384.352 342.887 383.599 342.463 382.976C341.76 381.942 340.576 381.262 339.236 381.262V381.263Z" fill="#13171E" fill-opacity="0.5"/>
<path d="M224.349 379.379H342.596C343.304 379.379 343.944 379.087 344.409 378.621C344.866 378.158 345.151 377.524 345.151 376.825C345.151 375.415 344.004 374.27 342.596 374.27H342.465C341.77 375.295 340.597 375.972 339.269 375.984H342.595C343.058 375.984 343.437 376.361 343.437 376.825C343.437 377.288 343.058 377.665 342.595 377.665H224.348C222.078 377.665 220.229 375.818 220.229 373.547V358.57C220.229 356.299 222.078 354.452 224.348 354.452H342.595C343.058 354.452 343.437 354.831 343.437 355.294C343.437 355.758 343.058 356.135 342.595 356.135H224.348C223.005 356.135 221.912 357.227 221.912 358.57V373.548C221.912 374.892 223.005 375.985 224.348 375.985H225.783C223.648 375.966 221.915 374.225 221.915 372.086V360.037C221.915 357.887 223.665 356.135 225.815 356.135H339.237C340.575 356.135 341.759 356.815 342.462 357.849H342.596C344.004 357.849 345.151 356.702 345.151 355.294C345.151 353.885 344.004 352.738 342.596 352.738H224.349C221.132 352.738 218.516 355.353 218.516 358.57V373.547C218.516 375.736 219.742 377.624 221.53 378.622C222.368 379.09 223.321 379.379 224.349 379.379Z" fill="#13171E" fill-opacity="0.5"/>
<path d="M341.422 360.035V372.084C341.422 373.291 340.442 374.271 339.236 374.271H225.814C224.608 374.271 223.627 373.291 223.627 372.084V360.035C223.627 358.829 224.608 357.847 225.814 357.847H339.236C340.442 357.847 341.422 358.829 341.422 360.035ZM339.236 356.133H225.814C223.664 356.133 221.914 357.884 221.914 360.035V372.084C221.914 374.223 223.647 375.964 225.782 375.983C225.792 375.983 225.804 375.985 225.814 375.985H339.236C339.246 375.985 339.256 375.983 339.268 375.983C340.596 375.971 341.768 375.294 342.464 374.269C342.889 373.645 343.136 372.893 343.136 372.084V360.035C343.136 359.224 342.886 358.471 342.461 357.847C341.758 356.813 340.574 356.133 339.235 356.133L339.236 356.133Z" fill="#13171E" fill-opacity="0.5"/>
<path d="M224.699 361.038H338.984C339.104 361.038 339.198 360.942 339.198 360.824C339.198 360.704 339.104 360.609 338.984 360.609H224.699C224.58 360.609 224.484 360.704 224.484 360.824C224.484 360.942 224.58 361.038 224.699 361.038Z" fill="#13171E" fill-opacity="0.5"/>
<path d="M224.699 364.53H338.984C339.104 364.53 339.198 364.434 339.198 364.316C339.198 364.197 339.104 364.102 338.984 364.102H224.699C224.58 364.102 224.484 364.197 224.484 364.316C224.484 364.434 224.58 364.53 224.699 364.53Z" fill="#13171E" fill-opacity="0.5"/>
<path d="M224.699 368.018H338.984C339.104 368.018 339.198 367.923 339.198 367.804C339.198 367.686 339.104 367.59 338.984 367.59H224.699C224.58 367.59 224.484 367.686 224.484 367.804C224.484 367.923 224.58 368.018 224.699 368.018Z" fill="#13171E" fill-opacity="0.5"/>
<path d="M339.19 371.292C339.19 371.174 339.096 371.078 338.976 371.078H224.691C224.572 371.078 224.477 371.174 224.477 371.292C224.477 371.412 224.572 371.507 224.691 371.507H338.976C339.096 371.507 339.19 371.412 339.19 371.292Z" fill="#13171E" fill-opacity="0.5"/>
<path d="M224.484 385.949C224.484 386.067 224.58 386.163 224.699 386.163H338.984C339.104 386.163 339.198 386.067 339.198 385.949C339.198 385.83 339.104 385.734 338.984 385.734H224.699C224.58 385.734 224.484 385.83 224.484 385.949Z" fill="#13171E" fill-opacity="0.5"/>
<path d="M224.699 389.655H338.984C339.104 389.655 339.198 389.559 339.198 389.441C339.198 389.322 339.104 389.227 338.984 389.227H224.699C224.58 389.227 224.484 389.322 224.484 389.441C224.484 389.559 224.58 389.655 224.699 389.655Z" fill="#13171E" fill-opacity="0.5"/>
<path d="M224.699 393.143H338.984C339.104 393.143 339.198 393.049 339.198 392.929C339.198 392.811 339.104 392.715 338.984 392.715H224.699C224.58 392.715 224.484 392.811 224.484 392.929C224.484 393.049 224.58 393.143 224.699 393.143Z" fill="#13171E" fill-opacity="0.5"/>
<path d="M339.19 396.417C339.19 396.299 339.096 396.203 338.976 396.203H224.691C224.572 396.203 224.477 396.299 224.477 396.417C224.477 396.537 224.572 396.632 224.691 396.632H338.976C339.096 396.632 339.19 396.537 339.19 396.417Z" fill="#13171E" fill-opacity="0.5"/>
<path d="M348.453 239.637H345.883V254.306H348.453V239.637Z" fill="#13171E" fill-opacity="0.5"/>
<path d="M407.867 239.637H405.297V254.306H407.867V239.637Z" fill="#13171E" fill-opacity="0.5"/>
<path d="M488.572 256.875C491.2 256.875 493.36 258.914 493.555 261.492H260.18C260.374 258.914 262.534 256.875 265.163 256.875H488.572ZM257.594 264.062H496.141V261.872C496.141 261.776 496.115 261.687 496.112 261.593C495.961 257.552 492.648 254.305 488.572 254.305H265.163C261.086 254.305 257.773 257.552 257.623 261.593C257.62 261.687 257.594 261.776 257.594 261.872V264.062Z" fill="#13171E" fill-opacity="0.5"/>
<path d="M138.804 239.635H614.951C618.296 239.635 621.019 236.912 621.019 233.566V6.0697C621.019 2.72269 618.296 0 614.951 0H138.804C135.457 0 132.734 2.7231 132.734 6.0697V233.566C132.734 236.913 135.457 239.635 138.804 239.635Z" fill="#13171E" fill-opacity="0.5"/>
<rect x="140.453" y="7.67188" width="472.773" height="217.199" rx="6" fill="white"/>
<path d="M141.442 12.8492C141.442 10.5649 143.299 8.70713 145.584 8.70713H608.166C610.451 8.70713 612.308 10.5649 612.308 12.8492V219.858C612.308 222.144 610.451 224 608.166 224H145.584C143.299 224 141.442 222.144 141.442 219.858V12.8492ZM145.584 225.285H608.166C611.158 225.285 613.594 222.852 613.594 219.858V12.8492C613.594 9.8571 611.158 7.42188 608.166 7.42188H145.584C142.591 7.42188 140.156 9.8571 140.156 12.8492V219.858C140.156 222.852 142.591 225.285 145.584 225.285Z" fill="#13171E" fill-opacity="0.5"/>
<path d="M414.941 231.49H338.792C338.132 231.49 337.598 230.954 337.598 230.294C337.598 229.638 338.132 229.102 338.792 229.102H414.941C415.599 229.102 416.135 229.638 416.135 230.294C416.135 230.954 415.599 231.49 414.941 231.49ZM414.941 227.816H338.792C337.425 227.816 336.312 228.927 336.312 230.294C336.312 231.662 337.425 232.776 338.792 232.776H414.941C416.309 232.776 417.421 231.662 417.421 230.294C417.421 228.927 416.309 227.816 414.941 227.816Z" fill="white"/>
</svg>
