<svg width="231" height="56" viewBox="0 0 231 56" fill="none" xmlns="http://www.w3.org/2000/svg">
<rect x="2" y="2" width="226.449" height="51.922" rx="25.961" stroke="black" stroke-width="4"/>
<path d="M71.0028 35.7272C69.8045 35.7272 68.6875 35.5349 67.6518 35.1502C66.631 34.7508 65.7433 34.1886 64.9888 33.4637C64.2343 32.7387 63.6425 31.888 63.2134 30.9116C62.7992 29.9351 62.5921 28.8625 62.5921 27.6937C62.5921 26.525 62.7992 25.4523 63.2134 24.4759C63.6425 23.4994 64.2343 22.6488 64.9888 21.9238C65.7581 21.1989 66.6532 20.6441 67.674 20.2594C68.6949 19.86 69.8118 19.6602 71.025 19.6602C72.3713 19.6602 73.5845 19.8969 74.6645 20.3704C75.7593 20.829 76.6766 21.5096 77.4163 22.412L75.1083 24.5425C74.5757 23.9359 73.9839 23.4847 73.333 23.1888C72.682 22.8781 71.9719 22.7227 71.2025 22.7227C70.4776 22.7227 69.8118 22.8411 69.2053 23.0778C68.5987 23.3145 68.0735 23.6548 67.6296 24.0986C67.1858 24.5425 66.8381 25.0677 66.5866 25.6743C66.3499 26.2808 66.2315 26.954 66.2315 27.6937C66.2315 28.4335 66.3499 29.1066 66.5866 29.7132C66.8381 30.3198 67.1858 30.845 67.6296 31.2888C68.0735 31.7327 68.5987 32.073 69.2053 32.3097C69.8118 32.5464 70.4776 32.6647 71.2025 32.6647C71.9719 32.6647 72.682 32.5168 73.333 32.2209C73.9839 31.9102 74.5757 31.4442 75.1083 30.8228L77.4163 32.9532C76.6766 33.8557 75.7593 34.5437 74.6645 35.0171C73.5845 35.4905 72.3639 35.7272 71.0028 35.7272ZM84.8694 35.6385C83.597 35.6385 82.4652 35.3722 81.474 34.8396C80.4975 34.307 79.7208 33.582 79.1438 32.6647C78.5816 31.7327 78.3005 30.6749 78.3005 29.4913C78.3005 28.2929 78.5816 27.2351 79.1438 26.3178C79.7208 25.3858 80.4975 24.6608 81.474 24.143C82.4652 23.6104 83.597 23.3441 84.8694 23.3441C86.1269 23.3441 87.2513 23.6104 88.2425 24.143C89.2338 24.6608 90.0105 25.3784 90.5727 26.2956C91.1349 27.2129 91.416 28.2781 91.416 29.4913C91.416 30.6749 91.1349 31.7327 90.5727 32.6647C90.0105 33.582 89.2338 34.307 88.2425 34.8396C87.2513 35.3722 86.1269 35.6385 84.8694 35.6385ZM84.8694 32.7979C85.4463 32.7979 85.9642 32.6647 86.4228 32.3984C86.8814 32.1321 87.2439 31.7549 87.5102 31.2666C87.7765 30.7636 87.9097 30.1718 87.9097 29.4913C87.9097 28.7959 87.7765 28.2042 87.5102 27.7159C87.2439 27.2277 86.8814 26.8504 86.4228 26.5841C85.9642 26.3178 85.4463 26.1847 84.8694 26.1847C84.2924 26.1847 83.7745 26.3178 83.3159 26.5841C82.8573 26.8504 82.4874 27.2277 82.2063 27.7159C81.94 28.2042 81.8069 28.7959 81.8069 29.4913C81.8069 30.1718 81.94 30.7636 82.2063 31.2666C82.4874 31.7549 82.8573 32.1321 83.3159 32.3984C83.7745 32.6647 84.2924 32.7979 84.8694 32.7979ZM100.987 23.3441C101.934 23.3441 102.777 23.5364 103.517 23.9211C104.271 24.291 104.863 24.868 105.292 25.6521C105.721 26.4214 105.936 27.4126 105.936 28.6258V35.4609H102.474V29.1584C102.474 28.1968 102.259 27.4866 101.83 27.028C101.416 26.5693 100.824 26.34 100.055 26.34C99.5073 26.34 99.0117 26.4584 98.5679 26.6951C98.1388 26.917 97.7986 27.2647 97.5471 27.7381C97.3103 28.2116 97.192 28.8181 97.192 29.5579V35.4609H93.73V23.5216H97.0366V26.8282L96.4153 25.8296C96.8443 25.0307 97.4583 24.4167 98.2572 23.9877C99.0561 23.5586 99.966 23.3441 100.987 23.3441ZM113.956 35.6385C112.55 35.6385 111.456 35.2834 110.672 34.5733C109.887 33.8483 109.495 32.7757 109.495 31.3554V20.8808H112.957V31.311C112.957 31.8141 113.09 32.2061 113.357 32.4872C113.623 32.7535 113.986 32.8867 114.444 32.8867C114.992 32.8867 115.458 32.7387 115.842 32.4428L116.774 34.8839C116.419 35.1355 115.99 35.3278 115.487 35.4609C114.999 35.5793 114.489 35.6385 113.956 35.6385ZM107.653 26.451V23.7879H115.931V26.451H107.653ZM118.718 35.4609V23.5216H122.18V35.4609H118.718ZM120.449 21.8572C119.813 21.8572 119.295 21.6723 118.895 21.3024C118.496 20.9326 118.296 20.4739 118.296 19.9265C118.296 19.3791 118.496 18.9205 118.895 18.5506C119.295 18.1808 119.813 17.9958 120.449 17.9958C121.085 17.9958 121.603 18.1734 122.002 18.5284C122.402 18.8687 122.601 19.3126 122.601 19.86C122.601 20.437 122.402 20.9178 122.002 21.3024C121.617 21.6723 121.1 21.8572 120.449 21.8572ZM132.649 23.3441C133.596 23.3441 134.44 23.5364 135.179 23.9211C135.934 24.291 136.526 24.868 136.955 25.6521C137.384 26.4214 137.598 27.4126 137.598 28.6258V35.4609H134.136V29.1584C134.136 28.1968 133.922 27.4866 133.493 27.028C133.078 26.5693 132.487 26.34 131.717 26.34C131.17 26.34 130.674 26.4584 130.23 26.6951C129.801 26.917 129.461 27.2647 129.21 27.7381C128.973 28.2116 128.855 28.8181 128.855 29.5579V35.4609H125.393V23.5216H128.699V26.8282L128.078 25.8296C128.507 25.0307 129.121 24.4167 129.92 23.9877C130.719 23.5586 131.629 23.3441 132.649 23.3441ZM145.774 35.6385C144.783 35.6385 143.895 35.4461 143.111 35.0615C142.342 34.6768 141.742 34.0924 141.313 33.3083C140.884 32.5094 140.67 31.496 140.67 30.268V23.5216H144.132V29.7576C144.132 30.7488 144.339 31.4812 144.753 31.9546C145.182 32.4132 145.781 32.6426 146.551 32.6426C147.083 32.6426 147.557 32.5316 147.971 32.3097C148.385 32.073 148.711 31.7179 148.947 31.2445C149.184 30.7562 149.302 30.1497 149.302 29.4247V23.5216H152.764V35.4609H149.48V32.1765L150.079 33.1308C149.68 33.9593 149.088 34.5881 148.304 35.0171C147.534 35.4313 146.691 35.6385 145.774 35.6385ZM161.897 35.6385C160.536 35.6385 159.337 35.3722 158.302 34.8396C157.281 34.307 156.489 33.582 155.927 32.6647C155.365 31.7327 155.084 30.6749 155.084 29.4913C155.084 28.2929 155.358 27.2351 155.905 26.3178C156.467 25.3858 157.229 24.6608 158.191 24.143C159.153 23.6104 160.24 23.3441 161.453 23.3441C162.622 23.3441 163.672 23.5956 164.604 24.0986C165.551 24.5869 166.298 25.297 166.846 26.2291C167.393 27.1463 167.667 28.2485 167.667 29.5357C167.667 29.6688 167.659 29.8242 167.645 30.0017C167.63 30.1644 167.615 30.3198 167.6 30.4677H157.902V28.4483H165.781L164.449 29.0474C164.449 28.4261 164.323 27.8861 164.072 27.4274C163.82 26.9688 163.473 26.6137 163.029 26.3622C162.585 26.0959 162.067 25.9628 161.475 25.9628C160.883 25.9628 160.358 26.0959 159.9 26.3622C159.456 26.6137 159.108 26.9762 158.857 27.4496C158.605 27.9083 158.479 28.4557 158.479 29.0918V29.6244C158.479 30.2754 158.62 30.8524 158.901 31.3554C159.197 31.8436 159.604 32.2209 160.122 32.4872C160.654 32.7387 161.276 32.8645 161.986 32.8645C162.622 32.8645 163.177 32.7683 163.65 32.576C164.138 32.3836 164.582 32.0952 164.982 31.7105L166.824 33.7078C166.276 34.3291 165.588 34.81 164.76 35.1502C163.931 35.4757 162.977 35.6385 161.897 35.6385Z" fill="black"/>
</svg>
