<svg width="1098" height="333" viewBox="0 0 1098 333" fill="none" xmlns="http://www.w3.org/2000/svg">
<path d="M425.205 117.68C418.565 117.68 412.405 116.64 406.725 114.56C401.045 112.4 396.125 109.36 391.965 105.44C387.885 101.52 384.685 96.92 382.365 91.64C380.045 86.28 378.885 80.4 378.885 74C378.885 67.6 380.045 61.76 382.365 56.48C384.685 51.12 387.925 46.48 392.085 42.56C396.245 38.64 401.165 35.64 406.845 33.56C412.605 31.4 418.885 30.32 425.685 30.32C433.605 30.32 440.685 31.64 446.925 34.28C453.165 36.92 458.325 40.72 462.405 45.68L447.285 59.36C444.405 56.24 441.285 53.92 437.925 52.4C434.645 50.8 430.965 50 426.885 50C423.285 50 420.005 50.56 417.045 51.68C414.085 52.8 411.565 54.44 409.485 56.6C407.405 58.68 405.765 61.2 404.565 64.16C403.445 67.04 402.885 70.32 402.885 74C402.885 77.52 403.445 80.76 404.565 83.72C405.765 86.68 407.405 89.24 409.485 91.4C411.565 93.48 414.045 95.12 416.925 96.32C419.885 97.44 423.125 98 426.645 98C430.165 98 433.605 97.44 436.965 96.32C440.325 95.12 443.725 93.12 447.165 90.32L460.485 107C455.685 110.44 450.125 113.08 443.805 114.92C437.485 116.76 431.285 117.68 425.205 117.68ZM439.485 103.88V72.2H460.485V107L439.485 103.88ZM474.468 116V50.96H496.188V69.92L492.948 64.52C494.868 59.64 497.988 56 502.308 53.6C506.628 51.12 511.868 49.88 518.028 49.88V70.4C516.988 70.24 516.068 70.16 515.268 70.16C514.548 70.08 513.748 70.04 512.868 70.04C508.228 70.04 504.468 71.32 501.588 73.88C498.708 76.36 497.268 80.44 497.268 86.12V116H474.468ZM560.931 117.08C553.251 117.08 546.531 115.64 540.771 112.76C535.091 109.8 530.651 105.8 527.451 100.76C524.331 95.64 522.771 89.84 522.771 83.36C522.771 76.88 524.291 71.12 527.331 66.08C530.451 60.96 534.731 57 540.171 54.2C545.611 51.32 551.731 49.88 558.531 49.88C564.931 49.88 570.771 51.2 576.051 53.84C581.331 56.4 585.531 60.2 588.651 65.24C591.771 70.28 593.331 76.4 593.331 83.6C593.331 84.4 593.291 85.32 593.211 86.36C593.131 87.4 593.051 88.36 592.971 89.24H541.491V77.24H580.851L572.211 80.6C572.291 77.64 571.731 75.08 570.531 72.92C569.411 70.76 567.811 69.08 565.731 67.88C563.731 66.68 561.371 66.08 558.651 66.08C555.931 66.08 553.531 66.68 551.451 67.88C549.451 69.08 547.891 70.8 546.771 73.04C545.651 75.2 545.091 77.76 545.091 80.72V84.2C545.091 87.4 545.731 90.16 547.011 92.48C548.371 94.8 550.291 96.6 552.771 97.88C555.251 99.08 558.211 99.68 561.651 99.68C564.851 99.68 567.571 99.24 569.811 98.36C572.131 97.4 574.411 95.96 576.651 94.04L588.651 106.52C585.531 109.96 581.691 112.6 577.131 114.44C572.571 116.2 567.171 117.08 560.931 117.08ZM641.806 116V103.88L640.246 100.88V78.56C640.246 74.96 639.126 72.2 636.886 70.28C634.726 68.28 631.246 67.28 626.446 67.28C623.326 67.28 620.166 67.8 616.966 68.84C613.766 69.8 611.046 71.16 608.806 72.92L601.126 57.44C604.806 55.04 609.206 53.2 614.326 51.92C619.526 50.56 624.686 49.88 629.806 49.88C640.366 49.88 648.526 52.32 654.286 57.2C660.126 62 663.046 69.56 663.046 79.88V116H641.806ZM622.606 117.08C617.406 117.08 613.006 116.2 609.406 114.44C605.806 112.68 603.046 110.28 601.126 107.24C599.286 104.2 598.366 100.8 598.366 97.04C598.366 93.04 599.366 89.6 601.366 86.72C603.446 83.76 606.606 81.52 610.846 80C615.086 78.4 620.566 77.6 627.286 77.6H642.646V89.48H630.406C626.726 89.48 624.126 90.08 622.606 91.28C621.166 92.48 620.446 94.08 620.446 96.08C620.446 98.08 621.206 99.68 622.726 100.88C624.246 102.08 626.326 102.68 628.966 102.68C631.446 102.68 633.686 102.08 635.686 100.88C637.766 99.6 639.286 97.68 640.246 95.12L643.366 103.52C642.166 108 639.806 111.4 636.286 113.72C632.846 115.96 628.286 117.08 622.606 117.08ZM706.477 117.08C698.157 117.08 691.677 115.04 687.037 110.96C682.397 106.8 680.077 100.56 680.077 92.24V36.44H702.877V92C702.877 94.32 703.517 96.16 704.797 97.52C706.077 98.8 707.717 99.44 709.717 99.44C712.437 99.44 714.757 98.76 716.677 97.4L722.317 113.36C720.397 114.64 718.037 115.56 715.237 116.12C712.437 116.76 709.517 117.08 706.477 117.08ZM670.597 70.4V53.36H717.757V70.4H670.597ZM19.4416 215.12C15.3349 215.12 11.6016 214.427 8.24156 213.04C4.9349 211.6 2.18823 209.547 0.00156239 206.88L8.64156 196.64C10.1349 198.56 11.6816 200.027 13.2816 201.04C14.8816 202 16.5616 202.48 18.3216 202.48C23.0149 202.48 25.3616 199.76 25.3616 194.32V170.24H6.00156V158H41.0416V193.36C41.0416 200.667 39.2016 206.133 35.5216 209.76C31.8416 213.333 26.4816 215.12 19.4416 215.12ZM72.7728 214.72C68.0261 214.72 63.8128 213.76 60.1328 211.84C56.4528 209.92 53.5461 207.28 51.4128 203.92C49.3328 200.507 48.2928 196.613 48.2928 192.24C48.2928 187.867 49.3328 184 51.4128 180.64C53.5461 177.28 56.4528 174.667 60.1328 172.8C63.8128 170.88 68.0261 169.92 72.7728 169.92C77.5195 169.92 81.7328 170.88 85.4128 172.8C89.1461 174.667 92.0528 177.28 94.1328 180.64C96.2128 184 97.2528 187.867 97.2528 192.24C97.2528 196.613 96.2128 200.507 94.1328 203.92C92.0528 207.28 89.1461 209.92 85.4128 211.84C81.7328 213.76 77.5195 214.72 72.7728 214.72ZM72.7728 202.64C74.5328 202.64 76.0795 202.24 77.4128 201.44C78.7995 200.64 79.8928 199.467 80.6928 197.92C81.4928 196.32 81.8928 194.427 81.8928 192.24C81.8928 190.053 81.4928 188.213 80.6928 186.72C79.8928 185.173 78.7995 184 77.4128 183.2C76.0795 182.4 74.5328 182 72.7728 182C71.0661 182 69.5195 182.4 68.1328 183.2C66.7995 184 65.7061 185.173 64.8528 186.72C64.0528 188.213 63.6528 190.053 63.6528 192.24C63.6528 194.427 64.0528 196.32 64.8528 197.92C65.7061 199.467 66.7995 200.64 68.1328 201.44C69.5195 202.24 71.0661 202.64 72.7728 202.64ZM132.534 169.92C135.894 169.92 138.934 170.613 141.654 172C144.374 173.333 146.507 175.413 148.054 178.24C149.654 181.067 150.454 184.72 150.454 189.2V214H135.254V191.68C135.254 188.587 134.614 186.347 133.334 184.96C132.107 183.52 130.374 182.8 128.134 182.8C126.534 182.8 125.067 183.173 123.734 183.92C122.401 184.613 121.361 185.707 120.614 187.2C119.867 188.693 119.494 190.64 119.494 193.04V214H104.294V154.64H119.494V182.96L115.974 179.36C117.627 176.213 119.894 173.867 122.774 172.32C125.654 170.72 128.907 169.92 132.534 169.92ZM188.237 169.92C191.597 169.92 194.637 170.613 197.357 172C200.077 173.333 202.211 175.413 203.757 178.24C205.357 181.067 206.157 184.72 206.157 189.2V214H190.957V191.68C190.957 188.587 190.317 186.347 189.037 184.96C187.811 183.52 186.077 182.8 183.837 182.8C182.237 182.8 180.771 183.173 179.437 183.92C178.104 184.613 177.064 185.707 176.317 187.2C175.571 188.693 175.197 190.64 175.197 193.04V214H159.997V170.64H174.477V182.96L171.677 179.36C173.331 176.213 175.597 173.867 178.477 172.32C181.357 170.72 184.611 169.92 188.237 169.92ZM214.02 226.56L220.02 205.76L222.18 214.4C219.514 214.4 217.327 213.627 215.62 212.08C213.914 210.48 213.06 208.347 213.06 205.68C213.06 202.907 213.914 200.72 215.62 199.12C217.38 197.52 219.567 196.72 222.18 196.72C224.794 196.72 226.954 197.547 228.66 199.2C230.367 200.8 231.22 202.96 231.22 205.68C231.22 206.427 231.167 207.173 231.06 207.92C230.954 208.667 230.714 209.573 230.34 210.64C229.967 211.707 229.38 213.12 228.58 214.88L223.54 226.56H214.02ZM262.358 214V158H275.398L306.278 195.28H300.118V158H315.638V214H302.598L271.718 176.72H277.878V214H262.358ZM347.851 214.72C343.104 214.72 338.891 213.76 335.211 211.84C331.531 209.92 328.624 207.28 326.491 203.92C324.411 200.507 323.371 196.613 323.371 192.24C323.371 187.867 324.411 184 326.491 180.64C328.624 177.28 331.531 174.667 335.211 172.8C338.891 170.88 343.104 169.92 347.851 169.92C352.598 169.92 356.811 170.88 360.491 172.8C364.224 174.667 367.131 177.28 369.211 180.64C371.291 184 372.331 187.867 372.331 192.24C372.331 196.613 371.291 200.507 369.211 203.92C367.131 207.28 364.224 209.92 360.491 211.84C356.811 213.76 352.598 214.72 347.851 214.72ZM347.851 202.64C349.611 202.64 351.158 202.24 352.491 201.44C353.878 200.64 354.971 199.467 355.771 197.92C356.571 196.32 356.971 194.427 356.971 192.24C356.971 190.053 356.571 188.213 355.771 186.72C354.971 185.173 353.878 184 352.491 183.2C351.158 182.4 349.611 182 347.851 182C346.144 182 344.598 182.4 343.211 183.2C341.878 184 340.784 185.173 339.931 186.72C339.131 188.213 338.731 190.053 338.731 192.24C338.731 194.427 339.131 196.32 339.931 197.92C340.784 199.467 341.878 200.64 343.211 201.44C344.598 202.24 346.144 202.64 347.851 202.64ZM388.52 214L373.08 170.64H387.48L399.72 206.88H392.84L405.56 170.64H418.52L430.76 206.88H424.04L436.68 170.64H450.04L434.6 214H419.88L409.48 184H413.96L403.24 214H388.52ZM492.846 214V190.32L496.526 199.84L471.486 158H488.206L506.286 188.32H496.606L514.766 158H530.126L505.166 199.84L508.686 190.32V214H492.846ZM550.429 214.72C545.682 214.72 541.469 213.76 537.789 211.84C534.109 209.92 531.202 207.28 529.069 203.92C526.989 200.507 525.949 196.613 525.949 192.24C525.949 187.867 526.989 184 529.069 180.64C531.202 177.28 534.109 174.667 537.789 172.8C541.469 170.88 545.682 169.92 550.429 169.92C555.176 169.92 559.389 170.88 563.069 172.8C566.802 174.667 569.709 177.28 571.789 180.64C573.869 184 574.909 187.867 574.909 192.24C574.909 196.613 573.869 200.507 571.789 203.92C569.709 207.28 566.802 209.92 563.069 211.84C559.389 213.76 555.176 214.72 550.429 214.72ZM550.429 202.64C552.189 202.64 553.736 202.24 555.069 201.44C556.456 200.64 557.549 199.467 558.349 197.92C559.149 196.32 559.549 194.427 559.549 192.24C559.549 190.053 559.149 188.213 558.349 186.72C557.549 185.173 556.456 184 555.069 183.2C553.736 182.4 552.189 182 550.429 182C548.722 182 547.176 182.4 545.789 183.2C544.456 184 543.362 185.173 542.509 186.72C541.709 188.213 541.309 190.053 541.309 192.24C541.309 194.427 541.709 196.32 542.509 197.92C543.362 199.467 544.456 200.64 545.789 201.44C547.176 202.24 548.722 202.64 550.429 202.64ZM600.19 214.72C596.67 214.72 593.497 214.027 590.67 212.64C587.897 211.253 585.71 209.093 584.11 206.16C582.564 203.173 581.79 199.413 581.79 194.88V170.64H596.99V192.4C596.99 195.76 597.604 198.16 598.83 199.6C600.11 201.04 601.897 201.76 604.19 201.76C605.684 201.76 607.044 201.413 608.27 200.72C609.497 200.027 610.484 198.933 611.23 197.44C611.977 195.893 612.35 193.92 612.35 191.52V170.64H627.55V214H613.07V201.76L615.87 205.2C614.377 208.4 612.217 210.8 609.39 212.4C606.564 213.947 603.497 214.72 600.19 214.72ZM637.341 214V170.64H651.821V183.28L649.661 179.68C650.941 176.427 653.021 174 655.901 172.4C658.781 170.747 662.274 169.92 666.381 169.92V183.6C665.688 183.493 665.074 183.44 664.541 183.44C664.061 183.387 663.528 183.36 662.941 183.36C659.848 183.36 657.341 184.213 655.421 185.92C653.501 187.573 652.541 190.293 652.541 194.08V214H637.341ZM696.811 214V158H723.291C729.478 158 734.918 159.147 739.611 161.44C744.304 163.733 747.958 166.96 750.571 171.12C753.238 175.28 754.571 180.24 754.571 186C754.571 191.707 753.238 196.667 750.571 200.88C747.958 205.04 744.304 208.267 739.611 210.56C734.918 212.853 729.478 214 723.291 214H696.811ZM712.651 201.36H722.651C725.851 201.36 728.624 200.773 730.971 199.6C733.371 198.373 735.238 196.613 736.571 194.32C737.904 191.973 738.571 189.2 738.571 186C738.571 182.747 737.904 179.973 736.571 177.68C735.238 175.387 733.371 173.653 730.971 172.48C728.624 171.253 725.851 170.64 722.651 170.64H712.651V201.36ZM784.905 214.72C779.785 214.72 775.305 213.76 771.465 211.84C767.678 209.867 764.718 207.2 762.585 203.84C760.505 200.427 759.465 196.56 759.465 192.24C759.465 187.92 760.478 184.08 762.505 180.72C764.585 177.307 767.438 174.667 771.065 172.8C774.691 170.88 778.771 169.92 783.305 169.92C787.571 169.92 791.465 170.8 794.985 172.56C798.505 174.267 801.305 176.8 803.385 180.16C805.465 183.52 806.505 187.6 806.505 192.4C806.505 192.933 806.478 193.547 806.425 194.24C806.371 194.933 806.318 195.573 806.265 196.16H771.945V188.16H798.185L792.425 190.4C792.478 188.427 792.105 186.72 791.305 185.28C790.558 183.84 789.491 182.72 788.105 181.92C786.771 181.12 785.198 180.72 783.385 180.72C781.571 180.72 779.971 181.12 778.585 181.92C777.251 182.72 776.211 183.867 775.465 185.36C774.718 186.8 774.345 188.507 774.345 190.48V192.8C774.345 194.933 774.771 196.773 775.625 198.32C776.531 199.867 777.811 201.067 779.465 201.92C781.118 202.72 783.091 203.12 785.385 203.12C787.518 203.12 789.331 202.827 790.825 202.24C792.371 201.6 793.891 200.64 795.385 199.36L803.385 207.68C801.305 209.973 798.745 211.733 795.705 212.96C792.665 214.133 789.065 214.72 784.905 214.72ZM824.812 214L806.972 170.64H822.572L836.812 206.88H828.972L843.932 170.64H858.412L840.492 214H824.812ZM862.341 214V170.64H877.541V214H862.341ZM869.941 165.84C867.168 165.84 864.928 165.067 863.221 163.52C861.514 161.973 860.661 160.053 860.661 157.76C860.661 155.467 861.514 153.547 863.221 152C864.928 150.453 867.168 149.68 869.941 149.68C872.714 149.68 874.954 150.427 876.661 151.92C878.368 153.36 879.221 155.227 879.221 157.52C879.221 159.92 878.368 161.92 876.661 163.52C875.008 165.067 872.768 165.84 869.941 165.84ZM909.579 214.72C904.779 214.72 900.486 213.76 896.699 211.84C892.966 209.92 890.032 207.28 887.899 203.92C885.766 200.507 884.699 196.613 884.699 192.24C884.699 187.867 885.766 184 887.899 180.64C890.032 177.28 892.966 174.667 896.699 172.8C900.486 170.88 904.779 169.92 909.579 169.92C914.486 169.92 918.726 170.96 922.299 173.04C925.872 175.12 928.406 178.053 929.899 181.84L918.139 187.84C917.126 185.813 915.872 184.347 914.379 183.44C912.886 182.48 911.259 182 909.499 182C907.739 182 906.139 182.4 904.699 183.2C903.259 184 902.112 185.173 901.259 186.72C900.459 188.213 900.059 190.053 900.059 192.24C900.059 194.48 900.459 196.373 901.259 197.92C902.112 199.467 903.259 200.64 904.699 201.44C906.139 202.24 907.739 202.64 909.499 202.64C911.259 202.64 912.886 202.187 914.379 201.28C915.872 200.32 917.126 198.827 918.139 196.8L929.899 202.8C928.406 206.587 925.872 209.52 922.299 211.6C918.726 213.68 914.486 214.72 909.579 214.72ZM957.873 214.72C952.753 214.72 948.273 213.76 944.433 211.84C940.647 209.867 937.687 207.2 935.553 203.84C933.473 200.427 932.433 196.56 932.433 192.24C932.433 187.92 933.447 184.08 935.473 180.72C937.553 177.307 940.407 174.667 944.033 172.8C947.66 170.88 951.74 169.92 956.273 169.92C960.54 169.92 964.433 170.8 967.953 172.56C971.473 174.267 974.273 176.8 976.353 180.16C978.433 183.52 979.473 187.6 979.473 192.4C979.473 192.933 979.447 193.547 979.393 194.24C979.34 194.933 979.287 195.573 979.233 196.16H944.913V188.16H971.153L965.393 190.4C965.447 188.427 965.073 186.72 964.273 185.28C963.527 183.84 962.46 182.72 961.073 181.92C959.74 181.12 958.167 180.72 956.353 180.72C954.54 180.72 952.94 181.12 951.553 181.92C950.22 182.72 949.18 183.867 948.433 185.36C947.687 186.8 947.313 188.507 947.313 190.48V192.8C947.313 194.933 947.74 196.773 948.593 198.32C949.5 199.867 950.78 201.067 952.433 201.92C954.087 202.72 956.06 203.12 958.353 203.12C960.487 203.12 962.3 202.827 963.793 202.24C965.34 201.6 966.86 200.64 968.353 199.36L976.353 207.68C974.273 209.973 971.713 211.733 968.673 212.96C965.633 214.133 962.033 214.72 957.873 214.72ZM1009.76 214V170.64H1024.96V214H1009.76ZM1017.36 165.84C1014.59 165.84 1012.35 165.067 1010.64 163.52C1008.94 161.973 1008.08 160.053 1008.08 157.76C1008.08 155.467 1008.94 153.547 1010.64 152C1012.35 150.453 1014.59 149.68 1017.36 149.68C1020.14 149.68 1022.38 150.427 1024.08 151.92C1025.79 153.36 1026.64 155.227 1026.64 157.52C1026.64 159.92 1025.79 161.92 1024.08 163.52C1022.43 165.067 1020.19 165.84 1017.36 165.84ZM1050.6 214.72C1046.92 214.72 1043.32 214.293 1039.8 213.44C1036.33 212.587 1033.53 211.52 1031.4 210.24L1035.96 199.84C1037.99 201.067 1040.36 202.053 1043.08 202.8C1045.8 203.493 1048.47 203.84 1051.08 203.84C1053.64 203.84 1055.4 203.573 1056.36 203.04C1057.37 202.507 1057.88 201.787 1057.88 200.88C1057.88 200.027 1057.4 199.413 1056.44 199.04C1055.53 198.613 1054.31 198.293 1052.76 198.08C1051.27 197.867 1049.61 197.627 1047.8 197.36C1045.99 197.093 1044.15 196.747 1042.28 196.32C1040.47 195.84 1038.79 195.147 1037.24 194.24C1035.75 193.28 1034.55 192 1033.64 190.4C1032.73 188.8 1032.28 186.773 1032.28 184.32C1032.28 181.547 1033.08 179.093 1034.68 176.96C1036.33 174.773 1038.73 173.067 1041.88 171.84C1045.03 170.56 1048.87 169.92 1053.4 169.92C1056.44 169.92 1059.51 170.24 1062.6 170.88C1065.75 171.467 1068.39 172.373 1070.52 173.6L1065.96 183.92C1063.83 182.693 1061.69 181.867 1059.56 181.44C1057.43 180.96 1055.4 180.72 1053.48 180.72C1050.92 180.72 1049.11 181.013 1048.04 181.6C1047.03 182.187 1046.52 182.907 1046.52 183.76C1046.52 184.613 1046.97 185.28 1047.88 185.76C1048.79 186.187 1049.99 186.533 1051.48 186.8C1053.03 187.013 1054.71 187.253 1056.52 187.52C1058.33 187.733 1060.15 188.08 1061.96 188.56C1063.83 189.04 1065.51 189.76 1067 190.72C1068.55 191.627 1069.77 192.88 1070.68 194.48C1071.59 196.027 1072.04 198.027 1072.04 200.48C1072.04 203.147 1071.21 205.547 1069.56 207.68C1067.96 209.813 1065.56 211.52 1062.36 212.8C1059.21 214.08 1055.29 214.72 1050.6 214.72ZM245.388 312V268.64H259.868V281.28L257.708 277.68C258.988 274.427 261.068 272 263.948 270.4C266.828 268.747 270.321 267.92 274.428 267.92V281.6C273.734 281.493 273.121 281.44 272.588 281.44C272.108 281.387 271.574 281.36 270.988 281.36C267.894 281.36 265.388 282.213 263.468 283.92C261.548 285.573 260.588 288.293 260.588 292.08V312H245.388ZM303.03 312.72C297.91 312.72 293.43 311.76 289.59 309.84C285.803 307.867 282.843 305.2 280.71 301.84C278.63 298.427 277.59 294.56 277.59 290.24C277.59 285.92 278.603 282.08 280.63 278.72C282.71 275.307 285.563 272.667 289.19 270.8C292.816 268.88 296.896 267.92 301.43 267.92C305.696 267.92 309.59 268.8 313.11 270.56C316.63 272.267 319.43 274.8 321.51 278.16C323.59 281.52 324.63 285.6 324.63 290.4C324.63 290.933 324.603 291.547 324.55 292.24C324.496 292.933 324.443 293.573 324.39 294.16H290.07V286.16H316.31L310.55 288.4C310.603 286.427 310.23 284.72 309.43 283.28C308.683 281.84 307.616 280.72 306.23 279.92C304.896 279.12 303.323 278.72 301.51 278.72C299.696 278.72 298.096 279.12 296.71 279.92C295.376 280.72 294.336 281.867 293.59 283.36C292.843 284.8 292.47 286.507 292.47 288.48V290.8C292.47 292.933 292.896 294.773 293.75 296.32C294.656 297.867 295.936 299.067 297.59 299.92C299.243 300.72 301.216 301.12 303.51 301.12C305.643 301.12 307.456 300.827 308.95 300.24C310.496 299.6 312.016 298.64 313.51 297.36L321.51 305.68C319.43 307.973 316.87 309.733 313.83 310.96C310.79 312.133 307.19 312.72 303.03 312.72ZM356.946 312V303.92L355.906 301.92V287.04C355.906 284.64 355.159 282.8 353.666 281.52C352.226 280.187 349.906 279.52 346.706 279.52C344.626 279.52 342.519 279.867 340.386 280.56C338.253 281.2 336.439 282.107 334.946 283.28L329.826 272.96C332.279 271.36 335.213 270.133 338.626 269.28C342.093 268.373 345.533 267.92 348.946 267.92C355.986 267.92 361.426 269.547 365.266 272.8C369.159 276 371.106 281.04 371.106 287.92V312H356.946ZM344.146 312.72C340.679 312.72 337.746 312.133 335.346 310.96C332.946 309.787 331.106 308.187 329.826 306.16C328.599 304.133 327.986 301.867 327.986 299.36C327.986 296.693 328.653 294.4 329.986 292.48C331.373 290.507 333.479 289.013 336.306 288C339.133 286.933 342.786 286.4 347.266 286.4H357.506V294.32H349.346C346.893 294.32 345.159 294.72 344.146 295.52C343.186 296.32 342.706 297.387 342.706 298.72C342.706 300.053 343.213 301.12 344.226 301.92C345.239 302.72 346.626 303.12 348.386 303.12C350.039 303.12 351.533 302.72 352.866 301.92C354.253 301.067 355.266 299.787 355.906 298.08L357.986 303.68C357.186 306.667 355.613 308.933 353.266 310.48C350.973 311.973 347.933 312.72 344.146 312.72ZM400.127 312.72C396.181 312.72 392.581 311.813 389.327 310C386.127 308.133 383.567 305.547 381.647 302.24C379.727 298.88 378.767 294.88 378.767 290.24C378.767 285.653 379.727 281.707 381.647 278.4C383.567 275.04 386.127 272.453 389.327 270.64C392.581 268.827 396.181 267.92 400.127 267.92C403.861 267.92 407.007 268.72 409.567 270.32C412.181 271.92 414.154 274.373 415.487 277.68C416.821 280.987 417.487 285.173 417.487 290.24C417.487 295.413 416.847 299.653 415.567 302.96C414.287 306.267 412.367 308.72 409.807 310.32C407.247 311.92 404.021 312.72 400.127 312.72ZM403.327 300.64C405.034 300.64 406.554 300.24 407.887 299.44C409.274 298.64 410.367 297.467 411.167 295.92C411.967 294.32 412.367 292.427 412.367 290.24C412.367 288.053 411.967 286.213 411.167 284.72C410.367 283.173 409.274 282 407.887 281.2C406.554 280.4 405.034 280 403.327 280C401.567 280 399.994 280.4 398.607 281.2C397.274 282 396.207 283.173 395.407 284.72C394.607 286.213 394.207 288.053 394.207 290.24C394.207 292.427 394.607 294.32 395.407 295.92C396.207 297.467 397.274 298.64 398.607 299.44C399.994 300.24 401.567 300.64 403.327 300.64ZM412.847 312V304.56L412.927 290.24L412.127 275.92V252.64H427.327V312H412.847ZM444.547 328.24C442.253 328.24 439.933 327.867 437.587 327.12C435.293 326.427 433.427 325.493 431.987 324.32L437.267 313.68C438.173 314.48 439.213 315.093 440.387 315.52C441.613 316 442.813 316.24 443.987 316.24C445.64 316.24 446.947 315.867 447.907 315.12C448.867 314.373 449.693 313.2 450.387 311.6L452.387 306.56L453.587 305.04L468.307 268.64H482.787L464.067 313.76C462.573 317.493 460.84 320.4 458.867 322.48C456.947 324.613 454.787 326.107 452.387 326.96C450.04 327.813 447.427 328.24 444.547 328.24ZM450.467 313.84L431.347 268.64H446.947L461.027 303.68L450.467 313.84ZM529.357 312.72C523.811 312.72 519.491 311.36 516.397 308.64C513.304 305.867 511.757 301.707 511.757 296.16V258.96H526.957V296C526.957 297.547 527.384 298.773 528.237 299.68C529.091 300.533 530.184 300.96 531.517 300.96C533.331 300.96 534.877 300.507 536.157 299.6L539.917 310.24C538.637 311.093 537.064 311.707 535.197 312.08C533.331 312.507 531.384 312.72 529.357 312.72ZM505.437 281.6V270.24H536.877V281.6H505.437ZM566.288 312.72C561.542 312.72 557.328 311.76 553.648 309.84C549.968 307.92 547.062 305.28 544.928 301.92C542.848 298.507 541.808 294.613 541.808 290.24C541.808 285.867 542.848 282 544.928 278.64C547.062 275.28 549.968 272.667 553.648 270.8C557.328 268.88 561.542 267.92 566.288 267.92C571.035 267.92 575.248 268.88 578.928 270.8C582.662 272.667 585.568 275.28 587.648 278.64C589.728 282 590.768 285.867 590.768 290.24C590.768 294.613 589.728 298.507 587.648 301.92C585.568 305.28 582.662 307.92 578.928 309.84C575.248 311.76 571.035 312.72 566.288 312.72ZM566.288 300.64C568.048 300.64 569.595 300.24 570.928 299.44C572.315 298.64 573.408 297.467 574.208 295.92C575.008 294.32 575.408 292.427 575.408 290.24C575.408 288.053 575.008 286.213 574.208 284.72C573.408 283.173 572.315 282 570.928 281.2C569.595 280.4 568.048 280 566.288 280C564.582 280 563.035 280.4 561.648 281.2C560.315 282 559.222 283.173 558.368 284.72C557.568 286.213 557.168 288.053 557.168 290.24C557.168 292.427 557.568 294.32 558.368 295.92C559.222 297.467 560.315 298.64 561.648 299.44C563.035 300.24 564.582 300.64 566.288 300.64ZM636.851 312.72C633.171 312.72 629.571 312.293 626.051 311.44C622.584 310.587 619.784 309.52 617.651 308.24L622.211 297.84C624.238 299.067 626.611 300.053 629.331 300.8C632.051 301.493 634.718 301.84 637.331 301.84C639.891 301.84 641.651 301.573 642.611 301.04C643.624 300.507 644.131 299.787 644.131 298.88C644.131 298.027 643.651 297.413 642.691 297.04C641.784 296.613 640.558 296.293 639.011 296.08C637.518 295.867 635.864 295.627 634.051 295.36C632.238 295.093 630.398 294.747 628.531 294.32C626.718 293.84 625.038 293.147 623.491 292.24C621.998 291.28 620.798 290 619.891 288.4C618.984 286.8 618.531 284.773 618.531 282.32C618.531 279.547 619.331 277.093 620.931 274.96C622.584 272.773 624.984 271.067 628.131 269.84C631.278 268.56 635.118 267.92 639.651 267.92C642.691 267.92 645.758 268.24 648.851 268.88C651.998 269.467 654.638 270.373 656.771 271.6L652.211 281.92C650.078 280.693 647.944 279.867 645.811 279.44C643.678 278.96 641.651 278.72 639.731 278.72C637.171 278.72 635.358 279.013 634.291 279.6C633.278 280.187 632.771 280.907 632.771 281.76C632.771 282.613 633.224 283.28 634.131 283.76C635.038 284.187 636.238 284.533 637.731 284.8C639.278 285.013 640.958 285.253 642.771 285.52C644.584 285.733 646.398 286.08 648.211 286.56C650.078 287.04 651.758 287.76 653.251 288.72C654.798 289.627 656.024 290.88 656.931 292.48C657.838 294.027 658.291 296.027 658.291 298.48C658.291 301.147 657.464 303.547 655.811 305.68C654.211 307.813 651.811 309.52 648.611 310.8C645.464 312.08 641.544 312.72 636.851 312.72ZM687.561 312.72C682.441 312.72 677.961 311.76 674.121 309.84C670.334 307.867 667.374 305.2 665.241 301.84C663.161 298.427 662.121 294.56 662.121 290.24C662.121 285.92 663.134 282.08 665.161 278.72C667.241 275.307 670.094 272.667 673.721 270.8C677.348 268.88 681.428 267.92 685.961 267.92C690.228 267.92 694.121 268.8 697.641 270.56C701.161 272.267 703.961 274.8 706.041 278.16C708.121 281.52 709.161 285.6 709.161 290.4C709.161 290.933 709.134 291.547 709.081 292.24C709.028 292.933 708.974 293.573 708.921 294.16H674.601V286.16H700.841L695.081 288.4C695.134 286.427 694.761 284.72 693.961 283.28C693.214 281.84 692.148 280.72 690.761 279.92C689.428 279.12 687.854 278.72 686.041 278.72C684.228 278.72 682.628 279.12 681.241 279.92C679.908 280.72 678.868 281.867 678.121 283.36C677.374 284.8 677.001 286.507 677.001 288.48V290.8C677.001 292.933 677.428 294.773 678.281 296.32C679.188 297.867 680.468 299.067 682.121 299.92C683.774 300.72 685.748 301.12 688.041 301.12C690.174 301.12 691.988 300.827 693.481 300.24C695.028 299.6 696.548 298.64 698.041 297.36L706.041 305.68C703.961 307.973 701.401 309.733 698.361 310.96C695.321 312.133 691.721 312.72 687.561 312.72ZM735.529 312.72C729.982 312.72 725.662 311.36 722.569 308.64C719.476 305.867 717.929 301.707 717.929 296.16V258.96H733.129V296C733.129 297.547 733.556 298.773 734.409 299.68C735.262 300.533 736.356 300.96 737.689 300.96C739.502 300.96 741.049 300.507 742.329 299.6L746.089 310.24C744.809 311.093 743.236 311.707 741.369 312.08C739.502 312.507 737.556 312.72 735.529 312.72ZM711.609 281.6V270.24H743.049V281.6H711.609ZM770.19 312.72C766.67 312.72 763.497 312.027 760.67 310.64C757.897 309.253 755.71 307.093 754.11 304.16C752.564 301.173 751.79 297.413 751.79 292.88V268.64H766.99V290.4C766.99 293.76 767.604 296.16 768.83 297.6C770.11 299.04 771.897 299.76 774.19 299.76C775.684 299.76 777.044 299.413 778.27 298.72C779.497 298.027 780.484 296.933 781.23 295.44C781.977 293.893 782.35 291.92 782.35 289.52V268.64H797.55V312H783.07V299.76L785.87 303.2C784.377 306.4 782.217 308.8 779.39 310.4C776.564 311.947 773.497 312.72 770.19 312.72ZM834.621 312.72C830.941 312.72 827.794 311.92 825.181 310.32C822.568 308.667 820.568 306.213 819.181 302.96C817.848 299.653 817.181 295.44 817.181 290.32C817.181 285.147 817.821 280.933 819.101 277.68C820.381 274.373 822.301 271.92 824.861 270.32C827.474 268.72 830.728 267.92 834.621 267.92C838.568 267.92 842.141 268.853 845.341 270.72C848.594 272.533 851.154 275.12 853.021 278.48C854.941 281.787 855.901 285.733 855.901 290.32C855.901 294.907 854.941 298.88 853.021 302.24C851.154 305.6 848.594 308.187 845.341 310C842.141 311.813 838.568 312.72 834.621 312.72ZM807.341 327.52V268.64H821.821V276L821.741 290.32L822.541 304.72V327.52H807.341ZM831.421 300.64C833.128 300.64 834.648 300.24 835.981 299.44C837.368 298.64 838.461 297.467 839.261 295.92C840.114 294.373 840.541 292.507 840.541 290.32C840.541 288.133 840.114 286.267 839.261 284.72C838.461 283.173 837.368 282 835.981 281.2C834.648 280.4 833.128 280 831.421 280C829.714 280 828.168 280.4 826.781 281.2C825.448 282 824.354 283.173 823.501 284.72C822.701 286.267 822.301 288.133 822.301 290.32C822.301 292.507 822.701 294.373 823.501 295.92C824.354 297.467 825.448 298.64 826.781 299.44C828.168 300.24 829.714 300.64 831.421 300.64Z" fill="black"/>
</svg>
